<svg version="1.1" id="collaborer" xmlns="http://www.w3.org/2000/svg" xmlns:xlink="http://www.w3.org/1999/xlink" x="0px" y="0px"
	 viewBox="0 0 40 40" style="enable-background:new 0 0 40 40;" xml:space="preserve">
<path 
	fill="currentColor"
	d="M24.7,2.8c0,0-0.1,0.1-0.2,0.1c-0.2,0.2-0.9,1-1.9,2.4c-0.3,0.4-0.7,0.8-0.7,0.9c-0.2,0.1-0.3,0.2-0.5,0.2
	c-0.1,0-0.2,0-0.5-0.2c-0.5-0.3-0.8-0.4-1.3-0.6c-0.8-0.2-1.6-0.4-2.7-0.4c-1.6,0-3.3,0.1-5.7,0.6C10.3,6,10.2,6,9.6,5.4
	C8.7,4.6,7.8,3.8,7.5,3.7c-0.1,0-0.2-0.1-0.2-0.1C7,3.6,6.7,3.7,6.3,4.1C6,4.4,5.9,4.7,5.6,5.1C4.7,6.5,3.7,8.1,2.8,9.8
	C2,11.3,1.4,12.6,1.4,13c0,0.3,0.1,0.4,0.4,0.6c0.4,0.2,0.6,0.3,1.3,0.7c1.1,0.7,1.3,0.8,1.8,0.9c0.2,0.1,0.5,0.2,0.5,0.2
	c0.1,0.1,0.1,0.1,0.2,0.6c0.2,0.9,0.3,1.1,0.2,1.3c0,0.1-0.2,0.3-0.5,0.6c-0.7,0.8-0.8,0.9-0.9,1.2c-0.1,0.3-0.2,0.5-0.2,0.7
	c0,0.3,0,0.5,0.1,0.7c0.1,0.2,0.2,0.4,0.4,0.5c0.2,0.2,0.5,0.2,0.8,0.3c0.4,0,0.7-0.1,1-0.3c0.1-0.1,1.1-1.1,2.1-2.2
	c0.9-1,0.9-1,1-1.2c0.1-0.2,0.1-0.2,0.1-0.5c0-0.2,0-0.3,0-0.4c-0.1-0.5-0.5-0.8-1-1c-0.1,0-0.2,0-0.4,0c-0.5,0-0.7,0.1-1.2,0.5
	c-0.2,0.1-0.3,0.2-0.3,0.2c0,0-0.3-1.3-0.4-1.7c0-0.2,0-0.3,0-0.4c0-0.1,0.5-0.9,1-1.8c1-1.7,1.7-3,2-3.7c0.6-1.1,0.6-1.2,0.9-1.4
	c0.1-0.1,0.4-0.2,0.6-0.3c0.3-0.1,2.6-0.4,3.5-0.5c0.8-0.1,1.2-0.1,2.1-0.1c0.5,0,0.9,0,1.1,0C19.1,6.6,19,6.5,19,6.6
	c0,0.1,0,0.1-0.8,0.2c-0.4,0.1-1,0.1-1.3,0.2c-0.8,0.1-1.2,0.2-1.7,0.4c-0.3,0.2-0.5,0.3-0.9,0.6C14.3,8,14,8.3,13.7,8.5
	c-0.7,0.5-0.9,0.7-1,1c-0.1,0.1-0.1,0.2-0.1,0.4c0,0.2,0,0.2,0.1,0.3c0.1,0.2,0.3,0.4,0.5,0.5c0.6,0.4,1.1,0.5,1.7,0.5
	c0.4,0,0.7-0.1,1.1-0.3c0.6-0.3,0.7-0.3,1.4-0.4c0.7-0.1,1.5-0.2,2.3-0.3c0.6-0.1,0.7-0.1,0.9,0c0.1,0.1,0.3,0.2,3.6,3.1
	c1.8,1.6,4.1,3.6,4.2,3.7c0.4,0.4,0.5,0.9,0.2,1.4c-0.2,0.3-0.5,0.5-0.9,0.8c-0.2,0.1-0.4,0.2-0.6,0.2c-0.2,0-0.4-0.1-1.1-0.7
	c-1.2-1-2.4-2.1-2.6-2.2c-0.3-0.2-0.5-0.2-0.7-0.1c-0.2,0.1-0.3,0.2-0.3,0.4c0,0.2,0.1,0.4,0.4,0.6c0.1,0.1,0.8,0.7,1.7,1.4
	c0.9,0.8,1.6,1.4,1.6,1.4c0.1,0.1,0.1,0.3,0.1,0.5c0,0.3-0.1,0.5-0.2,0.8c-0.2,0.3-0.4,0.6-0.6,0.9c-0.2,0.2-0.3,0.3-0.5,0.3
	c-0.1,0-0.2,0-0.3-0.1c-0.1-0.1-1-0.8-2-1.6c-1-0.8-1.9-1.5-1.9-1.5c-0.1,0-0.1-0.1-0.3-0.1c-0.4,0-0.5,0.1-0.5,0.5
	c0,0.2,0,0.3,0.2,0.5c0.2,0.2,2.1,1.7,3.2,2.6c0.5,0.4,0.6,0.5,0.7,0.7c0.1,0.2,0.1,0.2,0.1,0.5c0,0.6-0.1,1-0.4,1.3
	c-0.4,0.4-1,0.5-1.4,0.2c-0.2-0.1-0.1,0-1.4-1.1c-1.3-1.1-2.1-1.7-2.2-1.8c-0.3-0.2-0.7-0.4-0.9-0.3c-0.2,0-0.3,0.2-0.3,0.5
	c0,0.2,0.1,0.3,0.2,0.5c0.1,0.1,1,0.8,2,1.6c1,0.8,1.9,1.5,1.9,1.6c0.1,0.1,0,0.4-0.1,0.7c-0.2,0.4-0.6,0.7-1.2,1
	c-0.2,0.1-0.5,0.1-0.7,0c-0.1,0-0.5-0.3-1.5-1c-1.6-1.1-1.5-1.1-2.1-1.6l-0.4-0.4l0-0.1c0,0,0.2-0.3,0.4-0.5
	c0.8-0.8,0.9-1.1,0.8-1.6c0-0.6-0.5-1.2-1.1-1.3c-0.3-0.1-0.8,0-1.1,0.2c-0.2,0.1-0.2,0.1-0.6,0.6c-0.4,0.5-0.9,1.1-1.7,2
	c-0.4,0.4-0.7,0.8-0.8,0.9c-0.2,0.4-0.2,0.8,0.1,1.3c0.3,0.4,0.7,0.7,1.2,0.7c0.3,0,0.4,0,0.6-0.1c0.2-0.1,0.4-0.3,0.9-0.8
	c0.2-0.2,0.3-0.3,0.3-0.3c0,0,0.3,0.2,0.7,0.5c1.6,1.2,2,1.5,2.6,1.9c0.7,0.5,0.9,0.6,1.3,0.7c0.8,0.2,1.6,0,2.4-0.7
	c0.4-0.4,0.7-0.8,0.9-1.4c0.1-0.3,0.2-0.4,0.5-0.4c0.5-0.1,1-0.3,1.3-0.6c0.5-0.5,0.7-1,0.8-1.9c0.1-0.5,0.1-0.6,0.3-0.7
	c1-0.5,1.6-1.4,1.9-2.7c0-0.2,0.1-0.4,0.1-0.5c0-0.1,0.1-0.1,0.4-0.2c1.1-0.4,1.8-1.2,2-2.4c0.1-0.8-0.1-1.4-0.7-1.9
	c-0.2-0.1-0.4-0.3-0.6-0.5c0,0,0-0.1,0.1-0.3c0.5-0.6,0.8-1.5,1-2.4c0.1-0.7,0.2-0.8,0.4-1.1c0.1-0.1,0.4-0.4,0.7-0.8
	c1.4-1.5,1.6-1.7,1.6-1.9c0-0.1,0-0.2-0.1-0.3c0-0.1-6.3-5.5-6.9-5.9C25.1,2.8,24.8,2.7,24.7,2.8z M25.1,4.3c0.1,0,1.3,1,2,1.6
	c0.6,0.5,1.2,1,2.3,2c0.5,0.5,1.1,1,1.3,1.1c0.3,0.2,0.3,0.2,0.2,0.3c-0.1,0.1-1,1.1-1.4,1.6c-0.2,0.2-0.3,0.4-0.4,0.4
	c0,0-1.4-1.1-3-2.5c-1.6-1.4-3-2.5-3-2.5c0,0,0.3-0.4,1.1-1.4c0.6-0.7,0.6-0.7,0.6-0.7C25,4.3,25,4.3,25.1,4.3z M7.4,4.9
	C7.4,4.9,7.7,5.2,8,5.5c0.3,0.3,0.7,0.6,0.8,0.7C9,6.3,9.1,6.5,9.1,6.5c0.1,0.1,0.1,0.1,0,0.2C9.1,6.8,9,7,9,7.1
	c-0.1,0.1-0.9,1.5-1.7,3.1c-0.9,1.6-1.7,3.1-1.9,3.4c-0.3,0.5-0.3,0.5-0.3,0.5c0,0-0.6-0.3-1.2-0.7s-1.1-0.7-1.2-0.7
	c0,0,0.1-0.3,0.4-1c1.5-3,2.7-5,4-6.9c0-0.1,0.1-0.1,0.1-0.1C7.2,4.8,7.3,4.8,7.4,4.9z"/>
<path 
	fill="currentColor"
     d="M10.3,17.8c-0.2,0-0.4,0.1-0.6,0.2c-0.1,0.1-0.3,0.3-0.6,0.6c-1.9,2-2.7,3-2.9,3.6c-0.1,0.2-0.1,0.6,0,0.7
	c0.1,0.4,0.4,0.8,0.8,1C7.2,23.9,7.4,24,7.5,24l0.2,0L8,23.9l0.3-0.1L8.9,23c1.4-1.5,2.8-3.2,2.9-3.3c0.1-0.2,0.2-0.3,0.2-0.6
	c0-0.2,0-0.4-0.2-0.7c-0.2-0.3-0.4-0.6-0.7-0.7C10.8,17.7,10.5,17.7,10.3,17.8z"/>
<path 
	fill="currentColor"
	d="M12.6,19.9c-0.3,0.1-0.5,0.2-0.8,0.4c-0.3,0.3-2.8,3.1-3.1,3.5c-0.2,0.3-0.3,0.6-0.3,0.9c0,0.7,0.5,1.3,1.2,1.4
	c0.4,0.1,0.9-0.1,1.3-0.5c0.1-0.1,0.6-0.7,1.1-1.3c2.3-2.6,2.3-2.6,2.3-2.9c0.1-0.4-0.1-0.9-0.5-1.2C13.5,19.9,13.1,19.9,12.6,19.9z
	"/>
</svg>
