<?xml version="1.0" encoding="UTF-8" standalone="no"?>
<svg
   xmlns:dc="http://purl.org/dc/elements/1.1/"
   xmlns:cc="http://creativecommons.org/ns#"
   xmlns:rdf="http://www.w3.org/1999/02/22-rdf-syntax-ns#"
   xmlns:svg="http://www.w3.org/2000/svg"
   xmlns="http://www.w3.org/2000/svg"
   id="science"
   enable-background="new 0 0 24 24"
   viewBox="0 0 24 24"
   width="40"
   height="40"
   version="1.1">
  <metadata
     id="metadata23">
    <rdf:RDF>
      <cc:Work
         rdf:about="">
        <dc:format>image/svg+xml</dc:format>
        <dc:type
           rdf:resource="http://purl.org/dc/dcmitype/StillImage" />
        <dc:title>ecology-earth</dc:title>
      </cc:Work>
    </rdf:RDF>
  </metadata>
  <defs
     id="defs21" />
  <title
     id="title2">ecology-earth</title>
  <g
     id="g155"
     transform="matrix(0.04163858,0,0,0.04163858,1.5000002,1.4999984)">
</g>
  <g
     id="g157"
     transform="matrix(0.04163858,0,0,0.04163858,1.5000002,1.4999984)">
</g>
  <g
     id="g159"
     transform="matrix(0.04163858,0,0,0.04163858,1.5000002,1.4999984)">
</g>
  <g
     id="g161"
     transform="matrix(0.04163858,0,0,0.04163858,1.5000002,1.4999984)">
</g>
  <g
     id="g163"
     transform="matrix(0.04163858,0,0,0.04163858,1.5000002,1.4999984)">
</g>
  <g
     id="g165"
     transform="matrix(0.04163858,0,0,0.04163858,1.5000002,1.4999984)">
</g>
  <g
     id="g167"
     transform="matrix(0.04163858,0,0,0.04163858,1.5000002,1.4999984)">
</g>
  <g
     id="g169"
     transform="matrix(0.04163858,0,0,0.04163858,1.5000002,1.4999984)">
</g>
  <g
     id="g171"
     transform="matrix(0.04163858,0,0,0.04163858,1.5000002,1.4999984)">
</g>
  <g
     id="g173"
     transform="matrix(0.04163858,0,0,0.04163858,1.5000002,1.4999984)">
</g>
  <g
     id="g175"
     transform="matrix(0.04163858,0,0,0.04163858,1.5000002,1.4999984)">
</g>
  <g
     id="g177"
     transform="matrix(0.04163858,0,0,0.04163858,1.5000002,1.4999984)">
</g>
  <g
     id="g179"
     transform="matrix(0.04163858,0,0,0.04163858,1.5000002,1.4999984)">
</g>
  <g
     id="g181"
     transform="matrix(0.04163858,0,0,0.04163858,1.5000002,1.4999984)">
</g>
  <g
     id="g183"
     transform="matrix(0.04163858,0,0,0.04163858,1.5000002,1.4999984)">
</g>
  <g
     id="g258"
     transform="matrix(0.04101563,0,0,0.04101563,34.154294,-3.1394046)">
</g>
  <g
     id="g260"
     transform="matrix(0.04101563,0,0,0.04101563,34.154294,-3.1394046)">
</g>
  <g
     id="g262"
     transform="matrix(0.04101563,0,0,0.04101563,34.154294,-3.1394046)">
</g>
  <g
     id="g264"
     transform="matrix(0.04101563,0,0,0.04101563,34.154294,-3.1394046)">
</g>
  <g
     id="g266"
     transform="matrix(0.04101563,0,0,0.04101563,34.154294,-3.1394046)">
</g>
  <g
     id="g268"
     transform="matrix(0.04101563,0,0,0.04101563,34.154294,-3.1394046)">
</g>
  <g
     id="g270"
     transform="matrix(0.04101563,0,0,0.04101563,34.154294,-3.1394046)">
</g>
  <g
     id="g272"
     transform="matrix(0.04101563,0,0,0.04101563,34.154294,-3.1394046)">
</g>
  <g
     id="g274"
     transform="matrix(0.04101563,0,0,0.04101563,34.154294,-3.1394046)">
</g>
  <g
     id="g276"
     transform="matrix(0.04101563,0,0,0.04101563,34.154294,-3.1394046)">
</g>
  <g
     id="g278"
     transform="matrix(0.04101563,0,0,0.04101563,34.154294,-3.1394046)">
</g>
  <g
     id="g280"
     transform="matrix(0.04101563,0,0,0.04101563,34.154294,-3.1394046)">
</g>
  <g
     id="g282"
     transform="matrix(0.04101563,0,0,0.04101563,34.154294,-3.1394046)">
</g>
  <g
     id="g284"
     transform="matrix(0.04101563,0,0,0.04101563,34.154294,-3.1394046)">
</g>
  <g
     id="g286"
     transform="matrix(0.04101563,0,0,0.04101563,34.154294,-3.1394046)">
</g>
  <path
     d="m 11.758197,4.0572672 c -0.29737,0.11665 -0.33516,0.13308 -1.63471,0.63253 -0.6506,0.24973 -1.31599,0.50602 -1.47864,0.56845 -0.16265,0.0624 -0.35159,0.13472 -0.41895,0.16101 -0.0674,0.0246 -0.20865,0.0789 -0.31216,0.11993 -0.1035,0.0411 -0.3483,0.13473 -0.54216,0.2103 -0.19387,0.0739 -0.45674,0.17415 -0.58324,0.22344 -0.12651,0.0493 -0.31545,0.12158 -0.41895,0.16101 -0.1035,0.0394 -0.29244,0.11171 -0.41895,0.161 -0.1265,0.0493 -0.38937,0.14951 -0.58324,0.22344 -0.19386,0.0756 -0.41566,0.16101 -0.49288,0.19058 -0.1495,0.0575 -0.33515,0.12979 -0.64074,0.24644 -0.1035,0.0394 -0.3138,0.12158 -0.46824,0.18072 -0.15279,0.0608 -0.36473,0.1413 -0.46823,0.18073 -0.10351,0.0394 -0.29244,0.11172 -0.41895,0.161 -0.1265,0.0493 -0.48466,0.18565 -0.79682,0.30559 -0.31216,0.11993 -0.57338,0.22344 -0.57995,0.23165 -0.008,0.007 0.0148,0.023 0.0493,0.0378 0.0345,0.0131 0.3253,0.14622 0.64568,0.29573 0.32037,0.14786 0.61609,0.28587 0.65717,0.30394 0.0411,0.0181 0.14129,0.0641 0.22179,0.10186 0.0822,0.0378 0.19551,0.092 0.25466,0.11829 0.34173,0.15772 0.73275,0.33844 0.85432,0.3943 0.0772,0.0361 0.21687,0.10187 0.31216,0.14458 0.0953,0.0427 0.32366,0.14787 0.50931,0.2333 0.18565,0.0871 0.37787,0.17579 0.42716,0.19879 0.0493,0.0214 0.15772,0.0723 0.23822,0.11008 0.0822,0.0378 0.18073,0.0838 0.2218,0.1018608 0.23165,0.10515 1.03012,0.47481 1.05148,0.48795 0.0214,0.0115 0.0246,0.3253 0.0296,2.63198 0.002,1.44085 0,2.63361 -0.003,2.65169 -0.005,0.0181 -0.0345,0.0476 -0.0674,0.0641 -0.0821,0.0444 -0.18401,0.16101 -0.23165,0.26451 -0.11993,0.26123 -0.0707,0.53888 0.13143,0.73932 l 0.0904,0.092 -0.0706,0.11007 c -0.34995,0.54217 -0.56353,1.4885 -0.60789,2.69277 -0.005,0.16265 -0.003,0.21851 0.0115,0.21851 0.0115,0 0.0904,-0.0707 0.1758,-0.15608 l 0.15443,-0.15608 0.16758,0.16429 c 0.0904,0.0904 0.17251,0.16429 0.17908,0.16429 0.007,0 0.0887,-0.0739 0.18072,-0.16593 l 0.16923,-0.16594 0.17086,0.16594 0.17087,0.16429 0.17086,-0.17086 0.17251,-0.17251 0.16429,0.16429 c 0.0904,0.0904 0.17251,0.1643 0.18072,0.1643 0.0329,0 -0.005,-0.76068 -0.0575,-1.16649 -0.1035,-0.79353 -0.27765,-1.33077 -0.58981,-1.81708 -0.0197,-0.0296 -0.0148,-0.0411 0.0674,-0.12322 0.0493,-0.0493 0.11008,-0.13307 0.13801,-0.18729 0.0444,-0.0904 0.0476,-0.11336 0.0476,-0.2793 0,-0.15279 -0.005,-0.19386 -0.0378,-0.26123 -0.0526,-0.11336 -0.14129,-0.2185 -0.24479,-0.28258 l -0.0871,-0.0575 v -0.44195 c 0,-0.2448 0.005,-0.44359 0.01,-0.44359 0.007,0 0.0854,0.0542 0.17744,0.12158 0.88225,0.64238 1.9288,1.09583 2.97534,1.2897 0.73275,0.13472 1.60022,0.14129 2.32968,0.0164 0.85597,-0.14623 1.36363,-0.31216 2.09638,-0.68511 0.61938,-0.3138 1.04326,-0.57174 1.55092,-0.94468 l 0.1758,-0.12979 v -1.98302 -1.98466 l 0.15279,-0.0707 c 0.0822,-0.0394 0.21851,-0.10186 0.29901,-0.13965 0.0822,-0.0378 0.18566,-0.0871 0.23001,-0.10679 0.046,-0.0197 0.28587,-0.13143 0.53396,-0.24644 0.24808,-0.1150008 0.49616,-0.2300108 0.55038,-0.2546508 0.0542,-0.0246 0.33844,-0.15608 0.63253,-0.2908 0.60952,-0.28258 0.71467,-0.33023 0.82968,-0.3828 0.046,-0.0197 0.14457,-0.0674 0.22179,-0.10351 0.13308,-0.0608 0.40745,-0.18893 0.64075,-0.29572 0.0591,-0.0263 0.16265,-0.0739 0.23001,-0.10515 0.0674,-0.0329 0.15607,-0.0739 0.19715,-0.092 0.0411,-0.0197 0.3138,-0.14622 0.60788,-0.28094 0.29409,-0.13636 0.5356,-0.25301 0.53888,-0.26122 0.002,-0.008 -0.0575,-0.0378 -0.13143,-0.0657 -0.0756,-0.0279 -0.27273,-0.1035 -0.44031,-0.16758 -0.16758,-0.0641 -0.38937,-0.14951 -0.49288,-0.18894 -0.1035,-0.0394 -0.29572,-0.11336 -0.42716,-0.16429 -0.13143,-0.0509 -0.32366,-0.12486 -0.42716,-0.16429 -0.1035,-0.0394 -0.3138,-0.12158 -0.46824,-0.18072 -0.15279,-0.0608 -0.31544,-0.12322 -0.36144,-0.13965 -0.0444,-0.0164 -0.20701,-0.0789 -0.36144,-0.13965 -0.1528,-0.0591 -0.36474,-0.14129 -0.46824,-0.18073 -0.1035,-0.0394 -0.29573,-0.11336 -0.42716,-0.16429 -0.13144,-0.0509 -0.32366,-0.12486 -0.42716,-0.16429 -0.10351,-0.0394 -0.29573,-0.11336 -0.42717,-0.16429 -0.13143,-0.0509 -0.35323,-0.13637 -0.49287,-0.18894 -0.13965,-0.0526 -0.33188,-0.12651 -0.42717,-0.16429 -0.0953,-0.0378 -0.25794,-0.10022 -0.36144,-0.13965 -0.10351,-0.0394 -0.3138,-0.11994 -0.46824,-0.18073 -0.15279,-0.0608 -0.31544,-0.12322 -0.36144,-0.13965 -0.0444,-0.0164 -0.23658,-0.0904 -0.42716,-0.16429 -0.18894,-0.0739 -0.43045,-0.16593 -0.53396,-0.20536 -0.1035,-0.0394 -0.29572,-0.11337 -0.42716,-0.1643 -0.13143,-0.0509 -0.32366,-0.12486 -0.42716,-0.16429 -0.1035,-0.0394 -0.29573,-0.11336 -0.42716,-0.16429 -0.13144,-0.0509 -0.32366,-0.12487 -0.42716,-0.1643 -0.10351,-0.0394 -0.33352,-0.12815 -0.50931,-0.19551 -0.1758,-0.069 -0.33516,-0.12486 -0.35323,-0.12322 -0.0181,0 -0.12487,0.0378 -0.23823,0.0822 z"
     id="path554"
     style="fill:#000000;stroke:none;stroke-width:0.00164293" />
</svg>
