<svg id="ecologie-terre" enable-background="new 0 0 24 24" viewBox="0 0 40 40" width="40" height="40"
    xmlns="http://www.w3.org/2000/svg">
    <title>ecologie-terre</title>
<path
 fill="none"
     stroke="currentcolor"
     stroke-width="0.5"
     stroke-linecap="round"
     stroke-linejoin="round"
     stroke-miterlimit="10"
	id="path153" d="M6.4,37.5H2.8c-0.2,0-0.3-0.1-0.3-0.3c0-0.2,0.1-0.3,0.3-0.3h3.6c0.5,0,0.9-0.4,0.9-0.9V23
	c0-0.5-0.4-0.9-0.9-0.9H2.8c-0.2,0-0.3-0.1-0.3-0.3c0-0.2,0.1-0.3,0.3-0.3h3.6c0.8,0,1.5,0.7,1.5,1.5v13C7.9,36.8,7.2,37.5,6.4,37.5
	z M22.4,36.3c-3.6,0-8.8-2.9-9-3l0,0c0,0-1.2-0.5-3.4-0.5c-0.2,0-0.3-0.1-0.3-0.3c0-0.2,0.1-0.3,0.3-0.3c2.4,0,3.6,0.6,3.7,0.7
	c0.1,0.1,5.3,2.9,8.8,2.9c4,0,5.7-1.1,5.7-1.1l8-5c0.7-0.4,0.9-1.3,0.5-2c-0.2-0.4-0.5-0.6-0.9-0.7c-0.4-0.1-0.8-0.1-1.1,0.1
	l-6.8,3.3C26.6,31,25.4,31,23,31c-2.4,0-5.8-0.6-6-0.6c-0.2,0-0.3-0.2-0.2-0.4c0-0.2,0.2-0.3,0.4-0.2c0.1,0,3.6,0.6,5.9,0.6
	s3.5,0,4.6-0.5l6.8-3.3c0.5-0.3,1-0.4,1.5-0.2c0.5,0.1,1,0.5,1.2,0.9c0.6,1,0.2,2.3-0.8,2.8l-8,5C28.3,35.1,26.6,36.3,22.4,36.3z
	 M4.3,34.5c-0.4,0-0.6-0.2-0.6-0.6c0-0.4,0.2-0.6,0.6-0.6s0.6,0.2,0.6,0.6C4.9,34.3,4.7,34.5,4.3,34.5z M26.5,28.6
	c-0.1,0-0.2,0-0.2-0.1c0,0-0.5-0.5-1.5-0.5h-3.6c-1,0-2.2-0.9-3.4-1.8c-1.1-0.8-2.3-1.7-3.1-1.7H9.9c-0.2,0-0.3-0.1-0.3-0.3
	c0-0.2,0.1-0.3,0.3-0.3h4.7c1,0,2.2,0.9,3.4,1.8c1.1,0.8,2.3,1.7,3.1,1.7h3.6c1.3,0,2,0.7,2,0.7c0.1,0.1,0.1,0.3,0,0.4
	C26.7,28.6,26.6,28.6,26.5,28.6z"/>
<path 
	 fill="none"
     stroke="currentcolor"
     stroke-width="0.5"
     stroke-linecap="round"
     stroke-linejoin="round"
     stroke-miterlimit="10"
     id="path250" d="M23.5,5.9c-4.5,0-8.1,3.7-8.1,8.1s3.7,8.1,8.1,8.1c4.5,0,8.1-3.7,8.1-8.1S28,5.9,23.5,5.9z M27.8,8.5l-2.3,2.3
	c-0.1,0.1-0.2,0.2-0.2,0.4v1.7l-0.2,0.8l-0.5-1c0-0.1-0.1-0.2-0.2-0.2l-1.6-1.1l-0.5-1.6c-0.1-0.2-0.2-0.3-0.3-0.3L20.4,9l-0.5-0.9
	c1.1-0.7,2.3-1,3.7-1C25.1,7,26.6,7.6,27.8,8.5z M16.5,14.1c0-0.3,0-0.6,0.1-0.9l0.4-0.1l1.5,2c0.1,0.1,0.2,0.2,0.3,0.2l2.8,0.6
	l1.4,1.4l-0.4,1.3l-2.3,1.8C18,19.1,16.5,16.8,16.5,14.1z M23.5,21.1c-0.8,0-1.5-0.1-2.2-0.4l2-1.6c0.1-0.1,0.1-0.2,0.2-0.3l0.6-1.8
	c0.1-0.2,0-0.4-0.1-0.6l-1.8-1.8c-0.1-0.1-0.2-0.1-0.3-0.1l-2.7-0.5L17.6,12c-0.1-0.2-0.4-0.3-0.6-0.2l-0.1,0
	c0.4-1.2,1.2-2.3,2.1-3.1l0.6,1c0.1,0.1,0.2,0.2,0.3,0.2l1.5,0.5l0.5,1.5c0,0.1,0.1,0.2,0.2,0.3l1.6,1.1l1.1,2.2
	c0.1,0.2,0.3,0.3,0.6,0.3c0.2,0,0.4-0.2,0.5-0.4l0.6-2.3c0,0,0-0.1,0-0.1v-1.5l2.2-2.2c0.8,0.8,1.3,1.8,1.7,2.9l-1.6,0.3
	c-0.2,0-0.4,0.2-0.4,0.4l-0.6,2.9c0,0.1,0,0.3,0.1,0.4l1.2,1.8c0,0,0,0,0,0l0.3,0.4C27.9,20,25.9,21.1,23.5,21.1z M29.8,17.3l-1-1.5
	l0.5-2.3l1.3-0.3c0,0.3,0.1,0.6,0.1,1C30.6,15.2,30.3,16.3,29.8,17.3z"/>
</svg>
