<?xml version="1.0" encoding="UTF-8" standalone="no"?>
<svg
   xmlns:dc="http://purl.org/dc/elements/1.1/"
   xmlns:cc="http://creativecommons.org/ns#"
   xmlns:rdf="http://www.w3.org/1999/02/22-rdf-syntax-ns#"
   xmlns:svg="http://www.w3.org/2000/svg"
   xmlns="http://www.w3.org/2000/svg"
   id="science"
   enable-background="new 0 0 24 24"
   viewBox="0 0 24 24"
   width="40"
   height="40"
   version="1.1">
  <metadata
     id="metadata23">
    <rdf:RDF>
      <cc:Work
         rdf:about="">
        <dc:format>image/svg+xml</dc:format>
        <dc:type
           rdf:resource="http://purl.org/dc/dcmitype/StillImage" />
        <dc:title>ecology</dc:title>
      </cc:Work>
    </rdf:RDF>
  </metadata>
  <defs
     id="defs21" />
  <title
     id="title2">ecology</title>
  <g
     id="g143"
     transform="matrix(0.04101563,0,0,0.04101563,1.5000192,1.5000006)">
    <path
       style="fill:#72ccc5"
       d="m 401.384,119.194 c 0,-23.615 42.76,-85.52 42.76,-85.52 0,0 42.76,61.905 42.76,85.52 0,23.615 -19.145,42.76 -42.76,42.76 -23.615,0 -42.76,-19.145 -42.76,-42.76 z"
       id="path25" />
    <path
       style="fill:#11bba3"
       d="m 461.248,144.85 c -23.615,0 -42.76,-19.145 -42.76,-42.76 0,-14.563 16.258,-43.682 28.725,-63.87 -1.917,-2.879 -3.069,-4.546 -3.069,-4.546 0,0 -42.76,61.905 -42.76,85.52 0,23.615 19.145,42.76 42.76,42.76 16.206,0 30.305,-9.017 37.558,-22.306 -6.076,3.315 -13.043,5.202 -20.454,5.202 z"
       id="path27" />
    <circle
       style="fill:#8fded7"
       cx="452.702"
       cy="102.09"
       r="17.104"
       id="circle29" />
    <path
       style="fill:#66bf00"
       d="m 244.729,409.963 c 0,-14.17 25.656,-51.312 25.656,-51.312 0,0 25.656,37.143 25.656,51.312 0,14.17 -11.486,25.656 -25.656,25.656 -14.169,0 -25.656,-11.487 -25.656,-25.656 z"
       id="path31" />
    <path
       style="fill:#58ab23"
       d="m 283.213,428.136 c -14.17,0 -25.656,-11.486 -25.656,-25.656 0,-8.6 9.448,-25.655 16.878,-37.74 -2.428,-3.739 -4.05,-6.089 -4.05,-6.089 0,0 -25.656,37.143 -25.656,51.312 0,14.17 11.486,25.656 25.656,25.656 7.418,0 14.097,-3.151 18.78,-8.184 -1.911,0.454 -3.902,0.701 -5.952,0.701 z"
       id="path33" />
    <path
       style="fill:#66bf00"
       d="m 318.369,430.278 c 12.558,-6.564 57.359,-1.034 57.359,-1.034 0,0 -21.032,39.943 -33.589,46.508 -12.558,6.564 -28.058,1.705 -34.623,-10.851 -6.563,-12.558 -1.704,-28.058 10.853,-34.623 z"
       id="path35" />
    <path
       style="fill:#58ab23"
       d="m 323.552,457.418 c -5.227,-9.999 -3.205,-21.861 4.174,-29.595 -3.853,0.501 -7.12,1.286 -9.358,2.456 -12.558,6.564 -17.416,22.065 -10.851,34.622 6.564,12.558 22.065,17.416 34.623,10.851 1.781,-0.931 3.736,-2.551 5.775,-4.616 -9.805,0.617 -19.518,-4.45 -24.363,-13.718 z"
       id="path37" />
    <circle
       style="fill:#72ccc5"
       cx="273.09799"
       cy="221.81799"
       r="111.176"
       id="circle39" />
    <path
       style="fill:#11bba3"
       d="m 298.76,307.338 c -61.401,0 -111.176,-49.776 -111.176,-111.176 0,-24.152 7.705,-46.502 20.786,-64.735 -28.12,20.174 -46.442,53.141 -46.442,90.391 0,61.401 49.775,111.176 111.176,111.176 37.249,0 70.216,-18.322 90.391,-46.442 -18.232,13.081 -40.583,20.786 -64.735,20.786 z"
       id="path41" />
    <g
       id="g49">
	<path
   style="fill:#66bf00"
   d="m 247.448,161.954 8.552,25.656 25.656,17.104 17.104,34.208 8.552,-34.208 v -25.656 l 25.656,-25.656 14.354,-14.354 c -19.681,-17.66 -45.692,-28.407 -74.218,-28.407 -24.078,0 -46.367,7.657 -64.569,20.665 l 13.257,22.095 z"
   id="path43" />

	<path
   style="fill:#66bf00"
   d="m 381.795,198.37 -31.723,6.345 -8.552,42.76 17.104,25.656 7.355,9.806 c 11.564,-17.538 18.301,-38.54 18.301,-61.118 0,-8.046 -0.862,-15.889 -2.485,-23.449 z"
   id="path45" />

	<path
   style="fill:#66bf00"
   d="m 273.104,264.578 -25.656,-25.656 -42.76,-8.552 -25.656,-34.208 -15.398,6.16 c -1.119,6.331 -1.706,12.845 -1.706,19.496 0,44.108 25.686,82.216 62.916,100.183 l 39.708,-31.766 z"
   id="path47" />

</g>
    <path
       style="fill:#58ab23"
       d="m 188.266,208.474 -9.234,-12.312 -15.398,6.16 c -1.119,6.331 -1.706,12.845 -1.706,19.496 0,44.108 25.686,82.216 62.916,100.183 l 29.742,-23.794 c -35.832,-15.532 -61.873,-49.377 -66.32,-89.733 z"
       id="path51" />
    <path
       d="m 444.144,169.971 c 27.998,0 50.778,-22.779 50.778,-50.778 0,-25.383 -39.659,-83.531 -44.181,-90.077 -3.133,-4.536 -10.06,-4.536 -13.194,0 -4.522,6.547 -44.181,64.694 -44.181,90.077 0.001,27.999 22.78,50.778 50.778,50.778 z m 10e-4,-121.893 c 15.521,23.817 34.742,57.722 34.742,71.115 0,19.158 -15.585,34.743 -34.743,34.743 -19.158,0 -34.743,-15.585 -34.743,-34.743 10e-4,-13.382 19.223,-47.291 34.744,-71.115 z"
       id="path53" />
    <path
       d="m 376.711,421.289 c -7.896,-0.974 -47.994,-5.465 -62.057,1.886 -16.25,8.494 -22.672,28.478 -14.546,44.824 l -21.706,18.605 v -43.939 c 14.708,-3.608 25.656,-16.897 25.656,-32.702 0,-15.866 -22.556,-49.324 -27.077,-55.869 -3.133,-4.536 -10.06,-4.536 -13.194,0 -4.521,6.546 -27.077,40.003 -27.077,55.869 0,15.805 10.948,29.094 25.656,32.702 v 61.37 c 0,6.702 8.142,10.454 13.235,6.087 l 34.843,-29.866 c 10.266,7.45 24.17,8.475 35.408,2.601 14.062,-7.348 33.263,-42.837 36.97,-49.876 2.572,-4.885 -0.648,-11.019 -6.111,-11.692 z M 252.746,409.963 c 0,-5.841 8.287,-21.879 17.64,-36.74 9.353,14.855 17.637,30.89 17.637,36.74 0,6.837 -3.919,12.765 -9.621,15.691 v -15.691 c 0,-4.429 -3.589,-8.018 -8.018,-8.018 -4.429,0 -8.018,3.589 -8.018,8.018 v 15.691 c -5.701,-2.926 -9.62,-8.854 -9.62,-15.691 z m 85.679,58.684 c -4.873,2.548 -10.404,2.583 -15.106,0.575 l 12.147,-10.412 c 3.362,-2.881 3.751,-7.944 0.869,-11.305 -2.88,-3.36 -7.942,-3.751 -11.305,-0.869 l -11.965,10.256 c -1.713,-7.607 1.786,-15.727 9.017,-19.507 3.064,-1.601 10.637,-2.286 19.938,-2.286 6.413,0 13.649,0.325 20.79,0.899 -8.835,15.173 -19.208,29.943 -24.385,32.649 z"
       id="path55" />
    <path
       d="m 144.823,298.252 c 4.429,0 8.018,-3.589 8.018,-8.018 v -25.656 c 0,-4.429 -3.589,-8.018 -8.018,-8.018 h -25.656 c -4.429,0 -8.018,3.589 -8.018,8.018 0,4.429 3.589,8.018 8.018,8.018 h 17.639 v 9.621 h -17.639 c -4.429,0 -8.018,3.589 -8.018,8.018 v 25.656 c 0,4.429 3.589,8.018 8.018,8.018 h 25.656 c 4.429,0 8.018,-3.589 8.018,-8.018 0,-4.429 -3.589,-8.018 -8.018,-8.018 h -17.639 v -9.621 z"
       id="path57" />
    <path
       d="M 101.529,264.578 V 196.162 C 101.529,182.31 90.26,171.04 76.407,171.04 H 42.199 c -13.852,0 -25.122,11.269 -25.122,25.122 v 68.416 c 0,13.852 11.269,25.122 25.122,25.122 h 34.208 c 13.852,0 25.122,-11.27 25.122,-25.122 z m -68.416,0 v -68.416 c 0,-5.01 4.076,-9.087 9.087,-9.087 h 34.208 c 5.01,0 9.087,4.076 9.087,9.087 v 68.416 c 0,5.01 -4.076,9.087 -9.087,9.087 H 42.199 c -5.009,0 -9.086,-4.076 -9.086,-9.087 z"
       id="path59" />
    <path
       d="m 273.104,102.624 c -65.723,0 -119.194,53.47 -119.194,119.194 0,65.724 53.47,119.194 119.194,119.194 65.724,0 119.194,-53.47 119.194,-119.194 0,-65.724 -53.47,-119.194 -119.194,-119.194 z m 62.284,37.018 -33.746,33.746 c -1.503,1.504 -2.348,3.543 -2.348,5.67 v 24.669 l -3.055,12.224 -7.412,-14.823 c -0.624,-1.248 -1.563,-2.311 -2.724,-3.085 l -23.366,-15.578 -7.683,-23.048 c -0.799,-2.393 -2.677,-4.272 -5.07,-5.07 l -22.842,-7.613 -7.766,-12.945 c 15.659,-9.593 34.058,-15.131 53.729,-15.131 23.379,0.001 44.964,7.824 62.283,20.984 z m -165.443,82.176 c 0,-4.663 0.316,-9.253 0.919,-13.754 l 5.439,-2.175 21.97,29.292 c 1.183,1.579 2.908,2.664 4.842,3.051 l 40.379,8.076 20.435,20.435 -6.237,18.71 -33.778,27.022 c -32.121,-17.498 -53.969,-51.574 -53.969,-90.657 z m 103.159,103.159 c -11.373,0 -22.32,-1.855 -32.56,-5.269 l 29.016,-23.212 c 1.207,-0.965 2.109,-2.259 2.598,-3.724 l 8.552,-25.656 c 0.96,-2.881 0.211,-6.058 -1.937,-8.206 l -25.656,-25.656 c -1.12,-1.119 -2.545,-1.883 -4.097,-2.193 l -39.756,-7.951 -23.817,-31.758 c -2.175,-2.901 -6.027,-3.979 -9.391,-2.634 l -0.763,0.306 c 6.042,-17.973 16.911,-33.746 31.055,-45.781 l 8.571,14.285 c 0.986,1.641 2.524,2.876 4.34,3.482 l 21.853,7.284 7.284,21.853 c 0.563,1.691 1.675,3.146 3.159,4.135 l 23.885,15.924 16.152,32.304 c 1.509,3.018 4.851,4.796 8.196,4.364 3.237,-0.418 5.961,-2.838 6.753,-6.006 l 8.552,-34.208 c 0.158,-0.637 0.239,-1.289 0.239,-1.945 v -22.336 l 32.062,-32.06 c 11.23,11.663 19.743,25.955 24.522,41.85 l -23.413,4.683 c -3.174,0.635 -5.655,3.116 -6.29,6.29 l -8.552,42.76 c -0.417,2.085 0.012,4.25 1.191,6.02 l 17.104,25.656 c 0.082,0.123 0.168,0.245 0.257,0.363 l 3.846,5.128 c -18.811,25.406 -48.99,41.908 -82.955,41.908 z m 92.016,-56.557 -15.087,-22.63 6.852,-34.263 18.426,-3.686 c 0.622,4.572 0.95,9.236 0.95,13.976 0.002,16.761 -4.019,32.597 -11.141,46.603 z"
       id="path61" />
    <path
       d="m 482.91,179.696 c -4.371,0.703 -7.345,4.818 -6.643,9.19 1.739,10.808 2.62,21.889 2.62,32.933 0,68.38 -33.85,132.126 -90.55,170.52 -3.334,2.258 -4.481,6.801 -2.603,10.366 2.195,4.168 7.684,5.56 11.593,2.91 61.111,-41.381 97.595,-110.089 97.595,-183.797 0,-11.895 -0.95,-23.831 -2.823,-35.479 -0.704,-4.372 -4.818,-7.34 -9.189,-6.643 z"
       id="path63" />
    <path
       d="m 70.689,152.33 c 4.079,1.574 8.794,-0.517 10.367,-4.592 30.408,-78.776 107.587,-131.703 192.048,-131.703 41.319,0 81.167,12.194 115.236,35.265 3.665,2.484 8.65,1.524 11.134,-2.143 2.482,-3.667 1.523,-8.651 -2.143,-11.134 C 360.598,13.149 317.641,0 273.104,0 227.423,0 183.551,13.777 146.232,39.843 c -36.468,25.472 -64.179,60.785 -80.136,102.12 -1.593,4.13 0.461,8.772 4.593,10.367 z"
       id="path65" />
    <path
       d="M 223.715,421.638 C 164.562,407.067 115.19,367.239 88.257,312.361 c -1.95,-3.975 -6.749,-5.62 -10.73,-3.665 -3.975,1.95 -5.615,6.754 -3.665,10.73 29.027,59.144 82.248,102.074 146.017,117.781 4.307,1.06 8.754,-1.7 9.736,-6.017 0.957,-4.202 -1.717,-8.522 -5.9,-9.552 z"
       id="path67" />
    <g
       id="g69">
</g>
    <g
       id="g71">
</g>
    <g
       id="g73">
</g>
    <g
       id="g75">
</g>
    <g
       id="g77">
</g>
    <g
       id="g79">
</g>
    <g
       id="g81">
</g>
    <g
       id="g83">
</g>
    <g
       id="g85">
</g>
    <g
       id="g87">
</g>
    <g
       id="g89">
</g>
    <g
       id="g91">
</g>
    <g
       id="g93">
</g>
    <g
       id="g95">
</g>
    <g
       id="g97">
</g>
  </g>
</svg>
