<?xml version="1.0" encoding="UTF-8" standalone="no"?>
<svg
   xmlns:dc="http://purl.org/dc/elements/1.1/"
   xmlns:cc="http://creativecommons.org/ns#"
   xmlns:rdf="http://www.w3.org/1999/02/22-rdf-syntax-ns#"
   xmlns:svg="http://www.w3.org/2000/svg"
   xmlns="http://www.w3.org/2000/svg"
   xmlns:sodipodi="http://sodipodi.sourceforge.net/DTD/sodipodi-0.dtd"
   xmlns:inkscape="http://www.inkscape.org/namespaces/inkscape"
   id="science"
   enable-background="new 0 0 24 24"
   viewBox="0 0 24 24"
   width="40"
   height="40"
   version="1.1"
   sodipodi:docname="ecology2.svg"
   inkscape:version="1.0.2-2 (e86c870879, 2021-01-15)">
  <metadata
     id="metadata23">
    <rdf:RDF>
      <cc:Work
         rdf:about="">
        <dc:format>image/svg+xml</dc:format>
        <dc:type
           rdf:resource="http://purl.org/dc/dcmitype/StillImage" />
        <dc:title>ecology2</dc:title>
      </cc:Work>
    </rdf:RDF>
  </metadata>
  <defs
     id="defs21" />
  <sodipodi:namedview
     pagecolor="#ffffff"
     bordercolor="#666666"
     borderopacity="1"
     objecttolerance="10"
     gridtolerance="10"
     guidetolerance="10"
     inkscape:pageopacity="0"
     inkscape:pageshadow="2"
     inkscape:window-width="1326"
     inkscape:window-height="696"
     id="namedview19"
     showgrid="false"
     inkscape:zoom="3.3625"
     inkscape:cx="43.734947"
     inkscape:cy="37.145313"
     inkscape:window-x="0"
     inkscape:window-y="0"
     inkscape:window-maximized="0"
     inkscape:current-layer="science" />
  <title
     id="title2">ecology2</title>
  <g
     id="g212"
     transform="matrix(0.04163858,0,0,0.04163858,1.5000002,1.4999984)">
    <g
       transform="translate(1,1)"
       id="g151">
	<path
   style="fill:#50dd8e"
   d="m 362.093,208.94 v 0 -42.667 c 0,0 -1.707,-40.96 25.6,-68.267 27.307,-27.307 68.267,-25.6 68.267,-25.6 h 42.667 v 42.667 c 0,0 1.707,40.96 -25.6,68.267 -27.307,27.307 -68.267,25.6 -68.267,25.6 z M 327.96,140.673 v 0 h -42.667 c 0,0 -40.96,1.707 -68.267,-25.6 -27.307,-27.307 -25.6,-68.267 -25.6,-68.267 V 4.14 h 42.667 c 0,0 40.96,-1.707 68.267,25.6 27.307,27.307 25.6,68.267 25.6,68.267 z"
   id="path145" />

	<path
   style="fill:#ffd0a1"
   d="m 362.093,396.673 98.133,-47.787 c 11.947,-6.827 28.16,-2.56 34.987,9.387 6.827,11.947 2.56,28.16 -9.387,34.987 l -115.2,71.68 c 0,0 -25.6,17.067 -85.333,17.067 -51.2,0 -128,-42.667 -128,-42.667 0,0 -17.067,-8.533 -51.2,-8.533 H 71.96 V 311.34 h 102.4 c 25.6,0 68.267,51.2 93.867,51.2 h 51.2 c 17.067,0 25.6,8.533 25.6,8.533 0,0 11.946,7.68 17.066,25.6"
   id="path147" />

	<path
   style="fill:#aab1ba"
   d="m 29.293,452.14 c 0,-2.56 -1.707,-4.267 -4.267,-4.267 -2.56,0 -4.267,1.707 -4.267,4.267 0,2.56 1.707,4.267 4.267,4.267 2.56,0 4.267,-1.707 4.267,-4.267 z M 71.96,430.807 v 51.2 c 0,9.387 -7.68,17.067 -17.067,17.067 H 3.693 V 277.207 h 51.2 c 9.387,0 17.067,7.68 17.067,17.067 v 17.067 z"
   id="path149" />

</g>
    <path
       style="fill:#51565f"
       d="m 55.893,504.34 h -51.2 c -2.56,0 -4.267,-1.707 -4.267,-4.267 0,-2.56 1.707,-4.267 4.267,-4.267 h 51.2 c 6.827,0 12.8,-5.973 12.8,-12.8 V 295.273 c 0,-6.827 -5.973,-12.8 -12.8,-12.8 h -51.2 c -2.56,0 -4.267,-1.707 -4.267,-4.267 0,-2.56 1.707,-4.267 4.267,-4.267 h 51.2 c 11.947,0 21.333,9.387 21.333,21.333 v 187.733 c 0.001,11.948 -9.386,21.335 -21.333,21.335 z m 230.4,-17.067 c -52.053,0 -127.147,-41.813 -129.707,-43.52 v 0 c 0,0 -17.067,-7.68 -49.493,-7.68 -2.56,0 -4.267,-1.707 -4.267,-4.267 0,-2.56 1.707,-4.267 4.267,-4.267 34.987,0 52.053,8.533 52.907,9.387 0.853,0.853 76.8,41.813 126.293,41.813 57.173,0 82.773,-16.213 82.773,-16.213 l 115.2,-71.68 c 10.24,-5.973 13.653,-18.773 7.68,-29.013 -2.56,-5.12 -7.68,-8.533 -12.8,-10.24 -5.12,-1.707 -11.093,-0.853 -16.213,1.707 L 364.8,401.087 c -17.92,9.387 -34.987,9.387 -69.973,9.387 -34.133,0 -83.627,-8.533 -86.187,-8.533 -2.56,0 -4.267,-2.56 -3.413,-5.12 0,-2.56 2.56,-4.267 5.12,-3.413 0.853,0 51.2,8.533 84.48,8.533 33.28,0 50.347,0 66.56,-7.68 l 98.133,-47.787 c 6.827,-4.267 14.507,-5.12 22.187,-2.56 7.68,1.707 14.507,6.827 17.92,13.653 8.533,14.507 3.413,32.427 -11.093,40.96 l -115.2,71.68 c -0.854,0 -26.454,17.066 -87.041,17.066 z m -260.266,-25.6 c -5.12,0 -8.533,-3.413 -8.533,-8.533 0,-5.12 3.413,-8.533 8.533,-8.533 5.12,0 8.533,3.413 8.533,8.533 0,5.12 -3.413,8.533 -8.533,8.533 z m 320,-85.333 c -0.853,0 -2.56,0 -3.413,-0.853 0,0 -7.68,-7.68 -22.187,-7.68 h -51.2 c -14.507,0 -31.573,-12.8 -49.493,-26.453 -16.213,-11.947 -33.28,-24.747 -44.373,-24.747 h -68.267 c -2.56,0 -4.267,-1.707 -4.267,-4.267 0,-2.56 1.707,-4.267 4.267,-4.267 h 68.267 c 14.507,0 31.573,12.8 49.493,26.453 16.213,11.947 33.28,24.747 44.373,24.747 h 51.2 c 18.773,0 28.16,9.387 29.013,9.387 1.707,1.707 1.707,4.267 0,5.973 -0.853,1.707 -2.56,1.707 -3.413,1.707 z M 328.96,316.607 c -2.56,0 -4.267,-1.707 -4.267,-4.267 v -166.4 h -38.4 c -1.707,0 -42.667,1.707 -70.827,-27.307 -28.16,-28.16 -27.307,-69.973 -26.453,-71.68 V 4.287 c 0,-2.56 1.707,-4.267 4.267,-4.267 h 42.667 c 1.707,0 42.667,-1.707 70.827,26.453 28.16,28.16 27.307,69.973 27.307,71.68 v 41.813 0 c 0,0 0,0 0,0.853 v 171.52 c -0.854,2.561 -2.561,4.268 -5.121,4.268 z M 196.693,9.407 v 38.4 c 0,0.853 -0.853,39.253 24.747,64.853 25.6,25.6 64.853,24.747 64.853,24.747 H 318.72 L 223.147,41.834 c -0.853,-0.853 -0.853,-1.707 -0.853,-3.413 0,-1.707 0,-2.56 0.853,-3.413 1.707,-1.707 4.267,-1.707 5.973,0 l 94.72,94.72 v -30.72 c 0,-0.853 0.853,-39.253 -24.747,-64.853 C 273.493,8.555 234.24,10.26 234.24,10.26 Z m 210.774,204.8 c -0.853,0 -1.707,0 -1.707,0 h -42.667 c -0.853,0 -2.56,0 -3.413,-0.853 -0.853,-0.853 -0.853,-1.707 -0.853,-3.413 v 0 -42.667 c 0,-1.707 -1.707,-42.667 26.453,-71.68 28.16,-28.16 69.973,-27.307 71.68,-26.453 h 42.667 c 2.56,0 4.267,1.707 4.267,4.267 v 42.667 c 0,1.707 1.707,42.667 -26.453,71.68 C 451.84,212.5 416,214.207 407.467,214.207 Z m -34.134,-8.534 h 32.427 c 0,0 -0.853,0 0.853,0 6.827,0 40.96,-0.853 64,-24.747 25.6,-25.6 24.747,-64.853 24.747,-64.853 v -38.4 h -38.4 c -0.853,0 -39.253,-0.853 -64.853,24.747 -25.6,25.6 -24.747,64.853 -23.893,64.853 V 199.7 l 94.72,-94.72 c 1.707,-1.707 4.267,-1.707 5.973,0 0.853,0.853 0.853,1.707 0.853,3.413 0,1.707 0,2.56 -0.853,3.413 z"
       id="path153" />
    <g
       id="g155">
</g>
    <g
       id="g157">
</g>
    <g
       id="g159">
</g>
    <g
       id="g161">
</g>
    <g
       id="g163">
</g>
    <g
       id="g165">
</g>
    <g
       id="g167">
</g>
    <g
       id="g169">
</g>
    <g
       id="g171">
</g>
    <g
       id="g173">
</g>
    <g
       id="g175">
</g>
    <g
       id="g177">
</g>
    <g
       id="g179">
</g>
    <g
       id="g181">
</g>
    <g
       id="g183">
</g>
  </g>
</svg>
