<?xml version="1.0" encoding="UTF-8" standalone="no"?>
<svg
   xmlns:dc="http://purl.org/dc/elements/1.1/"
   xmlns:cc="http://creativecommons.org/ns#"
   xmlns:rdf="http://www.w3.org/1999/02/22-rdf-syntax-ns#"
   xmlns:svg="http://www.w3.org/2000/svg"
   xmlns="http://www.w3.org/2000/svg"
   id="science"
   enable-background="new 0 0 24 24"
   viewBox="0 0 24 24"
   width="40"
   height="40"
   version="1.1">
  <metadata
     id="metadata23">
    <rdf:RDF>
      <cc:Work
         rdf:about="">
        <dc:format>image/svg+xml</dc:format>
        <dc:type
           rdf:resource="http://purl.org/dc/dcmitype/StillImage" />
        <dc:title>ecology-earth</dc:title>
      </cc:Work>
    </rdf:RDF>
  </metadata>
  <defs
     id="defs21" />
  <title
     id="title2">ecology-earth</title>
  <g
     id="g155"
     transform="matrix(0.04163858,0,0,0.04163858,1.5000002,1.4999984)">
</g>
  <g
     id="g157"
     transform="matrix(0.04163858,0,0,0.04163858,1.5000002,1.4999984)">
</g>
  <g
     id="g159"
     transform="matrix(0.04163858,0,0,0.04163858,1.5000002,1.4999984)">
</g>
  <g
     id="g161"
     transform="matrix(0.04163858,0,0,0.04163858,1.5000002,1.4999984)">
</g>
  <g
     id="g163"
     transform="matrix(0.04163858,0,0,0.04163858,1.5000002,1.4999984)">
</g>
  <g
     id="g165"
     transform="matrix(0.04163858,0,0,0.04163858,1.5000002,1.4999984)">
</g>
  <g
     id="g167"
     transform="matrix(0.04163858,0,0,0.04163858,1.5000002,1.4999984)">
</g>
  <g
     id="g169"
     transform="matrix(0.04163858,0,0,0.04163858,1.5000002,1.4999984)">
</g>
  <g
     id="g171"
     transform="matrix(0.04163858,0,0,0.04163858,1.5000002,1.4999984)">
</g>
  <g
     id="g173"
     transform="matrix(0.04163858,0,0,0.04163858,1.5000002,1.4999984)">
</g>
  <g
     id="g175"
     transform="matrix(0.04163858,0,0,0.04163858,1.5000002,1.4999984)">
</g>
  <g
     id="g177"
     transform="matrix(0.04163858,0,0,0.04163858,1.5000002,1.4999984)">
</g>
  <g
     id="g179"
     transform="matrix(0.04163858,0,0,0.04163858,1.5000002,1.4999984)">
</g>
  <g
     id="g181"
     transform="matrix(0.04163858,0,0,0.04163858,1.5000002,1.4999984)">
</g>
  <g
     id="g183"
     transform="matrix(0.04163858,0,0,0.04163858,1.5000002,1.4999984)">
</g>
  <g
     id="g258"
     transform="matrix(0.04101563,0,0,0.04101563,34.154294,-3.1394046)">
</g>
  <g
     id="g260"
     transform="matrix(0.04101563,0,0,0.04101563,34.154294,-3.1394046)">
</g>
  <g
     id="g262"
     transform="matrix(0.04101563,0,0,0.04101563,34.154294,-3.1394046)">
</g>
  <g
     id="g264"
     transform="matrix(0.04101563,0,0,0.04101563,34.154294,-3.1394046)">
</g>
  <g
     id="g266"
     transform="matrix(0.04101563,0,0,0.04101563,34.154294,-3.1394046)">
</g>
  <g
     id="g268"
     transform="matrix(0.04101563,0,0,0.04101563,34.154294,-3.1394046)">
</g>
  <g
     id="g270"
     transform="matrix(0.04101563,0,0,0.04101563,34.154294,-3.1394046)">
</g>
  <g
     id="g272"
     transform="matrix(0.04101563,0,0,0.04101563,34.154294,-3.1394046)">
</g>
  <g
     id="g274"
     transform="matrix(0.04101563,0,0,0.04101563,34.154294,-3.1394046)">
</g>
  <g
     id="g276"
     transform="matrix(0.04101563,0,0,0.04101563,34.154294,-3.1394046)">
</g>
  <g
     id="g278"
     transform="matrix(0.04101563,0,0,0.04101563,34.154294,-3.1394046)">
</g>
  <g
     id="g280"
     transform="matrix(0.04101563,0,0,0.04101563,34.154294,-3.1394046)">
</g>
  <g
     id="g282"
     transform="matrix(0.04101563,0,0,0.04101563,34.154294,-3.1394046)">
</g>
  <g
     id="g284"
     transform="matrix(0.04101563,0,0,0.04101563,34.154294,-3.1394046)">
</g>
  <g
     id="g286"
     transform="matrix(0.04101563,0,0,0.04101563,34.154294,-3.1394046)">
</g>
  <g
     id="g552"
     transform="matrix(0.04101556,0,0,0.04101556,1.4999852,1.5000372)">
    <g
       id="g477">
	<g
   id="g475">
		<path
   d="m 462.374,351.812 c -1.521,0 -3.039,0.07 -4.549,0.209 -5.593,-16.317 -17.761,-29.258 -33.14,-36.033 -0.006,-0.033 -0.01,-0.066 -0.014,-0.099 -1.881,-20.249 -0.823,-29.229 3.076,-45.934 5.746,-22.9 20.548,-47.592 34.476,-60.906 3.247,-3.139 -0.868,-8.324 -4.667,-5.851 -19.127,12.45 -35.002,31.903 -46.512,52.043 -0.057,-0.088 -0.109,-0.18 -0.168,-0.268 -6.938,-10.705 -16.96,-20.803 -28.678,-27.77 -3.671,-2.18 -7.512,2.634 -4.558,5.725 10.071,10.544 16.555,23.151 19.214,35.504 2.929,14.982 -0.806,23.985 -1.095,26.716 8.297,2.067 15.416,8.133 18.524,16.506 3.892,10.495 0.862,22.729 -8.466,30.067 l -69.528,54.691 c -9.833,7.737 -23.827,7.608 -33.545,-0.644 -2.263,3.538 -4.044,7.434 -5.228,11.612 -1.703,6.009 2.822,11.979 9.055,11.979 h 195.088 c 4.429,0 8.259,-3.088 9.198,-7.416 6.709,-30.913 -16.945,-60.131 -48.483,-60.131 z"
   id="path473" />

	</g>

</g>
    <g
       id="g483">
	<g
   id="g481">
		<circle
   cx="293.112"
   cy="139.133"
   r="46.493"
   id="circle479" />

	</g>

</g>
    <g
       id="g489">
	<g
   id="g487">
		<path
   d="m 389.197,315.801 -91.125,4.036 c -3.544,0.157 -5.844,3.811 -4.454,7.076 l 5.917,13.879 -14.271,0.235 c -2.181,-8.021 -7.161,-10.93 -13.47,-15.807 l -47.381,-36.636 8.08,-77.307 c 1.075,7.83 7.665,55.843 8.57,62.442 l 30.13,23.297 c 54.651,0.726 36.289,0.956 80.507,-1.003 7.131,-3.298 12.133,-10.449 12.245,-18.83 0.156,-11.633 -9.15,-21.188 -20.783,-21.342 l -67.54,-0.899 -14.695,-24.472 c 7.087,-12.733 4.533,-29.11 -6.929,-39.013 L 213.56,156.516 c -13.845,-11.963 -34.983,-9.598 -45.835,5.157 L 84.244,275.267 c -13.56,18.452 -11.004,44.165 5.924,59.585 l 36.767,33.492 -101.483,-0.701 c -0.06,0 -0.118,0 -0.178,0 -13.879,0 -25.178,11.202 -25.273,25.103 -0.097,13.96 11.142,25.354 25.102,25.451 l 168.412,1.162 c 0.059,0 0.117,0 0.176,0 10.445,0 19.823,-6.427 23.584,-16.183 3.783,-9.811 1.096,-20.94 -6.745,-27.944 l -41.659,-37.214 5.9,-6.829 -5.594,-4.325 c -10.354,-8.005 -13.89,-21.579 -9.71,-33.27 l 31.126,-86.701 -9.299,88.98 c -0.758,7.257 2.294,14.39 8.067,18.853 l 62.722,48.498 c 7.883,6.097 18.733,5.734 26.164,-0.31 9.856,-0.162 3.142,-0.052 30.51,-0.501 l 6.46,15.153 c 1.313,3.078 5.193,4.07 7.822,2.002 l 69.527,-54.692 c 3.878,-3.048 1.545,-9.3 -3.369,-9.075 z"
   id="path485" />

	</g>

</g>
    <g
       id="g491">
</g>
    <g
       id="g493">
</g>
    <g
       id="g495">
</g>
    <g
       id="g497">
</g>
    <g
       id="g499">
</g>
    <g
       id="g501">
</g>
    <g
       id="g503">
</g>
    <g
       id="g505">
</g>
    <g
       id="g507">
</g>
    <g
       id="g509">
</g>
    <g
       id="g511">
</g>
    <g
       id="g513">
</g>
    <g
       id="g515">
</g>
    <g
       id="g517">
</g>
    <g
       id="g519">
</g>
  </g>
</svg>
