<svg
   xmlns:dc="http://purl.org/dc/elements/1.1/"
   xmlns:cc="http://creativecommons.org/ns#"
   xmlns:rdf="http://www.w3.org/1999/02/22-rdf-syntax-ns#"
   xmlns:svg="http://www.w3.org/2000/svg"
   xmlns="http://www.w3.org/2000/svg"
   version="1.1"
   id="GEAR"
   width="40"
   height="40"
   viewBox="-180 -180 108 108"
   enable-background="new 0 0 1800 1800"
   xml:space="preserve"
   fill="#3276c3"
   stroke="#3276c3"
   stroke-width="1.8"><title
   id="title836">pedagogie</title><metadata
   id="metadata25"><rdf:RDF><cc:Work
       rdf:about=""><dc:format>image/svg+xml</dc:format><dc:type
         rdf:resource="http://purl.org/dc/dcmitype/StillImage" /><dc:title>pedagogie</dc:title></cc:Work></rdf:RDF></metadata><defs
   id="defs23">            </defs>
<title>pedagogie</title>
<g
   id="SVGRepo_bgCarrier"
   stroke-width="0" />

<g
   id="SVGRepo_tracerCarrier"
   stroke-linecap="round"
   stroke-linejoin="round" />



<g
   id="g5463"><path
     fill="3276c3"
     d="m -128.47759,-89.595569 h -11.24488 c -0.76851,0 -1.42342,-0.557844 -1.54572,-1.316587 l -1.53796,-9.547764 c -3.1349,-0.80856 -6.12772,-2.0494 -8.92264,-3.69885 l -7.8414,5.665692 c -0.62287,0.449709 -1.48059,0.381575 -2.02391,-0.162051 l -7.95114,-7.951331 c -0.54342,-0.54338 -0.61211,-1.40089 -0.16195,-2.02387 l 5.66554,-7.84104 c -1.64919,-2.79397 -2.89014,-5.78734 -3.69904,-8.92264 l -9.54767,-1.53806 c -0.75874,-0.12231 -1.31659,-0.77712 -1.31659,-1.54572 v -11.24503 c 0,-0.76861 0.55785,-1.42342 1.31659,-1.54572 l 9.54767,-1.53776 c 0.80885,-3.13555 2.0498,-6.12892 3.69894,-8.92294 l -5.66544,-7.8409 c -0.45016,-0.62292 -0.38147,-1.48039 0.16195,-2.02396 l 7.95114,-7.95159 c 0.54347,-0.54337 1.40119,-0.61201 2.02391,-0.16195 l 7.8413,5.66554 c 2.79462,-1.6496 5.78739,-2.89014 8.92274,-3.69884 l 1.53796,-9.54742 c 0.1223,-0.75879 0.77721,-1.31658 1.54572,-1.31658 h 11.24483 c 0.7686,0 1.42341,0.55784 1.54572,1.31658 l 1.53806,9.54752 c 3.13535,0.80855 6.12852,2.04944 8.92264,3.69905 l 7.84129,-5.66565 c 0.62268,-0.45026 1.47999,-0.38147 2.02407,0.16195 l 7.951131,7.95134 c 0.543376,0.54342 0.612011,1.40099 0.161801,2.02396 l -5.665392,7.8411 c 1.6499,2.79507 2.89049,5.78774 3.6991,8.92274 l 9.547515,1.53776 c 0.758743,0.1223 1.316636,0.77711 1.316636,1.54572 v 11.24503 c 0,0.7686 -0.557893,1.42341 -1.316636,1.54572 l -9.547765,1.53806 c -0.80876,3.13535 -2.04955,6.12872 -3.69885,8.92264 l 5.665442,7.84129 c 0.45016,0.62288 0.381575,1.48039 -0.161801,2.02407 l -7.951181,7.951131 c -0.54343,0.543626 -1.40114,0.611761 -2.02407,0.161801 l -7.84174,-5.665642 c -2.79398,1.6492 -5.7871,2.89004 -8.92224,3.6986 l -1.53806,9.548014 c -0.12226,0.758794 -0.77707,1.316587 -1.54562,1.316587 z m -9.91122,-3.131192 h 8.57756 l 1.49155,-9.259409 c 0.10178,-0.63143 0.57747,-1.13776 1.2015,-1.27839 3.50881,-0.79088 6.83394,-2.16904 9.88278,-4.09659 0.54012,-0.34177 1.23448,-0.3206 1.75343,0.0544 l 7.60495,5.49463 6.06509,-6.06509 -5.49443,-7.6045 c -0.37457,-0.5185 -0.39619,-1.21266 -0.0544,-1.75343 1.9273,-3.04884 3.30566,-6.37417 4.09724,-9.88343 0.14068,-0.62403 0.64671,-1.09952 1.27814,-1.2013 l 9.259009,-1.49155 v -8.57781 l -9.259009,-1.49136 c -0.63143,-0.10177 -1.13776,-0.57746 -1.27839,-1.20149 -0.79063,-3.50816 -2.16904,-6.83339 -4.09699,-9.88323 -0.34182,-0.54067 -0.3202,-1.23489 0.0544,-1.75343 l 5.49443,-7.6043 -6.06504,-6.06534 -7.6045,5.49463 c -0.51875,0.37456 -1.21306,0.39609 -1.75363,0.0543 -3.04884,-1.9276 -6.37397,-3.30616 -9.88303,-4.097 -0.62403,-0.14067 -1.09972,-0.6467 -1.2015,-1.27824 l -1.49155,-9.259 h -8.57766 l -1.49146,9.25875 c -0.10177,0.63154 -0.57736,1.13762 -1.20139,1.27829 -3.50881,0.79109 -6.83404,2.1695 -9.88333,4.09689 -0.54093,0.34183 -1.23489,0.3201 -1.75343,-0.0544 l -7.60455,-5.49443 -6.06514,6.06554 5.49443,7.6041 c 0.37466,0.51849 0.39619,1.21275 0.0544,1.75343 -1.92714,3.04869 -3.30565,6.37407 -4.09709,9.88368 -0.14082,0.62388 -0.64685,1.09947 -1.27829,1.20124 l -9.259,1.49136 v 8.57776 l 9.259,1.49155 c 0.63144,0.10178 1.13752,0.57727 1.27829,1.2013 0.79129,3.50926 2.1698,6.83454 4.09709,9.88343 0.34183,0.54082 0.3203,1.23493 -0.0544,1.75343 l -5.49443,7.6043 6.06514,6.06534 7.6045,-5.49463 c 0.51829,-0.37477 1.21266,-0.39644 1.75333,-0.0544 3.04994,1.92755 6.37517,3.30591 9.88343,4.09704 0.62398,0.14068 1.09957,0.64671 1.20139,1.27814 z"
     id="path8"
     style="fill:#3276c3;fill-opacity:1;stroke-width:0.090112" /><path
     fill="3276c3"
     d="m -134.10003,-110.02161 c -13.27705,0 -24.07883,-10.80187 -24.07883,-24.07902 0,-13.27705 10.80178,-24.07883 24.07883,-24.07883 13.2774,0 24.07928,10.80178 24.07928,24.07883 0,13.27715 -10.80188,24.07902 -24.07928,24.07902 z m 0,-45.02666 c -11.55061,0 -20.94764,9.39703 -20.94764,20.94764 0,11.55065 9.39708,20.94788 20.94764,20.94788 11.5508,0 20.94808,-9.39723 20.94808,-20.94788 0,-11.55061 -9.39728,-20.94764 -20.94808,-20.94764 z"
     id="path12"
     style="fill:#3276c3;fill-opacity:1;stroke-width:0.090112" /><path
     opacity="0.3992"
     d="m -126.03622,-133.87997 v 6.61136 c 0,1.70313 -1.32764,3.52695 -2.92349,4.06337 l -4.27794,1.42151 c -0.75098,0.2548 -1.97133,0.2548 -2.70891,0 l -4.27789,-1.42151 c -1.60925,-0.53642 -2.92348,-2.36024 -2.92348,-4.06337 l 0.0134,-6.61136 5.92738,3.86221 c 1.44833,0.95215 3.83539,0.95215 5.28372,0 z"
     fill="#292d32"
     id="path850"
     style="stroke-width:2.41388" /><path
     d="m -123.89001,-142.43591 -8.03287,-5.27031 c -1.44833,-0.95214 -3.8354,-0.95214 -5.28373,0 l -8.07306,5.27031 c -2.58822,1.67631 -2.58822,5.47153 0,7.16125 l 2.14567,1.39469 5.92739,3.86221 c 1.44833,0.95215 3.8354,0.95215 5.28373,0 l 5.88719,-3.86221 1.83724,-1.20694 v 4.1036 c 0,0.54983 0.45595,1.00578 1.00578,1.00578 0.54983,0 1.00579,-0.45595 1.00579,-1.00578 v -6.59795 c 0.53642,-1.73001 -0.0134,-3.74158 -1.70313,-4.85465 z"
     fill="#292d32"
     id="path852"
     style="opacity:0.998;stroke-width:2.41388" /></g></svg>
