<?xml version="1.0" encoding="UTF-8" standalone="no"?>
<svg
   xmlns:dc="http://purl.org/dc/elements/1.1/"
   xmlns:cc="http://creativecommons.org/ns#"
   xmlns:rdf="http://www.w3.org/1999/02/22-rdf-syntax-ns#"
   xmlns:svg="http://www.w3.org/2000/svg"
   xmlns="http://www.w3.org/2000/svg"
   id="science"
   enable-background="new 0 0 24 24"
   viewBox="0 0 24 24"
   width="40"
   height="40"
   version="1.1">
  <metadata
     id="metadata23">
    <rdf:RDF>
      <cc:Work
         rdf:about="">
        <dc:format>image/svg+xml</dc:format>
        <dc:type
           rdf:resource="http://purl.org/dc/dcmitype/StillImage" />
        <dc:title>ecology-earth</dc:title>
      </cc:Work>
    </rdf:RDF>
  </metadata>
  <defs
     id="defs21" />
  <title
     id="title2">ecology-earth</title>
  <g
     id="g155"
     transform="matrix(0.04163858,0,0,0.04163858,1.5000002,1.4999984)">
</g>
  <g
     id="g157"
     transform="matrix(0.04163858,0,0,0.04163858,1.5000002,1.4999984)">
</g>
  <g
     id="g159"
     transform="matrix(0.04163858,0,0,0.04163858,1.5000002,1.4999984)">
</g>
  <g
     id="g161"
     transform="matrix(0.04163858,0,0,0.04163858,1.5000002,1.4999984)">
</g>
  <g
     id="g163"
     transform="matrix(0.04163858,0,0,0.04163858,1.5000002,1.4999984)">
</g>
  <g
     id="g165"
     transform="matrix(0.04163858,0,0,0.04163858,1.5000002,1.4999984)">
</g>
  <g
     id="g167"
     transform="matrix(0.04163858,0,0,0.04163858,1.5000002,1.4999984)">
</g>
  <g
     id="g169"
     transform="matrix(0.04163858,0,0,0.04163858,1.5000002,1.4999984)">
</g>
  <g
     id="g171"
     transform="matrix(0.04163858,0,0,0.04163858,1.5000002,1.4999984)">
</g>
  <g
     id="g173"
     transform="matrix(0.04163858,0,0,0.04163858,1.5000002,1.4999984)">
</g>
  <g
     id="g175"
     transform="matrix(0.04163858,0,0,0.04163858,1.5000002,1.4999984)">
</g>
  <g
     id="g177"
     transform="matrix(0.04163858,0,0,0.04163858,1.5000002,1.4999984)">
</g>
  <g
     id="g179"
     transform="matrix(0.04163858,0,0,0.04163858,1.5000002,1.4999984)">
</g>
  <g
     id="g181"
     transform="matrix(0.04163858,0,0,0.04163858,1.5000002,1.4999984)">
</g>
  <g
     id="g183"
     transform="matrix(0.04163858,0,0,0.04163858,1.5000002,1.4999984)">
</g>
  <g
     id="g258"
     transform="matrix(0.04101563,0,0,0.04101563,34.154294,-3.1394046)">
</g>
  <g
     id="g260"
     transform="matrix(0.04101563,0,0,0.04101563,34.154294,-3.1394046)">
</g>
  <g
     id="g262"
     transform="matrix(0.04101563,0,0,0.04101563,34.154294,-3.1394046)">
</g>
  <g
     id="g264"
     transform="matrix(0.04101563,0,0,0.04101563,34.154294,-3.1394046)">
</g>
  <g
     id="g266"
     transform="matrix(0.04101563,0,0,0.04101563,34.154294,-3.1394046)">
</g>
  <g
     id="g268"
     transform="matrix(0.04101563,0,0,0.04101563,34.154294,-3.1394046)">
</g>
  <g
     id="g270"
     transform="matrix(0.04101563,0,0,0.04101563,34.154294,-3.1394046)">
</g>
  <g
     id="g272"
     transform="matrix(0.04101563,0,0,0.04101563,34.154294,-3.1394046)">
</g>
  <g
     id="g274"
     transform="matrix(0.04101563,0,0,0.04101563,34.154294,-3.1394046)">
</g>
  <g
     id="g276"
     transform="matrix(0.04101563,0,0,0.04101563,34.154294,-3.1394046)">
</g>
  <g
     id="g278"
     transform="matrix(0.04101563,0,0,0.04101563,34.154294,-3.1394046)">
</g>
  <g
     id="g280"
     transform="matrix(0.04101563,0,0,0.04101563,34.154294,-3.1394046)">
</g>
  <g
     id="g282"
     transform="matrix(0.04101563,0,0,0.04101563,34.154294,-3.1394046)">
</g>
  <g
     id="g284"
     transform="matrix(0.04101563,0,0,0.04101563,34.154294,-3.1394046)">
</g>
  <g
     id="g286"
     transform="matrix(0.04101563,0,0,0.04101563,34.154294,-3.1394046)">
</g>
  <g
     id="g471"
     transform="matrix(0.04101562,0,0,0.04101562,1.5000429,1.5000004)">
    <g
       id="g405">
	<g
   id="g403">
		<path
   d="m 98.338,3.008 c -24.936,0 -45.152,20.216 -45.152,45.152 0,25.022 20.334,45.152 45.152,45.152 24.818,0 45.152,-20.13 45.152,-45.152 0,-24.936 -20.216,-45.152 -45.152,-45.152 z"
   id="path401" />

	</g>

</g>
    <g
       id="g411">
	<g
   id="g409">
		<path
   d="M 494.851,0 H 269.653 c -4.032,0 -7.775,2.098 -9.879,5.538 -2.104,3.44 -2.272,7.73 -0.432,11.319 4.425,8.63 12.172,16.734 22.642,24.062 -0.007,0.294 -0.022,0.586 -0.022,0.881 0,1.629 0.105,3.232 0.29,4.811 -15.03,18.03 -34.871,53.566 -53.012,96.542 l -24.037,8.281 h -32.915 v 27.749 l 49.579,-2.57 -3.681,15.142 -69.456,3.601 -35.248,-47.509 42.318,32.19 v -42.702 c 0,-16.846 -13.656,-30.501 -30.501,-30.501 H 70.904 c -16.846,0 -30.501,13.656 -30.501,30.501 v 156.736 l 9.872,79.62 -42.824,103.936 c -5.236,12.709 0.822,27.254 13.529,32.49 12.711,5.237 27.255,-0.825 32.49,-13.529 L 98.785,386.603 c 1.634,-3.966 2.215,-8.286 1.688,-12.542 -0.832,-6.713 -6.929,-55.884 -7.788,-62.811 h 19.329 c 2.116,16.203 2.272,17.398 7.007,53.655 L 94.235,481.952 c -2.848,13.446 5.745,26.655 19.19,29.502 13.447,2.847 26.655,-5.747 29.502,-19.191 l 25.669,-121.21 c 0.583,-2.754 0.695,-5.587 0.33,-8.378 -13.456,-103.029 -12.462,-96.22 -13.128,-98.654 v -10.45 c -5.942,0.308 -3.561,0.185 -15.707,0.814 -16.261,0.843 -29.689,-9.854 -33.105,-17.767 l -25.214,-58.381 38.922,52.462 c 4.703,6.339 10.885,8.777 18.625,8.777 14.349,-0.744 76.603,-3.971 86.924,-4.507 12.008,-0.625 21.252,-10.867 20.629,-22.885 -0.001,-0.013 -0.003,-0.027 -0.004,-0.041 -0.318,-5.929 -3.074,-11.341 -7.225,-15.061 3.326,-13.68 5.348,-21.995 8.64,-35.535 39.291,-21.098 71.732,-43.134 89.139,-59.646 9.847,8.922 23.869,12.944 37.851,9.283 l 14.514,14.513 c 13.373,13.373 20.886,31.511 20.886,50.424 V 500.42 c 0,6.396 5.185,11.58 11.58,11.58 h 51.711 c 6.396,0 11.58,-5.185 11.58,-11.58 v -324.4 c 0,-17.491 6.426,-34.318 17.97,-47.328 1.882,-2.121 2.916,-4.849 2.916,-7.683 V 11.58 C 506.432,5.185 501.247,0 494.851,0 Z M 263.733,125.043 288.722,64.307 c 7.768,11.763 21.439,19.286 36.802,18.298 0.811,2.885 1.927,5.612 3.292,8.166 z m 206.88,1.668 c -5.968,5.968 -14.063,9.321 -22.503,9.321 -8.44,0 -16.535,-3.353 -22.503,-9.321 L 396.44,97.544 c 2.218,-2.686 4.09,-5.664 5.572,-8.86 18.923,27.594 59.979,26.413 77.29,-2.205 3.621,6.634 8.714,12.345 14.836,16.709 z"
   id="path407" />

	</g>

</g>
    <g
       id="g413">
</g>
    <g
       id="g415">
</g>
    <g
       id="g417">
</g>
    <g
       id="g419">
</g>
    <g
       id="g421">
</g>
    <g
       id="g423">
</g>
    <g
       id="g425">
</g>
    <g
       id="g427">
</g>
    <g
       id="g429">
</g>
    <g
       id="g431">
</g>
    <g
       id="g433">
</g>
    <g
       id="g435">
</g>
    <g
       id="g437">
</g>
    <g
       id="g439">
</g>
    <g
       id="g441">
</g>
  </g>
</svg>
