<?xml version="1.0" encoding="utf-8"?>
<!-- Generator: Adobe Illustrator 27.4.1, SVG Export Plug-In . SVG Version: 6.00 Build 0)  -->
<svg version="1.1" id="Calque_1" xmlns="http://www.w3.org/2000/svg" xmlns:xlink="http://www.w3.org/1999/xlink" x="0px" y="0px"
	 viewBox="0 0 1000 1000" enable-background="new 0 0 1000 1000" xml:space="preserve">
<g id="logo">
	
		<g id="g883_00000022539221150303535710000012577670282461929904_" transform="matrix(0.94456457,0,0,0.94456457,10.968378,31.18083)">
		<g id="g2828_00000171696707967573187200000003861866410656769187_">
			<g id="g32_00000012470246598759000750000011345678251396794009_">
				<g>
					<g id="g2830_00000147216620090965507800000015131937843293734299_">
						<g id="g2836_00000138573249127852964640000007795465304216835220_" transform="translate(427.0015,362.0531)">
							<path id="path2838_00000179611919407770736170000005572243517571327650_" fill="#0099FF" d="M-275.4-356.2
								c2.4,15.7-3,34.2-17.5,42.5c-16.1,7.8-29.8,1.5-18,24.9c-0.1,0.1-0.2,0.2-0.3,0.2c-23.9-19.2,6.1-29.7,18.2-43
								c-0.1-0.1-0.2-0.2-0.2-0.3c-7.7,4.4-14.9,9.8-22.9,13.7c-0.6,0.3-1.1,0.3-1.1-0.6c0.2-8.1,3.4-17,11.4-20.5
								C-295.4-344.2-281.5-345.2-275.4-356.2"/>
						</g>
						<g id="g2840_00000151519121191915560580000013807043178792810383_" transform="translate(143.617,309.6074)">
							<path id="path2842_00000058565123737901383970000011303555799292898996_" fill="#97D123" d="M-80.4-287.6
								c17.8,18.2,60.2,34.7,25.4,61.1c23.2-43.5-23.4-17.7-42.1-51.6c-8.3-13.5-11.2-30-9.1-45.5c10.7,19.6,37.2,15.5,51.8,30.2
								c6.4,6.3,7.7,15,8.5,23.5c1.7,6.2-31-17.1-34.1-18C-80.2-287.9-80.3-287.7-80.4-287.6"/>
						</g>
						<g id="g2844_00000035489690301249952040000003686994366910632093_" transform="translate(65.4546,150.0839)">
							<path id="path2846_00000026142188087656289550000005365780029706677692_" fill="#336633" d="M-26.7-79.1
								C9.9-78.5,40-72.8,69.8-58.2c2.4,1,1.7,1.8-0.8,2.4c-4,1-8.1,2-12.1,3.1c-2.3,0.6-3.7,0.2-5.3-0.6
								c-6.8-3.6-13.3-7.4-20.7-10.7c-18.4-8.5-44.4-13.1-67.5-13.2c-1.9,0.2-3.7-0.2-5.4-0.8C-37.2-79.6-31.8-78.8-26.7-79.1"/>
						</g>
						<g id="g2848_00000170958630105484673390000005179589353395938983_" transform="translate(235.3552,55.1964)">
							<path id="path2850_00000051369547442575571340000007629012325295842726_" fill="#F9A72B" fill-opacity="0.9804" d="
								M-143.5,44.9c-19.1-1.5-44.4-6.8-53.2-20.2c22.3,1,38.8,8.6,53.9,19.5C-143.1,44.4-143.3,44.7-143.5,44.9"/>
						</g>
						<g id="g2852_00000003070772560924131070000015064573491751975856_" transform="translate(310.5638,57.8876)">
							<path id="path2854_00000103239456135586455770000018070281958382022323_" fill="#339933" d="M-195.3,41.4
								c-5.7,0.3-10.6,0.7-15.6,0.8c-1,0-2.5-0.7-3.2-1.3c-6.2-4.8-13.3-9.2-21.9-13c-10.9-4.8-23.4-7.9-37.8-8.7
								c-1.8,0.2-3-0.6-4.4-1.4C-249.8,15.6-215.2,26.7-195.3,41.4"/>
						</g>
						<g id="g2856_00000094593353856558934710000008448669540992617364_" transform="translate(458.8952,130.3764)">
							<path id="path2858_00000085235496936482419190000006022033728257513601_" fill="#FF9933" fill-opacity="0.9804" d="
								M-297.3-53.4c-4.4,6-9.8,9.8-17.1,13.6c-1.5,0.8-2.5,0.9-4,0c-2.9-1.8-6.1-3.4-9.2-5.1C-333.4-47.3-300.4-54.5-297.3-53.4"/>
						</g>
						<g id="g2860_00000048488434270573758610000001544392588597544632_" transform="translate(282.366,134.4695)">
							<path id="path2862_00000072972256618881377470000011231874001594268837_" fill="#336633" d="M-175.9-58.7
								c18.1-5.1,36.9-6.5,56.5-6.3c2.9,0.2,6-0.2,8.6,1.3c-0.9,0.2-1.8,0.7-2.8,0.7c-16,0.4-33.1,2-47.6,6.8
								C-166.5-54.4-170.3-57.5-175.9-58.7"/>
						</g>
						<g id="g2864_00000125584444432075455300000012340257352462951334_" transform="translate(319.906,119.4833)">
							<path id="path2866_00000087411332584606865660000005665633993601472692_" fill="#339933" d="M-201.7-39.1
								c14.3-4.1,28.8-6.7,44.9-7.2c1.4-0.1,4,0.3,4.1,0.6c0.3,1.3-1.9,1.5-3.8,1.6c-12.9,0.7-24.4,3.3-34.9,7.2
								C-195.4-35.6-197.5-37.8-201.7-39.1"/>
						</g>
						<g id="g2868_00000096740042981786078030000006680820221215785391_" transform="translate(274.1679,344.1267)">
							<path id="path2870_00000092448873560858500550000005256059467813953430_" fill="#666666" d="M-170.2-332.7
								c7.7,0,7.2,11-0.1,11C-177.8-321.7-178.1-333-170.2-332.7"/>
						</g>
					</g>
				</g>
			</g>
		</g>
	</g>
</g>
<path fill="none" stroke="#000000" stroke-width="5" stroke-miterlimit="10" d="M159.1,689.2"/>
<g opacity="0.5">
	<path fill="none" stroke="#000000" stroke-width="5" stroke-miterlimit="10" d="M144.6,606"/>
	<g>
		<path d="M124.8,617.2l6.2-9.7l4.9,3.1l-6.2,9.7L124.8,617.2z"/>
		<path d="M107.1,609.4l3.7-10.9l5.5,1.9l-3.7,10.9L107.1,609.4z"/>
		<path d="M87.9,595.5h5.8V607h-5.8V595.5z"/>
		<path d="M65.4,600.2l5.5-1.9l3.7,10.9l-5.5,1.9L65.4,600.2z"/>
		<path d="M45.8,610.5l4.9-3.1l6.2,9.7l-4.9,3.1L45.8,610.5z"/>
		<path d="M138.6,643.5l1.5-1.9l-1.6-1.8c-0.2-0.2-5.3-6.1-13.7-12c-11.2-7.9-22.9-12.1-34-12.1c-11,0-22.8,4.2-33.9,12.1
			c-8.4,5.9-13.5,11.8-13.7,12l-1.6,1.9l1.6,1.9c0.2,0.2,5.3,6.1,13.7,12c11.2,7.9,22.9,12.1,33.9,12.1c5.5,0,11.2-1,16.9-3
			c0.4,0.7,0.9,1.3,1.4,1.9l14.3,14.3l12.2-12.2l-12-12C132.9,650.2,138.3,643.8,138.6,643.5L138.6,643.5z M101,646
			c-5.6,5.6-14.8,5.6-20.4,0c-2.7-2.7-4.2-6.3-4.2-10.2s1.5-7.5,4.2-10.2c2.8-2.8,6.5-4.2,10.2-4.2s7.4,1.4,10.2,4.2
			c2.7,2.7,4.2,6.3,4.2,10.2S103.8,643.4,101,646z M60.3,651c-5.1-3.6-8.9-7.2-11-9.3c2.1-2.1,5.9-5.7,11-9.3
			c3.6-2.5,8.2-5.3,13.5-7.4c-2.1,3.2-3.2,7-3.2,10.9c0,5.4,2.1,10.5,5.9,14.3c3.9,3.9,9.1,5.9,14.3,5.9c4.3,0,8.5-1.3,12.1-4
			l4.6,4.6c-0.3,0.7-0.6,1.4-0.7,2.2c-5.4,2-10.8,3.1-16,3.1C78.4,661.9,67.4,655.9,60.3,651L60.3,651z M123.4,672.5l-10.2-10.2
			c-1.1-1.1-1.1-3,0-4.1s3-1.1,4.1,0l10.2,10.2L123.4,672.5z M119.1,652.5c-2.4-1.2-5.2-1.2-7.6,0l-4.6-4.6c2.6-3.5,4-7.7,4-12.1
			c0-3.9-1.1-7.7-3.2-10.9c5.3,2.1,9.9,4.9,13.5,7.4c5.1,3.6,9,7.2,11,9.3C130.1,644.2,125.6,648.5,119.1,652.5z"/>
	</g>
	<g>
		<g>
			<g>
				<path stroke="#000B13" stroke-width="2" stroke-miterlimit="10" d="M101,650.2l4.1-4.1l8.2,8.1l-4.1,4.1L101,650.2z"/>
			</g>
		</g>
		<g id="Vision_1_">
			<g>
				<g>
					<path fill="#028283" stroke="#000B13" stroke-width="3" stroke-miterlimit="10" d="M123.6,680.8l-14.3-14.2
						c-2.8-2.7-3.8-8.4,0-12.2c3.1-3.1,8-3.4,11.4-0.7c12.4,12.3,15.7,15.5,15.1,14.9L123.6,680.8z"/>
				</g>
			</g>
		</g>
		<g>
			<g>
				<g>
					<g>
						<path fill="#000B13" stroke="#000B13" stroke-width="2" stroke-miterlimit="10" d="M76.5,650.2c-7.9-7.9-7.9-20.6,0-28.5
							c7.6-7.6,21-7.6,28.6,0c7.9,7.9,7.9,20.6,0,28.5S84.4,658.2,76.5,650.2L76.5,650.2z"/>
					</g>
				</g>
			</g>
		</g>
		<path fill="#000B13" stroke="#000B13" stroke-width="2" stroke-miterlimit="10" d="M90.8,616v40.1c5.2,0,10.4-2,14.3-5.9
			c7.9-7.9,7.9-20.6,0-28.5C101.3,618,96,616,90.8,616L90.8,616z"/>
	</g>
	<ellipse fill="#FFFCFF" stroke="#FFFCFF" stroke-width="5" stroke-miterlimit="10" cx="91" cy="636" rx="11.8" ry="11.6"/>
	<ellipse fill="none" stroke="#FC6541" stroke-width="4" stroke-miterlimit="10" cx="91" cy="636" rx="5.9" ry="5.8"/>
</g>
<g opacity="0.5">
	<g>
		<path fill="#FC6541" d="M107,277.9l20.6,19.9l4,3.9l1.5,1.4c0.5,0.5,1.2,0.4,1.7,0l4.1-4.2l3.7-3.9c1.6-1.7,1.6-4.4-0.1-6.1
			l-3.6-3.5l-20-19.2c-1.7-1.6-4.4-1.6-6.1,0.1l-7.8,8.1c-0.5,0.5-0.4,1.2,0,1.7L107,277.9z"/>
	</g>
	<g>
		<path opacity="0.65" fill-rule="evenodd" clip-rule="evenodd" fill="#FFBC85" enable-background="new    " d="M78.3,279.2
			l-22.2,21.3c0.7,5.9,1.8,11.4,5.4,14.5l30.1,24.4l3.6,2.8c5.5,4.2,10.7-1.7,6.5-6c-0.1-0.1-0.1-0.1-0.2-0.2c1.4,1.2,3,1.5,4.4,1.3
			c3-0.5,5.1-3.7,2.3-6.7c5.5,4.4,10.1-2.6,5.9-6.4c4.8,1.5,10-4.7,5-9.9l-0.1-0.1l-12.4-18.5L89.9,285L78.3,279.2z"/>
	</g>
	<g>
		<path fill-rule="evenodd" clip-rule="evenodd" fill="#FFE5C1" d="M91.2,339.9c4.6-4.9-2.1-10.6-5.9-7.3l-4,3.8l-0.1,0.1
			c-3.4,3.4,2.7,11,7.8,5.7L91.2,339.9z"/>
	</g>
	<g>
		<path fill-rule="evenodd" clip-rule="evenodd" fill="#FFE5C1" d="M78.4,325.8l-4.2,4.4l0,0c-2.1,2.2-0.6,5.7,1.9,7
			c1.6,0.8,3.5,0.9,5.2-0.7l4.5-0.1l-0.4-3.9l0.6-0.5c4.5-4.3-2-11.7-7.1-6.8L78.4,325.8z"/>
	</g>
	<g>
		<path fill-rule="evenodd" clip-rule="evenodd" fill="#FFE5C1" d="M70.9,319.7l-4,4.2l-0.6,0.6c-3.9,4.1,3.1,10.7,7.1,6.4l0.7-0.7
			c0.1-0.1,4.3-0.5,4.8-0.6l-0.1-4.4l1.4-1.4c4.7-4.9-2.6-11.3-7.1-6.6L70.9,319.7z"/>
	</g>
	<g>
		<path fill-rule="evenodd" clip-rule="evenodd" fill="#FFE5C1" d="M61.6,315l-1.3,1.5c-4.1,4.5,2,11.6,6.6,7.5l3.8-0.6l0.2-3.6
			c3.7-4.2-2.8-11.8-7.9-6.2L61.6,315z"/>
	</g>
	<g>
		<path fill="#028283" d="M67.3,266.6l-18.4,17.7l-5.2,5c-1.7,1.6-1.8,4.4-0.1,6.1l7.8,8.1c0.5,0.5,1.2,0.5,1.7,0l3.1-3l22.2-21.3
			l2.8-2.7c0.5-0.5,0.5-1.2,0-1.7l-7.8-8.1C71.8,265,69,265,67.3,266.6L67.3,266.6z"/>
	</g>
	<g>
		<path opacity="0.8" fill-rule="evenodd" clip-rule="evenodd" fill="#F5A96C" enable-background="new    " d="M102.2,297.2
			l-5.6,1.3l2.2,2.2l16.9,16.8l0.1,0.1c2,2.2,2.4,4.5,1.7,6.3c3.3-1.3,5.5-5.8,1.7-9.8l-0.1-0.1l-5.1-5L102.2,297.2z"/>
	</g>
	<g opacity="0.8">
		<path fill-rule="evenodd" clip-rule="evenodd" fill="#F5A96C" d="M78.3,279.2l-3.6,3.4l11.1,5.5l4.1-3.2L78.3,279.2z"/>
	</g>
	<g>
		<path fill-rule="evenodd" clip-rule="evenodd" fill="#FFE5C1" d="M90,284.9l-4.1,3.2l-3.8,3c-9.7,7.5-1.7,14.9,4.1,12.4l6.5-3.9
			l4-0.9l5.6-1.3l11.8,11.8l5.1,5c3.2-1.2,7.7-4.6,12.6-12.5L107.1,278l-4.4,3.5c-0.7,0.6-0.5,0.5-1.4,0.4c-3.3-0.1-7.6,0.2-10,2.1
			L90,284.9z"/>
	</g>
	<g>
		<path fill-rule="evenodd" clip-rule="evenodd" fill="#FED1A3" d="M89.9,296.9l-6.5,3.9c-1.8,0.8-3.7,0.6-5.4-0.2
			c1.4,2.7,5,4.1,8,2.8l6.5-3.9l4-0.9l5.5-1.3c-2.6-2.2-3-2.5-8.2-1.3L89.9,296.9z"/>
	</g>
	<g>
		<path fill-rule="evenodd" clip-rule="evenodd" fill="#FED1A3" d="M127.6,297.8c-4.3,7-8.4,10.5-11.5,12c-0.3,0.2-0.7,0.3-1,0.4
			l3.9,3.9c3.2-1.2,7.7-4.6,12.6-12.5L127.6,297.8z"/>
	</g>
	<g>
		<path fill-rule="evenodd" clip-rule="evenodd" fill="#FED1A3" d="M58.9,319.9c0,3.8,4.5,7.2,8,4.1l2.5-2.6l1.5-1.6
			c1.5-1.7,1.3-4.1,0.2-5.8c0,1-0.3,2-1.1,2.9l-2.6,2.8l-1.3,1.4C63.4,323.4,60.4,322.2,58.9,319.9L58.9,319.9z"/>
	</g>
	<g>
		<path fill-rule="evenodd" clip-rule="evenodd" fill="#FED1A3" d="M65.4,328.5c0.9,3.1,5.2,5.5,8.1,2.5l0.7-0.7l0,0l4.2-4.4
			c0.2-0.2,0.3-0.3,0.4-0.5l1.4-1.4c2.5-2.6,1.6-5.7-0.6-7.3c0.4,1.4,0.1,3.1-1.3,4.5l-1.4,1.4c-0.2,0.1-0.3,0.3-0.4,0.5l0,0
			l-4.2,4.4l0,0l-0.7,0.7C69.8,330.2,67.1,329.9,65.4,328.5L65.4,328.5z"/>
	</g>
	<g>
		<path fill-rule="evenodd" clip-rule="evenodd" fill="#FED1A3" d="M81.4,336.5l3.1-2.9l0.9-0.9l0.6-0.5c2.4-2.3,1.7-5.5-0.3-7.2
			c0.4,1.5,0.1,3.2-1.3,4.6l-0.6,0.5l-1.6,1.5l-2.4,2.3l-0.1,0.1c-1.7,1.6-3.7,1.5-5.2,0.7c-0.4-0.2-0.7-0.5-1.1-0.8
			c0.4,1.4,1.4,2.6,2.7,3.3c1.6,0.8,3.5,0.9,5.2-0.7H81.4z"/>
	</g>
	<g>
		<path fill-rule="evenodd" clip-rule="evenodd" fill="#FED1A3" d="M91.2,339.9c2.3-2.5,1.8-5.1,0.2-6.7c0,1.1-0.5,2.3-1.6,3.4
			l-2.2,2.3c-2.7,2.9-5.7,2-7.4,0.1c0,3.5,4.7,7.5,8.7,3.3L91.2,339.9z"/>
	</g>
	<g>
		<path d="M101.8,337.7c-0.4,0-0.8-0.1-1-0.4l-3.1-2.9c-0.6-0.6-0.7-1.6-0.1-2.2s1.6-0.7,2.2-0.1l3.1,2.9c0.6,0.6,0.7,1.6,0.1,2.2
			C102.8,337.6,102.2,337.7,101.8,337.7z"/>
	</g>
	<path d="M143.6,287.7L120.1,265c-1.1-1.1-2.6-1.6-4.2-1.6s-3,0.7-4.1,1.8l-7.8,8.1c-1,1.1-1,2.8,0.1,3.9l0.6,0.6l-3.2,2.6
		c-0.1,0-0.2,0-0.3,0c-5-0.2-8.7,0.7-11,2.5l-0.4,0.3l-8.8-4.3l1.2-1.1c0.5-0.5,0.8-1.2,0.8-1.9c0-0.7-0.3-1.4-0.8-2l-7.8-8.1
		c-1.1-1.1-2.5-1.8-4.1-1.8s-3,0.5-4.2,1.6l-23.6,22.7c-2.3,2.2-2.4,5.9-0.2,8.2l7.8,8.1c0.5,0.6,1.2,0.8,2,0.8
		c0.7,0,1.4-0.3,1.9-0.8l0.9-0.9c0.7,4.2,1.8,8.4,4.4,11.3l-0.3,0.4c-2.8,3-1.9,7.1,0.3,9.4c1.2,1.3,2.7,1.9,4.2,2
		c-0.2,1.9,0.7,3.9,2.1,5.2c1.3,1.2,2.9,1.9,4.6,1.9c0.4,0,0.8,0,1.3-0.1c0.2,1.4,1,2.7,1.9,3.7c1.2,1.2,2.8,2,4.6,2
		c0.2,0,0.4,0,0.5,0c0,0.3,0.1,0.7,0.2,1c0.6,2.4,2.6,4.5,4.9,5.1c0.4,0.1,0.9,0.2,1.5,0.2c1.4,0,3.1-0.5,4.9-2.3l1.7-1.8l2.5,1.9
		c1.6,1.3,3.3,1.8,4.7,1.8c1.8,0,3.4-0.8,4.4-2c1-1.1,1.5-2.7,1.3-4.4c1.9,0.1,3.7-0.6,4.9-1.9c0.9-0.9,1.4-2.2,1.4-3.5
		c2,0.2,3.7-0.6,4.8-1.9c1.2-1.5,1.8-3.7,1.1-5.8c1.8-0.4,3.5-1.6,4.6-3.3c1.2-2,1.7-4.9-0.2-7.8c2.8-1.5,6.4-4.6,10.4-10.6l0.1,0.1
		c0.5,0.5,1.2,0.8,1.9,0.8s1.4-0.3,2-0.8l7.8-8.1C145.9,293.7,145.9,290,143.6,287.7L143.6,287.7z M61.4,317.5l2.7-2.9
		c1.1-1.2,2.3-1.7,3.5-1.4c1.2,0.3,2.3,1.4,2.7,2.7c0.2,0.6,0.4,1.9-0.6,2.9l0,0l-3.8,4c-1.6,1.4-3.2,0.8-4.2-0.2
		C60.4,321.4,59.8,319.2,61.4,317.5L61.4,317.5z M67.9,329.7c-0.2-0.2-2.2-2.2-0.5-4.1l0,0l6.8-7.2c0.8-0.9,1.7-1.2,2.4-1.2
		c0.3,0,0.5,0,0.7,0.1c1.2,0.3,2.3,1.3,2.6,2.4c0.3,1.1,0,2.2-1,3.1l-1.4,1.5c-0.1,0.1-0.1,0.2-0.2,0.2l-5.1,5.3
		C70.8,331.6,68.8,330.6,67.9,329.7L67.9,329.7z M75.8,335.2c-0.9-0.9-1.7-2.7-0.5-3.9l0,0l4.2-4.4c0,0,0,0,0.1-0.1l0,0l0.3-0.3
		c1-1,2.2-1.4,3.3-1.2c1.2,0.3,2.3,1.3,2.7,2.6c0.2,0.8,0.2,2-0.9,3.1l-0.5,0.5l0,0l-0.1,0.1l-3.9,3.7l0,0l-0.1,0.1
		C78.1,337.4,76.2,335.6,75.8,335.2L75.8,335.2z M87.9,341.2c-1.1,1.1-2.2,1.6-3.3,1.3c-1.2-0.3-2.4-1.5-2.7-2.8
		c-0.1-0.6-0.2-1.4,0.4-2l0.1-0.1l4-3.8c1.2-1,2.9-0.5,3.9,0.5c0.5,0.5,1.9,2.3-0.2,4.6L87.9,341.2z M119.1,320.9
		c-0.8,1.3-2.4,2.3-4.1,1.9l-5.9-5.5c-0.6-0.6-1.6-0.5-2.2,0.1s-0.5,1.6,0.1,2.2l6.2,5.7l0,0l0,0c1.5,1.4,1.4,3.2,0.5,4.2
		c-1,1.2-2.6,1.2-4.3-0.2l-6.1-5.7c-0.6-0.6-1.6-0.5-2.2,0.1s-0.5,1.6,0.1,2.2l6.1,5.7c1.1,1.2,1.2,2.3,0.3,3.2
		c-1,1.1-3.1,1.4-4.9-0.1c-0.6-0.5-1.6-0.5-2.1,0.1c-0.6,0.6-0.5,1.6,0.1,2.1c1.7,1.6,1.4,3.2,0.6,4.1c-0.9,1.1-2.8,1.4-4.9-0.2
		l-2.5-1.9c1.3-2.6,0.5-5.2-1.2-6.9c-1-1-2.3-1.7-3.7-1.9c0.2-1,0.2-2,0-3.1c-0.6-2.4-2.6-4.3-4.9-4.8c-0.3-0.1-0.6-0.1-0.9-0.1
		c0.3-1.1,0.3-2.2,0-3.4c-0.7-2.2-2.6-4-4.8-4.5c-1.7-0.4-3.4-0.1-4.9,0.9c0-0.1,0-0.1-0.1-0.2c-0.7-2.4-2.7-4.3-5-4.8
		s-4.6,0.3-6.4,2.3l-0.2,0.3c-2.2-2.6-3.1-6.6-3.8-11.7l6.5-6.3c0.6-0.6,0.6-1.6,0-2.2s-1.6-0.6-2.2,0l-7,6.7
		c-0.1,0-0.1,0.1-0.2,0.1l-2.8,2.7l-7.5-7.9c-1-1.1-1-2.8,0.1-3.9l23.6-22.7c0.5-0.5,1.2-0.8,2-0.8c0.7,0,1.4,0.3,1.9,0.8l7.5,7.9
		l-12.7,12.3c-0.6,0.6-0.6,1.6,0,2.2s1.6,0.6,2.2,0l9.5-9.1l8.4,4.2l-6,4.6c-7.1,5.5-5,10.5-4.2,11.9c1.4,2.4,4,3.8,6.7,3.8
		c1,0,2.1-0.2,3.1-0.6c0.1,0,0.1-0.1,0.2-0.1l6.3-3.8l8.5-1.9l16.3,16.2C120.6,317.8,119.6,320,119.1,320.9L119.1,320.9z
		 M141.6,293.8l-7.5,7.9l-1.2-1.1l-0.1-0.1l-10.6-10.2c-0.6-0.6-1.6-0.6-2.2,0c-0.6,0.6-0.6,1.6,0,2.2l9.8,9.4
		c-4.3,6.6-8,9.3-10.2,10.4l-16.1-16l0,0c0,0,0,0-0.1-0.1l0,0c0,0,0,0-0.1-0.1c0,0,0,0-0.1,0c0,0,0,0-0.1,0c0,0,0,0-0.1,0
		c0,0,0,0-0.1,0c0,0,0,0-0.1,0h-0.1c0,0,0,0-0.1,0h-0.1l0,0h-0.1l0,0h-0.1l0,0h-0.1c0,0,0,0-0.1,0c0,0,0,0-0.1,0h-0.1l0,0l-9.6,2.2
		c-0.2,0-0.3,0.1-0.5,0.2l-6.4,3.8c-2.1,0.9-4.7,0-5.9-1.9c-1.3-2.3-0.1-5.2,3.4-7.9l7.9-6.1l0,0l1.1-0.8c1.7-1.3,4.9-2,9-1.8
		c0.1,0,0.2,0,0.3,0c0.9,0.1,1.3-0.1,2-0.7l3.5-2.8l7.9,7.6c0.6,0.6,1.6,0.6,2.2,0s0.6-1.6,0-2.2l-10.5-10.1l7.5-7.9
		c0.5-0.5,1.2-0.8,1.9-0.8c0,0,0,0,0.1,0c0.7,0,1.4,0.3,1.9,0.8l23.6,22.7C142.6,291,142.6,292.7,141.6,293.8L141.6,293.8z"/>
</g>
<g>
	<path fill="#028283" d="M117.8,459.4v4.5c0,1.6-1.1,2.9-2.6,3.2l-8.2,1.6c-0.6,2-1.4,4-2.4,5.8l4.6,6.9c0.9,1.3,0.7,3-0.4,4.1
		l-3.1,3.1c-1.1,1.1-2.8,1.3-4.1,0.4l-6.9-4.6c-1.8,1-3.7,1.8-5.8,2.4l-1.6,8.2c-0.3,1.5-1.6,2.6-3.2,2.6h-4.5
		c-1.6,0-2.9-1.1-3.2-2.6l-1.6-8.2c-2-0.6-4-1.4-5.8-2.4l-6.9,4.6c-1.3,0.9-3,0.7-4.1-0.4l-3.1-3.1c-1.1-1.1-1.3-2.8-0.4-4.1
		l4.6-6.9c-1-1.8-1.8-3.7-2.4-5.8l-8.2-1.6c-1.5-0.3-2.6-1.6-2.6-3.2v-4.5c0-1.6,1.1-2.9,2.6-3.2l8.2-1.6c0.6-2,1.4-4,2.4-5.8
		l-4.6-6.9c-0.9-1.3-0.7-3,0.4-4.1l3.1-3.1c1.1-1.1,2.8-1.3,4.1-0.4l6.9,4.6c1.8-1,3.7-1.8,5.8-2.4l1.6-8.2c0.3-1.5,1.6-2.6,3.2-2.6
		h4.5c1.6,0,2.9,1.1,3.2,2.6l1.6,8.2c2,0.6,4,1.4,5.8,2.4l6.9-4.6c1.3-0.9,3-0.7,4.1,0.4l3.1,3.1c1.1,1.1,1.3,2.8,0.4,4.1l-4.6,6.9
		c1,1.8,1.8,3.7,2.4,5.8l8.2,1.6C116.6,456.5,117.8,457.8,117.8,459.4z"/>
	<path fill="#FFFCFF" d="M97.6,461.6c0,8.7-7.1,15.8-15.8,15.8S66,470.2,66,461.6s7.1-15.8,15.8-15.8S97.6,452.9,97.6,461.6z"/>
	<path fill="#FFFCFF" d="M89.6,461.6c0,4.3-3.5,7.9-7.9,7.9s-7.9-3.5-7.9-7.9c0-4.3,3.5-7.9,7.9-7.9S89.6,457.2,89.6,461.6z"/>
	<path fill="#FFFCFF" d="M84.8,461.6c0,3.5-2.3,6.5-5.5,7.5c-3.2-1-5.5-4-5.5-7.5s2.3-6.5,5.5-7.5C82.6,455.1,84.8,458.1,84.8,461.6
		z"/>
	<path fill="#FC6541" d="M140.4,495v2.9c0,1-0.7,1.9-1.7,2.1l-5.4,1.1c-0.4,1.3-0.9,2.6-1.6,3.8l3,4.5c0.6,0.9,0.5,2-0.3,2.7
		l-2.1,2.1c-0.7,0.7-1.9,0.8-2.7,0.3l-4.5-3c-1.2,0.7-2.4,1.2-3.8,1.6l-1.1,5.4c-0.2,1-1.1,1.7-2.1,1.7h-2.9c-1,0-1.9-0.7-2.1-1.7
		l-1.1-5.4c-1.3-0.4-2.6-0.9-3.8-1.6l-4.5,3c-0.9,0.6-2,0.5-2.7-0.3l-2.1-2.1c-0.7-0.7-0.8-1.9-0.3-2.7l3-4.5
		c-0.7-1.2-1.2-2.4-1.6-3.8l-5.4-1.1c-1-0.2-1.7-1.1-1.7-2.1V495c0-1,0.7-1.9,1.7-2.1l5.4-1.1c0.4-1.3,0.9-2.6,1.6-3.8l-3-4.5
		c-0.6-0.9-0.5-2,0.3-2.7l2.1-2.1c0.7-0.7,1.9-0.8,2.7-0.3l4.5,3c1.2-0.7,2.4-1.2,3.8-1.6l1.1-5.4c0.2-1,1.1-1.7,2.1-1.7h2.9
		c1,0,1.9,0.7,2.1,1.7l1.1,5.4c1.3,0.4,2.6,0.9,3.8,1.6l4.5-3c0.9-0.6,2-0.5,2.7,0.3l2.1,2.1c0.7,0.7,0.8,1.9,0.3,2.7l-3,4.5
		c0.7,1.2,1.2,2.4,1.6,3.8l5.4,1.1C139.6,493.2,140.4,494,140.4,495z"/>
	<path fill="#FFFCFF" d="M128.6,496.5c0,6.5-5.3,11.8-11.8,11.8s-11.8-5.3-11.8-11.8s5.3-11.8,11.8-11.8
		C123.3,484.7,128.6,490,128.6,496.5z"/>
	<path fill="#FFFCFF" d="M123.8,496.5c0,3.9-3.2,7.1-7.1,7.1s-7.1-3.2-7.1-7.1s3.2-7.1,7.1-7.1S123.8,492.5,123.8,496.5z"/>
	<path fill="#FFFCFF" d="M119.1,496.5c0,3.1-2,5.7-4.7,6.7c-2.8-1-4.7-3.6-4.7-6.7c0-3.1,2-5.7,4.7-6.7
		C117.1,490.9,119.1,493.5,119.1,496.5z"/>
	<path d="M68.3,457c-0.5,1.5-0.8,3-0.8,4.6c0,7.9,6.4,14.3,14.3,14.3c3,0,5.9-0.9,8.3-2.7c0.7-0.5,1.7-0.3,2.2,0.3
		c0.5,0.7,0.3,1.7-0.3,2.2c-3,2.1-6.5,3.3-10.2,3.3c-9.6,0-17.3-7.8-17.3-17.3c0-1.9,0.3-3.8,0.9-5.6c0.3-0.8,1.2-1.2,2-1
		C68.1,455.2,68.6,456.2,68.3,457z M95.1,470.2c0.2,0.1,0.5,0.2,0.7,0.2c0.6,0,1.1-0.3,1.4-0.8c1.2-2.4,1.9-5.2,1.9-7.9
		c0-9.6-7.8-17.3-17.3-17.3c-4.5,0-8.8,1.7-12.1,4.9c-0.6,0.6-0.6,1.6,0,2.2s1.6,0.6,2.2,0c2.7-2.6,6.2-4,9.9-4
		c7.9,0,14.3,6.4,14.3,14.3c0,2.3-0.5,4.5-1.6,6.5C94.1,468.9,94.4,469.8,95.1,470.2z M94.4,484.5c-0.4-0.8-1.3-1.1-2.1-0.7
		c-1.3,0.6-2.6,1.1-3.9,1.5c-0.6,0.2-1,0.6-1.1,1.2l-1.6,8.2c-0.2,0.8-0.9,1.4-1.7,1.4h-4.5c-0.8,0-1.5-0.6-1.7-1.4l-1.6-8.2
		c-0.1-0.6-0.5-1-1.1-1.2c-1.9-0.5-3.7-1.3-5.4-2.2c-0.5-0.3-1.1-0.3-1.6,0.1l-6.9,4.6c-0.7,0.5-1.6,0.4-2.2-0.2l-3.1-3.1
		c-0.6-0.6-0.7-1.5-0.2-2.2l4.6-6.9c0.3-0.5,0.3-1.1,0.1-1.6c-1-1.7-1.7-3.5-2.2-5.4c-0.2-0.6-0.6-1-1.2-1.1l-8.2-1.6
		c-0.8-0.2-1.4-0.9-1.4-1.7v-4.5c0-0.8,0.6-1.5,1.4-1.7l8.2-1.6c0.6-0.1,1-0.5,1.2-1.1c0.5-1.9,1.3-3.7,2.2-5.4
		c0.3-0.5,0.3-1.1-0.1-1.6l-4.6-6.9c-0.5-0.7-0.4-1.6,0.2-2.2l3.1-3.1c0.6-0.6,1.5-0.7,2.2-0.2l6.9,4.6c0.5,0.3,1.1,0.3,1.6,0.1
		c1.7-1,3.5-1.7,5.4-2.2c0.6-0.2,1-0.6,1.1-1.2l1.6-8.2c0.2-0.8,0.9-1.4,1.7-1.4h4.5c0.8,0,1.5,0.6,1.7,1.4l1.6,8.2
		c0.1,0.6,0.5,1,1.1,1.2c1.9,0.5,3.7,1.3,5.4,2.2c0.5,0.3,1.1,0.3,1.6-0.1l6.9-4.6c0.7-0.5,1.6-0.4,2.2,0.2l3.1,3.1
		c0.6,0.6,0.7,1.5,0.2,2.2l-4.6,6.9c-0.3,0.5-0.3,1.1-0.1,1.6c1,1.7,1.7,3.5,2.2,5.4c0.2,0.6,0.6,1,1.2,1.1l8.2,1.6
		c0.8,0.2,1.4,0.9,1.4,1.7v4.5c0,0.8-0.6,1.5-1.4,1.7l-8.2,1.6c-0.6,0.1-1,0.5-1.2,1.1c-0.4,1.4-0.9,2.7-1.5,4
		c-0.4,0.8,0,1.7,0.7,2.1c0.8,0.4,1.7,0,2.1-0.7c0.6-1.2,1-2.4,1.4-3.6l7.2-1.4c2.2-0.4,3.9-2.4,3.9-4.7v-4.5c0-2.3-1.6-4.3-3.9-4.7
		l-7.2-1.4c-0.5-1.5-1.1-3-1.8-4.3l4.1-6.2c1.3-1.9,1-4.5-0.6-6.1l-3.1-3.1c-1.6-1.6-4.2-1.9-6.1-0.6l-6.2,4.1
		c-1.4-0.7-2.8-1.3-4.3-1.8l-1.4-7.2c-0.4-2.2-2.4-3.9-4.7-3.9h-4.5c-2.3,0-4.3,1.6-4.7,3.9l-1.4,7.2c-1.5,0.5-3,1.1-4.3,1.8
		l-6.1-4.1c-1.9-1.3-4.5-1-6.1,0.6l-3.1,3.1c-1.6,1.6-1.9,4.2-0.6,6.1l4.1,6.2c-0.7,1.4-1.3,2.8-1.8,4.3l-7.2,1.4
		c-2.2,0.4-3.9,2.4-3.9,4.7v4.5c0,2.3,1.6,4.3,3.9,4.7l7.2,1.4c0.5,1.5,1.1,3,1.8,4.3l-4.1,6.2c-1.3,1.9-1,4.5,0.6,6.1l3.1,3.1
		c1.6,1.6,4.2,1.9,6.1,0.6l6.2-4.1c1.4,0.7,2.8,1.3,4.3,1.8l1.4,7.2c0.4,2.2,2.4,3.9,4.7,3.9H84c2.3,0,4.3-1.6,4.7-3.9l1.4-7.2
		c1.2-0.4,2.4-0.8,3.5-1.4C94.4,486.2,94.8,485.4,94.4,484.5z M116.8,491c3.1,0,5.6,2.5,5.6,5.6c0,0.9,0.7,1.5,1.5,1.5
		c0.9,0,1.5-0.7,1.5-1.5c0-4.8-3.9-8.6-8.6-8.6s-8.6,3.9-8.6,8.6c0,4.8,3.9,8.6,8.6,8.6c1.9,0,3.8-0.6,5.3-1.8
		c0.7-0.5,0.8-1.5,0.3-2.2s-1.5-0.8-2.2-0.3c-1,0.8-2.2,1.2-3.4,1.2c-3.1,0-5.6-2.5-5.6-5.6C111.2,493.5,113.8,491,116.8,491z
		 M81.8,471c-5.2,0-9.4-4.2-9.4-9.4c0-5.2,4.2-9.4,9.4-9.4s9.4,4.2,9.4,9.4S86.9,471,81.8,471z M81.8,467.9c3.5,0,6.3-2.8,6.3-6.3
		s-2.8-6.3-6.3-6.3s-6.3,2.8-6.3,6.3S78.3,467.9,81.8,467.9z M138.9,491.5l-4.5-0.9c-0.3-0.8-0.6-1.6-1-2.4l2.5-3.8
		c1-1.5,0.8-3.4-0.5-4.7l-2.1-2.1c-1.2-1.2-3.2-1.4-4.7-0.5l-3.8,2.5c-0.8-0.4-1.6-0.7-2.4-1l-0.9-4.5c-0.3-1.7-1.9-3-3.6-3H115
		c-1.8,0-3.3,1.2-3.6,3l-0.9,4.5c-0.8,0.3-1.6,0.6-2.4,1l-3.8-2.5c-1.5-1-3.4-0.8-4.7,0.5l-2.1,2.1c-1.2,1.2-1.4,3.2-0.5,4.7
		l2.5,3.8c-0.5,1-0.9,2.1-1.3,3.3c-0.2,0.8,0.2,1.7,1.1,1.9c0.8,0.2,1.7-0.2,1.9-1.1c0.3-1.2,0.8-2.4,1.4-3.4
		c0.3-0.5,0.3-1.1-0.1-1.6l-3-4.5c-0.2-0.2-0.1-0.6,0.1-0.8l2.1-2.1c0.2-0.2,0.5-0.2,0.8-0.1l4.5,3c0.5,0.3,1.1,0.3,1.6,0.1
		c1.1-0.6,2.2-1.1,3.4-1.4c0.6-0.2,1-0.6,1.1-1.2l1.1-5.4c0.1-0.3,0.3-0.5,0.6-0.5h2.9c0.3,0,0.5,0.2,0.6,0.5l1.1,5.4
		c0.1,0.6,0.5,1,1.1,1.2c1.2,0.3,2.4,0.8,3.4,1.4c0.5,0.3,1.1,0.3,1.6-0.1l4.5-3c0.2-0.2,0.6-0.1,0.8,0.1l2.1,2.1
		c0.2,0.2,0.2,0.5,0.1,0.8l-3,4.5c-0.3,0.5-0.3,1.1-0.1,1.6c0.6,1.1,1.1,2.2,1.4,3.4c0.2,0.6,0.6,1,1.2,1.1l5.4,1.1
		c0.3,0.1,0.5,0.3,0.5,0.6v2.9c0,0.3-0.2,0.5-0.5,0.6l-5.4,1.1c-0.6,0.1-1,0.5-1.2,1.1c-0.3,1.2-0.8,2.4-1.4,3.4
		c-0.3,0.5-0.3,1.1,0.1,1.6l3,4.5c0.2,0.2,0.1,0.6-0.1,0.8l-2.1,2.1c-0.2,0.2-0.5,0.2-0.8,0.1l-4.5-3c-0.5-0.3-1.1-0.3-1.6-0.1
		c-1.1,0.6-2.2,1.1-3.4,1.4c-0.6,0.2-1,0.6-1.1,1.2l-1.1,5.4c-0.1,0.3-0.3,0.5-0.6,0.5h-2.9c-0.3,0-0.5-0.2-0.6-0.5l-1.1-5.4
		c-0.1-0.6-0.5-1-1.1-1.2c-1.2-0.3-2.4-0.8-3.4-1.4c-0.5-0.3-1.1-0.3-1.6,0.1l-4.5,3c-0.2,0.2-0.6,0.1-0.8-0.1l-2.1-2.1
		c-0.2-0.2-0.2-0.5-0.1-0.8l3-4.5c0.3-0.5,0.3-1.1,0.1-1.6c-0.6-1.1-1.1-2.2-1.4-3.4c-0.2-0.6-0.6-1-1.2-1.1l-5.4-1.1
		c-0.3-0.1-0.5-0.3-0.5-0.6V495c0-0.3,0.2-0.5,0.5-0.6l0.3-0.1c0.8-0.2,1.4-1,1.2-1.8c-0.2-0.8-1-1.4-1.8-1.2l-0.3,0.1
		c-1.7,0.3-3,1.9-3,3.6v2.9c0,1.8,1.2,3.3,3,3.6l4.5,0.9c0.3,0.8,0.6,1.6,1,2.4l-2.5,3.8c-1,1.5-0.8,3.4,0.5,4.7l2.1,2.1
		c1.2,1.2,3.2,1.4,4.7,0.5l3.8-2.5c0.8,0.4,1.6,0.7,2.4,1l0.9,4.5c0.3,1.7,1.9,3,3.6,3h2.9c1.8,0,3.3-1.2,3.6-3l0.9-4.5
		c0.8-0.3,1.6-0.6,2.4-1l3.8,2.5c1.5,1,3.4,0.8,4.7-0.5l2.1-2.1c1.2-1.2,1.4-3.2,0.5-4.7l-2.5-3.8c0.4-0.8,0.7-1.6,1-2.4l4.5-0.9
		c1.7-0.3,3-1.9,3-3.6V495C141.9,493.4,140.8,491.8,138.9,491.5z"/>
</g>
<g>
	<g id="texte_picto_categorie">
		<path fill="#FC6541" d="M392,112.2c-1.6,0.8-5.5,1.7-10.3,1.7c-14,0-21.2-8.8-21.2-20.3c0-13.8,9.9-21.4,22.1-21.4
			c4.8,0,8.4,0.9,10,1.8l-1.9,7.2c-1.8-0.8-4.4-1.5-7.7-1.5c-7.2,0-12.9,4.4-12.9,13.4c0,8.1,4.8,13.2,12.9,13.2
			c2.8,0,5.8-0.6,7.6-1.3L392,112.2z"/>
		<path fill="#FC6541" d="M426.6,98.3c0,10.7-7.6,15.6-15.5,15.6c-8.5,0-15.2-5.6-15.2-15.1s6.3-15.6,15.7-15.6
			C420.7,83.3,426.6,89.5,426.6,98.3z M405.4,98.6c0,5,2.1,8.8,6,8.8c3.6,0,5.8-3.6,5.8-8.9c0-4.3-1.7-8.8-5.8-8.8
			C407.1,89.8,405.4,94.3,405.4,98.6z"/>
		<path fill="#FC6541" d="M432.3,93.3c0-3.7-0.1-6.7-0.2-9.4h7.7l0.4,4h0.2c1.2-1.9,3.9-4.6,8.9-4.6c3.8,0,6.8,1.9,8,5h0.1
			c1.1-1.6,2.4-2.8,3.8-3.6c1.6-1,3.4-1.5,5.6-1.5c5.6,0,9.9,4,9.9,12.7v17.3h-8.9V97.3c0-4.3-1.4-6.7-4.3-6.7
			c-2.1,0-3.6,1.4-4.2,3.2c-0.2,0.7-0.3,1.6-0.3,2.3v17.2h-8.9V96.8c0-3.7-1.3-6.2-4.2-6.2c-2.3,0-3.7,1.8-4.3,3.3
			c-0.3,0.7-0.3,1.5-0.3,2.3v17.1h-8.9v-20L432.3,93.3L432.3,93.3z"/>
		<path fill="#FC6541" d="M483.9,93.8c0-3.9-0.1-7.1-0.2-9.9h7.9L492,88h0.1c2.2-3.1,5.5-4.8,9.8-4.8c6.4,0,12.2,5.6,12.2,15
			c0,10.7-6.8,15.7-13.4,15.7c-3.5,0-6.3-1.4-7.6-3.3H493v14.6h-9.1V93.8z M493,100.8c0,0.7,0.1,1.3,0.2,1.9
			c0.6,2.4,2.7,4.3,5.3,4.3c3.9,0,6.3-3.3,6.3-8.3c0-4.7-2.1-8.2-6.2-8.2c-2.6,0-4.9,2-5.5,4.6c-0.1,0.5-0.2,1.1-0.2,1.6v4.1H493z"
			/>
		<path fill="#FC6541" d="M526.9,101.6c0.3,3.8,4,5.6,8.3,5.6c3.1,0,5.6-0.4,8.1-1.2l1.2,6.2c-3,1.2-6.7,1.9-10.6,1.9
			c-9.9,0-15.7-5.8-15.7-14.9c0-7.5,4.7-15.7,14.8-15.7c9.5,0,13.1,7.4,13.1,14.7c0,1.6-0.2,2.9-0.3,3.6h-18.9L526.9,101.6
			L526.9,101.6z M537.5,95.3c0-2.2-1-6-5.1-6c-3.9,0-5.4,3.5-5.7,6H537.5z M542.5,71.2l-7.3,9.1H529l5.2-9.1H542.5z"/>
		<path fill="#FC6541" d="M561.7,75.6V84h6.6v6.7h-6.6v10.6c0,3.5,0.9,5.2,3.6,5.2c1.2,0,2.1-0.1,2.7-0.3l0.1,6.9
			c-1.2,0.4-3.4,0.8-5.9,0.8c-3,0-5.4-1-6.9-2.5c-1.7-1.7-2.5-4.5-2.5-8.7v-12h-3.9V84h3.9v-6.3L561.7,75.6z"/>
		<path fill="#FC6541" d="M580.5,101.6c0.3,3.8,4,5.6,8.3,5.6c3.1,0,5.6-0.4,8.1-1.2l1.2,6.2c-3,1.2-6.7,1.9-10.6,1.9
			c-9.9,0-15.7-5.8-15.7-14.9c0-7.5,4.7-15.7,14.8-15.7c9.5,0,13.1,7.4,13.1,14.7c0,1.6-0.2,2.9-0.3,3.6h-18.9L580.5,101.6
			L580.5,101.6z M591.2,95.3c0-2.2-1-6-5.1-6c-3.9,0-5.4,3.5-5.7,6H591.2z"/>
		<path fill="#FC6541" d="M605.2,93.3c0-3.7-0.1-6.7-0.2-9.4h7.9l0.4,4.1h0.2c1.2-1.9,4.2-4.7,9.1-4.7c6,0,10.5,4,10.5,12.6v17.4
			H624V97c0-3.8-1.4-6.4-4.6-6.4c-2.5,0-4,1.8-4.6,3.4c-0.2,0.6-0.3,1.4-0.3,2.3v16.9h-9.1V93.3C605.4,93.3,605.2,93.3,605.2,93.3z"
			/>
		<path fill="#FC6541" d="M662.4,112.6c-1.6,0.8-4.7,1.4-8.2,1.4c-9.5,0-15.5-5.8-15.5-15c0-8.6,5.9-15.6,16.8-15.6
			c2.4,0,5.1,0.4,7,1.2l-1.4,6.8c-1.1-0.5-2.7-0.9-5.1-0.9c-4.8,0-7.9,3.4-7.9,8.2c0,5.4,3.6,8.3,8,8.3c2.2,0,3.9-0.4,5.3-1
			L662.4,112.6z"/>
		<path fill="#FC6541" d="M674.5,101.6c0.3,3.8,4,5.6,8.3,5.6c3.1,0,5.6-0.4,8.1-1.2l1.2,6.2c-3,1.2-6.7,1.9-10.6,1.9
			c-9.9,0-15.7-5.8-15.7-14.9c0-7.5,4.7-15.7,14.8-15.7c9.5,0,13.1,7.4,13.1,14.7c0,1.6-0.2,2.9-0.3,3.6h-18.9L674.5,101.6
			L674.5,101.6z M685.2,95.3c0-2.2-1-6-5.1-6c-3.9,0-5.4,3.5-5.7,6H685.2z"/>
		<path fill="#FC6541" d="M699,105.4c1.7,1,5.2,2.2,7.8,2.2c2.8,0,3.9-0.9,3.9-2.4s-0.9-2.3-4.3-3.4c-6.1-2-8.4-5.3-8.4-8.8
			c0-5.5,4.7-9.7,11.9-9.7c3.4,0,6.5,0.8,8.3,1.7l-1.6,6.3c-1.3-0.7-3.9-1.7-6.4-1.7c-2.2,0-3.5,0.9-3.5,2.4c0,1.4,1.2,2.1,4.8,3.4
			c5.6,1.9,7.9,4.8,7.9,9c0,5.5-4.3,9.5-12.7,9.5c-3.8,0-7.3-0.9-9.5-2.1L699,105.4z"/>
	</g>
</g>
<g>
	<g id="texte_posture">
		<path fill="#FC6541" d="M405.4,876.5h9.1v25.6c0,11.5-5.5,15.5-14.4,15.5c-2.1,0-4.9-0.3-6.7-1l1-7.4c1.2,0.4,2.9,0.7,4.7,0.7
			c3.8,0,6.3-1.7,6.3-8V876.5z"/>
		<path fill="#FC6541" d="M428.8,905.2c0.3,3.8,4,5.6,8.3,5.6c3.1,0,5.6-0.4,8.1-1.2l1.2,6.2c-3,1.2-6.7,1.9-10.6,1.9
			c-9.9,0-15.7-5.8-15.7-14.9c0-7.5,4.7-15.7,14.8-15.7c9.5,0,13.1,7.4,13.1,14.7c0,1.6-0.2,2.9-0.3,3.6h-18.9V905.2z M439.6,899
			c0-2.2-1-6-5.1-6c-3.9,0-5.4,3.5-5.7,6H439.6z"/>
		<path fill="#FC6541" d="M465.6,897.5c0-3.9-0.1-7.1-0.2-9.9h7.9l0.4,4.1h0.1c2.2-3.1,5.5-4.8,9.8-4.8c6.4,0,12.2,5.6,12.2,15
			c0,10.7-6.8,15.7-13.4,15.7c-3.5,0-6.3-1.4-7.6-3.3h-0.1v14.6h-9.1L465.6,897.5L465.6,897.5z M474.7,904.5c0,0.7,0.1,1.3,0.2,1.9
			c0.6,2.4,2.7,4.3,5.3,4.3c3.9,0,6.3-3.3,6.3-8.3c0-4.7-2.1-8.2-6.2-8.2c-2.6,0-4.9,2-5.5,4.6c-0.1,0.5-0.2,1.1-0.2,1.6v4.1
			L474.7,904.5L474.7,904.5z"/>
		<path fill="#FC6541" d="M501.5,897.4c0-4.3-0.1-7.2-0.2-9.7h7.8l0.3,5.4h0.2c1.5-4.3,5.1-6.1,7.9-6.1c0.8,0,1.3,0,2,0.2v8.6
			c-0.7-0.1-1.4-0.3-2.5-0.3c-3.4,0-5.6,1.8-6.3,4.6c-0.1,0.6-0.2,1.3-0.2,2V917h-9.1L501.5,897.4L501.5,897.4z"/>
		<path fill="#FC6541" d="M541,917l-0.5-2.9h-0.2c-1.9,2.3-4.9,3.6-8.4,3.6c-6,0-9.5-4.3-9.5-9c0-7.7,6.8-11.3,17.2-11.3V897
			c0-1.6-0.8-3.8-5.4-3.8c-3,0-6.1,1-8.1,2.2l-1.7-5.8c2-1.2,6-2.6,11.4-2.6c9.8,0,12.9,5.8,12.9,12.7v10.2c0,2.8,0.1,5.5,0.5,7.1
			L541,917L541,917z M540,903.2c-4.8,0-8.5,1.1-8.5,4.6c0,2.4,1.5,3.5,3.6,3.5c2.2,0,4.1-1.5,4.7-3.4c0.1-0.5,0.2-1,0.2-1.6V903.2z"
			/>
		<path fill="#FC6541" d="M566.2,879.2v8.4h6.6v6.7h-6.6V905c0,3.5,0.9,5.2,3.6,5.2c1.2,0,2.1-0.1,2.7-0.3l0.1,6.9
			c-1.2,0.4-3.4,0.8-5.9,0.8c-3,0-5.4-1-6.9-2.5c-1.7-1.7-2.5-4.5-2.5-8.7v-12h-3.9v-6.7h3.9v-6.3L566.2,879.2z"/>
		<path fill="#FC6541" d="M587.5,879.5c0,2.5-1.9,4.6-4.9,4.6c-2.9,0-4.8-2-4.8-4.6s1.9-4.6,4.8-4.6
			C585.5,874.9,587.5,876.9,587.5,879.5z M578,917v-29.4h9.1V917H578z"/>
		<path fill="#FC6541" d="M613.8,913.4L613.8,913.4c-1.9,2.8-4.9,4.3-8.8,4.3c-6.4,0-12.2-5.6-12.2-14.9c0-10.5,6.7-15.8,13-15.8
			c3.8,0,6.5,1.4,8.2,4.1h0.1l0.2-3.5h8.8c-0.1,2.9-0.2,5.8-0.2,8.8v32.4h-9.1V913.4z M613.8,900c0-0.5,0-1-0.2-1.5
			c-0.5-2.4-2.5-4.4-5.3-4.4c-4.2,0-6.3,3.5-6.3,8.3c0,4.9,2.4,8.1,6.2,8.1c2.6,0,4.7-1.8,5.3-4.2c0.2-0.6,0.3-1.4,0.3-2V900z"/>
		<path fill="#FC6541" d="M657.9,907.5c0,3.8,0.1,7,0.2,9.4h-7.9l-0.4-4.1h-0.2c-1.1,1.8-3.9,4.8-9.2,4.8c-6,0-10.3-3.7-10.3-12.8
			v-17.3h9.1v15.8c0,4.3,1.4,6.9,4.6,6.9c2.5,0,4-1.7,4.5-3.2c0.2-0.5,0.3-1.2,0.3-1.9v-17.5h9.1v19.9L657.9,907.5L657.9,907.5z"/>
		<path fill="#FC6541" d="M672.2,905.2c0.3,3.8,4,5.6,8.3,5.6c3.1,0,5.6-0.4,8.1-1.2l1.2,6.2c-3,1.2-6.7,1.9-10.6,1.9
			c-9.9,0-15.7-5.8-15.7-14.9c0-7.5,4.7-15.7,14.8-15.7c9.5,0,13.1,7.4,13.1,14.7c0,1.6-0.2,2.9-0.3,3.6h-18.9L672.2,905.2
			L672.2,905.2z M683,899c0-2.2-1-6-5.1-6c-3.9,0-5.4,3.5-5.7,6H683z"/>
	</g>
</g>
<g id="fond_categorie">
	<path opacity="0.25" fill="#028283" enable-background="new    " d="M699.9,755.5H330.6c-50.5,0-91.4-40.9-91.4-91.4V282.2
		c0-50.5,40.9-91.4,91.4-91.4h369.2c50.5,0,91.4,40.9,91.4,91.4v381.9C791.2,714.7,750.4,755.5,699.9,755.5z"/>
	<path opacity="0.25" fill="none" stroke="#DADADA" stroke-width="3" stroke-miterlimit="10" enable-background="new    " d="
		M693.5,749H337.2c-50.5,0-91.4-40.9-91.4-91.4V288.9c0-50.5,40.9-91.4,91.4-91.4h356.2c50.5,0,91.4,40.9,91.4,91.4v368.7
		C784.9,708,744,749,693.5,749z"/>
	<path opacity="0.5" fill="#028283" enable-background="new    " d="M618.8,782l-345.3-92.5c-48.8-13.1-77.7-63.2-64.6-111.9
		l95.8-357.4c13.1-48.8,63.2-77.7,111.9-64.6L761.9,248c48.8,13.1,77.7,63.2,64.6,111.9l-95.8,357.4C717.7,766,667.5,795,618.8,782z
		"/>
	<path opacity="0.5" fill="none" stroke="#DADADA" stroke-width="3" stroke-miterlimit="10" enable-background="new    " d="
		M614.4,774l-333.1-89.3c-48.8-13.1-77.7-63.2-64.6-111.9L309,228c13.1-48.8,63.2-77.7,111.9-64.6L754,252.7
		c48.8,13.1,77.7,63.2,64.6,111.9l-92.4,344.9C713.2,758.2,663.2,787.2,614.4,774z"/>
	<path opacity="0.75" fill="#028283" enable-background="new    " d="M466.8,799L214.1,546.2c-35.7-35.7-35.7-93.6,0-129.3
		l261.6-261.6c35.7-35.7,93.6-35.7,129.3,0l252.8,252.8c35.7,35.7,35.7,93.6,0,129.3L596.2,799C560.5,834.7,502.5,834.7,466.8,799z"
		/>
	<path opacity="0.75" fill="none" stroke="#DADADA" stroke-width="3" stroke-miterlimit="10" enable-background="new    " d="
		M466.9,790L223.1,546c-35.7-35.7-35.7-93.6,0-129.3l252.5-252.5c35.7-35.7,93.6-35.7,129.3,0l243.9,243.9
		c35.7,35.7,35.7,93.6,0,129.3L596.2,790C560.5,825.7,502.6,825.7,466.9,790z"/>
	<path fill="#028283" d="M299.9,718.9l-92.5-345.3c-13.1-48.8,15.9-98.9,64.6-111.9l357.4-95.8c48.8-13.1,98.9,15.9,111.9,64.6
		L834,575.9c13.1,48.8-15.9,98.9-64.6,111.9l-357.4,95.8C363.1,796.5,313,767.7,299.9,718.9z"/>
</g>
<path fill="none" stroke="#DADADA" stroke-width="3" stroke-miterlimit="10" d="M304.5,711L215.3,378
	c-13.1-48.8,15.9-98.9,64.6-111.9l344.9-92.4c48.8-13.1,98.9,15.9,111.9,64.6l89.3,333.1c13.1,48.8-15.9,98.9-64.6,111.9
	l-344.9,92.4C367.7,788.8,317.6,759.9,304.5,711z"/>
<g>
	<g id="texte_titre_badge">
		<path fill="#FFFFFF" d="M342.6,596.2h-8.4v-7.6H360v7.6h-8.6v26.1h-8.8V596.2z"/>
		<path fill="#FFFFFF" d="M372.9,588.5v33.7h-8.8v-33.7H372.9z"/>
		<path fill="#FFFFFF" d="M385.4,596.2H377v-7.6h25.9v7.6h-8.6v26.1h-8.8v-26.1H385.4z"/>
		<path fill="#FFFFFF" d="M407,589c2.5-0.4,6.2-0.7,10.7-0.7c5.1,0,8.7,0.7,11.2,2.6c2.1,1.7,3.3,4.1,3.3,7.4c0,4.2-3.1,7.2-5.7,8.2
			v0.2c2.2,1,3.4,3.1,4.2,6c1,3.4,2.1,8.3,2.7,9.6h-9c-0.5-1-1.4-3.6-2.3-7.8c-0.9-4-2.1-4.9-4.8-4.9h-1.4v12.6h-8.8V589L407,589
			L407,589z M415.7,603.2h2.3c3.3,0,5.3-1.7,5.3-4.2s-1.6-4-4.6-4c-1.7,0-2.5,0.1-3,0.2L415.7,603.2L415.7,603.2z"/>
		<path fill="#FFFFFF" d="M457.9,608.7H446v6.2h13.3v7.4h-22.1v-33.7h21.4v7.4H446v5.4h11.9V608.7z"/>
		<path fill="#FFFFFF" d="M473.9,589c2.8-0.5,6.6-0.7,10.5-0.7c6.3,0,10.3,1.1,13.6,3.4c3.6,2.6,6,6.8,6,13c0,6.9-2.5,11.3-5.8,13.9
			c-3.6,2.9-9,4.2-15.5,4.2c-4.2,0-7.1-0.3-8.8-0.5V589z M482.8,615.5c0.5,0.1,1.3,0.1,1.9,0.1c5.7,0.1,10-3.1,10-10.7
			c0-6.6-3.8-9.7-9.1-9.7c-1.4,0-2.2,0.1-2.7,0.2L482.8,615.5L482.8,615.5z"/>
		<path fill="#FFFFFF" d="M517.5,588.5v19.1c0,5.1,1.7,8,5.2,8s5.2-2.6,5.2-8v-19.1h8.8v18.6c0,10.4-5.1,15.7-14.4,15.7
			c-9,0-13.8-5.1-13.8-15.9v-18.4L517.5,588.5L517.5,588.5z"/>
		<path fill="#FFFFFF" d="M552.7,589c2-0.4,6.4-0.7,10.4-0.7c4.7,0,7.5,0.3,10.1,1.7c2.6,1.2,4.4,3.7,4.4,6.9c0,2.8-1.5,5.6-5.4,7.1
			v0.1c4,1.1,6.5,4.2,6.5,8.2c0,3.2-1.5,5.7-3.7,7.4c-2.5,1.9-6.6,3-13.7,3c-4,0-6.9-0.3-8.7-0.5V589H552.7z M561.4,601.5h1.8
			c3.7,0,5.5-1.3,5.5-3.5c0-2-1.5-3.2-4.4-3.2c-1.5,0-2.3,0.1-2.9,0.2L561.4,601.5L561.4,601.5z M561.4,616c0.6,0.1,1.4,0.1,2.5,0.1
			c2.9,0,5.5-1.2,5.5-4.2c0-2.9-2.6-4-5.9-4h-2.1V616z"/>
		<path fill="#FFFFFF" d="M592.2,614.5l-1.9,7.8h-9.2l9.6-33.7h11.8l9.8,33.7h-9.6l-2.1-7.8H592.2z M599.5,607.8l-1.5-6.1
			c-0.5-1.9-1.1-4.7-1.6-6.6h-0.1c-0.5,2-1,4.8-1.5,6.7l-1.4,6L599.5,607.8L599.5,607.8z"/>
		<path fill="#FFFFFF" d="M616.7,589c2.8-0.5,6.6-0.7,10.5-0.7c6.3,0,10.3,1.1,13.6,3.4c3.6,2.6,6,6.8,6,13c0,6.9-2.5,11.3-5.8,13.9
			c-3.6,2.9-9,4.2-15.5,4.2c-4.2,0-7.1-0.3-8.8-0.5V589z M625.5,615.5c0.5,0.1,1.3,0.1,1.9,0.1c5.7,0.1,10-3.1,10-10.7
			c0-6.6-3.8-9.7-9.2-9.7c-1.4,0-2.2,0.1-2.7,0.2V615.5z"/>
		<path fill="#FFFFFF" d="M680,620.7c-2.5,0.9-7.1,1.9-11.4,1.9c-6.5,0-10.9-1.7-13.9-4.6c-3.1-3-4.7-7.3-4.7-12.2
			c0-11.7,8.6-17.7,19.3-17.7c4.5,0,7.9,0.8,9.6,1.7l-1.8,7.2c-1.9-0.8-4.1-1.4-7.9-1.4c-5.5,0-10,2.9-10,9.8c0,6.3,4,9.9,9.4,9.9
			c1.2,0,2.4-0.1,2.8-0.3v-5.8H667v-7H680L680,620.7L680,620.7L680,620.7z"/>
		<path fill="#FFFFFF" d="M706.2,608.7h-11.9v6.2h13.3v7.4h-22.1v-33.7H707v7.4h-12.6v5.4h11.9L706.2,608.7L706.2,608.7z"/>
	</g>
</g>
<g id="filet_2_theme">
	<path fill="none" stroke="#000000" stroke-width="5" stroke-miterlimit="10" d="M727.2,95.1c41.7,0,82,0,92.5,0
		c6.1,0,38.5,0.6,64.6,26.8c16.5,16.5,26.8,39.4,26.8,64.6v521.1c0,96.6-40.9,137.5-91.4,137.5H252.6c-50.5,0-91.4-40.9-91.4-91.4
		V544.9c0-0.6-0.5-1-1-1.1c-1.6-0.1-4.9-0.2-7.3-0.1c-7.7,0.1-111.2-0.1-117.6-0.1c-5.4-0.1-13.6-4.4-13.5-13.6
		c0.3-13.3-0.2-102.3-0.2-122c0-8.4,4.5-13.5,14.4-13.5c13.9,0,80.8-0.1,112.9-0.1c3.7,0,12.3,0,12.3-0.3c0-0.8,0-8.6,0-8.7
		c0-8.5,0-73.5,0-198.9c0-13.1,5.1-43,26.8-64.6c16.5-16.5,39.4-26.8,64.6-26.8c20.1,0,70.7,0,90.8,0c2,0,3.9,0,5.9,0"/>
	<circle fill="#FFFFFF" stroke="#1D1D1B" stroke-width="4" stroke-miterlimit="10" cx="875" cy="794.7" r="103.5"/>
</g>
<g id="picto_theme">
	<g id="g651" transform="translate(45.92612)">
		<path id="path9156" fill="none" stroke="#000000" stroke-width="2.3091" stroke-miterlimit="3.4636" d="M836.5,809.7l-3.9-10.6
			c-0.3-0.8-1-1.1-1.6-1l-6.7,1.3c-1.2-1.6-2.7-3.2-4.2-4.5l1.8-6.5c0.1-0.8-0.2-1.4-0.7-1.6l-10.4-4.8c-0.7-0.3-1.5,0-1.7,0.5
			l-3.8,5.6c-2-0.3-4-0.4-6.2-0.1l-3.3-6c-0.4-0.6-1.1-0.9-1.8-0.6l-10.6,3.9c-0.8,0.3-1.1,1-1,1.6l1.3,6.7
			c-1.7,1.3-3.2,2.7-4.5,4.2l-6.5-1.8c-1-0.7-1.5-0.3-1.9,0.4l-4.8,10.4c-0.3,0.7,0,1.5,0.5,1.7l5.6,3.8c-0.3,2-0.4,4-0.1,6.2
			l-6,3.3c-0.6,0.4-0.9,1.1-0.6,1.8l3.9,10.6c0.3,0.8,1,1.1,1.7,1l6.7-1.3c1.3,1.7,2.7,3.2,4.2,4.6l-1.8,6.5
			c-0.1,0.8,0.2,1.4,0.7,1.6l10.4,4.8c0.7,0.3,1.5,0,1.7-0.5l3.8-5.6c2.1,0.4,4.2,0.5,6.2,0.3l3.3,6c0.4,0.6,1.1,0.9,1.8,0.6
			l10.6-3.9c0.8-0.3,1.1-1,1-1.6l-1.3-6.7c1.7-1.3,3.3-2.7,4.6-4.2l6.5,1.8c0.8,0.1,1.4-0.2,1.6-0.7l4.8-10.4c0.3-0.7,0-1.5-0.5-1.7
			l-5.6-3.8c0.3-2,0.4-4,0.2-6.2l6-3.3C836.5,811,836.7,810.2,836.5,809.7"/>
		<path id="path9160" fill="none" stroke="#000000" stroke-width="2.3091" stroke-miterlimit="3.4636" d="M788.4,811
			c-3.1,6.7-0.1,14.8,6.6,18c6.7,3.1,14.8,0.1,18-6.6c3.1-6.7,0.1-14.8-6.6-18C799.5,801.2,791.5,804.2,788.4,811"/>
		<path id="path9164" fill="none" stroke="#000000" stroke-width="2.3091" stroke-miterlimit="3.4636" d="M871,766l-2.8,4.2
			c-1.4-0.2-3-0.3-4.5-0.2l-2.5-4.5c-0.4-0.6-1.1-0.9-1.8-0.6l-8.3,3.1c-0.8,0.3-1.1,1-1,1.7l1,5.1c-1.3,0.9-2.3,1.9-3.3,3.1
			l-4.8-1.4c-0.8-0.1-1.4,0.2-1.6,0.7l-3.7,8c-0.3,0.7,0,1.5,0.5,1.7l4.2,2.8c-0.2,1.4-0.3,3-0.2,4.5l-4.5,2.5
			c-0.6,0.4-0.9,1.1-0.6,1.8l3.1,8.3c0.3,0.8,1,1.1,1.6,1l5.1-1c0.9,1.3,1.9,2.3,3.1,3.3l-1.4,4.8c-0.1,0.8,0.2,1.4,0.7,1.6l8,3.7
			c0.7,0.3,1.5,0,1.7-0.5l2.8-4.2c1.5,0.3,3,0.3,4.5,0.2l2.5,4.5c0.4,0.6,1.1,0.9,1.8,0.6l8.3-3.1c0.8-0.3,1.1-1,1-1.7l-1-5.1
			c1.3-0.9,2.3-1.9,3.3-3.1l4.8,1.4c0.8,0.1,1.4-0.2,1.6-0.7l3.7-8c0.3-0.7,0-1.5-0.5-1.7l-4.2-2.8c0.2-1.4,0.3-3,0.2-4.5l4.5-2.5
			c0.6-0.4,0.9-1.1,0.6-1.8l-3-8.3c-0.3-0.8-1-1.1-1.6-1l-5.1,1c-0.9-1.3-1.9-2.3-3.1-3.3l1.4-4.8c0.1-0.8-0.2-1.4-0.7-1.6l-8-3.7
			C872,765.2,871.4,765.5,871,766"/>
		<path id="path9168" fill="none" stroke="#000000" stroke-width="2.3091" stroke-miterlimit="3.4636" d="M855,788.5
			c-2.5,5.4-0.1,11.9,5.3,14.4c5.4,2.5,11.9,0.1,14.4-5.3c2.5-5.4,0.1-11.9-5.3-14.4C864.2,780.7,857.7,783,855,788.5"/>
		<path id="path9172" fill="none" stroke="#000000" stroke-width="2.3091" stroke-miterlimit="3.4636" d="M829.7,737.7l-2.2,3.4
			c-1.2-0.1-2.2-0.2-3.3-0.1l-2-3.4c-0.4-0.6-1.1-0.9-1.8-0.6l-6.8,2.5c-0.8,0.3-1.1,1-1,1.6l0.7,3.9c-0.9,0.6-1.7,1.5-2.5,2.2
			l-3.9-1.2c-0.3-0.3-1-0.1-1.3,0.6l-3,6.6c-0.3,0.7,0,1.5,0.5,1.7l3.4,2.2c-0.1,1.2-0.2,2.2-0.1,3.3l-3.4,2
			c-0.6,0.4-0.9,1.1-0.6,1.8l2.5,6.8c0.3,0.8,1,1.1,1.7,1l3.9-0.7c0.6,0.9,1.5,1.7,2.2,2.5l-1.2,3.9c-0.1,0.8,0.2,1.4,0.7,1.6l6.6,3
			c0.7,0.3,1.5,0,1.7-0.5l2.2-3.4c1.2,0.1,2.2,0.2,3.3,0.1l2,3.4c0.4,0.6,1.1,0.9,1.8,0.6l6.8-2.5c0.8-0.3,1.1-1,1-1.6l-0.7-3.9
			c0.9-0.6,1.7-1.5,2.5-2.2l3.9,1.2c0.8,0.1,1.4-0.2,1.6-0.7l3-6.6c0.3-0.7,0-1.5-0.5-1.7l-3.4-2.2c0.1-1.2,0.2-2.2,0.1-3.3l3.4-2
			c0.6-0.4,0.9-1.1,0.6-1.8l-2.5-6.8c-0.3-0.8-1-1.1-1.6-1l-3.9,0.7c-0.6-0.9-1.5-1.7-2.2-2.5l1.2-3.9c0.1-0.8-0.2-1.4-0.7-1.6
			l-6.6-3C830.9,736.8,830.2,737,829.7,737.7"/>
		<path id="path9176" fill="none" stroke="#000000" stroke-width="2.3091" stroke-miterlimit="3.4636" d="M816.8,755.9
			c-2.1,4.5-0.2,10,4.5,12.1c4.7,2.2,10,0.2,12.1-4.5c2.2-4.7,0.2-10-4.5-12.1C824.2,749.2,818.9,751.4,816.8,755.9"/>
	</g>
</g>
<g id="picto_titre_badge">
	<g id="g6791" transform="translate(427.0015,362.0531)">
		<path id="path6789" fill="#FFFFFF" d="M211.6-28.8c0.3,1.9,0.5,3,0.7,4.1c1,7,0.7,14,0.1,21c-0.6,8.5-2.2,16.6-4.7,24.7
			c-3.8,12.2-9.6,23.4-18.3,32.9c-4.9,5.3-10.4,9.9-16.7,13.5c-6.9,4-14.4,5.9-22.1,7.8c-6.3,1.6-12.8,3.2-18.7,5.9
			c-9.2,4.2-10.8,11.1-8.5,19.3c1.9,7,5.2,13.5,7.9,20.4c0.4,1,0.9,1.9,1.3,2.9c-0.2,0.2-0.4,0.3-0.6,0.6c-1.3-1-2.6-1.9-3.8-3.1
			c-6.5-6.3-12.4-12.9-15-21.9c-2.7-9.3,0-17.4,5.6-24.7c6.9-9,16-15.8,24.9-22.7c8.5-6.5,16.6-13.3,24.8-20.1
			c1.5-1.3,2.7-3.1,4-4.7c-0.2-0.2-0.3-0.4-0.6-0.6c-1.9,1.1-3.9,2.2-5.8,3.5c-11.6,7.3-23.1,14.7-34.7,21.9
			c-3.3,2.1-7,3.8-10.6,5.6c-1.3,0.6-2.5,0.8-2.4-1.3c0.4-8.6,1.6-17.1,5.1-25.1c4.2-9.4,10.8-17.1,20.1-21.4
			c9.4-4.3,19.2-7.6,28.9-11.2c9.5-3.4,19-6.8,27-13.2c4.2-3.3,7.8-7.2,10.3-11.9C210.3-27.2,210.8-27.7,211.6-28.8"/>
	</g>
	<g id="g6795" transform="translate(143.617,309.6074)">
		<path id="path6793" fill="#FFFFFF" d="M298.1,60c3.3,3.3,6.3,6.9,9.9,9.8c13.8,11,27.8,21.9,41.6,32.9c10,7.9,19.7,16.3,26.9,27.1
			c9.8,14.7,9.7,31,0,45.8c-5.3,8.1-12.2,14.9-19.2,21.5c-0.6,0.6-1.5,1-2.8,1.1c0.5-1.1,0.8-2.3,1.4-3.3c4.7-8.8,9-17.9,11.5-27.6
			c1.4-5.4,2-10.9,0.7-16.5c-2-8.9-8.7-13.5-16.5-16.1c-9.1-3.1-18.4-5.6-27.8-7.6c-27.7-5.9-48.1-21.9-62.9-45.5
			c-8.4-13.3-13.8-28-17.4-43.3c-3.9-16.5-4.8-33.1-4.2-49.9c0.1-3,0.8-6,1.3-9.8c1,1.3,1.6,1.7,1.9,2.4
			c8.8,15.6,22.7,24.9,38.8,31.1c13.8,5.3,27.8,9.5,41.6,14.6c12.2,4.5,23.7,10.4,32.8,20.2c8,8.6,13.4,18.7,15.7,30.1
			c1.5,7.6,2.4,15.3,3.3,23c0.4,3.5-0.3,3.8-3.5,2.3c-17-7.9-32.7-18-48.3-28.3c-7.2-4.7-14.4-9.1-21.6-13.6
			c-0.8-0.5-1.6-0.8-2.4-1.2C298.7,59.4,298.4,59.8,298.1,60"/>
	</g>
	<g id="g6799" transform="translate(65.4546,150.0839)">
		<path id="path6797" fill="#FFFFFF" d="M322,330.4c64.5,0.8,123.3,10.2,174.9,29.7c14.1,5.3,26.5,11.7,39.7,17.6
			c5.3,2.4,3.8,4.1-1.8,5.5c-9,2.3-18.1,4.5-27,6.9c-5.1,1.4-8.2,0.6-11.8-1.5c-15.1-8.2-29.7-16.7-46.1-24.2
			c-32.9-14.9-71.7-24.5-115.7-28.3c-11.3-1-22.9-1-34.4-1.5c-1.8-0.1-3.8,0.2-5.5-0.1c-2.4-0.3-4.4-1.1-6.6-1.7
			c2-0.6,3.9-1.6,6-1.7c6.6-0.4,13.3-0.6,20-0.8C316.5,330.2,319.2,330.4,322,330.4"/>
	</g>
	<g id="g6803" transform="translate(235.3552,55.1964)">
		<path id="path6801" fill="#FFFFFF" d="M270.1,491.2c-10.8-1.3-21.8-2-32.2-3.8c-37.5-6.4-65.1-19-83.5-37
			c-1.5-1.5-1.8-3.3-2.6-4.9c3.1,0.1,6.3,0.1,9.3,0.3c38.2,4.2,67.4,15.6,91.7,30.8c6.7,4.2,12.6,8.7,19,13
			C271.2,490,270.6,490.7,270.1,491.2"/>
	</g>
	<g id="g6807" transform="translate(310.5638,57.8876)">
		<path id="path6805" fill="#FFFFFF" d="M247.2,486.5c-12.6,0.8-23.5,1.6-34.7,1.9c-2.3,0.1-5.5-1.6-7.1-2.9
			c-13.8-10.9-29.5-20.9-48.6-29.5c-24.3-10.9-52-17.8-84.2-19.7c-1.5-0.1-3.3,0.1-4.4-0.3c-2-0.8-3.6-1.9-5.4-2.8
			c2-0.5,4-1.5,6-1.5c20,0.3,39.4,2.4,58.2,5.8c48.5,8.8,85.6,25.4,117,46C244.8,484,245.4,484.9,247.2,486.5"/>
	</g>
	<g id="g6811" transform="translate(458.8952,130.3764)">
		<path id="path6809" fill="#FFFFFF" d="M201.9,363.8c-2.2,2.8-3.8,5.4-6.2,7.8c-8.5,8.7-18.9,16.4-32,23.1c-3.4,1.7-5.6,1.9-9-0.1
			c-6.5-4-13.5-7.8-20.4-11.5c-2.5-1.4-3.1-2.4,0.1-3.8c19.3-7.9,40.4-13.4,63.9-15.8C199.1,363.2,199.6,363.5,201.9,363.8"/>
	</g>
	<g id="g6815" transform="translate(282.366,134.4695)">
		<path id="path6813" fill="#FFFFFF" d="M255.8,356.8c2.9-1,4.3-1.6,5.8-1.9c38.4-9.1,78.5-13.1,120-12.4c4.6,0.1,9.2,0.3,13.6,0.8
			c2,0.2,3.6,1.4,5.4,2.2c-2,0.6-4,1.6-6.2,1.7c-9.8,0.6-19.6,0.8-29.4,1.4c-27.2,1.6-52.7,6.4-76.5,14c-5.5,1.7-9.7,2-15.1-0.1
			C268.4,360.4,262.6,359,255.8,356.8"/>
	</g>
	<g id="g6819" transform="translate(319.906,119.4833)">
		<path id="path6817" fill="#FFFFFF" d="M244.3,382.2c2.4-0.7,3.7-1,4.9-1.4c29.6-8.5,61.1-13.8,94.9-14.9c3.1-0.1,8.9,0.8,9.1,1.5
			c0.8,2.9-4.3,3.3-8.5,3.5c-28.8,1.7-54.3,7.4-77.7,16.2c-3.8,1.5-7.2,1.5-10.8-0.1C253.1,385.7,249.7,384.4,244.3,382.2"/>
	</g>
	<g id="g6823" transform="translate(274.1679,344.1267)">
		<path id="path6821" fill="#FFFFFF" d="M258.3,1.5c7.2,0,12.6,5.1,12.6,12c0.1,7-5.8,12.9-12.9,12.9c-7.2,0-12.9-5.8-12.9-12.9
			C245.3,6.4,250.6,1.5,258.3,1.5"/>
	</g>
</g>
<g id="tracy" opacity="0.25" enable-background="new    ">
	<path fill="#3DADA8" d="M261.1,42.9c-0.2,0.1-0.5,0.3-1,0.7c0,0.1,0,0.2,0,0.2c0,0.1,0,0.1,0,0.2c-0.1,0-0.2,0-0.4-0.1
		c-0.1,0-0.1,0.1-0.2,0.3c-0.4,0.1-0.9,0.3-1.4,0.6l-1.5,0.4c-0.1,0-0.2,0-0.2-0.1c-0.1,0.1-0.2,0.2-0.2,0.2
		c0.1,0.1,0.2,0.3,0.5,0.4c-0.1,0-0.2,0-0.3,0c-0.2,0-0.6,0-1-0.1c0.2,0,0.2-0.1,0.2-0.2h-0.3c-0.1,0.1-0.2,0.2-0.2,0.3
		c-0.1-0.1-0.3-0.2-0.5-0.2V46l-0.4,0.2c0.4,0,0.7,0,0.8,0.1c-0.1,0-0.2,0-0.2,0.1h-2.4c-0.1,0-0.1,0-0.1,0.1l-2.1,0.4
		c0.3,0,0.8,0.1,1.4,0.3c0-0.1,0.1-0.2,0.2-0.4h0.3l-0.1,0.1l0.3,0.1l0.2-0.2c0,0.1,0.1,0.1,0.2,0.3h0.8c-0.2,0-0.6,0.1-1,0.3
		c-0.1,0-0.2-0.1-0.3-0.2l-0.1,0.2c-0.1,0-0.2-0.1-0.4-0.1c-0.1,0-0.2,0.1-0.3,0.2c0.2,0.1,0.5,0.1,0.8,0.1c-0.1,0-0.3,0-0.6,0
		c-0.3,0-0.5,0.1-0.6,0.1c0,0,0,0,0,0c0,0,0-0.1,0.1-0.2h-0.5l0.1,0.1c0,0.2-0.1,0.2-0.3,0.2h-3.1c-0.2-0.1-0.2-0.2-0.3-0.2h-0.2
		l0.1,0.2c-0.1,0-0.2,0-0.3,0c-0.6,0-1.3,0.1-2.1,0.2c-0.1-0.1-0.2-0.2-0.2-0.2c0,0,0,0,0,0c-0.2-0.1-0.3-0.1-0.5-0.1
		c0,0-0.1,0-0.3,0c-0.2,0-0.2,0-0.3,0c-0.4,0-0.7-0.1-0.8-0.3h-0.2c0,0-0.1,0-0.3,0.1l-2.1-0.7c0-0.1,0.1-0.1,0.1-0.1
		c0.1,0,0.1,0,0.2,0.1h0.2c0.1,0,0.2,0,0.3-0.1c-0.2-0.1-0.4-0.2-0.5-0.2c-0.1,0-0.1,0-0.2,0.1c-0.1-0.1-0.4-0.2-1-0.4
		c0,0-0.1,0.1-0.1,0.2h-0.3c0-0.1-0.1-0.2-0.3-0.2c-0.2-0.1-0.4-0.2-0.4-0.2c0-0.1-0.1-0.2-0.1-0.2c0.1,0,0.1-0.1,0.1-0.1
		c-0.1-0.1-0.2-0.1-0.3-0.1c0.1,0,0.1,0,0.2-0.1l-0.2-0.1l-0.2,0.2c-0.1-0.1-0.1-0.1-0.2-0.1c-0.1-0.1-0.1-0.3-0.2-0.6l-0.9-0.4
		c0,0,0-0.1,0.1-0.2c-0.1,0-0.2-0.2-0.4-0.5c-0.1,0-0.4-0.4-0.7-1c-0.1-0.9-0.2-1.7-0.3-2.3l-0.2-1.5c0-3.9,2.3-8,7-12.3
		c0.4-0.1,0.8-0.3,1.1-0.6c0.4-0.4,0.7-0.5,0.9-0.5c0,0,0.1,0,0.1,0c0.1-0.2,0.3-0.4,0.6-0.8c0.6-0.3,1.4-0.8,2.5-1.4
		c0.2,0,0.4,0.1,0.4,0.1l1.3-0.9l4.2-1.2h1.3c0.1,0.2,0.2,0.4,0.3,0.7c0.1,0.1,0.3,0.3,0.5,0.5c-0.2,0.1-0.3,0.3-0.3,0.5
		c0,0.7,0,1,0,1.1c0,0,0,0,0-0.1c0.1,0.1,0.3,0.3,0.5,0.6c0,0-0.2,0.1-0.4,0.2v0c0,0,0,0.1,0.1,0.3l-0.5,0.4c0.1,0,0.3,0.1,0.6,0.2
		c-0.4,0.2-0.7,0.3-0.9,0.3c-0.1,0-0.1,0-0.2,0c0,0.1-0.1,0.1-0.2,0.2c-0.3,0-0.7,0.1-1.2,0.2c-0.1,0.1-0.7,0.4-1.7,0.8
		c-0.2,0.1-0.7,0.3-1.4,0.6c-0.5,0.4-1.6,0.9-3.2,1.8c-0.9,0.8-1.8,1.5-2.5,2c-0.6,0.6-1.5,1.7-2.8,3.2c-0.1,0.1-0.2,0.1-0.3,0.2
		c-0.2,0.1-0.3,0.3-0.3,0.5c0,0.1,0,0.2,0.1,0.3c-0.2,0.2-0.5,0.5-0.9,1v0c0,0,0,0.1,0.1,0.3l-0.5,1.7v1.1c0,0.1,0.1,0.3,0.4,0.5
		c0.3,0.2,0.5,0.4,0.6,0.4c0.1,0.1,0.3,0.2,0.5,0.4c0.1,0,0.9,0.3,2.4,0.7c0.6,0.1,1.2,0.1,1.9,0.2l2.7,0.1l3-0.2l4-0.5
		c0.1,0,0.3,0,0.4,0.1l1.2-0.4c0.1,0.1,0.1,0.1,0.2,0.1l1.8-0.5h0.6l0.2,0.2h1.1c0.1,0.1,0.1,0.2,0.1,0.3c0,0,0.1,0.1,0.3,0.1
		c0,0.1-0.1,0.1-0.1,0.2c0.1,0.1,0.2,0.2,0.2,0.2c-0.1,0.1-0.3,0.2-0.5,0.4c0,0,0,0.1,0,0.1c0,0,0,0,0.1,0h0.5v0
		c0,0-0.1,0.2-0.2,0.6C260.9,42.8,261,42.8,261.1,42.9z M254,45.6h-0.3v0c0,0-0.1,0.1-0.1,0.3C253.7,45.9,253.8,45.8,254,45.6z"/>
	<path fill="#3DADA8" d="M280.6,44.8c-0.3,0.3-0.6,0.8-1.1,1.4l-0.5-0.1c0,0.1-0.1,0.2-0.2,0.4c-0.1-0.1-0.3-0.2-0.6-0.4
		c0,0,0,0-0.1,0c-0.3,0-0.9-0.3-1.7-1c-0.2-0.4-0.6-1.1-1.4-2.1l-4,3c0,0,0,0.1,0.1,0.1c0.1,0.1,0.1,0.1,0.1,0.1
		c-0.1,0.2-0.5,0.4-1.3,0.8c-2.2,0.7-3.3,1-3.3,1c-1.6,0-2.8-0.6-3.7-1.8c-0.4-1.2-0.7-2-0.7-2.6c0-0.4,0.4-1.4,1.2-3.3
		c0.7-0.8,1.2-1.2,1.5-1.2c0.1-0.1,0.9-0.6,2.2-1.6c0.6-0.3,1.7-0.7,3.1-1.3c1.4-0.3,2.2-0.5,2.2-0.6h0c0.1,0,0.4,0,0.8,0.1
		c0.3,0,0.6,0,0.8,0c0.1,0,0.2,0,0.2,0c0.6,0.3,0.9,0.6,0.9,0.9c0,0,0,0.1,0,0.1c0.1,0.1,0.4,0.5,0.8,1.3c0.1,0,0.2,0,0.3,0
		c0.4,0,0.9,0.2,1.3,0.6c0.7,1.1,1.3,2,1.8,2.9C279.8,42.9,280.3,43.9,280.6,44.8z M273.1,40.2h-0.8c-0.3,0-0.9,0.2-1.9,0.6
		l-1.7,0.7c-0.6,0.4-1.3,0.9-2.1,1.6l-0.1,0.2l0.9,0.1c2.1-0.5,3.7-1.4,4.9-2.6C272.5,40.7,272.7,40.5,273.1,40.2z"/>
	<path fill="#3DADA8" d="M310.1,41.9c0,0.2-0.1,1.3-0.3,3c-0.3,0.9-0.4,1.4-0.4,1.4v0c-0.1,0.1-0.2,0.2-0.3,0.2c0,0,0,0-0.1,0
		l-0.3,0.5c-0.4,0-0.9-0.2-1.6-0.4c-0.1-0.2-0.4-0.5-0.8-0.8c-0.2-0.4-0.2-0.8-0.2-1.4v-4.1l-0.7-2c0,0,0,0,0,0c0,0-0.1,0-0.1-0.1
		c-0.2,0.1-0.5,0.2-0.9,0.3c-1.2,0.2-2.4,1.1-3.8,2.6c-0.1,0.1-1,1.4-2.8,4c-0.2,0.5-0.6,1.2-1.2,2.2c0,0,0,0,0,0
		c-0.1,0-0.3,0.1-0.8,0.2c-0.1,0-0.2-0.1-0.3-0.1c-0.1,0.1-0.3,0.2-0.6,0.4l-0.4-0.7c0-0.1-0.2-0.2-0.4-0.3H294c0,0-0.1,0-0.2,0.1
		c-0.1,0.1-0.1,0.1-0.2,0.1c0,0,0,0,0,0c0,0-0.1-0.2-0.4-0.5l-0.1-2.4l0.4-4.9c0-0.3-0.1-0.6-0.2-1.1h0c0,0-0.1,0-0.1-0.1
		c-0.2,0.1-0.6,0.2-1.1,0.4c-0.2,0.2-0.5,0.5-1,0.9c-1.2,0.8-2.3,2-3.2,3.5c-0.9,0.9-1.5,2-2.1,3.2c-0.1,0.1-0.2,0.2-0.2,0.3
		c0,0.1,0,0.1,0.1,0.2c0.1,0.1,0.1,0.1,0.1,0.2c0,0,0,0.1-0.1,0.1c-0.1,0-0.8,0-1.8,0c-0.5-0.7-0.9-1-1.5-1c0,0,0,0,0,0
		c0-0.2-0.1-0.4-0.2-0.8c0-0.1,0-0.3-0.1-0.6c0,0,0-0.1,0-0.1c0-0.2,0.1-0.3,0.2-0.4l-0.3-0.2c0-0.6,0.3-2,0.7-4.1
		c0.1-0.4,0.3-1.3,0.6-2.5c0.4-0.7,0.5-1.1,0.6-1.1v0c0-0.1,0-0.1,0-0.1c0.7-0.3,1-0.5,1-0.6c0.3,0,0.7,0.3,1.1,1
		c0.3,0.5,0.6,0.9,0.8,1.2c0,0,0,0,0,0c0.1,0,0.2-0.1,0.5-0.3c1.1-1,2-1.7,2.6-2.2c1.1-0.8,2-1.3,2.8-1.5c0.2,0,0.4-0.1,0.5-0.3
		c0.5-0.2,0.8-0.3,1-0.3c0.5,0,1.1,0.6,1.7,1.7c0.3,0.4,0.6,1.1,1,2l0.4,2.3c0.1-0.1,0.4-0.4,1-0.8c0.3-0.2,0.5-0.4,0.8-0.8
		c0.9-1,1.9-1.9,3.1-2.6c1.4-0.9,2.6-1.3,3.6-1.3c0.7,0,1.4,0.4,2.1,1.3c0.7,0.9,1.1,1.7,1.2,2.6c0.1,0.6,0.3,1.5,0.6,2.6
		L310.1,41.9z"/>
	<path fill="#3DADA8" d="M334.4,39.8c0,0,0,0.2-0.1,0.4c-0.1,0.2-0.2,0.4-0.2,0.6c0,0.5-0.3,1.2-0.9,1.9c-0.6,0.7-1.2,1.2-1.8,1.5
		c-0.5,0.2-0.8,0.3-0.9,0.5l-3.3,1.6l-3.1,1l-0.1-0.1l-5.3,1.3c-0.1-0.1-0.2-0.1-0.3-0.1c-0.1,0-0.2,0-0.3,0.1l-1.5-0.6l-0.4,3.1V52
		l-0.5,4.6l0.1,3.2l-0.2,2.7c0,0-0.1,0.1-0.3,0.3c-0.1,0.2-0.3,0.2-0.4,0.2c-0.1,0-0.2-0.1-0.3-0.3c0,0,0,0.1-0.1,0.1l-0.2,0.2
		c0,0,0,0,0,0c-0.2,0-0.3-0.1-0.5-0.3c-0.8-0.4-1.3-1-1.6-2.1c-0.2-1.5-0.3-2.3-0.3-2.4V55l0.5-6.1c0.1-0.8,0.6-4.1,1.7-9.8
		c0.3-0.8,0.7-1.2,1.2-1.2l0.6,0.1c0.4,0.2,0.7,0.6,0.9,1c0.3,0.6,0.5,1,0.5,1.1c0,0,0,0.2,0,0.7L317,44c0,0.2,0,0.4,0.1,0.7
		c1.2-0.5,2.7-1.1,4.4-1.8c1.8-0.3,3.7-0.9,5.7-2c0.1,0,0.2-0.1,0.4-0.1c0.4-0.3,0.7-0.5,1-0.5c0.4-0.3,0.9-0.8,1.7-1.6
		c-0.2-0.5-0.6-0.9-1.2-1.2c-1-0.6-1.5-0.9-1.6-0.9l-0.3,0.1l-0.6-0.3l-0.2,0c-0.1,0-0.2,0-0.2,0l-1.8-0.4l-3.7,0.1
		c-0.1,0-0.3,0-0.5,0.1c-0.4,0.1-0.7,0.1-0.7,0.1c-1.8,0.2-3.2,0.6-4.3,1.2c-0.3,0-0.8,0.3-1.6,0.7c-1,0.5-1.5,1-1.5,1.5
		c0,0.2,0.1,0.4,0.3,0.7c-0.1,0.1-0.1,0.1-0.3,0.1c-0.1,0.1-0.1,0.2-0.1,0.3c0,0,0,0.1,0,0.1c0,0-0.1,0-0.2,0c-0.1,0-0.1,0-0.2,0
		l-0.2,0.5c-0.1,0-0.2-0.1-0.4-0.2c0,0-0.1,0.1-0.2,0.2h-0.4c-0.1-0.1-0.2-0.2-0.3-0.4L310,41c-0.2-0.3-0.5-0.6-0.7-0.7
		c0-0.3-0.1-0.6-0.1-0.8l-0.1-0.3v-1.4l0.3-0.4c0,0,0-0.1,0-0.1c0-0.4,0.2-0.8,0.7-1.2c0.4-0.3,0.8-0.6,1.2-0.9
		c0.1-0.2,0.2-0.3,0.3-0.5c0.2,0.1,0.3,0.1,0.4,0.1l5.1-2.4l3.2-0.9c0.4,0.1,0.8,0.2,1.2,0.2c0,0,0.1,0,0.3-0.1
		c0.2-0.1,0.3-0.1,0.3-0.1h1.6c0,0,0.1-0.1,0.2-0.1c0.6,0.1,1.1,0.2,1.5,0.3c0.5,0,0.9,0,1.2,0.1c0.6,0.1,1.1,0.2,1.5,0.5
		c0,0,0.1,0,0.2,0s0.2,0,0.2,0c1.2,0,2.5,0.8,3.8,2.4c0.3,0.4,0.7,0.9,1.2,1.6C334.1,37.9,334.4,39.1,334.4,39.8z"/>
	<path fill="#3DADA8" d="M351.5,38.2c-0.1,0.6-0.4,1.7-0.7,3.3c-0.2,0.7-0.6,1.6-1.3,2.8c-0.7,1-1.3,1.7-1.6,2.1
		c-0.7,0.8-1.5,1.2-2.2,1.4c-0.3,0.1-0.7,0.3-1.3,0.5c-0.9,0.2-1.5,0.3-1.7,0.3c-2.3,0-4.3-1.8-6-5.3c-0.2-0.9-0.3-1.7-0.3-2.3
		c0-0.4,0.1-1,0.3-1.8c0.6-0.5,1-0.7,1.2-0.7h0c1.3,0.6,1.9,1.5,1.9,2.8c0,0.5,0.3,1.2,1,2c0.7,0.3,1.1,0.5,1.1,0.5h0.5
		c0.1,0,0.6-0.2,1.3-0.4c1-0.7,1.7-1.2,2.1-1.5c0.8-0.7,1.2-1.4,1.3-2.1c0.1-0.4,0.5-1.4,1-3c0.3-1.1,0.7-1.8,1-2.2c0,0,0.1,0,0.2,0
		c0.1,0,0.2,0,0.3,0h0.5c0.1,0.1,0.2,0.3,0.4,0.4c0.2,0.4,0.5,0.9,0.9,1.5c0,0.1,0,0.3,0,0.4c0,0.2,0,0.3,0,0.5c0,0.1,0,0.2,0,0.3
		C351.3,37.9,351.4,38,351.5,38.2z"/>
	<path fill="#3DADA8" d="M367.2,44.6c0,0.5-0.1,1-0.3,1.5c-0.2,0.3-0.9,0.7-2.1,1.2c-1.3,0.5-2.4,0.8-3.1,0.8
		c-0.1,0-0.4-0.1-1.2-0.2c-0.2,0-0.3,0-0.5,0c-0.2,0-0.5,0-0.7,0.1l-1.5-0.3h-1.3c-0.2,0-0.6-0.1-1.3-0.4c-0.6-0.2-0.9-0.3-1.1-0.4
		c-0.1-0.2-0.2-0.5-0.4-0.7c0-0.1,0-0.2,0.1-0.2l-0.2-0.2c0.1-0.2,0.1-0.4,0.1-0.6c0-0.3-0.1-0.5-0.2-0.7c0.7-0.3,1.2-0.4,1.4-0.4
		h1.1l1.6-0.2h1l2.5-0.3c0.1-0.1,0.2-0.2,0.2-0.2c0-0.1-0.2-0.2-0.4-0.3c-0.3-0.1-0.9-0.4-1.8-0.7c-3-1.3-4.7-2.7-5.1-4.3
		c-0.1-0.3-0.2-0.5-0.3-0.6v-1.6c0-0.1,0.1-0.3,0.3-0.7c0.1-1.1,2.1-1.6,6.1-1.6h0c0,0,0.9,0.1,2.6,0.3c1.2,0.4,2,0.8,2.4,1
		c0.8,0.5,1.4,1.1,1.8,1.9c0,0.1-0.1,0.2-0.2,0.4c-0.2,0.2-0.2,0.4-0.2,0.5l0.1,0.2l-0.8,0.5h-0.2c0,0,0.1,0,0.1,0
		c0-0.1-0.6-0.2-1.9-0.6c-1.3-0.2-2.1-0.3-2.3-0.3l-2.1,0.3c0,0,0.1,0.1,0.1,0.2c0.1,0.1,0.3,0.2,0.5,0.4
		C364.7,40,367.2,42.2,367.2,44.6z"/>
	<path fill="#3DADA8" d="M403.4,44.8c-0.3,0.3-0.6,0.8-1.1,1.4l-0.5-0.1c0,0.1-0.1,0.2-0.2,0.4c-0.1-0.1-0.3-0.2-0.6-0.4
		c0,0,0,0-0.1,0c-0.3,0-0.9-0.3-1.7-1c-0.2-0.4-0.6-1.1-1.4-2.1l-4,3c0,0,0,0.1,0.1,0.1c0.1,0.1,0.1,0.1,0.1,0.1
		c-0.1,0.2-0.5,0.4-1.3,0.8c-2.2,0.7-3.3,1-3.3,1c-1.6,0-2.8-0.6-3.7-1.8c-0.4-1.2-0.7-2-0.7-2.6c0-0.4,0.4-1.4,1.2-3.3
		c0.7-0.8,1.2-1.2,1.5-1.2c0.1-0.1,0.9-0.6,2.2-1.6c0.6-0.3,1.7-0.7,3.1-1.3c1.4-0.3,2.2-0.5,2.2-0.6h0c0.1,0,0.4,0,0.8,0.1
		c0.3,0,0.6,0,0.8,0c0.1,0,0.2,0,0.2,0c0.6,0.3,0.9,0.6,0.9,0.9c0,0,0,0.1,0,0.1c0.1,0.1,0.4,0.5,0.8,1.3c0.1,0,0.2,0,0.3,0
		c0.4,0,0.9,0.2,1.3,0.6c0.7,1.1,1.3,2,1.8,2.9C402.7,42.9,403.2,43.9,403.4,44.8z M396,40.2h-0.8c-0.3,0-0.9,0.2-1.9,0.6l-1.7,0.7
		c-0.6,0.4-1.3,0.9-2.1,1.6l-0.1,0.2l0.9,0.1c2.1-0.5,3.7-1.4,4.9-2.6C395.3,40.7,395.6,40.5,396,40.2z"/>
	<path fill="#3DADA8" d="M422,53.6c-0.3,2.1-0.9,3.9-1.9,5.4c-0.1,0.2-0.5,0.6-1.2,1.3c-0.2,0.1-0.6,0.4-1.1,0.8
		c-0.6,0.3-1.1,0.5-1.6,0.7c-0.3,0.2-0.8,0.4-1.4,0.8c-0.3,0.1-0.9,0.3-1.6,0.6l-4.9,0.8l-2.4,0.1c-0.1,0-0.2-0.1-0.5-0.1
		c-0.5-0.1-1.2-0.2-2.1-0.5c-0.8-0.2-1.3-0.3-1.5-0.5c-0.2-0.1-0.7-0.5-1.7-1.2c-0.1-0.3-0.4-0.5-0.8-0.8c-0.6-1.4-1-2.2-1-2.3v-2.2
		l1-1.6c0.3-0.2,0.8-0.6,1.5-1c0.1,0.1,0.2,0.2,0.2,0.4c0,0.1-0.1,0.2-0.2,0.4c0,0,0.1,0,0.2,0c0.1,0,0.1-0.1,0.1-0.3
		c0.2-0.1,0.4-0.2,0.8-0.2l0,0.5l-0.3,0.2c0,0.1,0.1,0.3,0.2,0.6c0.3-0.1,0.4-0.1,0.5-0.1c-0.1,0.2-0.3,0.6-0.6,1v0.3
		c0,0,0.1,0.1,0.1,0.2c0,0.1,0,0.1,0,0.2c0,0.3,0,0.6,0.1,1.1c0,0.1,0.1,0.2,0.3,0.5c0.6,0.5,1.1,0.8,1.2,0.9
		c0.4,0.2,1.1,0.3,2.1,0.3l1.4,0.1c0,0,0.2,0,0.5-0.1c0.3-0.1,0.5-0.1,0.5-0.1c0,0,0.1,0,0.2,0c0.1,0,0.2,0,0.2,0
		c0.3,0,0.9-0.1,1.8-0.2c0.5-0.2,1-0.5,1.6-0.7c1-0.3,1.8-0.7,2.6-1.2c0.2-0.1,0.6-0.4,1-0.8c1.6-1,2.4-2.9,2.4-5.7l-1-5.9l-0.1-0.1
		h-0.3l-4.2,1.3c-0.2-0.1-0.6-0.1-1.1-0.1c-0.1,0-0.2,0-0.3,0c-1,0-2.2-0.4-3.5-1.3c-1.6-1-2.4-2-2.4-3l0.2-0.6
		c0-0.1-0.1-0.3-0.1-0.4c0-0.7,0.4-1.6,1.1-2.5c0.7-0.9,1.2-1.3,1.7-1.4c0.9-0.5,1.9-0.8,3-1c0.1,0,1-0.2,2.8-0.4l2-0.1
		c0.6,0.2,1.2,0.3,1.9,0.5c0.7,0.2,1.4,0.5,1.9,0.9v0.4c0.5,0.2,0.8,0.6,0.9,1.3c0.1,0.1,0.2,0.3,0.4,0.6c-0.1,0-0.2,0-0.3,0.1
		c0,0.4,0,0.6,0.1,0.6c0,0,0,0,0,0c-0.1,0-0.2-0.1-0.3-0.1l-0.1,0.1c0.2,0.4,0.4,0.9,0.7,1.5c0,0,0,0.1,0,0.1c0,0.1,0,0.1,0,0.1
		c0.1,1,0.4,2.8,0.7,5.6l0.4,3.2L422,53.6z M401.5,54c0,0,0,0.1-0.1,0.1c0,0,0,0,0,0c0,0-0.1,0-0.1,0C401.4,54,401.5,54,401.5,54z
		 M416.9,39.9l-1.5-0.1l-3,0.2c0,0,0,0,0,0c0,0-0.8,0.3-2.4,0.9l-0.5,0.5c0,0.1,0,0.1,0.1,0.2c1.1,0.3,1.9,0.4,2.3,0.4
		c0.8,0,1.7-0.2,2.8-0.6C415.9,40.9,416.7,40.4,416.9,39.9z"/>
	<path fill="#3DADA8" d="M444.8,37c-0.1,0-0.2,0.1-0.4,0.2c0,0.1,0,0.2,0,0.2l0.3,0.3c-0.5,0.1-0.9,0.3-1.4,0.5l-2.8-0.6
		c-0.5,0-1.2,0.1-2,0.3c-1,0.3-1.9,0.6-2.7,0.8c-1.6,0.6-3,1.2-4.3,1.8c-1.7,0.8-2.8,2-3.2,3.6c0,0.1,0.1,0.5,0.2,1.2v0.5
		c-0.1,0.2-0.2,0.3-0.2,0.5c0,0.1,0,0.1,0,0.2c0,0.1,0.1,0.2,0.2,0.3l-1.5,1h-0.3c-0.2-0.1-0.5-0.3-0.8-0.6l-0.4,0.1
		c-0.1-0.2-0.3-0.5-0.5-0.8c-0.1-0.3-0.2-0.5-0.3-0.7l-0.2-1v-1.3c0,0,0-0.1,0-0.2c0-0.1,0-0.2,0-0.2v-1.4c0-0.4,0.2-1.1,0.5-2.1
		c0.4-1.3,0.8-1.9,1.2-1.9h0.5l0.5,0.5h0.2c0.3,0,1.2-0.5,2.8-1.5c1.1-0.5,2.8-1.2,5-2.2c0.1,0,0.6-0.2,1.5-0.6
		c0.2,0,0.7-0.1,1.4-0.3l1.1-0.2h1.5c1.1,0,2.3,0.7,3.7,2.1c0.1,0.1,0.1,0.2,0.1,0.4c0.3,0.3,0.4,0.5,0.4,0.8V37z"/>
	<path fill="#3DADA8" d="M451.2,42.6L451.2,42.6c0,0,0,0,0,0.2c0,0.2-0.1,0.5-0.1,0.8c0,0.4,0,0.8,0,1.4v1.6l-0.5,1.1l-0.3-0.1
		c-0.1,0.1-0.2,0.1-0.3,0.2c-0.1,0-0.2-0.1-0.3-0.2c-0.1,0-0.2,0.1-0.3,0.2c-0.1-0.1-0.5-0.2-1.3-0.4c-0.4-0.6-0.7-1.6-1-3.1
		c-0.1-0.3-0.1-0.6-0.1-1c0-0.1,0-0.3,0-0.4l0.1-2.7l0.4-1.8c0.3-0.3,0.5-0.5,0.5-0.8l0.8-0.2c0.1,0,0.3,0.1,0.5,0.2
		c0.3,0.4,0.8,0.9,1.4,1.5c0.3,0.6,0.5,1.1,0.5,1.6L451.2,42.6z M452,31.2c-0.1,0.1-0.1,0.2-0.2,0.3c0.1,0.3,0.2,0.5,0.2,0.7
		c-0.1,0.2-0.4,0.3-0.8,0.6c0-0.1-0.1-0.1-0.3-0.1c-0.2,0-0.3,0-0.3,0.1c-0.4-0.2-0.9-0.4-1.5-0.5c-0.4-0.9-0.6-1.4-0.6-1.6
		c0,0,0,0,0,0l0.2-1.7c0.1,0,0.3-0.2,0.5-0.4h1c0.3,0.2,0.7,0.5,1,1.1c0.3,0.1,0.5,0.3,0.6,0.6C451.8,30.8,452,31.1,452,31.2z"/>
	<path fill="#3DADA8" d="M470.5,43.2c0,0.2,0,0.3,0,0.5c0,0.2,0,0.4,0,0.7c-0.2,0.3-0.5,0.6-1,0.9c-0.7,0.4-1.2,0.6-1.2,0.7
		c0,0.2-0.1,0.3-0.4,0.5c-0.6,0.3-1.6,0.6-3,0.9c-0.6,0.3-1.1,0.5-1.5,0.5c-0.2,0-0.3,0-0.4,0c-0.2,0.2-0.6,0.3-1,0.3
		c-0.2,0-0.6,0.1-1,0.1l-1.8-0.2c0,0-0.1,0-0.2,0c-0.1,0-0.2,0-0.2,0l-1.1-0.3c-0.2,0-0.3,0-0.3,0c-0.2,0-0.6-0.1-1.1-0.3
		c-0.5-0.2-0.9-0.4-1-0.4c-1.1-1.2-1.6-2.3-1.6-3.3c0-0.5,0.2-1.2,0.5-2.1c0.3-0.9,0.6-1.4,0.8-1.6c1.6-1.7,4.2-3.3,7.8-4.9
		c0.2-0.1,0.6-0.3,1.2-0.6c0.1,0,0.6-0.2,1.6-0.5c0.8-0.3,1.5-0.4,2-0.4c0,0,0.1,0,0.3,0c0.2,0,0.4,0,0.4,0c0.1,0,0.3,0,0.4-0.1
		l0.7,2c-0.2,0.3-0.4,0.7-0.7,1l0,0.2v0c-0.1,0.1-1.5,0.7-4.3,2c-0.1,0.1-0.3,0.3-0.6,0.6c-0.8,0.3-1.7,0.6-2.8,1
		c-0.9,0.4-1.6,1-2,1.9c0,0,0,0.1,0,0.2c0.6,0.4,1.5,0.6,2.6,0.6l7-0.8l1.9,0.5L470.5,43.2z"/>
	<path fill="#3DADA8" d="M490.9,40.7c0,0.8-0.2,1.4-0.7,2c0,0.1-0.1,0.3-0.2,0.6c-0.4,0.5-0.9,1.1-1.6,2c-1.1,0.7-2.2,1.4-3.1,2
		c-2.3,0.8-4.1,1.2-5.3,1.2h-1c-0.1,0-0.2,0-0.4-0.1c0,0,0,0,0,0c-0.3,0-1.1-0.2-2.4-0.6c-0.6-0.3-1.4-0.9-2.4-1.8
		c-0.1-0.3-0.4-0.7-0.7-1.3c-0.3-1.2-0.5-2.1-0.5-2.8l0.1-1.4v-2.2c0-0.1,0.1-0.4,0.3-1c0.2-0.6,0.3-1,0.4-1.3
		c0.2-0.5,1-1.2,2.3-2.1c0.2-0.1,0.6-0.2,1.1-0.3c0.1-0.1,0.3-0.2,0.5-0.3c0,0,0.1,0.1,0.2,0.1l0.9-0.3c0.6-0.2,1.1-0.3,1.5-0.3h2.9
		c0.3,0,0.7,0.1,1.1,0.2c0,0,0,0,0.1,0c0.7,0,2.1,0.7,4.2,2v0.3c0.3,0.3,0.8,0.7,1.4,1c0.2,0.2,0.6,1.1,1.3,2.5
		C490.8,39.4,490.9,40,490.9,40.7z M487.4,39.7v-0.4c-0.8-1.3-1.6-2-2.2-2c0,0-0.1,0-0.1,0c0,0-0.1,0-0.1,0h-0.2
		c-0.2-0.3-0.6-0.5-1.4-0.5c-0.1,0-0.2,0-0.3,0l-1.7,0.1l-3.7,0.7l-0.2,0.3v0.5c0,0.1,0,0.3,0.1,0.5c0,0.1-0.1,0.2-0.3,0.3
		c0.1,0.2,0.1,0.3,0.2,0.4c-0.2,0.2-0.3,0.3-0.5,0.3c0,0-0.2,0.3-0.4,0.8c-0.3,0.5-0.4,0.8-0.4,1c0,0,0,0.1,0.1,0.3
		c0.3,0.4,0.8,0.7,1.5,1c0.7,0.3,1.3,0.4,1.9,0.4c1.2-0.2,1.9-0.3,2.1-0.3l2.5-1c1.2-0.5,2-0.9,2.4-1.3
		C487.2,40.4,487.4,40,487.4,39.7z"/>
	<path fill="#3DADA8" d="M499,24.6l-2.7,24c-0.3,0-0.7,0.1-1.1,0.2c-0.1,0-0.2-0.1-0.3-0.2l-0.2,0c-0.1,0-0.3,0-0.4,0
		c0,0-0.3-0.3-0.8-0.6c-0.1,0-0.2,0.1-0.4,0.3c-0.1-0.2-0.2-0.4-0.3-0.7c-0.2-1.4-0.3-2.2-0.3-2.5l1.3-10.9c0.4-3,0.8-6.8,1.2-11.4
		c0.1-0.3,0.2-0.9,0.5-1.8c0.2-0.7,0.4-1.2,0.8-1.5l0.7,0.1c0.3,0.3,0.6,0.5,0.8,0.5c0.1,0.1,0.3,0.5,0.7,1c0.3,1,0.5,1.6,0.5,1.8
		V24.6z"/>
	<path fill="#3DADA8" d="M517.4,44.6c-0.1,0.2-0.3,0.5-0.5,0.9c-0.1,0-0.2,0-0.3-0.1c-0.1,0-0.3,0.1-0.5,0.3
		c0.2,0.1,0.5,0.2,0.9,0.4c-0.1,0-0.4,0.3-0.8,0.6c-0.4,0.2-1.1,0.3-1.9,0.5c-0.3,0.2-0.4,0.4-0.5,0.7l-3.9,0.5
		c-2.8-0.2-5-0.8-6.6-1.9c-1.2-1.2-1.9-2.6-2.2-4.2c-0.1-0.2-0.2-0.4-0.2-0.5c0-1,0.4-2.2,1.3-3.6c0.9-1.5,2-2.5,3.1-3
		c0.1,0,0.2,0,0.5,0c0.5-0.4,1.3-0.8,2.6-1.1c1.1-0.3,2-0.4,2.8-0.4c0.7,0,1.5,0.2,2.3,0.7c0,0,0,0.2,0,0.4c0.2,0,0.4,0.1,0.7,0.2
		c0,0.1,0.1,0.2,0.2,0.3c0,0.4,0.1,0.9,0.4,1.5v0.7c0,0.1-0.1,0.2-0.2,0.3c0.1,0.1,0.1,0.2,0.1,0.3c0,0.2-0.1,0.5-0.3,0.8
		c0,0.1,0,0.3-0.1,0.6c-0.2,0.3-0.5,0.8-0.9,1.4l-3.3,2.4c0.3,0.2,1.2,0.3,2.7,0.3l3.8,0.1C516.7,43.9,517,44.2,517.4,44.6z
		 M510.2,37.8L510.2,37.8c0,0,0-0.1-0.1-0.2c-0.8,0.3-1.3,0.5-1.6,0.7c-0.7,0.4-1.3,0.8-1.5,1.3c0.1,0,0.1,0,0.2,0.1
		C508.6,39.1,509.6,38.5,510.2,37.8z"/>
	<path fill="#3DADA8" d="M557.8,39.8c0,0,0,0.2-0.1,0.4c-0.1,0.2-0.2,0.4-0.2,0.6c0,0.5-0.3,1.2-0.9,1.9c-0.6,0.7-1.2,1.2-1.8,1.5
		c-0.5,0.2-0.8,0.3-0.9,0.5l-3.3,1.6l-3.1,1l-0.1-0.1l-5.3,1.3c-0.1-0.1-0.2-0.1-0.3-0.1c-0.1,0-0.2,0-0.3,0.1l-1.5-0.6l-0.4,3.1V52
		l-0.5,4.6l0.1,3.2l-0.2,2.7c0,0-0.1,0.1-0.3,0.3c-0.1,0.2-0.3,0.2-0.4,0.2c-0.1,0-0.2-0.1-0.3-0.3c0,0,0,0.1-0.1,0.1l-0.2,0.2
		c0,0,0,0,0,0c-0.2,0-0.3-0.1-0.5-0.3c-0.8-0.4-1.3-1-1.6-2.1c-0.2-1.5-0.3-2.3-0.3-2.4V55l0.5-6.1c0.1-0.8,0.6-4.1,1.7-9.8
		c0.3-0.8,0.7-1.2,1.2-1.2l0.6,0.1c0.4,0.2,0.7,0.6,0.9,1c0.3,0.6,0.5,1,0.5,1.1c0,0,0,0.2,0,0.7l-0.3,3.1c0,0.2,0,0.4,0.1,0.7
		c1.2-0.5,2.7-1.1,4.4-1.8c1.8-0.3,3.7-0.9,5.7-2c0.1,0,0.2-0.1,0.4-0.1c0.4-0.3,0.7-0.5,1-0.5c0.4-0.3,0.9-0.8,1.7-1.6
		c-0.2-0.5-0.6-0.9-1.2-1.2c-1-0.6-1.5-0.9-1.6-0.9l-0.3,0.1l-0.6-0.3l-0.2,0c-0.1,0-0.2,0-0.2,0l-1.8-0.4l-3.7,0.1
		c-0.1,0-0.3,0-0.5,0.1c-0.4,0.1-0.7,0.1-0.7,0.1c-1.8,0.2-3.2,0.6-4.3,1.2c-0.3,0-0.8,0.3-1.6,0.7c-1,0.5-1.5,1-1.5,1.5
		c0,0.2,0.1,0.4,0.3,0.7c-0.1,0.1-0.1,0.1-0.3,0.1c-0.1,0.1-0.1,0.2-0.1,0.3c0,0,0,0.1,0,0.1c0,0-0.1,0-0.2,0c-0.1,0-0.1,0-0.2,0
		l-0.2,0.5c-0.1,0-0.2-0.1-0.4-0.2c0,0-0.1,0.1-0.2,0.2h-0.4c-0.1-0.1-0.2-0.2-0.3-0.4l-0.2,0.2c-0.2-0.3-0.5-0.6-0.7-0.7
		c0-0.3-0.1-0.6-0.1-0.8l-0.1-0.3v-1.4l0.3-0.4c0,0,0-0.1,0-0.1c0-0.4,0.2-0.8,0.7-1.2c0.4-0.3,0.8-0.6,1.2-0.9
		c0.1-0.2,0.2-0.3,0.3-0.5c0.2,0.1,0.3,0.1,0.4,0.1l5.1-2.4l3.2-0.9c0.4,0.1,0.8,0.2,1.2,0.2c0,0,0.1,0,0.3-0.1
		c0.2-0.1,0.3-0.1,0.3-0.1h1.6c0,0,0.1-0.1,0.2-0.1c0.6,0.1,1.1,0.2,1.5,0.3c0.5,0,0.9,0,1.2,0.1c0.6,0.1,1.1,0.2,1.5,0.5
		c0,0,0.1,0,0.2,0s0.2,0,0.2,0c1.2,0,2.5,0.8,3.8,2.4c0.3,0.4,0.7,0.9,1.2,1.6C557.5,37.9,557.8,39.1,557.8,39.8z"/>
	<path fill="#3DADA8" d="M574.9,38.2c-0.1,0.6-0.4,1.7-0.7,3.3c-0.2,0.7-0.6,1.6-1.3,2.8c-0.7,1-1.3,1.7-1.6,2.1
		c-0.7,0.8-1.5,1.2-2.2,1.4c-0.3,0.1-0.7,0.3-1.3,0.5c-0.9,0.2-1.5,0.3-1.7,0.3c-2.3,0-4.3-1.8-6-5.3c-0.2-0.9-0.3-1.7-0.3-2.3
		c0-0.4,0.1-1,0.3-1.8c0.6-0.5,1-0.7,1.2-0.7h0c1.3,0.6,1.9,1.5,1.9,2.8c0,0.5,0.3,1.2,1,2c0.7,0.3,1.1,0.5,1.1,0.5h0.5
		c0.1,0,0.6-0.2,1.3-0.4c1-0.7,1.7-1.2,2.1-1.5c0.8-0.7,1.2-1.4,1.3-2.1c0.1-0.4,0.5-1.4,1-3c0.3-1.1,0.7-1.8,1-2.2c0,0,0.1,0,0.2,0
		c0.1,0,0.2,0,0.3,0h0.5c0.1,0.1,0.2,0.3,0.4,0.4c0.2,0.4,0.5,0.9,0.9,1.5c0,0.1,0,0.3,0,0.4c0,0.2,0,0.3,0,0.5c0,0.1,0,0.2,0,0.3
		C574.8,37.9,574.8,38,574.9,38.2z"/>
	<path fill="#3DADA8" d="M598.8,38.6c0,0.2-0.3,1-1,2.4c-0.3,0.2-0.5,0.5-0.6,0.8c-1.2,1.1-2.7,2.1-4.4,3c-0.3,0.2-1.8,0.8-4.4,2
		c-0.4,0.1-0.9,0.2-1.7,0.4c-0.8,0.2-1.2,0.3-1.2,0.3s-0.1,0-0.3,0c-0.2,0-0.3,0-0.3,0c-0.3-0.3-0.6-0.5-0.9-0.5c-0.1,0-0.1,0-0.2,0
		c-0.1-0.1-0.2-0.3-0.4-0.6c-0.1,0.3-0.3,0.6-0.5,0.9c-0.2,0.1-0.3,0.1-0.5,0.1c-0.1,0-0.1,0-0.2,0l-0.3,0.3h-0.2
		c-0.1,0-0.3-0.1-0.9-0.4c-0.3,0.1-0.4,0.1-0.5,0.1c-0.5-0.4-0.8-0.8-0.8-1.1c-0.2-0.3-0.4-0.8-0.5-1.3c-0.2-0.3-0.3-0.6-0.3-0.9
		c0-0.2-0.1-0.5-0.1-0.9c-0.1-0.4-0.1-0.7-0.2-0.7v0.1v-1.6c-0.1-0.5-0.1-0.9-0.1-1.1c0-0.1,0-0.1,0-0.1c0-0.1,0-0.3,0-0.4
		c0-0.2,0-0.4,0.1-0.6c-0.1-0.2-0.4-0.4-1-0.6c-0.4-0.4-0.6-0.9-0.6-1.5c0-0.4,0.2-0.8,0.5-1.3c0.3-0.5,0.6-0.8,0.9-1l0.1-7.7
		c0-0.5,0.1-1.6,0.2-3.2c0.1-0.9,0.3-1.7,0.7-2.4c0.1-0.1,0.2-0.2,0.4-0.3c0.4-0.2,0.6-0.3,0.8-0.3c0,0,0.1,0,0.3,0.1
		c0.2,0.1,0.3,0.1,0.3,0.1c0.1,0.3,0.4,0.7,0.8,1.2c0.1,0.4,0.3,0.9,0.5,1.5c0,0.1,0,0.1,0,0.2c0,0.2,0,0.4,0,0.7
		c0,0.3,0.1,0.7,0.1,1.1l0.3,7.4c0,0.1,0.1,0.1,0.2,0.2c0.1,0,0.4-0.1,1.1-0.1l3.2-0.3l3.1,0.1c0.1,0,0.5,0,1.2,0.1
		c0.8,0.2,1.6,0.3,2.2,0.5c0.1,0.1,0.3,0.2,0.6,0.3c0.8,0.2,1.7,0.7,2.6,1.6c0.8,0.8,1.3,1.5,1.6,2.3
		C598.5,38.1,598.7,38.6,598.8,38.6C598.8,38.6,598.8,38.6,598.8,38.6z M593.7,38.6v-0.2c-0.2-0.3-0.6-0.6-1-0.9
		c-1.1-0.4-2.4-0.7-3.8-0.8c-0.2-0.1-0.4-0.1-0.4-0.1h0l-3.1,0.1c-0.5,0-1.5,0.3-2.9,0.8V38c0,0,0,0.1,0.1,0.2
		c0.1,0.1,0.1,0.2,0.1,0.2v1.6l0.6,4.1c0,0,0.1-0.1,0.2-0.1c0-0.1,0.1-0.2,0.2-0.3c0.8-0.5,2.1-1.1,4-1.7c1.8-0.7,2.9-1.2,3.3-1.5
		C591.3,40.5,592.2,39.8,593.7,38.6z"/>
	<path fill="#3DADA8" d="M606.7,24.6l-2.7,24c-0.3,0-0.7,0.1-1.1,0.2c-0.1,0-0.2-0.1-0.3-0.2l-0.2,0c-0.1,0-0.3,0-0.4,0
		c0,0-0.3-0.3-0.8-0.6c-0.1,0-0.2,0.1-0.4,0.3c-0.1-0.2-0.2-0.4-0.3-0.7c-0.2-1.4-0.3-2.2-0.3-2.5l1.3-10.9c0.4-3,0.8-6.8,1.2-11.4
		c0.1-0.3,0.2-0.9,0.5-1.8c0.2-0.7,0.4-1.2,0.8-1.5l0.7,0.1c0.3,0.3,0.6,0.5,0.8,0.5c0.1,0.1,0.3,0.5,0.7,1c0.3,1,0.5,1.6,0.5,1.8
		V24.6z"/>
	<path fill="#3DADA8" d="M613.5,42.6L613.5,42.6c0,0,0,0,0,0.2c0,0.2-0.1,0.5-0.1,0.8c0,0.4,0,0.8,0,1.4v1.6l-0.5,1.1l-0.3-0.1
		c-0.1,0.1-0.2,0.1-0.3,0.2c-0.1,0-0.2-0.1-0.3-0.2c-0.1,0-0.2,0.1-0.3,0.2c-0.1-0.1-0.5-0.2-1.3-0.4c-0.4-0.6-0.7-1.6-1-3.1
		c-0.1-0.3-0.1-0.6-0.1-1c0-0.1,0-0.3,0-0.4l0.1-2.7l0.4-1.8c0.3-0.3,0.5-0.5,0.5-0.8l0.8-0.2c0.1,0,0.3,0.1,0.5,0.2
		c0.3,0.4,0.8,0.9,1.4,1.5c0.3,0.6,0.5,1.1,0.5,1.6L613.5,42.6z M614.3,31.2c-0.1,0.1-0.1,0.2-0.2,0.3c0.1,0.3,0.2,0.5,0.2,0.7
		c-0.1,0.2-0.4,0.3-0.8,0.6c0-0.1-0.1-0.1-0.3-0.1c-0.2,0-0.3,0-0.3,0.1c-0.4-0.2-0.9-0.4-1.5-0.5c-0.4-0.9-0.6-1.4-0.6-1.6
		c0,0,0,0,0,0l0.2-1.7c0.1,0,0.3-0.2,0.5-0.4h1c0.3,0.2,0.7,0.5,1,1.1c0.3,0.1,0.5,0.3,0.6,0.6C614.2,30.8,614.3,31.1,614.3,31.2z"
		/>
	<path fill="#3DADA8" d="M632.9,43.2c0,0.2,0,0.3,0,0.5c0,0.2,0,0.4,0,0.7c-0.2,0.3-0.5,0.6-1,0.9c-0.7,0.4-1.2,0.6-1.2,0.7
		c0,0.2-0.1,0.3-0.4,0.5c-0.6,0.3-1.6,0.6-3,0.9c-0.6,0.3-1.1,0.5-1.5,0.5c-0.2,0-0.3,0-0.4,0c-0.2,0.2-0.5,0.3-1,0.3
		c-0.2,0-0.6,0.1-1,0.1l-1.8-0.2c0,0-0.1,0-0.2,0s-0.2,0-0.2,0l-1.1-0.3c-0.2,0-0.3,0-0.3,0c-0.2,0-0.6-0.1-1.1-0.3
		c-0.5-0.2-0.9-0.4-1-0.4c-1.1-1.2-1.6-2.3-1.6-3.3c0-0.5,0.2-1.2,0.5-2.1c0.3-0.9,0.6-1.4,0.8-1.6c1.6-1.7,4.2-3.3,7.8-4.9
		c0.2-0.1,0.6-0.3,1.2-0.6c0.1,0,0.6-0.2,1.6-0.5c0.8-0.3,1.5-0.4,2-0.4c0,0,0.1,0,0.3,0c0.2,0,0.4,0,0.4,0c0.1,0,0.3,0,0.4-0.1
		l0.7,2c-0.2,0.3-0.4,0.7-0.7,1l0,0.2v0c-0.1,0.1-1.5,0.7-4.3,2c-0.1,0.1-0.3,0.3-0.6,0.6c-0.8,0.3-1.7,0.6-2.8,1
		c-0.9,0.4-1.6,1-2,1.9c0,0,0,0.1,0,0.2c0.6,0.4,1.5,0.6,2.6,0.6l7-0.8l1.9,0.5L632.9,43.2z"/>
	<path fill="#3DADA8" d="M688.1,22.4c-0.1,0.2-0.1,0.5-0.2,1c0,0.5-0.1,0.8-0.1,0.9c0.1,0.2,0.2,0.3,0.2,0.5c0,0-0.1,0-0.2,0
		c-0.1,0-0.1,0-0.2,0c-0.1,0.3-0.3,0.7-0.7,1.2c0.1,0.2,0.1,0.2,0.1,0.2c-0.1,0.1-0.2,0.2-0.4,0.3l-2.1-0.2l-3,0.2c0,0,0,0,0,0
		c-0.1,0-0.1-0.1-0.2-0.2c0,0,0,0,0,0c-0.1,0-0.2,0.1-0.4,0.2c-0.1,0-0.2,0-0.5,0s-0.4,0-0.5,0c-0.4,0-0.7,0-0.9,0.1
		c0-0.1-0.1-0.2-0.2-0.3c0,0.1-0.2,0.1-0.4,0.1l-1.6,0.5c-0.1,0-0.3,0-0.6,0l-0.4,0c-0.1,0-0.2-0.1-0.3-0.2l-0.1,0.2
		c0,0-0.2,0-0.6,0.1c-0.3,0.1-0.5,0.1-0.5,0.1c0,0-0.2,0-0.6-0.1c-0.4-0.1-0.6-0.1-0.6-0.1l-1.9,0.2c-0.1,0.2-0.2,0.3-0.2,0.3
		c-0.1-0.1-0.2-0.1-0.3-0.3c-0.2,0.1-0.3,0.1-0.4,0.1c-0.1,0-0.2,0-0.3-0.1c-0.2,0.1-0.2,0.2-0.2,0.3h-0.9c0,0.1-0.1,0.1-0.1,0.2
		l-2.2,0.5c-0.4,1-0.8,3-1.4,6.1c0,0.2,0,0.3,0,0.5c0,0.1,0,0.2,0,0.3c-0.8,4.8-1.2,8.4-1.3,10.8c-0.1,0.1-0.2,0.1-0.4,0.1
		c-0.1,0.3-0.1,0.5-0.1,0.7c-0.4,0.2-0.6,0.4-0.8,0.6h0.1c-0.1-0.1-0.6-0.2-1.5-0.3c-0.2-0.4-0.2-0.6-0.3-0.6c0,0-0.1,0-0.3,0
		c-0.2-0.3-0.4-0.7-0.7-1.3l0.1-4l1.4-8.7c0.2-0.9,0.5-2,0.7-3V29c-0.1-0.1-0.1-0.2-0.2-0.3c-0.5,0.1-0.7,0.2-0.7,0.2h0
		c0,0-0.1,0-0.2-0.1c-0.1-0.1-0.1-0.1-0.1-0.1c0,0-0.3,0.1-0.7,0.2c-0.4,0.1-0.7,0.2-0.7,0.2c0,0-0.1,0-0.3,0c-0.2,0-0.3,0-0.3,0
		l-2,0.4c-0.2-0.1-0.4-0.1-0.4-0.1l-2.7,0.6l-2.7,0.3l-1.5,0c-0.4-0.3-0.7-0.5-1.1-0.6c-0.1-0.1-0.1-0.2-0.1-0.3
		c-0.1-0.1-0.2-0.2-0.3-0.2c0,0,0-0.1,0-0.1c0-0.2-0.1-0.4-0.3-0.7v-0.4l0.7-2.3c0.2-0.1,0.6-0.3,1-0.6c1.4-0.3,4.2-0.7,8.3-1.3
		l24.1-3h5.1c0,0.1,0.2,0.3,0.5,0.7c0.3,0.4,0.4,0.6,0.4,0.7c0,0.1,0,0.1,0,0.1C687.8,22.3,687.9,22.3,688.1,22.4z"/>
	<path fill="#3DADA8" d="M690.9,37c-0.1,0-0.2,0.1-0.4,0.2c0,0.1,0,0.2,0,0.2l0.3,0.3c-0.5,0.1-0.9,0.3-1.4,0.5l-2.8-0.6
		c-0.5,0-1.2,0.1-2,0.3c-1,0.3-1.9,0.6-2.7,0.8c-1.6,0.6-3,1.2-4.3,1.8c-1.7,0.8-2.8,2-3.2,3.6c0,0.1,0,0.5,0.2,1.2v0.5
		c-0.1,0.2-0.2,0.3-0.2,0.5c0,0.1,0,0.1,0,0.2c0,0.1,0.1,0.2,0.2,0.3l-1.5,1h-0.3c-0.2-0.1-0.5-0.3-0.8-0.6l-0.4,0.1
		c-0.1-0.2-0.3-0.5-0.5-0.8c-0.1-0.3-0.2-0.5-0.3-0.7l-0.2-1v-1.3c0,0,0-0.1,0-0.2c0-0.1,0-0.2,0-0.2v-1.4c0-0.4,0.2-1.1,0.5-2.1
		c0.4-1.3,0.8-1.9,1.2-1.9h0.5l0.5,0.5h0.2c0.3,0,1.2-0.5,2.8-1.5c1.1-0.5,2.8-1.2,5-2.2c0.1,0,0.6-0.2,1.5-0.6
		c0.2,0,0.7-0.1,1.4-0.3l1.1-0.2h1.5c1.1,0,2.3,0.7,3.7,2.1c0.1,0.1,0.1,0.2,0.1,0.4c0.3,0.3,0.4,0.5,0.4,0.8V37z"/>
	<path fill="#3DADA8" d="M710.4,44.8c-0.3,0.3-0.6,0.8-1.1,1.4l-0.5-0.1c0,0.1-0.1,0.2-0.2,0.4c-0.1-0.1-0.3-0.2-0.6-0.4
		c0,0,0,0-0.1,0c-0.3,0-0.9-0.3-1.7-1c-0.2-0.4-0.6-1.1-1.4-2.1l-4,3c0,0,0,0.1,0.1,0.1c0,0.1,0.1,0.1,0.1,0.1
		c-0.1,0.2-0.5,0.4-1.3,0.8c-2.2,0.7-3.3,1-3.3,1c-1.6,0-2.8-0.6-3.7-1.8c-0.4-1.2-0.7-2-0.7-2.6c0-0.4,0.4-1.4,1.2-3.3
		c0.7-0.8,1.2-1.2,1.5-1.2c0.1-0.1,0.9-0.6,2.2-1.6c0.6-0.3,1.7-0.7,3.1-1.3c1.4-0.3,2.2-0.5,2.2-0.6h0c0.1,0,0.4,0,0.8,0.1
		c0.3,0,0.6,0,0.8,0c0.1,0,0.2,0,0.2,0c0.6,0.3,0.9,0.6,0.9,0.9c0,0,0,0.1,0,0.1c0.1,0.1,0.4,0.5,0.8,1.3c0.1,0,0.2,0,0.3,0
		c0.4,0,0.9,0.2,1.3,0.6c0.7,1.1,1.3,2,1.8,2.9C709.7,42.9,710.2,43.9,710.4,44.8z M703,40.2h-0.8c-0.3,0-0.9,0.2-1.9,0.6l-1.7,0.7
		c-0.6,0.4-1.3,0.9-2.1,1.6l-0.1,0.2l0.9,0.1c2.1-0.5,3.7-1.4,4.9-2.6C702.4,40.7,702.6,40.5,703,40.2z"/>
	<path fill="#3DADA8" d="M729.1,43.2c0,0.2,0,0.3,0,0.5c0,0.2,0,0.4,0,0.7c-0.2,0.3-0.5,0.6-1,0.9c-0.7,0.4-1.2,0.6-1.2,0.7
		c0,0.2-0.1,0.3-0.4,0.5c-0.6,0.3-1.6,0.6-3,0.9c-0.6,0.3-1.1,0.5-1.5,0.5c-0.2,0-0.3,0-0.4,0c-0.2,0.2-0.5,0.3-1,0.3
		c-0.2,0-0.6,0.1-1,0.1l-1.8-0.2c0,0-0.1,0-0.2,0c-0.1,0-0.2,0-0.2,0l-1.1-0.3c-0.2,0-0.3,0-0.3,0c-0.2,0-0.6-0.1-1.1-0.3
		c-0.5-0.2-0.9-0.4-1-0.4c-1.1-1.2-1.6-2.3-1.6-3.3c0-0.5,0.2-1.2,0.5-2.1c0.3-0.9,0.6-1.4,0.8-1.6c1.6-1.7,4.2-3.3,7.8-4.9
		c0.2-0.1,0.6-0.3,1.2-0.6c0.1,0,0.6-0.2,1.6-0.5c0.8-0.3,1.5-0.4,2-0.4c0,0,0.1,0,0.3,0c0.2,0,0.4,0,0.4,0c0.1,0,0.3,0,0.4-0.1
		l0.7,2c-0.2,0.3-0.4,0.7-0.7,1l0,0.2v0c-0.1,0.1-1.5,0.7-4.3,2c-0.1,0.1-0.3,0.3-0.6,0.6c-0.8,0.3-1.7,0.6-2.8,1
		c-0.9,0.4-1.6,1-2,1.9c0,0,0,0.1,0,0.2c0.6,0.4,1.5,0.6,2.6,0.6l7-0.8l1.9,0.5L729.1,43.2z"/>
	<path fill="#3DADA8" d="M745.3,40.5c0,1.2-0.6,3.8-1.7,7.6c-0.2,0.6-1,2.9-2.5,7c0,0.1,0.1,0.1,0.2,0.1H741l-1.4,3.4l-1.6,5
		c-0.1,0.1-0.4,0.3-0.8,0.8c-0.1,0-0.2,0-0.5,0.1l-0.4,0.1c0,0-0.2,0-0.4-0.1c-0.3-0.3-0.8-0.9-1.5-1.6c-0.2-0.8-0.4-1.6-0.4-2.3
		l0.4-2.2l1.5-4.3l2.8-6.8c0-0.1-0.1-0.2-0.1-0.3c-1.1,0.3-1.9,0.5-2.3,0.5c-1.7,0-3-1.1-4-3.2c-0.8-1.7-1.2-3.5-1.2-5.4
		c0-0.5,0.1-1,0.3-1.6c0.2-0.2,0.5-0.5,0.9-0.9h0.2c0.5,0,1,0.4,1.5,1.2c0.2,0.3,0.4,0.7,0.5,1.3c0.5,2.4,0.9,3.6,1.3,3.6
		c0.8,0,2-0.6,3.4-1.8c1.2-1,2.2-2,3-3c0.2,0,0.4-0.1,0.6-0.3c0.2,0.1,0.5,0.1,0.8,0.1c0.2,0.2,0.4,0.5,0.8,0.9
		c0.1,0,0.2,0.1,0.3,0.1C745.1,39,745.3,39.7,745.3,40.5z"/>
	<path fill="#3DADA8" d="M787.4,22.6c-0.1,0.3-0.3,0.9-0.4,1.6c-0.2,0.3-0.4,0.8-0.8,1.5c-0.5,0.6-0.8,1.3-1,1.9
		c-0.1,0.1-0.4,0.6-1.1,1.6c-0.7,1.4-1.3,2.5-2,3.3l-2.6,5.3l-2.3,3.8c-0.1,0.1-0.1,0.3-0.1,0.5c-0.8,1.4-1.8,3.1-3,5.2
		c-0.1,0.3-0.3,0.4-0.4,0.5l0.1,0.3c-0.2,0.2-0.3,0.2-0.5,0.2c-0.2,0.3-0.3,0.5-0.4,0.7c-0.1,0-0.2,0-0.6,0c-0.3,0-0.5,0.1-0.5,0.1
		l-0.1-0.1l-1.3-0.4c-1.2-1.5-2.2-3.3-3-5.6c-0.3-0.9-0.9-2.7-1.7-5.3c0-0.1-0.1-0.3-0.1-0.7c-0.1-0.1-0.1-0.2-0.2-0.3
		c0-0.1-0.2-1-0.7-2.5c-0.4-1.4-1-4-1.7-7.6l0.6-2.7c0.3-0.1,0.5-0.3,0.8-0.5h0.3c0.2,0,0.6,0.4,1.3,1.2c0.6,0.9,1,2,1.4,3.3
		l1.1,3.9l3.5,10c0.6-0.6,1.3-1.7,2.2-3.1c0.9-1.5,1.8-3,2.7-4.5c0.2-0.4,0.8-1.2,1.6-2.6c0.1-0.2,0.1-0.3,0.1-0.4
		c0.1-0.2,0.3-0.4,0.6-0.8c1-1.6,2.5-4.4,4.6-8.6c0.3-0.4,0.7-1,1.4-1.9c0.1,0,0.2-0.1,0.4-0.3c0,0,0.1,0,0.1,0c0.1,0,0.3,0,0.4-0.1
		c0,0.1,0,0.3,0.1,0.5c0.2,0.1,0.5,0.2,0.8,0.2L787,21c0.1,0,0.2,0.1,0.4,0.2c0,0.1,0,0.3,0,0.5C787.4,22,787.4,22.3,787.4,22.6z"/>
	<path fill="#3DADA8" d="M794.8,42.6L794.8,42.6c0,0,0,0,0,0.2c0,0.2-0.1,0.5-0.1,0.8c0,0.4,0,0.8,0,1.4v1.6l-0.5,1.1l-0.3-0.1
		c-0.1,0.1-0.2,0.1-0.3,0.2c-0.1,0-0.2-0.1-0.3-0.2c-0.1,0-0.2,0.1-0.3,0.2c-0.1-0.1-0.5-0.2-1.3-0.4c-0.4-0.6-0.7-1.6-1-3.1
		c0-0.3-0.1-0.6-0.1-1c0-0.1,0-0.3,0-0.4l0.1-2.7l0.4-1.8c0.3-0.3,0.5-0.5,0.5-0.8l0.8-0.2c0.1,0,0.3,0.1,0.5,0.2
		c0.3,0.4,0.8,0.9,1.4,1.5c0.3,0.6,0.5,1.1,0.5,1.6L794.8,42.6z M795.7,31.2c-0.1,0.1-0.1,0.2-0.2,0.3c0.1,0.3,0.2,0.5,0.2,0.7
		c-0.1,0.2-0.4,0.3-0.8,0.6c0-0.1-0.1-0.1-0.3-0.1c-0.2,0-0.3,0-0.3,0.1c-0.4-0.2-0.9-0.4-1.5-0.5c-0.4-0.9-0.6-1.4-0.6-1.6
		c0,0,0,0,0,0l0.2-1.7c0.1,0,0.3-0.2,0.5-0.4h1c0.3,0.2,0.7,0.5,1,1.1c0.3,0.1,0.5,0.3,0.6,0.6C795.5,30.8,795.6,31.1,795.7,31.2z"
		/>
	<path fill="#3DADA8" d="M817.7,37c-0.1,0-0.2,0.1-0.4,0.2c0,0.1,0,0.2,0,0.2l0.3,0.3c-0.5,0.1-0.9,0.3-1.4,0.5l-2.8-0.6
		c-0.5,0-1.2,0.1-2,0.3c-1,0.3-1.9,0.6-2.7,0.8c-1.6,0.6-3,1.2-4.3,1.8c-1.7,0.8-2.8,2-3.2,3.6c0,0.1,0,0.5,0.2,1.2v0.5
		c-0.1,0.2-0.2,0.3-0.2,0.5c0,0.1,0,0.1,0,0.2c0,0.1,0.1,0.2,0.2,0.3l-1.5,1h-0.3c-0.2-0.1-0.5-0.3-0.8-0.6l-0.4,0.1
		c-0.1-0.2-0.3-0.5-0.5-0.8c-0.1-0.3-0.2-0.5-0.3-0.7l-0.2-1v-1.3c0,0,0-0.1,0-0.2c0-0.1,0-0.2,0-0.2v-1.4c0-0.4,0.2-1.1,0.5-2.1
		c0.4-1.3,0.8-1.9,1.2-1.9h0.5l0.5,0.5h0.2c0.3,0,1.2-0.5,2.8-1.5c1.1-0.5,2.8-1.2,5-2.2c0.1,0,0.6-0.2,1.5-0.6
		c0.2,0,0.7-0.1,1.4-0.3l1.1-0.2h1.5c1.1,0,2.3,0.7,3.7,2.1c0.1,0.1,0.1,0.2,0.1,0.4c0.3,0.3,0.4,0.5,0.4,0.8V37z"/>
	<path fill="#3DADA8" d="M835.7,44.6c-0.1,0.2-0.3,0.5-0.5,0.9c-0.1,0-0.2,0-0.3-0.1c-0.1,0-0.3,0.1-0.5,0.3
		c0.2,0.1,0.5,0.2,0.9,0.4c-0.1,0-0.4,0.3-0.8,0.6c-0.4,0.2-1.1,0.3-1.9,0.5c-0.3,0.2-0.4,0.4-0.5,0.7l-3.9,0.5
		c-2.8-0.2-5-0.8-6.6-1.9c-1.2-1.2-1.9-2.6-2.2-4.2c-0.1-0.2-0.2-0.4-0.2-0.5c0-1,0.4-2.2,1.3-3.6c0.9-1.5,2-2.5,3.1-3
		c0.1,0,0.2,0,0.5,0c0.5-0.4,1.3-0.8,2.6-1.1c1.1-0.3,2-0.4,2.8-0.4c0.7,0,1.5,0.2,2.3,0.7c0,0,0,0.2,0,0.4c0.2,0,0.4,0.1,0.7,0.2
		c0,0.1,0.1,0.2,0.2,0.3c0,0.4,0.1,0.9,0.4,1.5v0.7c0,0.1-0.1,0.2-0.2,0.3c0.1,0.1,0.1,0.2,0.1,0.3c0,0.2-0.1,0.5-0.3,0.8
		c0,0.1,0,0.3-0.1,0.6c-0.2,0.3-0.5,0.8-0.9,1.4l-3.3,2.4c0.3,0.2,1.2,0.3,2.7,0.3l3.8,0.1C835,43.9,835.3,44.2,835.7,44.6z
		 M828.5,37.8L828.5,37.8c0,0,0-0.1-0.1-0.2c-0.8,0.3-1.3,0.5-1.6,0.7c-0.7,0.4-1.3,0.8-1.5,1.3c0.1,0,0.1,0,0.2,0.1
		C827,39.1,827.9,38.5,828.5,37.8z"/>
</g>
</svg>
