<?xml version="1.0" encoding="utf-8"?>
<!-- Generator: Adobe Illustrator 27.4.1, SVG Export Plug-In . SVG Version: 6.00 Build 0)  -->
<svg version="1.1" id="Calque_1" xmlns="http://www.w3.org/2000/svg" xmlns:xlink="http://www.w3.org/1999/xlink" x="0px" y="0px"
	 viewBox="0 0 1000 1000" enable-background="new 0 0 1000 1000" xml:space="preserve">
<circle cx="109" cy="30.9" r="1.3"/>
<g id="logo">
	
		<g id="g883_00000022539221150303535710000012577670282461929904_" transform="matrix(0.94456457,0,0,0.94456457,10.968378,31.18083)">
		<g id="g2828_00000171696707967573187200000003861866410656769187_">
			<g id="g32_00000012470246598759000750000011345678251396794009_">
				<g>
					<g id="g2830_00000147216620090965507800000015131937843293734299_">
						<g id="g2836_00000138573249127852964640000007795465304216835220_" transform="translate(427.0015,362.0531)">
							<path id="path2838_00000179611919407770736170000005572243517571327650_" fill="#0099FF" d="M-275.4-356.2
								c2.4,15.7-3,34.2-17.5,42.5c-16.1,7.8-29.8,1.5-18,24.9c-0.1,0.1-0.2,0.2-0.3,0.2c-23.9-19.2,6.1-29.7,18.2-43
								c-0.1-0.1-0.2-0.2-0.2-0.3c-7.7,4.4-14.9,9.8-22.9,13.7c-0.6,0.3-1.1,0.3-1.1-0.6c0.2-8.1,3.4-17,11.4-20.5
								C-295.4-344.2-281.5-345.2-275.4-356.2"/>
						</g>
						<g id="g2840_00000151519121191915560580000013807043178792810383_" transform="translate(143.617,309.6074)">
							<path id="path2842_00000058565123737901383970000011303555799292898996_" fill="#97D123" d="M-80.4-287.6
								c17.8,18.2,60.2,34.7,25.4,61.1c23.2-43.5-23.4-17.7-42.1-51.6c-8.3-13.5-11.2-30-9.1-45.5c10.7,19.6,37.2,15.5,51.8,30.2
								c6.4,6.3,7.7,15,8.5,23.5c1.7,6.2-31-17.1-34.1-18C-80.2-287.9-80.3-287.7-80.4-287.6"/>
						</g>
						<g id="g2844_00000035489690301249952040000003686994366910632093_" transform="translate(65.4546,150.0839)">
							<path id="path2846_00000026142188087656289550000005365780029706677692_" fill="#336633" d="M-26.7-79.1
								C9.9-78.5,40-72.8,69.8-58.2c2.4,1,1.7,1.8-0.8,2.4c-4,1-8.1,2-12.1,3.1c-2.3,0.6-3.7,0.2-5.3-0.6
								c-6.8-3.6-13.3-7.4-20.7-10.7c-18.4-8.5-44.4-13.1-67.5-13.2c-1.9,0.2-3.7-0.2-5.4-0.8C-37.2-79.6-31.8-78.8-26.7-79.1"/>
						</g>
						<g id="g2848_00000170958630105484673390000005179589353395938983_" transform="translate(235.3552,55.1964)">
							<path id="path2850_00000051369547442575571340000007629012325295842726_" fill="#F9A72B" fill-opacity="0.9804" d="
								M-143.5,44.9c-19.1-1.5-44.4-6.8-53.2-20.2c22.3,1,38.8,8.6,53.9,19.5C-143.1,44.4-143.3,44.7-143.5,44.9"/>
						</g>
						<g id="g2852_00000003070772560924131070000015064573491751975856_" transform="translate(310.5638,57.8876)">
							<path id="path2854_00000103239456135586455770000018070281958382022323_" fill="#339933" d="M-195.3,41.4
								c-5.7,0.3-10.6,0.7-15.6,0.8c-1,0-2.5-0.7-3.2-1.3c-6.2-4.8-13.3-9.2-21.9-13c-10.9-4.8-23.4-7.9-37.8-8.7
								c-1.8,0.2-3-0.6-4.4-1.4C-249.8,15.6-215.2,26.7-195.3,41.4"/>
						</g>
						<g id="g2856_00000094593353856558934710000008448669540992617364_" transform="translate(458.8952,130.3764)">
							<path id="path2858_00000085235496936482419190000006022033728257513601_" fill="#FF9933" fill-opacity="0.9804" d="
								M-297.3-53.4c-4.4,6-9.8,9.8-17.1,13.6c-1.5,0.8-2.5,0.9-4,0c-2.9-1.8-6.1-3.4-9.2-5.1C-333.4-47.3-300.4-54.5-297.3-53.4"/>
						</g>
						<g id="g2860_00000048488434270573758610000001544392588597544632_" transform="translate(282.366,134.4695)">
							<path id="path2862_00000072972256618881377470000011231874001594268837_" fill="#336633" d="M-175.9-58.7
								c18.1-5.1,36.9-6.5,56.5-6.3c2.9,0.2,6-0.2,8.6,1.3c-0.9,0.2-1.8,0.7-2.8,0.7c-16,0.4-33.1,2-47.6,6.8
								C-166.5-54.4-170.3-57.5-175.9-58.7"/>
						</g>
						<g id="g2864_00000125584444432075455300000012340257352462951334_" transform="translate(319.906,119.4833)">
							<path id="path2866_00000087411332584606865660000005665633993601472692_" fill="#339933" d="M-201.7-39.1
								c14.3-4.1,28.8-6.7,44.9-7.2c1.4-0.1,4,0.3,4.1,0.6c0.3,1.3-1.9,1.5-3.8,1.6c-12.9,0.7-24.4,3.3-34.9,7.2
								C-195.4-35.6-197.5-37.8-201.7-39.1"/>
						</g>
						<g id="g2868_00000096740042981786078030000006680820221215785391_" transform="translate(274.1679,344.1267)">
							<path id="path2870_00000092448873560858500550000005256059467813953430_" fill="#666666" d="M-170.2-332.7
								c7.7,0,7.2,11-0.1,11C-177.8-321.7-178.1-333-170.2-332.7"/>
						</g>
					</g>
				</g>
			</g>
		</g>
	</g>
</g>
<g>
	<g>
		<path fill="none" stroke="#000000" stroke-width="5" stroke-miterlimit="10" d="M190.6,605.8"/>
		<g>
			<path d="M170.7,617l6.2-9.7l4.9,3.1l-6.2,9.7L170.7,617z"/>
			<path d="M153.1,609.1l3.7-10.9l5.5,1.9l-3.7,10.9L153.1,609.1z"/>
			<path d="M133.9,595.2h5.8v11.5h-5.8V595.2z"/>
			<path d="M111.4,600l5.5-1.9l3.7,10.9l-5.5,1.9L111.4,600z"/>
			<path d="M91.8,610.3l4.9-3.1l6.2,9.7L98,620L91.8,610.3z"/>
			<path d="M184.5,643.2l1.5-1.9l-1.6-1.8c-0.2-0.2-5.3-6.1-13.7-12c-11.2-7.9-22.9-12.1-34-12.1c-11,0-22.8,4.2-33.9,12.1
				c-8.4,5.9-13.5,11.8-13.7,12l-1.6,1.9l1.6,1.9c0.2,0.2,5.3,6.1,13.7,12c11.2,7.9,22.9,12.1,33.9,12.1c5.5,0,11.2-1,16.9-3
				c0.4,0.7,0.9,1.3,1.4,1.9l14.3,14.3l12.2-12.2l-12-12C178.9,650,184.3,643.5,184.5,643.2L184.5,643.2z M147,645.8
				c-5.6,5.6-14.8,5.6-20.4,0c-2.7-2.7-4.2-6.3-4.2-10.2s1.5-7.5,4.2-10.2c2.8-2.8,6.5-4.2,10.2-4.2s7.4,1.4,10.2,4.2
				c2.7,2.7,4.2,6.3,4.2,10.2S149.7,643.1,147,645.8z M106.3,650.7c-5.1-3.6-8.9-7.2-11-9.3c2.1-2.1,5.9-5.7,11-9.3
				c3.6-2.5,8.2-5.3,13.5-7.4c-2.1,3.2-3.2,7-3.2,10.9c0,5.4,2.1,10.5,5.9,14.3c3.9,3.9,9.1,5.9,14.3,5.9c4.3,0,8.5-1.3,12.1-4
				l4.6,4.6c-0.3,0.7-0.6,1.4-0.7,2.2c-5.4,2-10.8,3.1-16,3.1C124.4,661.6,113.4,655.6,106.3,650.7L106.3,650.7z M169.4,672.3
				l-10.2-10.2c-1.1-1.1-1.1-3,0-4.1s3-1.1,4.1,0l10.2,10.2L169.4,672.3z M165.1,652.3c-2.4-1.2-5.2-1.2-7.6,0l-4.6-4.6
				c2.6-3.5,4-7.7,4-12.1c0-3.9-1.1-7.7-3.2-10.9c5.3,2.1,9.9,4.9,13.5,7.4c5.1,3.6,9,7.2,11,9.3C176,643.9,171.5,648.3,165.1,652.3
				z"/>
		</g>
		<g>
			<g>
				<g>
					<path stroke="#000B13" stroke-width="2" stroke-miterlimit="10" d="M147,650l4.1-4.1l8.2,8.1l-4.1,4.1L147,650z"/>
				</g>
			</g>
			<g id="Vision_00000159434954778496346150000002869562380102048386_">
				<g>
					<g>
						<path fill="#028283" stroke="#000B13" stroke-width="3" stroke-miterlimit="10" d="M169.5,680.5l-14.3-14.2
							c-2.8-2.7-3.8-8.4,0-12.2c3.1-3.1,8-3.4,11.4-0.7c12.4,12.3,15.7,15.5,15.1,14.9L169.5,680.5z"/>
					</g>
				</g>
			</g>
			<g>
				<g>
					<g>
						<g>
							<path fill="#000B13" stroke="#000B13" stroke-width="2" stroke-miterlimit="10" d="M122.5,650c-7.9-7.9-7.9-20.6,0-28.5
								c7.6-7.6,21-7.6,28.6,0c7.9,7.9,7.9,20.6,0,28.5S130.4,657.9,122.5,650L122.5,650z"/>
						</g>
					</g>
				</g>
			</g>
			<path fill="#000B13" stroke="#000B13" stroke-width="2" stroke-miterlimit="10" d="M136.8,615.8v40.1c5.2,0,10.4-2,14.3-5.9
				c7.9-7.9,7.9-20.6,0-28.5C147.3,617.7,142,615.8,136.8,615.8L136.8,615.8z"/>
		</g>
		<ellipse fill="#FFFCFF" stroke="#FFFCFF" stroke-width="5" stroke-miterlimit="10" cx="137" cy="635.8" rx="11.8" ry="11.6"/>
		<ellipse fill="none" stroke="#FC6541" stroke-width="4" stroke-miterlimit="10" cx="137" cy="635.8" rx="5.9" ry="5.8"/>
	</g>
	<g opacity="0.5">
		<g>
			<path fill="#FC6541" d="M150.8,293.1l19.3,18.6l3.7,3.6l1.4,1.3c0.5,0.5,1.1,0.4,1.6,0l3.8-3.9l3.5-3.6c1.5-1.6,1.5-4.1-0.1-5.7
				l-3.4-3.3l-18.7-18c-1.6-1.5-4.1-1.5-5.7,0.1l-7.3,7.6c-0.5,0.5-0.4,1.1,0,1.6L150.8,293.1z"/>
		</g>
		<g>
			<path opacity="0.65" fill-rule="evenodd" clip-rule="evenodd" fill="#FFBC85" enable-background="new    " d="M124.1,294.3
				l-20.8,19.9c0.7,5.5,1.7,10.7,5.1,13.6l28.2,22.8l3.4,2.6c5.1,3.9,10-1.6,6.1-5.6c-0.1-0.1-0.1-0.1-0.2-0.2
				c1.3,1.1,2.8,1.4,4.1,1.2c2.8-0.5,4.8-3.5,2.2-6.3c5.1,4.1,9.4-2.4,5.5-6c4.5,1.4,9.4-4.4,4.7-9.3l-0.1-0.1l-11.6-17.4l-15.6-10
				L124.1,294.3z"/>
		</g>
		<g>
			<path fill-rule="evenodd" clip-rule="evenodd" fill="#FFE5C1" d="M136.1,351.1c4.3-4.6-2-9.9-5.5-6.8l-3.7,3.6l-0.1,0.1
				c-3.2,3.2,2.5,10.3,7.3,5.3L136.1,351.1z"/>
		</g>
		<g>
			<path fill-rule="evenodd" clip-rule="evenodd" fill="#FFE5C1" d="M124.1,337.9l-3.9,4.1l0,0c-2,2.1-0.6,5.3,1.8,6.5
				c1.5,0.7,3.3,0.8,4.9-0.7l4.2-0.1l-0.4-3.6l0.6-0.5c4.2-4-1.9-10.9-6.6-6.4L124.1,337.9z"/>
		</g>
		<g>
			<path fill-rule="evenodd" clip-rule="evenodd" fill="#FFE5C1" d="M117.1,332.2l-3.7,3.9l-0.6,0.6c-3.6,3.8,2.9,10,6.6,6l0.7-0.7
				c0.1-0.1,4-0.5,4.5-0.6l-0.1-4.1l1.3-1.3c4.4-4.6-2.4-10.6-6.6-6.2L117.1,332.2z"/>
		</g>
		<g>
			<path fill-rule="evenodd" clip-rule="evenodd" fill="#FFE5C1" d="M108.4,327.8l-1.2,1.4c-3.8,4.2,1.9,10.9,6.2,7l3.6-0.6l0.2-3.4
				c3.5-3.9-2.6-11-7.4-5.8L108.4,327.8z"/>
		</g>
		<g>
			<path fill="#028283" d="M113.7,282.5l-17.2,16.6l-4.9,4.7c-1.6,1.5-1.7,4.1-0.1,5.7l7.3,7.6c0.5,0.5,1.1,0.5,1.6,0l2.9-2.8
				l20.8-19.9l2.6-2.5c0.5-0.5,0.5-1.1,0-1.6l-7.3-7.6C117.8,281,115.3,281,113.7,282.5L113.7,282.5z"/>
		</g>
		<g>
			<path opacity="0.8" fill-rule="evenodd" clip-rule="evenodd" fill="#F5A96C" enable-background="new    " d="M146.3,311.2
				l-5.2,1.2l2.1,2.1l15.8,15.7l0.1,0.1c1.9,2.1,2.2,4.2,1.6,5.9c3.1-1.2,5.1-5.4,1.6-9.2l-0.1-0.1l-4.8-4.7L146.3,311.2z"/>
		</g>
		<g opacity="0.8">
			<path fill-rule="evenodd" clip-rule="evenodd" fill="#F5A96C" d="M124.1,294.3l-3.4,3.2l10.4,5.1l3.8-3L124.1,294.3z"/>
		</g>
		<g>
			<path fill-rule="evenodd" clip-rule="evenodd" fill="#FFE5C1" d="M134.9,299.6l-3.8,3l-3.6,2.8c-9.1,7-1.6,13.9,3.8,11.6l6.1-3.6
				l3.7-0.8l5.2-1.2l11,11l4.8,4.7c3-1.1,7.2-4.3,11.8-11.7l-23-22.3l-4.1,3.3c-0.7,0.6-0.5,0.5-1.3,0.4c-3.1-0.1-7.1,0.2-9.4,2
				L134.9,299.6z"/>
		</g>
		<g>
			<path fill-rule="evenodd" clip-rule="evenodd" fill="#FED1A3" d="M134.9,310.8l-6.1,3.6c-1.7,0.7-3.5,0.6-5.1-0.2
				c1.3,2.5,4.7,3.8,7.5,2.6l6.1-3.6l3.7-0.8l5.1-1.2c-2.4-2.1-2.8-2.3-7.7-1.2L134.9,310.8z"/>
		</g>
		<g>
			<path fill-rule="evenodd" clip-rule="evenodd" fill="#FED1A3" d="M170.2,311.7c-4,6.5-7.9,9.8-10.8,11.2
				c-0.3,0.2-0.7,0.3-0.9,0.4l3.6,3.6c3-1.1,7.2-4.3,11.8-11.7L170.2,311.7z"/>
		</g>
		<g>
			<path fill-rule="evenodd" clip-rule="evenodd" fill="#FED1A3" d="M105.8,332.3c0,3.6,4.2,6.7,7.5,3.8l2.3-2.4l1.4-1.5
				c1.4-1.6,1.2-3.8,0.2-5.4c0,0.9-0.3,1.9-1,2.7l-2.4,2.6l-1.2,1.3C110.1,335.6,107.2,334.5,105.8,332.3L105.8,332.3z"/>
		</g>
		<g>
			<path fill-rule="evenodd" clip-rule="evenodd" fill="#FED1A3" d="M111.9,340.4c0.8,2.9,4.9,5.1,7.6,2.3l0.7-0.7l0,0l3.9-4.1
				c0.2-0.2,0.3-0.3,0.4-0.5l1.3-1.3c2.3-2.4,1.5-5.3-0.6-6.8c0.4,1.3,0.1,2.9-1.2,4.2l-1.3,1.3c-0.2,0.1-0.3,0.3-0.4,0.5l0,0
				l-3.9,4.1l0,0l-0.7,0.7C115.9,342.1,113.6,341.7,111.9,340.4L111.9,340.4z"/>
		</g>
		<g>
			<path fill-rule="evenodd" clip-rule="evenodd" fill="#FED1A3" d="M126.9,347.9l2.9-2.7l0.8-0.8l0.6-0.5c2.2-2.2,1.6-5.1-0.3-6.7
				c0.4,1.4,0.1,3-1.2,4.3l-0.6,0.5l-1.5,1.4l-2.2,2.2l-0.1,0.1c-1.6,1.5-3.5,1.4-4.9,0.7c-0.4-0.2-0.7-0.5-1-0.7
				c0.4,1.3,1.3,2.4,2.5,3.1C123.4,349.3,125.2,349.4,126.9,347.9L126.9,347.9z"/>
		</g>
		<g>
			<path fill-rule="evenodd" clip-rule="evenodd" fill="#FED1A3" d="M136.1,351.1c2.2-2.3,1.7-4.8,0.2-6.3c0,1-0.5,2.2-1.5,3.2
				l-2.1,2.2c-2.5,2.7-5.3,1.9-6.9,0.1c0,3.3,4.4,7,8.1,3.1L136.1,351.1z"/>
		</g>
		<g>
			<path d="M146.1,349.1c-0.4,0-0.7-0.1-0.9-0.4l-2.9-2.7c-0.6-0.6-0.7-1.5-0.1-2.1c0.6-0.6,1.5-0.7,2.1-0.1l2.9,2.7
				c0.6,0.6,0.7,1.5,0.1,2.1C146.8,348.9,146.4,349.1,146.1,349.1z"/>
		</g>
		<path d="M185.1,302.2L163,281c-1-1-2.4-1.5-3.9-1.5s-2.8,0.7-3.8,1.7l-7.4,7.5c-0.9,1-0.9,2.6,0.1,3.6l0.6,0.6l-3,2.4
			c-0.1,0-0.2,0-0.3,0c-4.7-0.2-8.1,0.7-10.3,2.3l-0.4,0.3l-8.2-4l1.1-1c0.5-0.5,0.7-1.1,0.7-1.8c0-0.7-0.3-1.3-0.7-1.9l-7.3-7.6
			c-1-1-2.3-1.7-3.8-1.7s-2.8,0.5-3.9,1.5l-21.8,21.3c-2.2,2.1-2.2,5.5-0.2,7.7l7.3,7.6c0.5,0.6,1.1,0.7,1.9,0.7
			c0.7,0,1.3-0.3,1.8-0.7l0.8-0.8c0.7,3.9,1.7,7.9,4.1,10.6l-0.3,0.4c-2.6,2.8-1.8,6.6,0.3,8.8c1.1,1.2,2.5,1.8,3.9,1.9
			c-0.2,1.8,0.7,3.6,2,4.9c1.2,1.1,2.7,1.8,4.3,1.8c0.4,0,0.7,0,1.2-0.1c0.2,1.3,0.9,2.5,1.8,3.5c1.1,1.1,2.6,1.9,4.3,1.9
			c0.2,0,0.4,0,0.5,0c0,0.3,0.1,0.7,0.2,0.9c0.6,2.2,2.4,4.2,4.6,4.8c0.4,0.1,0.8,0.2,1.4,0.2c1.3,0,2.9-0.5,4.6-2.2l1.6-1.7
			l2.3,1.8c1.5,1.2,3.1,1.7,4.4,1.7c1.7,0,3.2-0.7,4.1-1.9c0.9-1,1.4-2.5,1.2-4.1c1.8,0.1,3.5-0.6,4.6-1.8c0.8-0.8,1.3-2.1,1.3-3.3
			c1.9,0.2,3.5-0.6,4.5-1.8c1.1-1.4,1.7-3.5,1-5.4c1.7-0.4,3.3-1.5,4.3-3.1c1.1-1.9,1.6-4.6-0.2-7.3c2.6-1.4,6-4.3,9.7-9.9l0.1,0.1
			c0.5,0.5,1.1,0.7,1.8,0.7s1.3-0.3,1.9-0.7l7.3-7.6C187.3,307.8,187.2,304.4,185.1,302.2L185.1,302.2z M108.2,330.1l2.5-2.7
			c1-1.1,2.2-1.6,3.3-1.3c1.1,0.3,2.2,1.3,2.5,2.5c0.2,0.6,0.4,1.8-0.6,2.7l0,0l-3.6,3.7c-1.5,1.3-3,0.7-3.9-0.2
			C107.2,333.7,106.7,331.7,108.2,330.1L108.2,330.1z M114.3,341.5c-0.2-0.2-2.1-2.1-0.5-3.8l0,0l6.4-6.7c0.7-0.8,1.6-1.1,2.2-1.1
			c0.3,0,0.5,0,0.7,0.1c1.1,0.3,2.2,1.2,2.4,2.2c0.3,1,0,2.1-0.9,2.9l-1.3,1.4c-0.1,0.1-0.1,0.2-0.2,0.2l-4.8,5
			C117,343.3,115.2,342.4,114.3,341.5L114.3,341.5z M121.6,346.7c-0.8-0.8-1.6-2.5-0.5-3.6l0,0l3.9-4.1c0,0,0,0,0.1-0.1l0,0l0.3-0.3
			c0.9-0.9,2.1-1.3,3.1-1.1c1.1,0.3,2.2,1.2,2.5,2.4c0.2,0.7,0.2,1.9-0.8,2.9l-0.5,0.5l0,0l-0.1,0.1l-3.6,3.5l0,0l-0.1,0.1
			C123.9,348.7,122,347,121.6,346.7L121.6,346.7z M133,352.3c-1,1-2.1,1.5-3.1,1.2c-1.1-0.3-2.2-1.4-2.5-2.6
			c-0.1-0.6-0.2-1.3,0.4-1.9l0.1-0.1l3.7-3.6c1.1-0.9,2.7-0.5,3.6,0.5c0.5,0.5,1.8,2.2-0.2,4.3L133,352.3z M162.1,333.3
			c-0.7,1.2-2.2,2.2-3.8,1.8l-5.5-5.1c-0.6-0.6-1.5-0.5-2.1,0.1s-0.5,1.5,0.1,2.1l5.8,5.3l0,0l0,0c1.4,1.3,1.3,3,0.5,3.9
			c-0.9,1.1-2.4,1.1-4-0.2l-5.7-5.3c-0.6-0.6-1.5-0.5-2.1,0.1s-0.5,1.5,0.1,2.1l5.7,5.3c1,1.1,1.1,2.2,0.3,3c-0.9,1-2.9,1.3-4.6-0.1
			c-0.6-0.5-1.5-0.5-2,0.1c-0.6,0.6-0.5,1.5,0.1,2c1.6,1.5,1.3,3,0.6,3.8c-0.8,1-2.6,1.3-4.6-0.2l-2.3-1.8c1.2-2.4,0.5-4.9-1.1-6.5
			c-0.9-0.9-2.2-1.6-3.5-1.8c0.2-0.9,0.2-1.9,0-2.9c-0.6-2.2-2.4-4-4.6-4.5c-0.3-0.1-0.6-0.1-0.8-0.1c0.3-1,0.3-2.1,0-3.2
			c-0.7-2.1-2.4-3.7-4.5-4.2c-1.6-0.4-3.2-0.1-4.6,0.8c0-0.1,0-0.1-0.1-0.2c-0.7-2.2-2.5-4-4.7-4.5s-4.3,0.3-6,2.2l-0.2,0.3
			c-2.1-2.4-2.9-6.2-3.6-10.9l6.1-5.9c0.6-0.6,0.6-1.5,0-2.1s-1.5-0.6-2.1,0l-6.5,6.3c-0.1,0-0.1,0.1-0.2,0.1l-2.6,2.5l-7-7.4
			c-0.9-1-0.9-2.6,0.1-3.6l22.1-21.2c0.5-0.5,1.1-0.7,1.9-0.7c0.7,0,1.3,0.3,1.8,0.7l7,7.4l-11.9,11.5c-0.6,0.6-0.6,1.5,0,2.1
			s1.5,0.6,2.1,0l8.9-8.5l7.9,3.9l-5.6,4.3c-6.6,5.1-4.7,9.8-3.9,11.1c1.3,2.2,3.7,3.6,6.3,3.6c0.9,0,2-0.2,2.9-0.6
			c0.1,0,0.1-0.1,0.2-0.1l5.9-3.6l8-1.8l15.2,15.2C163.5,330.4,162.6,332.4,162.1,333.3L162.1,333.3z M183.1,307.9l-7,7.4l-1.1-1
			l-0.1-0.1l-9.9-9.5c-0.6-0.6-1.5-0.6-2.1,0s-0.6,1.5,0,2.1l9.2,8.8c-4,6.2-7.5,8.7-9.5,9.7l-15.1-15l0,0c0,0,0,0-0.1-0.1l0,0
			c0,0,0,0-0.1-0.1c0,0,0,0-0.1,0c0,0,0,0-0.1,0c0,0,0,0-0.1,0c0,0,0,0-0.1,0c0,0,0,0-0.1,0h-0.1c0,0,0,0-0.1,0h-0.1l0,0h-0.1l0,0
			h-0.1l0,0h-0.1c0,0,0,0-0.1,0c0,0,0,0-0.1,0h-0.1l0,0l-9,2.1c-0.2,0-0.3,0.1-0.5,0.2l-6,3.6c-2,0.8-4.4,0-5.5-1.8
			c-1.2-2.2-0.1-4.9,3.2-7.4l7.4-5.7l0,0l1-0.7c1.6-1.2,4.6-1.9,8.4-1.7c0.1,0,0.2,0,0.3,0c0.8,0.1,1.2-0.1,1.9-0.7l3.3-2.6l7.4,7.1
			c0.6,0.6,1.5,0.6,2.1,0s0.6-1.5,0-2.1l-9.6-9.8l7-7.4c0.5-0.5,1.1-0.7,1.8-0.7c0,0,0,0,0.1,0c0.7,0,1.3,0.3,1.8,0.7l22.1,21.2
			C184,305.3,184.1,307,183.1,307.9L183.1,307.9z"/>
	</g>
	<g opacity="0.5">
		<path fill="#028283" d="M122.7,459.1v4.5c0,1.6-1.1,2.9-2.6,3.2l-8.2,1.6c-0.6,2-1.4,4-2.4,5.8l4.6,6.9c0.9,1.3,0.7,3-0.4,4.1
			l-3.1,3.1c-1.1,1.1-2.8,1.3-4.1,0.4l-6.9-4.6c-1.8,1-3.7,1.8-5.8,2.4l-1.6,8.2c-0.3,1.5-1.6,2.6-3.2,2.6h-4.5
			c-1.6,0-2.9-1.1-3.2-2.6l-1.6-8.2c-2-0.6-4-1.4-5.8-2.4l-6.9,4.6c-1.3,0.9-3,0.7-4.1-0.4l-3.1-3.1c-1.1-1.1-1.3-2.8-0.4-4.1
			l4.6-6.9c-1-1.8-1.8-3.7-2.4-5.8l-8.2-1.6c-1.5-0.3-2.6-1.6-2.6-3.2v-4.5c0-1.6,1.1-2.9,2.6-3.2l8.2-1.6c0.6-2,1.4-4,2.4-5.8
			l-4.6-6.9c-0.9-1.3-0.7-3,0.4-4.1l3.1-3.1c1.1-1.1,2.8-1.3,4.1-0.4l6.9,4.6c1.8-1,3.7-1.8,5.8-2.4l1.6-8.2
			c0.3-1.5,1.6-2.6,3.2-2.6H89c1.6,0,2.9,1.1,3.2,2.6l1.6,8.2c2,0.6,4,1.4,5.8,2.4l6.9-4.6c1.3-0.9,3-0.7,4.1,0.4l3.1,3.1
			c1.1,1.1,1.3,2.8,0.4,4.1l-4.6,6.9c1,1.8,1.8,3.7,2.4,5.8l8.2,1.6C121.6,456.2,122.7,457.5,122.7,459.1z"/>
		<path fill="#FFFCFF" d="M102.6,461.3c0,8.7-7.1,15.8-15.8,15.8S71,470,71,461.3s7.1-15.8,15.8-15.8S102.6,452.6,102.6,461.3z"/>
		<path fill="#FFFCFF" d="M94.6,461.3c0,4.3-3.5,7.9-7.9,7.9s-7.9-3.5-7.9-7.9c0-4.3,3.5-7.9,7.9-7.9S94.6,457,94.6,461.3z"/>
		<path fill="#FFFCFF" d="M89.8,461.3c0,3.5-2.3,6.5-5.5,7.5c-3.2-1-5.5-4-5.5-7.5s2.3-6.5,5.5-7.5
			C87.6,454.8,89.8,457.8,89.8,461.3z"/>
		<path fill="#FC6541" d="M145.4,494.8v2.9c0,1-0.7,1.9-1.7,2.1l-5.4,1.1c-0.4,1.3-0.9,2.6-1.6,3.8l3,4.5c0.6,0.9,0.5,2-0.3,2.7
			l-2.1,2.1c-0.7,0.7-1.9,0.8-2.7,0.3l-4.5-3c-1.2,0.7-2.4,1.2-3.8,1.6l-1.1,5.4c-0.2,1-1.1,1.7-2.1,1.7h-2.9c-1,0-1.9-0.7-2.1-1.7
			l-1.1-5.4c-1.3-0.4-2.6-0.9-3.8-1.6l-4.5,3c-0.9,0.6-2,0.5-2.7-0.3l-2.1-2.1c-0.7-0.7-0.8-1.9-0.3-2.7l3-4.5
			c-0.7-1.2-1.2-2.4-1.6-3.8l-5.4-1.1c-1-0.2-1.7-1.1-1.7-2.1v-2.9c0-1,0.7-1.9,1.7-2.1l5.4-1.1c0.4-1.3,0.9-2.6,1.6-3.8l-3-4.5
			c-0.6-0.9-0.5-2,0.3-2.7l2.1-2.1c0.7-0.7,1.9-0.8,2.7-0.3l4.5,3c1.2-0.7,2.4-1.2,3.8-1.6l1.1-5.4c0.2-1,1.1-1.7,2.1-1.7h2.9
			c1,0,1.9,0.7,2.1,1.7l1.1,5.4c1.3,0.4,2.6,0.9,3.8,1.6l4.5-3c0.9-0.6,2-0.5,2.7,0.3l2.1,2.1c0.7,0.7,0.8,1.9,0.3,2.7l-3,4.5
			c0.7,1.2,1.2,2.4,1.6,3.8l5.4,1.1C144.6,492.9,145.4,493.8,145.4,494.8z"/>
		<path fill="#FFFCFF" d="M133.5,496.3c0,6.5-5.3,11.8-11.8,11.8c-6.5,0-11.8-5.3-11.8-11.8s5.3-11.8,11.8-11.8
			C128.3,484.4,133.5,489.7,133.5,496.3z"/>
		<path fill="#FFFCFF" d="M128.8,496.3c0,3.9-3.2,7.1-7.1,7.1s-7.1-3.2-7.1-7.1s3.2-7.1,7.1-7.1S128.8,492.3,128.8,496.3z"/>
		<path fill="#FFFCFF" d="M124.1,496.3c0,3.1-2,5.7-4.7,6.7c-2.8-1-4.7-3.6-4.7-6.7c0-3.1,2-5.7,4.7-6.7
			C122.1,490.6,124.1,493.2,124.1,496.3z"/>
		<path d="M73.3,456.7c-0.5,1.5-0.8,3-0.8,4.6c0,7.9,6.4,14.3,14.3,14.3c3,0,5.9-0.9,8.3-2.7c0.7-0.5,1.7-0.3,2.2,0.3
			c0.5,0.7,0.3,1.7-0.3,2.2c-3,2.1-6.5,3.3-10.2,3.3c-9.6,0-17.3-7.8-17.3-17.3c0-1.9,0.3-3.8,0.9-5.6c0.3-0.8,1.2-1.2,2-1
			C73.1,455,73.6,455.9,73.3,456.7z M100.1,469.9c0.2,0.1,0.5,0.2,0.7,0.2c0.6,0,1.1-0.3,1.4-0.8c1.2-2.4,1.9-5.2,1.9-7.9
			c0-9.6-7.8-17.3-17.3-17.3c-4.5,0-8.8,1.7-12.1,4.9c-0.6,0.6-0.6,1.6,0,2.2s1.6,0.6,2.2,0c2.7-2.6,6.2-4,9.9-4
			c7.9,0,14.3,6.4,14.3,14.3c0,2.3-0.5,4.5-1.6,6.5C99.1,468.6,99.4,469.5,100.1,469.9z M99.4,484.3c-0.4-0.8-1.3-1.1-2.1-0.7
			c-1.3,0.6-2.6,1.1-3.9,1.5c-0.6,0.2-1,0.6-1.1,1.2l-1.6,8.2c-0.2,0.8-0.9,1.4-1.7,1.4h-4.5c-0.8,0-1.5-0.6-1.7-1.4l-1.6-8.2
			c-0.1-0.6-0.5-1-1.1-1.2c-1.9-0.5-3.7-1.3-5.4-2.2c-0.5-0.3-1.1-0.3-1.6,0.1l-6.9,4.6c-0.7,0.5-1.6,0.4-2.2-0.2l-3.1-3.1
			c-0.6-0.6-0.7-1.5-0.2-2.2l4.6-6.9c0.3-0.5,0.3-1.1,0.1-1.6c-1-1.7-1.7-3.5-2.2-5.4c-0.2-0.6-0.6-1-1.2-1.1l-8.2-1.6
			c-0.8-0.2-1.4-0.9-1.4-1.7v-4.5c0-0.8,0.6-1.5,1.4-1.7L62,456c0.6-0.1,1-0.5,1.2-1.1c0.5-1.9,1.3-3.7,2.2-5.4
			c0.3-0.5,0.3-1.1-0.1-1.6l-4.6-6.9c-0.5-0.7-0.4-1.6,0.2-2.2l3.1-3.1c0.6-0.6,1.5-0.7,2.2-0.2l6.9,4.6c0.5,0.3,1.1,0.3,1.6,0.1
			c1.7-1,3.5-1.7,5.4-2.2c0.6-0.2,1-0.6,1.1-1.2l1.6-8.2c0.2-0.8,0.9-1.4,1.7-1.4H89c0.8,0,1.5,0.6,1.7,1.4l1.6,8.2
			c0.1,0.6,0.5,1,1.1,1.2c1.9,0.5,3.7,1.3,5.4,2.2c0.5,0.3,1.1,0.3,1.6-0.1l6.9-4.6c0.7-0.5,1.6-0.4,2.2,0.2l3.1,3.1
			c0.6,0.6,0.7,1.5,0.2,2.2l-4.6,6.9c-0.3,0.5-0.3,1.1-0.1,1.6c1,1.7,1.7,3.5,2.2,5.4c0.2,0.6,0.6,1,1.2,1.1l8.2,1.6
			c0.8,0.2,1.4,0.9,1.4,1.7v4.5c0,0.8-0.6,1.5-1.4,1.7l-8.2,1.6c-0.6,0.1-1,0.5-1.2,1.1c-0.4,1.4-0.9,2.7-1.5,4
			c-0.4,0.8,0,1.7,0.7,2.1c0.8,0.4,1.7,0,2.1-0.7c0.6-1.2,1-2.4,1.4-3.6l7.2-1.4c2.2-0.4,3.9-2.4,3.9-4.7v-4.5
			c0-2.3-1.6-4.3-3.9-4.7l-7.2-1.4c-0.5-1.5-1.1-3-1.8-4.3l4.1-6.2c1.3-1.9,1-4.5-0.6-6.1l-3.1-3.1c-1.6-1.6-4.2-1.9-6.1-0.6
			l-6.2,4.1c-1.4-0.7-2.8-1.3-4.3-1.8l-1.4-7.2c-0.4-2.2-2.4-3.9-4.7-3.9h-4.5c-2.3,0-4.3,1.6-4.7,3.9l-1.4,7.2
			c-1.5,0.5-3,1.1-4.3,1.8l-6.1-4.1c-1.9-1.3-4.5-1-6.1,0.6l-3.1,3.1c-1.6,1.6-1.9,4.2-0.6,6.1l4.1,6.2c-0.7,1.4-1.3,2.8-1.8,4.3
			l-7.2,1.4c-2.2,0.4-3.9,2.4-3.9,4.7v4.5c0,2.3,1.6,4.3,3.9,4.7l7.2,1.4c0.5,1.5,1.1,3,1.8,4.3l-4.1,6.2c-1.3,1.9-1,4.5,0.6,6.1
			l3.1,3.1c1.6,1.6,4.2,1.9,6.1,0.6l6.2-4.1c1.4,0.7,2.8,1.3,4.3,1.8l1.4,7.2c0.4,2.2,2.4,3.9,4.7,3.9H89c2.3,0,4.3-1.6,4.7-3.9
			l1.4-7.2c1.2-0.4,2.4-0.8,3.5-1.4C99.4,486,99.7,485.1,99.4,484.3z M121.7,490.7c3.1,0,5.6,2.5,5.6,5.6c0,0.9,0.7,1.5,1.5,1.5
			c0.9,0,1.5-0.7,1.5-1.5c0-4.8-3.9-8.6-8.6-8.6s-8.6,3.9-8.6,8.6c0,4.8,3.9,8.6,8.6,8.6c1.9,0,3.8-0.6,5.3-1.8
			c0.7-0.5,0.8-1.5,0.3-2.2s-1.5-0.8-2.2-0.3c-1,0.8-2.2,1.2-3.4,1.2c-3.1,0-5.6-2.5-5.6-5.6C116.2,493.2,118.7,490.7,121.7,490.7z
			 M86.8,470.7c-5.2,0-9.4-4.2-9.4-9.4c0-5.2,4.2-9.4,9.4-9.4s9.4,4.2,9.4,9.4S91.9,470.7,86.8,470.7z M86.8,467.6
			c3.5,0,6.3-2.8,6.3-6.3s-2.8-6.3-6.3-6.3s-6.3,2.8-6.3,6.3S83.3,467.6,86.8,467.6z M143.9,491.2l-4.5-0.9c-0.3-0.8-0.6-1.6-1-2.4
			l2.5-3.8c1-1.5,0.8-3.4-0.5-4.7l-2.1-2.1c-1.2-1.2-3.2-1.4-4.7-0.5l-3.8,2.5c-0.8-0.4-1.6-0.7-2.4-1l-0.9-4.5
			c-0.3-1.7-1.9-3-3.6-3H120c-1.8,0-3.3,1.2-3.6,3l-0.9,4.5c-0.8,0.3-1.6,0.6-2.4,1l-3.8-2.5c-1.5-1-3.4-0.8-4.7,0.5l-2.1,2.1
			c-1.2,1.2-1.4,3.2-0.5,4.7l2.5,3.8c-0.5,1-0.9,2.1-1.3,3.3c-0.2,0.8,0.2,1.7,1.1,1.9c0.8,0.2,1.7-0.2,1.9-1.1
			c0.3-1.2,0.8-2.4,1.4-3.4c0.3-0.5,0.3-1.1-0.1-1.6l-3-4.5c-0.2-0.2-0.1-0.6,0.1-0.8l2.1-2.1c0.2-0.2,0.5-0.2,0.8-0.1l4.5,3
			c0.5,0.3,1.1,0.3,1.6,0.1c1.1-0.6,2.2-1.1,3.4-1.4c0.6-0.2,1-0.6,1.1-1.2l1.1-5.4c0.1-0.3,0.3-0.5,0.6-0.5h2.9
			c0.3,0,0.5,0.2,0.6,0.5l1.1,5.4c0.1,0.6,0.5,1,1.1,1.2c1.2,0.3,2.4,0.8,3.4,1.4c0.5,0.3,1.1,0.3,1.6-0.1l4.5-3
			c0.2-0.2,0.6-0.1,0.8,0.1l2.1,2.1c0.2,0.2,0.2,0.5,0.1,0.8l-3,4.5c-0.3,0.5-0.3,1.1-0.1,1.6c0.6,1.1,1.1,2.2,1.4,3.4
			c0.2,0.6,0.6,1,1.2,1.1l5.4,1.1c0.3,0.1,0.5,0.3,0.5,0.6v2.9c0,0.3-0.2,0.5-0.5,0.6l-5.4,1.1c-0.6,0.1-1,0.5-1.2,1.1
			c-0.3,1.2-0.8,2.4-1.4,3.4c-0.3,0.5-0.3,1.1,0.1,1.6l3,4.5c0.2,0.2,0.1,0.6-0.1,0.8l-2.1,2.1c-0.2,0.2-0.5,0.2-0.8,0.1l-4.5-3
			c-0.5-0.3-1.1-0.3-1.6-0.1c-1.1,0.6-2.2,1.1-3.4,1.4c-0.6,0.2-1,0.6-1.1,1.2l-1.1,5.4c-0.1,0.3-0.3,0.5-0.6,0.5h-2.9
			c-0.3,0-0.5-0.2-0.6-0.5l-1.1-5.4c-0.1-0.6-0.5-1-1.1-1.2c-1.2-0.3-2.4-0.8-3.4-1.4c-0.5-0.3-1.1-0.3-1.6,0.1l-4.5,3
			c-0.2,0.2-0.6,0.1-0.8-0.1l-2.1-2.1c-0.2-0.2-0.2-0.5-0.1-0.8l3-4.5c0.3-0.5,0.3-1.1,0.1-1.6c-0.6-1.1-1.1-2.2-1.4-3.4
			c-0.2-0.6-0.6-1-1.2-1.1l-5.4-1.1c-0.3-0.1-0.5-0.3-0.5-0.6v-2.9c0-0.3,0.2-0.5,0.5-0.6l0.3-0.1c0.8-0.2,1.4-1,1.2-1.8
			c-0.2-0.8-1-1.4-1.8-1.2l-0.3,0.1c-1.7,0.3-3,1.9-3,3.6v2.9c0,1.8,1.2,3.3,3,3.6l4.5,0.9c0.3,0.8,0.6,1.6,1,2.4l-2.5,3.8
			c-1,1.5-0.8,3.4,0.5,4.7l2.1,2.1c1.2,1.2,3.2,1.4,4.7,0.5l3.8-2.5c0.8,0.4,1.6,0.7,2.4,1l0.9,4.5c0.3,1.7,1.9,3,3.6,3h2.9
			c1.8,0,3.3-1.2,3.6-3l0.9-4.5c0.8-0.3,1.6-0.6,2.4-1l3.8,2.5c1.5,1,3.4,0.8,4.7-0.5l2.1-2.1c1.2-1.2,1.4-3.2,0.5-4.7l-2.5-3.8
			c0.4-0.8,0.7-1.6,1-2.4l4.5-0.9c1.7-0.3,3-1.9,3-3.6v-2.9C146.9,493.1,145.7,491.5,143.9,491.2z"/>
	</g>
	<g id="fond_categorie">
		<circle fill="#028283" cx="546.3" cy="477.7" r="312.2"/>
	</g>
	<g>
		<g id="texte_titre_badge">
			<path fill="#FFFFFF" d="M368.8,615.6h-9.2v-6.5h26.1v6.5h-9.3v27.5h-7.7v-27.5H368.8z"/>
			<path fill="#FFFFFF" d="M397.5,609.2v34h-7.7v-34H397.5z"/>
			<path fill="#FFFFFF" d="M410.7,615.6h-9.2v-6.5h26.1v6.5h-9.3v27.5h-7.7v-27.5H410.7z"/>
			<path fill="#FFFFFF" d="M431.8,609.6c2.4-0.4,6.1-0.7,10.2-0.7c5.1,0,8.6,0.7,10.9,2.7c2.1,1.6,3.2,4,3.2,7.1
				c0,4.3-3.1,7.3-6,8.3v0.2c2.3,0.9,3.6,3.2,4.6,6.4c1,3.8,2.1,8.2,2.7,9.5h-7.9c-0.6-1-1.4-3.7-2.3-8c-0.9-4.2-2.3-5.4-5.5-5.4
				h-2.2v13.4h-7.6L431.8,609.6L431.8,609.6L431.8,609.6z M439.4,624.2h3c3.8,0,6.1-2,6.1-4.9c0-3.1-2.2-4.7-5.6-4.7
				c-1.9,0-2.9,0.1-3.5,0.3V624.2z"/>
			<path fill="#FFFFFF" d="M481.8,628.8h-12.5v8h13.9v6.3h-21.6v-34h21v6.3h-13.3v7.1h12.5V628.8L481.8,628.8z"/>
			<path fill="#FFFFFF" d="M498.7,609.6c2.8-0.5,6.5-0.7,10.4-0.7c6.5,0,10.7,1.2,13.9,3.6c3.6,2.6,5.7,6.7,5.7,12.8
				c0,6.5-2.3,11-5.6,13.8c-3.6,3-9.1,4.4-15.6,4.4c-4,0-6.8-0.3-8.7-0.5L498.7,609.6L498.7,609.6z M506.4,637.3
				c0.7,0.1,1.8,0.1,2.7,0.1c6.9,0.1,11.5-3.7,11.5-11.9c0-7-4.1-10.8-10.8-10.8c-1.7,0-2.8,0.2-3.5,0.3L506.4,637.3L506.4,637.3z"
				/>
			<path fill="#FFFFFF" d="M541.5,609.2v19.5c0,5.9,2.2,8.9,6.2,8.9s6.3-2.8,6.3-8.9v-19.6h7.7v19.1c0,10.5-5.3,15.4-14.2,15.4
				c-8.6,0-13.6-4.8-13.6-15.5v-19L541.5,609.2L541.5,609.2z"/>
			<path fill="#FFFFFF" d="M578.3,609.6c2.1-0.4,6.1-0.7,9.9-0.7c4.7,0,7.6,0.5,10,1.9c2.3,1.3,4,3.6,4,6.7c0,3-1.8,5.8-5.6,7.2v0.1
				c3.8,1,6.7,3.9,6.7,8.3c0,3.1-1.4,5.5-3.6,7.2c-2.5,2-6.5,3.1-13.4,3.1c-3.7,0-6.5-0.3-8.3-0.5v-33.3H578.3L578.3,609.6z
				 M586,622.6h2.5c4,0,6.2-1.7,6.2-4.2c0-2.6-2-3.9-5.4-3.9c-1.7,0-2.6,0.1-3.3,0.3V622.6z M586,637.7c0.7,0.1,1.7,0.1,2.9,0.1
				c3.5,0,6.5-1.3,6.5-5c0-3.4-3.1-4.8-6.8-4.8H586L586,637.7L586,637.7z"/>
			<path fill="#FFFFFF" d="M616.7,634.4l-2.4,8.7h-8l10.4-34h10l10.6,34H629l-2.6-8.7H616.7z M625.3,628.7l-2.2-7.2
				c-0.6-2-1.2-4.6-1.7-6.5h-0.1c-0.5,2-1,4.6-1.6,6.5l-2.1,7.2H625.3z"/>
			<path fill="#FFFFFF" d="M641.9,609.6c2.8-0.5,6.5-0.7,10.4-0.7c6.5,0,10.7,1.2,13.9,3.6c3.6,2.6,5.7,6.7,5.7,12.8
				c0,6.5-2.3,11-5.6,13.8c-3.6,3-9.1,4.4-15.6,4.4c-4,0-6.8-0.3-8.7-0.5L641.9,609.6L641.9,609.6z M649.5,637.3
				c0.7,0.1,1.8,0.1,2.7,0.1c6.9,0.1,11.5-3.7,11.5-11.9c0-7-4.1-10.8-10.8-10.8c-1.7,0-2.8,0.2-3.5,0.3L649.5,637.3L649.5,637.3z"
				/>
			<path fill="#FFFFFF" d="M705.3,641.5c-2.3,0.8-6.8,1.9-11.3,1.9c-6.2,0-10.7-1.6-13.8-4.6s-4.9-7.4-4.8-12.3
				c0-11.3,8.2-17.7,19.4-17.7c4.4,0,7.8,0.8,9.4,1.6l-1.6,6.2c-1.9-0.8-4.2-1.4-7.9-1.4c-6.4,0-11.2,3.6-11.2,10.9
				c0,7,4.4,11.1,10.8,11.1c1.8,0,3.2-0.2,3.7-0.5v-7.1h-5.2v-6h12.6L705.3,641.5L705.3,641.5L705.3,641.5z"/>
			<path fill="#FFFFFF" d="M731.5,628.8H719v8h13.9v6.3h-21.6v-34h21v6.3H719v7.1h12.5L731.5,628.8L731.5,628.8z"/>
		</g>
	</g>
	<g id="filet_2_theme">
		<path id="path132" fill="none" stroke="#000000" stroke-width="5" stroke-miterlimit="10" d="M752.1,151.4
			c99.5,70.1,173.5,186.2,173.5,320.7c0,215.4-176.6,396.3-383.8,396.3c-133.4,0-259.3-77.8-325.8-187c-1.3-2.2-2.4-3.2-8-0.5
			c-15.9,7.7-86,41.2-90.7,43c-1.9,0.7-7.7-0.3-9.1-2c-5.6-6.9-17.8-30.6-30.6-63.4c-7.9-20.2-17.7-48.2-16.6-53.7
			c0.5-2.3,3.9-5.8,6.7-7.2c7.4-3.6,82.8-37.4,95.9-43.7c2.2-1,0.8-4.2,0.4-6c-3.3-18.1-3.9-44-3.9-73
			c0-135.8,73.3-255.5,174.5-325.3"/>
		<circle fill="#FFFFFF" stroke="#1D1D1B" stroke-width="4" stroke-miterlimit="10" cx="854" cy="798.2" r="96.8"/>
	</g>
	<g id="picto_theme" transform="translate(0.45365829,18.132036)">
		
			<circle id="circle697" fill="none" stroke="#000000" stroke-width="2.54" stroke-miterlimit="12.7" cx="879.9" cy="743.4" r="17"/>
		
			<circle id="circle699" fill="none" stroke="#000000" stroke-width="2.54" stroke-miterlimit="12.7" cx="808.2" cy="781.4" r="17"/>
		
			<circle id="circle701" fill="none" stroke="#000000" stroke-width="2.54" stroke-miterlimit="12.7" cx="879.9" cy="820.3" r="17"/>
		
			<line id="line703" fill="none" stroke="#000000" stroke-width="2.54" stroke-miterlimit="12.7" x1="864.6" y1="751.7" x2="821.5" y2="772.1"/>
		
			<line id="line705" fill="none" stroke="#000000" stroke-width="2.54" stroke-miterlimit="12.7" x1="823.2" y1="790.9" x2="865.3" y2="811.5"/>
	</g>
	<g id="picto_titre_badge">
		<g id="g6791" transform="translate(427.0015,362.0531)">
			<path id="path6789" fill="#FFFFFF" d="M232,4.5c0.3,1.8,0.5,2.8,0.6,3.8c1,6.6,0.6,13.1,0.1,19.6c-0.6,7.9-2.1,15.5-4.4,23.1
				c-3.6,11.4-9,21.9-17.2,30.8c-4.6,5-9.7,9.3-15.7,12.7c-6.4,3.7-13.5,5.5-20.7,7.3c-5.9,1.5-12,3-17.5,5.5
				c-8.6,3.9-10.1,10.4-8,18.1c1.8,6.6,4.9,12.7,7.4,19c0.4,0.9,0.8,1.8,1.2,2.7c-0.2,0.2-0.4,0.3-0.6,0.5c-1.2-1-2.5-1.8-3.6-2.9
				c-6-5.9-11.6-12.1-14-20.5c-2.5-8.7,0-16.2,5.2-23.1c6.5-8.4,14.9-14.8,23.3-21.2c7.9-6,15.5-12.4,23.2-18.8
				c1.4-1.2,2.5-2.9,3.8-4.4c-0.2-0.2-0.3-0.4-0.5-0.6c-1.8,1-3.6,2.1-5.4,3.2c-10.9,6.8-21.6,13.8-32.5,20.5
				c-3.1,1.9-6.6,3.5-9.9,5.2c-1.2,0.6-2.3,0.7-2.2-1.2c0.4-8.1,1.5-16,4.8-23.5c4-8.8,10.1-16,18.8-20c8.8-4,17.9-7.1,27-10.5
				c8.9-3.2,17.8-6.4,25.3-12.3c3.9-3.1,7.3-6.7,9.6-11.1C230.8,6,231.2,5.6,232,4.5"/>
		</g>
		<g id="g6795" transform="translate(143.617,309.6074)">
			<path id="path6793" fill="#FFFFFF" d="M331.2,91c3.1,3.1,5.9,6.5,9.3,9.2c12.9,10.3,26,20.5,38.9,30.7
				c9.4,7.4,18.5,15.2,25.1,25.3c9.2,13.8,9.1,29,0,42.9c-5,7.6-11.4,13.9-18,20.1c-0.6,0.6-1.4,0.9-2.6,1c0.5-1,0.8-2.1,1.3-3.1
				c4.4-8.3,8.4-16.7,10.7-25.9c1.3-5.1,1.9-10.2,0.6-15.4c-1.9-8.3-8.1-12.6-15.5-15.1c-8.5-2.9-17.2-5.3-26-7.1
				c-25.9-5.5-45-20.5-58.8-42.6c-7.9-12.5-12.9-26.2-16.2-40.5c-3.6-15.4-4.5-30.9-3.9-46.7c0.1-2.8,0.7-5.6,1.2-9.2
				c1,1.2,1.5,1.6,1.8,2.2c8.2,14.6,21.2,23.3,36.3,29.1c12.9,4.9,26,8.9,38.9,13.6c11.4,4.2,22.2,9.7,30.7,18.9
				c7.5,8.1,12.5,17.5,14.7,28.2c1.4,7.1,2.2,14.3,3.1,21.5c0.4,3.2-0.3,3.5-3.3,2.1c-15.9-7.4-30.6-16.8-45.2-26.4
				c-6.7-4.4-13.5-8.5-20.2-12.7c-0.7-0.5-1.5-0.7-2.3-1.1C331.8,90.4,331.5,90.7,331.2,91"/>
		</g>
		<g id="g6799" transform="translate(65.4546,150.0839)">
			<path id="path6797" fill="#FFFFFF" d="M358.6,354.2c60.3,0.8,115.3,9.6,163.6,27.7c13.2,4.9,24.8,10.9,37.2,16.4
				c4.9,2.2,3.5,3.8-1.7,5.1c-8.4,2.1-16.9,4.2-25.2,6.5c-4.8,1.3-7.7,0.5-11-1.4c-14.2-7.7-27.7-15.7-43.1-22.6
				c-30.8-14-67.1-22.9-108.3-26.4c-10.6-0.9-21.4-1-32.2-1.4c-1.7-0.1-3.6,0.2-5.1-0.1c-2.2-0.3-4.2-1-6.2-1.6
				c1.9-0.6,3.6-1.5,5.6-1.6c6.2-0.4,12.5-0.5,18.7-0.7C353.4,354.1,356,354.2,358.6,354.2"/>
		</g>
		<g id="g6803" transform="translate(235.3552,55.1964)">
			<path id="path6801" fill="#FFFFFF" d="M299.1,510.7c-10.1-1.2-20.4-1.9-30.2-3.6c-35.1-6-60.9-17.7-78.1-34.6
				c-1.4-1.4-1.7-3.1-2.5-4.6c2.9,0.1,5.8,0.1,8.7,0.3c35.7,4,63,14.6,85.8,28.9c6.2,3.9,11.8,8.1,17.7,12.2
				C300.1,509.7,299.6,510.3,299.1,510.7"/>
		</g>
		<g id="g6807" transform="translate(310.5638,57.8876)">
			<path id="path6805" fill="#FFFFFF" d="M272.8,506.3c-11.8,0.7-22,1.5-32.4,1.8c-2.1,0.1-5.1-1.5-6.6-2.7
				c-12.9-10.2-27.6-19.6-45.5-27.6c-22.7-10.2-48.7-16.6-78.8-18.5c-1.4-0.1-3.1,0.1-4.2-0.3c-1.9-0.7-3.4-1.8-5.1-2.6
				c1.9-0.5,3.8-1.4,5.7-1.4c18.7,0.3,36.8,2.2,54.5,5.4c45.4,8.3,80.1,23.8,109.4,43C270.6,503.9,271.1,504.6,272.8,506.3"/>
		</g>
		<g id="g6811" transform="translate(458.8952,130.3764)">
			<path id="path6809" fill="#FFFFFF" d="M220.8,386.7c-2.1,2.7-3.6,5.1-5.8,7.3c-7.9,8.1-17.7,15.3-29.9,21.6
				c-3.2,1.6-5.3,1.8-8.4-0.1c-6.1-3.7-12.6-7.3-19.1-10.8c-2.3-1.3-2.9-2.3,0.1-3.5c18.1-7.4,37.8-12.5,59.8-14.8
				C218.1,386.2,218.7,386.4,220.8,386.7"/>
		</g>
		<g id="g6815" transform="translate(282.366,134.4695)">
			<path id="path6813" fill="#FFFFFF" d="M282.6,379.9c2.7-0.9,4-1.5,5.5-1.8c35.9-8.5,73.4-12.2,112.2-11.6
				c4.3,0.1,8.6,0.3,12.7,0.7c1.9,0.2,3.4,1.3,5.1,2c-1.9,0.5-3.8,1.5-5.8,1.6c-9.2,0.5-18.3,0.8-27.5,1.3
				c-25.5,1.5-49.3,6-71.6,13.1c-5.1,1.6-9.1,1.9-14.1-0.1C294.4,383.3,289,381.9,282.6,379.9"/>
		</g>
		<g id="g6819" transform="translate(319.906,119.4833)">
			<path id="path6817" fill="#FFFFFF" d="M269.5,404.6c2.3-0.6,3.4-1,4.6-1.3c27.7-8,57.2-12.9,88.8-14c2.9-0.1,8.3,0.7,8.5,1.4
				c0.7,2.7-4,3.1-7.9,3.3c-26.9,1.6-50.8,7-72.6,15.1c-3.6,1.4-6.7,1.4-10.1-0.1C277.6,407.9,274.5,406.7,269.5,404.6"/>
		</g>
		<g id="g6823" transform="translate(274.1679,344.1267)">
			<path id="path6821" fill="#FFFFFF" d="M285.5,34c6.7,0,11.8,4.8,11.8,11.2c0.1,6.6-5.4,12.1-12,12.1c-6.7,0-12.1-5.4-12-12
				C273.4,38.6,278.2,34,285.5,34"/>
		</g>
	</g>
	<g id="g107">
		<g id="texte_posture">
			<path id="path88" fill="#FC6541" d="M442.9,885.3c2.8,0.6,5.6,1.1,8.4,1.7c-1.5,7.9-3.1,15.7-4.7,23.6
				c-2.1,10.6-8.4,13.3-17.1,11.4c-2.1-0.5-4.7-1.4-6.4-2.4c0.8-2.2,1.8-4.3,2.6-6.5c1.1,0.7,2.6,1.3,4.3,1.7c3.8,0.8,6.4-0.3,7.7-6
				C439.6,900.9,441.2,893.1,442.9,885.3z"/>
			<path id="path90" fill="#FC6541" d="M468,889.2c-2.6,5.2-5.9,10.3-9.3,13.9c-1.8-0.2-3.6-0.3-5.4-0.5c2.6-4.4,5.1-9.6,6.7-14.3
				C462.7,888.8,465.3,889.1,468,889.2z"/>
			<path id="path92" fill="#FC6541" d="M475.3,918.3c-0.3,3.6,3.2,5.7,7.4,6.3c3.1,0.4,5.6,0.3,8.2-0.3c0.2,2,0.4,4,0.6,5.9
				c-3.2,0.8-7,1-10.9,0.6c-10.1-1.2-14.9-7.6-13.5-16.1c1.1-7,6.7-13.8,16.3-12.6c9,1.1,11.8,8.3,11,15.2c-0.2,1.5-0.5,2.7-0.7,3.4
				C487.7,919.9,481.4,919.2,475.3,918.3z M486.5,913.8c0.3-2.1-0.3-5.6-4.2-6.1c-3.7-0.5-5.6,2.6-6.2,4.8
				C479.6,913,483,913.4,486.5,913.8z"/>
			<path id="path94" fill="#FC6541" d="M500.3,913.3c0.3-3.4,0.5-6.3,0.6-8.8c2.5,0.2,5.1,0.5,7.5,0.7c0,1.3,0.1,2.5,0.1,3.9
				c0.1,0,0.1,0,0.2,0c1.3-1.7,4.3-4.1,9-3.9c5.7,0.4,9.9,4.2,9.6,12.3c-0.2,5.5-0.5,10.9-0.7,16.4c-3.1-0.1-6.1-0.3-9.2-0.5
				c0.3-5.1,0.6-10.2,0.8-15.3c0.2-3.6-0.9-6-4.1-6.2c-2.4-0.2-4,1.4-4.7,2.9c-0.3,0.6-0.4,1.3-0.5,2.1c-0.4,5.3-0.8,10.6-1.2,15.9
				c-3.1-0.2-6.1-0.5-9.2-0.8C499.1,925.9,499.7,919.6,500.3,913.3z"/>
			<path id="path96" fill="#FC6541" d="M546.2,926.8c1.7,0.9,5.2,2.1,7.8,2c2.7,0,4-0.9,3.9-2.4c0-1.4-0.9-2.1-4.3-3.1
				c-6.1-1.8-8.3-5-8.3-8.2c0-5.2,4.5-9,11.5-9.1c3.3-0.1,6.2,0.6,8,1.4c-0.5,2-0.8,4-1.3,5.9c-1.3-0.7-3.8-1.4-6.2-1.4
				c-2.2,0-3.4,0.8-3.4,2.3c0,1.3,1.1,2,4.7,3.1c5.5,1.7,7.9,4.2,8.1,8.3c0.2,5.2-4,9.1-12.5,9.2c-3.9,0.1-7.3-0.8-9.6-1.9
				C545.2,930.8,545.7,928.9,546.2,926.8z"/>
			<path id="path98" fill="#FC6541" d="M599.6,922.8c0.4,3.6,0.8,6.5,1.1,8.8c-2.6,0.3-5.3,0.5-8,0.8c-0.3-1.3-0.5-2.5-0.8-3.9
				c-0.1,0-0.1,0-0.2,0c-1,1.8-3.5,4.8-8.8,5.2c-6,0.4-10.6-2.9-11-11.4c-0.3-5.4-0.5-10.8-0.8-16.2c2.9-0.1,5.8-0.3,8.8-0.5
				c0.3,4.9,0.7,9.9,0.9,14.8c0.3,4,1.8,6.4,5,6.1c2.4-0.2,3.8-1.9,4.2-3.4c0.2-0.6,0.2-1.1,0.2-1.9c-0.5-5.5-0.9-10.9-1.3-16.4
				c2.9-0.3,5.8-0.5,8.8-0.8C598.3,910.4,598.9,916.6,599.6,922.8z"/>
			<path id="path100" fill="#FC6541" d="M612.6,894.7c0.3,2.4-1.2,4.5-4,4.8c-2.7,0.3-4.7-1.4-5-3.8c-0.3-2.4,1.3-4.4,4-4.8
				C610.3,890.8,612.3,892.3,612.6,894.7z M607.8,930.8c-1-9.1-2.2-18.4-3.2-27.5c2.9-0.3,5.8-0.7,8.7-1c1.2,9.1,2.4,18.3,3.7,27.4
				C614,930.2,610.9,930.6,607.8,930.8z"/>
			<path id="path102" fill="#FC6541" d="M623.2,921.3c1.8,0.8,5.5,1.3,8,0.8c2.7-0.5,3.8-1.5,3.5-2.9s-1.3-2-4.7-2.4
				c-6.3-0.9-8.9-3.8-9.4-7c-0.8-5.2,3.1-9.6,10-10.7c3.2-0.6,6.2-0.3,8.1,0.3c-0.2,2.1-0.3,4-0.5,6.1c-1.4-0.4-4-0.8-6.3-0.5
				c-2.2,0.4-3.2,1.4-3,2.7s1.4,1.8,5.1,2.4c5.6,0.8,8.5,3.1,9.2,7.1c0.9,5.1-2.5,9.6-11,10.9c-3.9,0.6-7.4,0.3-9.8-0.5
				C622.7,925.6,622.9,923.5,623.2,921.3z"/>
			<path id="path104" fill="#FC6541" d="M660.3,917.8c-0.7-3,1-5.5,4-6.2c3.1-0.7,5.6,0.8,6.4,3.8c0.7,2.8-0.8,5.5-4,6.2
				C663.6,922.3,660.9,920.7,660.3,917.8z M660.4,909.6c-2.3-8.3-4.5-16.5-6.8-24.8c2.9-0.7,5.8-1.3,8.7-2
				c1.6,8.4,3.1,16.8,4.7,25.2C664.8,908.6,662.6,909.1,660.4,909.6z"/>
		</g>
	</g>
	<g id="texte_picto_categorie">
		<path fill="#FC6541" d="M400.8,133.1c-1.2,1.4-4.4,3.7-8.9,5.9c-12.7,6.2-23.1,2.9-28.5-6.5c-6.5-11.1-0.5-22.9,12-29
			c4.9-2.3,9-3.2,10.9-3.2c0.3,2.3,0.7,4.7,1,7c-2.2,0.2-5.1,0.7-8.3,2.3c-7.2,3.5-10.8,10.1-6.7,17.5c3.6,6.7,10.2,8.5,17.9,4.9
			c2.6-1.2,5.2-3.1,6.7-4.5C398.1,129.4,399.4,131.2,400.8,133.1z"/>
		<path fill="#FC6541" d="M429.7,108c3.2,9.5-2.7,16.3-10.1,19.2c-8.1,3.1-16.4,0.9-20.1-7.1c-3.6-8,0.3-16.1,10-19.8
			C418.8,96.6,427,100.1,429.7,108z M408.6,116c1.8,4.3,5.2,6.8,9,5.3c3.5-1.3,4.5-5.2,2.7-9.9c-1.4-3.8-4.6-7.1-8.8-5.5
			C407.1,107.7,407.1,112.3,408.6,116z"/>
		<path fill="#FC6541" d="M433.9,101.7c-1-3.3-2.1-6-3-8.2c2.7-0.8,5.4-1.7,8.1-2.4c0.5,1.1,1,2.3,1.5,3.5c0.1,0,0.1,0,0.2-0.1
			c0.7-2.1,2.8-5.3,8.1-6.7c4.1-1,7.8-0.1,9.8,2.4h0.1c0.8-1.7,2-3.1,3.3-4.2c1.5-1.2,3.4-2.2,5.7-2.6c6.1-1.3,11.5,1.6,13,9.6
			c1,5.3,2.1,10.6,3,15.9c-3,0.6-6,1.1-9,1.8c-1-4.9-2.1-9.7-3.2-14.6c-0.8-3.9-2.8-5.9-6-5.1c-2.2,0.5-3.5,2.2-3.7,3.9
			c-0.1,0.7,0,1.5,0.2,2.2c1.3,5.2,2.5,10.4,3.8,15.6c-3,0.7-5.9,1.4-8.9,2.2c-1.3-5-2.7-9.9-4-14.9c-0.9-3.4-2.9-5.2-6-4.4
			c-2.4,0.7-3.5,2.7-3.6,4.2c-0.1,0.7,0.1,1.5,0.3,2.2c1.5,5.1,3.1,10.2,4.6,15.3c-2.9,0.8-5.8,1.7-8.7,2.6
			C437.8,113.6,435.9,107.6,433.9,101.7z"/>
		<path fill="#FC6541" d="M488.1,89c-0.6-3.4-1.2-6.2-1.8-8.6c2.8-0.5,5.6-0.8,8.4-1.3c0.3,1.2,0.7,2.4,0.9,3.6c0.1,0,0.1,0,0.2,0
			c1.1-1.9,3.6-4.9,9.1-5.5c4.2-0.5,7.7,1,9.4,3.8h0.1c1-1.6,2.3-2.8,3.9-3.6c1.7-1,3.6-1.7,6.1-1.8c6.3-0.4,11.1,3.2,11.4,11.4
			c0.2,5.4,0.4,10.8,0.7,16.2c-3,0.1-6.1,0.3-9.1,0.5c-0.3-5-0.7-9.9-0.9-14.9c-0.3-3.9-1.9-6.2-5.1-6c-2.3,0.2-3.7,1.7-4.3,3.4
			c-0.2,0.7-0.2,1.5-0.2,2.2c0.5,5.3,0.9,10.7,1.4,16c-3,0.3-6.1,0.6-9.1,0.8c-0.6-5.1-1.2-10.2-1.8-15.3c-0.4-3.5-2.1-5.6-5.2-5.2
			c-2.5,0.3-3.8,2.2-4.2,3.6c-0.2,0.7-0.2,1.5-0.1,2.2c0.7,5.2,1.5,10.6,2.2,15.8c-3,0.4-6,0.8-9,1.3C490.1,101.2,489.1,95,488.1,89
			z"/>
		<path fill="#FC6541" d="M572.9,94.7c-0.2,3.6-0.3,6.5-0.3,8.8c-2.7-0.2-5.4-0.3-8.1-0.4c-0.1-1.3-0.2-2.6-0.3-3.9
			c-0.1,0-0.1,0-0.2,0c-1.3,1.7-4.2,4.3-9.5,4.2c-6.1-0.1-10.6-3.5-10.8-11.9c-0.1-5.4-0.2-10.8-0.3-16.2c3.4-0.1,6.7-0.1,10.1,0
			c-0.1,5-0.1,9.8-0.2,14.8c0,4,1.4,6.5,4.8,6.5c2.6,0.1,4.2-1.5,4.9-2.9c0.3-0.5,0.4-1.1,0.4-1.8c0.2-5.4,0.4-10.9,0.7-16.4
			c3.4,0.1,6.7,0.3,10.1,0.5C573.7,82.2,573.3,88.4,572.9,94.7z"/>
		<path fill="#FC6541" d="M581.4,85.3c0.3-3.4,0.5-6.3,0.5-8.8c2.9,0.3,5.8,0.5,8.7,0.8c0,1.3,0,2.5,0,3.8c0.1,0,0.1,0,0.2,0
			c1.5-1.6,5.1-3.9,10.5-3.2c6.6,0.8,10.9,5.3,9.5,13.4c-0.9,5.3-1.8,10.7-2.7,16.1c-3.1-0.5-6.2-0.9-9.3-1.4
			c0.7-5.1,1.4-10,2.2-15.1c0.5-3.5-0.6-6.1-4.2-6.5c-2.7-0.4-4.5,1.1-5.3,2.6c-0.3,0.5-0.5,1.3-0.6,2.1c-0.6,5.2-1.2,10.5-1.8,15.7
			c-3.1-0.4-6.3-0.7-9.4-0.8C580.3,97.8,580.9,91.6,581.4,85.3z"/>
		<path fill="#FC6541" d="M632.3,112.1c0-0.9,0.1-1.9,0.1-2.8c-0.1,0-0.1,0-0.2,0c-2.4,1.7-5.7,2.2-9.2,1.5c-6-1.2-8.8-5.7-8-10.1
			c1.2-7,9.2-9.2,20.1-6.7c0-0.1,0.1-0.2,0.1-0.4c0.4-1.4-0.1-3.6-4.9-4.7c-3.2-0.7-6.7-0.4-9.1,0.3c-0.3-1.9-0.5-3.8-0.7-5.7
			c2.4-0.7,7-1.2,12.9,0c10.6,2.3,12.4,8.5,10.8,14.7c-0.8,3.1-1.7,6.2-2.4,9.3c-0.7,2.5-1.1,5-1.2,6.5
			C637.8,113.4,635.1,112.7,632.3,112.1z M634.3,99.2c-5-1.1-9.1-0.8-9.7,2.3c-0.5,2.2,0.9,3.6,3,4c2.2,0.5,4.5-0.5,5.5-2.1
			c0.3-0.4,0.4-0.9,0.5-1.4C633.8,101.1,634,100.2,634.3,99.2z"/>
		<path fill="#FC6541" d="M677.3,116.2c-1.2,3.4-2.2,6.2-2.8,8.3c-2.5-0.9-5.1-1.8-7.7-2.7c0.3-1.3,0.6-2.5,0.8-3.8
			c-0.1,0-0.1,0-0.2-0.1c-1.7,1.2-5.2,3-10.4,1.4c-5.8-1.8-9.2-6.3-6.8-14.4c1.5-5.1,3-10.4,4.5-15.5c3.3,0.9,6.5,1.9,9.7,2.8
			c-1.5,4.7-3,9.4-4.5,14.1c-1.2,3.8-0.6,6.5,2.6,7.6c2.4,0.7,4.4-0.3,5.5-1.4c0.4-0.4,0.7-0.9,0.9-1.6c1.8-5.1,3.6-10.3,5.4-15.5
			c3.2,1,6.4,2.2,9.5,3.3C681.7,104.5,679.5,110.3,677.3,116.2z"/>
		<path fill="#FC6541" d="M705,98.4c-1,2.4-2.2,4.8-3.2,7.2c2.2,0.9,4.4,1.9,6.6,2.9c-0.8,1.9-1.8,3.8-2.6,5.7
			c-2.2-0.9-4.3-1.9-6.5-2.8c-1.3,3.1-2.6,6.1-4,9.2c-1.3,3.1-1,4.8,1.5,5.9c1.1,0.5,2.1,0.7,2.7,0.9c-0.8,2-1.8,3.9-2.6,6
			c-1.3-0.1-3.5-0.7-5.8-1.7c-2.8-1.2-4.8-3-5.6-4.9c-1-2.2-0.8-4.9,0.7-8.5c1.4-3.5,2.8-6.9,4.2-10.5c-1.3-0.5-2.6-1-3.9-1.5
			c0.7-2,1.6-3.9,2.3-5.9c1.3,0.5,2.7,1,4,1.5c0.7-1.9,1.5-3.6,2.2-5.5C698.4,97.1,701.6,97.8,705,98.4z"/>
		<path fill="#FC6541" d="M713.3,129c-1.3,3.3,1.4,6.5,5.3,8.5c2.8,1.5,5.3,2.3,8,2.9c-0.6,1.9-1.1,3.8-1.7,5.7
			c-3.3-0.5-6.8-1.8-10.4-3.6c-9-4.6-12.1-11.9-8.5-19.6c2.9-6.4,10.9-11.3,21-6.3c9.4,4.8,9.3,12.9,5.9,18.8
			c-0.7,1.3-1.5,2.3-2,2.8C725.1,135,719.3,131.9,713.3,129z M726.2,128.9c1-1.8,1.8-5.4-2.2-7.5c-3.7-1.9-6.7,0.4-8,2.2
			C719.3,125.4,722.8,127.1,726.2,128.9z M742,111.7c-3.8,1.1-7.6,2.4-11.3,3.6c-2.1-1-4.1-2.1-6.2-3.1c3-1.7,6.1-3.4,9.2-5
			C736.4,108.7,739.2,110.2,742,111.7z"/>
	</g>
</g>
<g id="tracy" opacity="0.25" enable-background="new    ">
	<path fill="#3DADA8" d="M261.1,42.9c-0.2,0.1-0.5,0.3-1,0.7c0,0.1,0,0.2,0,0.2c0,0.1,0,0.1,0,0.2c-0.1,0-0.2,0-0.4-0.1
		c-0.1,0-0.1,0.1-0.2,0.3c-0.4,0.1-0.9,0.3-1.4,0.6l-1.5,0.4c-0.1,0-0.2,0-0.2-0.1c-0.1,0.1-0.2,0.2-0.2,0.2
		c0.1,0.1,0.2,0.3,0.5,0.4c-0.1,0-0.2,0-0.3,0c-0.2,0-0.6,0-1-0.1c0.2,0,0.2-0.1,0.2-0.2h-0.3c-0.1,0.1-0.2,0.2-0.2,0.3
		c-0.1-0.1-0.3-0.2-0.5-0.2V46l-0.4,0.2c0.4,0,0.7,0,0.8,0.1c-0.1,0-0.2,0-0.2,0.1h-2.4c-0.1,0-0.1,0-0.1,0.1l-2.1,0.4
		c0.3,0,0.8,0.1,1.4,0.3c0-0.1,0.1-0.2,0.2-0.4h0.3l-0.1,0.1l0.3,0.1l0.2-0.2c0,0.1,0.1,0.1,0.2,0.3h0.8c-0.2,0-0.6,0.1-1,0.3
		c-0.1,0-0.2-0.1-0.3-0.2l-0.1,0.2c-0.1,0-0.2-0.1-0.4-0.1c-0.1,0-0.2,0.1-0.3,0.2c0.2,0.1,0.5,0.1,0.8,0.1c-0.1,0-0.3,0-0.6,0
		c-0.3,0-0.5,0.1-0.6,0.1c0,0,0,0,0,0c0,0,0-0.1,0.1-0.2h-0.5l0.1,0.1c0,0.2-0.1,0.2-0.3,0.2h-3.1c-0.2-0.1-0.2-0.2-0.3-0.2h-0.2
		l0.1,0.2c-0.1,0-0.2,0-0.3,0c-0.6,0-1.3,0.1-2.1,0.2c-0.1-0.1-0.2-0.2-0.2-0.2c0,0,0,0,0,0c-0.2-0.1-0.3-0.1-0.5-0.1
		c0,0-0.1,0-0.3,0c-0.2,0-0.2,0-0.3,0c-0.4,0-0.7-0.1-0.8-0.3h-0.2c0,0-0.1,0-0.3,0.1l-2.1-0.7c0-0.1,0.1-0.1,0.1-0.1
		c0.1,0,0.1,0,0.2,0.1h0.2c0.1,0,0.2,0,0.3-0.1c-0.2-0.1-0.4-0.2-0.5-0.2c-0.1,0-0.1,0-0.2,0.1c-0.1-0.1-0.4-0.2-1-0.4
		c0,0-0.1,0.1-0.1,0.2h-0.3c0-0.1-0.1-0.2-0.3-0.2c-0.2-0.1-0.4-0.2-0.4-0.2c0-0.1-0.1-0.2-0.1-0.2c0.1,0,0.1-0.1,0.1-0.1
		c-0.1-0.1-0.2-0.1-0.3-0.1c0.1,0,0.1,0,0.2-0.1l-0.2-0.1l-0.2,0.2c-0.1-0.1-0.1-0.1-0.2-0.1c-0.1-0.1-0.1-0.3-0.2-0.6l-0.9-0.4
		c0,0,0-0.1,0.1-0.2c-0.1,0-0.2-0.2-0.4-0.5c-0.1,0-0.4-0.4-0.7-1c-0.1-0.9-0.2-1.7-0.3-2.3l-0.2-1.5c0-3.9,2.3-8,7-12.3
		c0.4-0.1,0.8-0.3,1.1-0.6c0.4-0.4,0.7-0.5,0.9-0.5c0,0,0.1,0,0.1,0c0.1-0.2,0.3-0.4,0.6-0.8c0.6-0.3,1.4-0.8,2.5-1.4
		c0.2,0,0.4,0.1,0.4,0.1l1.3-0.9l4.2-1.2h1.3c0.1,0.2,0.2,0.4,0.3,0.7c0.1,0.1,0.3,0.3,0.5,0.5c-0.2,0.1-0.3,0.3-0.3,0.5
		c0,0.7,0,1,0,1.1c0,0,0,0,0-0.1c0.1,0.1,0.3,0.3,0.5,0.6c0,0-0.2,0.1-0.4,0.2v0c0,0,0,0.1,0.1,0.3l-0.5,0.4c0.1,0,0.3,0.1,0.6,0.2
		c-0.4,0.2-0.7,0.3-0.9,0.3c-0.1,0-0.1,0-0.2,0c0,0.1-0.1,0.1-0.2,0.2c-0.3,0-0.7,0.1-1.2,0.2c-0.1,0.1-0.7,0.4-1.7,0.8
		c-0.2,0.1-0.7,0.3-1.4,0.6c-0.5,0.4-1.6,0.9-3.2,1.8c-0.9,0.8-1.8,1.5-2.5,2c-0.6,0.6-1.5,1.7-2.8,3.2c-0.1,0.1-0.2,0.1-0.3,0.2
		c-0.2,0.1-0.3,0.3-0.3,0.5c0,0.1,0,0.2,0.1,0.3c-0.2,0.2-0.5,0.5-0.9,1v0c0,0,0,0.1,0.1,0.3l-0.5,1.7v1.1c0,0.1,0.1,0.3,0.4,0.5
		c0.3,0.2,0.5,0.4,0.6,0.4c0.1,0.1,0.3,0.2,0.5,0.4c0.1,0,0.9,0.3,2.4,0.7c0.6,0.1,1.2,0.1,1.9,0.2l2.7,0.1l3-0.2l4-0.5
		c0.1,0,0.3,0,0.4,0.1l1.2-0.4c0.1,0.1,0.1,0.1,0.2,0.1l1.8-0.5h0.6l0.2,0.2h1.1c0.1,0.1,0.1,0.2,0.1,0.3c0,0,0.1,0.1,0.3,0.1
		c0,0.1-0.1,0.1-0.1,0.2c0.1,0.1,0.2,0.2,0.2,0.2c-0.1,0.1-0.3,0.2-0.5,0.4c0,0,0,0.1,0,0.1c0,0,0,0,0.1,0h0.5v0
		c0,0-0.1,0.2-0.2,0.6C260.9,42.8,261,42.8,261.1,42.9z M254,45.6h-0.3v0c0,0-0.1,0.1-0.1,0.3C253.7,45.9,253.8,45.8,254,45.6z"/>
	<path fill="#3DADA8" d="M280.6,44.8c-0.3,0.3-0.6,0.8-1.1,1.4l-0.5-0.1c0,0.1-0.1,0.2-0.2,0.4c-0.1-0.1-0.3-0.2-0.6-0.4
		c0,0,0,0-0.1,0c-0.3,0-0.9-0.3-1.7-1c-0.2-0.4-0.6-1.1-1.4-2.1l-4,3c0,0,0,0.1,0.1,0.1c0.1,0.1,0.1,0.1,0.1,0.1
		c-0.1,0.2-0.5,0.4-1.3,0.8c-2.2,0.7-3.3,1-3.3,1c-1.6,0-2.8-0.6-3.7-1.8c-0.4-1.2-0.7-2-0.7-2.6c0-0.4,0.4-1.4,1.2-3.3
		c0.7-0.8,1.2-1.2,1.5-1.2c0.1-0.1,0.9-0.6,2.2-1.6c0.6-0.3,1.7-0.7,3.1-1.3c1.4-0.3,2.2-0.5,2.2-0.6h0c0.1,0,0.4,0,0.8,0.1
		c0.3,0,0.6,0,0.8,0c0.1,0,0.2,0,0.2,0c0.6,0.3,0.9,0.6,0.9,0.9c0,0,0,0.1,0,0.1c0.1,0.1,0.4,0.5,0.8,1.3c0.1,0,0.2,0,0.3,0
		c0.4,0,0.9,0.2,1.3,0.6c0.7,1.1,1.3,2,1.8,2.9C279.8,42.9,280.3,43.9,280.6,44.8z M273.1,40.2h-0.8c-0.3,0-0.9,0.2-1.9,0.6
		l-1.7,0.7c-0.6,0.4-1.3,0.9-2.1,1.6l-0.1,0.2l0.9,0.1c2.1-0.5,3.7-1.4,4.9-2.6C272.5,40.7,272.7,40.5,273.1,40.2z"/>
	<path fill="#3DADA8" d="M310.1,41.9c0,0.2-0.1,1.3-0.3,3c-0.3,0.9-0.4,1.4-0.4,1.4v0c-0.1,0.1-0.2,0.2-0.3,0.2c0,0,0,0-0.1,0
		l-0.3,0.5c-0.4,0-0.9-0.2-1.6-0.4c-0.1-0.2-0.4-0.5-0.8-0.8c-0.2-0.4-0.2-0.8-0.2-1.4v-4.1l-0.7-2c0,0,0,0,0,0c0,0-0.1,0-0.1-0.1
		c-0.2,0.1-0.5,0.2-0.9,0.3c-1.2,0.2-2.4,1.1-3.8,2.6c-0.1,0.1-1,1.4-2.8,4c-0.2,0.5-0.6,1.2-1.2,2.2c0,0,0,0,0,0
		c-0.1,0-0.3,0.1-0.8,0.2c-0.1,0-0.2-0.1-0.3-0.1c-0.1,0.1-0.3,0.2-0.6,0.4l-0.4-0.7c0-0.1-0.2-0.2-0.4-0.3H294c0,0-0.1,0-0.2,0.1
		c-0.1,0.1-0.1,0.1-0.2,0.1c0,0,0,0,0,0c0,0-0.1-0.2-0.4-0.5l-0.1-2.4l0.4-4.9c0-0.3-0.1-0.6-0.2-1.1h0c0,0-0.1,0-0.1-0.1
		c-0.2,0.1-0.6,0.2-1.1,0.4c-0.2,0.2-0.5,0.5-1,0.9c-1.2,0.8-2.3,2-3.2,3.5c-0.9,0.9-1.5,2-2.1,3.2c-0.1,0.1-0.2,0.2-0.2,0.3
		c0,0.1,0,0.1,0.1,0.2c0.1,0.1,0.1,0.1,0.1,0.2c0,0,0,0.1-0.1,0.1c-0.1,0-0.8,0-1.8,0c-0.5-0.7-0.9-1-1.5-1c0,0,0,0,0,0
		c0-0.2-0.1-0.4-0.2-0.8c0-0.1,0-0.3-0.1-0.6c0,0,0-0.1,0-0.1c0-0.2,0.1-0.3,0.2-0.4l-0.3-0.2c0-0.6,0.3-2,0.7-4.1
		c0.1-0.4,0.3-1.3,0.6-2.5c0.4-0.7,0.5-1.1,0.6-1.1v0c0-0.1,0-0.1,0-0.1c0.7-0.3,1-0.5,1-0.6c0.3,0,0.7,0.3,1.1,1
		c0.3,0.5,0.6,0.9,0.8,1.2c0,0,0,0,0,0c0.1,0,0.2-0.1,0.5-0.3c1.1-1,2-1.7,2.6-2.2c1.1-0.8,2-1.3,2.8-1.5c0.2,0,0.4-0.1,0.5-0.3
		c0.5-0.2,0.8-0.3,1-0.3c0.5,0,1.1,0.6,1.7,1.7c0.3,0.4,0.6,1.1,1,2l0.4,2.3c0.1-0.1,0.4-0.4,1-0.8c0.3-0.2,0.5-0.4,0.8-0.8
		c0.9-1,1.9-1.9,3.1-2.6c1.4-0.9,2.6-1.3,3.6-1.3c0.7,0,1.4,0.4,2.1,1.3c0.7,0.9,1.1,1.7,1.2,2.6c0.1,0.6,0.3,1.5,0.6,2.6
		L310.1,41.9z"/>
	<path fill="#3DADA8" d="M334.4,39.8c0,0,0,0.2-0.1,0.4c-0.1,0.2-0.2,0.4-0.2,0.6c0,0.5-0.3,1.2-0.9,1.9c-0.6,0.7-1.2,1.2-1.8,1.5
		c-0.5,0.2-0.8,0.3-0.9,0.5l-3.3,1.6l-3.1,1l-0.1-0.1l-5.3,1.3c-0.1-0.1-0.2-0.1-0.3-0.1c-0.1,0-0.2,0-0.3,0.1l-1.5-0.6l-0.4,3.1V52
		l-0.5,4.6l0.1,3.2l-0.2,2.7c0,0-0.1,0.1-0.3,0.3c-0.1,0.2-0.3,0.2-0.4,0.2c-0.1,0-0.2-0.1-0.3-0.3c0,0,0,0.1-0.1,0.1l-0.2,0.2
		c0,0,0,0,0,0c-0.2,0-0.3-0.1-0.5-0.3c-0.8-0.4-1.3-1-1.6-2.1c-0.2-1.5-0.3-2.3-0.3-2.4V55l0.5-6.1c0.1-0.8,0.6-4.1,1.7-9.8
		c0.3-0.8,0.7-1.2,1.2-1.2l0.6,0.1c0.4,0.2,0.7,0.6,0.9,1c0.3,0.6,0.5,1,0.5,1.1c0,0,0,0.2,0,0.7L317,44c0,0.2,0,0.4,0.1,0.7
		c1.2-0.5,2.7-1.1,4.4-1.8c1.8-0.3,3.7-0.9,5.7-2c0.1,0,0.2-0.1,0.4-0.1c0.4-0.3,0.7-0.5,1-0.5c0.4-0.3,0.9-0.8,1.7-1.6
		c-0.2-0.5-0.6-0.9-1.2-1.2c-1-0.6-1.5-0.9-1.6-0.9l-0.3,0.1l-0.6-0.3l-0.2,0c-0.1,0-0.2,0-0.2,0l-1.8-0.4l-3.7,0.1
		c-0.1,0-0.3,0-0.5,0.1c-0.4,0.1-0.7,0.1-0.7,0.1c-1.8,0.2-3.2,0.6-4.3,1.2c-0.3,0-0.8,0.3-1.6,0.7c-1,0.5-1.5,1-1.5,1.5
		c0,0.2,0.1,0.4,0.3,0.7c-0.1,0.1-0.1,0.1-0.3,0.1c-0.1,0.1-0.1,0.2-0.1,0.3c0,0,0,0.1,0,0.1c0,0-0.1,0-0.2,0c-0.1,0-0.1,0-0.2,0
		l-0.2,0.5c-0.1,0-0.2-0.1-0.4-0.2c0,0-0.1,0.1-0.2,0.2h-0.4c-0.1-0.1-0.2-0.2-0.3-0.4L310,41c-0.2-0.3-0.5-0.6-0.7-0.7
		c0-0.3-0.1-0.6-0.1-0.8l-0.1-0.3v-1.4l0.3-0.4c0,0,0-0.1,0-0.1c0-0.4,0.2-0.8,0.7-1.2c0.4-0.3,0.8-0.6,1.2-0.9
		c0.1-0.2,0.2-0.3,0.3-0.5c0.2,0.1,0.3,0.1,0.4,0.1l5.1-2.4l3.2-0.9c0.4,0.1,0.8,0.2,1.2,0.2c0,0,0.1,0,0.3-0.1
		c0.2-0.1,0.3-0.1,0.3-0.1h1.6c0,0,0.1-0.1,0.2-0.1c0.6,0.1,1.1,0.2,1.5,0.3c0.5,0,0.9,0,1.2,0.1c0.6,0.1,1.1,0.2,1.5,0.5
		c0,0,0.1,0,0.2,0s0.2,0,0.2,0c1.2,0,2.5,0.8,3.8,2.4c0.3,0.4,0.7,0.9,1.2,1.6C334.1,37.9,334.4,39.1,334.4,39.8z"/>
	<path fill="#3DADA8" d="M351.5,38.2c-0.1,0.6-0.4,1.7-0.7,3.3c-0.2,0.7-0.6,1.6-1.3,2.8c-0.7,1-1.3,1.7-1.6,2.1
		c-0.7,0.8-1.5,1.2-2.2,1.4c-0.3,0.1-0.7,0.3-1.3,0.5c-0.9,0.2-1.5,0.3-1.7,0.3c-2.3,0-4.3-1.8-6-5.3c-0.2-0.9-0.3-1.7-0.3-2.3
		c0-0.4,0.1-1,0.3-1.8c0.6-0.5,1-0.7,1.2-0.7h0c1.3,0.6,1.9,1.5,1.9,2.8c0,0.5,0.3,1.2,1,2c0.7,0.3,1.1,0.5,1.1,0.5h0.5
		c0.1,0,0.6-0.2,1.3-0.4c1-0.7,1.7-1.2,2.1-1.5c0.8-0.7,1.2-1.4,1.3-2.1c0.1-0.4,0.5-1.4,1-3c0.3-1.1,0.7-1.8,1-2.2c0,0,0.1,0,0.2,0
		c0.1,0,0.2,0,0.3,0h0.5c0.1,0.1,0.2,0.3,0.4,0.4c0.2,0.4,0.5,0.9,0.9,1.5c0,0.1,0,0.3,0,0.4c0,0.2,0,0.3,0,0.5c0,0.1,0,0.2,0,0.3
		C351.3,37.9,351.4,38,351.5,38.2z"/>
	<path fill="#3DADA8" d="M367.2,44.6c0,0.5-0.1,1-0.3,1.5c-0.2,0.3-0.9,0.7-2.1,1.2c-1.3,0.5-2.4,0.8-3.1,0.8
		c-0.1,0-0.4-0.1-1.2-0.2c-0.2,0-0.3,0-0.5,0c-0.2,0-0.5,0-0.7,0.1l-1.5-0.3h-1.3c-0.2,0-0.6-0.1-1.3-0.4c-0.6-0.2-0.9-0.3-1.1-0.4
		c-0.1-0.2-0.2-0.5-0.4-0.7c0-0.1,0-0.2,0.1-0.2l-0.2-0.2c0.1-0.2,0.1-0.4,0.1-0.6c0-0.3-0.1-0.5-0.2-0.7c0.7-0.3,1.2-0.4,1.4-0.4
		h1.1l1.6-0.2h1l2.5-0.3c0.1-0.1,0.2-0.2,0.2-0.2c0-0.1-0.2-0.2-0.4-0.3c-0.3-0.1-0.9-0.4-1.8-0.7c-3-1.3-4.7-2.7-5.1-4.3
		c-0.1-0.3-0.2-0.5-0.3-0.6v-1.6c0-0.1,0.1-0.3,0.3-0.7c0.1-1.1,2.1-1.6,6.1-1.6h0c0,0,0.9,0.1,2.6,0.3c1.2,0.4,2,0.8,2.4,1
		c0.8,0.5,1.4,1.1,1.8,1.9c0,0.1-0.1,0.2-0.2,0.4c-0.2,0.2-0.2,0.4-0.2,0.5l0.1,0.2l-0.8,0.5h-0.2c0,0,0.1,0,0.1,0
		c0-0.1-0.6-0.2-1.9-0.6c-1.3-0.2-2.1-0.3-2.3-0.3l-2.1,0.3c0,0,0.1,0.1,0.1,0.2c0.1,0.1,0.3,0.2,0.5,0.4
		C364.7,40,367.2,42.2,367.2,44.6z"/>
	<path fill="#3DADA8" d="M403.4,44.8c-0.3,0.3-0.6,0.8-1.1,1.4l-0.5-0.1c0,0.1-0.1,0.2-0.2,0.4c-0.1-0.1-0.3-0.2-0.6-0.4
		c0,0,0,0-0.1,0c-0.3,0-0.9-0.3-1.7-1c-0.2-0.4-0.6-1.1-1.4-2.1l-4,3c0,0,0,0.1,0.1,0.1c0.1,0.1,0.1,0.1,0.1,0.1
		c-0.1,0.2-0.5,0.4-1.3,0.8c-2.2,0.7-3.3,1-3.3,1c-1.6,0-2.8-0.6-3.7-1.8c-0.4-1.2-0.7-2-0.7-2.6c0-0.4,0.4-1.4,1.2-3.3
		c0.7-0.8,1.2-1.2,1.5-1.2c0.1-0.1,0.9-0.6,2.2-1.6c0.6-0.3,1.7-0.7,3.1-1.3c1.4-0.3,2.2-0.5,2.2-0.6h0c0.1,0,0.4,0,0.8,0.1
		c0.3,0,0.6,0,0.8,0c0.1,0,0.2,0,0.2,0c0.6,0.3,0.9,0.6,0.9,0.9c0,0,0,0.1,0,0.1c0.1,0.1,0.4,0.5,0.8,1.3c0.1,0,0.2,0,0.3,0
		c0.4,0,0.9,0.2,1.3,0.6c0.7,1.1,1.3,2,1.8,2.9C402.7,42.9,403.2,43.9,403.4,44.8z M396,40.2h-0.8c-0.3,0-0.9,0.2-1.9,0.6l-1.7,0.7
		c-0.6,0.4-1.3,0.9-2.1,1.6l-0.1,0.2l0.9,0.1c2.1-0.5,3.7-1.4,4.9-2.6C395.3,40.7,395.6,40.5,396,40.2z"/>
	<path fill="#3DADA8" d="M422,53.6c-0.3,2.1-0.9,3.9-1.9,5.4c-0.1,0.2-0.5,0.6-1.2,1.3c-0.2,0.1-0.6,0.4-1.1,0.8
		c-0.6,0.3-1.1,0.5-1.6,0.7c-0.3,0.2-0.8,0.4-1.4,0.8c-0.3,0.1-0.9,0.3-1.6,0.6l-4.9,0.8l-2.4,0.1c-0.1,0-0.2-0.1-0.5-0.1
		c-0.5-0.1-1.2-0.2-2.1-0.5c-0.8-0.2-1.3-0.3-1.5-0.5c-0.2-0.1-0.7-0.5-1.7-1.2c-0.1-0.3-0.4-0.5-0.8-0.8c-0.6-1.4-1-2.2-1-2.3v-2.2
		l1-1.6c0.3-0.2,0.8-0.6,1.5-1c0.1,0.1,0.2,0.2,0.2,0.4c0,0.1-0.1,0.2-0.2,0.4c0,0,0.1,0,0.2,0c0.1,0,0.1-0.1,0.1-0.3
		c0.2-0.1,0.4-0.2,0.8-0.2l0,0.5l-0.3,0.2c0,0.1,0.1,0.3,0.2,0.6c0.3-0.1,0.4-0.1,0.5-0.1c-0.1,0.2-0.3,0.6-0.6,1v0.3
		c0,0,0.1,0.1,0.1,0.2c0,0.1,0,0.1,0,0.2c0,0.3,0,0.6,0.1,1.1c0,0.1,0.1,0.2,0.3,0.5c0.6,0.5,1.1,0.8,1.2,0.9
		c0.4,0.2,1.1,0.3,2.1,0.3l1.4,0.1c0,0,0.2,0,0.5-0.1c0.3-0.1,0.5-0.1,0.5-0.1c0,0,0.1,0,0.2,0c0.1,0,0.2,0,0.2,0
		c0.3,0,0.9-0.1,1.8-0.2c0.5-0.2,1-0.5,1.6-0.7c1-0.3,1.8-0.7,2.6-1.2c0.2-0.1,0.6-0.4,1-0.8c1.6-1,2.4-2.9,2.4-5.7l-1-5.9l-0.1-0.1
		h-0.3l-4.2,1.3c-0.2-0.1-0.6-0.1-1.1-0.1c-0.1,0-0.2,0-0.3,0c-1,0-2.2-0.4-3.5-1.3c-1.6-1-2.4-2-2.4-3l0.2-0.6
		c0-0.1-0.1-0.3-0.1-0.4c0-0.7,0.4-1.6,1.1-2.5c0.7-0.9,1.2-1.3,1.7-1.4c0.9-0.5,1.9-0.8,3-1c0.1,0,1-0.2,2.8-0.4l2-0.1
		c0.6,0.2,1.2,0.3,1.9,0.5c0.7,0.2,1.4,0.5,1.9,0.9v0.4c0.5,0.2,0.8,0.6,0.9,1.3c0.1,0.1,0.2,0.3,0.4,0.6c-0.1,0-0.2,0-0.3,0.1
		c0,0.4,0,0.6,0.1,0.6c0,0,0,0,0,0c-0.1,0-0.2-0.1-0.3-0.1l-0.1,0.1c0.2,0.4,0.4,0.9,0.7,1.5c0,0,0,0.1,0,0.1c0,0.1,0,0.1,0,0.1
		c0.1,1,0.4,2.8,0.7,5.6l0.4,3.2L422,53.6z M401.5,54c0,0,0,0.1-0.1,0.1c0,0,0,0,0,0c0,0-0.1,0-0.1,0C401.4,54,401.5,54,401.5,54z
		 M416.9,39.9l-1.5-0.1l-3,0.2c0,0,0,0,0,0c0,0-0.8,0.3-2.4,0.9l-0.5,0.5c0,0.1,0,0.1,0.1,0.2c1.1,0.3,1.9,0.4,2.3,0.4
		c0.8,0,1.7-0.2,2.8-0.6C415.9,40.9,416.7,40.4,416.9,39.9z"/>
	<path fill="#3DADA8" d="M444.8,37c-0.1,0-0.2,0.1-0.4,0.2c0,0.1,0,0.2,0,0.2l0.3,0.3c-0.5,0.1-0.9,0.3-1.4,0.5l-2.8-0.6
		c-0.5,0-1.2,0.1-2,0.3c-1,0.3-1.9,0.6-2.7,0.8c-1.6,0.6-3,1.2-4.3,1.8c-1.7,0.8-2.8,2-3.2,3.6c0,0.1,0.1,0.5,0.2,1.2v0.5
		c-0.1,0.2-0.2,0.3-0.2,0.5c0,0.1,0,0.1,0,0.2c0,0.1,0.1,0.2,0.2,0.3l-1.5,1h-0.3c-0.2-0.1-0.5-0.3-0.8-0.6l-0.4,0.1
		c-0.1-0.2-0.3-0.5-0.5-0.8c-0.1-0.3-0.2-0.5-0.3-0.7l-0.2-1v-1.3c0,0,0-0.1,0-0.2c0-0.1,0-0.2,0-0.2v-1.4c0-0.4,0.2-1.1,0.5-2.1
		c0.4-1.3,0.8-1.9,1.2-1.9h0.5l0.5,0.5h0.2c0.3,0,1.2-0.5,2.8-1.5c1.1-0.5,2.8-1.2,5-2.2c0.1,0,0.6-0.2,1.5-0.6
		c0.2,0,0.7-0.1,1.4-0.3l1.1-0.2h1.5c1.1,0,2.3,0.7,3.7,2.1c0.1,0.1,0.1,0.2,0.1,0.4c0.3,0.3,0.4,0.5,0.4,0.8V37z"/>
	<path fill="#3DADA8" d="M451.2,42.6L451.2,42.6c0,0,0,0,0,0.2c0,0.2-0.1,0.5-0.1,0.8c0,0.4,0,0.8,0,1.4v1.6l-0.5,1.1l-0.3-0.1
		c-0.1,0.1-0.2,0.1-0.3,0.2c-0.1,0-0.2-0.1-0.3-0.2c-0.1,0-0.2,0.1-0.3,0.2c-0.1-0.1-0.5-0.2-1.3-0.4c-0.4-0.6-0.7-1.6-1-3.1
		c-0.1-0.3-0.1-0.6-0.1-1c0-0.1,0-0.3,0-0.4l0.1-2.7l0.4-1.8c0.3-0.3,0.5-0.5,0.5-0.8l0.8-0.2c0.1,0,0.3,0.1,0.5,0.2
		c0.3,0.4,0.8,0.9,1.4,1.5c0.3,0.6,0.5,1.1,0.5,1.6L451.2,42.6z M452,31.2c-0.1,0.1-0.1,0.2-0.2,0.3c0.1,0.3,0.2,0.5,0.2,0.7
		c-0.1,0.2-0.4,0.3-0.8,0.6c0-0.1-0.1-0.1-0.3-0.1c-0.2,0-0.3,0-0.3,0.1c-0.4-0.2-0.9-0.4-1.5-0.5c-0.4-0.9-0.6-1.4-0.6-1.6
		c0,0,0,0,0,0l0.2-1.7c0.1,0,0.3-0.2,0.5-0.4h1c0.3,0.2,0.7,0.5,1,1.1c0.3,0.1,0.5,0.3,0.6,0.6C451.8,30.8,452,31.1,452,31.2z"/>
	<path fill="#3DADA8" d="M470.5,43.2c0,0.2,0,0.3,0,0.5c0,0.2,0,0.4,0,0.7c-0.2,0.3-0.5,0.6-1,0.9c-0.7,0.4-1.2,0.6-1.2,0.7
		c0,0.2-0.1,0.3-0.4,0.5c-0.6,0.3-1.6,0.6-3,0.9c-0.6,0.3-1.1,0.5-1.5,0.5c-0.2,0-0.3,0-0.4,0c-0.2,0.2-0.6,0.3-1,0.3
		c-0.2,0-0.6,0.1-1,0.1l-1.8-0.2c0,0-0.1,0-0.2,0c-0.1,0-0.2,0-0.2,0l-1.1-0.3c-0.2,0-0.3,0-0.3,0c-0.2,0-0.6-0.1-1.1-0.3
		c-0.5-0.2-0.9-0.4-1-0.4c-1.1-1.2-1.6-2.3-1.6-3.3c0-0.5,0.2-1.2,0.5-2.1c0.3-0.9,0.6-1.4,0.8-1.6c1.6-1.7,4.2-3.3,7.8-4.9
		c0.2-0.1,0.6-0.3,1.2-0.6c0.1,0,0.6-0.2,1.6-0.5c0.8-0.3,1.5-0.4,2-0.4c0,0,0.1,0,0.3,0c0.2,0,0.4,0,0.4,0c0.1,0,0.3,0,0.4-0.1
		l0.7,2c-0.2,0.3-0.4,0.7-0.7,1l0,0.2v0c-0.1,0.1-1.5,0.7-4.3,2c-0.1,0.1-0.3,0.3-0.6,0.6c-0.8,0.3-1.7,0.6-2.8,1
		c-0.9,0.4-1.6,1-2,1.9c0,0,0,0.1,0,0.2c0.6,0.4,1.5,0.6,2.6,0.6l7-0.8l1.9,0.5L470.5,43.2z"/>
	<path fill="#3DADA8" d="M490.9,40.7c0,0.8-0.2,1.4-0.7,2c0,0.1-0.1,0.3-0.2,0.6c-0.4,0.5-0.9,1.1-1.6,2c-1.1,0.7-2.2,1.4-3.1,2
		c-2.3,0.8-4.1,1.2-5.3,1.2h-1c-0.1,0-0.2,0-0.4-0.1c0,0,0,0,0,0c-0.3,0-1.1-0.2-2.4-0.6c-0.6-0.3-1.4-0.9-2.4-1.8
		c-0.1-0.3-0.4-0.7-0.7-1.3c-0.3-1.2-0.5-2.1-0.5-2.8l0.1-1.4v-2.2c0-0.1,0.1-0.4,0.3-1c0.2-0.6,0.3-1,0.4-1.3
		c0.2-0.5,1-1.2,2.3-2.1c0.2-0.1,0.6-0.2,1.1-0.3c0.1-0.1,0.3-0.2,0.5-0.3c0,0,0.1,0.1,0.2,0.1l0.9-0.3c0.6-0.2,1.1-0.3,1.5-0.3h2.9
		c0.3,0,0.7,0.1,1.1,0.2c0,0,0,0,0.1,0c0.7,0,2.1,0.7,4.2,2v0.3c0.3,0.3,0.8,0.7,1.4,1c0.2,0.2,0.6,1.1,1.3,2.5
		C490.8,39.4,490.9,40,490.9,40.7z M487.4,39.7v-0.4c-0.8-1.3-1.6-2-2.2-2c0,0-0.1,0-0.1,0c0,0-0.1,0-0.1,0h-0.2
		c-0.2-0.3-0.6-0.5-1.4-0.5c-0.1,0-0.2,0-0.3,0l-1.7,0.1l-3.7,0.7l-0.2,0.3v0.5c0,0.1,0,0.3,0.1,0.5c0,0.1-0.1,0.2-0.3,0.3
		c0.1,0.2,0.1,0.3,0.2,0.4c-0.2,0.2-0.3,0.3-0.5,0.3c0,0-0.2,0.3-0.4,0.8c-0.3,0.5-0.4,0.8-0.4,1c0,0,0,0.1,0.1,0.3
		c0.3,0.4,0.8,0.7,1.5,1c0.7,0.3,1.3,0.4,1.9,0.4c1.2-0.2,1.9-0.3,2.1-0.3l2.5-1c1.2-0.5,2-0.9,2.4-1.3
		C487.2,40.4,487.4,40,487.4,39.7z"/>
	<path fill="#3DADA8" d="M499,24.6l-2.7,24c-0.3,0-0.7,0.1-1.1,0.2c-0.1,0-0.2-0.1-0.3-0.2l-0.2,0c-0.1,0-0.3,0-0.4,0
		c0,0-0.3-0.3-0.8-0.6c-0.1,0-0.2,0.1-0.4,0.3c-0.1-0.2-0.2-0.4-0.3-0.7c-0.2-1.4-0.3-2.2-0.3-2.5l1.3-10.9c0.4-3,0.8-6.8,1.2-11.4
		c0.1-0.3,0.2-0.9,0.5-1.8c0.2-0.7,0.4-1.2,0.8-1.5l0.7,0.1c0.3,0.3,0.6,0.5,0.8,0.5c0.1,0.1,0.3,0.5,0.7,1c0.3,1,0.5,1.6,0.5,1.8
		V24.6z"/>
	<path fill="#3DADA8" d="M517.4,44.6c-0.1,0.2-0.3,0.5-0.5,0.9c-0.1,0-0.2,0-0.3-0.1c-0.1,0-0.3,0.1-0.5,0.3
		c0.2,0.1,0.5,0.2,0.9,0.4c-0.1,0-0.4,0.3-0.8,0.6c-0.4,0.2-1.1,0.3-1.9,0.5c-0.3,0.2-0.4,0.4-0.5,0.7l-3.9,0.5
		c-2.8-0.2-5-0.8-6.6-1.9c-1.2-1.2-1.9-2.6-2.2-4.2c-0.1-0.2-0.2-0.4-0.2-0.5c0-1,0.4-2.2,1.3-3.6c0.9-1.5,2-2.5,3.1-3
		c0.1,0,0.2,0,0.5,0c0.5-0.4,1.3-0.8,2.6-1.1c1.1-0.3,2-0.4,2.8-0.4c0.7,0,1.5,0.2,2.3,0.7c0,0,0,0.2,0,0.4c0.2,0,0.4,0.1,0.7,0.2
		c0,0.1,0.1,0.2,0.2,0.3c0,0.4,0.1,0.9,0.4,1.5v0.7c0,0.1-0.1,0.2-0.2,0.3c0.1,0.1,0.1,0.2,0.1,0.3c0,0.2-0.1,0.5-0.3,0.8
		c0,0.1,0,0.3-0.1,0.6c-0.2,0.3-0.5,0.8-0.9,1.4l-3.3,2.4c0.3,0.2,1.2,0.3,2.7,0.3l3.8,0.1C516.7,43.9,517,44.2,517.4,44.6z
		 M510.2,37.8L510.2,37.8c0,0,0-0.1-0.1-0.2c-0.8,0.3-1.3,0.5-1.6,0.7c-0.7,0.4-1.3,0.8-1.5,1.3c0.1,0,0.1,0,0.2,0.1
		C508.6,39.1,509.6,38.5,510.2,37.8z"/>
	<path fill="#3DADA8" d="M557.8,39.8c0,0,0,0.2-0.1,0.4c-0.1,0.2-0.2,0.4-0.2,0.6c0,0.5-0.3,1.2-0.9,1.9c-0.6,0.7-1.2,1.2-1.8,1.5
		c-0.5,0.2-0.8,0.3-0.9,0.5l-3.3,1.6l-3.1,1l-0.1-0.1l-5.3,1.3c-0.1-0.1-0.2-0.1-0.3-0.1c-0.1,0-0.2,0-0.3,0.1l-1.5-0.6l-0.4,3.1V52
		l-0.5,4.6l0.1,3.2l-0.2,2.7c0,0-0.1,0.1-0.3,0.3c-0.1,0.2-0.3,0.2-0.4,0.2c-0.1,0-0.2-0.1-0.3-0.3c0,0,0,0.1-0.1,0.1l-0.2,0.2
		c0,0,0,0,0,0c-0.2,0-0.3-0.1-0.5-0.3c-0.8-0.4-1.3-1-1.6-2.1c-0.2-1.5-0.3-2.3-0.3-2.4V55l0.5-6.1c0.1-0.8,0.6-4.1,1.7-9.8
		c0.3-0.8,0.7-1.2,1.2-1.2l0.6,0.1c0.4,0.2,0.7,0.6,0.9,1c0.3,0.6,0.5,1,0.5,1.1c0,0,0,0.2,0,0.7l-0.3,3.1c0,0.2,0,0.4,0.1,0.7
		c1.2-0.5,2.7-1.1,4.4-1.8c1.8-0.3,3.7-0.9,5.7-2c0.1,0,0.2-0.1,0.4-0.1c0.4-0.3,0.7-0.5,1-0.5c0.4-0.3,0.9-0.8,1.7-1.6
		c-0.2-0.5-0.6-0.9-1.2-1.2c-1-0.6-1.5-0.9-1.6-0.9l-0.3,0.1l-0.6-0.3l-0.2,0c-0.1,0-0.2,0-0.2,0l-1.8-0.4l-3.7,0.1
		c-0.1,0-0.3,0-0.5,0.1c-0.4,0.1-0.7,0.1-0.7,0.1c-1.8,0.2-3.2,0.6-4.3,1.2c-0.3,0-0.8,0.3-1.6,0.7c-1,0.5-1.5,1-1.5,1.5
		c0,0.2,0.1,0.4,0.3,0.7c-0.1,0.1-0.1,0.1-0.3,0.1c-0.1,0.1-0.1,0.2-0.1,0.3c0,0,0,0.1,0,0.1c0,0-0.1,0-0.2,0c-0.1,0-0.1,0-0.2,0
		l-0.2,0.5c-0.1,0-0.2-0.1-0.4-0.2c0,0-0.1,0.1-0.2,0.2h-0.4c-0.1-0.1-0.2-0.2-0.3-0.4l-0.2,0.2c-0.2-0.3-0.5-0.6-0.7-0.7
		c0-0.3-0.1-0.6-0.1-0.8l-0.1-0.3v-1.4l0.3-0.4c0,0,0-0.1,0-0.1c0-0.4,0.2-0.8,0.7-1.2c0.4-0.3,0.8-0.6,1.2-0.9
		c0.1-0.2,0.2-0.3,0.3-0.5c0.2,0.1,0.3,0.1,0.4,0.1l5.1-2.4l3.2-0.9c0.4,0.1,0.8,0.2,1.2,0.2c0,0,0.1,0,0.3-0.1
		c0.2-0.1,0.3-0.1,0.3-0.1h1.6c0,0,0.1-0.1,0.2-0.1c0.6,0.1,1.1,0.2,1.5,0.3c0.5,0,0.9,0,1.2,0.1c0.6,0.1,1.1,0.2,1.5,0.5
		c0,0,0.1,0,0.2,0s0.2,0,0.2,0c1.2,0,2.5,0.8,3.8,2.4c0.3,0.4,0.7,0.9,1.2,1.6C557.5,37.9,557.8,39.1,557.8,39.8z"/>
	<path fill="#3DADA8" d="M574.9,38.2c-0.1,0.6-0.4,1.7-0.7,3.3c-0.2,0.7-0.6,1.6-1.3,2.8c-0.7,1-1.3,1.7-1.6,2.1
		c-0.7,0.8-1.5,1.2-2.2,1.4c-0.3,0.1-0.7,0.3-1.3,0.5c-0.9,0.2-1.5,0.3-1.7,0.3c-2.3,0-4.3-1.8-6-5.3c-0.2-0.9-0.3-1.7-0.3-2.3
		c0-0.4,0.1-1,0.3-1.8c0.6-0.5,1-0.7,1.2-0.7h0c1.3,0.6,1.9,1.5,1.9,2.8c0,0.5,0.3,1.2,1,2c0.7,0.3,1.1,0.5,1.1,0.5h0.5
		c0.1,0,0.6-0.2,1.3-0.4c1-0.7,1.7-1.2,2.1-1.5c0.8-0.7,1.2-1.4,1.3-2.1c0.1-0.4,0.5-1.4,1-3c0.3-1.1,0.7-1.8,1-2.2c0,0,0.1,0,0.2,0
		c0.1,0,0.2,0,0.3,0h0.5c0.1,0.1,0.2,0.3,0.4,0.4c0.2,0.4,0.5,0.9,0.9,1.5c0,0.1,0,0.3,0,0.4c0,0.2,0,0.3,0,0.5c0,0.1,0,0.2,0,0.3
		C574.8,37.9,574.8,38,574.9,38.2z"/>
	<path fill="#3DADA8" d="M598.8,38.6c0,0.2-0.3,1-1,2.4c-0.3,0.2-0.5,0.5-0.6,0.8c-1.2,1.1-2.7,2.1-4.4,3c-0.3,0.2-1.8,0.8-4.4,2
		c-0.4,0.1-0.9,0.2-1.7,0.4c-0.8,0.2-1.2,0.3-1.2,0.3s-0.1,0-0.3,0c-0.2,0-0.3,0-0.3,0c-0.3-0.3-0.6-0.5-0.9-0.5c-0.1,0-0.1,0-0.2,0
		c-0.1-0.1-0.2-0.3-0.4-0.6c-0.1,0.3-0.3,0.6-0.5,0.9c-0.2,0.1-0.3,0.1-0.5,0.1c-0.1,0-0.1,0-0.2,0l-0.3,0.3h-0.2
		c-0.1,0-0.3-0.1-0.9-0.4c-0.3,0.1-0.4,0.1-0.5,0.1c-0.5-0.4-0.8-0.8-0.8-1.1c-0.2-0.3-0.4-0.8-0.5-1.3c-0.2-0.3-0.3-0.6-0.3-0.9
		c0-0.2-0.1-0.5-0.1-0.9c-0.1-0.4-0.1-0.7-0.2-0.7v0.1v-1.6c-0.1-0.5-0.1-0.9-0.1-1.1c0-0.1,0-0.1,0-0.1c0-0.1,0-0.3,0-0.4
		c0-0.2,0-0.4,0.1-0.6c-0.1-0.2-0.4-0.4-1-0.6c-0.4-0.4-0.6-0.9-0.6-1.5c0-0.4,0.2-0.8,0.5-1.3c0.3-0.5,0.6-0.8,0.9-1l0.1-7.7
		c0-0.5,0.1-1.6,0.2-3.2c0.1-0.9,0.3-1.7,0.7-2.4c0.1-0.1,0.2-0.2,0.4-0.3c0.4-0.2,0.6-0.3,0.8-0.3c0,0,0.1,0,0.3,0.1
		c0.2,0.1,0.3,0.1,0.3,0.1c0.1,0.3,0.4,0.7,0.8,1.2c0.1,0.4,0.3,0.9,0.5,1.5c0,0.1,0,0.1,0,0.2c0,0.2,0,0.4,0,0.7
		c0,0.3,0.1,0.7,0.1,1.1l0.3,7.4c0,0.1,0.1,0.1,0.2,0.2c0.1,0,0.4-0.1,1.1-0.1l3.2-0.3l3.1,0.1c0.1,0,0.5,0,1.2,0.1
		c0.8,0.2,1.6,0.3,2.2,0.5c0.1,0.1,0.3,0.2,0.6,0.3c0.8,0.2,1.7,0.7,2.6,1.6c0.8,0.8,1.3,1.5,1.6,2.3
		C598.5,38.1,598.7,38.6,598.8,38.6C598.8,38.6,598.8,38.6,598.8,38.6z M593.7,38.6v-0.2c-0.2-0.3-0.6-0.6-1-0.9
		c-1.1-0.4-2.4-0.7-3.8-0.8c-0.2-0.1-0.4-0.1-0.4-0.1h0l-3.1,0.1c-0.5,0-1.5,0.3-2.9,0.8V38c0,0,0,0.1,0.1,0.2
		c0.1,0.1,0.1,0.2,0.1,0.2v1.6l0.6,4.1c0,0,0.1-0.1,0.2-0.1c0-0.1,0.1-0.2,0.2-0.3c0.8-0.5,2.1-1.1,4-1.7c1.8-0.7,2.9-1.2,3.3-1.5
		C591.3,40.5,592.2,39.8,593.7,38.6z"/>
	<path fill="#3DADA8" d="M606.7,24.6l-2.7,24c-0.3,0-0.7,0.1-1.1,0.2c-0.1,0-0.2-0.1-0.3-0.2l-0.2,0c-0.1,0-0.3,0-0.4,0
		c0,0-0.3-0.3-0.8-0.6c-0.1,0-0.2,0.1-0.4,0.3c-0.1-0.2-0.2-0.4-0.3-0.7c-0.2-1.4-0.3-2.2-0.3-2.5l1.3-10.9c0.4-3,0.8-6.8,1.2-11.4
		c0.1-0.3,0.2-0.9,0.5-1.8c0.2-0.7,0.4-1.2,0.8-1.5l0.7,0.1c0.3,0.3,0.6,0.5,0.8,0.5c0.1,0.1,0.3,0.5,0.7,1c0.3,1,0.5,1.6,0.5,1.8
		V24.6z"/>
	<path fill="#3DADA8" d="M613.5,42.6L613.5,42.6c0,0,0,0,0,0.2c0,0.2-0.1,0.5-0.1,0.8c0,0.4,0,0.8,0,1.4v1.6l-0.5,1.1l-0.3-0.1
		c-0.1,0.1-0.2,0.1-0.3,0.2c-0.1,0-0.2-0.1-0.3-0.2c-0.1,0-0.2,0.1-0.3,0.2c-0.1-0.1-0.5-0.2-1.3-0.4c-0.4-0.6-0.7-1.6-1-3.1
		c-0.1-0.3-0.1-0.6-0.1-1c0-0.1,0-0.3,0-0.4l0.1-2.7l0.4-1.8c0.3-0.3,0.5-0.5,0.5-0.8l0.8-0.2c0.1,0,0.3,0.1,0.5,0.2
		c0.3,0.4,0.8,0.9,1.4,1.5c0.3,0.6,0.5,1.1,0.5,1.6L613.5,42.6z M614.3,31.2c-0.1,0.1-0.1,0.2-0.2,0.3c0.1,0.3,0.2,0.5,0.2,0.7
		c-0.1,0.2-0.4,0.3-0.8,0.6c0-0.1-0.1-0.1-0.3-0.1c-0.2,0-0.3,0-0.3,0.1c-0.4-0.2-0.9-0.4-1.5-0.5c-0.4-0.9-0.6-1.4-0.6-1.6
		c0,0,0,0,0,0l0.2-1.7c0.1,0,0.3-0.2,0.5-0.4h1c0.3,0.2,0.7,0.5,1,1.1c0.3,0.1,0.5,0.3,0.6,0.6C614.2,30.8,614.3,31.1,614.3,31.2z"
		/>
	<path fill="#3DADA8" d="M632.9,43.2c0,0.2,0,0.3,0,0.5c0,0.2,0,0.4,0,0.7c-0.2,0.3-0.5,0.6-1,0.9c-0.7,0.4-1.2,0.6-1.2,0.7
		c0,0.2-0.1,0.3-0.4,0.5c-0.6,0.3-1.6,0.6-3,0.9c-0.6,0.3-1.1,0.5-1.5,0.5c-0.2,0-0.3,0-0.4,0c-0.2,0.2-0.5,0.3-1,0.3
		c-0.2,0-0.6,0.1-1,0.1l-1.8-0.2c0,0-0.1,0-0.2,0s-0.2,0-0.2,0l-1.1-0.3c-0.2,0-0.3,0-0.3,0c-0.2,0-0.6-0.1-1.1-0.3
		c-0.5-0.2-0.9-0.4-1-0.4c-1.1-1.2-1.6-2.3-1.6-3.3c0-0.5,0.2-1.2,0.5-2.1c0.3-0.9,0.6-1.4,0.8-1.6c1.6-1.7,4.2-3.3,7.8-4.9
		c0.2-0.1,0.6-0.3,1.2-0.6c0.1,0,0.6-0.2,1.6-0.5c0.8-0.3,1.5-0.4,2-0.4c0,0,0.1,0,0.3,0c0.2,0,0.4,0,0.4,0c0.1,0,0.3,0,0.4-0.1
		l0.7,2c-0.2,0.3-0.4,0.7-0.7,1l0,0.2v0c-0.1,0.1-1.5,0.7-4.3,2c-0.1,0.1-0.3,0.3-0.6,0.6c-0.8,0.3-1.7,0.6-2.8,1
		c-0.9,0.4-1.6,1-2,1.9c0,0,0,0.1,0,0.2c0.6,0.4,1.5,0.6,2.6,0.6l7-0.8l1.9,0.5L632.9,43.2z"/>
	<path fill="#3DADA8" d="M688.1,22.4c-0.1,0.2-0.1,0.5-0.2,1c0,0.5-0.1,0.8-0.1,0.9c0.1,0.2,0.2,0.3,0.2,0.5c0,0-0.1,0-0.2,0
		c-0.1,0-0.1,0-0.2,0c-0.1,0.3-0.3,0.7-0.7,1.2c0.1,0.2,0.1,0.2,0.1,0.2c-0.1,0.1-0.2,0.2-0.4,0.3l-2.1-0.2l-3,0.2c0,0,0,0,0,0
		c-0.1,0-0.1-0.1-0.2-0.2c0,0,0,0,0,0c-0.1,0-0.2,0.1-0.4,0.2c-0.1,0-0.2,0-0.5,0s-0.4,0-0.5,0c-0.4,0-0.7,0-0.9,0.1
		c0-0.1-0.1-0.2-0.2-0.3c0,0.1-0.2,0.1-0.4,0.1l-1.6,0.5c-0.1,0-0.3,0-0.6,0l-0.4,0c-0.1,0-0.2-0.1-0.3-0.2l-0.1,0.2
		c0,0-0.2,0-0.6,0.1c-0.3,0.1-0.5,0.1-0.5,0.1c0,0-0.2,0-0.6-0.1c-0.4-0.1-0.6-0.1-0.6-0.1l-1.9,0.2c-0.1,0.2-0.2,0.3-0.2,0.3
		c-0.1-0.1-0.2-0.1-0.3-0.3c-0.2,0.1-0.3,0.1-0.4,0.1c-0.1,0-0.2,0-0.3-0.1c-0.2,0.1-0.2,0.2-0.2,0.3h-0.9c0,0.1-0.1,0.1-0.1,0.2
		l-2.2,0.5c-0.4,1-0.8,3-1.4,6.1c0,0.2,0,0.3,0,0.5c0,0.1,0,0.2,0,0.3c-0.8,4.8-1.2,8.4-1.3,10.8c-0.1,0.1-0.2,0.1-0.4,0.1
		c-0.1,0.3-0.1,0.5-0.1,0.7c-0.4,0.2-0.6,0.4-0.8,0.6h0.1c-0.1-0.1-0.6-0.2-1.5-0.3c-0.2-0.4-0.2-0.6-0.3-0.6c0,0-0.1,0-0.3,0
		c-0.2-0.3-0.4-0.7-0.7-1.3l0.1-4l1.4-8.7c0.2-0.9,0.5-2,0.7-3V29c-0.1-0.1-0.1-0.2-0.2-0.3c-0.5,0.1-0.7,0.2-0.7,0.2h0
		c0,0-0.1,0-0.2-0.1c-0.1-0.1-0.1-0.1-0.1-0.1c0,0-0.3,0.1-0.7,0.2c-0.4,0.1-0.7,0.2-0.7,0.2c0,0-0.1,0-0.3,0c-0.2,0-0.3,0-0.3,0
		l-2,0.4c-0.2-0.1-0.4-0.1-0.4-0.1l-2.7,0.6l-2.7,0.3l-1.5,0c-0.4-0.3-0.7-0.5-1.1-0.6c-0.1-0.1-0.1-0.2-0.1-0.3
		c-0.1-0.1-0.2-0.2-0.3-0.2c0,0,0-0.1,0-0.1c0-0.2-0.1-0.4-0.3-0.7v-0.4l0.7-2.3c0.2-0.1,0.6-0.3,1-0.6c1.4-0.3,4.2-0.7,8.3-1.3
		l24.1-3h5.1c0,0.1,0.2,0.3,0.5,0.7c0.3,0.4,0.4,0.6,0.4,0.7c0,0.1,0,0.1,0,0.1C687.8,22.3,687.9,22.3,688.1,22.4z"/>
	<path fill="#3DADA8" d="M690.9,37c-0.1,0-0.2,0.1-0.4,0.2c0,0.1,0,0.2,0,0.2l0.3,0.3c-0.5,0.1-0.9,0.3-1.4,0.5l-2.8-0.6
		c-0.5,0-1.2,0.1-2,0.3c-1,0.3-1.9,0.6-2.7,0.8c-1.6,0.6-3,1.2-4.3,1.8c-1.7,0.8-2.8,2-3.2,3.6c0,0.1,0,0.5,0.2,1.2v0.5
		c-0.1,0.2-0.2,0.3-0.2,0.5c0,0.1,0,0.1,0,0.2c0,0.1,0.1,0.2,0.2,0.3l-1.5,1h-0.3c-0.2-0.1-0.5-0.3-0.8-0.6l-0.4,0.1
		c-0.1-0.2-0.3-0.5-0.5-0.8c-0.1-0.3-0.2-0.5-0.3-0.7l-0.2-1v-1.3c0,0,0-0.1,0-0.2c0-0.1,0-0.2,0-0.2v-1.4c0-0.4,0.2-1.1,0.5-2.1
		c0.4-1.3,0.8-1.9,1.2-1.9h0.5l0.5,0.5h0.2c0.3,0,1.2-0.5,2.8-1.5c1.1-0.5,2.8-1.2,5-2.2c0.1,0,0.6-0.2,1.5-0.6
		c0.2,0,0.7-0.1,1.4-0.3l1.1-0.2h1.5c1.1,0,2.3,0.7,3.7,2.1c0.1,0.1,0.1,0.2,0.1,0.4c0.3,0.3,0.4,0.5,0.4,0.8V37z"/>
	<path fill="#3DADA8" d="M710.4,44.8c-0.3,0.3-0.6,0.8-1.1,1.4l-0.5-0.1c0,0.1-0.1,0.2-0.2,0.4c-0.1-0.1-0.3-0.2-0.6-0.4
		c0,0,0,0-0.1,0c-0.3,0-0.9-0.3-1.7-1c-0.2-0.4-0.6-1.1-1.4-2.1l-4,3c0,0,0,0.1,0.1,0.1c0,0.1,0.1,0.1,0.1,0.1
		c-0.1,0.2-0.5,0.4-1.3,0.8c-2.2,0.7-3.3,1-3.3,1c-1.6,0-2.8-0.6-3.7-1.8c-0.4-1.2-0.7-2-0.7-2.6c0-0.4,0.4-1.4,1.2-3.3
		c0.7-0.8,1.2-1.2,1.5-1.2c0.1-0.1,0.9-0.6,2.2-1.6c0.6-0.3,1.7-0.7,3.1-1.3c1.4-0.3,2.2-0.5,2.2-0.6h0c0.1,0,0.4,0,0.8,0.1
		c0.3,0,0.6,0,0.8,0c0.1,0,0.2,0,0.2,0c0.6,0.3,0.9,0.6,0.9,0.9c0,0,0,0.1,0,0.1c0.1,0.1,0.4,0.5,0.8,1.3c0.1,0,0.2,0,0.3,0
		c0.4,0,0.9,0.2,1.3,0.6c0.7,1.1,1.3,2,1.8,2.9C709.7,42.9,710.2,43.9,710.4,44.8z M703,40.2h-0.8c-0.3,0-0.9,0.2-1.9,0.6l-1.7,0.7
		c-0.6,0.4-1.3,0.9-2.1,1.6l-0.1,0.2l0.9,0.1c2.1-0.5,3.7-1.4,4.9-2.6C702.4,40.7,702.6,40.5,703,40.2z"/>
	<path fill="#3DADA8" d="M729.1,43.2c0,0.2,0,0.3,0,0.5c0,0.2,0,0.4,0,0.7c-0.2,0.3-0.5,0.6-1,0.9c-0.7,0.4-1.2,0.6-1.2,0.7
		c0,0.2-0.1,0.3-0.4,0.5c-0.6,0.3-1.6,0.6-3,0.9c-0.6,0.3-1.1,0.5-1.5,0.5c-0.2,0-0.3,0-0.4,0c-0.2,0.2-0.5,0.3-1,0.3
		c-0.2,0-0.6,0.1-1,0.1l-1.8-0.2c0,0-0.1,0-0.2,0c-0.1,0-0.2,0-0.2,0l-1.1-0.3c-0.2,0-0.3,0-0.3,0c-0.2,0-0.6-0.1-1.1-0.3
		c-0.5-0.2-0.9-0.4-1-0.4c-1.1-1.2-1.6-2.3-1.6-3.3c0-0.5,0.2-1.2,0.5-2.1c0.3-0.9,0.6-1.4,0.8-1.6c1.6-1.7,4.2-3.3,7.8-4.9
		c0.2-0.1,0.6-0.3,1.2-0.6c0.1,0,0.6-0.2,1.6-0.5c0.8-0.3,1.5-0.4,2-0.4c0,0,0.1,0,0.3,0c0.2,0,0.4,0,0.4,0c0.1,0,0.3,0,0.4-0.1
		l0.7,2c-0.2,0.3-0.4,0.7-0.7,1l0,0.2v0c-0.1,0.1-1.5,0.7-4.3,2c-0.1,0.1-0.3,0.3-0.6,0.6c-0.8,0.3-1.7,0.6-2.8,1
		c-0.9,0.4-1.6,1-2,1.9c0,0,0,0.1,0,0.2c0.6,0.4,1.5,0.6,2.6,0.6l7-0.8l1.9,0.5L729.1,43.2z"/>
	<path fill="#3DADA8" d="M745.3,40.5c0,1.2-0.6,3.8-1.7,7.6c-0.2,0.6-1,2.9-2.5,7c0,0.1,0.1,0.1,0.2,0.1H741l-1.4,3.4l-1.6,5
		c-0.1,0.1-0.4,0.3-0.8,0.8c-0.1,0-0.2,0-0.5,0.1l-0.4,0.1c0,0-0.2,0-0.4-0.1c-0.3-0.3-0.8-0.9-1.5-1.6c-0.2-0.8-0.4-1.6-0.4-2.3
		l0.4-2.2l1.5-4.3l2.8-6.8c0-0.1-0.1-0.2-0.1-0.3c-1.1,0.3-1.9,0.5-2.3,0.5c-1.7,0-3-1.1-4-3.2c-0.8-1.7-1.2-3.5-1.2-5.4
		c0-0.5,0.1-1,0.3-1.6c0.2-0.2,0.5-0.5,0.9-0.9h0.2c0.5,0,1,0.4,1.5,1.2c0.2,0.3,0.4,0.7,0.5,1.3c0.5,2.4,0.9,3.6,1.3,3.6
		c0.8,0,2-0.6,3.4-1.8c1.2-1,2.2-2,3-3c0.2,0,0.4-0.1,0.6-0.3c0.2,0.1,0.5,0.1,0.8,0.1c0.2,0.2,0.4,0.5,0.8,0.9
		c0.1,0,0.2,0.1,0.3,0.1C745.1,39,745.3,39.7,745.3,40.5z"/>
	<path fill="#3DADA8" d="M787.4,22.6c-0.1,0.3-0.3,0.9-0.4,1.6c-0.2,0.3-0.4,0.8-0.8,1.5c-0.5,0.6-0.8,1.3-1,1.9
		c-0.1,0.1-0.4,0.6-1.1,1.6c-0.7,1.4-1.3,2.5-2,3.3l-2.6,5.3l-2.3,3.8c-0.1,0.1-0.1,0.3-0.1,0.5c-0.8,1.4-1.8,3.1-3,5.2
		c-0.1,0.3-0.3,0.4-0.4,0.5l0.1,0.3c-0.2,0.2-0.3,0.2-0.5,0.2c-0.2,0.3-0.3,0.5-0.4,0.7c-0.1,0-0.2,0-0.6,0c-0.3,0-0.5,0.1-0.5,0.1
		l-0.1-0.1l-1.3-0.4c-1.2-1.5-2.2-3.3-3-5.6c-0.3-0.9-0.9-2.7-1.7-5.3c0-0.1-0.1-0.3-0.1-0.7c-0.1-0.1-0.1-0.2-0.2-0.3
		c0-0.1-0.2-1-0.7-2.5c-0.4-1.4-1-4-1.7-7.6l0.6-2.7c0.3-0.1,0.5-0.3,0.8-0.5h0.3c0.2,0,0.6,0.4,1.3,1.2c0.6,0.9,1,2,1.4,3.3
		l1.1,3.9l3.5,10c0.6-0.6,1.3-1.7,2.2-3.1c0.9-1.5,1.8-3,2.7-4.5c0.2-0.4,0.8-1.2,1.6-2.6c0.1-0.2,0.1-0.3,0.1-0.4
		c0.1-0.2,0.3-0.4,0.6-0.8c1-1.6,2.5-4.4,4.6-8.6c0.3-0.4,0.7-1,1.4-1.9c0.1,0,0.2-0.1,0.4-0.3c0,0,0.1,0,0.1,0c0.1,0,0.3,0,0.4-0.1
		c0,0.1,0,0.3,0.1,0.5c0.2,0.1,0.5,0.2,0.8,0.2L787,21c0.1,0,0.2,0.1,0.4,0.2c0,0.1,0,0.3,0,0.5C787.4,22,787.4,22.3,787.4,22.6z"/>
	<path fill="#3DADA8" d="M794.8,42.6L794.8,42.6c0,0,0,0,0,0.2c0,0.2-0.1,0.5-0.1,0.8c0,0.4,0,0.8,0,1.4v1.6l-0.5,1.1l-0.3-0.1
		c-0.1,0.1-0.2,0.1-0.3,0.2c-0.1,0-0.2-0.1-0.3-0.2c-0.1,0-0.2,0.1-0.3,0.2c-0.1-0.1-0.5-0.2-1.3-0.4c-0.4-0.6-0.7-1.6-1-3.1
		c0-0.3-0.1-0.6-0.1-1c0-0.1,0-0.3,0-0.4l0.1-2.7l0.4-1.8c0.3-0.3,0.5-0.5,0.5-0.8l0.8-0.2c0.1,0,0.3,0.1,0.5,0.2
		c0.3,0.4,0.8,0.9,1.4,1.5c0.3,0.6,0.5,1.1,0.5,1.6L794.8,42.6z M795.7,31.2c-0.1,0.1-0.1,0.2-0.2,0.3c0.1,0.3,0.2,0.5,0.2,0.7
		c-0.1,0.2-0.4,0.3-0.8,0.6c0-0.1-0.1-0.1-0.3-0.1c-0.2,0-0.3,0-0.3,0.1c-0.4-0.2-0.9-0.4-1.5-0.5c-0.4-0.9-0.6-1.4-0.6-1.6
		c0,0,0,0,0,0l0.2-1.7c0.1,0,0.3-0.2,0.5-0.4h1c0.3,0.2,0.7,0.5,1,1.1c0.3,0.1,0.5,0.3,0.6,0.6C795.5,30.8,795.6,31.1,795.7,31.2z"
		/>
	<path fill="#3DADA8" d="M817.7,37c-0.1,0-0.2,0.1-0.4,0.2c0,0.1,0,0.2,0,0.2l0.3,0.3c-0.5,0.1-0.9,0.3-1.4,0.5l-2.8-0.6
		c-0.5,0-1.2,0.1-2,0.3c-1,0.3-1.9,0.6-2.7,0.8c-1.6,0.6-3,1.2-4.3,1.8c-1.7,0.8-2.8,2-3.2,3.6c0,0.1,0,0.5,0.2,1.2v0.5
		c-0.1,0.2-0.2,0.3-0.2,0.5c0,0.1,0,0.1,0,0.2c0,0.1,0.1,0.2,0.2,0.3l-1.5,1h-0.3c-0.2-0.1-0.5-0.3-0.8-0.6l-0.4,0.1
		c-0.1-0.2-0.3-0.5-0.5-0.8c-0.1-0.3-0.2-0.5-0.3-0.7l-0.2-1v-1.3c0,0,0-0.1,0-0.2c0-0.1,0-0.2,0-0.2v-1.4c0-0.4,0.2-1.1,0.5-2.1
		c0.4-1.3,0.8-1.9,1.2-1.9h0.5l0.5,0.5h0.2c0.3,0,1.2-0.5,2.8-1.5c1.1-0.5,2.8-1.2,5-2.2c0.1,0,0.6-0.2,1.5-0.6
		c0.2,0,0.7-0.1,1.4-0.3l1.1-0.2h1.5c1.1,0,2.3,0.7,3.7,2.1c0.1,0.1,0.1,0.2,0.1,0.4c0.3,0.3,0.4,0.5,0.4,0.8V37z"/>
	<path fill="#3DADA8" d="M835.7,44.6c-0.1,0.2-0.3,0.5-0.5,0.9c-0.1,0-0.2,0-0.3-0.1c-0.1,0-0.3,0.1-0.5,0.3
		c0.2,0.1,0.5,0.2,0.9,0.4c-0.1,0-0.4,0.3-0.8,0.6c-0.4,0.2-1.1,0.3-1.9,0.5c-0.3,0.2-0.4,0.4-0.5,0.7l-3.9,0.5
		c-2.8-0.2-5-0.8-6.6-1.9c-1.2-1.2-1.9-2.6-2.2-4.2c-0.1-0.2-0.2-0.4-0.2-0.5c0-1,0.4-2.2,1.3-3.6c0.9-1.5,2-2.5,3.1-3
		c0.1,0,0.2,0,0.5,0c0.5-0.4,1.3-0.8,2.6-1.1c1.1-0.3,2-0.4,2.8-0.4c0.7,0,1.5,0.2,2.3,0.7c0,0,0,0.2,0,0.4c0.2,0,0.4,0.1,0.7,0.2
		c0,0.1,0.1,0.2,0.2,0.3c0,0.4,0.1,0.9,0.4,1.5v0.7c0,0.1-0.1,0.2-0.2,0.3c0.1,0.1,0.1,0.2,0.1,0.3c0,0.2-0.1,0.5-0.3,0.8
		c0,0.1,0,0.3-0.1,0.6c-0.2,0.3-0.5,0.8-0.9,1.4l-3.3,2.4c0.3,0.2,1.2,0.3,2.7,0.3l3.8,0.1C835,43.9,835.3,44.2,835.7,44.6z
		 M828.5,37.8L828.5,37.8c0,0,0-0.1-0.1-0.2c-0.8,0.3-1.3,0.5-1.6,0.7c-0.7,0.4-1.3,0.8-1.5,1.3c0.1,0,0.1,0,0.2,0.1
		C827,39.1,827.9,38.5,828.5,37.8z"/>
</g>
</svg>
