<?xml version="1.0" encoding="utf-8"?>
<!-- Generator: Adobe Illustrator 27.4.1, SVG Export Plug-In . SVG Version: 6.00 Build 0)  -->
<svg version="1.1" id="Calque_1" xmlns="http://www.w3.org/2000/svg" xmlns:xlink="http://www.w3.org/1999/xlink" x="0px" y="0px"
	 viewBox="0 0 1000 1000" enable-background="new 0 0 1000 1000" xml:space="preserve">
<g id="logo">
	
		<g id="g883_00000022539221150303535710000012577670282461929904_" transform="matrix(0.94456457,0,0,0.94456457,10.968378,31.18083)">
		<g id="g2828_00000171696707967573187200000003861866410656769187_">
			<g id="g32_00000012470246598759000750000011345678251396794009_">
				<g>
					<g id="g2830_00000147216620090965507800000015131937843293734299_">
						<g id="g2836_00000138573249127852964640000007795465304216835220_" transform="translate(427.0015,362.0531)">
							<path id="path2838_00000179611919407770736170000005572243517571327650_" fill="#0099FF" d="M-275.4-356.2
								c2.4,15.7-3,34.2-17.5,42.5c-16.1,7.8-29.8,1.5-18,24.9c-0.1,0.1-0.2,0.2-0.3,0.2c-23.9-19.2,6.1-29.7,18.2-43
								c-0.1-0.1-0.2-0.2-0.2-0.3c-7.7,4.4-14.9,9.8-22.9,13.7c-0.6,0.3-1.1,0.3-1.1-0.6c0.2-8.1,3.4-17,11.4-20.5
								C-295.4-344.2-281.5-345.2-275.4-356.2"/>
						</g>
						<g id="g2840_00000151519121191915560580000013807043178792810383_" transform="translate(143.617,309.6074)">
							<path id="path2842_00000058565123737901383970000011303555799292898996_" fill="#97D123" d="M-80.4-287.6
								c17.8,18.2,60.2,34.7,25.4,61.1c23.2-43.5-23.4-17.7-42.1-51.6c-8.3-13.5-11.2-30-9.1-45.5c10.7,19.6,37.2,15.5,51.8,30.2
								c6.4,6.3,7.7,15,8.5,23.5c1.7,6.2-31-17.1-34.1-18C-80.2-287.9-80.3-287.7-80.4-287.6"/>
						</g>
						<g id="g2844_00000035489690301249952040000003686994366910632093_" transform="translate(65.4546,150.0839)">
							<path id="path2846_00000026142188087656289550000005365780029706677692_" fill="#336633" d="M-26.7-79.1
								C9.9-78.5,40-72.8,69.8-58.2c2.4,1,1.7,1.8-0.8,2.4c-4,1-8.1,2-12.1,3.1c-2.3,0.6-3.7,0.2-5.3-0.6
								c-6.8-3.6-13.3-7.4-20.7-10.7c-18.4-8.5-44.4-13.1-67.5-13.2c-1.9,0.2-3.7-0.2-5.4-0.8C-37.2-79.6-31.8-78.8-26.7-79.1"/>
						</g>
						<g id="g2848_00000170958630105484673390000005179589353395938983_" transform="translate(235.3552,55.1964)">
							<path id="path2850_00000051369547442575571340000007629012325295842726_" fill="#F9A72B" fill-opacity="0.9804" d="
								M-143.5,44.9c-19.1-1.5-44.4-6.8-53.2-20.2c22.3,1,38.8,8.6,53.9,19.5C-143.1,44.4-143.3,44.7-143.5,44.9"/>
						</g>
						<g id="g2852_00000003070772560924131070000015064573491751975856_" transform="translate(310.5638,57.8876)">
							<path id="path2854_00000103239456135586455770000018070281958382022323_" fill="#339933" d="M-195.3,41.4
								c-5.7,0.3-10.6,0.7-15.6,0.8c-1,0-2.5-0.7-3.2-1.3c-6.2-4.8-13.3-9.2-21.9-13c-10.9-4.8-23.4-7.9-37.8-8.7
								c-1.8,0.2-3-0.6-4.4-1.4C-249.8,15.6-215.2,26.7-195.3,41.4"/>
						</g>
						<g id="g2856_00000094593353856558934710000008448669540992617364_" transform="translate(458.8952,130.3764)">
							<path id="path2858_00000085235496936482419190000006022033728257513601_" fill="#FF9933" fill-opacity="0.9804" d="
								M-297.3-53.4c-4.4,6-9.8,9.8-17.1,13.6c-1.5,0.8-2.5,0.9-4,0c-2.9-1.8-6.1-3.4-9.2-5.1C-333.4-47.3-300.4-54.5-297.3-53.4"/>
						</g>
						<g id="g2860_00000048488434270573758610000001544392588597544632_" transform="translate(282.366,134.4695)">
							<path id="path2862_00000072972256618881377470000011231874001594268837_" fill="#336633" d="M-175.9-58.7
								c18.1-5.1,36.9-6.5,56.5-6.3c2.9,0.2,6-0.2,8.6,1.3c-0.9,0.2-1.8,0.7-2.8,0.7c-16,0.4-33.1,2-47.6,6.8
								C-166.5-54.4-170.3-57.5-175.9-58.7"/>
						</g>
						<g id="g2864_00000125584444432075455300000012340257352462951334_" transform="translate(319.906,119.4833)">
							<path id="path2866_00000087411332584606865660000005665633993601472692_" fill="#339933" d="M-201.7-39.1
								c14.3-4.1,28.8-6.7,44.9-7.2c1.4-0.1,4,0.3,4.1,0.6c0.3,1.3-1.9,1.5-3.8,1.6c-12.9,0.7-24.4,3.3-34.9,7.2
								C-195.4-35.6-197.5-37.8-201.7-39.1"/>
						</g>
						<g id="g2868_00000096740042981786078030000006680820221215785391_" transform="translate(274.1679,344.1267)">
							<path id="path2870_00000092448873560858500550000005256059467813953430_" fill="#666666" d="M-170.2-332.7
								c7.7,0,7.2,11-0.1,11C-177.8-321.7-178.1-333-170.2-332.7"/>
						</g>
					</g>
				</g>
			</g>
		</g>
	</g>
</g>
<g>
	<g id="texte_posture">
		<path fill="#FC6541" d="M411.7,878.7c2.8,0.6,5.5,1.2,8.3,1.8c-1.7,8.3-3.5,16.6-5.1,24.9c-2.3,11.1-8.5,14-17.1,12.1
			c-2.1-0.5-4.7-1.4-6.3-2.4c0.9-2.2,1.8-4.6,2.7-6.8c1.1,0.7,2.6,1.3,4.3,1.7c3.6,0.8,6.4-0.4,7.7-6.5
			C408,895.1,409.8,887,411.7,878.7z"/>
		<path fill="#FC6541" d="M427.9,911c-0.5,3.7,2.8,6.2,6.9,6.8c3,0.5,5.5,0.5,8,0.1c0.1,2.1,0.1,4.1,0.2,6.3
			c-3.2,0.7-6.8,0.7-10.7,0.1c-9.7-1.7-14.1-8.5-12.3-17.4c1.5-7.3,7.4-14.4,16.8-12.7c8.9,1.5,11,9.3,10,16.4
			c-0.3,1.6-0.7,2.9-0.8,3.5C439.9,913.2,433.9,912.1,427.9,911z M439.2,906.7c0.4-2.2,0.1-6-3.8-6.6c-3.6-0.7-5.7,2.5-6.5,4.9
			C432.4,905.5,435.7,906.1,439.2,906.7z"/>
		<path fill="#FC6541" d="M483.3,929.8c-1.7,0.6-4.8,0.8-8.2,0.5c-9.4-1-14.5-7.6-13.3-16.7c1.2-8.4,7.6-14.6,17.9-13.5
			c2.2,0.3,4.7,0.9,6.5,1.8c-0.7,2.2-1.3,4.4-2.1,6.5c-1-0.6-2.5-1.2-4.8-1.4c-4.6-0.5-8,2.5-8.5,7.3c-0.7,5.3,2.5,8.5,6.8,9
			c2.2,0.2,3.8,0,5.2-0.4C483.2,925.3,483.3,927.6,483.3,929.8z"/>
		<path fill="#FC6541" d="M517.6,918.2c-0.5,10.7-8.3,15.2-16.1,14.6c-8.5-0.7-14.5-6.8-13.6-16.2s7.4-14.8,16.3-14.1
			C512.7,903.1,518.1,909.4,517.6,918.2z M497.1,917.2c-0.4,5,1.3,8.9,5.1,9.2c3.5,0.3,5.9-3.2,6.3-8.4c0.3-4.3-1-8.8-5-9.1
			C499.3,908.6,497.5,912.9,497.1,917.2z"/>
		<path fill="#FC6541" d="M523.3,913.5c0.2-3.6,0.2-6.7,0.2-9.4c2.5,0.1,5,0.2,7.5,0.3c0.1,1.3,0.2,2.7,0.3,4c0.1,0,0.1,0,0.2,0
			c1.2-1.9,4.1-4.6,8.7-4.5c5.7,0.1,9.9,4,9.9,12.6c0,5.7,0,11.5,0,17.2c-3,0-6.1,0-9.1-0.1c0.1-5.4,0.2-10.8,0.3-16.2
			c0.1-3.7-1.2-6.4-4.3-6.4c-2.4-0.1-3.8,1.7-4.5,3.3c-0.3,0.6-0.4,1.4-0.4,2.2c-0.2,5.6-0.4,11.2-0.5,16.8c-3-0.1-6.1-0.2-9.1-0.3
			C522.7,926.7,523,920.1,523.3,913.5z"/>
		<path fill="#FC6541" d="M566.5,896.3c0.1,2.8,0.1,5.5,0.2,8.3c2.1,0,4.1-0.1,6.3-0.2c0.1,2.2,0.2,4.5,0.2,6.6
			c-2.1,0.1-4.2,0.1-6.3,0.2c0.1,3.6,0.2,7,0.3,10.6s0.9,5.1,3.6,5.1c1.1,0,2.1-0.2,2.6-0.4c0.1,2.3,0.2,4.6,0.3,6.9
			c-1.1,0.5-3.3,0.8-5.8,0.9c-2.9,0.1-5.4-0.9-6.8-2.4c-1.7-1.7-2.5-4.5-2.6-8.6c0-3.9-0.1-8-0.1-11.9c-1.2,0-2.5,0-3.7,0
			c0-2.2,0-4.5,0-6.6c1.2,0,2.4,0,3.7,0c0-2.1,0-4.2-0.1-6.3C561,897.8,563.7,897.1,566.5,896.3z"/>
		<path fill="#FC6541" d="M578.3,913.9c-0.2-4.3-0.4-7.1-0.7-9.5c2.4-0.1,5-0.2,7.4-0.4c0.2,1.8,0.4,3.6,0.6,5.3c0.1,0,0.2,0,0.2,0
			c1.2-4.3,4.5-6.3,7.2-6.5c0.8-0.1,1.2-0.1,1.9,0.1c0.2,2.8,0.4,5.7,0.6,8.5c-0.7-0.1-1.4-0.2-2.3-0.1c-3.2,0.2-5.3,2.1-5.7,5
			c-0.1,0.6-0.1,1.3-0.1,2.1c0.3,4.9,0.6,9.8,0.7,14.7c-3,0.2-6,0.3-9.1,0.4C578.9,926.9,578.6,920.4,578.3,913.9z"/>
		<path fill="#FC6541" d="M607.7,894.4c0.2,2.5-1.4,4.7-4.2,4.9c-2.7,0.2-4.6-1.7-4.8-4.2c-0.2-2.6,1.4-4.7,4.1-4.9
			C605.5,890,607.4,891.7,607.7,894.4z M601.6,932.2c-0.7-9.7-1.4-19.4-2.2-29.1c2.9-0.2,5.8-0.5,8.6-0.7c0.8,9.6,1.7,19.4,2.5,29
			C607.7,931.7,604.7,932,601.6,932.2z"/>
		<path fill="#FC6541" d="M617.6,930.8c-0.1-2-0.3-5.4-0.7-8.7c-1.1-11.1-2.2-22.3-3.3-33.4c2.8-0.3,5.6-0.6,8.4-0.8
			c0.6,5.5,1.2,11,1.8,16.5h0.1c1.4-2.7,4-4.6,7.9-5.1c6.6-0.8,12.3,4.2,13.5,13.1c1.5,10.4-4.3,16.5-10.9,17.3
			c-3.4,0.4-6.8-0.5-9.2-3.7h-0.1c0,1.4,0,2.7,0.1,4.1C622.7,930.3,620.1,930.6,617.6,930.8z M625.4,917.6c0.1,0.6,0.2,1.1,0.4,1.6
			c0.8,2.3,3.1,4,5.7,3.7c3.7-0.5,5.7-3.7,5.1-8.9c-0.6-4.5-3-7.8-7-7.3c-2.4,0.3-4.3,2.3-4.6,5.1c-0.1,0.6-0.1,1.1,0,1.7
			C625.2,914.8,625.4,916.2,625.4,917.6z"/>
		<path fill="#FC6541" d="M678.3,912.9c0.7,3.7,1.4,6.7,2,9.2c-2.5,0.5-5.1,0.9-7.7,1.4c-0.4-1.3-0.7-2.6-1.1-3.9
			c-0.1,0-0.1,0-0.2,0c-0.7,2-2.9,5.3-8,6.2c-5.8,0.9-10.7-2.1-12-10.9c-0.8-5.6-1.7-11.3-2.5-16.9c2.9-0.4,5.7-0.8,8.6-1.3
			c0.8,5.1,1.7,10.3,2.5,15.4c0.7,4.2,2.4,6.5,5.5,6c2.4-0.4,3.6-2.3,3.8-3.9c0.1-0.6,0.1-1.2,0-2c-1-5.7-2.1-11.4-3-17.1
			c2.8-0.5,5.7-1,8.5-1.5C675.9,899.9,677.1,906.3,678.3,912.9z"/>
		<path fill="#FC6541" d="M691.6,907.8c1,3.6,5.1,4.6,9.1,3.7c3-0.7,5.2-1.6,7.4-3c0.8,1.9,1.8,3.8,2.6,5.7c-2.6,1.9-6,3.3-9.8,4.1
			c-9.6,2.2-16.4-2.5-18.1-11.4c-1.4-7.3,1.3-16.1,10.7-18.1c8.8-2,13.8,4.4,15.5,11.4c0.4,1.5,0.6,2.9,0.6,3.6
			C703.6,905.3,697.6,906.6,691.6,907.8z M700.4,899.6c-0.5-2.2-2.2-5.5-6.1-4.7c-3.6,0.7-4.3,4.5-4.1,6.9
			C693.6,901.1,697,900.3,700.4,899.6z"/>
	</g>
</g>
<g>
	<g id="texte_picto_categorie">
		<path fill="#FC6541" d="M405.9,133.6c-1.2,1.4-4.4,3.7-8.9,5.9c-12.7,6.2-23.1,2.9-28.5-6.5c-6.5-11.1-0.5-22.9,12-29
			c4.9-2.3,9-3.2,10.9-3.2c0.3,2.3,0.7,4.7,1,7c-2.2,0.2-5.1,0.7-8.3,2.3c-7.2,3.5-10.8,10.1-6.7,17.5c3.6,6.7,10.2,8.5,17.9,4.9
			c2.6-1.2,5.2-3.1,6.7-4.5C403.2,129.9,404.5,131.7,405.9,133.6z"/>
		<path fill="#FC6541" d="M434.8,108.5c3.2,9.5-2.7,16.3-10.1,19.2c-8.1,3.1-16.4,0.9-20.1-7.1c-3.6-8,0.3-16.1,10-19.8
			C423.9,97.1,432.1,100.6,434.8,108.5z M413.7,116.5c1.8,4.3,5.2,6.8,9,5.3c3.5-1.3,4.5-5.2,2.7-9.9c-1.4-3.8-4.6-7.1-8.8-5.5
			C412.2,108.2,412.2,112.8,413.7,116.5z"/>
		<path fill="#FC6541" d="M439,102.2c-1-3.3-2.1-6-3-8.2c2.7-0.8,5.4-1.7,8.1-2.4c0.5,1.1,1,2.3,1.5,3.5c0.1,0,0.1,0,0.2-0.1
			c0.7-2.1,2.8-5.3,8.1-6.7c4.1-1,7.8-0.1,9.8,2.4h0.1c0.8-1.7,2-3.1,3.3-4.2c1.5-1.2,3.4-2.2,5.7-2.6c6.1-1.3,11.5,1.6,13,9.6
			c1,5.3,2.1,10.6,3,15.9c-3,0.6-6,1.1-9,1.8c-1-4.9-2.1-9.7-3.2-14.6c-0.8-3.9-2.8-5.9-6-5.1c-2.2,0.5-3.5,2.2-3.7,3.9
			c-0.1,0.7,0,1.5,0.2,2.2c1.3,5.2,2.5,10.4,3.8,15.6c-3,0.7-5.9,1.4-8.9,2.2c-1.3-5-2.7-9.9-4-14.9c-0.9-3.4-2.9-5.2-6-4.4
			c-2.4,0.7-3.5,2.7-3.6,4.2c-0.1,0.7,0.1,1.5,0.3,2.2c1.5,5.1,3.1,10.2,4.6,15.3c-2.9,0.8-5.8,1.7-8.7,2.6
			C442.9,114.1,441,108.1,439,102.2z"/>
		<path fill="#FC6541" d="M493.2,89.5c-0.6-3.4-1.2-6.2-1.8-8.6c2.8-0.5,5.6-0.8,8.4-1.3c0.3,1.2,0.7,2.4,0.9,3.6c0.1,0,0.1,0,0.2,0
			c1.1-1.9,3.6-4.9,9.1-5.5c4.2-0.5,7.7,1,9.4,3.8h0.1c1-1.6,2.3-2.8,3.9-3.6c1.7-1,3.6-1.7,6.1-1.8c6.3-0.4,11.1,3.2,11.4,11.4
			c0.2,5.4,0.4,10.8,0.7,16.2c-3,0.1-6.1,0.3-9.1,0.5c-0.3-5-0.7-9.9-0.9-14.9c-0.3-3.9-1.9-6.2-5.1-6c-2.3,0.2-3.7,1.7-4.3,3.4
			c-0.2,0.7-0.2,1.5-0.2,2.2c0.5,5.3,0.9,10.7,1.4,16c-3,0.3-6.1,0.6-9.1,0.8c-0.6-5.1-1.2-10.2-1.8-15.3c-0.4-3.5-2.1-5.6-5.2-5.2
			c-2.5,0.3-3.8,2.2-4.2,3.6c-0.2,0.7-0.2,1.5-0.1,2.2c0.7,5.2,1.5,10.6,2.2,15.8c-3,0.4-6,0.8-9,1.3
			C495.2,101.7,494.2,95.5,493.2,89.5z"/>
		<path fill="#FC6541" d="M578,95.2c-0.2,3.6-0.3,6.5-0.3,8.8c-2.7-0.2-5.4-0.3-8.1-0.4c-0.1-1.3-0.2-2.6-0.3-3.9
			c-0.1,0-0.1,0-0.2,0c-1.3,1.7-4.2,4.3-9.5,4.2c-6.1-0.1-10.6-3.5-10.8-11.9c-0.1-5.4-0.2-10.8-0.3-16.2c3.4-0.1,6.7-0.1,10.1,0
			c-0.1,5-0.1,9.8-0.2,14.8c0,4,1.4,6.5,4.8,6.5c2.6,0.1,4.2-1.5,4.9-2.9c0.3-0.5,0.4-1.1,0.4-1.8c0.2-5.4,0.4-10.9,0.7-16.4
			c3.4,0.1,6.7,0.3,10.1,0.5C578.8,82.7,578.4,88.9,578,95.2z"/>
		<path fill="#FC6541" d="M586.5,85.8c0.3-3.4,0.5-6.3,0.5-8.8c2.9,0.3,5.8,0.5,8.7,0.8c0,1.3,0,2.5,0,3.8c0.1,0,0.1,0,0.2,0
			c1.5-1.6,5.1-3.9,10.5-3.2c6.6,0.8,10.9,5.3,9.5,13.4c-0.9,5.3-1.8,10.7-2.7,16.1c-3.1-0.5-6.2-0.9-9.3-1.4
			c0.7-5.1,1.4-10,2.2-15.1c0.5-3.5-0.6-6.1-4.2-6.5c-2.7-0.4-4.5,1.1-5.3,2.6c-0.3,0.5-0.5,1.3-0.6,2.1c-0.6,5.2-1.2,10.5-1.8,15.7
			c-3.1-0.4-6.3-0.7-9.4-0.8C585.4,98.3,586,92.1,586.5,85.8z"/>
		<path fill="#FC6541" d="M637.4,112.6c0-0.9,0.1-1.9,0.1-2.8c-0.1,0-0.1,0-0.2,0c-2.4,1.7-5.7,2.2-9.2,1.5c-6-1.2-8.8-5.7-8-10.1
			c1.2-7,9.2-9.2,20.1-6.7c0-0.1,0.1-0.2,0.1-0.4c0.4-1.4-0.1-3.6-4.9-4.7c-3.2-0.7-6.7-0.4-9.1,0.3c-0.3-1.9-0.5-3.8-0.7-5.7
			c2.4-0.7,7-1.2,12.9,0c10.6,2.3,12.4,8.5,10.8,14.7c-0.8,3.1-1.7,6.2-2.4,9.3c-0.7,2.5-1.1,5-1.2,6.5
			C642.9,113.9,640.2,113.2,637.4,112.6z M639.4,99.7c-5-1.1-9.1-0.8-9.7,2.3c-0.5,2.2,0.9,3.6,3,4c2.2,0.5,4.5-0.5,5.5-2.1
			c0.3-0.4,0.4-0.9,0.5-1.4C638.9,101.6,639.1,100.7,639.4,99.7z"/>
		<path fill="#FC6541" d="M682.4,116.7c-1.2,3.4-2.2,6.2-2.8,8.3c-2.5-0.9-5.1-1.8-7.7-2.7c0.3-1.3,0.6-2.5,0.8-3.8
			c-0.1,0-0.1,0-0.2-0.1c-1.7,1.2-5.2,3-10.4,1.4c-5.8-1.8-9.2-6.3-6.8-14.4c1.5-5.1,3-10.4,4.5-15.5c3.3,0.9,6.5,1.9,9.7,2.8
			c-1.5,4.7-3,9.4-4.5,14.1c-1.2,3.8-0.6,6.5,2.6,7.6c2.4,0.7,4.4-0.3,5.5-1.4c0.4-0.4,0.7-0.9,0.9-1.6c1.8-5.1,3.6-10.3,5.4-15.5
			c3.2,1,6.4,2.2,9.5,3.3C686.8,105,684.6,110.8,682.4,116.7z"/>
		<path fill="#FC6541" d="M710.1,98.9c-1,2.4-2.2,4.8-3.2,7.2c2.2,0.9,4.4,1.9,6.6,2.9c-0.8,1.9-1.8,3.8-2.6,5.7
			c-2.2-0.9-4.3-1.9-6.5-2.8c-1.3,3.1-2.6,6.1-4,9.2c-1.3,3.1-1,4.8,1.5,5.9c1.1,0.5,2.1,0.7,2.7,0.9c-0.8,2-1.8,3.9-2.6,6
			c-1.3-0.1-3.5-0.7-5.8-1.7c-2.8-1.2-4.8-3-5.6-4.9c-1-2.2-0.8-4.9,0.7-8.5c1.4-3.5,2.8-6.9,4.2-10.5c-1.3-0.5-2.6-1-3.9-1.5
			c0.7-2,1.6-3.9,2.3-5.9c1.3,0.5,2.7,1,4,1.5c0.7-1.9,1.5-3.6,2.2-5.5C703.5,97.6,706.7,98.3,710.1,98.9z"/>
		<path fill="#FC6541" d="M718.4,129.5c-1.3,3.3,1.4,6.5,5.3,8.5c2.8,1.5,5.3,2.3,8,2.9c-0.6,1.9-1.1,3.8-1.7,5.7
			c-3.3-0.5-6.8-1.8-10.4-3.6c-9-4.6-12.1-11.9-8.5-19.6c2.9-6.4,10.9-11.3,21-6.3c9.4,4.8,9.3,12.9,5.9,18.8
			c-0.7,1.3-1.5,2.3-2,2.8C730.2,135.5,724.4,132.4,718.4,129.5z M731.3,129.4c1-1.8,1.8-5.4-2.2-7.5c-3.7-1.9-6.7,0.4-8,2.2
			C724.4,125.9,727.9,127.6,731.3,129.4z M747.1,112.2c-3.8,1.1-7.6,2.4-11.3,3.6c-2.1-1-4.1-2.1-6.2-3.1c3-1.7,6.1-3.4,9.2-5
			C741.5,109.2,744.3,110.7,747.1,112.2z"/>
	</g>
</g>
<g opacity="0.5">
	<path fill="none" stroke="#000000" stroke-width="5" stroke-miterlimit="10" d="M182.9,605.5"/>
	<g>
		<path d="M164.3,616l5.8-9.1l4.6,2.9l-5.8,9.1L164.3,616z"/>
		<path d="M147.8,608.6l3.5-10.2l5.1,1.8l-3.5,10.2L147.8,608.6z"/>
		<path d="M129.9,595.6h5.4v10.7h-5.4V595.6z"/>
		<path d="M108.8,600.1l5.1-1.8l3.5,10.2l-5.1,1.8L108.8,600.1z"/>
		<path d="M90.4,609.7l4.6-2.9l5.8,9.1l-4.6,2.9L90.4,609.7z"/>
		<path d="M177.2,640.5l1.4-1.8l-1.5-1.7c-0.2-0.2-5-5.7-12.8-11.2c-10.5-7.4-21.4-11.3-31.8-11.3c-10.3,0-21.3,3.9-31.7,11.3
			c-7.9,5.5-12.6,11-12.8,11.2l-1.5,1.8l1.5,1.8c0.2,0.2,5,5.7,12.8,11.2c10.5,7.4,21.4,11.3,31.7,11.3c5.1,0,10.5-0.9,15.8-2.8
			c0.4,0.7,0.8,1.2,1.3,1.8l13.4,13.4l11.4-11.4l-11.2-11.2C172,646.8,177,640.7,177.2,640.5L177.2,640.5z M142.1,642.9
			c-5.2,5.2-13.8,5.2-19.1,0c-2.5-2.5-3.9-5.9-3.9-9.5s1.4-7,3.9-9.5c2.6-2.6,6.1-3.9,9.5-3.9c3.5,0,6.9,1.3,9.5,3.9
			c2.5,2.5,3.9,5.9,3.9,9.5S144.7,640.4,142.1,642.9z M104.1,647.5c-4.8-3.4-8.3-6.7-10.3-8.7c2-2,5.5-5.3,10.3-8.7
			c3.4-2.3,7.7-5,12.6-6.9c-2,3-3,6.5-3,10.2c0,5.1,2,9.8,5.5,13.4c3.6,3.6,8.5,5.5,13.4,5.5c4,0,8-1.2,11.3-3.7l4.3,4.3
			c-0.3,0.7-0.6,1.3-0.7,2.1c-5.1,1.9-10.1,2.9-15,2.9C121,657.7,110.6,652.1,104.1,647.5L104.1,647.5z M163.1,667.7l-9.5-9.5
			c-1-1-1-2.8,0-3.8s2.8-1,3.8,0l9.5,9.5L163.1,667.7z M159,649c-2.2-1.1-4.9-1.1-7.1,0l-4.3-4.3c2.4-3.3,3.7-7.2,3.7-11.3
			c0-3.6-1-7.2-3-10.2c5,2,9.3,4.6,12.6,6.9c4.8,3.4,8.4,6.7,10.3,8.7C169.3,641.1,165,645.2,159,649z"/>
	</g>
	<g>
		<g>
			<g>
				<path stroke="#000B13" stroke-width="2" stroke-miterlimit="10" d="M142.1,646.8l3.8-3.8l7.7,7.6l-3.8,3.8L142.1,646.8z"/>
			</g>
		</g>
		<g id="Vision_1_">
			<g>
				<g>
					<path fill="#028283" stroke="#000B13" stroke-width="3" stroke-miterlimit="10" d="M163.1,675.4l-13.4-13.3
						c-2.6-2.5-3.6-7.9,0-11.4c2.9-2.9,7.5-3.2,10.7-0.7c11.6,11.5,14.7,14.5,14.1,13.9L163.1,675.4z"/>
				</g>
			</g>
		</g>
		<g>
			<g>
				<g>
					<g>
						<path fill="#000B13" stroke="#000B13" stroke-width="2" stroke-miterlimit="10" d="M119.2,646.8c-7.4-7.4-7.4-19.3,0-26.7
							c7.1-7.1,19.6-7.1,26.8,0c7.4,7.4,7.4,19.3,0,26.7S126.6,654.2,119.2,646.8L119.2,646.8z"/>
					</g>
				</g>
			</g>
		</g>
		<path fill="#000B13" stroke="#000B13" stroke-width="2" stroke-miterlimit="10" d="M132.5,614.8v37.5c4.9,0,9.7-1.9,13.4-5.5
			c7.4-7.4,7.4-19.3,0-26.7C142.4,616.6,137.5,614.8,132.5,614.8L132.5,614.8z"/>
	</g>
	<ellipse fill="#FFFCFF" stroke="#FFFCFF" stroke-width="5" stroke-miterlimit="10" cx="132.8" cy="633.5" rx="11" ry="10.9"/>
	<ellipse fill="none" stroke="#FC6541" stroke-width="4" stroke-miterlimit="10" cx="132.8" cy="633.5" rx="5.5" ry="5.4"/>
</g>
<g opacity="0.5">
	<g>
		<path fill="#FC6541" d="M155.9,292.7l19.3,18.6l3.7,3.6l1.4,1.3c0.5,0.5,1.1,0.4,1.6,0l3.8-3.9l3.5-3.6c1.5-1.6,1.5-4.1-0.1-5.7
			l-3.4-3.3l-18.7-18c-1.6-1.5-4.1-1.5-5.7,0.1l-7.3,7.6c-0.5,0.5-0.4,1.1,0,1.6L155.9,292.7z"/>
	</g>
	<g>
		<path opacity="0.65" fill-rule="evenodd" clip-rule="evenodd" fill="#FFBC85" enable-background="new    " d="M129.2,293.9
			l-20.8,19.9c0.7,5.5,1.7,10.7,5.1,13.6l28.2,22.8l3.4,2.6c5.1,3.9,10-1.6,6.1-5.6c-0.1-0.1-0.1-0.1-0.2-0.2
			c1.3,1.1,2.8,1.4,4.1,1.2c2.8-0.5,4.8-3.5,2.2-6.3c5.1,4.1,9.4-2.4,5.5-6c4.5,1.4,9.4-4.4,4.7-9.3l-0.1-0.1l-11.6-17.4l-15.6-10
			L129.2,293.9z"/>
	</g>
	<g>
		<path fill-rule="evenodd" clip-rule="evenodd" fill="#FFE5C1" d="M141.2,350.7c4.3-4.6-2-9.9-5.5-6.8l-3.7,3.6l-0.1,0.1
			c-3.2,3.2,2.5,10.3,7.3,5.3L141.2,350.7z"/>
	</g>
	<g>
		<path fill-rule="evenodd" clip-rule="evenodd" fill="#FFE5C1" d="M129.2,337.5l-3.9,4.1l0,0c-2,2.1-0.6,5.3,1.8,6.5
			c1.5,0.7,3.3,0.8,4.9-0.7l4.2-0.1l-0.4-3.6l0.6-0.5c4.2-4-1.9-10.9-6.6-6.4L129.2,337.5z"/>
	</g>
	<g>
		<path fill-rule="evenodd" clip-rule="evenodd" fill="#FFE5C1" d="M122.2,331.8l-3.7,3.9l-0.6,0.6c-3.6,3.8,2.9,10,6.6,6l0.7-0.7
			c0.1-0.1,4-0.5,4.5-0.6l-0.1-4.1l1.3-1.3c4.4-4.6-2.4-10.6-6.6-6.2L122.2,331.8z"/>
	</g>
	<g>
		<path fill-rule="evenodd" clip-rule="evenodd" fill="#FFE5C1" d="M113.5,327.4l-1.2,1.4c-3.8,4.2,1.9,10.9,6.2,7l3.6-0.6l0.2-3.4
			c3.5-3.9-2.6-11-7.4-5.8L113.5,327.4z"/>
	</g>
	<g>
		<path fill="#028283" d="M118.8,282.1l-17.2,16.6l-4.9,4.7c-1.6,1.5-1.7,4.1-0.1,5.7l7.3,7.6c0.5,0.5,1.1,0.5,1.6,0l2.9-2.8
			l20.8-19.9l2.6-2.5c0.5-0.5,0.5-1.1,0-1.6l-7.3-7.6C122.9,280.6,120.4,280.6,118.8,282.1L118.8,282.1z"/>
	</g>
	<g>
		<path opacity="0.8" fill-rule="evenodd" clip-rule="evenodd" fill="#F5A96C" enable-background="new    " d="M151.4,310.8
			l-5.2,1.2l2.1,2.1l15.8,15.7l0.1,0.1c1.9,2.1,2.2,4.2,1.6,5.9c3.1-1.2,5.1-5.4,1.6-9.2l-0.1-0.1l-4.8-4.7L151.4,310.8z"/>
	</g>
	<g opacity="0.8">
		<path fill-rule="evenodd" clip-rule="evenodd" fill="#F5A96C" d="M129.2,293.9l-3.4,3.2l10.4,5.1l3.8-3L129.2,293.9z"/>
	</g>
	<g>
		<path fill-rule="evenodd" clip-rule="evenodd" fill="#FFE5C1" d="M140,299.2l-3.8,3l-3.6,2.8c-9.1,7-1.6,13.9,3.8,11.6l6.1-3.6
			l3.7-0.8l5.2-1.2l11,11l4.8,4.7c3-1.1,7.2-4.3,11.8-11.7l-23-22.3l-4.1,3.3c-0.7,0.6-0.5,0.5-1.3,0.4c-3.1-0.1-7.1,0.2-9.4,2
			L140,299.2z"/>
	</g>
	<g>
		<path fill-rule="evenodd" clip-rule="evenodd" fill="#FED1A3" d="M140,310.4l-6.1,3.6c-1.7,0.7-3.5,0.6-5.1-0.2
			c1.3,2.5,4.7,3.8,7.5,2.6l6.1-3.6l3.7-0.8l5.1-1.2c-2.4-2.1-2.8-2.3-7.7-1.2L140,310.4z"/>
	</g>
	<g>
		<path fill-rule="evenodd" clip-rule="evenodd" fill="#FED1A3" d="M175.3,311.3c-4,6.5-7.9,9.8-10.8,11.2c-0.3,0.2-0.7,0.3-0.9,0.4
			l3.6,3.6c3-1.1,7.2-4.3,11.8-11.7L175.3,311.3z"/>
	</g>
	<g>
		<path fill-rule="evenodd" clip-rule="evenodd" fill="#FED1A3" d="M110.9,331.9c0,3.6,4.2,6.7,7.5,3.8l2.3-2.4l1.4-1.5
			c1.4-1.6,1.2-3.8,0.2-5.4c0,0.9-0.3,1.9-1,2.7l-2.4,2.6l-1.2,1.3C115.2,335.2,112.3,334.1,110.9,331.9L110.9,331.9z"/>
	</g>
	<g>
		<path fill-rule="evenodd" clip-rule="evenodd" fill="#FED1A3" d="M117,340c0.8,2.9,4.9,5.1,7.6,2.3l0.7-0.7l0,0l3.9-4.1
			c0.2-0.2,0.3-0.3,0.4-0.5l1.3-1.3c2.3-2.4,1.5-5.3-0.6-6.8c0.4,1.3,0.1,2.9-1.2,4.2l-1.3,1.3c-0.2,0.1-0.3,0.3-0.4,0.5l0,0
			l-3.9,4.1l0,0l-0.7,0.7C121,341.7,118.7,341.3,117,340L117,340z"/>
	</g>
	<g>
		<path fill-rule="evenodd" clip-rule="evenodd" fill="#FED1A3" d="M132,347.5l2.9-2.7l0.8-0.8l0.6-0.5c2.2-2.2,1.6-5.1-0.3-6.7
			c0.4,1.4,0.1,3-1.2,4.3l-0.6,0.5l-1.5,1.4l-2.2,2.2l-0.1,0.1c-1.6,1.5-3.5,1.4-4.9,0.7c-0.4-0.2-0.7-0.5-1-0.7
			c0.4,1.3,1.3,2.4,2.5,3.1C128.5,348.9,130.3,349,132,347.5L132,347.5z"/>
	</g>
	<g>
		<path fill-rule="evenodd" clip-rule="evenodd" fill="#FED1A3" d="M141.2,350.7c2.2-2.3,1.7-4.8,0.2-6.3c0,1-0.5,2.2-1.5,3.2
			l-2.1,2.2c-2.5,2.7-5.3,1.9-6.9,0.1c0,3.3,4.4,7,8.1,3.1L141.2,350.7z"/>
	</g>
	<g>
		<path d="M151.2,348.7c-0.4,0-0.7-0.1-0.9-0.4l-2.9-2.7c-0.6-0.6-0.7-1.5-0.1-2.1c0.6-0.6,1.5-0.7,2.1-0.1l2.9,2.7
			c0.6,0.6,0.7,1.5,0.1,2.1C151.9,348.5,151.5,348.7,151.2,348.7z"/>
	</g>
	<path d="M190.2,301.8l-22.1-21.2c-1-1-2.4-1.5-3.9-1.5s-2.8,0.7-3.8,1.7l-7.4,7.5c-0.9,1-0.9,2.6,0.1,3.6l0.6,0.6l-3,2.4
		c-0.1,0-0.2,0-0.3,0c-4.7-0.2-8.1,0.7-10.3,2.3l-0.4,0.3l-8.2-4l1.1-1c0.5-0.5,0.7-1.1,0.7-1.8c0-0.7-0.3-1.3-0.7-1.9l-7.3-7.6
		c-1-1-2.3-1.7-3.8-1.7s-2.8,0.5-3.9,1.5l-21.8,21.3c-2.2,2.1-2.2,5.5-0.2,7.7l7.3,7.6c0.5,0.6,1.1,0.7,1.9,0.7
		c0.7,0,1.3-0.3,1.8-0.7l0.8-0.8c0.7,3.9,1.7,7.9,4.1,10.6l-0.3,0.4c-2.6,2.8-1.8,6.6,0.3,8.8c1.1,1.2,2.5,1.8,3.9,1.9
		c-0.2,1.8,0.7,3.6,2,4.9c1.2,1.1,2.7,1.8,4.3,1.8c0.4,0,0.7,0,1.2-0.1c0.2,1.3,0.9,2.5,1.8,3.5c1.1,1.1,2.6,1.9,4.3,1.9
		c0.2,0,0.4,0,0.5,0c0,0.3,0.1,0.7,0.2,0.9c0.6,2.2,2.4,4.2,4.6,4.8c0.4,0.1,0.8,0.2,1.4,0.2c1.3,0,2.9-0.5,4.6-2.2l1.6-1.7l2.3,1.8
		c1.5,1.2,3.1,1.7,4.4,1.7c1.7,0,3.2-0.7,4.1-1.9c0.9-1,1.4-2.5,1.2-4.1c1.8,0.1,3.5-0.6,4.6-1.8c0.8-0.8,1.3-2.1,1.3-3.3
		c1.9,0.2,3.5-0.6,4.5-1.8c1.1-1.4,1.7-3.5,1-5.4c1.7-0.4,3.3-1.5,4.3-3.1c1.1-1.9,1.6-4.6-0.2-7.3c2.6-1.4,6-4.3,9.7-9.9l0.1,0.1
		c0.5,0.5,1.1,0.7,1.8,0.7s1.3-0.3,1.9-0.7l7.3-7.6C192.4,307.4,192.3,304,190.2,301.8L190.2,301.8z M113.3,329.7l2.5-2.7
		c1-1.1,2.2-1.6,3.3-1.3c1.1,0.3,2.2,1.3,2.5,2.5c0.2,0.6,0.4,1.8-0.6,2.7l0,0l-3.6,3.7c-1.5,1.3-3,0.7-3.9-0.2
		C112.3,333.3,111.8,331.3,113.3,329.7L113.3,329.7z M119.4,341.1c-0.2-0.2-2.1-2.1-0.5-3.8l0,0l6.4-6.7c0.7-0.8,1.6-1.1,2.2-1.1
		c0.3,0,0.5,0,0.7,0.1c1.1,0.3,2.2,1.2,2.4,2.2c0.3,1,0,2.1-0.9,2.9l-1.3,1.4c-0.1,0.1-0.1,0.2-0.2,0.2l-4.8,5
		C122.1,342.9,120.3,342,119.4,341.1L119.4,341.1z M126.7,346.3c-0.8-0.8-1.6-2.5-0.5-3.6l0,0l3.9-4.1c0,0,0,0,0.1-0.1l0,0l0.3-0.3
		c0.9-0.9,2.1-1.3,3.1-1.1c1.1,0.3,2.2,1.2,2.5,2.4c0.2,0.7,0.2,1.9-0.8,2.9l-0.5,0.5l0,0l-0.1,0.1l-3.6,3.5l0,0l-0.1,0.1
		C129,348.3,127.1,346.6,126.7,346.3L126.7,346.3z M138.1,351.9c-1,1-2.1,1.5-3.1,1.2c-1.1-0.3-2.2-1.4-2.5-2.6
		c-0.1-0.6-0.2-1.3,0.4-1.9l0.1-0.1l3.7-3.6c1.1-0.9,2.7-0.5,3.6,0.5c0.5,0.5,1.8,2.2-0.2,4.3L138.1,351.9z M167.2,332.9
		c-0.7,1.2-2.2,2.2-3.8,1.8l-5.5-5.1c-0.6-0.6-1.5-0.5-2.1,0.1s-0.5,1.5,0.1,2.1l5.8,5.3l0,0l0,0c1.4,1.3,1.3,3,0.5,3.9
		c-0.9,1.1-2.4,1.1-4-0.2l-5.7-5.3c-0.6-0.6-1.5-0.5-2.1,0.1s-0.5,1.5,0.1,2.1l5.7,5.3c1,1.1,1.1,2.2,0.3,3c-0.9,1-2.9,1.3-4.6-0.1
		c-0.6-0.5-1.5-0.5-2,0.1c-0.6,0.6-0.5,1.5,0.1,2c1.6,1.5,1.3,3,0.6,3.8c-0.8,1-2.6,1.3-4.6-0.2l-2.3-1.8c1.2-2.4,0.5-4.9-1.1-6.5
		c-0.9-0.9-2.2-1.6-3.5-1.8c0.2-0.9,0.2-1.9,0-2.9c-0.6-2.2-2.4-4-4.6-4.5c-0.3-0.1-0.6-0.1-0.8-0.1c0.3-1,0.3-2.1,0-3.2
		c-0.7-2.1-2.4-3.7-4.5-4.2c-1.6-0.4-3.2-0.1-4.6,0.8c0-0.1,0-0.1-0.1-0.2c-0.7-2.2-2.5-4-4.7-4.5s-4.3,0.3-6,2.2l-0.2,0.3
		c-2.1-2.4-2.9-6.2-3.6-10.9l6.1-5.9c0.6-0.6,0.6-1.5,0-2.1c-0.6-0.6-1.5-0.6-2.1,0l-6.5,6.3c-0.1,0-0.1,0.1-0.2,0.1l-2.6,2.5
		l-7-7.4c-0.9-1-0.9-2.6,0.1-3.6l22.1-21.2c0.5-0.5,1.1-0.7,1.9-0.7c0.7,0,1.3,0.3,1.8,0.7l7,7.4l-11.9,11.5c-0.6,0.6-0.6,1.5,0,2.1
		c0.6,0.6,1.5,0.6,2.1,0l8.9-8.5l7.9,3.9l-5.6,4.3c-6.6,5.1-4.7,9.8-3.9,11.1c1.3,2.2,3.7,3.6,6.3,3.6c0.9,0,2-0.2,2.9-0.6
		c0.1,0,0.1-0.1,0.2-0.1l5.9-3.6l8-1.8l15.2,15.2C168.6,330,167.7,332,167.2,332.9L167.2,332.9z M188.2,307.5l-7,7.4l-1.1-1
		l-0.1-0.1l-9.9-9.5c-0.6-0.6-1.5-0.6-2.1,0s-0.6,1.5,0,2.1l9.2,8.8c-4,6.2-7.5,8.7-9.5,9.7l-15.1-15l0,0c0,0,0,0-0.1-0.1l0,0
		c0,0,0,0-0.1-0.1c0,0,0,0-0.1,0c0,0,0,0-0.1,0c0,0,0,0-0.1,0c0,0,0,0-0.1,0c0,0,0,0-0.1,0h-0.1c0,0,0,0-0.1,0h-0.1l0,0h-0.1l0,0
		h-0.1l0,0h-0.1c0,0,0,0-0.1,0c0,0,0,0-0.1,0H151l0,0l-9,2.1c-0.2,0-0.3,0.1-0.5,0.2l-6,3.6c-2,0.8-4.4,0-5.5-1.8
		c-1.2-2.2-0.1-4.9,3.2-7.4l7.4-5.7l0,0l1-0.7c1.6-1.2,4.6-1.9,8.4-1.7c0.1,0,0.2,0,0.3,0c0.8,0.1,1.2-0.1,1.9-0.7l3.3-2.6l7.4,7.1
		c0.6,0.6,1.5,0.6,2.1,0s0.6-1.5,0-2.1l-9.6-9.8l7-7.4c0.5-0.5,1.1-0.7,1.8-0.7c0,0,0,0,0.1,0c0.7,0,1.3,0.3,1.8,0.7l22.1,21.2
		C189.1,304.9,189.2,306.6,188.2,307.5L188.2,307.5z"/>
</g>
<g>
	<path fill="#028283" d="M133.2,459v4.2c0,1.5-1,2.7-2.4,3l-7.7,1.5c-0.6,1.9-1.3,3.7-2.2,5.4l4.3,6.5c0.8,1.2,0.7,2.8-0.4,3.8
		l-2.9,2.9c-1,1-2.6,1.2-3.8,0.4l-6.5-4.3c-1.7,0.9-3.5,1.7-5.4,2.2l-1.5,7.7c-0.3,1.4-1.5,2.4-3,2.4h-4.2c-1.5,0-2.7-1-3-2.4
		l-1.5-7.7c-1.9-0.6-3.7-1.3-5.4-2.2l-6.5,4.3c-1.2,0.8-2.8,0.7-3.8-0.4l-2.9-2.9c-1-1-1.2-2.6-0.4-3.8l4.3-6.5
		c-0.9-1.7-1.7-3.5-2.2-5.4l-7.7-1.5c-1.4-0.3-2.4-1.5-2.4-3V459c0-1.5,1-2.7,2.4-3l7.7-1.5c0.6-1.9,1.3-3.7,2.2-5.4l-4.3-6.5
		c-0.8-1.2-0.7-2.8,0.4-3.8l2.9-2.9c1-1,2.6-1.2,3.8-0.4l6.5,4.3c1.7-0.9,3.5-1.7,5.4-2.2l1.5-7.7c0.3-1.4,1.5-2.4,3-2.4h4.2
		c1.5,0,2.7,1,3,2.4l1.5,7.7c1.9,0.6,3.7,1.3,5.4,2.2l6.5-4.3c1.2-0.8,2.8-0.7,3.8,0.4l2.9,2.9c1,1,1.2,2.6,0.4,3.8l-4.3,6.5
		c0.9,1.7,1.7,3.5,2.2,5.4l7.7,1.5C132.2,456.3,133.2,457.5,133.2,459z"/>
	<path fill="#FFFCFF" d="M114.3,461c0,8.1-6.6,14.8-14.8,14.8c-8.2,0-14.8-6.6-14.8-14.8c0-8.1,6.6-14.8,14.8-14.8
		C107.7,446.2,114.3,452.9,114.3,461z"/>
	<path fill="#FFFCFF" d="M106.9,461c0,4-3.3,7.4-7.4,7.4c-4.1,0-7.4-3.3-7.4-7.4c0-4,3.3-7.4,7.4-7.4
		C103.6,453.7,106.9,457,106.9,461z"/>
	<path fill="#FFFCFF" d="M102.4,461c0,3.3-2.2,6.1-5.1,7c-3-0.9-5.1-3.7-5.1-7s2.2-6.1,5.1-7C100.3,455.1,102.4,457.8,102.4,461z"/>
	<path fill="#FC6541" d="M154.3,492.4v2.7c0,0.9-0.7,1.8-1.6,2l-5.1,1c-0.4,1.2-0.8,2.4-1.5,3.6l2.8,4.2c0.6,0.8,0.5,1.9-0.3,2.5
		l-2,2c-0.7,0.7-1.8,0.7-2.5,0.3l-4.2-2.8c-1.1,0.7-2.2,1.1-3.6,1.5l-1,5.1c-0.2,0.9-1,1.6-2,1.6h-2.7c-0.9,0-1.8-0.7-2-1.6l-1-5.1
		c-1.2-0.4-2.4-0.8-3.6-1.5l-4.2,2.8c-0.8,0.6-1.9,0.5-2.5-0.3l-2-2c-0.7-0.7-0.7-1.8-0.3-2.5l2.8-4.2c-0.7-1.1-1.1-2.2-1.5-3.6
		l-5.1-1c-0.9-0.2-1.6-1-1.6-2v-2.7c0-0.9,0.7-1.8,1.6-2l5.1-1c0.4-1.2,0.8-2.4,1.5-3.6l-2.8-4.2c-0.6-0.8-0.5-1.9,0.3-2.5l2-2
		c0.7-0.7,1.8-0.7,2.5-0.3l4.2,2.8c1.1-0.7,2.2-1.1,3.6-1.5l1-5.1c0.2-0.9,1-1.6,2-1.6h2.7c0.9,0,1.8,0.7,2,1.6l1,5.1
		c1.2,0.4,2.4,0.8,3.6,1.5l4.2-2.8c0.8-0.6,1.9-0.5,2.5,0.3l2,2c0.7,0.7,0.7,1.8,0.3,2.5l-2.8,4.2c0.7,1.1,1.1,2.2,1.5,3.6l5.1,1
		C153.7,490.6,154.3,491.4,154.3,492.4z"/>
	<path fill="#FFFCFF" d="M143.3,493.8c0,6.1-5,11-11,11c-6.1,0-11-5-11-11c0-6.1,5-11,11-11C138.3,482.7,143.3,487.7,143.3,493.8z"
		/>
	<path fill="#FFFCFF" d="M138.9,493.8c0,3.6-3,6.6-6.6,6.6s-6.6-3-6.6-6.6s3-6.6,6.6-6.6S138.9,490.1,138.9,493.8z"/>
	<path fill="#FFFCFF" d="M134.4,493.8c0,2.9-1.9,5.3-4.4,6.3c-2.6-0.9-4.4-3.4-4.4-6.3s1.9-5.3,4.4-6.3
		C132.6,488.5,134.4,490.9,134.4,493.8z"/>
	<path d="M87,456.7c-0.5,1.4-0.7,2.8-0.7,4.3c0,7.4,6,13.4,13.4,13.4c2.8,0,5.5-0.8,7.8-2.5c0.7-0.5,1.6-0.3,2.1,0.3
		c0.5,0.6,0.3,1.6-0.3,2.1c-2.8,2-6.1,3.1-9.5,3.1c-9,0-16.2-7.3-16.2-16.2c0-1.8,0.3-3.6,0.8-5.2c0.3-0.7,1.1-1.1,1.9-0.9
		C86.8,455.1,87.2,456,87,456.7z M112.1,469.1c0.2,0.1,0.5,0.2,0.7,0.2c0.6,0,1-0.3,1.3-0.7c1.1-2.2,1.8-4.9,1.8-7.4
		c0-9-7.3-16.2-16.2-16.2c-4.2,0-8.2,1.6-11.3,4.6c-0.6,0.6-0.6,1.5,0,2.1c0.6,0.6,1.5,0.6,2.1,0c2.5-2.4,5.8-3.7,9.3-3.7
		c7.4,0,13.4,6,13.4,13.4c0,2.2-0.5,4.2-1.5,6.1C111,467.9,111.3,468.7,112.1,469.1z M111.3,482.6c-0.4-0.7-1.2-1-2-0.7
		c-1.2,0.6-2.4,1-3.6,1.4c-0.6,0.2-0.9,0.6-1,1.1l-1.5,7.7c-0.2,0.7-0.8,1.3-1.6,1.3h-4.2c-0.7,0-1.4-0.6-1.6-1.3l-1.5-7.7
		c-0.1-0.6-0.5-0.9-1-1.1c-1.8-0.5-3.5-1.2-5.1-2.1c-0.5-0.3-1-0.3-1.5,0.1l-6.5,4.3c-0.7,0.5-1.5,0.4-2.1-0.2l-2.9-2.9
		c-0.6-0.6-0.7-1.4-0.2-2.1l4.3-6.5c0.3-0.5,0.3-1,0.1-1.5c-0.9-1.6-1.6-3.3-2.1-5.1c-0.2-0.6-0.6-0.9-1.1-1l-7.7-1.5
		c-0.7-0.2-1.3-0.8-1.3-1.6V459c0-0.7,0.6-1.4,1.3-1.6l7.7-1.5c0.6-0.1,0.9-0.5,1.1-1c0.5-1.8,1.2-3.5,2.1-5.1
		c0.3-0.5,0.3-1-0.1-1.5l-4.3-6.5c-0.5-0.7-0.4-1.5,0.2-2.1l2.9-2.9c0.6-0.6,1.4-0.7,2.1-0.2l6.5,4.3c0.5,0.3,1,0.3,1.5,0.1
		c1.6-0.9,3.3-1.6,5.1-2.1c0.6-0.2,0.9-0.6,1-1.1l1.5-7.7c0.2-0.7,0.8-1.3,1.6-1.3h4.2c0.7,0,1.4,0.6,1.6,1.3l1.5,7.7
		c0.1,0.6,0.5,0.9,1,1.1c1.8,0.5,3.5,1.2,5.1,2.1c0.5,0.3,1,0.3,1.5-0.1l6.5-4.3c0.7-0.5,1.5-0.4,2.1,0.2l3.1,2.7
		c0.6,0.6,0.7,1.4,0.2,2.1l-4.3,6.5c-0.3,0.5-0.3,1-0.1,1.5c0.9,1.6,1.6,3.3,2.1,5.1c0.2,0.6,0.6,0.9,1.1,1l7.7,1.5
		c0.7,0.2,1.3,0.8,1.3,1.6v4.2c0,0.7-0.6,1.4-1.3,1.6l-7.7,1.5c-0.6,0.1-0.9,0.5-1.1,1c-0.4,1.3-0.8,2.5-1.4,3.7
		c-0.4,0.7,0,1.6,0.7,2s1.6,0,2-0.7c0.6-1.1,0.9-2.2,1.3-3.4l6.7-1.3c2.1-0.4,3.6-2.2,3.6-4.4v-4.2c0-2.2-1.5-4-3.6-4.4l-6.7-1.3
		c-0.5-1.4-1-2.8-1.7-4l3.8-5.8c1.2-1.8,0.9-4.2-0.6-5.7l-2.9-2.9c-1.5-1.5-3.9-1.8-5.7-0.6l-5.8,3.8c-1.3-0.7-2.6-1.2-4-1.7
		l-1.3-6.7c-0.4-2.1-2.2-3.6-4.4-3.6h-4.2c-2.2,0-4,1.5-4.4,3.6l-1.3,6.7c-1.4,0.5-2.8,1-4,1.7l-5.7-3.8c-1.8-1.2-4.2-0.9-5.7,0.6
		l-2.9,2.9c-1.5,1.5-1.8,3.9-0.6,5.7l3.8,5.8c-0.7,1.3-1.2,2.6-1.7,4l-6.7,1.3c-2.1,0.4-3.6,2.2-3.6,4.4v4.2c0,2.2,1.5,4,3.6,4.4
		l6.7,1.3c0.5,1.4,1,2.8,1.7,4l-3.8,5.8c-1.2,1.8-0.9,4.2,0.6,5.7l2.9,2.9c1.5,1.5,3.9,1.8,5.7,0.6l5.8-3.8c1.3,0.7,2.6,1.2,4,1.7
		l1.3,6.7c0.4,2.1,2.2,3.6,4.4,3.6h4.2c2.2,0,4-1.5,4.4-3.6l1.3-6.7c1.1-0.4,2.2-0.7,3.3-1.3C111.4,484.1,111.7,483.3,111.3,482.6z
		 M132.3,488.5c2.9,0,5.2,2.3,5.2,5.2c0,0.8,0.7,1.4,1.4,1.4c0.8,0,1.4-0.7,1.4-1.4c0-4.5-3.6-8-8-8s-8,3.6-8,8c0,4.5,3.6,8,8,8
		c1.8,0,3.6-0.6,5-1.7c0.7-0.5,0.7-1.4,0.3-2.1c-0.5-0.7-1.4-0.7-2.1-0.3c-0.9,0.7-2.1,1.1-3.2,1.1c-2.9,0-5.2-2.3-5.2-5.2
		S129.4,488.5,132.3,488.5z M99.5,469.8c-4.9,0-8.8-3.9-8.8-8.8s3.9-8.8,8.8-8.8c4.9,0,8.8,3.9,8.8,8.8S104.4,469.8,99.5,469.8z
		 M99.5,466.9c3.3,0,5.9-2.6,5.9-5.9s-2.6-5.9-5.9-5.9s-5.9,2.6-5.9,5.9S96.2,466.9,99.5,466.9z M153,489l-4.2-0.8
		c-0.3-0.7-0.6-1.5-0.9-2.2l2.3-3.6c0.9-1.4,0.7-3.2-0.5-4.4l-2-2c-1.1-1.1-3-1.3-4.4-0.5l-3.6,2.3c-0.7-0.4-1.5-0.7-2.2-0.9
		l-0.8-4.2c-0.3-1.6-1.8-2.8-3.4-2.8h-2.7c-1.7,0-3.1,1.1-3.4,2.8l-0.8,4.2c-0.7,0.3-1.5,0.6-2.2,0.9l-3.6-2.3
		c-1.4-0.9-3.2-0.7-4.4,0.5l-2,2c-1.1,1.1-1.3,3-0.5,4.4l2.3,3.6c-0.5,0.9-0.8,2-1.2,3.1c-0.2,0.7,0.2,1.6,1,1.8
		c0.7,0.2,1.6-0.2,1.8-1c0.3-1.1,0.7-2.2,1.3-3.2c0.3-0.5,0.3-1-0.1-1.5L116,481c-0.2-0.2-0.1-0.6,0.1-0.7l2-2
		c0.2-0.2,0.5-0.2,0.7-0.1l4.2,2.8c0.5,0.3,1,0.3,1.5,0.1c1-0.6,2.1-1,3.2-1.3c0.6-0.2,0.9-0.6,1-1.1l1-5.1c0.1-0.3,0.3-0.5,0.6-0.5
		h2.7c0.3,0,0.5,0.2,0.6,0.5l1,5.1c0.1,0.6,0.5,0.9,1,1.1c1.1,0.3,2.2,0.7,3.2,1.3c0.5,0.3,1,0.3,1.5-0.1l4.2-2.8
		c0.2-0.2,0.6-0.1,0.7,0.1l2,2c0.2,0.2,0.2,0.5,0.1,0.7l-2.8,4.2c-0.3,0.5-0.3,1-0.1,1.5c0.6,1,1,2.1,1.3,3.2c0.2,0.6,0.6,0.9,1.1,1
		l5.1,1c0.3,0.1,0.5,0.3,0.5,0.6v2.7c0,0.3-0.2,0.5-0.5,0.6l-5.1,1c-0.6,0.1-0.9,0.5-1.1,1c-0.3,1.1-0.7,2.2-1.3,3.2
		c-0.3,0.5-0.3,1,0.1,1.5l2.8,4.2c0.2,0.2,0.1,0.6-0.1,0.7l-2,2c-0.2,0.2-0.5,0.2-0.7,0.1l-4.2-2.8c-0.5-0.3-1-0.3-1.5-0.1
		c-1,0.6-2.1,1-3.2,1.3c-0.6,0.2-0.9,0.6-1,1.1l-1,5.1c-0.1,0.3-0.3,0.5-0.6,0.5h-2.7c-0.3,0-0.5-0.2-0.6-0.5l-1-5.1
		c-0.1-0.6-0.5-0.9-1-1.1c-1.1-0.3-2.2-0.7-3.2-1.3c-0.5-0.3-1-0.3-1.5,0.1l-4.2,2.8c-0.2,0.2-0.6,0.1-0.7-0.1l-2-2
		c-0.2-0.2-0.2-0.5-0.1-0.7l2.8-4.2c0.3-0.5,0.3-1,0.1-1.5c-0.6-1-1-2.1-1.3-3.2c-0.2-0.6-0.6-0.9-1.1-1l-5.1-1
		c-0.3-0.1-0.5-0.3-0.5-0.6v-2.7c0-0.3,0.2-0.5,0.5-0.6l0.3-0.1c0.7-0.2,1.3-0.9,1.1-1.7c-0.2-0.7-0.9-1.3-1.7-1.1l-0.3,0.1
		c-1.6,0.3-2.8,1.8-2.8,3.4v2.7c0,1.7,1.1,3.1,2.8,3.4l4.2,0.8c0.3,0.7,0.6,1.5,0.9,2.2l-2.3,3.6c-0.9,1.4-0.7,3.2,0.5,4.4l2,2
		c1.1,1.1,3,1.3,4.4,0.5l3.6-2.3c0.7,0.4,1.5,0.7,2.2,0.9l0.8,4.2c0.3,1.6,1.8,2.8,3.4,2.8h2.7c1.7,0,3.1-1.1,3.4-2.8l0.8-4.2
		c0.7-0.3,1.5-0.6,2.2-0.9l3.6,2.3c1.4,0.9,3.2,0.7,4.4-0.5l2-2c1.1-1.1,1.3-3,0.5-4.4l-2.3-3.6c0.4-0.7,0.7-1.5,0.9-2.2l4.2-0.8
		c1.6-0.3,2.8-1.8,2.8-3.4v-2.7C155.8,490.8,154.6,489.4,153,489z"/>
</g>
<g id="fond_categorie">
	<circle fill="#028283" cx="551.4" cy="477.3" r="312.2"/>
</g>
<g id="filet_2_theme">
	<path fill="none" stroke="#000000" stroke-width="5" stroke-miterlimit="10" d="M763.4,150.6c100.4,69.7,170.1,187.5,170.1,321.2
		c0,214.1-173.2,387.8-382.2,387.8c-191.6,0-351.3-132.7-379.9-313.4c-0.3-1.6,1.9-7.8-8.7-7.8c-10.5,0-66.2-0.1-107.5,0.1
		c-4.1,0-6.9-6.4-7.5-8c-2.2-5.7-3.6-28.6-3.6-64.1c0-37.1,0.5-42.8,1.4-51c0.6-4.8,4.4-10.3,9.8-10.3c36.3,0.1,93.5,0,108.5-0.5
		c1.9-0.1,5.5-1.1,5.9-2.9c18.8-105.6,84.9-196.4,169.1-253.5"/>
	<circle fill="#FFFFFF" stroke="#1D1D1B" stroke-width="4" stroke-miterlimit="10" cx="859.1" cy="797.8" r="96.8"/>
</g>
<g>
	<g id="texte_titre_badge">
		<path fill="#FFFFFF" d="M373.1,596.3h-8.4v-7.6h25.8v7.6H382v26.1h-8.8v-26.1H373.1z"/>
		<path fill="#FFFFFF" d="M403.5,588.7v33.7h-8.8v-33.7H403.5z"/>
		<path fill="#FFFFFF" d="M416,596.3h-8.4v-7.6h25.8v7.6h-8.6v26.1H416V596.3z"/>
		<path fill="#FFFFFF" d="M437.5,589.2c2.5-0.4,6.2-0.7,10.7-0.7c5.1,0,8.7,0.7,11.2,2.6c2.1,1.7,3.3,4.1,3.3,7.4
			c0,4.2-3.1,7.2-5.7,8.2v0.2c2.2,1,3.4,3.1,4.2,6c1,3.4,2.1,8.3,2.7,9.6h-9c-0.5-1-1.4-3.6-2.3-7.8c-0.9-4-2.1-4.9-4.8-4.9h-1.4
			v12.6h-8.8v-33.2L437.5,589.2L437.5,589.2z M446.3,603.3h2.3c3.3,0,5.3-1.7,5.3-4.2s-1.6-4-4.6-4c-1.7,0-2.5,0.1-3,0.2
			L446.3,603.3L446.3,603.3z"/>
		<path fill="#FFFFFF" d="M488.5,608.8h-11.9v6.2h13.3v7.4h-22.1v-33.7h21.4v7.4h-12.6v5.4h11.9L488.5,608.8L488.5,608.8z"/>
		<path fill="#FFFFFF" d="M504.5,589.2c2.8-0.5,6.6-0.7,10.5-0.7c6.3,0,10.3,1.1,13.6,3.4c3.6,2.6,6,6.8,6,13
			c0,6.9-2.5,11.3-5.8,13.9c-3.6,2.9-9,4.2-15.5,4.2c-4.2,0-7.1-0.3-8.8-0.5V589.2z M513.2,615.7c0.5,0.1,1.3,0.1,1.9,0.1
			c5.7,0.1,10-3.1,10-10.7c0-6.6-3.8-9.7-9.2-9.7c-1.4,0-2.2,0.1-2.7,0.2V615.7L513.2,615.7z"/>
		<path fill="#FFFFFF" d="M548.1,588.7v19.1c0,5.1,1.7,8,5.2,8s5.2-2.6,5.2-8v-19.1h8.8v18.6c0,10.4-5.1,15.7-14.4,15.7
			c-9,0-13.8-5.1-13.8-15.9v-18.4L548.1,588.7L548.1,588.7z"/>
		<path fill="#FFFFFF" d="M583.2,589.2c2-0.4,6.4-0.7,10.4-0.7c4.7,0,7.5,0.3,10.1,1.7c2.6,1.2,4.4,3.7,4.4,6.9
			c0,2.8-1.5,5.6-5.4,7.1v0.1c4,1.1,6.5,4.2,6.5,8.2c0,3.2-1.5,5.7-3.7,7.4c-2.5,1.9-6.6,3-13.7,3c-4,0-6.9-0.3-8.7-0.5L583.2,589.2
			L583.2,589.2z M591.9,601.7h1.8c3.7,0,5.5-1.3,5.5-3.5c0-2-1.5-3.2-4.4-3.2c-1.5,0-2.3,0.1-2.9,0.2L591.9,601.7L591.9,601.7z
			 M591.9,616.1c0.6,0.1,1.4,0.1,2.5,0.1c2.9,0,5.5-1.2,5.5-4.2c0-2.9-2.6-4-5.9-4h-2.1V616.1z"/>
		<path fill="#FFFFFF" d="M622.7,614.6l-1.9,7.8h-9.2l9.6-33.7H633l9.8,33.7h-9.6l-2.1-7.8H622.7z M630.1,607.9l-1.5-6.1
			c-0.5-1.9-1.1-4.7-1.6-6.6h-0.1c-0.5,2-1,4.8-1.5,6.7l-1.4,6L630.1,607.9L630.1,607.9z"/>
		<path fill="#FFFFFF" d="M647.2,589.2c2.8-0.5,6.6-0.7,10.5-0.7c6.3,0,10.3,1.1,13.6,3.4c3.6,2.6,6,6.8,6,13
			c0,6.9-2.5,11.3-5.8,13.9c-3.6,2.9-9,4.2-15.5,4.2c-4.2,0-7.1-0.3-8.8-0.5V589.2z M656,615.7c0.5,0.1,1.3,0.1,1.9,0.1
			c5.7,0.1,10-3.1,10-10.7c0-6.6-3.8-9.7-9.2-9.7c-1.4,0-2.2,0.1-2.7,0.2V615.7z"/>
		<path fill="#FFFFFF" d="M710.6,620.8c-2.5,0.9-7.1,1.9-11.4,1.9c-6.5,0-10.9-1.7-13.9-4.6c-3.1-3-4.7-7.3-4.7-12.2
			c0-11.7,8.6-17.7,19.3-17.7c4.5,0,7.9,0.8,9.6,1.7l-1.8,7.2c-1.9-0.8-4.1-1.4-7.9-1.4c-5.5,0-10,2.9-10,9.8c0,6.3,4,9.9,9.4,9.9
			c1.2,0,2.4-0.1,2.8-0.3v-5.8h-4.4v-7h12.9v18.5H710.6z"/>
		<path fill="#FFFFFF" d="M736.8,608.8h-11.9v6.2h13.3v7.4h-22.1v-33.7h21.4v7.4h-12.6v5.4h11.9L736.8,608.8L736.8,608.8z"/>
	</g>
</g>
<g id="picto_titre_badge">
	<g id="g6791" transform="translate(427.0015,362.0531)">
		<path id="path6789" fill="#FFFFFF" d="M244.9-29.5c0.3,1.9,0.5,3,0.7,4.1c1,7,0.7,14,0.1,21c-0.6,8.5-2.2,16.6-4.7,24.7
			c-3.8,12.2-9.6,23.4-18.3,32.9c-4.9,5.3-10.4,9.9-16.7,13.5c-6.9,4-14.4,5.9-22.1,7.8c-6.3,1.6-12.8,3.2-18.7,5.9
			c-9.2,4.2-10.8,11.1-8.5,19.3c1.9,7,5.2,13.5,7.9,20.4c0.4,1,0.9,1.9,1.3,2.9c-0.2,0.2-0.4,0.3-0.6,0.6c-1.3-1-2.6-1.9-3.8-3.1
			c-6.5-6.3-12.4-12.9-15-21.9c-2.7-9.3,0-17.4,5.6-24.7c6.9-9,16-15.8,24.9-22.7c8.5-6.5,16.6-13.3,24.8-20.1
			c1.5-1.3,2.7-3.1,4-4.7c-0.2-0.2-0.3-0.4-0.6-0.6c-1.9,1.1-3.9,2.2-5.8,3.5c-11.6,7.3-23.1,14.7-34.7,21.9
			c-3.3,2.1-7,3.8-10.6,5.6c-1.3,0.6-2.5,0.8-2.4-1.3c0.4-8.6,1.6-17.1,5.1-25.1C161,21,167.6,13.3,176.9,9
			c9.4-4.3,19.2-7.6,28.9-11.2c9.5-3.4,19-6.8,27-13.2c4.2-3.3,7.8-7.2,10.3-11.9C243.6-27.9,244.1-28.4,244.9-29.5"/>
	</g>
	<g id="g6795" transform="translate(143.617,309.6074)">
		<path id="path6793" fill="#FFFFFF" d="M331.4,59.3c3.3,3.3,6.3,6.9,9.9,9.8c13.8,11,27.8,21.9,41.6,32.9
			c10,7.9,19.7,16.3,26.9,27.1c9.8,14.7,9.7,31,0,45.8c-5.3,8.1-12.2,14.9-19.2,21.5c-0.6,0.6-1.5,1-2.8,1.1
			c0.5-1.1,0.8-2.3,1.4-3.3c4.7-8.8,9-17.9,11.5-27.6c1.4-5.4,2-10.9,0.7-16.5c-2-8.9-8.7-13.5-16.5-16.1
			c-9.1-3.1-18.4-5.6-27.8-7.6c-27.7-5.9-48.1-21.9-62.9-45.5c-8.4-13.3-13.8-28-17.4-43.3c-3.9-16.5-4.8-33.1-4.2-49.9
			c0.1-3,0.8-6,1.3-9.8c1,1.3,1.6,1.7,1.9,2.4c8.8,15.6,22.7,24.9,38.8,31.1c13.8,5.3,27.8,9.5,41.6,14.6
			c12.2,4.5,23.7,10.4,32.8,20.2c8,8.6,13.4,18.7,15.7,30.1c1.5,7.6,2.4,15.3,3.3,23c0.4,3.5-0.3,3.8-3.5,2.3
			c-17-7.9-32.7-18-48.3-28.3c-7.2-4.7-14.4-9.1-21.6-13.6c-0.8-0.5-1.6-0.8-2.4-1.2C332,58.7,331.7,59.1,331.4,59.3"/>
	</g>
	<g id="g6799" transform="translate(65.4546,150.0839)">
		<path id="path6797" fill="#FFFFFF" d="M355.3,329.7c64.5,0.8,123.3,10.2,174.9,29.7c14.1,5.3,26.5,11.7,39.7,17.6
			c5.3,2.4,3.8,4.1-1.8,5.5c-9,2.3-18.1,4.5-27,6.9c-5.1,1.4-8.2,0.6-11.8-1.5c-15.1-8.2-29.7-16.7-46.1-24.2
			c-32.9-14.9-71.7-24.5-115.7-28.3c-11.3-1-22.9-1-34.4-1.5c-1.8-0.1-3.8,0.2-5.5-0.1c-2.4-0.3-4.4-1.1-6.6-1.7
			c2-0.6,3.9-1.6,6-1.7c6.6-0.4,13.3-0.6,20-0.8C349.8,329.6,352.5,329.7,355.3,329.7"/>
	</g>
	<g id="g6803" transform="translate(235.3552,55.1964)">
		<path id="path6801" fill="#FFFFFF" d="M303.4,490.5c-10.8-1.3-21.8-2-32.2-3.8c-37.5-6.4-65.1-19-83.5-37
			c-1.5-1.5-1.8-3.3-2.6-4.9c3.1,0.1,6.3,0.1,9.3,0.3c38.2,4.2,67.4,15.6,91.7,30.8c6.7,4.2,12.6,8.7,19,13
			C304.5,489.4,303.9,490,303.4,490.5"/>
	</g>
	<g id="g6807" transform="translate(310.5638,57.8876)">
		<path id="path6805" fill="#FFFFFF" d="M280.5,485.9c-12.6,0.8-23.5,1.6-34.7,1.9c-2.3,0.1-5.5-1.6-7.1-2.9
			c-13.8-10.9-29.5-20.9-48.6-29.5c-24.3-10.9-52-17.8-84.2-19.7c-1.5-0.1-3.3,0.1-4.4-0.3c-2-0.8-3.6-1.9-5.4-2.8
			c2-0.5,4-1.5,6-1.5c20,0.3,39.4,2.4,58.2,5.8c48.5,8.8,85.6,25.4,117,46C278.1,483.4,278.7,484.2,280.5,485.9"/>
	</g>
	<g id="g6811" transform="translate(458.8952,130.3764)">
		<path id="path6809" fill="#FFFFFF" d="M235.2,363.1c-2.2,2.8-3.8,5.4-6.2,7.8c-8.5,8.7-18.9,16.4-32,23.1c-3.4,1.7-5.6,1.9-9-0.1
			c-6.5-4-13.5-7.8-20.4-11.5c-2.5-1.4-3.1-2.4,0.1-3.8c19.3-7.9,40.4-13.4,63.9-15.8C232.3,362.6,232.9,362.8,235.2,363.1"/>
	</g>
	<g id="g6815" transform="translate(282.366,134.4695)">
		<path id="path6813" fill="#FFFFFF" d="M289.1,356.1c2.9-1,4.3-1.6,5.8-1.9c38.4-9.1,78.5-13.1,120-12.4c4.6,0.1,9.2,0.3,13.6,0.8
			c2,0.2,3.6,1.4,5.4,2.2c-2,0.6-4,1.6-6.2,1.7c-9.8,0.6-19.6,0.8-29.4,1.4c-27.2,1.6-52.7,6.4-76.5,14c-5.5,1.7-9.7,2-15.1-0.1
			C301.7,359.7,295.9,358.3,289.1,356.1"/>
	</g>
	<g id="g6819" transform="translate(319.906,119.4833)">
		<path id="path6817" fill="#FFFFFF" d="M277.6,381.5c2.4-0.7,3.7-1,4.9-1.4c29.6-8.5,61.1-13.8,94.9-14.9c3.1-0.1,8.9,0.8,9.1,1.5
			c0.8,2.9-4.3,3.3-8.5,3.5c-28.8,1.7-54.3,7.4-77.7,16.2c-3.8,1.5-7.2,1.5-10.8-0.1C286.3,385,283,383.7,277.6,381.5"/>
	</g>
	<g id="g6823" transform="translate(274.1679,344.1267)">
		<path id="path6821" fill="#FFFFFF" d="M291.6,0.8c7.2,0,12.6,5.1,12.6,12c0.1,7-5.8,12.9-12.9,12.9c-7.2,0-12.9-5.8-12.9-12.9
			C278.6,5.7,283.8,0.8,291.6,0.8"/>
	</g>
</g>
<g id="picto_theme" transform="translate(0.45365829,18.132036)">
	<circle id="circle697" fill="none" stroke="#000000" stroke-width="2.54" stroke-miterlimit="12.7" cx="885" cy="743" r="17"/>
	<circle id="circle699" fill="none" stroke="#000000" stroke-width="2.54" stroke-miterlimit="12.7" cx="813.3" cy="781" r="17"/>
	<circle id="circle701" fill="none" stroke="#000000" stroke-width="2.54" stroke-miterlimit="12.7" cx="885" cy="819.9" r="17"/>
	
		<line id="line703" fill="none" stroke="#000000" stroke-width="2.54" stroke-miterlimit="12.7" x1="869.7" y1="751.3" x2="826.6" y2="771.7"/>
	
		<line id="line705" fill="none" stroke="#000000" stroke-width="2.54" stroke-miterlimit="12.7" x1="828.3" y1="790.5" x2="870.4" y2="811.1"/>
</g>
<g id="tracy" opacity="0.25" enable-background="new    ">
	<path fill="#3DADA8" d="M261.1,42.9c-0.2,0.1-0.5,0.3-1,0.7c0,0.1,0,0.2,0,0.2c0,0.1,0,0.1,0,0.2c-0.1,0-0.2,0-0.4-0.1
		c-0.1,0-0.1,0.1-0.2,0.3c-0.4,0.1-0.9,0.3-1.4,0.6l-1.5,0.4c-0.1,0-0.2,0-0.2-0.1c-0.1,0.1-0.2,0.2-0.2,0.2
		c0.1,0.1,0.2,0.3,0.5,0.4c-0.1,0-0.2,0-0.3,0c-0.2,0-0.6,0-1-0.1c0.2,0,0.2-0.1,0.2-0.2h-0.3c-0.1,0.1-0.2,0.2-0.2,0.3
		c-0.1-0.1-0.3-0.2-0.5-0.2V46l-0.4,0.2c0.4,0,0.7,0,0.8,0.1c-0.1,0-0.2,0-0.2,0.1h-2.4c-0.1,0-0.1,0-0.1,0.1l-2.1,0.4
		c0.3,0,0.8,0.1,1.4,0.3c0-0.1,0.1-0.2,0.2-0.4h0.3l-0.1,0.1l0.3,0.1l0.2-0.2c0,0.1,0.1,0.1,0.2,0.3h0.8c-0.2,0-0.6,0.1-1,0.3
		c-0.1,0-0.2-0.1-0.3-0.2l-0.1,0.2c-0.1,0-0.2-0.1-0.4-0.1c-0.1,0-0.2,0.1-0.3,0.2c0.2,0.1,0.5,0.1,0.8,0.1c-0.1,0-0.3,0-0.6,0
		c-0.3,0-0.5,0.1-0.6,0.1c0,0,0,0,0,0c0,0,0-0.1,0.1-0.2h-0.5l0.1,0.1c0,0.2-0.1,0.2-0.3,0.2h-3.1c-0.2-0.1-0.2-0.2-0.3-0.2h-0.2
		l0.1,0.2c-0.1,0-0.2,0-0.3,0c-0.6,0-1.3,0.1-2.1,0.2c-0.1-0.1-0.2-0.2-0.2-0.2c0,0,0,0,0,0c-0.2-0.1-0.3-0.1-0.5-0.1
		c0,0-0.1,0-0.3,0c-0.2,0-0.2,0-0.3,0c-0.4,0-0.7-0.1-0.8-0.3h-0.2c0,0-0.1,0-0.3,0.1l-2.1-0.7c0-0.1,0.1-0.1,0.1-0.1
		c0.1,0,0.1,0,0.2,0.1h0.2c0.1,0,0.2,0,0.3-0.1c-0.2-0.1-0.4-0.2-0.5-0.2c-0.1,0-0.1,0-0.2,0.1c-0.1-0.1-0.4-0.2-1-0.4
		c0,0-0.1,0.1-0.1,0.2h-0.3c0-0.1-0.1-0.2-0.3-0.2c-0.2-0.1-0.4-0.2-0.4-0.2c0-0.1-0.1-0.2-0.1-0.2c0.1,0,0.1-0.1,0.1-0.1
		c-0.1-0.1-0.2-0.1-0.3-0.1c0.1,0,0.1,0,0.2-0.1l-0.2-0.1l-0.2,0.2c-0.1-0.1-0.1-0.1-0.2-0.1c-0.1-0.1-0.1-0.3-0.2-0.6l-0.9-0.4
		c0,0,0-0.1,0.1-0.2c-0.1,0-0.2-0.2-0.4-0.5c-0.1,0-0.4-0.4-0.7-1c-0.1-0.9-0.2-1.7-0.3-2.3l-0.2-1.5c0-3.9,2.3-8,7-12.3
		c0.4-0.1,0.8-0.3,1.1-0.6c0.4-0.4,0.7-0.5,0.9-0.5c0,0,0.1,0,0.1,0c0.1-0.2,0.3-0.4,0.6-0.8c0.6-0.3,1.4-0.8,2.5-1.4
		c0.2,0,0.4,0.1,0.4,0.1l1.3-0.9l4.2-1.2h1.3c0.1,0.2,0.2,0.4,0.3,0.7c0.1,0.1,0.3,0.3,0.5,0.5c-0.2,0.1-0.3,0.3-0.3,0.5
		c0,0.7,0,1,0,1.1c0,0,0,0,0-0.1c0.1,0.1,0.3,0.3,0.5,0.6c0,0-0.2,0.1-0.4,0.2v0c0,0,0,0.1,0.1,0.3l-0.5,0.4c0.1,0,0.3,0.1,0.6,0.2
		c-0.4,0.2-0.7,0.3-0.9,0.3c-0.1,0-0.1,0-0.2,0c0,0.1-0.1,0.1-0.2,0.2c-0.3,0-0.7,0.1-1.2,0.2c-0.1,0.1-0.7,0.4-1.7,0.8
		c-0.2,0.1-0.7,0.3-1.4,0.6c-0.5,0.4-1.6,0.9-3.2,1.8c-0.9,0.8-1.8,1.5-2.5,2c-0.6,0.6-1.5,1.7-2.8,3.2c-0.1,0.1-0.2,0.1-0.3,0.2
		c-0.2,0.1-0.3,0.3-0.3,0.5c0,0.1,0,0.2,0.1,0.3c-0.2,0.2-0.5,0.5-0.9,1v0c0,0,0,0.1,0.1,0.3l-0.5,1.7v1.1c0,0.1,0.1,0.3,0.4,0.5
		c0.3,0.2,0.5,0.4,0.6,0.4c0.1,0.1,0.3,0.2,0.5,0.4c0.1,0,0.9,0.3,2.4,0.7c0.6,0.1,1.2,0.1,1.9,0.2l2.7,0.1l3-0.2l4-0.5
		c0.1,0,0.3,0,0.4,0.1l1.2-0.4c0.1,0.1,0.1,0.1,0.2,0.1l1.8-0.5h0.6l0.2,0.2h1.1c0.1,0.1,0.1,0.2,0.1,0.3c0,0,0.1,0.1,0.3,0.1
		c0,0.1-0.1,0.1-0.1,0.2c0.1,0.1,0.2,0.2,0.2,0.2c-0.1,0.1-0.3,0.2-0.5,0.4c0,0,0,0.1,0,0.1c0,0,0,0,0.1,0h0.5v0
		c0,0-0.1,0.2-0.2,0.6C260.9,42.8,261,42.8,261.1,42.9z M254,45.6h-0.3v0c0,0-0.1,0.1-0.1,0.3C253.7,45.9,253.8,45.8,254,45.6z"/>
	<path fill="#3DADA8" d="M280.6,44.8c-0.3,0.3-0.6,0.8-1.1,1.4l-0.5-0.1c0,0.1-0.1,0.2-0.2,0.4c-0.1-0.1-0.3-0.2-0.6-0.4
		c0,0,0,0-0.1,0c-0.3,0-0.9-0.3-1.7-1c-0.2-0.4-0.6-1.1-1.4-2.1l-4,3c0,0,0,0.1,0.1,0.1c0.1,0.1,0.1,0.1,0.1,0.1
		c-0.1,0.2-0.5,0.4-1.3,0.8c-2.2,0.7-3.3,1-3.3,1c-1.6,0-2.8-0.6-3.7-1.8c-0.4-1.2-0.7-2-0.7-2.6c0-0.4,0.4-1.4,1.2-3.3
		c0.7-0.8,1.2-1.2,1.5-1.2c0.1-0.1,0.9-0.6,2.2-1.6c0.6-0.3,1.7-0.7,3.1-1.3c1.4-0.3,2.2-0.5,2.2-0.6h0c0.1,0,0.4,0,0.8,0.1
		c0.3,0,0.6,0,0.8,0c0.1,0,0.2,0,0.2,0c0.6,0.3,0.9,0.6,0.9,0.9c0,0,0,0.1,0,0.1c0.1,0.1,0.4,0.5,0.8,1.3c0.1,0,0.2,0,0.3,0
		c0.4,0,0.9,0.2,1.3,0.6c0.7,1.1,1.3,2,1.8,2.9C279.8,42.9,280.3,43.9,280.6,44.8z M273.1,40.2h-0.8c-0.3,0-0.9,0.2-1.9,0.6
		l-1.7,0.7c-0.6,0.4-1.3,0.9-2.1,1.6l-0.1,0.2l0.9,0.1c2.1-0.5,3.7-1.4,4.9-2.6C272.5,40.7,272.7,40.5,273.1,40.2z"/>
	<path fill="#3DADA8" d="M310.1,41.9c0,0.2-0.1,1.3-0.3,3c-0.3,0.9-0.4,1.4-0.4,1.4v0c-0.1,0.1-0.2,0.2-0.3,0.2c0,0,0,0-0.1,0
		l-0.3,0.5c-0.4,0-0.9-0.2-1.6-0.4c-0.1-0.2-0.4-0.5-0.8-0.8c-0.2-0.4-0.2-0.8-0.2-1.4v-4.1l-0.7-2c0,0,0,0,0,0c0,0-0.1,0-0.1-0.1
		c-0.2,0.1-0.5,0.2-0.9,0.3c-1.2,0.2-2.4,1.1-3.8,2.6c-0.1,0.1-1,1.4-2.8,4c-0.2,0.5-0.6,1.2-1.2,2.2c0,0,0,0,0,0
		c-0.1,0-0.3,0.1-0.8,0.2c-0.1,0-0.2-0.1-0.3-0.1c-0.1,0.1-0.3,0.2-0.6,0.4l-0.4-0.7c0-0.1-0.2-0.2-0.4-0.3H294c0,0-0.1,0-0.2,0.1
		c-0.1,0.1-0.1,0.1-0.2,0.1c0,0,0,0,0,0c0,0-0.1-0.2-0.4-0.5l-0.1-2.4l0.4-4.9c0-0.3-0.1-0.6-0.2-1.1h0c0,0-0.1,0-0.1-0.1
		c-0.2,0.1-0.6,0.2-1.1,0.4c-0.2,0.2-0.5,0.5-1,0.9c-1.2,0.8-2.3,2-3.2,3.5c-0.9,0.9-1.5,2-2.1,3.2c-0.1,0.1-0.2,0.2-0.2,0.3
		c0,0.1,0,0.1,0.1,0.2c0.1,0.1,0.1,0.1,0.1,0.2c0,0,0,0.1-0.1,0.1c-0.1,0-0.8,0-1.8,0c-0.5-0.7-0.9-1-1.5-1c0,0,0,0,0,0
		c0-0.2-0.1-0.4-0.2-0.8c0-0.1,0-0.3-0.1-0.6c0,0,0-0.1,0-0.1c0-0.2,0.1-0.3,0.2-0.4l-0.3-0.2c0-0.6,0.3-2,0.7-4.1
		c0.1-0.4,0.3-1.3,0.6-2.5c0.4-0.7,0.5-1.1,0.6-1.1v0c0-0.1,0-0.1,0-0.1c0.7-0.3,1-0.5,1-0.6c0.3,0,0.7,0.3,1.1,1
		c0.3,0.5,0.6,0.9,0.8,1.2c0,0,0,0,0,0c0.1,0,0.2-0.1,0.5-0.3c1.1-1,2-1.7,2.6-2.2c1.1-0.8,2-1.3,2.8-1.5c0.2,0,0.4-0.1,0.5-0.3
		c0.5-0.2,0.8-0.3,1-0.3c0.5,0,1.1,0.6,1.7,1.7c0.3,0.4,0.6,1.1,1,2l0.4,2.3c0.1-0.1,0.4-0.4,1-0.8c0.3-0.2,0.5-0.4,0.8-0.8
		c0.9-1,1.9-1.9,3.1-2.6c1.4-0.9,2.6-1.3,3.6-1.3c0.7,0,1.4,0.4,2.1,1.3c0.7,0.9,1.1,1.7,1.2,2.6c0.1,0.6,0.3,1.5,0.6,2.6
		L310.1,41.9z"/>
	<path fill="#3DADA8" d="M334.4,39.8c0,0,0,0.2-0.1,0.4c-0.1,0.2-0.2,0.4-0.2,0.6c0,0.5-0.3,1.2-0.9,1.9c-0.6,0.7-1.2,1.2-1.8,1.5
		c-0.5,0.2-0.8,0.3-0.9,0.5l-3.3,1.6l-3.1,1l-0.1-0.1l-5.3,1.3c-0.1-0.1-0.2-0.1-0.3-0.1c-0.1,0-0.2,0-0.3,0.1l-1.5-0.6l-0.4,3.1V52
		l-0.5,4.6l0.1,3.2l-0.2,2.7c0,0-0.1,0.1-0.3,0.3c-0.1,0.2-0.3,0.2-0.4,0.2c-0.1,0-0.2-0.1-0.3-0.3c0,0,0,0.1-0.1,0.1l-0.2,0.2
		c0,0,0,0,0,0c-0.2,0-0.3-0.1-0.5-0.3c-0.8-0.4-1.3-1-1.6-2.1c-0.2-1.5-0.3-2.3-0.3-2.4V55l0.5-6.1c0.1-0.8,0.6-4.1,1.7-9.8
		c0.3-0.8,0.7-1.2,1.2-1.2l0.6,0.1c0.4,0.2,0.7,0.6,0.9,1c0.3,0.6,0.5,1,0.5,1.1c0,0,0,0.2,0,0.7L317,44c0,0.2,0,0.4,0.1,0.7
		c1.2-0.5,2.7-1.1,4.4-1.8c1.8-0.3,3.7-0.9,5.7-2c0.1,0,0.2-0.1,0.4-0.1c0.4-0.3,0.7-0.5,1-0.5c0.4-0.3,0.9-0.8,1.7-1.6
		c-0.2-0.5-0.6-0.9-1.2-1.2c-1-0.6-1.5-0.9-1.6-0.9l-0.3,0.1l-0.6-0.3l-0.2,0c-0.1,0-0.2,0-0.2,0l-1.8-0.4l-3.7,0.1
		c-0.1,0-0.3,0-0.5,0.1c-0.4,0.1-0.7,0.1-0.7,0.1c-1.8,0.2-3.2,0.6-4.3,1.2c-0.3,0-0.8,0.3-1.6,0.7c-1,0.5-1.5,1-1.5,1.5
		c0,0.2,0.1,0.4,0.3,0.7c-0.1,0.1-0.1,0.1-0.3,0.1c-0.1,0.1-0.1,0.2-0.1,0.3c0,0,0,0.1,0,0.1c0,0-0.1,0-0.2,0c-0.1,0-0.1,0-0.2,0
		l-0.2,0.5c-0.1,0-0.2-0.1-0.4-0.2c0,0-0.1,0.1-0.2,0.2h-0.4c-0.1-0.1-0.2-0.2-0.3-0.4L310,41c-0.2-0.3-0.5-0.6-0.7-0.7
		c0-0.3-0.1-0.6-0.1-0.8l-0.1-0.3v-1.4l0.3-0.4c0,0,0-0.1,0-0.1c0-0.4,0.2-0.8,0.7-1.2c0.4-0.3,0.8-0.6,1.2-0.9
		c0.1-0.2,0.2-0.3,0.3-0.5c0.2,0.1,0.3,0.1,0.4,0.1l5.1-2.4l3.2-0.9c0.4,0.1,0.8,0.2,1.2,0.2c0,0,0.1,0,0.3-0.1
		c0.2-0.1,0.3-0.1,0.3-0.1h1.6c0,0,0.1-0.1,0.2-0.1c0.6,0.1,1.1,0.2,1.5,0.3c0.5,0,0.9,0,1.2,0.1c0.6,0.1,1.1,0.2,1.5,0.5
		c0,0,0.1,0,0.2,0s0.2,0,0.2,0c1.2,0,2.5,0.8,3.8,2.4c0.3,0.4,0.7,0.9,1.2,1.6C334.1,37.9,334.4,39.1,334.4,39.8z"/>
	<path fill="#3DADA8" d="M351.5,38.2c-0.1,0.6-0.4,1.7-0.7,3.3c-0.2,0.7-0.6,1.6-1.3,2.8c-0.7,1-1.3,1.7-1.6,2.1
		c-0.7,0.8-1.5,1.2-2.2,1.4c-0.3,0.1-0.7,0.3-1.3,0.5c-0.9,0.2-1.5,0.3-1.7,0.3c-2.3,0-4.3-1.8-6-5.3c-0.2-0.9-0.3-1.7-0.3-2.3
		c0-0.4,0.1-1,0.3-1.8c0.6-0.5,1-0.7,1.2-0.7h0c1.3,0.6,1.9,1.5,1.9,2.8c0,0.5,0.3,1.2,1,2c0.7,0.3,1.1,0.5,1.1,0.5h0.5
		c0.1,0,0.6-0.2,1.3-0.4c1-0.7,1.7-1.2,2.1-1.5c0.8-0.7,1.2-1.4,1.3-2.1c0.1-0.4,0.5-1.4,1-3c0.3-1.1,0.7-1.8,1-2.2c0,0,0.1,0,0.2,0
		c0.1,0,0.2,0,0.3,0h0.5c0.1,0.1,0.2,0.3,0.4,0.4c0.2,0.4,0.5,0.9,0.9,1.5c0,0.1,0,0.3,0,0.4c0,0.2,0,0.3,0,0.5c0,0.1,0,0.2,0,0.3
		C351.3,37.9,351.4,38,351.5,38.2z"/>
	<path fill="#3DADA8" d="M367.2,44.6c0,0.5-0.1,1-0.3,1.5c-0.2,0.3-0.9,0.7-2.1,1.2c-1.3,0.5-2.4,0.8-3.1,0.8
		c-0.1,0-0.4-0.1-1.2-0.2c-0.2,0-0.3,0-0.5,0c-0.2,0-0.5,0-0.7,0.1l-1.5-0.3h-1.3c-0.2,0-0.6-0.1-1.3-0.4c-0.6-0.2-0.9-0.3-1.1-0.4
		c-0.1-0.2-0.2-0.5-0.4-0.7c0-0.1,0-0.2,0.1-0.2l-0.2-0.2c0.1-0.2,0.1-0.4,0.1-0.6c0-0.3-0.1-0.5-0.2-0.7c0.7-0.3,1.2-0.4,1.4-0.4
		h1.1l1.6-0.2h1l2.5-0.3c0.1-0.1,0.2-0.2,0.2-0.2c0-0.1-0.2-0.2-0.4-0.3c-0.3-0.1-0.9-0.4-1.8-0.7c-3-1.3-4.7-2.7-5.1-4.3
		c-0.1-0.3-0.2-0.5-0.3-0.6v-1.6c0-0.1,0.1-0.3,0.3-0.7c0.1-1.1,2.1-1.6,6.1-1.6h0c0,0,0.9,0.1,2.6,0.3c1.2,0.4,2,0.8,2.4,1
		c0.8,0.5,1.4,1.1,1.8,1.9c0,0.1-0.1,0.2-0.2,0.4c-0.2,0.2-0.2,0.4-0.2,0.5l0.1,0.2l-0.8,0.5h-0.2c0,0,0.1,0,0.1,0
		c0-0.1-0.6-0.2-1.9-0.6c-1.3-0.2-2.1-0.3-2.3-0.3l-2.1,0.3c0,0,0.1,0.1,0.1,0.2c0.1,0.1,0.3,0.2,0.5,0.4
		C364.7,40,367.2,42.2,367.2,44.6z"/>
	<path fill="#3DADA8" d="M403.4,44.8c-0.3,0.3-0.6,0.8-1.1,1.4l-0.5-0.1c0,0.1-0.1,0.2-0.2,0.4c-0.1-0.1-0.3-0.2-0.6-0.4
		c0,0,0,0-0.1,0c-0.3,0-0.9-0.3-1.7-1c-0.2-0.4-0.6-1.1-1.4-2.1l-4,3c0,0,0,0.1,0.1,0.1c0.1,0.1,0.1,0.1,0.1,0.1
		c-0.1,0.2-0.5,0.4-1.3,0.8c-2.2,0.7-3.3,1-3.3,1c-1.6,0-2.8-0.6-3.7-1.8c-0.4-1.2-0.7-2-0.7-2.6c0-0.4,0.4-1.4,1.2-3.3
		c0.7-0.8,1.2-1.2,1.5-1.2c0.1-0.1,0.9-0.6,2.2-1.6c0.6-0.3,1.7-0.7,3.1-1.3c1.4-0.3,2.2-0.5,2.2-0.6h0c0.1,0,0.4,0,0.8,0.1
		c0.3,0,0.6,0,0.8,0c0.1,0,0.2,0,0.2,0c0.6,0.3,0.9,0.6,0.9,0.9c0,0,0,0.1,0,0.1c0.1,0.1,0.4,0.5,0.8,1.3c0.1,0,0.2,0,0.3,0
		c0.4,0,0.9,0.2,1.3,0.6c0.7,1.1,1.3,2,1.8,2.9C402.7,42.9,403.2,43.9,403.4,44.8z M396,40.2h-0.8c-0.3,0-0.9,0.2-1.9,0.6l-1.7,0.7
		c-0.6,0.4-1.3,0.9-2.1,1.6l-0.1,0.2l0.9,0.1c2.1-0.5,3.7-1.4,4.9-2.6C395.3,40.7,395.6,40.5,396,40.2z"/>
	<path fill="#3DADA8" d="M422,53.6c-0.3,2.1-0.9,3.9-1.9,5.4c-0.1,0.2-0.5,0.6-1.2,1.3c-0.2,0.1-0.6,0.4-1.1,0.8
		c-0.6,0.3-1.1,0.5-1.6,0.7c-0.3,0.2-0.8,0.4-1.4,0.8c-0.3,0.1-0.9,0.3-1.6,0.6l-4.9,0.8l-2.4,0.1c-0.1,0-0.2-0.1-0.5-0.1
		c-0.5-0.1-1.2-0.2-2.1-0.5c-0.8-0.2-1.3-0.3-1.5-0.5c-0.2-0.1-0.7-0.5-1.7-1.2c-0.1-0.3-0.4-0.5-0.8-0.8c-0.6-1.4-1-2.2-1-2.3v-2.2
		l1-1.6c0.3-0.2,0.8-0.6,1.5-1c0.1,0.1,0.2,0.2,0.2,0.4c0,0.1-0.1,0.2-0.2,0.4c0,0,0.1,0,0.2,0c0.1,0,0.1-0.1,0.1-0.3
		c0.2-0.1,0.4-0.2,0.8-0.2l0,0.5l-0.3,0.2c0,0.1,0.1,0.3,0.2,0.6c0.3-0.1,0.4-0.1,0.5-0.1c-0.1,0.2-0.3,0.6-0.6,1v0.3
		c0,0,0.1,0.1,0.1,0.2c0,0.1,0,0.1,0,0.2c0,0.3,0,0.6,0.1,1.1c0,0.1,0.1,0.2,0.3,0.5c0.6,0.5,1.1,0.8,1.2,0.9
		c0.4,0.2,1.1,0.3,2.1,0.3l1.4,0.1c0,0,0.2,0,0.5-0.1c0.3-0.1,0.5-0.1,0.5-0.1c0,0,0.1,0,0.2,0c0.1,0,0.2,0,0.2,0
		c0.3,0,0.9-0.1,1.8-0.2c0.5-0.2,1-0.5,1.6-0.7c1-0.3,1.8-0.7,2.6-1.2c0.2-0.1,0.6-0.4,1-0.8c1.6-1,2.4-2.9,2.4-5.7l-1-5.9l-0.1-0.1
		h-0.3l-4.2,1.3c-0.2-0.1-0.6-0.1-1.1-0.1c-0.1,0-0.2,0-0.3,0c-1,0-2.2-0.4-3.5-1.3c-1.6-1-2.4-2-2.4-3l0.2-0.6
		c0-0.1-0.1-0.3-0.1-0.4c0-0.7,0.4-1.6,1.1-2.5c0.7-0.9,1.2-1.3,1.7-1.4c0.9-0.5,1.9-0.8,3-1c0.1,0,1-0.2,2.8-0.4l2-0.1
		c0.6,0.2,1.2,0.3,1.9,0.5c0.7,0.2,1.4,0.5,1.9,0.9v0.4c0.5,0.2,0.8,0.6,0.9,1.3c0.1,0.1,0.2,0.3,0.4,0.6c-0.1,0-0.2,0-0.3,0.1
		c0,0.4,0,0.6,0.1,0.6c0,0,0,0,0,0c-0.1,0-0.2-0.1-0.3-0.1l-0.1,0.1c0.2,0.4,0.4,0.9,0.7,1.5c0,0,0,0.1,0,0.1c0,0.1,0,0.1,0,0.1
		c0.1,1,0.4,2.8,0.7,5.6l0.4,3.2L422,53.6z M401.5,54c0,0,0,0.1-0.1,0.1c0,0,0,0,0,0c0,0-0.1,0-0.1,0C401.4,54,401.5,54,401.5,54z
		 M416.9,39.9l-1.5-0.1l-3,0.2c0,0,0,0,0,0c0,0-0.8,0.3-2.4,0.9l-0.5,0.5c0,0.1,0,0.1,0.1,0.2c1.1,0.3,1.9,0.4,2.3,0.4
		c0.8,0,1.7-0.2,2.8-0.6C415.9,40.9,416.7,40.4,416.9,39.9z"/>
	<path fill="#3DADA8" d="M444.8,37c-0.1,0-0.2,0.1-0.4,0.2c0,0.1,0,0.2,0,0.2l0.3,0.3c-0.5,0.1-0.9,0.3-1.4,0.5l-2.8-0.6
		c-0.5,0-1.2,0.1-2,0.3c-1,0.3-1.9,0.6-2.7,0.8c-1.6,0.6-3,1.2-4.3,1.8c-1.7,0.8-2.8,2-3.2,3.6c0,0.1,0.1,0.5,0.2,1.2v0.5
		c-0.1,0.2-0.2,0.3-0.2,0.5c0,0.1,0,0.1,0,0.2c0,0.1,0.1,0.2,0.2,0.3l-1.5,1h-0.3c-0.2-0.1-0.5-0.3-0.8-0.6l-0.4,0.1
		c-0.1-0.2-0.3-0.5-0.5-0.8c-0.1-0.3-0.2-0.5-0.3-0.7l-0.2-1v-1.3c0,0,0-0.1,0-0.2c0-0.1,0-0.2,0-0.2v-1.4c0-0.4,0.2-1.1,0.5-2.1
		c0.4-1.3,0.8-1.9,1.2-1.9h0.5l0.5,0.5h0.2c0.3,0,1.2-0.5,2.8-1.5c1.1-0.5,2.8-1.2,5-2.2c0.1,0,0.6-0.2,1.5-0.6
		c0.2,0,0.7-0.1,1.4-0.3l1.1-0.2h1.5c1.1,0,2.3,0.7,3.7,2.1c0.1,0.1,0.1,0.2,0.1,0.4c0.3,0.3,0.4,0.5,0.4,0.8V37z"/>
	<path fill="#3DADA8" d="M451.2,42.6L451.2,42.6c0,0,0,0,0,0.2c0,0.2-0.1,0.5-0.1,0.8c0,0.4,0,0.8,0,1.4v1.6l-0.5,1.1l-0.3-0.1
		c-0.1,0.1-0.2,0.1-0.3,0.2c-0.1,0-0.2-0.1-0.3-0.2c-0.1,0-0.2,0.1-0.3,0.2c-0.1-0.1-0.5-0.2-1.3-0.4c-0.4-0.6-0.7-1.6-1-3.1
		c-0.1-0.3-0.1-0.6-0.1-1c0-0.1,0-0.3,0-0.4l0.1-2.7l0.4-1.8c0.3-0.3,0.5-0.5,0.5-0.8l0.8-0.2c0.1,0,0.3,0.1,0.5,0.2
		c0.3,0.4,0.8,0.9,1.4,1.5c0.3,0.6,0.5,1.1,0.5,1.6L451.2,42.6z M452,31.2c-0.1,0.1-0.1,0.2-0.2,0.3c0.1,0.3,0.2,0.5,0.2,0.7
		c-0.1,0.2-0.4,0.3-0.8,0.6c0-0.1-0.1-0.1-0.3-0.1c-0.2,0-0.3,0-0.3,0.1c-0.4-0.2-0.9-0.4-1.5-0.5c-0.4-0.9-0.6-1.4-0.6-1.6
		c0,0,0,0,0,0l0.2-1.7c0.1,0,0.3-0.2,0.5-0.4h1c0.3,0.2,0.7,0.5,1,1.1c0.3,0.1,0.5,0.3,0.6,0.6C451.8,30.8,452,31.1,452,31.2z"/>
	<path fill="#3DADA8" d="M470.5,43.2c0,0.2,0,0.3,0,0.5c0,0.2,0,0.4,0,0.7c-0.2,0.3-0.5,0.6-1,0.9c-0.7,0.4-1.2,0.6-1.2,0.7
		c0,0.2-0.1,0.3-0.4,0.5c-0.6,0.3-1.6,0.6-3,0.9c-0.6,0.3-1.1,0.5-1.5,0.5c-0.2,0-0.3,0-0.4,0c-0.2,0.2-0.6,0.3-1,0.3
		c-0.2,0-0.6,0.1-1,0.1l-1.8-0.2c0,0-0.1,0-0.2,0c-0.1,0-0.2,0-0.2,0l-1.1-0.3c-0.2,0-0.3,0-0.3,0c-0.2,0-0.6-0.1-1.1-0.3
		c-0.5-0.2-0.9-0.4-1-0.4c-1.1-1.2-1.6-2.3-1.6-3.3c0-0.5,0.2-1.2,0.5-2.1c0.3-0.9,0.6-1.4,0.8-1.6c1.6-1.7,4.2-3.3,7.8-4.9
		c0.2-0.1,0.6-0.3,1.2-0.6c0.1,0,0.6-0.2,1.6-0.5c0.8-0.3,1.5-0.4,2-0.4c0,0,0.1,0,0.3,0c0.2,0,0.4,0,0.4,0c0.1,0,0.3,0,0.4-0.1
		l0.7,2c-0.2,0.3-0.4,0.7-0.7,1l0,0.2v0c-0.1,0.1-1.5,0.7-4.3,2c-0.1,0.1-0.3,0.3-0.6,0.6c-0.8,0.3-1.7,0.6-2.8,1
		c-0.9,0.4-1.6,1-2,1.9c0,0,0,0.1,0,0.2c0.6,0.4,1.5,0.6,2.6,0.6l7-0.8l1.9,0.5L470.5,43.2z"/>
	<path fill="#3DADA8" d="M490.9,40.7c0,0.8-0.2,1.4-0.7,2c0,0.1-0.1,0.3-0.2,0.6c-0.4,0.5-0.9,1.1-1.6,2c-1.1,0.7-2.2,1.4-3.1,2
		c-2.3,0.8-4.1,1.2-5.3,1.2h-1c-0.1,0-0.2,0-0.4-0.1c0,0,0,0,0,0c-0.3,0-1.1-0.2-2.4-0.6c-0.6-0.3-1.4-0.9-2.4-1.8
		c-0.1-0.3-0.4-0.7-0.7-1.3c-0.3-1.2-0.5-2.1-0.5-2.8l0.1-1.4v-2.2c0-0.1,0.1-0.4,0.3-1c0.2-0.6,0.3-1,0.4-1.3
		c0.2-0.5,1-1.2,2.3-2.1c0.2-0.1,0.6-0.2,1.1-0.3c0.1-0.1,0.3-0.2,0.5-0.3c0,0,0.1,0.1,0.2,0.1l0.9-0.3c0.6-0.2,1.1-0.3,1.5-0.3h2.9
		c0.3,0,0.7,0.1,1.1,0.2c0,0,0,0,0.1,0c0.7,0,2.1,0.7,4.2,2v0.3c0.3,0.3,0.8,0.7,1.4,1c0.2,0.2,0.6,1.1,1.3,2.5
		C490.8,39.4,490.9,40,490.9,40.7z M487.4,39.7v-0.4c-0.8-1.3-1.6-2-2.2-2c0,0-0.1,0-0.1,0c0,0-0.1,0-0.1,0h-0.2
		c-0.2-0.3-0.6-0.5-1.4-0.5c-0.1,0-0.2,0-0.3,0l-1.7,0.1l-3.7,0.7l-0.2,0.3v0.5c0,0.1,0,0.3,0.1,0.5c0,0.1-0.1,0.2-0.3,0.3
		c0.1,0.2,0.1,0.3,0.2,0.4c-0.2,0.2-0.3,0.3-0.5,0.3c0,0-0.2,0.3-0.4,0.8c-0.3,0.5-0.4,0.8-0.4,1c0,0,0,0.1,0.1,0.3
		c0.3,0.4,0.8,0.7,1.5,1c0.7,0.3,1.3,0.4,1.9,0.4c1.2-0.2,1.9-0.3,2.1-0.3l2.5-1c1.2-0.5,2-0.9,2.4-1.3
		C487.2,40.4,487.4,40,487.4,39.7z"/>
	<path fill="#3DADA8" d="M499,24.6l-2.7,24c-0.3,0-0.7,0.1-1.1,0.2c-0.1,0-0.2-0.1-0.3-0.2l-0.2,0c-0.1,0-0.3,0-0.4,0
		c0,0-0.3-0.3-0.8-0.6c-0.1,0-0.2,0.1-0.4,0.3c-0.1-0.2-0.2-0.4-0.3-0.7c-0.2-1.4-0.3-2.2-0.3-2.5l1.3-10.9c0.4-3,0.8-6.8,1.2-11.4
		c0.1-0.3,0.2-0.9,0.5-1.8c0.2-0.7,0.4-1.2,0.8-1.5l0.7,0.1c0.3,0.3,0.6,0.5,0.8,0.5c0.1,0.1,0.3,0.5,0.7,1c0.3,1,0.5,1.6,0.5,1.8
		V24.6z"/>
	<path fill="#3DADA8" d="M517.4,44.6c-0.1,0.2-0.3,0.5-0.5,0.9c-0.1,0-0.2,0-0.3-0.1c-0.1,0-0.3,0.1-0.5,0.3
		c0.2,0.1,0.5,0.2,0.9,0.4c-0.1,0-0.4,0.3-0.8,0.6c-0.4,0.2-1.1,0.3-1.9,0.5c-0.3,0.2-0.4,0.4-0.5,0.7l-3.9,0.5
		c-2.8-0.2-5-0.8-6.6-1.9c-1.2-1.2-1.9-2.6-2.2-4.2c-0.1-0.2-0.2-0.4-0.2-0.5c0-1,0.4-2.2,1.3-3.6c0.9-1.5,2-2.5,3.1-3
		c0.1,0,0.2,0,0.5,0c0.5-0.4,1.3-0.8,2.6-1.1c1.1-0.3,2-0.4,2.8-0.4c0.7,0,1.5,0.2,2.3,0.7c0,0,0,0.2,0,0.4c0.2,0,0.4,0.1,0.7,0.2
		c0,0.1,0.1,0.2,0.2,0.3c0,0.4,0.1,0.9,0.4,1.5v0.7c0,0.1-0.1,0.2-0.2,0.3c0.1,0.1,0.1,0.2,0.1,0.3c0,0.2-0.1,0.5-0.3,0.8
		c0,0.1,0,0.3-0.1,0.6c-0.2,0.3-0.5,0.8-0.9,1.4l-3.3,2.4c0.3,0.2,1.2,0.3,2.7,0.3l3.8,0.1C516.7,43.9,517,44.2,517.4,44.6z
		 M510.2,37.8L510.2,37.8c0,0,0-0.1-0.1-0.2c-0.8,0.3-1.3,0.5-1.6,0.7c-0.7,0.4-1.3,0.8-1.5,1.3c0.1,0,0.1,0,0.2,0.1
		C508.6,39.1,509.6,38.5,510.2,37.8z"/>
	<path fill="#3DADA8" d="M557.8,39.8c0,0,0,0.2-0.1,0.4c-0.1,0.2-0.2,0.4-0.2,0.6c0,0.5-0.3,1.2-0.9,1.9c-0.6,0.7-1.2,1.2-1.8,1.5
		c-0.5,0.2-0.8,0.3-0.9,0.5l-3.3,1.6l-3.1,1l-0.1-0.1l-5.3,1.3c-0.1-0.1-0.2-0.1-0.3-0.1c-0.1,0-0.2,0-0.3,0.1l-1.5-0.6l-0.4,3.1V52
		l-0.5,4.6l0.1,3.2l-0.2,2.7c0,0-0.1,0.1-0.3,0.3c-0.1,0.2-0.3,0.2-0.4,0.2c-0.1,0-0.2-0.1-0.3-0.3c0,0,0,0.1-0.1,0.1l-0.2,0.2
		c0,0,0,0,0,0c-0.2,0-0.3-0.1-0.5-0.3c-0.8-0.4-1.3-1-1.6-2.1c-0.2-1.5-0.3-2.3-0.3-2.4V55l0.5-6.1c0.1-0.8,0.6-4.1,1.7-9.8
		c0.3-0.8,0.7-1.2,1.2-1.2l0.6,0.1c0.4,0.2,0.7,0.6,0.9,1c0.3,0.6,0.5,1,0.5,1.1c0,0,0,0.2,0,0.7l-0.3,3.1c0,0.2,0,0.4,0.1,0.7
		c1.2-0.5,2.7-1.1,4.4-1.8c1.8-0.3,3.7-0.9,5.7-2c0.1,0,0.2-0.1,0.4-0.1c0.4-0.3,0.7-0.5,1-0.5c0.4-0.3,0.9-0.8,1.7-1.6
		c-0.2-0.5-0.6-0.9-1.2-1.2c-1-0.6-1.5-0.9-1.6-0.9l-0.3,0.1l-0.6-0.3l-0.2,0c-0.1,0-0.2,0-0.2,0l-1.8-0.4l-3.7,0.1
		c-0.1,0-0.3,0-0.5,0.1c-0.4,0.1-0.7,0.1-0.7,0.1c-1.8,0.2-3.2,0.6-4.3,1.2c-0.3,0-0.8,0.3-1.6,0.7c-1,0.5-1.5,1-1.5,1.5
		c0,0.2,0.1,0.4,0.3,0.7c-0.1,0.1-0.1,0.1-0.3,0.1c-0.1,0.1-0.1,0.2-0.1,0.3c0,0,0,0.1,0,0.1c0,0-0.1,0-0.2,0c-0.1,0-0.1,0-0.2,0
		l-0.2,0.5c-0.1,0-0.2-0.1-0.4-0.2c0,0-0.1,0.1-0.2,0.2h-0.4c-0.1-0.1-0.2-0.2-0.3-0.4l-0.2,0.2c-0.2-0.3-0.5-0.6-0.7-0.7
		c0-0.3-0.1-0.6-0.1-0.8l-0.1-0.3v-1.4l0.3-0.4c0,0,0-0.1,0-0.1c0-0.4,0.2-0.8,0.7-1.2c0.4-0.3,0.8-0.6,1.2-0.9
		c0.1-0.2,0.2-0.3,0.3-0.5c0.2,0.1,0.3,0.1,0.4,0.1l5.1-2.4l3.2-0.9c0.4,0.1,0.8,0.2,1.2,0.2c0,0,0.1,0,0.3-0.1
		c0.2-0.1,0.3-0.1,0.3-0.1h1.6c0,0,0.1-0.1,0.2-0.1c0.6,0.1,1.1,0.2,1.5,0.3c0.5,0,0.9,0,1.2,0.1c0.6,0.1,1.1,0.2,1.5,0.5
		c0,0,0.1,0,0.2,0s0.2,0,0.2,0c1.2,0,2.5,0.8,3.8,2.4c0.3,0.4,0.7,0.9,1.2,1.6C557.5,37.9,557.8,39.1,557.8,39.8z"/>
	<path fill="#3DADA8" d="M574.9,38.2c-0.1,0.6-0.4,1.7-0.7,3.3c-0.2,0.7-0.6,1.6-1.3,2.8c-0.7,1-1.3,1.7-1.6,2.1
		c-0.7,0.8-1.5,1.2-2.2,1.4c-0.3,0.1-0.7,0.3-1.3,0.5c-0.9,0.2-1.5,0.3-1.7,0.3c-2.3,0-4.3-1.8-6-5.3c-0.2-0.9-0.3-1.7-0.3-2.3
		c0-0.4,0.1-1,0.3-1.8c0.6-0.5,1-0.7,1.2-0.7h0c1.3,0.6,1.9,1.5,1.9,2.8c0,0.5,0.3,1.2,1,2c0.7,0.3,1.1,0.5,1.1,0.5h0.5
		c0.1,0,0.6-0.2,1.3-0.4c1-0.7,1.7-1.2,2.1-1.5c0.8-0.7,1.2-1.4,1.3-2.1c0.1-0.4,0.5-1.4,1-3c0.3-1.1,0.7-1.8,1-2.2c0,0,0.1,0,0.2,0
		c0.1,0,0.2,0,0.3,0h0.5c0.1,0.1,0.2,0.3,0.4,0.4c0.2,0.4,0.5,0.9,0.9,1.5c0,0.1,0,0.3,0,0.4c0,0.2,0,0.3,0,0.5c0,0.1,0,0.2,0,0.3
		C574.8,37.9,574.8,38,574.9,38.2z"/>
	<path fill="#3DADA8" d="M598.8,38.6c0,0.2-0.3,1-1,2.4c-0.3,0.2-0.5,0.5-0.6,0.8c-1.2,1.1-2.7,2.1-4.4,3c-0.3,0.2-1.8,0.8-4.4,2
		c-0.4,0.1-0.9,0.2-1.7,0.4c-0.8,0.2-1.2,0.3-1.2,0.3s-0.1,0-0.3,0c-0.2,0-0.3,0-0.3,0c-0.3-0.3-0.6-0.5-0.9-0.5c-0.1,0-0.1,0-0.2,0
		c-0.1-0.1-0.2-0.3-0.4-0.6c-0.1,0.3-0.3,0.6-0.5,0.9c-0.2,0.1-0.3,0.1-0.5,0.1c-0.1,0-0.1,0-0.2,0l-0.3,0.3h-0.2
		c-0.1,0-0.3-0.1-0.9-0.4c-0.3,0.1-0.4,0.1-0.5,0.1c-0.5-0.4-0.8-0.8-0.8-1.1c-0.2-0.3-0.4-0.8-0.5-1.3c-0.2-0.3-0.3-0.6-0.3-0.9
		c0-0.2-0.1-0.5-0.1-0.9c-0.1-0.4-0.1-0.7-0.2-0.7v0.1v-1.6c-0.1-0.5-0.1-0.9-0.1-1.1c0-0.1,0-0.1,0-0.1c0-0.1,0-0.3,0-0.4
		c0-0.2,0-0.4,0.1-0.6c-0.1-0.2-0.4-0.4-1-0.6c-0.4-0.4-0.6-0.9-0.6-1.5c0-0.4,0.2-0.8,0.5-1.3c0.3-0.5,0.6-0.8,0.9-1l0.1-7.7
		c0-0.5,0.1-1.6,0.2-3.2c0.1-0.9,0.3-1.7,0.7-2.4c0.1-0.1,0.2-0.2,0.4-0.3c0.4-0.2,0.6-0.3,0.8-0.3c0,0,0.1,0,0.3,0.1
		c0.2,0.1,0.3,0.1,0.3,0.1c0.1,0.3,0.4,0.7,0.8,1.2c0.1,0.4,0.3,0.9,0.5,1.5c0,0.1,0,0.1,0,0.2c0,0.2,0,0.4,0,0.7
		c0,0.3,0.1,0.7,0.1,1.1l0.3,7.4c0,0.1,0.1,0.1,0.2,0.2c0.1,0,0.4-0.1,1.1-0.1l3.2-0.3l3.1,0.1c0.1,0,0.5,0,1.2,0.1
		c0.8,0.2,1.6,0.3,2.2,0.5c0.1,0.1,0.3,0.2,0.6,0.3c0.8,0.2,1.7,0.7,2.6,1.6c0.8,0.8,1.3,1.5,1.6,2.3
		C598.5,38.1,598.7,38.6,598.8,38.6C598.8,38.6,598.8,38.6,598.8,38.6z M593.7,38.6v-0.2c-0.2-0.3-0.6-0.6-1-0.9
		c-1.1-0.4-2.4-0.7-3.8-0.8c-0.2-0.1-0.4-0.1-0.4-0.1h0l-3.1,0.1c-0.5,0-1.5,0.3-2.9,0.8V38c0,0,0,0.1,0.1,0.2
		c0.1,0.1,0.1,0.2,0.1,0.2v1.6l0.6,4.1c0,0,0.1-0.1,0.2-0.1c0-0.1,0.1-0.2,0.2-0.3c0.8-0.5,2.1-1.1,4-1.7c1.8-0.7,2.9-1.2,3.3-1.5
		C591.3,40.5,592.2,39.8,593.7,38.6z"/>
	<path fill="#3DADA8" d="M606.7,24.6l-2.7,24c-0.3,0-0.7,0.1-1.1,0.2c-0.1,0-0.2-0.1-0.3-0.2l-0.2,0c-0.1,0-0.3,0-0.4,0
		c0,0-0.3-0.3-0.8-0.6c-0.1,0-0.2,0.1-0.4,0.3c-0.1-0.2-0.2-0.4-0.3-0.7c-0.2-1.4-0.3-2.2-0.3-2.5l1.3-10.9c0.4-3,0.8-6.8,1.2-11.4
		c0.1-0.3,0.2-0.9,0.5-1.8c0.2-0.7,0.4-1.2,0.8-1.5l0.7,0.1c0.3,0.3,0.6,0.5,0.8,0.5c0.1,0.1,0.3,0.5,0.7,1c0.3,1,0.5,1.6,0.5,1.8
		V24.6z"/>
	<path fill="#3DADA8" d="M613.5,42.6L613.5,42.6c0,0,0,0,0,0.2c0,0.2-0.1,0.5-0.1,0.8c0,0.4,0,0.8,0,1.4v1.6l-0.5,1.1l-0.3-0.1
		c-0.1,0.1-0.2,0.1-0.3,0.2c-0.1,0-0.2-0.1-0.3-0.2c-0.1,0-0.2,0.1-0.3,0.2c-0.1-0.1-0.5-0.2-1.3-0.4c-0.4-0.6-0.7-1.6-1-3.1
		c-0.1-0.3-0.1-0.6-0.1-1c0-0.1,0-0.3,0-0.4l0.1-2.7l0.4-1.8c0.3-0.3,0.5-0.5,0.5-0.8l0.8-0.2c0.1,0,0.3,0.1,0.5,0.2
		c0.3,0.4,0.8,0.9,1.4,1.5c0.3,0.6,0.5,1.1,0.5,1.6L613.5,42.6z M614.3,31.2c-0.1,0.1-0.1,0.2-0.2,0.3c0.1,0.3,0.2,0.5,0.2,0.7
		c-0.1,0.2-0.4,0.3-0.8,0.6c0-0.1-0.1-0.1-0.3-0.1c-0.2,0-0.3,0-0.3,0.1c-0.4-0.2-0.9-0.4-1.5-0.5c-0.4-0.9-0.6-1.4-0.6-1.6
		c0,0,0,0,0,0l0.2-1.7c0.1,0,0.3-0.2,0.5-0.4h1c0.3,0.2,0.7,0.5,1,1.1c0.3,0.1,0.5,0.3,0.6,0.6C614.2,30.8,614.3,31.1,614.3,31.2z"
		/>
	<path fill="#3DADA8" d="M632.9,43.2c0,0.2,0,0.3,0,0.5c0,0.2,0,0.4,0,0.7c-0.2,0.3-0.5,0.6-1,0.9c-0.7,0.4-1.2,0.6-1.2,0.7
		c0,0.2-0.1,0.3-0.4,0.5c-0.6,0.3-1.6,0.6-3,0.9c-0.6,0.3-1.1,0.5-1.5,0.5c-0.2,0-0.3,0-0.4,0c-0.2,0.2-0.5,0.3-1,0.3
		c-0.2,0-0.6,0.1-1,0.1l-1.8-0.2c0,0-0.1,0-0.2,0s-0.2,0-0.2,0l-1.1-0.3c-0.2,0-0.3,0-0.3,0c-0.2,0-0.6-0.1-1.1-0.3
		c-0.5-0.2-0.9-0.4-1-0.4c-1.1-1.2-1.6-2.3-1.6-3.3c0-0.5,0.2-1.2,0.5-2.1c0.3-0.9,0.6-1.4,0.8-1.6c1.6-1.7,4.2-3.3,7.8-4.9
		c0.2-0.1,0.6-0.3,1.2-0.6c0.1,0,0.6-0.2,1.6-0.5c0.8-0.3,1.5-0.4,2-0.4c0,0,0.1,0,0.3,0c0.2,0,0.4,0,0.4,0c0.1,0,0.3,0,0.4-0.1
		l0.7,2c-0.2,0.3-0.4,0.7-0.7,1l0,0.2v0c-0.1,0.1-1.5,0.7-4.3,2c-0.1,0.1-0.3,0.3-0.6,0.6c-0.8,0.3-1.7,0.6-2.8,1
		c-0.9,0.4-1.6,1-2,1.9c0,0,0,0.1,0,0.2c0.6,0.4,1.5,0.6,2.6,0.6l7-0.8l1.9,0.5L632.9,43.2z"/>
	<path fill="#3DADA8" d="M688.1,22.4c-0.1,0.2-0.1,0.5-0.2,1c0,0.5-0.1,0.8-0.1,0.9c0.1,0.2,0.2,0.3,0.2,0.5c0,0-0.1,0-0.2,0
		c-0.1,0-0.1,0-0.2,0c-0.1,0.3-0.3,0.7-0.7,1.2c0.1,0.2,0.1,0.2,0.1,0.2c-0.1,0.1-0.2,0.2-0.4,0.3l-2.1-0.2l-3,0.2c0,0,0,0,0,0
		c-0.1,0-0.1-0.1-0.2-0.2c0,0,0,0,0,0c-0.1,0-0.2,0.1-0.4,0.2c-0.1,0-0.2,0-0.5,0s-0.4,0-0.5,0c-0.4,0-0.7,0-0.9,0.1
		c0-0.1-0.1-0.2-0.2-0.3c0,0.1-0.2,0.1-0.4,0.1l-1.6,0.5c-0.1,0-0.3,0-0.6,0l-0.4,0c-0.1,0-0.2-0.1-0.3-0.2l-0.1,0.2
		c0,0-0.2,0-0.6,0.1c-0.3,0.1-0.5,0.1-0.5,0.1c0,0-0.2,0-0.6-0.1c-0.4-0.1-0.6-0.1-0.6-0.1l-1.9,0.2c-0.1,0.2-0.2,0.3-0.2,0.3
		c-0.1-0.1-0.2-0.1-0.3-0.3c-0.2,0.1-0.3,0.1-0.4,0.1c-0.1,0-0.2,0-0.3-0.1c-0.2,0.1-0.2,0.2-0.2,0.3h-0.9c0,0.1-0.1,0.1-0.1,0.2
		l-2.2,0.5c-0.4,1-0.8,3-1.4,6.1c0,0.2,0,0.3,0,0.5c0,0.1,0,0.2,0,0.3c-0.8,4.8-1.2,8.4-1.3,10.8c-0.1,0.1-0.2,0.1-0.4,0.1
		c-0.1,0.3-0.1,0.5-0.1,0.7c-0.4,0.2-0.6,0.4-0.8,0.6h0.1c-0.1-0.1-0.6-0.2-1.5-0.3c-0.2-0.4-0.2-0.6-0.3-0.6c0,0-0.1,0-0.3,0
		c-0.2-0.3-0.4-0.7-0.7-1.3l0.1-4l1.4-8.7c0.2-0.9,0.5-2,0.7-3V29c-0.1-0.1-0.1-0.2-0.2-0.3c-0.5,0.1-0.7,0.2-0.7,0.2h0
		c0,0-0.1,0-0.2-0.1c-0.1-0.1-0.1-0.1-0.1-0.1c0,0-0.3,0.1-0.7,0.2c-0.4,0.1-0.7,0.2-0.7,0.2c0,0-0.1,0-0.3,0c-0.2,0-0.3,0-0.3,0
		l-2,0.4c-0.2-0.1-0.4-0.1-0.4-0.1l-2.7,0.6l-2.7,0.3l-1.5,0c-0.4-0.3-0.7-0.5-1.1-0.6c-0.1-0.1-0.1-0.2-0.1-0.3
		c-0.1-0.1-0.2-0.2-0.3-0.2c0,0,0-0.1,0-0.1c0-0.2-0.1-0.4-0.3-0.7v-0.4l0.7-2.3c0.2-0.1,0.6-0.3,1-0.6c1.4-0.3,4.2-0.7,8.3-1.3
		l24.1-3h5.1c0,0.1,0.2,0.3,0.5,0.7c0.3,0.4,0.4,0.6,0.4,0.7c0,0.1,0,0.1,0,0.1C687.8,22.3,687.9,22.3,688.1,22.4z"/>
	<path fill="#3DADA8" d="M690.9,37c-0.1,0-0.2,0.1-0.4,0.2c0,0.1,0,0.2,0,0.2l0.3,0.3c-0.5,0.1-0.9,0.3-1.4,0.5l-2.8-0.6
		c-0.5,0-1.2,0.1-2,0.3c-1,0.3-1.9,0.6-2.7,0.8c-1.6,0.6-3,1.2-4.3,1.8c-1.7,0.8-2.8,2-3.2,3.6c0,0.1,0,0.5,0.2,1.2v0.5
		c-0.1,0.2-0.2,0.3-0.2,0.5c0,0.1,0,0.1,0,0.2c0,0.1,0.1,0.2,0.2,0.3l-1.5,1h-0.3c-0.2-0.1-0.5-0.3-0.8-0.6l-0.4,0.1
		c-0.1-0.2-0.3-0.5-0.5-0.8c-0.1-0.3-0.2-0.5-0.3-0.7l-0.2-1v-1.3c0,0,0-0.1,0-0.2c0-0.1,0-0.2,0-0.2v-1.4c0-0.4,0.2-1.1,0.5-2.1
		c0.4-1.3,0.8-1.9,1.2-1.9h0.5l0.5,0.5h0.2c0.3,0,1.2-0.5,2.8-1.5c1.1-0.5,2.8-1.2,5-2.2c0.1,0,0.6-0.2,1.5-0.6
		c0.2,0,0.7-0.1,1.4-0.3l1.1-0.2h1.5c1.1,0,2.3,0.7,3.7,2.1c0.1,0.1,0.1,0.2,0.1,0.4c0.3,0.3,0.4,0.5,0.4,0.8V37z"/>
	<path fill="#3DADA8" d="M710.4,44.8c-0.3,0.3-0.6,0.8-1.1,1.4l-0.5-0.1c0,0.1-0.1,0.2-0.2,0.4c-0.1-0.1-0.3-0.2-0.6-0.4
		c0,0,0,0-0.1,0c-0.3,0-0.9-0.3-1.7-1c-0.2-0.4-0.6-1.1-1.4-2.1l-4,3c0,0,0,0.1,0.1,0.1c0,0.1,0.1,0.1,0.1,0.1
		c-0.1,0.2-0.5,0.4-1.3,0.8c-2.2,0.7-3.3,1-3.3,1c-1.6,0-2.8-0.6-3.7-1.8c-0.4-1.2-0.7-2-0.7-2.6c0-0.4,0.4-1.4,1.2-3.3
		c0.7-0.8,1.2-1.2,1.5-1.2c0.1-0.1,0.9-0.6,2.2-1.6c0.6-0.3,1.7-0.7,3.1-1.3c1.4-0.3,2.2-0.5,2.2-0.6h0c0.1,0,0.4,0,0.8,0.1
		c0.3,0,0.6,0,0.8,0c0.1,0,0.2,0,0.2,0c0.6,0.3,0.9,0.6,0.9,0.9c0,0,0,0.1,0,0.1c0.1,0.1,0.4,0.5,0.8,1.3c0.1,0,0.2,0,0.3,0
		c0.4,0,0.9,0.2,1.3,0.6c0.7,1.1,1.3,2,1.8,2.9C709.7,42.9,710.2,43.9,710.4,44.8z M703,40.2h-0.8c-0.3,0-0.9,0.2-1.9,0.6l-1.7,0.7
		c-0.6,0.4-1.3,0.9-2.1,1.6l-0.1,0.2l0.9,0.1c2.1-0.5,3.7-1.4,4.9-2.6C702.4,40.7,702.6,40.5,703,40.2z"/>
	<path fill="#3DADA8" d="M729.1,43.2c0,0.2,0,0.3,0,0.5c0,0.2,0,0.4,0,0.7c-0.2,0.3-0.5,0.6-1,0.9c-0.7,0.4-1.2,0.6-1.2,0.7
		c0,0.2-0.1,0.3-0.4,0.5c-0.6,0.3-1.6,0.6-3,0.9c-0.6,0.3-1.1,0.5-1.5,0.5c-0.2,0-0.3,0-0.4,0c-0.2,0.2-0.5,0.3-1,0.3
		c-0.2,0-0.6,0.1-1,0.1l-1.8-0.2c0,0-0.1,0-0.2,0c-0.1,0-0.2,0-0.2,0l-1.1-0.3c-0.2,0-0.3,0-0.3,0c-0.2,0-0.6-0.1-1.1-0.3
		c-0.5-0.2-0.9-0.4-1-0.4c-1.1-1.2-1.6-2.3-1.6-3.3c0-0.5,0.2-1.2,0.5-2.1c0.3-0.9,0.6-1.4,0.8-1.6c1.6-1.7,4.2-3.3,7.8-4.9
		c0.2-0.1,0.6-0.3,1.2-0.6c0.1,0,0.6-0.2,1.6-0.5c0.8-0.3,1.5-0.4,2-0.4c0,0,0.1,0,0.3,0c0.2,0,0.4,0,0.4,0c0.1,0,0.3,0,0.4-0.1
		l0.7,2c-0.2,0.3-0.4,0.7-0.7,1l0,0.2v0c-0.1,0.1-1.5,0.7-4.3,2c-0.1,0.1-0.3,0.3-0.6,0.6c-0.8,0.3-1.7,0.6-2.8,1
		c-0.9,0.4-1.6,1-2,1.9c0,0,0,0.1,0,0.2c0.6,0.4,1.5,0.6,2.6,0.6l7-0.8l1.9,0.5L729.1,43.2z"/>
	<path fill="#3DADA8" d="M745.3,40.5c0,1.2-0.6,3.8-1.7,7.6c-0.2,0.6-1,2.9-2.5,7c0,0.1,0.1,0.1,0.2,0.1H741l-1.4,3.4l-1.6,5
		c-0.1,0.1-0.4,0.3-0.8,0.8c-0.1,0-0.2,0-0.5,0.1l-0.4,0.1c0,0-0.2,0-0.4-0.1c-0.3-0.3-0.8-0.9-1.5-1.6c-0.2-0.8-0.4-1.6-0.4-2.3
		l0.4-2.2l1.5-4.3l2.8-6.8c0-0.1-0.1-0.2-0.1-0.3c-1.1,0.3-1.9,0.5-2.3,0.5c-1.7,0-3-1.1-4-3.2c-0.8-1.7-1.2-3.5-1.2-5.4
		c0-0.5,0.1-1,0.3-1.6c0.2-0.2,0.5-0.5,0.9-0.9h0.2c0.5,0,1,0.4,1.5,1.2c0.2,0.3,0.4,0.7,0.5,1.3c0.5,2.4,0.9,3.6,1.3,3.6
		c0.8,0,2-0.6,3.4-1.8c1.2-1,2.2-2,3-3c0.2,0,0.4-0.1,0.6-0.3c0.2,0.1,0.5,0.1,0.8,0.1c0.2,0.2,0.4,0.5,0.8,0.9
		c0.1,0,0.2,0.1,0.3,0.1C745.1,39,745.3,39.7,745.3,40.5z"/>
	<path fill="#3DADA8" d="M787.4,22.6c-0.1,0.3-0.3,0.9-0.4,1.6c-0.2,0.3-0.4,0.8-0.8,1.5c-0.5,0.6-0.8,1.3-1,1.9
		c-0.1,0.1-0.4,0.6-1.1,1.6c-0.7,1.4-1.3,2.5-2,3.3l-2.6,5.3l-2.3,3.8c-0.1,0.1-0.1,0.3-0.1,0.5c-0.8,1.4-1.8,3.1-3,5.2
		c-0.1,0.3-0.3,0.4-0.4,0.5l0.1,0.3c-0.2,0.2-0.3,0.2-0.5,0.2c-0.2,0.3-0.3,0.5-0.4,0.7c-0.1,0-0.2,0-0.6,0c-0.3,0-0.5,0.1-0.5,0.1
		l-0.1-0.1l-1.3-0.4c-1.2-1.5-2.2-3.3-3-5.6c-0.3-0.9-0.9-2.7-1.7-5.3c0-0.1-0.1-0.3-0.1-0.7c-0.1-0.1-0.1-0.2-0.2-0.3
		c0-0.1-0.2-1-0.7-2.5c-0.4-1.4-1-4-1.7-7.6l0.6-2.7c0.3-0.1,0.5-0.3,0.8-0.5h0.3c0.2,0,0.6,0.4,1.3,1.2c0.6,0.9,1,2,1.4,3.3
		l1.1,3.9l3.5,10c0.6-0.6,1.3-1.7,2.2-3.1c0.9-1.5,1.8-3,2.7-4.5c0.2-0.4,0.8-1.2,1.6-2.6c0.1-0.2,0.1-0.3,0.1-0.4
		c0.1-0.2,0.3-0.4,0.6-0.8c1-1.6,2.5-4.4,4.6-8.6c0.3-0.4,0.7-1,1.4-1.9c0.1,0,0.2-0.1,0.4-0.3c0,0,0.1,0,0.1,0c0.1,0,0.3,0,0.4-0.1
		c0,0.1,0,0.3,0.1,0.5c0.2,0.1,0.5,0.2,0.8,0.2L787,21c0.1,0,0.2,0.1,0.4,0.2c0,0.1,0,0.3,0,0.5C787.4,22,787.4,22.3,787.4,22.6z"/>
	<path fill="#3DADA8" d="M794.8,42.6L794.8,42.6c0,0,0,0,0,0.2c0,0.2-0.1,0.5-0.1,0.8c0,0.4,0,0.8,0,1.4v1.6l-0.5,1.1l-0.3-0.1
		c-0.1,0.1-0.2,0.1-0.3,0.2c-0.1,0-0.2-0.1-0.3-0.2c-0.1,0-0.2,0.1-0.3,0.2c-0.1-0.1-0.5-0.2-1.3-0.4c-0.4-0.6-0.7-1.6-1-3.1
		c0-0.3-0.1-0.6-0.1-1c0-0.1,0-0.3,0-0.4l0.1-2.7l0.4-1.8c0.3-0.3,0.5-0.5,0.5-0.8l0.8-0.2c0.1,0,0.3,0.1,0.5,0.2
		c0.3,0.4,0.8,0.9,1.4,1.5c0.3,0.6,0.5,1.1,0.5,1.6L794.8,42.6z M795.7,31.2c-0.1,0.1-0.1,0.2-0.2,0.3c0.1,0.3,0.2,0.5,0.2,0.7
		c-0.1,0.2-0.4,0.3-0.8,0.6c0-0.1-0.1-0.1-0.3-0.1c-0.2,0-0.3,0-0.3,0.1c-0.4-0.2-0.9-0.4-1.5-0.5c-0.4-0.9-0.6-1.4-0.6-1.6
		c0,0,0,0,0,0l0.2-1.7c0.1,0,0.3-0.2,0.5-0.4h1c0.3,0.2,0.7,0.5,1,1.1c0.3,0.1,0.5,0.3,0.6,0.6C795.5,30.8,795.6,31.1,795.7,31.2z"
		/>
	<path fill="#3DADA8" d="M817.7,37c-0.1,0-0.2,0.1-0.4,0.2c0,0.1,0,0.2,0,0.2l0.3,0.3c-0.5,0.1-0.9,0.3-1.4,0.5l-2.8-0.6
		c-0.5,0-1.2,0.1-2,0.3c-1,0.3-1.9,0.6-2.7,0.8c-1.6,0.6-3,1.2-4.3,1.8c-1.7,0.8-2.8,2-3.2,3.6c0,0.1,0,0.5,0.2,1.2v0.5
		c-0.1,0.2-0.2,0.3-0.2,0.5c0,0.1,0,0.1,0,0.2c0,0.1,0.1,0.2,0.2,0.3l-1.5,1h-0.3c-0.2-0.1-0.5-0.3-0.8-0.6l-0.4,0.1
		c-0.1-0.2-0.3-0.5-0.5-0.8c-0.1-0.3-0.2-0.5-0.3-0.7l-0.2-1v-1.3c0,0,0-0.1,0-0.2c0-0.1,0-0.2,0-0.2v-1.4c0-0.4,0.2-1.1,0.5-2.1
		c0.4-1.3,0.8-1.9,1.2-1.9h0.5l0.5,0.5h0.2c0.3,0,1.2-0.5,2.8-1.5c1.1-0.5,2.8-1.2,5-2.2c0.1,0,0.6-0.2,1.5-0.6
		c0.2,0,0.7-0.1,1.4-0.3l1.1-0.2h1.5c1.1,0,2.3,0.7,3.7,2.1c0.1,0.1,0.1,0.2,0.1,0.4c0.3,0.3,0.4,0.5,0.4,0.8V37z"/>
	<path fill="#3DADA8" d="M835.7,44.6c-0.1,0.2-0.3,0.5-0.5,0.9c-0.1,0-0.2,0-0.3-0.1c-0.1,0-0.3,0.1-0.5,0.3
		c0.2,0.1,0.5,0.2,0.9,0.4c-0.1,0-0.4,0.3-0.8,0.6c-0.4,0.2-1.1,0.3-1.9,0.5c-0.3,0.2-0.4,0.4-0.5,0.7l-3.9,0.5
		c-2.8-0.2-5-0.8-6.6-1.9c-1.2-1.2-1.9-2.6-2.2-4.2c-0.1-0.2-0.2-0.4-0.2-0.5c0-1,0.4-2.2,1.3-3.6c0.9-1.5,2-2.5,3.1-3
		c0.1,0,0.2,0,0.5,0c0.5-0.4,1.3-0.8,2.6-1.1c1.1-0.3,2-0.4,2.8-0.4c0.7,0,1.5,0.2,2.3,0.7c0,0,0,0.2,0,0.4c0.2,0,0.4,0.1,0.7,0.2
		c0,0.1,0.1,0.2,0.2,0.3c0,0.4,0.1,0.9,0.4,1.5v0.7c0,0.1-0.1,0.2-0.2,0.3c0.1,0.1,0.1,0.2,0.1,0.3c0,0.2-0.1,0.5-0.3,0.8
		c0,0.1,0,0.3-0.1,0.6c-0.2,0.3-0.5,0.8-0.9,1.4l-3.3,2.4c0.3,0.2,1.2,0.3,2.7,0.3l3.8,0.1C835,43.9,835.3,44.2,835.7,44.6z
		 M828.5,37.8L828.5,37.8c0,0,0-0.1-0.1-0.2c-0.8,0.3-1.3,0.5-1.6,0.7c-0.7,0.4-1.3,0.8-1.5,1.3c0.1,0,0.1,0,0.2,0.1
		C827,39.1,827.9,38.5,828.5,37.8z"/>
</g>
</svg>
