<?xml version="1.0" encoding="utf-8"?>
<!-- Generator: Adobe Illustrator 27.4.1, SVG Export Plug-In . SVG Version: 6.00 Build 0)  -->
<svg version="1.1" id="Calque_1" xmlns="http://www.w3.org/2000/svg" xmlns:xlink="http://www.w3.org/1999/xlink" x="0px" y="0px"
	 viewBox="0 0 1000 1000" enable-background="new 0 0 1000 1000" xml:space="preserve">
<g id="logo">
	
		<g id="g883_00000022539221150303535710000012577670282461929904_" transform="matrix(0.94456457,0,0,0.94456457,10.968378,31.18083)">
		<g id="g2828_00000171696707967573187200000003861866410656769187_">
			<g id="g32_00000012470246598759000750000011345678251396794009_">
				<g>
					<g id="g2830_00000147216620090965507800000015131937843293734299_">
						<g id="g2836_00000138573249127852964640000007795465304216835220_" transform="translate(427.0015,362.0531)">
							<path id="path2838_00000179611919407770736170000005572243517571327650_" fill="#0099FF" d="M-275.4-356.2
								c2.4,15.7-3,34.2-17.5,42.5c-16.1,7.8-29.8,1.5-18,24.9c-0.1,0.1-0.2,0.2-0.3,0.2c-23.9-19.2,6.1-29.7,18.2-43
								c-0.1-0.1-0.2-0.2-0.2-0.3c-7.7,4.4-14.9,9.8-22.9,13.7c-0.6,0.3-1.1,0.3-1.1-0.6c0.2-8.1,3.4-17,11.4-20.5
								C-295.4-344.2-281.5-345.2-275.4-356.2"/>
						</g>
						<g id="g2840_00000151519121191915560580000013807043178792810383_" transform="translate(143.617,309.6074)">
							<path id="path2842_00000058565123737901383970000011303555799292898996_" fill="#97D123" d="M-80.4-287.6
								c17.8,18.2,60.2,34.7,25.4,61.1c23.2-43.5-23.4-17.7-42.1-51.6c-8.3-13.5-11.2-30-9.1-45.5c10.7,19.6,37.2,15.5,51.8,30.2
								c6.4,6.3,7.7,15,8.5,23.5c1.7,6.2-31-17.1-34.1-18C-80.2-287.9-80.3-287.7-80.4-287.6"/>
						</g>
						<g id="g2844_00000035489690301249952040000003686994366910632093_" transform="translate(65.4546,150.0839)">
							<path id="path2846_00000026142188087656289550000005365780029706677692_" fill="#336633" d="M-26.7-79.1
								C9.9-78.5,40-72.8,69.8-58.2c2.4,1,1.7,1.8-0.8,2.4c-4,1-8.1,2-12.1,3.1c-2.3,0.6-3.7,0.2-5.3-0.6
								c-6.8-3.6-13.3-7.4-20.7-10.7c-18.4-8.5-44.4-13.1-67.5-13.2c-1.9,0.2-3.7-0.2-5.4-0.8C-37.2-79.6-31.8-78.8-26.7-79.1"/>
						</g>
						<g id="g2848_00000170958630105484673390000005179589353395938983_" transform="translate(235.3552,55.1964)">
							<path id="path2850_00000051369547442575571340000007629012325295842726_" fill="#F9A72B" fill-opacity="0.9804" d="
								M-143.5,44.9c-19.1-1.5-44.4-6.8-53.2-20.2c22.3,1,38.8,8.6,53.9,19.5C-143.1,44.4-143.3,44.7-143.5,44.9"/>
						</g>
						<g id="g2852_00000003070772560924131070000015064573491751975856_" transform="translate(310.5638,57.8876)">
							<path id="path2854_00000103239456135586455770000018070281958382022323_" fill="#339933" d="M-195.3,41.4
								c-5.7,0.3-10.6,0.7-15.6,0.8c-1,0-2.5-0.7-3.2-1.3c-6.2-4.8-13.3-9.2-21.9-13c-10.9-4.8-23.4-7.9-37.8-8.7
								c-1.8,0.2-3-0.6-4.4-1.4C-249.8,15.6-215.2,26.7-195.3,41.4"/>
						</g>
						<g id="g2856_00000094593353856558934710000008448669540992617364_" transform="translate(458.8952,130.3764)">
							<path id="path2858_00000085235496936482419190000006022033728257513601_" fill="#FF9933" fill-opacity="0.9804" d="
								M-297.3-53.4c-4.4,6-9.8,9.8-17.1,13.6c-1.5,0.8-2.5,0.9-4,0c-2.9-1.8-6.1-3.4-9.2-5.1C-333.4-47.3-300.4-54.5-297.3-53.4"/>
						</g>
						<g id="g2860_00000048488434270573758610000001544392588597544632_" transform="translate(282.366,134.4695)">
							<path id="path2862_00000072972256618881377470000011231874001594268837_" fill="#336633" d="M-175.9-58.7
								c18.1-5.1,36.9-6.5,56.5-6.3c2.9,0.2,6-0.2,8.6,1.3c-0.9,0.2-1.8,0.7-2.8,0.7c-16,0.4-33.1,2-47.6,6.8
								C-166.5-54.4-170.3-57.5-175.9-58.7"/>
						</g>
						<g id="g2864_00000125584444432075455300000012340257352462951334_" transform="translate(319.906,119.4833)">
							<path id="path2866_00000087411332584606865660000005665633993601472692_" fill="#339933" d="M-201.7-39.1
								c14.3-4.1,28.8-6.7,44.9-7.2c1.4-0.1,4,0.3,4.1,0.6c0.3,1.3-1.9,1.5-3.8,1.6c-12.9,0.7-24.4,3.3-34.9,7.2
								C-195.4-35.6-197.5-37.8-201.7-39.1"/>
						</g>
						<g id="g2868_00000096740042981786078030000006680820221215785391_" transform="translate(274.1679,344.1267)">
							<path id="path2870_00000092448873560858500550000005256059467813953430_" fill="#666666" d="M-170.2-332.7
								c7.7,0,7.2,11-0.1,11C-177.8-321.7-178.1-333-170.2-332.7"/>
						</g>
					</g>
				</g>
			</g>
		</g>
	</g>
</g>
<g>
	<g id="texte_posture">
		<path fill="#FC6541" d="M458.3,887.5c2.8,0.6,5.6,1.1,8.4,1.6c-1.5,7.9-2.9,15.9-4.4,23.7c-2,10.7-8.3,13.4-17.3,11.4
			c-2.2-0.5-4.8-1.4-6.5-2.5c0.9-2.2,1.8-4.3,2.6-6.5c1.1,0.7,2.7,1.3,4.4,1.7c3.8,0.9,6.5-0.3,7.7-6
			C455,903.2,456.7,895.4,458.3,887.5z"/>
		<path fill="#FC6541" d="M483.4,891.2c-2.6,5.2-5.9,10.4-9.2,14.2c-1.8-0.1-3.6-0.3-5.4-0.4c2.6-4.4,5-9.6,6.5-14.5
			C478.1,890.9,480.8,891.1,483.4,891.2z"/>
		<path fill="#FC6541" d="M499.9,932.3c-0.1-0.9-0.2-1.9-0.3-2.8c-0.1,0-0.1,0-0.2,0c-2.2,2-5.4,2.8-9,2.5c-6.1-0.8-9.2-5.3-8.5-9.6
			c1-7.2,8.2-9.5,18.3-8.6c0-0.1,0-0.2,0-0.4c0.2-1.5-0.5-3.6-4.9-4.1c-2.9-0.3-6,0.3-8.1,1.1c-0.3-1.9-0.6-3.8-0.9-5.7
			c2.1-0.9,6.1-1.7,11.2-1.1c9.4,0.9,11.9,6.5,11.4,13c-0.3,3.2-0.5,6.4-0.8,9.6c-0.2,2.6-0.3,5.2-0.1,6.7
			C505.6,932.8,502.8,932.6,499.9,932.3z M500.1,919.1c-4.7-0.5-8.6,0.2-9,3.4c-0.3,2.2,1.1,3.5,3.3,3.7c2.3,0.3,4.3-0.9,5.1-2.6
			c0.2-0.5,0.3-0.9,0.3-1.4C499.9,921.2,500,920.1,500.1,919.1z"/>
		<path fill="#FC6541" d="M516.5,914.7c0.2-3.5,0.3-6.3,0.3-8.9c2.6,0.2,5.1,0.3,7.7,0.4c0.1,1.3,0.2,2.6,0.3,3.9c0.1,0,0.1,0,0.2,0
			c1.2-1.7,4.3-4.3,9-4.2c5.8,0.1,10.1,3.9,10.2,12c0,5.5,0,11,0.1,16.4c-3.1,0-6.2,0-9.4-0.1c0.1-5.1,0.2-10.2,0.3-15.4
			c0.1-3.6-1.2-6-4.4-6.1c-2.5-0.1-4,1.5-4.6,3.1c-0.3,0.6-0.4,1.3-0.4,2.1c-0.2,5.3-0.5,10.7-0.7,16c-3.1-0.1-6.2-0.3-9.4-0.5
			C515.7,927.2,516.1,920.9,516.5,914.7z"/>
		<path fill="#FC6541" d="M559.7,898.5c0.1,2.4-1.6,4.3-4.5,4.4c-2.7,0.1-4.6-1.8-4.6-4.2c-0.1-2.5,1.7-4.3,4.4-4.4
			C557.7,894.3,559.5,896.1,559.7,898.5z M551.5,934.2c-0.2-9.3-0.4-18.5-0.6-27.8c2.9-0.1,5.9-0.2,8.8-0.3
			c0.4,9.3,0.8,18.5,1.1,27.7C557.7,934.1,554.6,934.1,551.5,934.2z"/>
		<path fill="#FC6541" d="M567.3,914.8c-0.2-3.5-0.5-6.3-0.8-8.9c2.5-0.1,4.9-0.3,7.5-0.5c0.2,1.2,0.5,2.5,0.7,3.7
			c0.1,0,0.1,0,0.2,0c1-1.9,3.4-4.6,8.2-5.1c3.7-0.4,6.7,1.1,8.2,4h0.1c0.9-1.6,2-2.8,3.3-3.8c1.4-1,3-1.8,5.2-2.1
			c5.3-0.8,10,2.4,11.3,10.5c0.9,5.4,1.8,10.8,2.6,16.2c-3,0.5-6,0.9-9.1,1.3c-0.8-5-1.4-9.9-2.1-14.9c-0.6-4-2.2-6.1-5.1-5.8
			c-2.1,0.3-3.3,1.8-3.7,3.5c-0.2,0.7-0.2,1.5-0.1,2.2c0.7,5.4,1.3,10.8,2,16.2c-3,0.4-6,0.7-9.1,0.9c-0.6-5.2-1-10.3-1.5-15.5
			c-0.4-3.5-1.9-5.7-4.7-5.5c-2.3,0.2-3.5,2-4,3.4c-0.2,0.7-0.2,1.5-0.2,2.2c0.4,5.4,0.9,10.8,1.3,16.1c-3,0.2-6,0.5-9.2,0.6
			C568,927.3,567.7,921,567.3,914.8z"/>
		<path fill="#FC6541" d="M626,915.3c0.9,3.5,5,4.4,9.3,3.5c3-0.7,5.5-1.6,7.7-2.9c0.9,1.8,1.7,3.6,2.5,5.4
			c-2.7,1.9-6.3,3.2-10.3,4.1c-10.1,2.1-16.8-2.4-18.3-11c-1.2-7,1.9-15.3,11.4-17.3c8.9-1.9,13.9,4.1,15.6,10.8
			c0.4,1.4,0.5,2.7,0.5,3.4C638.4,912.9,632.3,914.2,626,915.3z M635.3,907.4c-0.5-2.1-2.2-5.3-6.1-4.4c-3.7,0.8-4.5,4.3-4.3,6.6
			C628.4,908.9,631.8,908.1,635.3,907.4z"/>
	</g>
</g>
<g>
	<g id="texte_picto_categorie">
		<path fill="#FC6541" d="M396.5,134.1c-1.2,1.4-4.4,3.8-9,6c-12.8,6.2-23.3,2.9-28.8-6.6c-6.6-11.2-0.5-23.1,12.1-29.3
			c4.9-2.4,9.1-3.2,11.1-3.2c0.3,2.4,0.7,4.7,1,7.1c-2.2,0.2-5.1,0.8-8.4,2.4c-7.3,3.5-10.9,10.2-6.8,17.7c3.7,6.8,10.3,8.6,18,4.9
			c2.6-1.2,5.3-3.1,6.8-4.5C393.8,130.3,395.1,132.2,396.5,134.1z"/>
		<path fill="#FC6541" d="M425.7,108.7c3.2,9.6-2.7,16.4-10.2,19.4c-8.2,3.1-16.5,0.9-20.3-7.2c-3.7-8.1,0.3-16.2,10.1-20
			C414.7,97.2,423,100.7,425.7,108.7z M404.5,116.8c1.8,4.3,5.3,6.9,9.1,5.4c3.5-1.3,4.5-5.3,2.7-10c-1.4-3.9-4.6-7.2-8.9-5.6
			C402.8,108.4,402.8,113,404.5,116.8z"/>
		<path fill="#FC6541" d="M430,102.3c-1-3.3-2.1-6-3-8.3c2.7-0.9,5.5-1.7,8.2-2.5c0.5,1.1,1,2.4,1.5,3.5c0.1,0,0.1,0,0.2-0.1
			c0.8-2.1,2.8-5.4,8.2-6.8c4.2-1,7.8-0.1,9.9,2.5h0.1c0.9-1.7,2-3.1,3.3-4.3c1.5-1.2,3.4-2.2,5.8-2.6c6.1-1.3,11.6,1.6,13.1,9.7
			c1,5.4,2.1,10.7,3,16.1c-3,0.6-6,1.1-9.1,1.8c-1-4.9-2.1-9.8-3.2-14.7c-0.9-4-2.8-6-6-5.2c-2.3,0.5-3.5,2.2-3.8,4
			c-0.1,0.7,0,1.5,0.2,2.2c1.3,5.3,2.6,10.5,3.9,15.8c-3,0.7-6,1.4-9,2.2c-1.3-5-2.7-10-4.1-15c-0.9-3.4-2.9-5.3-6-4.4
			c-2.5,0.7-3.5,2.7-3.6,4.3c-0.1,0.8,0.1,1.5,0.3,2.2c1.5,5.2,3.1,10.3,4.6,15.5c-2.9,0.9-5.9,1.7-8.8,2.6
			C433.9,114.3,431.9,108.3,430,102.3z"/>
		<path fill="#FC6541" d="M484.6,89.5c-0.6-3.4-1.2-6.2-1.8-8.7c2.8-0.5,5.7-0.9,8.5-1.3c0.3,1.2,0.7,2.5,0.9,3.7c0.1,0,0.1,0,0.2,0
			c1.1-1.9,3.6-4.9,9.2-5.6c4.3-0.5,7.7,1,9.4,3.9h0.1c1-1.6,2.4-2.8,4-3.7c1.7-1,3.7-1.7,6.1-1.8c6.3-0.4,11.2,3.2,11.5,11.5
			c0.2,5.5,0.4,10.9,0.7,16.3c-3,0.1-6.1,0.3-9.2,0.5c-0.3-5-0.7-10-0.9-15c-0.3-4-1.9-6.2-5.2-6c-2.4,0.2-3.8,1.7-4.3,3.4
			c-0.2,0.7-0.2,1.5-0.2,2.2c0.5,5.4,0.9,10.8,1.4,16.2c-3,0.3-6.1,0.6-9.2,0.9c-0.6-5.2-1.2-10.3-1.8-15.5
			c-0.4-3.5-2.1-5.7-5.3-5.3c-2.6,0.3-3.9,2.2-4.3,3.7c-0.2,0.8-0.2,1.5-0.1,2.2c0.8,5.3,1.5,10.7,2.3,16c-3,0.4-6,0.9-9.1,1.3
			C486.7,101.9,485.7,95.6,484.6,89.5z"/>
		<path fill="#FC6541" d="M570.3,95.3c-0.2,3.6-0.3,6.6-0.3,8.9c-2.7-0.2-5.5-0.3-8.2-0.4c-0.1-1.3-0.2-2.6-0.3-4
			c-0.1,0-0.1,0-0.2,0c-1.3,1.7-4.3,4.3-9.6,4.3c-6.1-0.1-10.7-3.5-10.9-12c-0.1-5.5-0.2-10.9-0.3-16.3c3.4-0.1,6.8-0.1,10.2,0
			c-0.1,5-0.1,9.9-0.2,14.9c0,4.1,1.4,6.5,4.8,6.6c2.6,0.1,4.2-1.5,4.9-2.9c0.3-0.5,0.4-1.1,0.4-1.8c0.2-5.5,0.4-11.1,0.7-16.5
			c3.4,0.1,6.8,0.3,10.2,0.5C571.1,82.7,570.7,88.9,570.3,95.3z"/>
		<path fill="#FC6541" d="M578.9,85.8c0.3-3.4,0.5-6.3,0.5-8.9c2.9,0.3,5.9,0.5,8.8,0.9c0,1.3,0,2.6,0,3.9c0.1,0,0.1,0,0.2,0
			c1.5-1.6,5.1-4,10.6-3.2c6.7,0.9,11.1,5.4,9.6,13.5c-0.9,5.4-1.8,10.8-2.7,16.2c-3.1-0.5-6.2-0.9-9.4-1.4
			c0.8-5.1,1.4-10.1,2.2-15.2c0.5-3.5-0.6-6.1-4.3-6.6c-2.7-0.4-4.5,1.1-5.4,2.6c-0.3,0.5-0.5,1.3-0.6,2.1
			c-0.6,5.3-1.2,10.6-1.8,15.9c-3.1-0.4-6.3-0.7-9.4-0.9C577.8,98.4,578.3,92.1,578.9,85.8z"/>
		<path fill="#FC6541" d="M630.3,112.8c0-0.9,0.1-1.9,0.1-2.8c-0.1,0-0.1,0-0.2,0c-2.5,1.7-5.8,2.2-9.3,1.5c-6-1.2-8.9-5.8-8.1-10.2
			c1.2-7.1,9.3-9.3,20.3-6.8c0-0.1,0.1-0.2,0.1-0.4c0.4-1.4-0.1-3.7-4.9-4.7c-3.2-0.7-6.8-0.4-9.2,0.3c-0.3-1.9-0.5-3.9-0.8-5.8
			c2.5-0.7,7.1-1.2,13,0c10.7,2.4,12.6,8.6,10.9,14.8c-0.9,3.1-1.7,6.2-2.5,9.4c-0.7,2.6-1.1,5-1.2,6.6
			C635.8,114.1,633.1,113.5,630.3,112.8z M632.3,99.8c-5-1.1-9.2-0.9-9.8,2.4c-0.5,2.2,0.9,3.6,3,4.1c2.3,0.5,4.5-0.5,5.6-2.1
			c0.3-0.4,0.4-0.9,0.5-1.4C631.8,101.8,632,100.8,632.3,99.8z"/>
		<path fill="#FC6541" d="M675.7,117c-1.2,3.4-2.2,6.2-2.8,8.4c-2.6-0.9-5.1-1.8-7.7-2.7c0.3-1.3,0.6-2.6,0.9-3.9
			c-0.1,0-0.1,0-0.2-0.1c-1.7,1.2-5.3,3-10.5,1.4c-5.9-1.8-9.3-6.3-6.9-14.5c1.5-5.2,3-10.5,4.5-15.7c3.3,0.9,6.5,1.9,9.8,2.8
			c-1.5,4.7-3,9.4-4.5,14.3c-1.2,3.9-0.6,6.6,2.6,7.7c2.5,0.8,4.4-0.3,5.6-1.4c0.4-0.4,0.7-0.9,0.9-1.6c1.8-5.2,3.6-10.4,5.5-15.7
			c3.2,1,6.4,2.2,9.6,3.3C680.1,105.2,677.9,111,675.7,117z"/>
		<path fill="#FC6541" d="M703.7,99c-1,2.5-2.2,4.8-3.2,7.3c2.3,0.9,4.4,1.9,6.7,2.9c-0.9,1.9-1.8,3.9-2.6,5.8
			c-2.2-0.9-4.3-1.9-6.6-2.8c-1.3,3.1-2.6,6.1-4.1,9.3c-1.3,3.1-1,4.8,1.5,6c1.1,0.5,2.1,0.8,2.7,0.9c-0.9,2-1.8,4-2.6,6
			c-1.3-0.1-3.5-0.8-5.9-1.7c-2.8-1.2-4.8-3-5.7-4.9c-1-2.2-0.9-4.9,0.7-8.6c1.4-3.5,2.8-7,4.3-10.6c-1.3-0.5-2.6-1-4-1.5
			c0.8-2,1.6-4,2.4-6c1.3,0.5,2.7,1,4.1,1.5c0.8-1.9,1.5-3.7,2.3-5.6C697,97.7,700.3,98.4,703.7,99z"/>
		<path fill="#FC6541" d="M712.1,129.9c-1.3,3.3,1.4,6.6,5.4,8.6c2.8,1.5,5.4,2.4,8,2.9c-0.6,1.9-1.1,3.9-1.7,5.8
			c-3.3-0.5-6.9-1.8-10.5-3.6c-9.1-4.6-12.2-12-8.6-19.8c2.9-6.4,11.1-11.4,21.2-6.3c9.4,4.8,9.4,13,6,19c-0.8,1.3-1.5,2.4-2,2.8
			C724,136,718.1,132.8,712.1,129.9z M725,129.8c1-1.8,1.8-5.5-2.3-7.6c-3.8-1.9-6.8,0.4-8,2.3C718.1,126.3,721.6,128,725,129.8z
			 M741,112.4c-3.9,1.1-7.7,2.5-11.4,3.7c-2.1-1-4.2-2.1-6.2-3.1c3-1.7,6.1-3.4,9.3-5C735.3,109.4,738.1,110.9,741,112.4z"/>
	</g>
</g>
<path fill="none" stroke="#000000" stroke-width="5" stroke-miterlimit="10" d="M544.1,83.9"/>
<g opacity="0.5">
	<path fill="none" stroke="#000000" stroke-width="5" stroke-miterlimit="10" d="M171.4,610.5"/>
	<g>
		<path d="M152.7,621l5.9-9.2l4.6,2.9l-5.9,9.2L152.7,621z"/>
		<path d="M135.9,613.6l3.5-10.3l5.2,1.8l-3.5,10.3L135.9,613.6z"/>
		<path d="M117.9,600.4h5.5v10.9h-5.5V600.4z"/>
		<path d="M96.6,605l5.2-1.8l3.5,10.3l-5.2,1.8L96.6,605z"/>
		<path d="M78.1,614.7l4.6-2.9l5.9,9.2l-4.6,2.9L78.1,614.7z"/>
		<path d="M165.6,645.8l1.4-1.8l-1.5-1.7c-0.2-0.2-5-5.8-12.9-11.3c-10.6-7.5-21.6-11.4-32.1-11.4c-10.4,0-21.5,4-32,11.4
			c-7.9,5.6-12.8,11.1-12.9,11.3l-1.5,1.8l1.5,1.8c0.2,0.2,5,5.8,12.9,11.3c10.6,7.5,21.6,11.4,32,11.4c5.2,0,10.6-0.9,16-2.8
			c0.4,0.7,0.9,1.2,1.3,1.8l13.5,13.5l11.5-11.5l-11.4-11.4C160.4,652.2,165.4,646.1,165.6,645.8L165.6,645.8z M130.2,648.2
			c-5.3,5.3-14,5.3-19.3,0c-2.6-2.6-4-6-4-9.6s1.4-7.1,4-9.6c2.6-2.6,6.1-4,9.6-4s7,1.3,9.6,4c2.6,2.6,4,6,4,9.6
			S132.8,645.7,130.2,648.2z M91.8,652.9c-4.8-3.4-8.4-6.8-10.4-8.8c2-2,5.6-5.4,10.4-8.8c3.4-2.4,7.7-5,12.8-7c-2,3-3,6.6-3,10.3
			c0,5.1,2,9.9,5.6,13.5c3.7,3.7,8.6,5.6,13.5,5.6c4.1,0,8-1.2,11.4-3.8l4.3,4.3c-0.3,0.7-0.6,1.3-0.7,2.1
			c-5.1,1.9-10.2,2.9-15.1,2.9C108.9,663.2,98.5,657.5,91.8,652.9L91.8,652.9z M151.4,673.3l-9.6-9.6c-1-1-1-2.8,0-3.9
			c1-1,2.8-1,3.9,0l9.6,9.6L151.4,673.3z M147.3,654.4c-2.3-1.1-4.9-1.1-7.2,0l-4.3-4.3c2.5-3.3,3.8-7.3,3.8-11.4
			c0-3.7-1-7.3-3-10.3c5,2,9.4,4.6,12.8,7c4.8,3.4,8.5,6.8,10.4,8.8C157.7,646.4,153.3,650.6,147.3,654.4z"/>
	</g>
	<g>
		<g>
			<g>
				<path stroke="#000B13" stroke-width="2" stroke-miterlimit="10" d="M130.2,652.2l3.9-3.9l7.7,7.7l-3.9,3.9L130.2,652.2z"/>
			</g>
		</g>
		<g id="Vision_1_">
			<g>
				<g>
					<path fill="#028283" stroke="#000B13" stroke-width="3" stroke-miterlimit="10" d="M151.4,681l-13.5-13.4
						c-2.6-2.5-3.6-7.9,0-11.5c2.9-2.9,7.6-3.2,10.8-0.7c11.7,11.6,14.8,14.6,14.3,14.1L151.4,681z"/>
				</g>
			</g>
		</g>
		<g>
			<g>
				<g>
					<g>
						<path fill="#000B13" stroke="#000B13" stroke-width="2" stroke-miterlimit="10" d="M107,652.2c-7.5-7.5-7.5-19.5,0-26.9
							c7.2-7.2,19.8-7.2,27,0c7.5,7.5,7.5,19.5,0,26.9C126.6,659.7,114.5,659.7,107,652.2L107,652.2z"/>
					</g>
				</g>
			</g>
		</g>
		<path fill="#000B13" stroke="#000B13" stroke-width="2" stroke-miterlimit="10" d="M120.6,619.9v37.9c4.9,0,9.8-1.9,13.5-5.6
			c7.5-7.5,7.5-19.5,0-26.9C130.5,621.7,125.6,619.9,120.6,619.9L120.6,619.9z"/>
	</g>
	<ellipse fill="#FFFCFF" stroke="#FFFCFF" stroke-width="5" stroke-miterlimit="10" cx="120.8" cy="638.8" rx="11.1" ry="11"/>
	<ellipse fill="none" stroke="#FC6541" stroke-width="4" stroke-miterlimit="10" cx="120.8" cy="638.8" rx="5.6" ry="5.5"/>
</g>
<g>
	<g>
		<path fill="#FC6541" d="M144.2,294.6l19.5,18.8l3.8,3.7l1.4,1.3c0.5,0.5,1.1,0.4,1.6,0l3.9-4l3.5-3.7c1.5-1.6,1.5-4.2-0.1-5.8
			l-3.4-3.3l-18.9-18.1c-1.6-1.5-4.2-1.5-5.8,0.1l-7.4,7.7c-0.5,0.5-0.4,1.1,0,1.6L144.2,294.6z"/>
	</g>
	<g>
		<path opacity="0.65" fill-rule="evenodd" clip-rule="evenodd" fill="#FFBC85" enable-background="new    " d="M117.2,295.9
			l-21,20.1c0.7,5.6,1.7,10.8,5.1,13.7l28.4,23l3.4,2.6c5.2,4,10.1-1.6,6.1-5.7c-0.1-0.1-0.1-0.1-0.2-0.2c1.3,1.1,2.8,1.4,4.2,1.2
			c2.8-0.5,4.8-3.5,2.2-6.3c5.2,4.2,9.5-2.5,5.6-6c4.5,1.4,9.4-4.4,4.7-9.4l-0.1-0.1l-11.7-17.6l-15.8-10L117.2,295.9z"/>
	</g>
	<g>
		<path fill-rule="evenodd" clip-rule="evenodd" fill="#FFE5C1" d="M129.3,353.2c4.3-4.6-2-10-5.6-6.9l-3.8,3.6l-0.1,0.1
			c-3.2,3.2,2.6,10.4,7.4,5.4L129.3,353.2z"/>
	</g>
	<g>
		<path fill-rule="evenodd" clip-rule="evenodd" fill="#FFE5C1" d="M117.2,339.9l-4,4.2l0,0c-2,2.1-0.6,5.4,1.8,6.6
			c1.5,0.8,3.3,0.9,4.9-0.7l4.3-0.1l-0.4-3.7l0.6-0.5c4.3-4.1-1.9-11.1-6.7-6.4L117.2,339.9z"/>
	</g>
	<g>
		<path fill-rule="evenodd" clip-rule="evenodd" fill="#FFE5C1" d="M110.1,334.2l-3.8,4l-0.6,0.6c-3.7,3.9,2.9,10.1,6.7,6l0.7-0.7
			c0.1-0.1,4.1-0.5,4.5-0.6l-0.1-4.2l1.3-1.3c4.4-4.6-2.5-10.7-6.7-6.2L110.1,334.2z"/>
	</g>
	<g>
		<path fill-rule="evenodd" clip-rule="evenodd" fill="#FFE5C1" d="M101.3,329.7l-1.2,1.4c-3.9,4.3,1.9,11,6.2,7.1l3.6-0.6l0.2-3.4
			c3.5-4-2.6-11.1-7.5-5.9L101.3,329.7z"/>
	</g>
	<g>
		<path fill="#028283" d="M106.7,284l-17.4,16.7l-4.9,4.7c-1.6,1.5-1.7,4.2-0.1,5.8l7.4,7.7c0.5,0.5,1.1,0.5,1.6,0l2.9-2.8l21-20.1
			l2.6-2.6c0.5-0.5,0.5-1.1,0-1.6l-7.4-7.7C110.8,282.4,108.3,282.4,106.7,284L106.7,284z"/>
	</g>
	<g>
		<path opacity="0.8" fill-rule="evenodd" clip-rule="evenodd" fill="#F5A96C" enable-background="new    " d="M139.6,313l-5.3,1.2
			l2.1,2.1l16,15.9l0.1,0.1c1.9,2.1,2.3,4.3,1.6,6c3.1-1.2,5.2-5.5,1.6-9.3l-0.1-0.1l-4.8-4.7L139.6,313z"/>
	</g>
	<g opacity="0.8">
		<path fill-rule="evenodd" clip-rule="evenodd" fill="#F5A96C" d="M117.2,295.9l-3.4,3.2l10.5,5.2l3.9-3L117.2,295.9z"/>
	</g>
	<g>
		<path fill-rule="evenodd" clip-rule="evenodd" fill="#FFE5C1" d="M128.1,301.2l-3.9,3l-3.6,2.8c-9.2,7.1-1.6,14.1,3.9,11.7
			l6.1-3.7l3.8-0.9l5.3-1.2l11.1,11.1l4.8,4.7c3-1.1,7.3-4.3,11.9-11.8l-23.3-22.4l-4.2,3.3c-0.7,0.6-0.5,0.5-1.3,0.4
			c-3.1-0.1-7.2,0.2-9.4,2L128.1,301.2z"/>
	</g>
	<g>
		<path fill-rule="evenodd" clip-rule="evenodd" fill="#FED1A3" d="M128.1,312.6l-6.1,3.7c-1.7,0.8-3.5,0.6-5.1-0.2
			c1.3,2.6,4.7,3.9,7.6,2.6l6.1-3.7l3.8-0.9l5.2-1.2c-2.5-2.1-2.8-2.4-7.7-1.2L128.1,312.6z"/>
	</g>
	<g>
		<path fill-rule="evenodd" clip-rule="evenodd" fill="#FED1A3" d="M163.7,313.4c-4.1,6.6-7.9,9.9-10.9,11.3
			c-0.3,0.2-0.7,0.3-0.9,0.4l3.7,3.7c3-1.1,7.3-4.3,11.9-11.8L163.7,313.4z"/>
	</g>
	<g>
		<path fill-rule="evenodd" clip-rule="evenodd" fill="#FED1A3" d="M98.7,334.3c0,3.6,4.3,6.8,7.6,3.9l2.4-2.5l1.4-1.5
			c1.4-1.6,1.2-3.9,0.2-5.5c0,0.9-0.3,1.9-1,2.7l-2.5,2.6l-1.2,1.3C103.1,337.6,100.2,336.5,98.7,334.3L98.7,334.3z"/>
	</g>
	<g>
		<path fill-rule="evenodd" clip-rule="evenodd" fill="#FED1A3" d="M104.9,342.4c0.9,2.9,4.9,5.2,7.7,2.4l0.7-0.7l0,0l4-4.2
			c0.2-0.2,0.3-0.3,0.4-0.5l1.3-1.3c2.4-2.5,1.5-5.4-0.6-6.9c0.4,1.3,0.1,2.9-1.2,4.3l-1.3,1.3c-0.2,0.1-0.3,0.3-0.4,0.5l0,0l-4,4.2
			l0,0l-0.7,0.7C108.9,344.1,106.6,343.7,104.9,342.4L104.9,342.4z"/>
	</g>
	<g>
		<path fill-rule="evenodd" clip-rule="evenodd" fill="#FED1A3" d="M120,350l2.9-2.7l0.9-0.9l0.6-0.5c2.3-2.2,1.6-5.2-0.3-6.8
			c0.4,1.4,0.1,3-1.2,4.3l-0.6,0.5l-1.5,1.4l-2.3,2.2l-0.1,0.1c-1.6,1.5-3.5,1.4-4.9,0.7c-0.4-0.2-0.7-0.5-1-0.8
			c0.4,1.3,1.3,2.5,2.6,3.1C116.5,351.4,118.3,351.5,120,350L120,350z"/>
	</g>
	<g>
		<path fill-rule="evenodd" clip-rule="evenodd" fill="#FED1A3" d="M129.3,353.2c2.2-2.4,1.7-4.8,0.2-6.3c0,1-0.5,2.2-1.5,3.2
			l-2.1,2.2c-2.6,2.7-5.4,1.9-7,0.1c0,3.3,4.4,7.1,8.2,3.1L129.3,353.2z"/>
	</g>
	<g>
		<path d="M139.3,351.2c-0.4,0-0.8-0.1-0.9-0.4l-2.9-2.7c-0.6-0.6-0.7-1.5-0.1-2.1c0.6-0.6,1.5-0.7,2.1-0.1l2.9,2.7
			c0.6,0.6,0.7,1.5,0.1,2.1C140.1,351,139.7,351.2,139.3,351.2z"/>
	</g>
	<path d="M178.7,303.9l-22.3-21.4c-1-1-2.5-1.5-4-1.5s-2.8,0.7-3.9,1.7l-7.4,7.7c-0.9,1-0.9,2.6,0.1,3.7l0.6,0.6l-3,2.5
		c-0.1,0-0.2,0-0.3,0c-4.7-0.2-8.2,0.7-10.4,2.4l-0.4,0.3l-8.3-4.1l1.1-1c0.5-0.5,0.8-1.1,0.8-1.8c0-0.7-0.3-1.3-0.8-1.9l-7.4-7.7
		c-1-1-2.4-1.7-3.9-1.7s-2.8,0.5-4,1.5l-22,21.3c-2.2,2.1-2.3,5.6-0.2,7.7l7.4,7.7c0.5,0.6,1.1,0.8,1.9,0.8c0.7,0,1.3-0.3,1.8-0.8
		L95,319c0.7,4,1.7,7.9,4.2,10.7l-0.3,0.4c-2.6,2.8-1.8,6.7,0.3,8.9c1.1,1.2,2.6,1.8,4,1.9c-0.2,1.8,0.7,3.7,2,4.9
		c1.2,1.1,2.7,1.8,4.3,1.8c0.4,0,0.8,0,1.2-0.1c0.2,1.3,0.9,2.6,1.8,3.5c1.1,1.1,2.6,1.9,4.3,1.9c0.2,0,0.4,0,0.5,0
		c0,0.3,0.1,0.7,0.2,0.9c0.6,2.3,2.5,4.3,4.6,4.8c0.4,0.1,0.9,0.2,1.4,0.2c1.3,0,2.9-0.5,4.6-2.2l1.6-1.7l2.4,1.8
		c1.5,1.2,3.1,1.7,4.4,1.7c1.7,0,3.2-0.8,4.2-1.9c0.9-1,1.4-2.6,1.2-4.2c1.8,0.1,3.5-0.6,4.6-1.8c0.9-0.9,1.3-2.1,1.3-3.3
		c1.9,0.2,3.5-0.6,4.5-1.8c1.1-1.4,1.7-3.5,1-5.5c1.7-0.4,3.3-1.5,4.3-3.1c1.1-1.9,1.6-4.6-0.2-7.4c2.6-1.4,6-4.3,9.8-10l0.1,0.1
		c0.5,0.5,1.1,0.8,1.8,0.8s1.3-0.3,1.9-0.8l7.4-7.7C181,309.6,180.9,306.1,178.7,303.9L178.7,303.9z M101.1,332l2.6-2.7
		c1-1.1,2.2-1.6,3.3-1.3c1.1,0.3,2.2,1.3,2.6,2.6c0.2,0.6,0.4,1.8-0.6,2.7l0,0l-3.6,3.8c-1.5,1.3-3,0.8-4-0.2
		C100.2,335.7,99.6,333.6,101.1,332L101.1,332z M107.3,343.6c-0.2-0.2-2.1-2.1-0.5-3.9l0,0l6.4-6.8c0.8-0.9,1.6-1.1,2.3-1.1
		c0.3,0,0.5,0,0.7,0.1c1.1,0.3,2.2,1.2,2.5,2.3c0.3,1,0,2.1-0.9,2.9l-1.3,1.4c-0.1,0.1-0.1,0.1-0.2,0.2l-4.8,5
		C110,345.3,108.2,344.4,107.3,343.6L107.3,343.6z M114.7,348.7c-0.9-0.9-1.6-2.6-0.5-3.7l0,0l4-4.2c0,0,0,0,0.1-0.1l0,0l0.3-0.3
		c0.9-0.9,2.1-1.3,3.1-1.1c1.1,0.3,2.2,1.2,2.6,2.5c0.2,0.8,0.2,1.9-0.9,2.9l-0.5,0.5l0,0l-0.1,0.1l-3.7,3.5l0,0l-0.1,0.1
		C117,350.8,115.1,349.1,114.7,348.7L114.7,348.7z M126.1,354.4c-1,1-2.1,1.5-3.1,1.2c-1.1-0.3-2.3-1.4-2.6-2.6
		c-0.1-0.6-0.2-1.3,0.4-1.9l0.1-0.1l3.8-3.6c1.1-0.9,2.7-0.5,3.7,0.5c0.5,0.5,1.8,2.2-0.2,4.3L126.1,354.4z M155.6,335.2
		c-0.8,1.2-2.3,2.2-3.9,1.8l-5.6-5.2c-0.6-0.6-1.5-0.5-2.1,0.1s-0.5,1.5,0.1,2.1l5.9,5.4l0,0l0,0c1.4,1.3,1.3,3,0.5,4
		c-0.9,1.1-2.5,1.1-4.1-0.2l-5.8-5.4c-0.6-0.6-1.5-0.5-2.1,0.1s-0.5,1.5,0.1,2.1l5.8,5.4c1,1.1,1.1,2.2,0.3,3
		c-0.9,1-2.9,1.3-4.6-0.1c-0.6-0.5-1.5-0.5-2,0.1c-0.6,0.6-0.5,1.5,0.1,2c1.6,1.5,1.3,3,0.6,3.9c-0.9,1-2.6,1.3-4.6-0.2l-2.4-1.8
		c1.2-2.5,0.5-4.9-1.1-6.5c-0.9-0.9-2.2-1.6-3.5-1.8c0.2-0.9,0.2-1.9,0-2.9c-0.6-2.3-2.5-4.1-4.6-4.5c-0.3-0.1-0.6-0.1-0.9-0.1
		c0.3-1,0.3-2.1,0-3.2c-0.7-2.1-2.5-3.8-4.5-4.3c-1.6-0.4-3.2-0.1-4.6,0.9c0-0.1,0-0.1-0.1-0.2c-0.7-2.3-2.6-4.1-4.7-4.5
		c-2.2-0.5-4.3,0.3-6,2.2l-0.2,0.3c-2.1-2.5-2.9-6.2-3.6-11.1l6.1-6c0.6-0.6,0.6-1.5,0-2.1s-1.5-0.6-2.1,0l-6.6,6.3
		c-0.1,0-0.1,0.1-0.2,0.1l-2.6,2.6l-7.1-7.5c-0.9-1-0.9-2.6,0.1-3.7l22.3-21.4c0.5-0.5,1.1-0.8,1.9-0.8c0.7,0,1.3,0.3,1.8,0.8
		l7.1,7.5l-12,11.6c-0.6,0.6-0.6,1.5,0,2.1s1.5,0.6,2.1,0l9-8.6l7.9,4l-5.7,4.3c-6.7,5.2-4.7,9.9-4,11.2c1.3,2.3,3.8,3.6,6.3,3.6
		c0.9,0,2-0.2,2.9-0.6c0.1,0,0.1-0.1,0.2-0.1l6-3.6l8-1.8l15.4,15.3C157,332.3,156.1,334.4,155.6,335.2L155.6,335.2z M176.7,309.6
		l-7.1,7.5l-1.1-1l-0.1-0.1l-10-9.6c-0.6-0.6-1.5-0.6-2.1,0s-0.6,1.5,0,2.1l9.3,8.9c-4.1,6.2-7.6,8.8-9.6,9.8l-15.2-15.1l0,0
		c0,0,0,0-0.1-0.1l0,0c0,0,0,0-0.1-0.1c0,0,0,0-0.1,0c0,0,0,0-0.1,0c0,0,0,0-0.1,0c0,0,0,0-0.1,0c0,0,0,0-0.1,0H140c0,0,0,0-0.1,0
		h-0.1l0,0h-0.1l0,0h-0.1l0,0h-0.1c0,0,0,0-0.1,0c0,0,0,0-0.1,0h-0.1l0,0l-9.1,2.1c-0.2,0-0.3,0.1-0.5,0.2l-6,3.6
		c-2,0.8-4.4,0-5.6-1.8c-1.2-2.2-0.1-4.9,3.2-7.5l7.5-5.8l0,0l1-0.8c1.6-1.2,4.6-1.9,8.5-1.7c0.1,0,0.2,0,0.3,0
		c0.9,0.1,1.2-0.1,1.9-0.7l3.3-2.6l7.5,7.2c0.6,0.6,1.5,0.6,2.1,0s0.6-1.5,0-2.1l-9.7-9.9l7.1-7.5c0.5-0.5,1.1-0.8,1.8-0.8
		c0,0,0,0,0.1,0c0.7,0,1.3,0.3,1.8,0.8l22.3,21.4C177.7,307,177.8,308.7,176.7,309.6L176.7,309.6z"/>
</g>
<g opacity="0.5">
	<path fill="#028283" d="M121.2,462.6v4.3c0,1.5-1,2.7-2.5,3l-7.7,1.5c-0.6,1.9-1.3,3.8-2.3,5.5l4.3,6.5c0.9,1.2,0.7,2.8-0.4,3.9
		l-2.9,2.9c-1,1-2.6,1.2-3.9,0.4l-6.5-4.3c-1.7,0.9-3.5,1.7-5.5,2.3l-1.5,7.7c-0.3,1.4-1.5,2.5-3,2.5H85c-1.5,0-2.7-1-3-2.5
		l-1.5-7.7c-1.9-0.6-3.8-1.3-5.5-2.3l-6.5,4.3c-1.2,0.8-2.8,0.7-3.9-0.4l-2.9-2.9c-1-1-1.2-2.6-0.4-3.9l4.3-6.5
		c-0.9-1.7-1.7-3.5-2.3-5.5l-7.7-1.5c-1.4-0.3-2.5-1.5-2.5-3v-4.3c0-1.5,1-2.7,2.5-3l7.7-1.5c0.6-1.9,1.3-3.8,2.3-5.5l-4.3-6.5
		c-0.9-1.2-0.7-2.8,0.4-3.9l2.9-2.9c1-1,2.6-1.2,3.9-0.4l6.5,4.3c1.7-0.9,3.5-1.7,5.5-2.3l1.5-7.7c0.3-1.4,1.5-2.5,3-2.5h4.3
		c1.5,0,2.7,1,3,2.5l1.5,7.7c1.9,0.6,3.8,1.3,5.5,2.3l6.5-4.3c1.2-0.9,2.8-0.7,3.9,0.4l2.9,2.9c1,1,1.2,2.6,0.4,3.9l-4.3,6.5
		c0.9,1.7,1.7,3.5,2.3,5.5l7.7,1.5C120.2,459.8,121.2,461,121.2,462.6z"/>
	<path fill="#FFFCFF" d="M102.1,464.6c0,8.2-6.7,14.9-14.9,14.9s-14.9-6.7-14.9-14.9c0-8.2,6.7-14.9,14.9-14.9
		S102.1,456.4,102.1,464.6z"/>
	<path fill="#FFFCFF" d="M94.7,464.6c0,4.1-3.3,7.5-7.5,7.5c-4.1,0-7.5-3.3-7.5-7.5c0-4.1,3.3-7.5,7.5-7.5
		C91.4,457.3,94.7,460.6,94.7,464.6z"/>
	<path fill="#FFFCFF" d="M90.1,464.6c0,3.3-2.2,6.1-5.2,7.1c-3-0.9-5.2-3.8-5.2-7.1c0-3.3,2.2-6.1,5.2-7.1
		C88,458.6,90.1,461.3,90.1,464.6z"/>
	<path fill="#FC6541" d="M142.6,496.3v2.7c0,0.9-0.7,1.8-1.6,2l-5.1,1c-0.4,1.2-0.9,2.5-1.5,3.6l2.8,4.3c0.6,0.8,0.5,1.9-0.3,2.5
		l-2,2c-0.7,0.7-1.8,0.8-2.6,0.3l-4.3-2.8c-1.1,0.7-2.3,1.1-3.6,1.5l-1,5.1c-0.2,0.9-1,1.6-2,1.6h-2.7c-0.9,0-1.8-0.7-2-1.6l-1-5.1
		c-1.2-0.4-2.5-0.9-3.6-1.5l-4.3,2.8c-0.9,0.6-1.9,0.5-2.6-0.3l-2-2c-0.7-0.7-0.8-1.8-0.3-2.5l2.8-4.3c-0.7-1.1-1.1-2.3-1.5-3.6
		l-5.1-1c-0.9-0.2-1.6-1-1.6-2v-2.7c0-0.9,0.7-1.8,1.6-2l5.1-1c0.4-1.2,0.9-2.5,1.5-3.6l-2.8-4.3c-0.6-0.8-0.5-1.9,0.3-2.5l2-2
		c0.7-0.7,1.8-0.8,2.6-0.3l4.3,2.8c1.1-0.7,2.3-1.1,3.6-1.5l1-5.1c0.2-0.9,1-1.6,2-1.6h2.7c0.9,0,1.8,0.7,2,1.6l1,5.1
		c1.2,0.4,2.5,0.9,3.6,1.5l4.3-2.8c0.9-0.6,1.9-0.5,2.6,0.3l2,2c0.7,0.7,0.8,1.8,0.3,2.5l-2.8,4.3c0.7,1.1,1.1,2.3,1.5,3.6l5.1,1
		C141.9,494.5,142.6,495.3,142.6,496.3z"/>
	<path fill="#FFFCFF" d="M131.4,497.7c0,6.1-5,11.1-11.1,11.1s-11.1-5-11.1-11.1s5-11.1,11.1-11.1
		C126.4,486.5,131.4,491.5,131.4,497.7z"/>
	<path fill="#FFFCFF" d="M127,497.7c0,3.7-3,6.7-6.7,6.7s-6.7-3-6.7-6.7s3-6.7,6.7-6.7S127,494,127,497.7z"/>
	<path fill="#FFFCFF" d="M122.4,497.7c0,2.9-1.9,5.4-4.4,6.3c-2.6-0.9-4.4-3.4-4.4-6.3c0-2.9,1.9-5.4,4.4-6.3
		C120.6,492.3,122.4,494.8,122.4,497.7z"/>
	<path d="M74.6,460.3c-0.5,1.4-0.8,2.8-0.8,4.3c0,7.5,6,13.5,13.5,13.5c2.8,0,5.6-0.9,7.8-2.6c0.7-0.5,1.6-0.3,2.1,0.3
		c0.5,0.7,0.3,1.6-0.3,2.1c-2.8,2-6.1,3.1-9.6,3.1c-9.1,0-16.3-7.4-16.3-16.3c0-1.8,0.3-3.6,0.9-5.3c0.3-0.8,1.1-1.1,1.9-0.9
		C74.4,458.7,74.7,459.5,74.6,460.3z M99.9,472.8c0.2,0.1,0.5,0.2,0.7,0.2c0.6,0,1-0.3,1.3-0.8c1.1-2.3,1.8-4.9,1.8-7.5
		c0-9.1-7.4-16.3-16.3-16.3c-4.3,0-8.3,1.6-11.4,4.6c-0.6,0.6-0.6,1.5,0,2.1s1.5,0.6,2.1,0c2.6-2.5,5.9-3.8,9.4-3.8
		c7.5,0,13.5,6,13.5,13.5c0,2.2-0.5,4.3-1.5,6.1C98.8,471.5,99.1,472.4,99.9,472.8z M99.1,486.4c-0.4-0.8-1.2-1-2-0.7
		c-1.2,0.6-2.5,1-3.7,1.4c-0.6,0.2-0.9,0.6-1,1.1l-1.5,7.7c-0.2,0.8-0.9,1.3-1.6,1.3H85c-0.8,0-1.4-0.6-1.6-1.3l-1.5-7.7
		c-0.1-0.6-0.5-0.9-1-1.1c-1.8-0.5-3.5-1.2-5.1-2.1c-0.5-0.3-1-0.3-1.5,0.1l-6.5,4.3c-0.7,0.5-1.5,0.4-2.1-0.2l-2.9-2.9
		c-0.6-0.6-0.7-1.4-0.2-2.1l4.3-6.5c0.3-0.5,0.3-1,0.1-1.5c-0.9-1.6-1.6-3.3-2.1-5.1c-0.2-0.6-0.6-0.9-1.1-1l-7.7-1.5
		c-0.8-0.2-1.3-0.9-1.3-1.6v-4.3c0-0.8,0.6-1.4,1.3-1.6l7.7-1.5c0.6-0.1,0.9-0.5,1.1-1c0.5-1.8,1.2-3.5,2.1-5.1
		c0.3-0.5,0.3-1-0.1-1.5l-4.3-6.5c-0.5-0.7-0.4-1.5,0.2-2.1l2.9-2.9c0.6-0.6,1.4-0.7,2.1-0.2l6.5,4.3c0.5,0.3,1,0.3,1.5,0.1
		c1.6-0.9,3.3-1.6,5.1-2.1c0.6-0.2,0.9-0.6,1-1.1l1.5-7.7c0.2-0.8,0.9-1.3,1.6-1.3h4.3c0.8,0,1.4,0.6,1.6,1.3l1.5,7.7
		c0.1,0.6,0.5,0.9,1,1.1c1.8,0.5,3.5,1.2,5.1,2.1c0.5,0.3,1,0.3,1.5-0.1l6.5-4.3c0.7-0.5,1.5-0.4,2.1,0.2l3.1,2.7
		c0.6,0.6,0.7,1.4,0.2,2.1l-4.3,6.5c-0.3,0.5-0.3,1-0.1,1.5c0.9,1.6,1.6,3.3,2.1,5.1c0.2,0.6,0.6,0.9,1.1,1l7.7,1.5
		c0.8,0.2,1.3,0.9,1.3,1.6v4.3c0,0.8-0.6,1.4-1.3,1.6l-7.7,1.5c-0.6,0.1-0.9,0.5-1.1,1c-0.4,1.3-0.9,2.6-1.4,3.8
		c-0.4,0.8,0,1.6,0.7,2c0.8,0.4,1.6,0,2-0.7c0.6-1.1,0.9-2.3,1.3-3.4l6.8-1.3c2.1-0.4,3.7-2.3,3.7-4.4v-4.3c0-2.2-1.5-4.1-3.7-4.4
		l-6.8-1.3c-0.5-1.4-1-2.8-1.7-4.1l3.9-5.9c1.2-1.8,0.9-4.3-0.6-5.8l-2.9-2.9c-1.5-1.5-4-1.8-5.8-0.6l-5.9,3.9
		c-1.3-0.7-2.6-1.2-4.1-1.7l-1.3-6.8c-0.4-2.1-2.3-3.7-4.4-3.7h-4.3c-2.2,0-4.1,1.5-4.4,3.7l-1.3,6.8c-1.4,0.5-2.8,1-4.1,1.7
		l-5.8-3.9c-1.8-1.2-4.3-0.9-5.8,0.6l-2.9,2.9c-1.5,1.5-1.8,4-0.6,5.8l3.9,5.9c-0.7,1.3-1.2,2.6-1.7,4.1l-6.8,1.3
		c-2.1,0.4-3.7,2.3-3.7,4.4v4.3c0,2.2,1.5,4.1,3.7,4.4l6.8,1.3c0.5,1.4,1,2.8,1.7,4.1l-3.9,5.9c-1.2,1.8-0.9,4.3,0.6,5.8l2.9,2.9
		c1.5,1.5,4,1.8,5.8,0.6l5.9-3.9c1.3,0.7,2.6,1.2,4.1,1.7l1.3,6.8c0.4,2.1,2.3,3.7,4.4,3.7h4.3c2.2,0,4.1-1.5,4.4-3.7l1.3-6.8
		c1.1-0.4,2.3-0.8,3.3-1.3C99.2,488,99.5,487.1,99.1,486.4z M120.3,492.4c2.9,0,5.3,2.4,5.3,5.3c0,0.8,0.7,1.4,1.4,1.4
		c0.9,0,1.4-0.7,1.4-1.4c0-4.5-3.7-8.1-8.1-8.1c-4.5,0-8.1,3.7-8.1,8.1c0,4.5,3.7,8.1,8.1,8.1c1.8,0,3.6-0.6,5-1.7
		c0.7-0.5,0.8-1.4,0.3-2.1s-1.4-0.8-2.1-0.3c-0.9,0.8-2.1,1.1-3.2,1.1c-2.9,0-5.3-2.4-5.3-5.3C115,494.8,117.3,492.4,120.3,492.4z
		 M87.2,473.5c-4.9,0-8.9-4-8.9-8.9s4-8.9,8.9-8.9s8.9,4,8.9,8.9S92.1,473.5,87.2,473.5z M87.2,470.6c3.3,0,6-2.6,6-6
		c0-3.3-2.6-6-6-6c-3.3,0-6,2.6-6,6C81.3,467.9,83.9,470.6,87.2,470.6z M141.2,492.9l-4.3-0.9c-0.3-0.8-0.6-1.5-0.9-2.3l2.4-3.6
		c0.9-1.4,0.8-3.2-0.5-4.4l-2-2c-1.1-1.1-3-1.3-4.4-0.5l-3.6,2.4c-0.8-0.4-1.5-0.7-2.3-0.9l-0.9-4.3c-0.3-1.6-1.8-2.8-3.4-2.8h-2.7
		c-1.7,0-3.1,1.1-3.4,2.8l-0.9,4.3c-0.8,0.3-1.5,0.6-2.3,0.9l-3.6-2.4c-1.4-0.9-3.2-0.8-4.4,0.5l-2,2c-1.1,1.1-1.3,3-0.5,4.4
		l2.4,3.6c-0.5,0.9-0.9,2-1.2,3.1c-0.2,0.8,0.2,1.6,1,1.8s1.6-0.2,1.8-1c0.3-1.1,0.8-2.3,1.3-3.2c0.3-0.5,0.3-1-0.1-1.5l-2.8-4.3
		c-0.2-0.2-0.1-0.6,0.1-0.8l2-2c0.2-0.2,0.5-0.2,0.8-0.1l4.3,2.8c0.5,0.3,1,0.3,1.5,0.1c1-0.6,2.1-1,3.2-1.3c0.6-0.2,0.9-0.6,1-1.1
		l1-5.1c0.1-0.3,0.3-0.5,0.6-0.5h2.7c0.3,0,0.5,0.2,0.6,0.5l1,5.1c0.1,0.6,0.5,0.9,1,1.1c1.1,0.3,2.3,0.8,3.2,1.3
		c0.5,0.3,1,0.3,1.5-0.1l4.3-2.8c0.2-0.2,0.6-0.1,0.8,0.1l2,2c0.2,0.2,0.2,0.5,0.1,0.8l-2.8,4.3c-0.3,0.5-0.3,1-0.1,1.5
		c0.6,1,1,2.1,1.3,3.2c0.2,0.6,0.6,0.9,1.1,1l5.1,1c0.3,0.1,0.5,0.3,0.5,0.6v2.7c0,0.3-0.2,0.5-0.5,0.6l-5.1,1
		c-0.6,0.1-0.9,0.5-1.1,1c-0.3,1.1-0.8,2.3-1.3,3.2c-0.3,0.5-0.3,1,0.1,1.5l2.8,4.2c0.2,0.2,0.1,0.6-0.1,0.8l-2,2
		c-0.2,0.2-0.5,0.2-0.8,0.1l-4.3-2.8c-0.5-0.3-1-0.3-1.5-0.1c-1,0.6-2.1,1-3.2,1.3c-0.6,0.2-0.9,0.6-1,1.1l-1,5.1
		c-0.1,0.3-0.3,0.5-0.6,0.5h-2.7c-0.3,0-0.5-0.2-0.6-0.5l-1-5.1c-0.1-0.6-0.5-0.9-1-1.1c-1.1-0.3-2.3-0.8-3.2-1.3
		c-0.5-0.3-1-0.3-1.5,0.1l-4.3,2.8c-0.2,0.2-0.6,0.1-0.8-0.1l-2-2c-0.2-0.2-0.2-0.5-0.1-0.8l2.8-4.2c0.3-0.5,0.3-1,0.1-1.5
		c-0.6-1-1-2.1-1.3-3.2c-0.2-0.6-0.6-0.9-1.1-1l-5.1-1c-0.3-0.1-0.5-0.3-0.5-0.6v-2.7c0-0.3,0.2-0.5,0.5-0.6l0.3-0.1
		c0.8-0.2,1.3-0.9,1.1-1.7c-0.2-0.8-0.9-1.3-1.7-1.1l-0.3,0.1c-1.6,0.3-2.8,1.8-2.8,3.4v2.7c0,1.7,1.1,3.1,2.8,3.4l4.3,0.9
		c0.3,0.8,0.6,1.5,0.9,2.3l-2.4,3.6c-0.9,1.4-0.8,3.2,0.5,4.4l2,2c1.1,1.1,3,1.3,4.4,0.5l3.6-2.4c0.8,0.4,1.5,0.7,2.3,0.9l0.9,4.3
		c0.3,1.6,1.8,2.8,3.4,2.8h2.7c1.7,0,3.1-1.1,3.4-2.8l0.9-4.3c0.8-0.3,1.5-0.6,2.3-0.9l3.6,2.4c1.4,0.9,3.2,0.8,4.4-0.5l2-2
		c1.1-1.1,1.3-3,0.5-4.4l-2.4-3.6c0.4-0.8,0.7-1.5,0.9-2.3l4.3-0.9c1.6-0.3,2.8-1.8,2.8-3.4v-2.7
		C144.1,494.7,142.8,493.2,141.2,492.9z"/>
</g>
<g id="fond_categorie">
	<circle fill="#028283" cx="544.1" cy="481.1" r="315.2"/>
</g>
<g>
	<g id="texte_titre_badge">
		<path fill="#FFFFFF" d="M363.6,620.3h-9.3v-6.5h26.4v6.5h-9.4v27.8h-7.7V620.3z"/>
		<path fill="#FFFFFF" d="M392.6,613.8v34.3h-7.7v-34.3H392.6z"/>
		<path fill="#FFFFFF" d="M406,620.3h-9.3v-6.5h26.4v6.5h-9.4v27.8H406V620.3z"/>
		<path fill="#FFFFFF" d="M427.2,614.2c2.5-0.4,6.1-0.8,10.3-0.8c5.1,0,8.7,0.8,11.1,2.7c2.1,1.6,3.2,4.1,3.2,7.2
			c0,4.3-3.1,7.4-6,8.4v0.2c2.4,0.9,3.7,3.2,4.6,6.4c1,3.9,2.1,8.3,2.7,9.6h-7.9c-0.6-1-1.4-3.8-2.4-8c-0.9-4.3-2.4-5.5-5.6-5.5H435
			v13.5h-7.7L427.2,614.2L427.2,614.2z M435,629h3c3.9,0,6.1-2,6.1-4.9c0-3.1-2.2-4.7-5.7-4.7c-1.9,0-2.9,0.1-3.5,0.3v9.3L435,629
			L435,629z"/>
		<path fill="#FFFFFF" d="M477.7,633.6H465v8.1h14.1v6.3h-21.7v-34.3h21.2v6.3h-13.4v7.2h12.7L477.7,633.6L477.7,633.6z"/>
		<path fill="#FFFFFF" d="M494.8,614.2c2.8-0.5,6.6-0.8,10.5-0.8c6.5,0,10.8,1.2,14.1,3.7c3.6,2.6,5.8,6.8,5.8,12.9
			c0,6.6-2.4,11.1-5.7,13.9c-3.6,3-9.2,4.4-15.8,4.4c-4.1,0-6.9-0.3-8.8-0.5L494.8,614.2L494.8,614.2L494.8,614.2z M502.6,642.2
			c0.7,0.1,1.8,0.1,2.7,0.1c7,0.1,11.6-3.8,11.6-12c0-7.1-4.2-10.9-10.9-10.9c-1.7,0-2.8,0.2-3.5,0.3L502.6,642.2L502.6,642.2z"/>
		<path fill="#FFFFFF" d="M537.9,613.8v19.7c0,6,2.3,9,6.2,9c4.1,0,6.3-2.8,6.3-9v-19.7h7.7v19.3c0,10.6-5.4,15.6-14.4,15.6
			c-8.7,0-13.7-4.8-13.7-15.7v-19.2L537.9,613.8L537.9,613.8z"/>
		<path fill="#FFFFFF" d="M575.2,614.2c2.1-0.4,6.1-0.8,10-0.8c4.7,0,7.7,0.5,10.1,1.9c2.4,1.3,4.1,3.6,4.1,6.8c0,3-1.8,5.9-5.7,7.3
			v0.1c3.9,1,6.8,4,6.8,8.4c0,3.1-1.4,5.6-3.6,7.3c-2.6,2-6.6,3.1-13.5,3.1c-3.8,0-6.6-0.3-8.4-0.5v-33.6H575.2L575.2,614.2z
			 M582.9,627.4h2.6c4.1,0,6.2-1.7,6.2-4.3s-2-4-5.5-4c-1.7,0-2.6,0.1-3.3,0.3V627.4z M582.9,642.6c0.8,0.1,1.7,0.1,2.9,0.1
			c3.5,0,6.6-1.3,6.6-5c0-3.4-3.1-4.8-6.9-4.8h-2.6V642.6z"/>
		<path fill="#FFFFFF" d="M613.9,639.3l-2.5,8.8h-8l10.5-34.3H624l10.7,34.3h-8.3l-2.6-8.8H613.9z M622.6,633.5l-2.2-7.3
			c-0.6-2-1.2-4.6-1.7-6.6h-0.1c-0.5,2-1,4.6-1.6,6.6l-2.1,7.3H622.6z"/>
		<path fill="#FFFFFF" d="M639.3,614.2c2.8-0.5,6.6-0.8,10.5-0.8c6.5,0,10.8,1.2,14.1,3.7c3.6,2.6,5.8,6.8,5.8,12.9
			c0,6.6-2.4,11.1-5.7,13.9c-3.6,3-9.2,4.4-15.8,4.4c-4.1,0-6.9-0.3-8.8-0.5L639.3,614.2L639.3,614.2z M647.1,642.2
			c0.7,0.1,1.8,0.1,2.7,0.1c7,0.1,11.6-3.8,11.6-12c0-7.1-4.2-10.9-10.9-10.9c-1.7,0-2.8,0.2-3.5,0.3v22.5H647.1z"/>
		<path fill="#FFFFFF" d="M703.4,646.4c-2.4,0.9-6.9,1.9-11.4,1.9c-6.2,0-10.8-1.6-14-4.6c-3.1-3-4.9-7.5-4.8-12.5
			c0-11.4,8.3-17.9,19.6-17.9c4.4,0,7.8,0.9,9.5,1.6l-1.6,6.2c-1.9-0.9-4.2-1.4-7.9-1.4c-6.4,0-11.3,3.6-11.3,11.1
			c0,7.1,4.4,11.2,10.9,11.2c1.8,0,3.2-0.2,3.8-0.5v-7.2h-5.3v-6h12.8L703.4,646.4L703.4,646.4L703.4,646.4z"/>
		<path fill="#FFFFFF" d="M729.8,633.6h-12.7v8.1h14.1v6.3h-21.8v-34.3h21.2v6.3h-13.4v7.2h12.7L729.8,633.6L729.8,633.6z"/>
	</g>
</g>
<g id="filet_2_theme">
	<path fill="none" stroke="#000000" stroke-width="5" stroke-miterlimit="10" d="M758.2,151.2C859.5,221.6,928,340.6,928,475.4
		c0,216.2-172.9,393.4-384,393.4S150.1,722.1,151.6,475.5c0.2-27.2,1.5-43.1,6.5-67.4c0.6-2.6-0.9-5.3-3.5-6.2
		c-20.2-7.4-90.8-36.6-101.9-41.4c-4.1-1.8-5.3-6.9-4.3-10.6c6.5-24,11.1-44.3,18-63.8c3.9-10.8,16.5-39.1,25.8-51.3
		c3-4,7.5-6.3,11.1-5.1c16.2,5.4,110.1,38.9,111.4,36.9c29.3-50.2,70.6-84.9,118-117.2"/>
	<circle fill="#FFFFFF" stroke="#1D1D1B" stroke-width="4" stroke-miterlimit="10" cx="854.1" cy="804.6" r="97.8"/>
</g>
<g id="picto_titre_badge">
	<g id="g6791" transform="translate(427.0015,362.0531)">
		<path id="path6789" fill="#FFFFFF" d="M244.9-29.6c0.3,1.9,0.5,3,0.7,4.1c1,7,0.7,14,0.1,21c-0.6,8.5-2.2,16.6-4.7,24.7
			c-3.8,12.2-9.6,23.4-18.3,32.9c-4.9,5.3-10.4,9.9-16.7,13.5c-6.9,4-14.4,5.9-22.1,7.8c-6.3,1.6-12.8,3.2-18.7,5.9
			c-9.2,4.2-10.8,11.1-8.5,19.3c1.9,7,5.2,13.5,7.9,20.4c0.4,1,0.9,1.9,1.3,2.9c-0.2,0.2-0.4,0.3-0.6,0.6c-1.3-1-2.6-1.9-3.8-3.1
			c-6.5-6.3-12.4-12.9-15-21.9c-2.7-9.3,0-17.4,5.6-24.7c6.9-9,16-15.8,24.9-22.7c8.5-6.5,16.6-13.3,24.8-20.1
			c1.5-1.3,2.7-3.1,4-4.7c-0.2-0.2-0.3-0.4-0.6-0.6c-1.9,1.1-3.9,2.2-5.8,3.5c-11.6,7.3-23.1,14.7-34.7,21.9
			c-3.3,2.1-7,3.8-10.6,5.6c-1.3,0.6-2.5,0.8-2.4-1.3c0.4-8.6,1.6-17.1,5.1-25.1c4.2-9.4,10.8-17.1,20.1-21.4
			c9.4-4.3,19.2-7.6,28.9-11.2c9.5-3.4,19-6.8,27-13.2c4.2-3.3,7.8-7.2,10.3-11.9C243.6-28,244.1-28.5,244.9-29.6"/>
	</g>
	<g id="g6795" transform="translate(143.617,309.6074)">
		<path id="path6793" fill="#FFFFFF" d="M331.4,59.2c3.3,3.3,6.3,6.9,9.9,9.8c13.8,11,27.8,21.9,41.6,32.9
			c10,7.9,19.7,16.3,26.9,27.1c9.8,14.7,9.7,31,0,45.8c-5.3,8.1-12.2,14.9-19.2,21.5c-0.6,0.6-1.5,1-2.8,1.1
			c0.5-1.1,0.8-2.3,1.4-3.3c4.7-8.8,9-17.9,11.5-27.6c1.4-5.4,2-10.9,0.7-16.5c-2-8.9-8.7-13.5-16.5-16.1
			c-9.1-3.1-18.4-5.6-27.8-7.6c-27.7-5.9-48.1-21.9-62.9-45.5c-8.4-13.3-13.8-28-17.4-43.3c-3.9-16.5-4.8-33.1-4.2-49.9
			c0.1-3,0.8-6,1.3-9.8c1,1.3,1.6,1.7,1.9,2.4c8.8,15.6,22.7,24.9,38.8,31.1c13.8,5.3,27.8,9.5,41.6,14.6
			c12.2,4.5,23.7,10.4,32.8,20.2c8,8.6,13.4,18.7,15.7,30.1c1.5,7.6,2.4,15.3,3.3,23c0.4,3.5-0.3,3.8-3.5,2.3
			c-17-7.9-32.7-18-48.3-28.3c-7.2-4.7-14.4-9.1-21.6-13.6c-0.8-0.5-1.6-0.8-2.4-1.2C332,58.6,331.7,59,331.4,59.2"/>
	</g>
	<g id="g6799" transform="translate(65.4546,150.0839)">
		<path id="path6797" fill="#FFFFFF" d="M355.3,329.6c64.5,0.8,123.3,10.2,174.9,29.7c14.1,5.3,26.5,11.7,39.7,17.6
			c5.3,2.4,3.8,4.1-1.8,5.5c-9,2.3-18.1,4.5-27,6.9c-5.1,1.4-8.2,0.6-11.8-1.5c-15.1-8.2-29.7-16.7-46.1-24.2
			c-32.9-14.9-71.7-24.5-115.7-28.3c-11.3-1-22.9-1-34.4-1.5c-1.8-0.1-3.8,0.2-5.5-0.1c-2.4-0.3-4.4-1.1-6.6-1.7
			c2-0.6,3.9-1.6,6-1.7c6.6-0.4,13.3-0.6,20-0.8C349.8,329.5,352.5,329.6,355.3,329.6"/>
	</g>
	<g id="g6803" transform="translate(235.3552,55.1964)">
		<path id="path6801" fill="#FFFFFF" d="M303.4,490.4c-10.8-1.3-21.8-2-32.2-3.8c-37.5-6.4-65.1-19-83.5-37
			c-1.5-1.5-1.8-3.3-2.6-4.9c3.1,0.1,6.3,0.1,9.3,0.3c38.2,4.2,67.4,15.6,91.7,30.8c6.7,4.2,12.6,8.7,19,13
			C304.5,489.3,303.9,489.9,303.4,490.4"/>
	</g>
	<g id="g6807" transform="translate(310.5638,57.8876)">
		<path id="path6805" fill="#FFFFFF" d="M280.5,485.8c-12.6,0.8-23.5,1.6-34.7,1.9c-2.3,0.1-5.5-1.6-7.1-2.9
			c-13.8-10.9-29.5-20.9-48.6-29.5c-24.3-10.9-52-17.8-84.2-19.7c-1.5-0.1-3.3,0.1-4.4-0.3c-2-0.8-3.6-1.9-5.4-2.8
			c2-0.5,4-1.5,6-1.5c20,0.3,39.4,2.4,58.2,5.8c48.5,8.8,85.6,25.4,117,46C278.1,483.3,278.7,484.1,280.5,485.8"/>
	</g>
	<g id="g6811" transform="translate(458.8952,130.3764)">
		<path id="path6809" fill="#FFFFFF" d="M235.2,363c-2.2,2.8-3.8,5.4-6.2,7.8c-8.5,8.7-18.9,16.4-32,23.1c-3.4,1.7-5.6,1.9-9-0.1
			c-6.5-4-13.5-7.8-20.4-11.5c-2.5-1.4-3.1-2.4,0.1-3.8c19.3-7.9,40.4-13.4,63.9-15.8C232.3,362.5,232.9,362.7,235.2,363"/>
	</g>
	<g id="g6815" transform="translate(282.366,134.4695)">
		<path id="path6813" fill="#FFFFFF" d="M289.1,356c2.9-1,4.3-1.6,5.8-1.9c38.4-9.1,78.5-13.1,120-12.4c4.6,0.1,9.2,0.3,13.6,0.8
			c2,0.2,3.6,1.4,5.4,2.2c-2,0.6-4,1.6-6.2,1.7c-9.8,0.6-19.6,0.8-29.4,1.4c-27.2,1.6-52.7,6.4-76.5,14c-5.5,1.7-9.7,2-15.1-0.1
			C301.7,359.6,295.9,358.2,289.1,356"/>
	</g>
	<g id="g6819" transform="translate(319.906,119.4833)">
		<path id="path6817" fill="#FFFFFF" d="M277.6,381.4c2.4-0.7,3.7-1,4.9-1.4c29.6-8.5,61.1-13.8,94.9-14.9c3.1-0.1,8.9,0.8,9.1,1.5
			c0.8,2.9-4.3,3.3-8.5,3.5c-28.8,1.7-54.3,7.4-77.7,16.2c-3.8,1.5-7.2,1.5-10.8-0.1C286.3,384.9,283,383.6,277.6,381.4"/>
	</g>
	<g id="g6823" transform="translate(274.1679,344.1267)">
		<path id="path6821" fill="#FFFFFF" d="M291.6,0.7c7.2,0,12.6,5.1,12.6,12c0.1,7-5.8,12.9-12.9,12.9c-7.2,0-12.9-5.8-12.9-12.9
			C278.6,5.6,283.8,0.7,291.6,0.7"/>
	</g>
</g>
<g id="picto_theme" transform="translate(0.45365829,18.132036)">
	<circle id="circle697" fill="none" stroke="#000000" stroke-width="2.54" stroke-miterlimit="12.7" cx="885" cy="742.9" r="17"/>
	<circle id="circle699" fill="none" stroke="#000000" stroke-width="2.54" stroke-miterlimit="12.7" cx="813.3" cy="780.9" r="17"/>
	<circle id="circle701" fill="none" stroke="#000000" stroke-width="2.54" stroke-miterlimit="12.7" cx="885" cy="819.8" r="17"/>
	
		<line id="line703" fill="none" stroke="#000000" stroke-width="2.54" stroke-miterlimit="12.7" x1="869.7" y1="751.2" x2="826.6" y2="771.6"/>
	
		<line id="line705" fill="none" stroke="#000000" stroke-width="2.54" stroke-miterlimit="12.7" x1="828.3" y1="790.4" x2="870.4" y2="811"/>
</g>
<g id="tracy" opacity="0.25" enable-background="new    ">
	<path fill="#3DADA8" d="M261.1,42.9c-0.2,0.1-0.5,0.3-1,0.7c0,0.1,0,0.2,0,0.2c0,0.1,0,0.1,0,0.2c-0.1,0-0.2,0-0.4-0.1
		c-0.1,0-0.1,0.1-0.2,0.3c-0.4,0.1-0.9,0.3-1.4,0.6l-1.5,0.4c-0.1,0-0.2,0-0.2-0.1c-0.1,0.1-0.2,0.2-0.2,0.2
		c0.1,0.1,0.2,0.3,0.5,0.4c-0.1,0-0.2,0-0.3,0c-0.2,0-0.6,0-1-0.1c0.2,0,0.2-0.1,0.2-0.2h-0.3c-0.1,0.1-0.2,0.2-0.2,0.3
		c-0.1-0.1-0.3-0.2-0.5-0.2V46l-0.4,0.2c0.4,0,0.7,0,0.8,0.1c-0.1,0-0.2,0-0.2,0.1h-2.4c-0.1,0-0.1,0-0.1,0.1l-2.1,0.4
		c0.3,0,0.8,0.1,1.4,0.3c0-0.1,0.1-0.2,0.2-0.4h0.3l-0.1,0.1l0.3,0.1l0.2-0.2c0,0.1,0.1,0.1,0.2,0.3h0.8c-0.2,0-0.6,0.1-1,0.3
		c-0.1,0-0.2-0.1-0.3-0.2l-0.1,0.2c-0.1,0-0.2-0.1-0.4-0.1c-0.1,0-0.2,0.1-0.3,0.2c0.2,0.1,0.5,0.1,0.8,0.1c-0.1,0-0.3,0-0.6,0
		c-0.3,0-0.5,0.1-0.6,0.1c0,0,0,0,0,0c0,0,0-0.1,0.1-0.2h-0.5l0.1,0.1c0,0.2-0.1,0.2-0.3,0.2h-3.1c-0.2-0.1-0.2-0.2-0.3-0.2h-0.2
		l0.1,0.2c-0.1,0-0.2,0-0.3,0c-0.6,0-1.3,0.1-2.1,0.2c-0.1-0.1-0.2-0.2-0.2-0.2c0,0,0,0,0,0c-0.2-0.1-0.3-0.1-0.5-0.1
		c0,0-0.1,0-0.3,0c-0.2,0-0.2,0-0.3,0c-0.4,0-0.7-0.1-0.8-0.3h-0.2c0,0-0.1,0-0.3,0.1l-2.1-0.7c0-0.1,0.1-0.1,0.1-0.1
		c0.1,0,0.1,0,0.2,0.1h0.2c0.1,0,0.2,0,0.3-0.1c-0.2-0.1-0.4-0.2-0.5-0.2c-0.1,0-0.1,0-0.2,0.1c-0.1-0.1-0.4-0.2-1-0.4
		c0,0-0.1,0.1-0.1,0.2h-0.3c0-0.1-0.1-0.2-0.3-0.2c-0.2-0.1-0.4-0.2-0.4-0.2c0-0.1-0.1-0.2-0.1-0.2c0.1,0,0.1-0.1,0.1-0.1
		c-0.1-0.1-0.2-0.1-0.3-0.1c0.1,0,0.1,0,0.2-0.1l-0.2-0.1l-0.2,0.2c-0.1-0.1-0.1-0.1-0.2-0.1c-0.1-0.1-0.1-0.3-0.2-0.6l-0.9-0.4
		c0,0,0-0.1,0.1-0.2c-0.1,0-0.2-0.2-0.4-0.5c-0.1,0-0.4-0.4-0.7-1c-0.1-0.9-0.2-1.7-0.3-2.3l-0.2-1.5c0-3.9,2.3-8,7-12.3
		c0.4-0.1,0.8-0.3,1.1-0.6c0.4-0.4,0.7-0.5,0.9-0.5c0,0,0.1,0,0.1,0c0.1-0.2,0.3-0.4,0.6-0.8c0.6-0.3,1.4-0.8,2.5-1.4
		c0.2,0,0.4,0.1,0.4,0.1l1.3-0.9l4.2-1.2h1.3c0.1,0.2,0.2,0.4,0.3,0.7c0.1,0.1,0.3,0.3,0.5,0.5c-0.2,0.1-0.3,0.3-0.3,0.5
		c0,0.7,0,1,0,1.1c0,0,0,0,0-0.1c0.1,0.1,0.3,0.3,0.5,0.6c0,0-0.2,0.1-0.4,0.2v0c0,0,0,0.1,0.1,0.3l-0.5,0.4c0.1,0,0.3,0.1,0.6,0.2
		c-0.4,0.2-0.7,0.3-0.9,0.3c-0.1,0-0.1,0-0.2,0c0,0.1-0.1,0.1-0.2,0.2c-0.3,0-0.7,0.1-1.2,0.2c-0.1,0.1-0.7,0.4-1.7,0.8
		c-0.2,0.1-0.7,0.3-1.4,0.6c-0.5,0.4-1.6,0.9-3.2,1.8c-0.9,0.8-1.8,1.5-2.5,2c-0.6,0.6-1.5,1.7-2.8,3.2c-0.1,0.1-0.2,0.1-0.3,0.2
		c-0.2,0.1-0.3,0.3-0.3,0.5c0,0.1,0,0.2,0.1,0.3c-0.2,0.2-0.5,0.5-0.9,1v0c0,0,0,0.1,0.1,0.3l-0.5,1.7v1.1c0,0.1,0.1,0.3,0.4,0.5
		c0.3,0.2,0.5,0.4,0.6,0.4c0.1,0.1,0.3,0.2,0.5,0.4c0.1,0,0.9,0.3,2.4,0.7c0.6,0.1,1.2,0.1,1.9,0.2l2.7,0.1l3-0.2l4-0.5
		c0.1,0,0.3,0,0.4,0.1l1.2-0.4c0.1,0.1,0.1,0.1,0.2,0.1l1.8-0.5h0.6l0.2,0.2h1.1c0.1,0.1,0.1,0.2,0.1,0.3c0,0,0.1,0.1,0.3,0.1
		c0,0.1-0.1,0.1-0.1,0.2c0.1,0.1,0.2,0.2,0.2,0.2c-0.1,0.1-0.3,0.2-0.5,0.4c0,0,0,0.1,0,0.1c0,0,0,0,0.1,0h0.5v0
		c0,0-0.1,0.2-0.2,0.6C260.9,42.8,261,42.8,261.1,42.9z M254,45.6h-0.3v0c0,0-0.1,0.1-0.1,0.3C253.7,45.9,253.8,45.8,254,45.6z"/>
	<path fill="#3DADA8" d="M280.6,44.8c-0.3,0.3-0.6,0.8-1.1,1.4l-0.5-0.1c0,0.1-0.1,0.2-0.2,0.4c-0.1-0.1-0.3-0.2-0.6-0.4
		c0,0,0,0-0.1,0c-0.3,0-0.9-0.3-1.7-1c-0.2-0.4-0.6-1.1-1.4-2.1l-4,3c0,0,0,0.1,0.1,0.1c0.1,0.1,0.1,0.1,0.1,0.1
		c-0.1,0.2-0.5,0.4-1.3,0.8c-2.2,0.7-3.3,1-3.3,1c-1.6,0-2.8-0.6-3.7-1.8c-0.4-1.2-0.7-2-0.7-2.6c0-0.4,0.4-1.4,1.2-3.3
		c0.7-0.8,1.2-1.2,1.5-1.2c0.1-0.1,0.9-0.6,2.2-1.6c0.6-0.3,1.7-0.7,3.1-1.3c1.4-0.3,2.2-0.5,2.2-0.6h0c0.1,0,0.4,0,0.8,0.1
		c0.3,0,0.6,0,0.8,0c0.1,0,0.2,0,0.2,0c0.6,0.3,0.9,0.6,0.9,0.9c0,0,0,0.1,0,0.1c0.1,0.1,0.4,0.5,0.8,1.3c0.1,0,0.2,0,0.3,0
		c0.4,0,0.9,0.2,1.3,0.6c0.7,1.1,1.3,2,1.8,2.9C279.8,42.9,280.3,43.9,280.6,44.8z M273.1,40.2h-0.8c-0.3,0-0.9,0.2-1.9,0.6
		l-1.7,0.7c-0.6,0.4-1.3,0.9-2.1,1.6l-0.1,0.2l0.9,0.1c2.1-0.5,3.7-1.4,4.9-2.6C272.5,40.7,272.7,40.5,273.1,40.2z"/>
	<path fill="#3DADA8" d="M310.1,41.9c0,0.2-0.1,1.3-0.3,3c-0.3,0.9-0.4,1.4-0.4,1.4v0c-0.1,0.1-0.2,0.2-0.3,0.2c0,0,0,0-0.1,0
		l-0.3,0.5c-0.4,0-0.9-0.2-1.6-0.4c-0.1-0.2-0.4-0.5-0.8-0.8c-0.2-0.4-0.2-0.8-0.2-1.4v-4.1l-0.7-2c0,0,0,0,0,0c0,0-0.1,0-0.1-0.1
		c-0.2,0.1-0.5,0.2-0.9,0.3c-1.2,0.2-2.4,1.1-3.8,2.6c-0.1,0.1-1,1.4-2.8,4c-0.2,0.5-0.6,1.2-1.2,2.2c0,0,0,0,0,0
		c-0.1,0-0.3,0.1-0.8,0.2c-0.1,0-0.2-0.1-0.3-0.1c-0.1,0.1-0.3,0.2-0.6,0.4l-0.4-0.7c0-0.1-0.2-0.2-0.4-0.3H294c0,0-0.1,0-0.2,0.1
		c-0.1,0.1-0.1,0.1-0.2,0.1c0,0,0,0,0,0c0,0-0.1-0.2-0.4-0.5l-0.1-2.4l0.4-4.9c0-0.3-0.1-0.6-0.2-1.1h0c0,0-0.1,0-0.1-0.1
		c-0.2,0.1-0.6,0.2-1.1,0.4c-0.2,0.2-0.5,0.5-1,0.9c-1.2,0.8-2.3,2-3.2,3.5c-0.9,0.9-1.5,2-2.1,3.2c-0.1,0.1-0.2,0.2-0.2,0.3
		c0,0.1,0,0.1,0.1,0.2c0.1,0.1,0.1,0.1,0.1,0.2c0,0,0,0.1-0.1,0.1c-0.1,0-0.8,0-1.8,0c-0.5-0.7-0.9-1-1.5-1c0,0,0,0,0,0
		c0-0.2-0.1-0.4-0.2-0.8c0-0.1,0-0.3-0.1-0.6c0,0,0-0.1,0-0.1c0-0.2,0.1-0.3,0.2-0.4l-0.3-0.2c0-0.6,0.3-2,0.7-4.1
		c0.1-0.4,0.3-1.3,0.6-2.5c0.4-0.7,0.5-1.1,0.6-1.1v0c0-0.1,0-0.1,0-0.1c0.7-0.3,1-0.5,1-0.6c0.3,0,0.7,0.3,1.1,1
		c0.3,0.5,0.6,0.9,0.8,1.2c0,0,0,0,0,0c0.1,0,0.2-0.1,0.5-0.3c1.1-1,2-1.7,2.6-2.2c1.1-0.8,2-1.3,2.8-1.5c0.2,0,0.4-0.1,0.5-0.3
		c0.5-0.2,0.8-0.3,1-0.3c0.5,0,1.1,0.6,1.7,1.7c0.3,0.4,0.6,1.1,1,2l0.4,2.3c0.1-0.1,0.4-0.4,1-0.8c0.3-0.2,0.5-0.4,0.8-0.8
		c0.9-1,1.9-1.9,3.1-2.6c1.4-0.9,2.6-1.3,3.6-1.3c0.7,0,1.4,0.4,2.1,1.3c0.7,0.9,1.1,1.7,1.2,2.6c0.1,0.6,0.3,1.5,0.6,2.6
		L310.1,41.9z"/>
	<path fill="#3DADA8" d="M334.4,39.8c0,0,0,0.2-0.1,0.4c-0.1,0.2-0.2,0.4-0.2,0.6c0,0.5-0.3,1.2-0.9,1.9c-0.6,0.7-1.2,1.2-1.8,1.5
		c-0.5,0.2-0.8,0.3-0.9,0.5l-3.3,1.6l-3.1,1l-0.1-0.1l-5.3,1.3c-0.1-0.1-0.2-0.1-0.3-0.1c-0.1,0-0.2,0-0.3,0.1l-1.5-0.6l-0.4,3.1V52
		l-0.5,4.6l0.1,3.2l-0.2,2.7c0,0-0.1,0.1-0.3,0.3c-0.1,0.2-0.3,0.2-0.4,0.2c-0.1,0-0.2-0.1-0.3-0.3c0,0,0,0.1-0.1,0.1l-0.2,0.2
		c0,0,0,0,0,0c-0.2,0-0.3-0.1-0.5-0.3c-0.8-0.4-1.3-1-1.6-2.1c-0.2-1.5-0.3-2.3-0.3-2.4V55l0.5-6.1c0.1-0.8,0.6-4.1,1.7-9.8
		c0.3-0.8,0.7-1.2,1.2-1.2l0.6,0.1c0.4,0.2,0.7,0.6,0.9,1c0.3,0.6,0.5,1,0.5,1.1c0,0,0,0.2,0,0.7L317,44c0,0.2,0,0.4,0.1,0.7
		c1.2-0.5,2.7-1.1,4.4-1.8c1.8-0.3,3.7-0.9,5.7-2c0.1,0,0.2-0.1,0.4-0.1c0.4-0.3,0.7-0.5,1-0.5c0.4-0.3,0.9-0.8,1.7-1.6
		c-0.2-0.5-0.6-0.9-1.2-1.2c-1-0.6-1.5-0.9-1.6-0.9l-0.3,0.1l-0.6-0.3l-0.2,0c-0.1,0-0.2,0-0.2,0l-1.8-0.4l-3.7,0.1
		c-0.1,0-0.3,0-0.5,0.1c-0.4,0.1-0.7,0.1-0.7,0.1c-1.8,0.2-3.2,0.6-4.3,1.2c-0.3,0-0.8,0.3-1.6,0.7c-1,0.5-1.5,1-1.5,1.5
		c0,0.2,0.1,0.4,0.3,0.7c-0.1,0.1-0.1,0.1-0.3,0.1c-0.1,0.1-0.1,0.2-0.1,0.3c0,0,0,0.1,0,0.1c0,0-0.1,0-0.2,0c-0.1,0-0.1,0-0.2,0
		l-0.2,0.5c-0.1,0-0.2-0.1-0.4-0.2c0,0-0.1,0.1-0.2,0.2h-0.4c-0.1-0.1-0.2-0.2-0.3-0.4L310,41c-0.2-0.3-0.5-0.6-0.7-0.7
		c0-0.3-0.1-0.6-0.1-0.8l-0.1-0.3v-1.4l0.3-0.4c0,0,0-0.1,0-0.1c0-0.4,0.2-0.8,0.7-1.2c0.4-0.3,0.8-0.6,1.2-0.9
		c0.1-0.2,0.2-0.3,0.3-0.5c0.2,0.1,0.3,0.1,0.4,0.1l5.1-2.4l3.2-0.9c0.4,0.1,0.8,0.2,1.2,0.2c0,0,0.1,0,0.3-0.1
		c0.2-0.1,0.3-0.1,0.3-0.1h1.6c0,0,0.1-0.1,0.2-0.1c0.6,0.1,1.1,0.2,1.5,0.3c0.5,0,0.9,0,1.2,0.1c0.6,0.1,1.1,0.2,1.5,0.5
		c0,0,0.1,0,0.2,0s0.2,0,0.2,0c1.2,0,2.5,0.8,3.8,2.4c0.3,0.4,0.7,0.9,1.2,1.6C334.1,37.9,334.4,39.1,334.4,39.8z"/>
	<path fill="#3DADA8" d="M351.5,38.2c-0.1,0.6-0.4,1.7-0.7,3.3c-0.2,0.7-0.6,1.6-1.3,2.8c-0.7,1-1.3,1.7-1.6,2.1
		c-0.7,0.8-1.5,1.2-2.2,1.4c-0.3,0.1-0.7,0.3-1.3,0.5c-0.9,0.2-1.5,0.3-1.7,0.3c-2.3,0-4.3-1.8-6-5.3c-0.2-0.9-0.3-1.7-0.3-2.3
		c0-0.4,0.1-1,0.3-1.8c0.6-0.5,1-0.7,1.2-0.7h0c1.3,0.6,1.9,1.5,1.9,2.8c0,0.5,0.3,1.2,1,2c0.7,0.3,1.1,0.5,1.1,0.5h0.5
		c0.1,0,0.6-0.2,1.3-0.4c1-0.7,1.7-1.2,2.1-1.5c0.8-0.7,1.2-1.4,1.3-2.1c0.1-0.4,0.5-1.4,1-3c0.3-1.1,0.7-1.8,1-2.2c0,0,0.1,0,0.2,0
		c0.1,0,0.2,0,0.3,0h0.5c0.1,0.1,0.2,0.3,0.4,0.4c0.2,0.4,0.5,0.9,0.9,1.5c0,0.1,0,0.3,0,0.4c0,0.2,0,0.3,0,0.5c0,0.1,0,0.2,0,0.3
		C351.3,37.9,351.4,38,351.5,38.2z"/>
	<path fill="#3DADA8" d="M367.2,44.6c0,0.5-0.1,1-0.3,1.5c-0.2,0.3-0.9,0.7-2.1,1.2c-1.3,0.5-2.4,0.8-3.1,0.8
		c-0.1,0-0.4-0.1-1.2-0.2c-0.2,0-0.3,0-0.5,0c-0.2,0-0.5,0-0.7,0.1l-1.5-0.3h-1.3c-0.2,0-0.6-0.1-1.3-0.4c-0.6-0.2-0.9-0.3-1.1-0.4
		c-0.1-0.2-0.2-0.5-0.4-0.7c0-0.1,0-0.2,0.1-0.2l-0.2-0.2c0.1-0.2,0.1-0.4,0.1-0.6c0-0.3-0.1-0.5-0.2-0.7c0.7-0.3,1.2-0.4,1.4-0.4
		h1.1l1.6-0.2h1l2.5-0.3c0.1-0.1,0.2-0.2,0.2-0.2c0-0.1-0.2-0.2-0.4-0.3c-0.3-0.1-0.9-0.4-1.8-0.7c-3-1.3-4.7-2.7-5.1-4.3
		c-0.1-0.3-0.2-0.5-0.3-0.6v-1.6c0-0.1,0.1-0.3,0.3-0.7c0.1-1.1,2.1-1.6,6.1-1.6h0c0,0,0.9,0.1,2.6,0.3c1.2,0.4,2,0.8,2.4,1
		c0.8,0.5,1.4,1.1,1.8,1.9c0,0.1-0.1,0.2-0.2,0.4c-0.2,0.2-0.2,0.4-0.2,0.5l0.1,0.2l-0.8,0.5h-0.2c0,0,0.1,0,0.1,0
		c0-0.1-0.6-0.2-1.9-0.6c-1.3-0.2-2.1-0.3-2.3-0.3l-2.1,0.3c0,0,0.1,0.1,0.1,0.2c0.1,0.1,0.3,0.2,0.5,0.4
		C364.7,40,367.2,42.2,367.2,44.6z"/>
	<path fill="#3DADA8" d="M403.4,44.8c-0.3,0.3-0.6,0.8-1.1,1.4l-0.5-0.1c0,0.1-0.1,0.2-0.2,0.4c-0.1-0.1-0.3-0.2-0.6-0.4
		c0,0,0,0-0.1,0c-0.3,0-0.9-0.3-1.7-1c-0.2-0.4-0.6-1.1-1.4-2.1l-4,3c0,0,0,0.1,0.1,0.1c0.1,0.1,0.1,0.1,0.1,0.1
		c-0.1,0.2-0.5,0.4-1.3,0.8c-2.2,0.7-3.3,1-3.3,1c-1.6,0-2.8-0.6-3.7-1.8c-0.4-1.2-0.7-2-0.7-2.6c0-0.4,0.4-1.4,1.2-3.3
		c0.7-0.8,1.2-1.2,1.5-1.2c0.1-0.1,0.9-0.6,2.2-1.6c0.6-0.3,1.7-0.7,3.1-1.3c1.4-0.3,2.2-0.5,2.2-0.6h0c0.1,0,0.4,0,0.8,0.1
		c0.3,0,0.6,0,0.8,0c0.1,0,0.2,0,0.2,0c0.6,0.3,0.9,0.6,0.9,0.9c0,0,0,0.1,0,0.1c0.1,0.1,0.4,0.5,0.8,1.3c0.1,0,0.2,0,0.3,0
		c0.4,0,0.9,0.2,1.3,0.6c0.7,1.1,1.3,2,1.8,2.9C402.7,42.9,403.2,43.9,403.4,44.8z M396,40.2h-0.8c-0.3,0-0.9,0.2-1.9,0.6l-1.7,0.7
		c-0.6,0.4-1.3,0.9-2.1,1.6l-0.1,0.2l0.9,0.1c2.1-0.5,3.7-1.4,4.9-2.6C395.3,40.7,395.6,40.5,396,40.2z"/>
	<path fill="#3DADA8" d="M422,53.6c-0.3,2.1-0.9,3.9-1.9,5.4c-0.1,0.2-0.5,0.6-1.2,1.3c-0.2,0.1-0.6,0.4-1.1,0.8
		c-0.6,0.3-1.1,0.5-1.6,0.7c-0.3,0.2-0.8,0.4-1.4,0.8c-0.3,0.1-0.9,0.3-1.6,0.6l-4.9,0.8l-2.4,0.1c-0.1,0-0.2-0.1-0.5-0.1
		c-0.5-0.1-1.2-0.2-2.1-0.5c-0.8-0.2-1.3-0.3-1.5-0.5c-0.2-0.1-0.7-0.5-1.7-1.2c-0.1-0.3-0.4-0.5-0.8-0.8c-0.6-1.4-1-2.2-1-2.3v-2.2
		l1-1.6c0.3-0.2,0.8-0.6,1.5-1c0.1,0.1,0.2,0.2,0.2,0.4c0,0.1-0.1,0.2-0.2,0.4c0,0,0.1,0,0.2,0c0.1,0,0.1-0.1,0.1-0.3
		c0.2-0.1,0.4-0.2,0.8-0.2l0,0.5l-0.3,0.2c0,0.1,0.1,0.3,0.2,0.6c0.3-0.1,0.4-0.1,0.5-0.1c-0.1,0.2-0.3,0.6-0.6,1v0.3
		c0,0,0.1,0.1,0.1,0.2c0,0.1,0,0.1,0,0.2c0,0.3,0,0.6,0.1,1.1c0,0.1,0.1,0.2,0.3,0.5c0.6,0.5,1.1,0.8,1.2,0.9
		c0.4,0.2,1.1,0.3,2.1,0.3l1.4,0.1c0,0,0.2,0,0.5-0.1c0.3-0.1,0.5-0.1,0.5-0.1c0,0,0.1,0,0.2,0c0.1,0,0.2,0,0.2,0
		c0.3,0,0.9-0.1,1.8-0.2c0.5-0.2,1-0.5,1.6-0.7c1-0.3,1.8-0.7,2.6-1.2c0.2-0.1,0.6-0.4,1-0.8c1.6-1,2.4-2.9,2.4-5.7l-1-5.9l-0.1-0.1
		h-0.3l-4.2,1.3c-0.2-0.1-0.6-0.1-1.1-0.1c-0.1,0-0.2,0-0.3,0c-1,0-2.2-0.4-3.5-1.3c-1.6-1-2.4-2-2.4-3l0.2-0.6
		c0-0.1-0.1-0.3-0.1-0.4c0-0.7,0.4-1.6,1.1-2.5c0.7-0.9,1.2-1.3,1.7-1.4c0.9-0.5,1.9-0.8,3-1c0.1,0,1-0.2,2.8-0.4l2-0.1
		c0.6,0.2,1.2,0.3,1.9,0.5c0.7,0.2,1.4,0.5,1.9,0.9v0.4c0.5,0.2,0.8,0.6,0.9,1.3c0.1,0.1,0.2,0.3,0.4,0.6c-0.1,0-0.2,0-0.3,0.1
		c0,0.4,0,0.6,0.1,0.6c0,0,0,0,0,0c-0.1,0-0.2-0.1-0.3-0.1l-0.1,0.1c0.2,0.4,0.4,0.9,0.7,1.5c0,0,0,0.1,0,0.1c0,0.1,0,0.1,0,0.1
		c0.1,1,0.4,2.8,0.7,5.6l0.4,3.2L422,53.6z M401.5,54c0,0,0,0.1-0.1,0.1c0,0,0,0,0,0c0,0-0.1,0-0.1,0C401.4,54,401.5,54,401.5,54z
		 M416.9,39.9l-1.5-0.1l-3,0.2c0,0,0,0,0,0c0,0-0.8,0.3-2.4,0.9l-0.5,0.5c0,0.1,0,0.1,0.1,0.2c1.1,0.3,1.9,0.4,2.3,0.4
		c0.8,0,1.7-0.2,2.8-0.6C415.9,40.9,416.7,40.4,416.9,39.9z"/>
	<path fill="#3DADA8" d="M444.8,37c-0.1,0-0.2,0.1-0.4,0.2c0,0.1,0,0.2,0,0.2l0.3,0.3c-0.5,0.1-0.9,0.3-1.4,0.5l-2.8-0.6
		c-0.5,0-1.2,0.1-2,0.3c-1,0.3-1.9,0.6-2.7,0.8c-1.6,0.6-3,1.2-4.3,1.8c-1.7,0.8-2.8,2-3.2,3.6c0,0.1,0.1,0.5,0.2,1.2v0.5
		c-0.1,0.2-0.2,0.3-0.2,0.5c0,0.1,0,0.1,0,0.2c0,0.1,0.1,0.2,0.2,0.3l-1.5,1h-0.3c-0.2-0.1-0.5-0.3-0.8-0.6l-0.4,0.1
		c-0.1-0.2-0.3-0.5-0.5-0.8c-0.1-0.3-0.2-0.5-0.3-0.7l-0.2-1v-1.3c0,0,0-0.1,0-0.2c0-0.1,0-0.2,0-0.2v-1.4c0-0.4,0.2-1.1,0.5-2.1
		c0.4-1.3,0.8-1.9,1.2-1.9h0.5l0.5,0.5h0.2c0.3,0,1.2-0.5,2.8-1.5c1.1-0.5,2.8-1.2,5-2.2c0.1,0,0.6-0.2,1.5-0.6
		c0.2,0,0.7-0.1,1.4-0.3l1.1-0.2h1.5c1.1,0,2.3,0.7,3.7,2.1c0.1,0.1,0.1,0.2,0.1,0.4c0.3,0.3,0.4,0.5,0.4,0.8V37z"/>
	<path fill="#3DADA8" d="M451.2,42.6L451.2,42.6c0,0,0,0,0,0.2c0,0.2-0.1,0.5-0.1,0.8c0,0.4,0,0.8,0,1.4v1.6l-0.5,1.1l-0.3-0.1
		c-0.1,0.1-0.2,0.1-0.3,0.2c-0.1,0-0.2-0.1-0.3-0.2c-0.1,0-0.2,0.1-0.3,0.2c-0.1-0.1-0.5-0.2-1.3-0.4c-0.4-0.6-0.7-1.6-1-3.1
		c-0.1-0.3-0.1-0.6-0.1-1c0-0.1,0-0.3,0-0.4l0.1-2.7l0.4-1.8c0.3-0.3,0.5-0.5,0.5-0.8l0.8-0.2c0.1,0,0.3,0.1,0.5,0.2
		c0.3,0.4,0.8,0.9,1.4,1.5c0.3,0.6,0.5,1.1,0.5,1.6L451.2,42.6z M452,31.2c-0.1,0.1-0.1,0.2-0.2,0.3c0.1,0.3,0.2,0.5,0.2,0.7
		c-0.1,0.2-0.4,0.3-0.8,0.6c0-0.1-0.1-0.1-0.3-0.1c-0.2,0-0.3,0-0.3,0.1c-0.4-0.2-0.9-0.4-1.5-0.5c-0.4-0.9-0.6-1.4-0.6-1.6
		c0,0,0,0,0,0l0.2-1.7c0.1,0,0.3-0.2,0.5-0.4h1c0.3,0.2,0.7,0.5,1,1.1c0.3,0.1,0.5,0.3,0.6,0.6C451.8,30.8,452,31.1,452,31.2z"/>
	<path fill="#3DADA8" d="M470.5,43.2c0,0.2,0,0.3,0,0.5c0,0.2,0,0.4,0,0.7c-0.2,0.3-0.5,0.6-1,0.9c-0.7,0.4-1.2,0.6-1.2,0.7
		c0,0.2-0.1,0.3-0.4,0.5c-0.6,0.3-1.6,0.6-3,0.9c-0.6,0.3-1.1,0.5-1.5,0.5c-0.2,0-0.3,0-0.4,0c-0.2,0.2-0.6,0.3-1,0.3
		c-0.2,0-0.6,0.1-1,0.1l-1.8-0.2c0,0-0.1,0-0.2,0c-0.1,0-0.2,0-0.2,0l-1.1-0.3c-0.2,0-0.3,0-0.3,0c-0.2,0-0.6-0.1-1.1-0.3
		c-0.5-0.2-0.9-0.4-1-0.4c-1.1-1.2-1.6-2.3-1.6-3.3c0-0.5,0.2-1.2,0.5-2.1c0.3-0.9,0.6-1.4,0.8-1.6c1.6-1.7,4.2-3.3,7.8-4.9
		c0.2-0.1,0.6-0.3,1.2-0.6c0.1,0,0.6-0.2,1.6-0.5c0.8-0.3,1.5-0.4,2-0.4c0,0,0.1,0,0.3,0c0.2,0,0.4,0,0.4,0c0.1,0,0.3,0,0.4-0.1
		l0.7,2c-0.2,0.3-0.4,0.7-0.7,1l0,0.2v0c-0.1,0.1-1.5,0.7-4.3,2c-0.1,0.1-0.3,0.3-0.6,0.6c-0.8,0.3-1.7,0.6-2.8,1
		c-0.9,0.4-1.6,1-2,1.9c0,0,0,0.1,0,0.2c0.6,0.4,1.5,0.6,2.6,0.6l7-0.8l1.9,0.5L470.5,43.2z"/>
	<path fill="#3DADA8" d="M490.9,40.7c0,0.8-0.2,1.4-0.7,2c0,0.1-0.1,0.3-0.2,0.6c-0.4,0.5-0.9,1.1-1.6,2c-1.1,0.7-2.2,1.4-3.1,2
		c-2.3,0.8-4.1,1.2-5.3,1.2h-1c-0.1,0-0.2,0-0.4-0.1c0,0,0,0,0,0c-0.3,0-1.1-0.2-2.4-0.6c-0.6-0.3-1.4-0.9-2.4-1.8
		c-0.1-0.3-0.4-0.7-0.7-1.3c-0.3-1.2-0.5-2.1-0.5-2.8l0.1-1.4v-2.2c0-0.1,0.1-0.4,0.3-1c0.2-0.6,0.3-1,0.4-1.3
		c0.2-0.5,1-1.2,2.3-2.1c0.2-0.1,0.6-0.2,1.1-0.3c0.1-0.1,0.3-0.2,0.5-0.3c0,0,0.1,0.1,0.2,0.1l0.9-0.3c0.6-0.2,1.1-0.3,1.5-0.3h2.9
		c0.3,0,0.7,0.1,1.1,0.2c0,0,0,0,0.1,0c0.7,0,2.1,0.7,4.2,2v0.3c0.3,0.3,0.8,0.7,1.4,1c0.2,0.2,0.6,1.1,1.3,2.5
		C490.8,39.4,490.9,40,490.9,40.7z M487.4,39.7v-0.4c-0.8-1.3-1.6-2-2.2-2c0,0-0.1,0-0.1,0c0,0-0.1,0-0.1,0h-0.2
		c-0.2-0.3-0.6-0.5-1.4-0.5c-0.1,0-0.2,0-0.3,0l-1.7,0.1l-3.7,0.7l-0.2,0.3v0.5c0,0.1,0,0.3,0.1,0.5c0,0.1-0.1,0.2-0.3,0.3
		c0.1,0.2,0.1,0.3,0.2,0.4c-0.2,0.2-0.3,0.3-0.5,0.3c0,0-0.2,0.3-0.4,0.8c-0.3,0.5-0.4,0.8-0.4,1c0,0,0,0.1,0.1,0.3
		c0.3,0.4,0.8,0.7,1.5,1c0.7,0.3,1.3,0.4,1.9,0.4c1.2-0.2,1.9-0.3,2.1-0.3l2.5-1c1.2-0.5,2-0.9,2.4-1.3
		C487.2,40.4,487.4,40,487.4,39.7z"/>
	<path fill="#3DADA8" d="M499,24.6l-2.7,24c-0.3,0-0.7,0.1-1.1,0.2c-0.1,0-0.2-0.1-0.3-0.2l-0.2,0c-0.1,0-0.3,0-0.4,0
		c0,0-0.3-0.3-0.8-0.6c-0.1,0-0.2,0.1-0.4,0.3c-0.1-0.2-0.2-0.4-0.3-0.7c-0.2-1.4-0.3-2.2-0.3-2.5l1.3-10.9c0.4-3,0.8-6.8,1.2-11.4
		c0.1-0.3,0.2-0.9,0.5-1.8c0.2-0.7,0.4-1.2,0.8-1.5l0.7,0.1c0.3,0.3,0.6,0.5,0.8,0.5c0.1,0.1,0.3,0.5,0.7,1c0.3,1,0.5,1.6,0.5,1.8
		V24.6z"/>
	<path fill="#3DADA8" d="M517.4,44.6c-0.1,0.2-0.3,0.5-0.5,0.9c-0.1,0-0.2,0-0.3-0.1c-0.1,0-0.3,0.1-0.5,0.3
		c0.2,0.1,0.5,0.2,0.9,0.4c-0.1,0-0.4,0.3-0.8,0.6c-0.4,0.2-1.1,0.3-1.9,0.5c-0.3,0.2-0.4,0.4-0.5,0.7l-3.9,0.5
		c-2.8-0.2-5-0.8-6.6-1.9c-1.2-1.2-1.9-2.6-2.2-4.2c-0.1-0.2-0.2-0.4-0.2-0.5c0-1,0.4-2.2,1.3-3.6c0.9-1.5,2-2.5,3.1-3
		c0.1,0,0.2,0,0.5,0c0.5-0.4,1.3-0.8,2.6-1.1c1.1-0.3,2-0.4,2.8-0.4c0.7,0,1.5,0.2,2.3,0.7c0,0,0,0.2,0,0.4c0.2,0,0.4,0.1,0.7,0.2
		c0,0.1,0.1,0.2,0.2,0.3c0,0.4,0.1,0.9,0.4,1.5v0.7c0,0.1-0.1,0.2-0.2,0.3c0.1,0.1,0.1,0.2,0.1,0.3c0,0.2-0.1,0.5-0.3,0.8
		c0,0.1,0,0.3-0.1,0.6c-0.2,0.3-0.5,0.8-0.9,1.4l-3.3,2.4c0.3,0.2,1.2,0.3,2.7,0.3l3.8,0.1C516.7,43.9,517,44.2,517.4,44.6z
		 M510.2,37.8L510.2,37.8c0,0,0-0.1-0.1-0.2c-0.8,0.3-1.3,0.5-1.6,0.7c-0.7,0.4-1.3,0.8-1.5,1.3c0.1,0,0.1,0,0.2,0.1
		C508.6,39.1,509.6,38.5,510.2,37.8z"/>
	<path fill="#3DADA8" d="M557.8,39.8c0,0,0,0.2-0.1,0.4c-0.1,0.2-0.2,0.4-0.2,0.6c0,0.5-0.3,1.2-0.9,1.9c-0.6,0.7-1.2,1.2-1.8,1.5
		c-0.5,0.2-0.8,0.3-0.9,0.5l-3.3,1.6l-3.1,1l-0.1-0.1l-5.3,1.3c-0.1-0.1-0.2-0.1-0.3-0.1c-0.1,0-0.2,0-0.3,0.1l-1.5-0.6l-0.4,3.1V52
		l-0.5,4.6l0.1,3.2l-0.2,2.7c0,0-0.1,0.1-0.3,0.3c-0.1,0.2-0.3,0.2-0.4,0.2c-0.1,0-0.2-0.1-0.3-0.3c0,0,0,0.1-0.1,0.1l-0.2,0.2
		c0,0,0,0,0,0c-0.2,0-0.3-0.1-0.5-0.3c-0.8-0.4-1.3-1-1.6-2.1c-0.2-1.5-0.3-2.3-0.3-2.4V55l0.5-6.1c0.1-0.8,0.6-4.1,1.7-9.8
		c0.3-0.8,0.7-1.2,1.2-1.2l0.6,0.1c0.4,0.2,0.7,0.6,0.9,1c0.3,0.6,0.5,1,0.5,1.1c0,0,0,0.2,0,0.7l-0.3,3.1c0,0.2,0,0.4,0.1,0.7
		c1.2-0.5,2.7-1.1,4.4-1.8c1.8-0.3,3.7-0.9,5.7-2c0.1,0,0.2-0.1,0.4-0.1c0.4-0.3,0.7-0.5,1-0.5c0.4-0.3,0.9-0.8,1.7-1.6
		c-0.2-0.5-0.6-0.9-1.2-1.2c-1-0.6-1.5-0.9-1.6-0.9l-0.3,0.1l-0.6-0.3l-0.2,0c-0.1,0-0.2,0-0.2,0l-1.8-0.4l-3.7,0.1
		c-0.1,0-0.3,0-0.5,0.1c-0.4,0.1-0.7,0.1-0.7,0.1c-1.8,0.2-3.2,0.6-4.3,1.2c-0.3,0-0.8,0.3-1.6,0.7c-1,0.5-1.5,1-1.5,1.5
		c0,0.2,0.1,0.4,0.3,0.7c-0.1,0.1-0.1,0.1-0.3,0.1c-0.1,0.1-0.1,0.2-0.1,0.3c0,0,0,0.1,0,0.1c0,0-0.1,0-0.2,0c-0.1,0-0.1,0-0.2,0
		l-0.2,0.5c-0.1,0-0.2-0.1-0.4-0.2c0,0-0.1,0.1-0.2,0.2h-0.4c-0.1-0.1-0.2-0.2-0.3-0.4l-0.2,0.2c-0.2-0.3-0.5-0.6-0.7-0.7
		c0-0.3-0.1-0.6-0.1-0.8l-0.1-0.3v-1.4l0.3-0.4c0,0,0-0.1,0-0.1c0-0.4,0.2-0.8,0.7-1.2c0.4-0.3,0.8-0.6,1.2-0.9
		c0.1-0.2,0.2-0.3,0.3-0.5c0.2,0.1,0.3,0.1,0.4,0.1l5.1-2.4l3.2-0.9c0.4,0.1,0.8,0.2,1.2,0.2c0,0,0.1,0,0.3-0.1
		c0.2-0.1,0.3-0.1,0.3-0.1h1.6c0,0,0.1-0.1,0.2-0.1c0.6,0.1,1.1,0.2,1.5,0.3c0.5,0,0.9,0,1.2,0.1c0.6,0.1,1.1,0.2,1.5,0.5
		c0,0,0.1,0,0.2,0s0.2,0,0.2,0c1.2,0,2.5,0.8,3.8,2.4c0.3,0.4,0.7,0.9,1.2,1.6C557.5,37.9,557.8,39.1,557.8,39.8z"/>
	<path fill="#3DADA8" d="M574.9,38.2c-0.1,0.6-0.4,1.7-0.7,3.3c-0.2,0.7-0.6,1.6-1.3,2.8c-0.7,1-1.3,1.7-1.6,2.1
		c-0.7,0.8-1.5,1.2-2.2,1.4c-0.3,0.1-0.7,0.3-1.3,0.5c-0.9,0.2-1.5,0.3-1.7,0.3c-2.3,0-4.3-1.8-6-5.3c-0.2-0.9-0.3-1.7-0.3-2.3
		c0-0.4,0.1-1,0.3-1.8c0.6-0.5,1-0.7,1.2-0.7h0c1.3,0.6,1.9,1.5,1.9,2.8c0,0.5,0.3,1.2,1,2c0.7,0.3,1.1,0.5,1.1,0.5h0.5
		c0.1,0,0.6-0.2,1.3-0.4c1-0.7,1.7-1.2,2.1-1.5c0.8-0.7,1.2-1.4,1.3-2.1c0.1-0.4,0.5-1.4,1-3c0.3-1.1,0.7-1.8,1-2.2c0,0,0.1,0,0.2,0
		c0.1,0,0.2,0,0.3,0h0.5c0.1,0.1,0.2,0.3,0.4,0.4c0.2,0.4,0.5,0.9,0.9,1.5c0,0.1,0,0.3,0,0.4c0,0.2,0,0.3,0,0.5c0,0.1,0,0.2,0,0.3
		C574.8,37.9,574.8,38,574.9,38.2z"/>
	<path fill="#3DADA8" d="M598.8,38.6c0,0.2-0.3,1-1,2.4c-0.3,0.2-0.5,0.5-0.6,0.8c-1.2,1.1-2.7,2.1-4.4,3c-0.3,0.2-1.8,0.8-4.4,2
		c-0.4,0.1-0.9,0.2-1.7,0.4c-0.8,0.2-1.2,0.3-1.2,0.3s-0.1,0-0.3,0c-0.2,0-0.3,0-0.3,0c-0.3-0.3-0.6-0.5-0.9-0.5c-0.1,0-0.1,0-0.2,0
		c-0.1-0.1-0.2-0.3-0.4-0.6c-0.1,0.3-0.3,0.6-0.5,0.9c-0.2,0.1-0.3,0.1-0.5,0.1c-0.1,0-0.1,0-0.2,0l-0.3,0.3h-0.2
		c-0.1,0-0.3-0.1-0.9-0.4c-0.3,0.1-0.4,0.1-0.5,0.1c-0.5-0.4-0.8-0.8-0.8-1.1c-0.2-0.3-0.4-0.8-0.5-1.3c-0.2-0.3-0.3-0.6-0.3-0.9
		c0-0.2-0.1-0.5-0.1-0.9c-0.1-0.4-0.1-0.7-0.2-0.7v0.1v-1.6c-0.1-0.5-0.1-0.9-0.1-1.1c0-0.1,0-0.1,0-0.1c0-0.1,0-0.3,0-0.4
		c0-0.2,0-0.4,0.1-0.6c-0.1-0.2-0.4-0.4-1-0.6c-0.4-0.4-0.6-0.9-0.6-1.5c0-0.4,0.2-0.8,0.5-1.3c0.3-0.5,0.6-0.8,0.9-1l0.1-7.7
		c0-0.5,0.1-1.6,0.2-3.2c0.1-0.9,0.3-1.7,0.7-2.4c0.1-0.1,0.2-0.2,0.4-0.3c0.4-0.2,0.6-0.3,0.8-0.3c0,0,0.1,0,0.3,0.1
		c0.2,0.1,0.3,0.1,0.3,0.1c0.1,0.3,0.4,0.7,0.8,1.2c0.1,0.4,0.3,0.9,0.5,1.5c0,0.1,0,0.1,0,0.2c0,0.2,0,0.4,0,0.7
		c0,0.3,0.1,0.7,0.1,1.1l0.3,7.4c0,0.1,0.1,0.1,0.2,0.2c0.1,0,0.4-0.1,1.1-0.1l3.2-0.3l3.1,0.1c0.1,0,0.5,0,1.2,0.1
		c0.8,0.2,1.6,0.3,2.2,0.5c0.1,0.1,0.3,0.2,0.6,0.3c0.8,0.2,1.7,0.7,2.6,1.6c0.8,0.8,1.3,1.5,1.6,2.3
		C598.5,38.1,598.7,38.6,598.8,38.6C598.8,38.6,598.8,38.6,598.8,38.6z M593.7,38.6v-0.2c-0.2-0.3-0.6-0.6-1-0.9
		c-1.1-0.4-2.4-0.7-3.8-0.8c-0.2-0.1-0.4-0.1-0.4-0.1h0l-3.1,0.1c-0.5,0-1.5,0.3-2.9,0.8V38c0,0,0,0.1,0.1,0.2
		c0.1,0.1,0.1,0.2,0.1,0.2v1.6l0.6,4.1c0,0,0.1-0.1,0.2-0.1c0-0.1,0.1-0.2,0.2-0.3c0.8-0.5,2.1-1.1,4-1.7c1.8-0.7,2.9-1.2,3.3-1.5
		C591.3,40.5,592.2,39.8,593.7,38.6z"/>
	<path fill="#3DADA8" d="M606.7,24.6l-2.7,24c-0.3,0-0.7,0.1-1.1,0.2c-0.1,0-0.2-0.1-0.3-0.2l-0.2,0c-0.1,0-0.3,0-0.4,0
		c0,0-0.3-0.3-0.8-0.6c-0.1,0-0.2,0.1-0.4,0.3c-0.1-0.2-0.2-0.4-0.3-0.7c-0.2-1.4-0.3-2.2-0.3-2.5l1.3-10.9c0.4-3,0.8-6.8,1.2-11.4
		c0.1-0.3,0.2-0.9,0.5-1.8c0.2-0.7,0.4-1.2,0.8-1.5l0.7,0.1c0.3,0.3,0.6,0.5,0.8,0.5c0.1,0.1,0.3,0.5,0.7,1c0.3,1,0.5,1.6,0.5,1.8
		V24.6z"/>
	<path fill="#3DADA8" d="M613.5,42.6L613.5,42.6c0,0,0,0,0,0.2c0,0.2-0.1,0.5-0.1,0.8c0,0.4,0,0.8,0,1.4v1.6l-0.5,1.1l-0.3-0.1
		c-0.1,0.1-0.2,0.1-0.3,0.2c-0.1,0-0.2-0.1-0.3-0.2c-0.1,0-0.2,0.1-0.3,0.2c-0.1-0.1-0.5-0.2-1.3-0.4c-0.4-0.6-0.7-1.6-1-3.1
		c-0.1-0.3-0.1-0.6-0.1-1c0-0.1,0-0.3,0-0.4l0.1-2.7l0.4-1.8c0.3-0.3,0.5-0.5,0.5-0.8l0.8-0.2c0.1,0,0.3,0.1,0.5,0.2
		c0.3,0.4,0.8,0.9,1.4,1.5c0.3,0.6,0.5,1.1,0.5,1.6L613.5,42.6z M614.3,31.2c-0.1,0.1-0.1,0.2-0.2,0.3c0.1,0.3,0.2,0.5,0.2,0.7
		c-0.1,0.2-0.4,0.3-0.8,0.6c0-0.1-0.1-0.1-0.3-0.1c-0.2,0-0.3,0-0.3,0.1c-0.4-0.2-0.9-0.4-1.5-0.5c-0.4-0.9-0.6-1.4-0.6-1.6
		c0,0,0,0,0,0l0.2-1.7c0.1,0,0.3-0.2,0.5-0.4h1c0.3,0.2,0.7,0.5,1,1.1c0.3,0.1,0.5,0.3,0.6,0.6C614.2,30.8,614.3,31.1,614.3,31.2z"
		/>
	<path fill="#3DADA8" d="M632.9,43.2c0,0.2,0,0.3,0,0.5c0,0.2,0,0.4,0,0.7c-0.2,0.3-0.5,0.6-1,0.9c-0.7,0.4-1.2,0.6-1.2,0.7
		c0,0.2-0.1,0.3-0.4,0.5c-0.6,0.3-1.6,0.6-3,0.9c-0.6,0.3-1.1,0.5-1.5,0.5c-0.2,0-0.3,0-0.4,0c-0.2,0.2-0.5,0.3-1,0.3
		c-0.2,0-0.6,0.1-1,0.1l-1.8-0.2c0,0-0.1,0-0.2,0s-0.2,0-0.2,0l-1.1-0.3c-0.2,0-0.3,0-0.3,0c-0.2,0-0.6-0.1-1.1-0.3
		c-0.5-0.2-0.9-0.4-1-0.4c-1.1-1.2-1.6-2.3-1.6-3.3c0-0.5,0.2-1.2,0.5-2.1c0.3-0.9,0.6-1.4,0.8-1.6c1.6-1.7,4.2-3.3,7.8-4.9
		c0.2-0.1,0.6-0.3,1.2-0.6c0.1,0,0.6-0.2,1.6-0.5c0.8-0.3,1.5-0.4,2-0.4c0,0,0.1,0,0.3,0c0.2,0,0.4,0,0.4,0c0.1,0,0.3,0,0.4-0.1
		l0.7,2c-0.2,0.3-0.4,0.7-0.7,1l0,0.2v0c-0.1,0.1-1.5,0.7-4.3,2c-0.1,0.1-0.3,0.3-0.6,0.6c-0.8,0.3-1.7,0.6-2.8,1
		c-0.9,0.4-1.6,1-2,1.9c0,0,0,0.1,0,0.2c0.6,0.4,1.5,0.6,2.6,0.6l7-0.8l1.9,0.5L632.9,43.2z"/>
	<path fill="#3DADA8" d="M688.1,22.4c-0.1,0.2-0.1,0.5-0.2,1c0,0.5-0.1,0.8-0.1,0.9c0.1,0.2,0.2,0.3,0.2,0.5c0,0-0.1,0-0.2,0
		c-0.1,0-0.1,0-0.2,0c-0.1,0.3-0.3,0.7-0.7,1.2c0.1,0.2,0.1,0.2,0.1,0.2c-0.1,0.1-0.2,0.2-0.4,0.3l-2.1-0.2l-3,0.2c0,0,0,0,0,0
		c-0.1,0-0.1-0.1-0.2-0.2c0,0,0,0,0,0c-0.1,0-0.2,0.1-0.4,0.2c-0.1,0-0.2,0-0.5,0s-0.4,0-0.5,0c-0.4,0-0.7,0-0.9,0.1
		c0-0.1-0.1-0.2-0.2-0.3c0,0.1-0.2,0.1-0.4,0.1l-1.6,0.5c-0.1,0-0.3,0-0.6,0l-0.4,0c-0.1,0-0.2-0.1-0.3-0.2l-0.1,0.2
		c0,0-0.2,0-0.6,0.1c-0.3,0.1-0.5,0.1-0.5,0.1c0,0-0.2,0-0.6-0.1c-0.4-0.1-0.6-0.1-0.6-0.1l-1.9,0.2c-0.1,0.2-0.2,0.3-0.2,0.3
		c-0.1-0.1-0.2-0.1-0.3-0.3c-0.2,0.1-0.3,0.1-0.4,0.1c-0.1,0-0.2,0-0.3-0.1c-0.2,0.1-0.2,0.2-0.2,0.3h-0.9c0,0.1-0.1,0.1-0.1,0.2
		l-2.2,0.5c-0.4,1-0.8,3-1.4,6.1c0,0.2,0,0.3,0,0.5c0,0.1,0,0.2,0,0.3c-0.8,4.8-1.2,8.4-1.3,10.8c-0.1,0.1-0.2,0.1-0.4,0.1
		c-0.1,0.3-0.1,0.5-0.1,0.7c-0.4,0.2-0.6,0.4-0.8,0.6h0.1c-0.1-0.1-0.6-0.2-1.5-0.3c-0.2-0.4-0.2-0.6-0.3-0.6c0,0-0.1,0-0.3,0
		c-0.2-0.3-0.4-0.7-0.7-1.3l0.1-4l1.4-8.7c0.2-0.9,0.5-2,0.7-3V29c-0.1-0.1-0.1-0.2-0.2-0.3c-0.5,0.1-0.7,0.2-0.7,0.2h0
		c0,0-0.1,0-0.2-0.1c-0.1-0.1-0.1-0.1-0.1-0.1c0,0-0.3,0.1-0.7,0.2c-0.4,0.1-0.7,0.2-0.7,0.2c0,0-0.1,0-0.3,0c-0.2,0-0.3,0-0.3,0
		l-2,0.4c-0.2-0.1-0.4-0.1-0.4-0.1l-2.7,0.6l-2.7,0.3l-1.5,0c-0.4-0.3-0.7-0.5-1.1-0.6c-0.1-0.1-0.1-0.2-0.1-0.3
		c-0.1-0.1-0.2-0.2-0.3-0.2c0,0,0-0.1,0-0.1c0-0.2-0.1-0.4-0.3-0.7v-0.4l0.7-2.3c0.2-0.1,0.6-0.3,1-0.6c1.4-0.3,4.2-0.7,8.3-1.3
		l24.1-3h5.1c0,0.1,0.2,0.3,0.5,0.7c0.3,0.4,0.4,0.6,0.4,0.7c0,0.1,0,0.1,0,0.1C687.8,22.3,687.9,22.3,688.1,22.4z"/>
	<path fill="#3DADA8" d="M690.9,37c-0.1,0-0.2,0.1-0.4,0.2c0,0.1,0,0.2,0,0.2l0.3,0.3c-0.5,0.1-0.9,0.3-1.4,0.5l-2.8-0.6
		c-0.5,0-1.2,0.1-2,0.3c-1,0.3-1.9,0.6-2.7,0.8c-1.6,0.6-3,1.2-4.3,1.8c-1.7,0.8-2.8,2-3.2,3.6c0,0.1,0,0.5,0.2,1.2v0.5
		c-0.1,0.2-0.2,0.3-0.2,0.5c0,0.1,0,0.1,0,0.2c0,0.1,0.1,0.2,0.2,0.3l-1.5,1h-0.3c-0.2-0.1-0.5-0.3-0.8-0.6l-0.4,0.1
		c-0.1-0.2-0.3-0.5-0.5-0.8c-0.1-0.3-0.2-0.5-0.3-0.7l-0.2-1v-1.3c0,0,0-0.1,0-0.2c0-0.1,0-0.2,0-0.2v-1.4c0-0.4,0.2-1.1,0.5-2.1
		c0.4-1.3,0.8-1.9,1.2-1.9h0.5l0.5,0.5h0.2c0.3,0,1.2-0.5,2.8-1.5c1.1-0.5,2.8-1.2,5-2.2c0.1,0,0.6-0.2,1.5-0.6
		c0.2,0,0.7-0.1,1.4-0.3l1.1-0.2h1.5c1.1,0,2.3,0.7,3.7,2.1c0.1,0.1,0.1,0.2,0.1,0.4c0.3,0.3,0.4,0.5,0.4,0.8V37z"/>
	<path fill="#3DADA8" d="M710.4,44.8c-0.3,0.3-0.6,0.8-1.1,1.4l-0.5-0.1c0,0.1-0.1,0.2-0.2,0.4c-0.1-0.1-0.3-0.2-0.6-0.4
		c0,0,0,0-0.1,0c-0.3,0-0.9-0.3-1.7-1c-0.2-0.4-0.6-1.1-1.4-2.1l-4,3c0,0,0,0.1,0.1,0.1c0,0.1,0.1,0.1,0.1,0.1
		c-0.1,0.2-0.5,0.4-1.3,0.8c-2.2,0.7-3.3,1-3.3,1c-1.6,0-2.8-0.6-3.7-1.8c-0.4-1.2-0.7-2-0.7-2.6c0-0.4,0.4-1.4,1.2-3.3
		c0.7-0.8,1.2-1.2,1.5-1.2c0.1-0.1,0.9-0.6,2.2-1.6c0.6-0.3,1.7-0.7,3.1-1.3c1.4-0.3,2.2-0.5,2.2-0.6h0c0.1,0,0.4,0,0.8,0.1
		c0.3,0,0.6,0,0.8,0c0.1,0,0.2,0,0.2,0c0.6,0.3,0.9,0.6,0.9,0.9c0,0,0,0.1,0,0.1c0.1,0.1,0.4,0.5,0.8,1.3c0.1,0,0.2,0,0.3,0
		c0.4,0,0.9,0.2,1.3,0.6c0.7,1.1,1.3,2,1.8,2.9C709.7,42.9,710.2,43.9,710.4,44.8z M703,40.2h-0.8c-0.3,0-0.9,0.2-1.9,0.6l-1.7,0.7
		c-0.6,0.4-1.3,0.9-2.1,1.6l-0.1,0.2l0.9,0.1c2.1-0.5,3.7-1.4,4.9-2.6C702.4,40.7,702.6,40.5,703,40.2z"/>
	<path fill="#3DADA8" d="M729.1,43.2c0,0.2,0,0.3,0,0.5c0,0.2,0,0.4,0,0.7c-0.2,0.3-0.5,0.6-1,0.9c-0.7,0.4-1.2,0.6-1.2,0.7
		c0,0.2-0.1,0.3-0.4,0.5c-0.6,0.3-1.6,0.6-3,0.9c-0.6,0.3-1.1,0.5-1.5,0.5c-0.2,0-0.3,0-0.4,0c-0.2,0.2-0.5,0.3-1,0.3
		c-0.2,0-0.6,0.1-1,0.1l-1.8-0.2c0,0-0.1,0-0.2,0c-0.1,0-0.2,0-0.2,0l-1.1-0.3c-0.2,0-0.3,0-0.3,0c-0.2,0-0.6-0.1-1.1-0.3
		c-0.5-0.2-0.9-0.4-1-0.4c-1.1-1.2-1.6-2.3-1.6-3.3c0-0.5,0.2-1.2,0.5-2.1c0.3-0.9,0.6-1.4,0.8-1.6c1.6-1.7,4.2-3.3,7.8-4.9
		c0.2-0.1,0.6-0.3,1.2-0.6c0.1,0,0.6-0.2,1.6-0.5c0.8-0.3,1.5-0.4,2-0.4c0,0,0.1,0,0.3,0c0.2,0,0.4,0,0.4,0c0.1,0,0.3,0,0.4-0.1
		l0.7,2c-0.2,0.3-0.4,0.7-0.7,1l0,0.2v0c-0.1,0.1-1.5,0.7-4.3,2c-0.1,0.1-0.3,0.3-0.6,0.6c-0.8,0.3-1.7,0.6-2.8,1
		c-0.9,0.4-1.6,1-2,1.9c0,0,0,0.1,0,0.2c0.6,0.4,1.5,0.6,2.6,0.6l7-0.8l1.9,0.5L729.1,43.2z"/>
	<path fill="#3DADA8" d="M745.3,40.5c0,1.2-0.6,3.8-1.7,7.6c-0.2,0.6-1,2.9-2.5,7c0,0.1,0.1,0.1,0.2,0.1H741l-1.4,3.4l-1.6,5
		c-0.1,0.1-0.4,0.3-0.8,0.8c-0.1,0-0.2,0-0.5,0.1l-0.4,0.1c0,0-0.2,0-0.4-0.1c-0.3-0.3-0.8-0.9-1.5-1.6c-0.2-0.8-0.4-1.6-0.4-2.3
		l0.4-2.2l1.5-4.3l2.8-6.8c0-0.1-0.1-0.2-0.1-0.3c-1.1,0.3-1.9,0.5-2.3,0.5c-1.7,0-3-1.1-4-3.2c-0.8-1.7-1.2-3.5-1.2-5.4
		c0-0.5,0.1-1,0.3-1.6c0.2-0.2,0.5-0.5,0.9-0.9h0.2c0.5,0,1,0.4,1.5,1.2c0.2,0.3,0.4,0.7,0.5,1.3c0.5,2.4,0.9,3.6,1.3,3.6
		c0.8,0,2-0.6,3.4-1.8c1.2-1,2.2-2,3-3c0.2,0,0.4-0.1,0.6-0.3c0.2,0.1,0.5,0.1,0.8,0.1c0.2,0.2,0.4,0.5,0.8,0.9
		c0.1,0,0.2,0.1,0.3,0.1C745.1,39,745.3,39.7,745.3,40.5z"/>
	<path fill="#3DADA8" d="M787.4,22.6c-0.1,0.3-0.3,0.9-0.4,1.6c-0.2,0.3-0.4,0.8-0.8,1.5c-0.5,0.6-0.8,1.3-1,1.9
		c-0.1,0.1-0.4,0.6-1.1,1.6c-0.7,1.4-1.3,2.5-2,3.3l-2.6,5.3l-2.3,3.8c-0.1,0.1-0.1,0.3-0.1,0.5c-0.8,1.4-1.8,3.1-3,5.2
		c-0.1,0.3-0.3,0.4-0.4,0.5l0.1,0.3c-0.2,0.2-0.3,0.2-0.5,0.2c-0.2,0.3-0.3,0.5-0.4,0.7c-0.1,0-0.2,0-0.6,0c-0.3,0-0.5,0.1-0.5,0.1
		l-0.1-0.1l-1.3-0.4c-1.2-1.5-2.2-3.3-3-5.6c-0.3-0.9-0.9-2.7-1.7-5.3c0-0.1-0.1-0.3-0.1-0.7c-0.1-0.1-0.1-0.2-0.2-0.3
		c0-0.1-0.2-1-0.7-2.5c-0.4-1.4-1-4-1.7-7.6l0.6-2.7c0.3-0.1,0.5-0.3,0.8-0.5h0.3c0.2,0,0.6,0.4,1.3,1.2c0.6,0.9,1,2,1.4,3.3
		l1.1,3.9l3.5,10c0.6-0.6,1.3-1.7,2.2-3.1c0.9-1.5,1.8-3,2.7-4.5c0.2-0.4,0.8-1.2,1.6-2.6c0.1-0.2,0.1-0.3,0.1-0.4
		c0.1-0.2,0.3-0.4,0.6-0.8c1-1.6,2.5-4.4,4.6-8.6c0.3-0.4,0.7-1,1.4-1.9c0.1,0,0.2-0.1,0.4-0.3c0,0,0.1,0,0.1,0c0.1,0,0.3,0,0.4-0.1
		c0,0.1,0,0.3,0.1,0.5c0.2,0.1,0.5,0.2,0.8,0.2L787,21c0.1,0,0.2,0.1,0.4,0.2c0,0.1,0,0.3,0,0.5C787.4,22,787.4,22.3,787.4,22.6z"/>
	<path fill="#3DADA8" d="M794.8,42.6L794.8,42.6c0,0,0,0,0,0.2c0,0.2-0.1,0.5-0.1,0.8c0,0.4,0,0.8,0,1.4v1.6l-0.5,1.1l-0.3-0.1
		c-0.1,0.1-0.2,0.1-0.3,0.2c-0.1,0-0.2-0.1-0.3-0.2c-0.1,0-0.2,0.1-0.3,0.2c-0.1-0.1-0.5-0.2-1.3-0.4c-0.4-0.6-0.7-1.6-1-3.1
		c0-0.3-0.1-0.6-0.1-1c0-0.1,0-0.3,0-0.4l0.1-2.7l0.4-1.8c0.3-0.3,0.5-0.5,0.5-0.8l0.8-0.2c0.1,0,0.3,0.1,0.5,0.2
		c0.3,0.4,0.8,0.9,1.4,1.5c0.3,0.6,0.5,1.1,0.5,1.6L794.8,42.6z M795.7,31.2c-0.1,0.1-0.1,0.2-0.2,0.3c0.1,0.3,0.2,0.5,0.2,0.7
		c-0.1,0.2-0.4,0.3-0.8,0.6c0-0.1-0.1-0.1-0.3-0.1c-0.2,0-0.3,0-0.3,0.1c-0.4-0.2-0.9-0.4-1.5-0.5c-0.4-0.9-0.6-1.4-0.6-1.6
		c0,0,0,0,0,0l0.2-1.7c0.1,0,0.3-0.2,0.5-0.4h1c0.3,0.2,0.7,0.5,1,1.1c0.3,0.1,0.5,0.3,0.6,0.6C795.5,30.8,795.6,31.1,795.7,31.2z"
		/>
	<path fill="#3DADA8" d="M817.7,37c-0.1,0-0.2,0.1-0.4,0.2c0,0.1,0,0.2,0,0.2l0.3,0.3c-0.5,0.1-0.9,0.3-1.4,0.5l-2.8-0.6
		c-0.5,0-1.2,0.1-2,0.3c-1,0.3-1.9,0.6-2.7,0.8c-1.6,0.6-3,1.2-4.3,1.8c-1.7,0.8-2.8,2-3.2,3.6c0,0.1,0,0.5,0.2,1.2v0.5
		c-0.1,0.2-0.2,0.3-0.2,0.5c0,0.1,0,0.1,0,0.2c0,0.1,0.1,0.2,0.2,0.3l-1.5,1h-0.3c-0.2-0.1-0.5-0.3-0.8-0.6l-0.4,0.1
		c-0.1-0.2-0.3-0.5-0.5-0.8c-0.1-0.3-0.2-0.5-0.3-0.7l-0.2-1v-1.3c0,0,0-0.1,0-0.2c0-0.1,0-0.2,0-0.2v-1.4c0-0.4,0.2-1.1,0.5-2.1
		c0.4-1.3,0.8-1.9,1.2-1.9h0.5l0.5,0.5h0.2c0.3,0,1.2-0.5,2.8-1.5c1.1-0.5,2.8-1.2,5-2.2c0.1,0,0.6-0.2,1.5-0.6
		c0.2,0,0.7-0.1,1.4-0.3l1.1-0.2h1.5c1.1,0,2.3,0.7,3.7,2.1c0.1,0.1,0.1,0.2,0.1,0.4c0.3,0.3,0.4,0.5,0.4,0.8V37z"/>
	<path fill="#3DADA8" d="M835.7,44.6c-0.1,0.2-0.3,0.5-0.5,0.9c-0.1,0-0.2,0-0.3-0.1c-0.1,0-0.3,0.1-0.5,0.3
		c0.2,0.1,0.5,0.2,0.9,0.4c-0.1,0-0.4,0.3-0.8,0.6c-0.4,0.2-1.1,0.3-1.9,0.5c-0.3,0.2-0.4,0.4-0.5,0.7l-3.9,0.5
		c-2.8-0.2-5-0.8-6.6-1.9c-1.2-1.2-1.9-2.6-2.2-4.2c-0.1-0.2-0.2-0.4-0.2-0.5c0-1,0.4-2.2,1.3-3.6c0.9-1.5,2-2.5,3.1-3
		c0.1,0,0.2,0,0.5,0c0.5-0.4,1.3-0.8,2.6-1.1c1.1-0.3,2-0.4,2.8-0.4c0.7,0,1.5,0.2,2.3,0.7c0,0,0,0.2,0,0.4c0.2,0,0.4,0.1,0.7,0.2
		c0,0.1,0.1,0.2,0.2,0.3c0,0.4,0.1,0.9,0.4,1.5v0.7c0,0.1-0.1,0.2-0.2,0.3c0.1,0.1,0.1,0.2,0.1,0.3c0,0.2-0.1,0.5-0.3,0.8
		c0,0.1,0,0.3-0.1,0.6c-0.2,0.3-0.5,0.8-0.9,1.4l-3.3,2.4c0.3,0.2,1.2,0.3,2.7,0.3l3.8,0.1C835,43.9,835.3,44.2,835.7,44.6z
		 M828.5,37.8L828.5,37.8c0,0,0-0.1-0.1-0.2c-0.8,0.3-1.3,0.5-1.6,0.7c-0.7,0.4-1.3,0.8-1.5,1.3c0.1,0,0.1,0,0.2,0.1
		C827,39.1,827.9,38.5,828.5,37.8z"/>
</g>
</svg>
