<?xml version="1.0" encoding="utf-8"?>
<!-- Generator: Adobe Illustrator 27.4.1, SVG Export Plug-In . SVG Version: 6.00 Build 0)  -->
<svg version="1.1"
	 id="Calque_1" xmlns:rdf="http://www.w3.org/1999/02/22-rdf-syntax-ns#" xmlns:cc="http://creativecommons.org/ns#" xmlns:dc="http://purl.org/dc/elements/1.1/" xmlns:svg="http://www.w3.org/2000/svg" xmlns:sodipodi="http://sodipodi.sourceforge.net/DTD/sodipodi-0.dtd" xmlns:inkscape="http://www.inkscape.org/namespaces/inkscape"
	 xmlns="http://www.w3.org/2000/svg" xmlns:xlink="http://www.w3.org/1999/xlink" x="0px" y="0px" viewBox="0 0 1000 1000"
	 enable-background="new 0 0 1000 1000" xml:space="preserve">
<sodipodi:namedview  bordercolor="#666666" borderopacity="1" gridtolerance="10" guidetolerance="10" id="namedview241" inkscape:current-layer="Calque_1" inkscape:cx="170.77841" inkscape:cy="595.41914" inkscape:pageopacity="0" inkscape:pageshadow="2" inkscape:window-height="480" inkscape:window-maximized="0" inkscape:window-width="868" inkscape:window-x="0" inkscape:window-y="0" inkscape:zoom="0.1345" objecttolerance="10" pagecolor="#ffffff" showgrid="false">
	</sodipodi:namedview>
<g id="fond_categorie">
	<path id="path4" fill="#028283" d="M899.9,792.4l-212.8-20l-215.9,20l-238.1-20c-1.4,0-2.6-1.2-2.6-2.8V194.8
		c0-1.5,1.2-2.8,2.6-2.8l233.6,20l213.4-20l219.7,23c1.4,0,2.6,1.2,2.6,2.8v571.8C902.5,791.1,901.3,792.4,899.9,792.4z"/>
</g>
<path id="path7" fill="none" stroke="#000000" stroke-width="5" stroke-miterlimit="10" d="M153.8,719"/>
<g id="g26">
	<g id="texte_picto_categorie">
		<path id="path9" fill="#FC6541" d="M447.5,102.6c2.8-0.5,6.8-0.9,12.3-0.9c5.6,0,9.7,1.1,12.4,3.3c2.6,2,4.3,5.4,4.3,9.4
			s-1.3,7.3-3.7,9.6c-3.1,2.9-7.8,4.3-13.1,4.3c-1.2,0-2.3-0.1-3.1-0.2v14.5h-9.1L447.5,102.6L447.5,102.6z M456.6,121
			c0.8,0.2,1.7,0.2,3,0.2c4.9,0,7.9-2.5,7.9-6.6c0-3.7-2.5-5.9-7.2-5.9c-1.8,0-3.1,0.1-3.7,0.3L456.6,121L456.6,121z"/>
		<path id="path11" fill="#FC6541" d="M498.8,142.5l-0.5-2.9h-0.2c-1.9,2.3-4.9,3.6-8.4,3.6c-6,0-9.5-4.3-9.5-9
			c0-7.7,6.8-11.3,17.2-11.3v-0.4c0-1.6-0.8-3.8-5.4-3.8c-3,0-6.1,1-8.1,2.2l-1.7-5.8c2-1.2,6-2.6,11.4-2.6
			c9.8,0,12.9,5.8,12.9,12.7v10.2c0,2.8,0.1,5.5,0.5,7.1H498.8z M497.7,128.7c-4.8,0-8.5,1.1-8.5,4.6c0,2.4,1.5,3.5,3.6,3.5
			c2.2,0,4.1-1.5,4.7-3.4c0.1-0.5,0.2-1,0.2-1.6L497.7,128.7L497.7,128.7z"/>
		<path id="path13" fill="#FC6541" d="M513.8,122.9c0-4.3-0.1-7.2-0.2-9.7h7.8l0.3,5.4h0.2c1.5-4.3,5.1-6.1,7.9-6.1
			c0.8,0,1.3,0,2,0.2v8.6c-0.7-0.1-1.4-0.3-2.5-0.3c-3.4,0-5.6,1.8-6.3,4.6c-0.1,0.6-0.2,1.3-0.2,2v14.9h-9.1L513.8,122.9
			L513.8,122.9z"/>
		<path id="path15" fill="#FC6541" d="M558.6,141.8c-1.6,0.8-4.7,1.4-8.2,1.4c-9.5,0-15.5-5.8-15.5-15c0-8.6,5.9-15.6,16.8-15.6
			c2.4,0,5.1,0.4,7,1.2l-1.4,6.8c-1.1-0.5-2.7-0.9-5.1-0.9c-4.8,0-7.9,3.4-7.9,8.2c0,5.4,3.6,8.3,8,8.3c2.2,0,3.9-0.4,5.3-1
			L558.6,141.8z"/>
		<path id="path17" fill="#FC6541" d="M592.6,127.6c0,10.7-7.6,15.6-15.5,15.6c-8.5,0-15.2-5.6-15.2-15.1s6.3-15.6,15.7-15.6
			C586.6,112.5,592.6,118.7,592.6,127.6z M571.4,127.9c0,5,2.1,8.8,6,8.8c3.6,0,5.8-3.6,5.8-8.9c0-4.3-1.7-8.8-5.8-8.8
			C573,119,571.4,123.5,571.4,127.9z"/>
		<path id="path19" fill="#FC6541" d="M625.9,133.1c0,3.8,0.1,7,0.2,9.4h-7.9l-0.4-4.1h-0.2c-1.1,1.8-3.9,4.8-9.2,4.8
			c-6,0-10.3-3.7-10.3-12.8v-17.3h9.1V129c0,4.3,1.4,6.9,4.6,6.9c2.5,0,4-1.7,4.5-3.2c0.2-0.5,0.3-1.2,0.3-1.9v-17.5h9.1v19.8H625.9
			z"/>
		<path id="path21" fill="#FC6541" d="M633.2,122.9c0-4.3-0.1-7.2-0.2-9.7h7.8l0.3,5.4h0.2c1.5-4.3,5.1-6.1,7.9-6.1
			c0.8,0,1.3,0,2,0.2v8.6c-0.7-0.1-1.4-0.3-2.5-0.3c-3.4,0-5.6,1.8-6.3,4.6c-0.1,0.6-0.2,1.3-0.2,2v14.9h-9.1L633.2,122.9
			L633.2,122.9z"/>
		<path id="path23" fill="#FC6541" d="M656,134.6c1.7,1,5.2,2.2,7.8,2.2c2.8,0,3.9-0.9,3.9-2.4s-0.9-2.3-4.3-3.4
			c-6.1-2-8.4-5.3-8.4-8.8c0-5.5,4.7-9.7,11.9-9.7c3.4,0,6.5,0.8,8.3,1.7l-1.6,6.3c-1.3-0.7-3.9-1.7-6.4-1.7c-2.2,0-3.5,0.9-3.5,2.4
			c0,1.4,1.2,2.1,4.8,3.4c5.6,1.9,7.9,4.8,7.9,9c0,5.5-4.3,9.5-12.7,9.5c-3.8,0-7.3-0.9-9.5-2.1L656,134.6z"/>
	</g>
</g>
<g id="g51">
	<g id="texte_posture">
		<path id="path28" fill="#FC6541" d="M420.8,905.8h9.1v25.6c0,11.5-5.5,15.5-14.4,15.5c-2.1,0-4.9-0.3-6.7-1l1-7.4
			c1.2,0.4,2.9,0.7,4.7,0.7c3.8,0,6.3-1.7,6.3-8V905.8z"/>
		<path id="path30" fill="#FC6541" d="M447.9,905.2c-1.9,5.9-4.5,11.7-7.2,16.2l-5.5,0.5c1.8-5.1,3.4-10.9,4.2-16.2L447.9,905.2z"/>
		<path id="path32" fill="#FC6541" d="M469.6,946.3l-0.5-2.9h-0.2c-1.9,2.3-4.9,3.6-8.4,3.6c-6,0-9.5-4.3-9.5-9
			c0-7.7,6.8-11.3,17.2-11.3v-0.4c0-1.6-0.8-3.8-5.4-3.8c-3,0-6.1,1-8.1,2.2l-1.7-5.8c2-1.2,6-2.6,11.4-2.6
			c9.8,0,12.9,5.8,12.9,12.7v10.2c0,2.8,0.1,5.5,0.5,7.1H469.6z M468.5,932.4c-4.8,0-8.5,1.1-8.5,4.6c0,2.4,1.5,3.5,3.6,3.5
			c2.2,0,4.1-1.5,4.7-3.4c0.1-0.5,0.2-1,0.2-1.6L468.5,932.4L468.5,932.4z"/>
		<path id="path34" fill="#FC6541" d="M494,908.7c0,2.5-1.9,4.6-4.9,4.6c-2.9,0-4.8-2-4.8-4.6s1.9-4.6,4.8-4.6
			C492.1,904.2,493.9,906.1,494,908.7z M484.6,946.3v-29.4h9.1v29.4H484.6z"/>
		<path id="path36" fill="#FC6541" d="M523.3,908.5v8.4h6.6v6.7h-6.6v10.6c0,3.5,0.9,5.2,3.6,5.2c1.2,0,2.1-0.1,2.7-0.3l0.1,6.9
			c-1.2,0.4-3.4,0.8-5.9,0.8c-3,0-5.4-1-6.9-2.5c-1.7-1.7-2.5-4.5-2.5-8.7v-12h-3.9v-6.7h3.9v-6.3L523.3,908.5z"/>
		<path id="path38" fill="#FC6541" d="M542.2,934.5c0.3,3.8,4,5.6,8.3,5.6c3.1,0,5.6-0.4,8.1-1.2l1.2,6.2c-3,1.2-6.7,1.9-10.6,1.9
			c-9.9,0-15.7-5.8-15.7-14.9c0-7.5,4.7-15.7,14.8-15.7c9.5,0,13.1,7.4,13.1,14.7c0,1.6-0.2,2.9-0.3,3.6h-18.9L542.2,934.5
			L542.2,934.5z M552.9,928.3c0-2.2-1-6-5.1-6c-3.9,0-5.4,3.5-5.7,6H552.9z"/>
		<path id="path40" fill="#FC6541" d="M566.8,926.6c0-4.3-0.1-7.2-0.2-9.7h7.8l0.3,5.4h0.2c1.5-4.3,5.1-6.1,7.9-6.1
			c0.8,0,1.3,0,2,0.2v8.6c-0.7-0.1-1.4-0.3-2.5-0.3c-3.4,0-5.6,1.8-6.3,4.6c-0.1,0.6-0.2,1.3-0.2,2v14.9h-9.1L566.8,926.6
			L566.8,926.6z"/>
		<path id="path42" fill="#FC6541" d="M589.6,926.3c0-3.7-0.1-6.7-0.2-9.4h7.7l0.4,4h0.2c1.2-1.9,3.9-4.6,8.9-4.6c3.8,0,6.8,1.9,8,5
			h0.1c1.1-1.6,2.4-2.8,3.8-3.6c1.6-1,3.4-1.5,5.6-1.5c5.6,0,9.9,4,9.9,12.7v17.3h-8.9v-15.9c0-4.3-1.4-6.7-4.3-6.7
			c-2.1,0-3.6,1.4-4.2,3.2c-0.2,0.7-0.3,1.6-0.3,2.3v17.2h-8.9v-16.5c0-3.7-1.3-6.2-4.2-6.2c-2.3,0-3.7,1.8-4.3,3.3
			c-0.3,0.7-0.3,1.5-0.3,2.3v17.1h-8.9L589.6,926.3L589.6,926.3z"/>
		<path id="path44" fill="#FC6541" d="M650.6,908.7c0,2.5-1.9,4.6-4.9,4.6c-2.9,0-4.8-2-4.8-4.6s1.9-4.6,4.8-4.6
			C648.7,904.2,650.6,906.1,650.6,908.7z M641.2,946.3v-29.4h9.1v29.4H641.2z"/>
		<path id="path46" fill="#FC6541" d="M657.7,926.3c0-3.7-0.1-6.7-0.2-9.4h7.9l0.4,4.1h0.2c1.2-1.9,4.2-4.7,9.1-4.7
			c6,0,10.5,4,10.5,12.6v17.4h-9.1V930c0-3.8-1.4-6.4-4.6-6.4c-2.5,0-4,1.8-4.6,3.4c-0.2,0.6-0.3,1.4-0.3,2.3v16.9h-9.1v-19.9H657.7
			z"/>
		<path id="path48" fill="#FC6541" d="M699.9,934.5c0.3,3.8,4,5.6,8.3,5.6c3.1,0,5.6-0.4,8.1-1.2l1.2,6.2c-3,1.2-6.7,1.9-10.6,1.9
			c-9.9,0-15.7-5.8-15.7-14.9c0-7.5,4.7-15.7,14.8-15.7c9.5,0,13.1,7.4,13.1,14.7c0,1.6-0.2,2.9-0.3,3.6h-18.9L699.9,934.5
			L699.9,934.5z M710.6,928.3c0-2.2-1-6-5.1-6c-3.9,0-5.4,3.5-5.7,6H710.6z M715.6,904.1l-7.3,9.1H702l5.2-9.1H715.6z"/>
	</g>
</g>
<g id="g93">
	<g id="texte_titre_badge">
		<path id="path68" fill="#FFFFFF" d="M380.7,651.8h-9.4v-8.3h29v8.3h-9.6v28.7h-9.9v-28.7H380.7z"/>
		<path id="path70" fill="#FFFFFF" d="M414.8,643.5v37.1h-9.9v-37.1H414.8z"/>
		<path id="path72" fill="#FFFFFF" d="M428.9,651.8h-9.4v-8.3h29v8.3h-9.6v28.7H429v-28.7H428.9z"/>
		<path id="path74" fill="#FFFFFF" d="M453,644c2.8-0.4,7-0.8,12-0.8c5.7,0,9.7,0.8,12.5,2.9c2.4,1.8,3.7,4.5,3.7,8.1
			c0,4.6-3.5,7.9-6.3,9v0.2c2.5,1.1,3.8,3.4,4.7,6.6c1.1,3.8,2.3,9.2,3.1,10.6h-10.1c-0.6-1.1-1.5-4-2.6-8.5c-1-4.4-2.4-5.4-5.4-5.4
			H463v13.9h-10V644z M462.8,659.5h2.6c3.7,0,5.9-1.8,5.9-4.6s-1.8-4.4-5.1-4.4c-1.9,0-2.9,0.1-3.4,0.2V659.5z"/>
		<path id="path76" fill="#FFFFFF" d="M510.2,665.6h-13.3v6.8h14.9v8.1H487v-37.1h24v8.1h-14.1v6h13.3L510.2,665.6L510.2,665.6z"/>
		<path id="path78" fill="#FFFFFF" d="M528.2,644c3.1-0.5,7.4-0.8,11.8-0.8c7.1,0,11.6,1.2,15.2,3.7c4.1,2.8,6.7,7.4,6.7,14.2
			c0,7.5-2.9,12.5-6.5,15.3c-4.1,3.2-10.1,4.6-17.4,4.6c-4.8,0-8-0.3-9.9-0.6V644H528.2z M538.1,673.1c0.5,0.1,1.4,0.1,2.1,0.1
			c6.4,0.1,11.2-3.5,11.2-11.8c0-7.2-4.3-10.7-10.3-10.7c-1.6,0-2.5,0.1-3,0.2V673.1z"/>
		<path id="path80" fill="#FFFFFF" d="M577.1,643.5v21c0,5.6,1.9,8.8,5.9,8.8c3.9,0,5.9-2.9,5.9-8.8v-21h9.9v20.4
			c0,11.4-5.7,17.2-16.1,17.2c-10.1,0-15.5-5.6-15.5-17.5v-20.2L577.1,643.5L577.1,643.5z"/>
		<path id="path82" fill="#FFFFFF" d="M616.4,644c2.2-0.4,7.1-0.8,11.7-0.8c5.2,0,8.4,0.4,11.3,1.8c2.9,1.3,5,4,5,7.6
			c0,3.1-1.7,6.2-6,7.8v0.1c4.5,1.2,7.3,4.6,7.3,9c0,3.5-1.7,6.2-4.2,8.1c-2.8,2.1-7.4,3.3-15.3,3.3c-4.5,0-7.8-0.3-9.8-0.6V644z
			 M626.2,657.8h2c4.2,0,6.2-1.5,6.2-3.9c0-2.2-1.6-3.5-5-3.5c-1.7,0-2.6,0.1-3.2,0.2V657.8z M626.2,673.6c0.7,0.1,1.6,0.1,2.9,0.1
			c3.3,0,6.1-1.3,6.1-4.6c0-3.1-2.9-4.3-6.6-4.3h-2.4V673.6z"/>
		<path id="path84" fill="#FFFFFF" d="M660.8,672l-2.1,8.6h-10.3l10.7-37.1h13.2l11,37.1h-10.7l-2.4-8.6H660.8z M669,664.6l-1.7-6.7
			c-0.6-2.1-1.3-5.1-1.8-7.3h-0.1c-0.5,2.2-1.1,5.2-1.6,7.3l-1.6,6.6h6.8L669,664.6L669,664.6z"/>
		<path id="path86" fill="#FFFFFF" d="M688.2,644c3.1-0.5,7.4-0.8,11.8-0.8c7.1,0,11.6,1.2,15.2,3.7c4.1,2.8,6.7,7.4,6.7,14.2
			c0,7.5-2.9,12.5-6.5,15.3c-4.1,3.2-10.1,4.6-17.4,4.6c-4.8,0-8-0.3-9.9-0.6V644H688.2z M698.1,673.1c0.5,0.1,1.4,0.1,2.1,0.1
			c6.4,0.1,11.2-3.5,11.2-11.8c0-7.2-4.3-10.7-10.3-10.7c-1.6,0-2.5,0.1-3,0.2V673.1z"/>
		<path id="path88" fill="#FFFFFF" d="M759.4,678.8c-2.8,0.9-8,2.1-12.8,2.1c-7.3,0-12.3-1.8-15.6-5c-3.5-3.3-5.3-8.1-5.3-13.4
			c0.1-12.9,9.6-19.4,21.6-19.4c5,0,8.8,0.9,10.7,1.8l-2,7.9c-2.1-0.9-4.6-1.6-8.8-1.6c-6.1,0-11.2,3.2-11.2,10.7
			c0,6.9,4.5,10.9,10.6,10.9c1.4,0,2.6-0.1,3.1-0.3v-6.4h-5v-7.7h14.5v20.4H759.4z"/>
		<path id="path90" fill="#FFFFFF" d="M788.8,665.6h-13.3v6.8h14.9v8.1h-24.8v-37.1h24v8.1h-14.1v6h13.3L788.8,665.6L788.8,665.6z"
			/>
	</g>
</g>
<g id="g142" opacity="0.5">
	<path id="path95" fill="none" stroke="#000000" stroke-width="5" stroke-miterlimit="10" d="M134.8,635.9"/>
	<g id="g109">
		<path id="path97" d="M114.9,647.1l6.2-9.7l4.9,3.1l-6.2,9.7L114.9,647.1z"/>
		<path id="path99" d="M97.3,639.3l3.7-10.9l5.5,1.9l-3.7,10.9L97.3,639.3z"/>
		<path id="path101" d="M78.1,625.4h5.8V637h-5.8V625.4z"/>
		<path id="path103" d="M55.5,630.2l5.5-1.9l3.7,10.9l-5.5,1.9L55.5,630.2z"/>
		<path id="path105" d="M36,640.5l4.9-3.1l6.2,9.7l-4.9,3.1L36,640.5z"/>
		<path id="path107" d="M128.7,673.4l1.5-1.9l-1.6-1.8c-0.2-0.2-5.3-6.1-13.7-12c-11.2-7.9-22.9-12.1-34-12.1
			c-11,0-22.8,4.2-33.9,12.1c-8.4,5.9-13.5,11.8-13.7,12l-1.6,1.9l1.6,1.9c0.2,0.2,5.3,6.1,13.7,12c11.2,7.9,22.9,12.1,33.9,12.1
			c5.5,0,11.2-1,16.9-3c0.4,0.7,0.9,1.3,1.4,1.9l14.3,14.3l12.2-12.2l-12-12C123.1,680.2,128.4,673.7,128.7,673.4L128.7,673.4z
			 M91.2,676c-5.6,5.6-14.8,5.6-20.4,0c-2.7-2.7-4.2-6.3-4.2-10.2s1.5-7.5,4.2-10.2c2.8-2.8,6.5-4.2,10.2-4.2s7.4,1.4,10.2,4.2
			c2.7,2.7,4.2,6.3,4.2,10.2C95.4,669.6,93.9,673.3,91.2,676z M50.5,680.8c-5.1-3.6-8.9-7.2-11-9.3c2.1-2.1,5.9-5.7,11-9.3
			c3.6-2.5,8.2-5.3,13.5-7.4c-2.1,3.2-3.2,7-3.2,10.9c0,5.4,2.1,10.5,5.9,14.3c3.9,3.9,9.1,5.9,14.3,5.9c4.3,0,8.5-1.3,12.1-4
			l4.6,4.6c-0.3,0.7-0.6,1.4-0.7,2.2c-5.4,2-10.8,3.1-16,3.1C68.6,691.8,57.6,685.8,50.5,680.8L50.5,680.8z M113.6,702.5l-10.2-10.2
			c-1.1-1.1-1.1-3,0-4.1s3-1.1,4.1,0l10.2,10.2L113.6,702.5z M109.3,682.5c-2.4-1.2-5.2-1.2-7.6,0l-4.6-4.6c2.6-3.5,4-7.7,4-12.1
			c0-3.9-1.1-7.7-3.2-10.9c5.3,2.1,9.9,4.9,13.5,7.4c5.1,3.6,9,7.2,11,9.3C120.2,674,115.6,678.4,109.3,682.5z"/>
	</g>
	<g id="g136">
		<g id="g115">
			<g id="g113">
				<path id="path111" stroke="#000B13" stroke-width="2" stroke-miterlimit="10" d="M91.2,680.2l4.1-4.1l8.2,8.1l-4.1,4.1
					L91.2,680.2z"/>
			</g>
		</g>
		<g id="Vision_1_">
			<g id="g121">
				<g id="g119">
					<path id="path117" fill="#028283" stroke="#000B13" stroke-width="3" stroke-miterlimit="10" d="M113.7,710.7l-14.3-14.2
						c-2.8-2.7-3.8-8.4,0-12.2c3.1-3.1,8-3.4,11.4-0.7c12.4,12.3,15.7,15.5,15.1,14.9L113.7,710.7z"/>
				</g>
			</g>
		</g>
		<g id="g132">
			<g id="g130">
				<g id="g128">
					<g id="g126">
						<path id="path124" fill="#000B13" stroke="#000B13" stroke-width="2" stroke-miterlimit="10" d="M66.7,680.2
							c-7.9-7.9-7.9-20.6,0-28.5c7.6-7.6,21-7.6,28.6,0c7.9,7.9,7.9,20.6,0,28.5C87.4,688.1,74.6,688,66.7,680.2L66.7,680.2z"/>
					</g>
				</g>
			</g>
		</g>
		<path id="path134" fill="#000B13" stroke="#000B13" stroke-width="2" stroke-miterlimit="10" d="M81,646v40.1
			c5.2,0,10.4-2,14.3-5.9c7.9-7.9,7.9-20.6,0-28.5C91.4,647.9,86.2,646,81,646L81,646z"/>
	</g>
	
		<ellipse id="ellipse138" fill="#FFFCFF" stroke="#FFFCFF" stroke-width="5" stroke-miterlimit="10" cx="81.2" cy="666" rx="11.8" ry="11.6"/>
	
		<ellipse id="ellipse140" fill="none" stroke="#FC6541" stroke-width="4" stroke-miterlimit="10" cx="81.2" cy="666" rx="5.9" ry="5.8"/>
</g>
<g id="g214" opacity="0.5">
	<g id="g146">
		<path id="path144" fill="#FC6541" d="M97.2,307.8l20.6,19.9l4,3.9l1.5,1.4c0.5,0.5,1.2,0.4,1.7,0l4.1-4.2l3.7-3.9
			c1.6-1.7,1.6-4.4-0.1-6.1l-3.6-3.5l-20-19.2c-1.7-1.6-4.4-1.6-6.1,0.1l-7.8,8.1c-0.5,0.5-0.4,1.2,0,1.7L97.2,307.8z"/>
	</g>
	<g id="g150">
		<path id="path148" opacity="0.65" fill-rule="evenodd" clip-rule="evenodd" fill="#FFBC85" enable-background="new    " d="
			M68.5,309.1l-22.2,21.3c0.7,5.9,1.8,11.4,5.4,14.5l30.1,24.4l3.6,2.8c5.5,4.2,10.7-1.7,6.5-6c-0.1-0.1-0.1-0.1-0.2-0.2
			c1.4,1.2,3,1.5,4.4,1.3c3-0.5,5.1-3.7,2.3-6.7c5.5,4.4,10.1-2.6,5.9-6.4c4.8,1.5,10-4.7,5-9.9l-0.1-0.1l-12.4-18.5l-16.7-10.7
			L68.5,309.1z"/>
	</g>
	<g id="g154">
		<path id="path152" fill-rule="evenodd" clip-rule="evenodd" fill="#FFE5C1" d="M81.4,369.8c4.6-4.9-2.1-10.6-5.9-7.3l-4,3.8
			l-0.1,0.1c-3.4,3.4,2.7,11,7.8,5.7L81.4,369.8z"/>
	</g>
	<g id="g158">
		<path id="path156" fill-rule="evenodd" clip-rule="evenodd" fill="#FFE5C1" d="M68.6,355.7l-4.2,4.4l0,0c-2.1,2.2-0.6,5.7,1.9,7
			c1.6,0.8,3.5,0.9,5.2-0.7l4.5-0.1l-0.4-3.9l0.6-0.5c4.5-4.3-2-11.7-7.1-6.8L68.6,355.7z"/>
	</g>
	<g id="g162">
		<path id="path160" fill-rule="evenodd" clip-rule="evenodd" fill="#FFE5C1" d="M61,349.6l-4,4.2l-0.6,0.6
			c-3.9,4.1,3.1,10.7,7.1,6.4l0.7-0.7c0.1-0.1,4.3-0.5,4.8-0.6l-0.1-4.4l1.4-1.4c4.7-4.9-2.6-11.3-7.1-6.6L61,349.6z"/>
	</g>
	<g id="g166">
		<path id="path164" fill-rule="evenodd" clip-rule="evenodd" fill="#FFE5C1" d="M51.8,344.9l-1.3,1.5c-4.1,4.5,2,11.6,6.6,7.5
			l3.8-0.6l0.2-3.6c3.7-4.2-2.8-11.8-7.9-6.2L51.8,344.9z"/>
	</g>
	<g id="g170">
		<path id="path168" fill="#028283" d="M57.4,296.5L39,314.2l-5.2,5c-1.7,1.6-1.8,4.4-0.1,6.1l7.8,8.1c0.5,0.5,1.2,0.5,1.7,0l3.1-3
			l22.2-21.3l2.8-2.7c0.5-0.5,0.5-1.2,0-1.7l-7.8-8.1C61.9,294.9,59.1,294.8,57.4,296.5L57.4,296.5z"/>
	</g>
	<g id="g174">
		<path id="path172" opacity="0.8" fill-rule="evenodd" clip-rule="evenodd" fill="#F5A96C" enable-background="new    " d="
			M92.4,327.2l-5.6,1.3l2.2,2.2l16.9,16.8l0.1,0.1c2,2.2,2.4,4.5,1.7,6.3c3.3-1.3,5.5-5.8,1.7-9.8l-0.1-0.1l-5.1-5L92.4,327.2z"/>
	</g>
	<g id="g178" opacity="0.8">
		<path id="path176" fill-rule="evenodd" clip-rule="evenodd" fill="#F5A96C" d="M68.5,309.1l-3.6,3.4L76,318l4.1-3.2L68.5,309.1z"
			/>
	</g>
	<g id="g182">
		<path id="path180" fill-rule="evenodd" clip-rule="evenodd" fill="#FFE5C1" d="M80.1,314.8L76,318l-3.8,3
			c-9.7,7.5-1.7,14.9,4.1,12.4l6.5-3.9l4-0.9l5.6-1.3l11.8,11.8l5.1,5c3.2-1.2,7.7-4.6,12.6-12.5l-24.7-23.7l-4.4,3.5
			c-0.7,0.6-0.5,0.5-1.4,0.4c-3.3-0.1-7.6,0.2-10,2.1L80.1,314.8z"/>
	</g>
	<g id="g186">
		<path id="path184" fill-rule="evenodd" clip-rule="evenodd" fill="#FED1A3" d="M80.1,326.8l-6.5,3.9c-1.8,0.8-3.7,0.6-5.4-0.2
			c1.4,2.7,5,4.1,8,2.8l6.5-3.9l4-0.9l5.5-1.3c-2.6-2.2-3-2.5-8.2-1.3L80.1,326.8z"/>
	</g>
	<g id="g190">
		<path id="path188" fill-rule="evenodd" clip-rule="evenodd" fill="#FED1A3" d="M117.8,327.6c-4.3,7-8.4,10.5-11.5,12
			c-0.3,0.2-0.7,0.3-1,0.4l3.9,3.9c3.2-1.2,7.7-4.6,12.6-12.5L117.8,327.6z"/>
	</g>
	<g id="g194">
		<path id="path192" fill-rule="evenodd" clip-rule="evenodd" fill="#FED1A3" d="M49.1,349.8c0,3.8,4.5,7.2,8,4.1l2.5-2.6l1.5-1.6
			c1.5-1.7,1.3-4.1,0.2-5.8c0,1-0.3,2-1.1,2.9l-2.6,2.8l-1.3,1.4C53.6,353.2,50.6,352,49.1,349.8L49.1,349.8z"/>
	</g>
	<g id="g198">
		<path id="path196" fill-rule="evenodd" clip-rule="evenodd" fill="#FED1A3" d="M55.6,358.4c0.9,3.1,5.2,5.5,8.1,2.5l0.7-0.7l0,0
			l4.2-4.4c0.2-0.2,0.3-0.3,0.4-0.5l1.4-1.4c2.5-2.6,1.6-5.7-0.6-7.3c0.4,1.4,0.1,3.1-1.3,4.5l-1.4,1.4c-0.2,0.1-0.3,0.3-0.4,0.5
			l0,0l-4.2,4.4l0,0l-0.7,0.7C59.9,360.1,57.3,359.7,55.6,358.4L55.6,358.4z"/>
	</g>
	<g id="g202">
		<path id="path200" fill-rule="evenodd" clip-rule="evenodd" fill="#FED1A3" d="M71.5,366.4l3.1-2.9l0.9-0.9l0.6-0.5
			c2.4-2.3,1.7-5.5-0.3-7.2c0.4,1.5,0.1,3.2-1.3,4.6l-0.6,0.5l-1.6,1.5l-2.4,2.3l-0.1,0.1c-1.7,1.6-3.7,1.5-5.2,0.7
			c-0.4-0.2-0.7-0.5-1.1-0.8c0.4,1.4,1.4,2.6,2.7,3.3c1.6,0.8,3.5,0.9,5.2-0.7H71.5z"/>
	</g>
	<g id="g206">
		<path id="path204" fill-rule="evenodd" clip-rule="evenodd" fill="#FED1A3" d="M81.4,369.8c2.3-2.5,1.8-5.1,0.2-6.7
			c0,1.1-0.5,2.3-1.6,3.4l-2.2,2.3c-2.7,2.9-5.7,2-7.4,0.1c0,3.5,4.7,7.5,8.7,3.3L81.4,369.8z"/>
	</g>
	<g id="g210">
		<path id="path208" d="M92,367.6c-0.4,0-0.8-0.1-1-0.4l-3.1-2.9c-0.6-0.6-0.7-1.6-0.1-2.2s1.6-0.7,2.2-0.1l3.1,2.9
			c0.6,0.6,0.7,1.6,0.1,2.2C92.8,367.5,92.4,367.6,92,367.6z"/>
	</g>
	<path id="path212" d="M133.7,317.6l-23.6-22.7c-1.1-1.1-2.6-1.6-4.2-1.6s-3,0.7-4.1,1.8l-7.8,8.1c-1,1.1-1,2.8,0.1,3.9l0.6,0.6
		l-3.2,2.6c-0.1,0-0.2,0-0.3,0c-5-0.2-8.7,0.7-11,2.5l-0.4,0.3l-8.8-4.3l1.2-1.1c0.5-0.5,0.8-1.2,0.8-1.9c0-0.7-0.3-1.4-0.8-2
		l-7.8-8.1c-1.1-1.1-2.5-1.8-4.1-1.8s-3,0.5-4.2,1.6l-23.6,22.7c-2.3,2.2-2.4,5.9-0.2,8.2l7.8,8.1c0.5,0.6,1.2,0.8,2,0.8
		c0.7,0,1.4-0.3,1.9-0.8l0.9-0.9c0.7,4.2,1.8,8.4,4.4,11.3l-0.3,0.4c-2.8,3-1.9,7.1,0.3,9.4c1.2,1.3,2.7,1.9,4.2,2
		c-0.2,1.9,0.7,3.9,2.1,5.2c1.3,1.2,2.9,1.9,4.6,1.9c0.4,0,0.8,0,1.3-0.1c0.2,1.4,1,2.7,1.9,3.7c1.2,1.2,2.8,2,4.6,2
		c0.2,0,0.4,0,0.5,0c0,0.3,0.1,0.7,0.2,1c0.6,2.4,2.6,4.5,4.9,5.1c0.4,0.1,0.9,0.2,1.5,0.2c1.4,0,3.1-0.5,4.9-2.3l1.7-1.8l2.5,1.9
		c1.6,1.3,3.3,1.8,4.7,1.8c1.8,0,3.4-0.8,4.4-2c1-1.1,1.5-2.7,1.3-4.4c1.9,0.1,3.7-0.6,4.9-1.9c0.9-0.9,1.4-2.2,1.4-3.5
		c2,0.2,3.7-0.6,4.8-1.9c1.2-1.5,1.8-3.7,1.1-5.8c1.8-0.4,3.5-1.6,4.6-3.3c1.2-2,1.7-4.9-0.2-7.8c2.8-1.5,6.4-4.6,10.4-10.6l0.1,0.1
		c0.5,0.5,1.2,0.8,1.9,0.8c0.7,0,1.4-0.3,2-0.8l7.8-8.1C136.1,323.5,136,319.8,133.7,317.6L133.7,317.6z M51.6,347.4l2.7-2.9
		c1.1-1.2,2.3-1.7,3.5-1.4c1.2,0.3,2.3,1.4,2.7,2.7c0.2,0.6,0.4,1.9-0.6,2.9l0,0l-3.8,4c-1.6,1.4-3.2,0.8-4.2-0.2
		C50.6,351.2,50,349.1,51.6,347.4L51.6,347.4z M58.1,359.6c-0.2-0.2-2.2-2.2-0.5-4.1l0,0l6.8-7.2c0.8-0.9,1.7-1.2,2.4-1.2
		c0.3,0,0.5,0,0.7,0.1c1.2,0.3,2.3,1.3,2.6,2.4c0.3,1.1,0,2.2-1,3.1l-1.4,1.5c-0.1,0.1-0.1,0.1-0.2,0.2l-5.1,5.3
		C60.9,361.4,59,360.4,58.1,359.6L58.1,359.6z M66,365.1c-0.9-0.9-1.7-2.7-0.5-3.9l0,0l4.2-4.4c0,0,0,0,0.1-0.1l0,0l0.3-0.3
		c1-1,2.2-1.4,3.3-1.2c1.2,0.3,2.3,1.3,2.7,2.6c0.2,0.8,0.2,2-0.9,3.1l-0.5,0.5l0,0l-0.1,0.1l-3.9,3.7l0,0l-0.1,0.1
		C68.3,367.2,66.4,365.5,66,365.1L66,365.1z M78.1,371.1c-1.1,1.1-2.2,1.6-3.3,1.3c-1.2-0.3-2.4-1.5-2.7-2.8c-0.1-0.6-0.2-1.4,0.4-2
		l0.1-0.1l4-3.8c1.2-1,2.9-0.5,3.9,0.5c0.5,0.5,1.9,2.3-0.2,4.6L78.1,371.1z M109.3,350.7c-0.8,1.3-2.4,2.3-4.1,1.9l-5.9-5.5
		c-0.6-0.6-1.6-0.5-2.2,0.1s-0.5,1.6,0.1,2.2l6.2,5.7l0,0l0,0c1.5,1.4,1.4,3.2,0.5,4.2c-1,1.2-2.6,1.2-4.3-0.2l-6.1-5.7
		c-0.6-0.6-1.6-0.5-2.2,0.1s-0.5,1.6,0.1,2.2l6.1,5.7c1.1,1.2,1.2,2.3,0.3,3.2c-1,1.1-3.1,1.4-4.9-0.1c-0.6-0.5-1.6-0.5-2.1,0.1
		c-0.6,0.6-0.5,1.6,0.1,2.1c1.7,1.6,1.4,3.2,0.6,4.1c-0.9,1.1-2.8,1.4-4.9-0.2l-2.5-1.9c1.3-2.6,0.5-5.2-1.2-6.9
		c-1-1-2.3-1.7-3.7-1.9c0.2-1,0.2-2,0-3.1c-0.6-2.4-2.6-4.3-4.9-4.8c-0.3-0.1-0.6-0.1-0.9-0.1c0.3-1.1,0.3-2.2,0-3.4
		c-0.7-2.2-2.6-4-4.8-4.5c-1.7-0.4-3.4-0.1-4.9,0.9c0-0.1,0-0.1-0.1-0.2c-0.7-2.4-2.7-4.3-5-4.8s-4.6,0.3-6.4,2.3l-0.2,0.3
		c-2.2-2.6-3.1-6.6-3.8-11.7l6.5-6.3c0.6-0.6,0.6-1.6,0-2.2s-1.6-0.6-2.2,0l-7,6.7c-0.1,0-0.1,0.1-0.2,0.1l-2.8,2.7l-7.5-7.9
		c-1-1.1-1-2.8,0.1-3.9l23.6-22.7c0.5-0.5,1.2-0.8,2-0.8c0.7,0,1.4,0.3,1.9,0.8l7.5,7.9l-12.7,12.3c-0.6,0.6-0.6,1.6,0,2.2
		s1.6,0.6,2.2,0l9.5-9.1l8.4,4.2l-6,4.6c-7.1,5.5-5,10.5-4.2,11.9c1.4,2.4,4,3.8,6.7,3.8c1,0,2.1-0.2,3.1-0.6c0.1,0,0.1-0.1,0.2-0.1
		l6.3-3.8l8.5-1.9l16.3,16.2C110.7,347.7,109.8,349.9,109.3,350.7L109.3,350.7z M131.7,323.7l-7.5,7.9l-1.2-1.1l-0.1-0.1l-10.6-10.2
		c-0.6-0.6-1.6-0.6-2.2,0s-0.6,1.6,0,2.2l9.8,9.4c-4.3,6.6-8,9.3-10.2,10.4l-16.1-16l0,0c0,0,0,0-0.1-0.1l0,0c0,0,0,0-0.1-0.1
		c0,0,0,0-0.1,0c0,0,0,0-0.1,0c0,0,0,0-0.1,0c0,0,0,0-0.1,0c0,0,0,0-0.1,0h-0.1c0,0,0,0-0.1,0h-0.1l0,0h-0.1l0,0h-0.1l0,0h-0.1
		c0,0,0,0-0.1,0c0,0,0,0-0.1,0H92l0,0l-9.6,2.2c-0.2,0-0.3,0.1-0.5,0.2l-6.4,3.8c-2.1,0.9-4.7,0-5.9-1.9c-1.3-2.3-0.1-5.2,3.4-7.9
		l7.9-6.1l0,0l1.1-0.8c1.7-1.3,4.9-2,9-1.8c0.1,0,0.2,0,0.3,0c0.9,0.1,1.3-0.1,2-0.7l3.5-2.8l7.9,7.6c0.6,0.6,1.6,0.6,2.2,0
		s0.6-1.6,0-2.2l-10.5-10.1l7.5-7.9c0.5-0.5,1.2-0.8,1.9-0.8c0,0,0,0,0.1,0c0.7,0,1.4,0.3,1.9,0.8l23.6,22.7
		C132.7,320.9,132.7,322.6,131.7,323.7L131.7,323.7z"/>
</g>
<g id="g234">
	<path id="path216" fill="#028283" d="M107.9,485.3v4.5c0,1.6-1.1,2.9-2.6,3.2l-8.2,1.6c-0.6,2-1.4,4-2.4,5.8l4.6,6.9
		c0.9,1.3,0.7,3-0.4,4.1l-3.1,3.1c-1.1,1.1-2.8,1.3-4.1,0.4l-6.9-4.6c-1.8,1-3.7,1.8-5.8,2.4l-1.6,8.2c-0.3,1.5-1.6,2.6-3.2,2.6
		h-4.5c-1.6,0-2.9-1.1-3.2-2.6l-1.6-8.2c-2-0.6-4-1.4-5.8-2.4l-6.9,4.6c-1.3,0.9-3,0.7-4.1-0.4l-3.1-3.1c-1.1-1.1-1.3-2.8-0.4-4.1
		l4.6-6.9c-1-1.8-1.8-3.7-2.4-5.8l-8.2-1.6c-1.5-0.3-2.6-1.6-2.6-3.2v-4.5c0-1.6,1.1-2.9,2.6-3.2l8.2-1.6c0.6-2,1.4-4,2.4-5.8
		l-4.6-6.9c-0.9-1.3-0.7-3,0.4-4.1l3.1-3.1c1.1-1.1,2.8-1.3,4.1-0.4l6.9,4.6c1.8-1,3.7-1.8,5.8-2.4l1.6-8.2c0.3-1.5,1.6-2.6,3.2-2.6
		h4.5c1.6,0,2.9,1.1,3.2,2.6l1.6,8.2c2,0.6,4,1.4,5.8,2.4l6.9-4.6c1.3-0.9,3-0.7,4.1,0.4l3.1,3.1c1.1,1.1,1.3,2.8,0.4,4.1l-4.6,6.9
		c1,1.8,1.8,3.7,2.4,5.8l8.2,1.6C106.8,482.4,107.9,483.7,107.9,485.3z"/>
	<path id="path218" fill="#FFFCFF" d="M87.7,487.5c0,8.7-7.1,15.8-15.8,15.8s-15.8-7.1-15.8-15.8s7.1-15.8,15.8-15.8
		S87.7,478.8,87.7,487.5z"/>
	<path id="path220" fill="#FFFCFF" d="M79.8,487.5c0,4.3-3.5,7.9-7.9,7.9s-7.9-3.5-7.9-7.9s3.5-7.9,7.9-7.9S79.8,483.2,79.8,487.5z"
		/>
	<path id="path222" fill="#FFFCFF" d="M75,487.5c0,3.5-2.3,6.5-5.5,7.5c-3.2-1-5.5-4-5.5-7.5s2.3-6.5,5.5-7.5
		C72.7,481,75,484,75,487.5z"/>
	<path id="path224" fill="#FC6541" d="M130.5,521v2.9c0,1-0.7,1.9-1.7,2.1l-5.4,1.1c-0.4,1.3-0.9,2.6-1.6,3.8l3,4.5
		c0.6,0.9,0.5,2-0.3,2.7l-2.1,2.1c-0.7,0.7-1.9,0.8-2.7,0.3l-4.5-3c-1.2,0.7-2.4,1.2-3.8,1.6l-1.1,5.4c-0.2,1-1.1,1.7-2.1,1.7h-2.9
		c-1,0-1.9-0.7-2.1-1.7l-1.1-5.4c-1.3-0.4-2.6-0.9-3.8-1.6l-4.5,3c-0.9,0.6-2,0.5-2.7-0.3l-2.1-2.1c-0.7-0.7-0.8-1.9-0.3-2.7l3-4.5
		c-0.7-1.2-1.2-2.4-1.6-3.8L85,526c-1-0.2-1.7-1.1-1.7-2.1V521c0-1,0.7-1.9,1.7-2.1l5.4-1.1c0.4-1.3,0.9-2.6,1.6-3.8l-3-4.5
		c-0.6-0.9-0.5-2,0.3-2.7l2.1-2.1c0.7-0.7,1.9-0.8,2.7-0.3l4.5,3c1.2-0.7,2.4-1.2,3.8-1.6l1.1-5.4c0.2-1,1.1-1.7,2.1-1.7h2.9
		c1,0,1.9,0.7,2.1,1.7l1.1,5.4c1.3,0.4,2.6,0.9,3.8,1.6l4.5-3c0.9-0.6,2-0.5,2.7,0.3l2.1,2.1c0.7,0.7,0.8,1.9,0.3,2.7l-3,4.5
		c0.7,1.2,1.2,2.4,1.6,3.8l5.4,1.1C129.8,519.1,130.5,520,130.5,521z"/>
	<path id="path226" fill="#FFFCFF" d="M118.7,522.4c0,6.5-5.3,11.8-11.8,11.8s-11.8-5.3-11.8-11.8s5.3-11.8,11.8-11.8
		S118.7,515.9,118.7,522.4z"/>
	<path id="path228" fill="#FFFCFF" d="M114,522.4c0,3.9-3.2,7.1-7.1,7.1s-7.1-3.2-7.1-7.1s3.2-7.1,7.1-7.1
		C110.8,515.4,114,518.5,114,522.4z"/>
	<path id="path230" fill="#FFFCFF" d="M109.3,522.4c0,3.1-2,5.7-4.7,6.7c-2.8-1-4.7-3.6-4.7-6.7c0-3.1,2-5.7,4.7-6.7
		C107.3,516.7,109.3,519.4,109.3,522.4z"/>
	<path id="path232" d="M58.5,482.8c-0.5,1.5-0.8,3-0.8,4.6c0,7.9,6.4,14.3,14.3,14.3c3,0,5.9-0.9,8.3-2.7c0.7-0.5,1.7-0.3,2.2,0.3
		c0.5,0.7,0.3,1.7-0.3,2.2c-3,2.1-6.5,3.3-10.2,3.3c-9.6,0-17.3-7.8-17.3-17.3c0-1.9,0.3-3.8,0.9-5.6c0.3-0.8,1.2-1.2,2-1
		C58.3,481.2,58.7,482,58.5,482.8z M85.3,496.1c0.2,0.1,0.5,0.2,0.7,0.2c0.6,0,1.1-0.3,1.4-0.8c1.2-2.4,1.9-5.2,1.9-7.9
		c0-9.6-7.8-17.3-17.3-17.3c-4.5,0-8.8,1.7-12.1,4.9c-0.6,0.6-0.6,1.6,0,2.2s1.6,0.6,2.2,0c2.7-2.6,6.2-4,9.9-4
		c7.9,0,14.3,6.4,14.3,14.3c0,2.3-0.5,4.5-1.6,6.5C84.2,494.7,84.5,495.7,85.3,496.1z M84.6,510.5c-0.4-0.8-1.3-1.1-2.1-0.7
		c-1.3,0.6-2.6,1.1-3.9,1.5c-0.6,0.2-1,0.6-1.1,1.2l-1.6,8.2c-0.2,0.8-0.9,1.4-1.7,1.4h-4.5c-0.8,0-1.5-0.6-1.7-1.4l-1.6-8.2
		c-0.1-0.6-0.5-1-1.1-1.2c-1.9-0.5-3.7-1.3-5.4-2.2c-0.5-0.3-1.1-0.3-1.6,0.1l-6.9,4.6c-0.7,0.5-1.6,0.4-2.2-0.2l-3.1-3.1
		c-0.6-0.6-0.7-1.5-0.2-2.2l4.6-6.9c0.3-0.5,0.3-1.1,0.1-1.6c-1-1.7-1.7-3.5-2.2-5.4c-0.2-0.6-0.6-1-1.2-1.1l-8.2-1.6
		c-0.8-0.2-1.4-0.9-1.4-1.7v-4.5c0-0.8,0.6-1.5,1.4-1.7l8.2-1.6c0.6-0.1,1-0.5,1.2-1.1c0.5-1.9,1.3-3.7,2.2-5.4
		c0.3-0.5,0.3-1.1-0.1-1.6l-4.6-6.9c-0.5-0.7-0.4-1.6,0.2-2.2l3.1-3.1c0.6-0.6,1.5-0.7,2.2-0.2l6.9,4.6c0.5,0.3,1.1,0.3,1.6,0.1
		c1.7-1,3.5-1.7,5.4-2.2c0.6-0.2,1-0.6,1.1-1.2l1.6-8.2c0.2-0.8,0.9-1.4,1.7-1.4h4.5c0.8,0,1.5,0.6,1.7,1.4l1.6,8.2
		c0.1,0.6,0.5,1,1.1,1.2c1.9,0.5,3.7,1.3,5.4,2.2c0.5,0.3,1.1,0.3,1.6-0.1l6.9-4.6c0.7-0.5,1.6-0.4,2.2,0.2l3.1,3.1
		c0.6,0.6,0.7,1.5,0.2,2.2l-4.6,6.9c-0.3,0.5-0.3,1.1-0.1,1.6c1,1.7,1.7,3.5,2.2,5.4c0.2,0.6,0.6,1,1.2,1.1l8.2,1.6
		c0.8,0.2,1.4,0.9,1.4,1.7v4.5c0,0.8-0.6,1.5-1.4,1.7l-8.2,1.6c-0.6,0.1-1,0.5-1.2,1.1c-0.4,1.4-0.9,2.7-1.5,4
		c-0.4,0.8,0,1.7,0.7,2.1c0.8,0.4,1.7,0,2.1-0.7c0.6-1.2,1-2.4,1.4-3.6l7.2-1.4c2.2-0.4,3.9-2.4,3.9-4.7v-4.5c0-2.3-1.6-4.3-3.9-4.7
		l-7.2-1.4c-0.5-1.5-1.1-3-1.8-4.3l4.1-6.2c1.3-1.9,1-4.5-0.6-6.1l-3.1-3.1c-1.6-1.6-4.2-1.9-6.1-0.6l-6.2,4.1
		c-1.4-0.7-2.8-1.3-4.3-1.8l-1.4-7.2c-0.4-2.2-2.4-3.9-4.7-3.9h-4.5c-2.3,0-4.3,1.6-4.7,3.9l-1.4,7.2c-1.5,0.5-3,1.1-4.3,1.8
		l-6.1-4.1c-1.9-1.3-4.5-1-6.1,0.6l-3.1,3.1c-1.6,1.6-1.9,4.2-0.6,6.1l4.1,6.2c-0.7,1.4-1.3,2.8-1.8,4.3l-7.2,1.4
		c-2.2,0.4-3.9,2.4-3.9,4.7v4.5c0,2.3,1.6,4.3,3.9,4.7l7.2,1.4c0.5,1.5,1.1,3,1.8,4.3l-4.1,6.2c-1.3,1.9-1,4.5,0.6,6.1l3.1,3.1
		c1.6,1.6,4.2,1.9,6.1,0.6l6.2-4.1c1.4,0.7,2.8,1.3,4.3,1.8l1.4,7.2c0.4,2.2,2.4,3.9,4.7,3.9h4.5c2.3,0,4.3-1.6,4.7-3.9l1.4-7.2
		c1.2-0.4,2.4-0.8,3.5-1.4C84.6,512.2,84.9,511.2,84.6,510.5z M106.9,516.9c3.1,0,5.6,2.5,5.6,5.6c0,0.9,0.7,1.5,1.5,1.5
		c0.9,0,1.5-0.7,1.5-1.5c0-4.8-3.9-8.6-8.6-8.6s-8.6,3.9-8.6,8.6s3.9,8.6,8.6,8.6c1.9,0,3.8-0.6,5.3-1.8c0.7-0.5,0.8-1.5,0.3-2.2
		s-1.5-0.8-2.2-0.3c-1,0.8-2.2,1.2-3.4,1.2c-3.1,0-5.6-2.5-5.6-5.6C101.4,519.4,103.8,516.9,106.9,516.9z M71.9,496.9
		c-5.2,0-9.4-4.2-9.4-9.4s4.2-9.4,9.4-9.4c5.2,0,9.4,4.2,9.4,9.4S77.1,496.9,71.9,496.9z M71.9,493.8c3.5,0,6.3-2.8,6.3-6.3
		s-2.8-6.3-6.3-6.3s-6.3,2.8-6.3,6.3S68.5,493.8,71.9,493.8z M129.1,517.4l-4.5-0.9c-0.3-0.8-0.6-1.6-1-2.4l2.5-3.8
		c1-1.5,0.8-3.4-0.5-4.7l-2.1-2.1c-1.2-1.2-3.2-1.4-4.7-0.5l-3.8,2.5c-0.8-0.4-1.6-0.7-2.4-1l-0.9-4.5c-0.3-1.7-1.9-3-3.6-3h-2.9
		c-1.8,0-3.3,1.2-3.6,3l-0.9,4.5c-0.8,0.3-1.6,0.6-2.4,1l-3.8-2.5c-1.5-1-3.4-0.8-4.7,0.5l-2.1,2.1c-1.2,1.2-1.4,3.2-0.5,4.7
		l2.5,3.8c-0.5,1-0.9,2.1-1.3,3.3c-0.2,0.8,0.2,1.7,1.1,1.9c0.8,0.2,1.7-0.2,1.9-1.1c0.3-1.2,0.8-2.4,1.4-3.4
		c0.3-0.5,0.3-1.1-0.1-1.6l-3-4.5c-0.2-0.2-0.1-0.6,0.1-0.8l2.1-2.1c0.2-0.2,0.5-0.2,0.8-0.1l4.5,3c0.5,0.3,1.1,0.3,1.6,0.1
		c1.1-0.6,2.2-1.1,3.4-1.4c0.6-0.2,1-0.6,1.1-1.2l1.1-5.4c0.1-0.3,0.3-0.5,0.6-0.5h2.9c0.3,0,0.5,0.2,0.6,0.5l1.1,5.4
		c0.1,0.6,0.5,1,1.1,1.2c1.2,0.3,2.4,0.8,3.4,1.4c0.5,0.3,1.1,0.3,1.6-0.1l4.5-3c0.2-0.2,0.6-0.1,0.8,0.1l2.1,2.1
		c0.2,0.2,0.2,0.5,0.1,0.8l-3,4.5c-0.3,0.5-0.3,1.1-0.1,1.6c0.6,1.1,1.1,2.2,1.4,3.4c0.2,0.6,0.6,1,1.2,1.1l5.4,1.1
		c0.3,0.1,0.5,0.3,0.5,0.6v2.9c0,0.3-0.2,0.5-0.5,0.6l-5.4,1.1c-0.6,0.1-1,0.5-1.2,1.1c-0.3,1.2-0.8,2.4-1.4,3.4
		c-0.3,0.5-0.3,1.1,0.1,1.6l3,4.5c0.2,0.2,0.1,0.6-0.1,0.8l-2.1,2.1c-0.2,0.2-0.5,0.2-0.8,0.1l-4.5-3c-0.5-0.3-1.1-0.3-1.6-0.1
		c-1.1,0.6-2.2,1.1-3.4,1.4c-0.6,0.2-1,0.6-1.1,1.2l-1.1,5.4c-0.1,0.3-0.3,0.5-0.6,0.5H105c-0.3,0-0.5-0.2-0.6-0.5l-1.1-5.4
		c-0.1-0.6-0.5-1-1.1-1.2c-1.2-0.3-2.4-0.8-3.4-1.4c-0.5-0.3-1.1-0.3-1.6,0.1l-4.5,3c-0.2,0.2-0.6,0.1-0.8-0.1l-2.1-2.1
		c-0.2-0.2-0.2-0.5-0.1-0.8l3-4.5c0.3-0.5,0.3-1.1,0.1-1.6c-0.6-1.1-1.1-2.2-1.4-3.4c-0.2-0.6-0.6-1-1.2-1.1l-5.4-1.1
		c-0.3-0.1-0.5-0.3-0.5-0.6V521c0-0.3,0.2-0.5,0.5-0.6l0.3-0.1c0.8-0.2,1.4-1,1.2-1.8c-0.2-0.8-1-1.4-1.8-1.2l-0.3,0.1
		c-1.7,0.3-3,1.9-3,3.6v2.9c0,1.8,1.2,3.3,3,3.6l4.5,0.9c0.3,0.8,0.6,1.6,1,2.4l-2.5,3.8c-1,1.5-0.8,3.4,0.5,4.7l2.1,2.1
		c1.2,1.2,3.2,1.4,4.7,0.5l3.8-2.5c0.8,0.4,1.6,0.7,2.4,1l0.9,4.5c0.3,1.7,1.9,3,3.6,3h2.9c1.8,0,3.3-1.2,3.6-3l0.9-4.5
		c0.8-0.3,1.6-0.6,2.4-1l3.8,2.5c1.5,1,3.4,0.8,4.7-0.5l2.1-2.1c1.2-1.2,1.4-3.2,0.5-4.7l-2.5-3.8c0.4-0.8,0.7-1.6,1-2.4l4.5-0.9
		c1.7-0.3,3-1.9,3-3.6V521C132.1,519.2,130.8,517.7,129.1,517.4z"/>
</g>
<g id="logo">
	
		<g id="g883_00000022539221150303535710000012577670282461929904_" transform="matrix(0.94456457,0,0,0.94456457,10.968378,31.18083)">
		<g id="g2828_00000171696707967573187200000003861866410656769187_">
			<g id="g32_00000012470246598759000750000011345678251396794009_">
				<g>
					<g id="g2830_00000147216620090965507800000015131937843293734299_">
						<g id="g2836_00000138573249127852964640000007795465304216835220_" transform="translate(427.0015,362.0531)">
							<path id="path2838_00000179611919407770736170000005572243517571327650_" fill="#0099FF" d="M-275.4-356.2
								c2.4,15.7-3,34.2-17.5,42.5c-16.1,7.8-29.8,1.5-18,24.9c-0.1,0.1-0.2,0.2-0.3,0.2c-23.9-19.2,6.1-29.7,18.2-43
								c-0.1-0.1-0.2-0.2-0.2-0.3c-7.7,4.4-14.9,9.8-22.9,13.7c-0.6,0.3-1.1,0.3-1.1-0.6c0.2-8.1,3.4-17,11.4-20.5
								C-295.4-344.2-281.5-345.2-275.4-356.2"/>
						</g>
						<g id="g2840_00000151519121191915560580000013807043178792810383_" transform="translate(143.617,309.6074)">
							<path id="path2842_00000058565123737901383970000011303555799292898996_" fill="#97D123" d="M-80.4-287.6
								c17.8,18.2,60.2,34.7,25.4,61.1c23.2-43.5-23.4-17.7-42.1-51.6c-8.3-13.5-11.2-30-9.1-45.5c10.7,19.6,37.2,15.5,51.8,30.2
								c6.4,6.3,7.7,15,8.5,23.5c1.7,6.2-31-17.1-34.1-18C-80.2-287.9-80.3-287.7-80.4-287.6"/>
						</g>
						<g id="g2844_00000035489690301249952040000003686994366910632093_" transform="translate(65.4546,150.0839)">
							<path id="path2846_00000026142188087656289550000005365780029706677692_" fill="#336633" d="M-26.7-79.1
								C9.9-78.5,40-72.8,69.8-58.2c2.4,1,1.7,1.8-0.8,2.4c-4,1-8.1,2-12.1,3.1c-2.3,0.6-3.7,0.2-5.3-0.6
								c-6.8-3.6-13.3-7.4-20.7-10.7c-18.4-8.5-44.4-13.1-67.5-13.2c-1.9,0.2-3.7-0.2-5.4-0.8C-37.2-79.6-31.8-78.8-26.7-79.1"/>
						</g>
						<g id="g2848_00000170958630105484673390000005179589353395938983_" transform="translate(235.3552,55.1964)">
							<path id="path2850_00000051369547442575571340000007629012325295842726_" fill="#F9A72B" fill-opacity="0.9804" d="
								M-143.5,44.9c-19.1-1.5-44.4-6.8-53.2-20.2c22.3,1,38.8,8.6,53.9,19.5C-143.1,44.4-143.3,44.7-143.5,44.9"/>
						</g>
						<g id="g2852_00000003070772560924131070000015064573491751975856_" transform="translate(310.5638,57.8876)">
							<path id="path2854_00000103239456135586455770000018070281958382022323_" fill="#339933" d="M-195.3,41.4
								c-5.7,0.3-10.6,0.7-15.6,0.8c-1,0-2.5-0.7-3.2-1.3c-6.2-4.8-13.3-9.2-21.9-13c-10.9-4.8-23.4-7.9-37.8-8.7
								c-1.8,0.2-3-0.6-4.4-1.4C-249.8,15.6-215.2,26.7-195.3,41.4"/>
						</g>
						<g id="g2856_00000094593353856558934710000008448669540992617364_" transform="translate(458.8952,130.3764)">
							<path id="path2858_00000085235496936482419190000006022033728257513601_" fill="#FF9933" fill-opacity="0.9804" d="
								M-297.3-53.4c-4.4,6-9.8,9.8-17.1,13.6c-1.5,0.8-2.5,0.9-4,0c-2.9-1.8-6.1-3.4-9.2-5.1C-333.4-47.3-300.4-54.5-297.3-53.4"/>
						</g>
						<g id="g2860_00000048488434270573758610000001544392588597544632_" transform="translate(282.366,134.4695)">
							<path id="path2862_00000072972256618881377470000011231874001594268837_" fill="#336633" d="M-175.9-58.7
								c18.1-5.1,36.9-6.5,56.5-6.3c2.9,0.2,6-0.2,8.6,1.3c-0.9,0.2-1.8,0.7-2.8,0.7c-16,0.4-33.1,2-47.6,6.8
								C-166.5-54.4-170.3-57.5-175.9-58.7"/>
						</g>
						<g id="g2864_00000125584444432075455300000012340257352462951334_" transform="translate(319.906,119.4833)">
							<path id="path2866_00000087411332584606865660000005665633993601472692_" fill="#339933" d="M-201.7-39.1
								c14.3-4.1,28.8-6.7,44.9-7.2c1.4-0.1,4,0.3,4.1,0.6c0.3,1.3-1.9,1.5-3.8,1.6c-12.9,0.7-24.4,3.3-34.9,7.2
								C-195.4-35.6-197.5-37.8-201.7-39.1"/>
						</g>
						<g id="g2868_00000096740042981786078030000006680820221215785391_" transform="translate(274.1679,344.1267)">
							<path id="path2870_00000092448873560858500550000005256059467813953430_" fill="#666666" d="M-170.2-332.7
								c7.7,0,7.2,11-0.1,11C-177.8-321.7-178.1-333-170.2-332.7"/>
						</g>
					</g>
				</g>
			</g>
		</g>
	</g>
</g>
<g id="filet_2_theme">
	<path id="path236" fill="none" stroke="#000000" stroke-width="5" stroke-miterlimit="10" d="M692.7,122.8c56.3,0,157.5,0,175.5,0
		c6.5,0,41.3,0.6,69.4,26.8c17.7,16.5,28.7,39.4,28.7,64.6v521.1c0,96.6-43.9,137.5-98.1,137.5H259.6c-54.2,0-98.1-40.9-98.1-91.4
		V572.6c0-0.6-0.5-1-1.1-1.1c-1.8-0.1-5.3-0.2-7.8-0.1c-8.3,0.1-119.3-0.1-126.2-0.1c-5.8-0.1-14.6-4.4-14.4-13.6
		c0.3-13.3-0.2-102.3-0.2-122c0-8.4,4.9-13.5,15.4-13.5c15,0,86.7-0.1,121.2-0.1c4,0,13.2,0,13.2-0.3c0-0.8,0-8.6,0-8.7
		c0-8.5,0-73.5,0-198.9c0-13.1,5.5-43,28.7-64.6c17.7-16.5,42.3-26.8,69.4-26.8c21.6,0,75.9,0,97.5,0c22.7,0,44.4,0,65.4,0"/>
	<circle fill="#FFFFFF" stroke="#1D1D1B" stroke-width="4" stroke-miterlimit="10" cx="885" cy="823.7" r="103.5"/>
</g>
<g id="picto_titre_badge">
	<g id="g6791" transform="translate(427.0015,362.0531)">
		<path id="path6789" inkscape:connector-curvature="0" fill="#FFFFFF" d="M260,0.2c0.3,1.9,0.5,3,0.7,4.1c1,7,0.7,14,0.1,21
			c-0.6,8.5-2.2,16.6-4.7,24.7c-3.8,12.2-9.6,23.4-18.3,32.9c-4.9,5.3-10.4,9.9-16.7,13.5c-6.9,4-14.4,5.9-22.1,7.8
			c-6.3,1.6-12.8,3.2-18.7,5.9c-9.2,4.2-10.8,11.1-8.5,19.3c1.9,7,5.2,13.5,7.9,20.4c0.4,1,0.9,1.9,1.3,2.9
			c-0.2,0.2-0.4,0.3-0.6,0.6c-1.3-1-2.6-1.9-3.8-3.1c-6.5-6.3-12.4-12.9-15-21.9c-2.7-9.3,0-17.4,5.6-24.7c6.9-9,16-15.8,24.9-22.7
			c8.5-6.5,16.6-13.3,24.8-20.1c1.5-1.3,2.7-3.1,4-4.7c-0.2-0.2-0.3-0.4-0.6-0.6c-1.9,1.1-3.9,2.2-5.8,3.5
			c-11.6,7.3-23.1,14.7-34.7,21.9c-3.3,2.1-7,3.8-10.6,5.6c-1.3,0.6-2.5,0.8-2.4-1.3c0.4-8.6,1.6-17.1,5.1-25.1
			c4.2-9.4,10.8-17.1,20.1-21.4c9.4-4.3,19.2-7.6,28.9-11.2c9.5-3.4,19-6.8,27-13.2c4.2-3.3,7.8-7.2,10.3-11.9
			C258.6,1.8,259.1,1.3,260,0.2"/>
	</g>
	<g id="g6795" transform="translate(143.617,309.6074)">
		<path id="path6793" inkscape:connector-curvature="0" fill="#FFFFFF" d="M346.5,89c3.3,3.3,6.3,6.9,9.9,9.8
			c13.8,11,27.8,21.9,41.6,32.9c10,7.9,19.7,16.3,26.9,27.1c9.8,14.7,9.7,31,0,45.8c-5.3,8.1-12.2,14.9-19.2,21.5
			c-0.6,0.6-1.5,1-2.8,1.1c0.5-1.1,0.8-2.3,1.4-3.3c4.7-8.8,9-17.9,11.5-27.6c1.4-5.4,2-10.9,0.7-16.5c-2-8.9-8.7-13.5-16.5-16.1
			c-9.1-3.1-18.4-5.6-27.8-7.6c-27.7-5.9-48.1-21.9-62.9-45.5c-8.4-13.3-13.8-28-17.4-43.3c-3.9-16.5-4.8-33.1-4.2-49.9
			c0.1-3,0.8-6,1.3-9.8c1,1.3,1.6,1.7,1.9,2.4c8.8,15.6,22.7,24.9,38.8,31.1c13.8,5.3,27.8,9.5,41.6,14.6
			c12.2,4.5,23.7,10.4,32.8,20.2c8,8.6,13.4,18.7,15.7,30.1c1.5,7.6,2.4,15.3,3.3,23c0.4,3.5-0.3,3.8-3.5,2.3
			c-17-7.9-32.7-18-48.3-28.3c-7.2-4.7-14.4-9.1-21.6-13.6c-0.8-0.5-1.6-0.8-2.4-1.2C347.1,88.4,346.8,88.8,346.5,89"/>
	</g>
	<g id="g6799" transform="translate(65.4546,150.0839)">
		<path id="path6797" inkscape:connector-curvature="0" fill="#FFFFFF" d="M370.4,359.4c64.5,0.8,123.3,10.2,174.9,29.7
			c14.1,5.3,26.5,11.7,39.7,17.6c5.3,2.4,3.8,4.1-1.8,5.5c-9,2.3-18.1,4.5-27,6.9c-5.1,1.4-8.2,0.6-11.8-1.5
			c-15.1-8.2-29.7-16.7-46.1-24.2c-32.9-14.9-71.7-24.5-115.7-28.3c-11.3-1-22.9-1-34.4-1.5c-1.8-0.1-3.8,0.2-5.5-0.1
			c-2.4-0.3-4.4-1.1-6.6-1.7c2-0.6,3.9-1.6,6-1.7c6.6-0.4,13.3-0.6,20-0.8C364.8,359.3,367.6,359.4,370.4,359.4"/>
	</g>
	<g id="g6803" transform="translate(235.3552,55.1964)">
		<path id="path6801" inkscape:connector-curvature="0" fill="#FFFFFF" d="M318.5,520.2c-10.8-1.3-21.8-2-32.2-3.8
			c-37.5-6.4-65.1-19-83.5-37c-1.5-1.5-1.8-3.3-2.6-4.9c3.1,0.1,6.3,0.1,9.3,0.3c38.2,4.2,67.4,15.6,91.7,30.8
			c6.7,4.2,12.6,8.7,19,13C319.5,519.1,319,519.7,318.5,520.2"/>
	</g>
	<g id="g6807" transform="translate(310.5638,57.8876)">
		<path id="path6805" inkscape:connector-curvature="0" fill="#FFFFFF" d="M295.5,515.6c-12.6,0.8-23.5,1.6-34.7,1.9
			c-2.3,0.1-5.5-1.6-7.1-2.9c-13.8-10.9-29.5-20.9-48.6-29.5c-24.3-10.9-52-17.8-84.2-19.7c-1.5-0.1-3.3,0.1-4.4-0.3
			c-2-0.8-3.6-1.9-5.4-2.8c2-0.5,4-1.5,6-1.5c20,0.3,39.4,2.4,58.2,5.8c48.5,8.8,85.6,25.4,117,46
			C293.2,513.1,293.7,513.9,295.5,515.6"/>
	</g>
	<g id="g6811" transform="translate(458.8952,130.3764)">
		<path id="path6809" inkscape:connector-curvature="0" fill="#FFFFFF" d="M250.2,392.8c-2.2,2.8-3.8,5.4-6.2,7.8
			c-8.5,8.7-18.9,16.4-32,23.1c-3.4,1.7-5.6,1.9-9-0.1c-6.5-4-13.5-7.8-20.4-11.5c-2.5-1.4-3.1-2.4,0.1-3.8
			c19.3-7.9,40.4-13.4,63.9-15.8C247.3,392.3,247.9,392.5,250.2,392.8"/>
	</g>
	<g id="g6815" transform="translate(282.366,134.4695)">
		<path id="path6813" inkscape:connector-curvature="0" fill="#FFFFFF" d="M304.1,385.8c2.9-1,4.3-1.6,5.8-1.9
			c38.4-9.1,78.5-13.1,120-12.4c4.6,0.1,9.2,0.3,13.6,0.8c2,0.2,3.6,1.4,5.4,2.2c-2,0.6-4,1.6-6.2,1.7c-9.8,0.6-19.6,0.8-29.4,1.4
			c-27.2,1.6-52.7,6.4-76.5,14c-5.5,1.7-9.7,2-15.1-0.1C316.7,389.4,310.9,388,304.1,385.8"/>
	</g>
	<g id="g6819" transform="translate(319.906,119.4833)">
		<path id="path6817" inkscape:connector-curvature="0" fill="#FFFFFF" d="M292.7,411.2c2.4-0.7,3.7-1,4.9-1.4
			c29.6-8.5,61.1-13.8,94.9-14.9c3.1-0.1,8.9,0.8,9.1,1.5c0.8,2.9-4.3,3.3-8.5,3.5c-28.8,1.7-54.3,7.4-77.7,16.2
			c-3.8,1.5-7.2,1.5-10.8-0.1C301.3,414.7,298,413.4,292.7,411.2"/>
	</g>
	<g id="g6823" transform="translate(274.1679,344.1267)">
		<path id="path6821" inkscape:connector-curvature="0" fill="#FFFFFF" d="M306.6,30.5c7.2,0,12.6,5.1,12.6,12
			c0.1,7-5.8,12.9-12.9,12.9c-7.2,0-12.9-5.8-12.9-12.9C293.6,35.4,298.9,30.5,306.6,30.5"/>
	</g>
</g>
<g id="picto_theme">
	<g id="picto_categorie" transform="translate(0.246)">
		<g id="g78">
			<polygon id="polygon58" fill="none" stroke="#000000" stroke-width="2.54" stroke-miterlimit="12.7" points="816.9,773.7 
				862.1,777.3 908.2,773.9 952.6,773.9 952.6,868.5 908.4,868.5 861.9,873.7 817.5,868.7 			"/>
			<path id="path60" fill="none" stroke="#000000" stroke-width="2.54" stroke-miterlimit="12.7" d="M862.1,777.3
				c-0.2,0.4,0,96.4,0,96.4"/>
			
				<line id="line62" fill="none" stroke="#000000" stroke-width="2.54" stroke-miterlimit="12.7" x1="908.2" y1="773.9" x2="908.2" y2="868.5"/>
			
				<line id="line64" fill="none" stroke="#000000" stroke-width="2.54" stroke-linecap="round" stroke-miterlimit="12.7" x1="926.7" y1="791" x2="945.1" y2="804.1"/>
			
				<line id="line66" fill="none" stroke="#000000" stroke-width="2.54" stroke-linecap="round" stroke-miterlimit="12.7" x1="926.7" y1="803.9" x2="945.7" y2="790.8"/>
			<g id="g76">
				<g id="g74">
					
						<path id="path68_00000173162208848865907730000001253503439897635493_" fill="none" stroke="#000000" stroke-width="2.54" stroke-linecap="round" stroke-miterlimit="12.7" d="
						M826,869.7c0-0.7-0.2-1.5-0.2-2.4"/>
					
						<path id="path70_00000051354584718800573220000006050554025993056677_" fill="none" stroke="#000000" stroke-width="2.54" stroke-linecap="round" stroke-miterlimit="12.7" stroke-dasharray="3.8468,5.129" d="
						M829.2,862c4.8-3.8,16.5-8.6,44.1-14.4c47-9.9,58.5-20.9,62-36"/>
					
						<path id="path72_00000069386491235437677160000016434066124771770022_" fill="none" stroke="#000000" stroke-width="2.54" stroke-linecap="round" stroke-miterlimit="12.7" d="
						M935.9,808.3c0.1-0.8,0.2-1.6,0.3-2.4"/>
				</g>
			</g>
		</g>
	</g>
</g>
<g id="tracy" opacity="0.25" enable-background="new    ">
	<path fill="#3DADA8" d="M261.1,47.9c-0.2,0.1-0.5,0.3-1,0.7c0,0.1,0,0.2,0,0.2c0,0.1,0,0.1,0,0.2c-0.1,0-0.2,0-0.4-0.1
		c-0.1,0-0.1,0.1-0.2,0.3c-0.4,0.1-0.9,0.3-1.4,0.6l-1.5,0.4c-0.1,0-0.2,0-0.2-0.1c-0.1,0.1-0.2,0.2-0.2,0.2
		c0.1,0.1,0.2,0.3,0.5,0.4c-0.1,0-0.2,0-0.3,0c-0.2,0-0.6,0-1-0.1c0.2,0,0.2-0.1,0.2-0.2h-0.3c-0.1,0.1-0.2,0.2-0.2,0.3
		c-0.1-0.1-0.3-0.2-0.5-0.2V51l-0.4,0.2c0.4,0,0.7,0,0.8,0.1c-0.1,0-0.2,0-0.2,0.1h-2.4c-0.1,0-0.1,0-0.1,0.1l-2.1,0.4
		c0.3,0,0.8,0.1,1.4,0.3c0-0.1,0.1-0.2,0.2-0.4h0.3l-0.1,0.1l0.3,0.1l0.2-0.2c0,0.1,0.1,0.1,0.2,0.3h0.8c-0.2,0-0.6,0.1-1,0.3
		c-0.1,0-0.2-0.1-0.3-0.2l-0.1,0.2c-0.1,0-0.2-0.1-0.4-0.1c-0.1,0-0.2,0.1-0.3,0.2c0.2,0.1,0.5,0.1,0.8,0.1c-0.1,0-0.3,0-0.6,0
		c-0.3,0-0.5,0.1-0.6,0.1c0,0,0,0,0,0c0,0,0-0.1,0.1-0.2h-0.5l0.1,0.1c0,0.2-0.1,0.2-0.3,0.2h-3.1c-0.2-0.1-0.2-0.2-0.3-0.2h-0.2
		l0.1,0.2c-0.1,0-0.2,0-0.3,0c-0.6,0-1.3,0.1-2.1,0.2c-0.1-0.1-0.2-0.2-0.2-0.2c0,0,0,0,0,0c-0.2-0.1-0.3-0.1-0.5-0.1
		c0,0-0.1,0-0.3,0c-0.2,0-0.2,0-0.3,0c-0.4,0-0.7-0.1-0.8-0.3h-0.2c0,0-0.1,0-0.3,0.1l-2.1-0.7c0-0.1,0.1-0.1,0.1-0.1
		c0.1,0,0.1,0,0.2,0.1h0.2c0.1,0,0.2,0,0.3-0.1c-0.2-0.1-0.4-0.2-0.5-0.2c-0.1,0-0.1,0-0.2,0.1c-0.1-0.1-0.4-0.2-1-0.4
		c0,0-0.1,0.1-0.1,0.2h-0.3c0-0.1-0.1-0.2-0.3-0.2c-0.2-0.1-0.4-0.2-0.4-0.2c0-0.1-0.1-0.2-0.1-0.2c0.1,0,0.1-0.1,0.1-0.1
		c-0.1-0.1-0.2-0.1-0.3-0.1c0.1,0,0.1,0,0.2-0.1l-0.2-0.1l-0.2,0.2c-0.1-0.1-0.1-0.1-0.2-0.1c-0.1-0.1-0.1-0.3-0.2-0.6l-0.9-0.4
		c0,0,0-0.1,0.1-0.2c-0.1,0-0.2-0.2-0.4-0.5c-0.1,0-0.4-0.4-0.7-1c-0.1-0.9-0.2-1.7-0.3-2.3l-0.2-1.5c0-3.9,2.3-8,7-12.3
		c0.4-0.1,0.8-0.3,1.1-0.6c0.4-0.4,0.7-0.5,0.9-0.5c0,0,0.1,0,0.1,0c0.1-0.2,0.3-0.4,0.6-0.8c0.6-0.3,1.4-0.8,2.5-1.4
		c0.2,0,0.4,0.1,0.4,0.1l1.3-0.9l4.2-1.2h1.3c0.1,0.2,0.2,0.4,0.3,0.7c0.1,0.1,0.3,0.3,0.5,0.5c-0.2,0.1-0.3,0.3-0.3,0.5
		c0,0.7,0,1,0,1.1c0,0,0,0,0-0.1c0.1,0.1,0.3,0.3,0.5,0.6c0,0-0.2,0.1-0.4,0.2v0c0,0,0,0.1,0.1,0.3l-0.5,0.4c0.1,0,0.3,0.1,0.6,0.2
		c-0.4,0.2-0.7,0.3-0.9,0.3c-0.1,0-0.1,0-0.2,0c0,0.1-0.1,0.1-0.2,0.2c-0.3,0-0.7,0.1-1.2,0.2c-0.1,0.1-0.7,0.4-1.7,0.8
		c-0.2,0.1-0.7,0.3-1.4,0.6c-0.5,0.4-1.6,0.9-3.2,1.8c-0.9,0.8-1.8,1.5-2.5,2c-0.6,0.6-1.5,1.7-2.8,3.2c-0.1,0.1-0.2,0.1-0.3,0.2
		c-0.2,0.1-0.3,0.3-0.3,0.5c0,0.1,0,0.2,0.1,0.3c-0.2,0.2-0.5,0.5-0.9,1v0c0,0,0,0.1,0.1,0.3l-0.5,1.7v1.1c0,0.1,0.1,0.3,0.4,0.5
		c0.3,0.2,0.5,0.4,0.6,0.4c0.1,0.1,0.3,0.2,0.5,0.4c0.1,0,0.9,0.3,2.4,0.7c0.6,0.1,1.2,0.1,1.9,0.2l2.7,0.1l3-0.2l4-0.5
		c0.1,0,0.3,0,0.4,0.1l1.2-0.4c0.1,0.1,0.1,0.1,0.2,0.1l1.8-0.5h0.6l0.2,0.2h1.1c0.1,0.1,0.1,0.2,0.1,0.3c0,0,0.1,0.1,0.3,0.1
		c0,0.1-0.1,0.1-0.1,0.2c0.1,0.1,0.2,0.2,0.2,0.2c-0.1,0.1-0.3,0.2-0.5,0.4c0,0,0,0.1,0,0.1c0,0,0,0,0.1,0h0.5v0
		c0,0-0.1,0.2-0.2,0.6C260.9,47.8,261,47.8,261.1,47.9z M254,50.6h-0.3v0c0,0-0.1,0.1-0.1,0.3C253.7,50.9,253.8,50.8,254,50.6z"/>
	<path fill="#3DADA8" d="M280.6,49.8c-0.3,0.3-0.6,0.8-1.1,1.4l-0.5-0.1c0,0.1-0.1,0.2-0.2,0.4c-0.1-0.1-0.3-0.2-0.6-0.4
		c0,0,0,0-0.1,0c-0.3,0-0.9-0.3-1.7-1c-0.2-0.4-0.6-1.1-1.4-2.1l-4,3c0,0,0,0.1,0.1,0.1c0.1,0.1,0.1,0.1,0.1,0.1
		c-0.1,0.2-0.5,0.4-1.3,0.8c-2.2,0.7-3.3,1-3.3,1c-1.6,0-2.8-0.6-3.7-1.8c-0.4-1.2-0.7-2-0.7-2.6c0-0.4,0.4-1.4,1.2-3.3
		c0.7-0.8,1.2-1.2,1.5-1.2c0.1-0.1,0.9-0.6,2.2-1.6c0.6-0.3,1.7-0.7,3.1-1.3c1.4-0.3,2.2-0.5,2.2-0.6h0c0.1,0,0.4,0,0.8,0.1
		c0.3,0,0.6,0,0.8,0c0.1,0,0.2,0,0.2,0c0.6,0.3,0.9,0.6,0.9,0.9c0,0,0,0.1,0,0.1c0.1,0.1,0.4,0.5,0.8,1.3c0.1,0,0.2,0,0.3,0
		c0.4,0,0.9,0.2,1.3,0.6c0.7,1.1,1.3,2,1.8,2.9C279.8,47.9,280.3,48.9,280.6,49.8z M273.1,45.2h-0.8c-0.3,0-0.9,0.2-1.9,0.6
		l-1.7,0.7c-0.6,0.4-1.3,0.9-2.1,1.6l-0.1,0.2l0.9,0.1c2.1-0.5,3.7-1.4,4.9-2.6C272.5,45.7,272.7,45.5,273.1,45.2z"/>
	<path fill="#3DADA8" d="M310.1,46.9c0,0.2-0.1,1.3-0.3,3c-0.3,0.9-0.4,1.4-0.4,1.4v0c-0.1,0.1-0.2,0.2-0.3,0.2c0,0,0,0-0.1,0
		l-0.3,0.5c-0.4,0-0.9-0.2-1.6-0.4c-0.1-0.2-0.4-0.5-0.8-0.8c-0.2-0.4-0.2-0.8-0.2-1.4v-4.1l-0.7-2c0,0,0,0,0,0c0,0-0.1,0-0.1-0.1
		c-0.2,0.1-0.5,0.2-0.9,0.3c-1.2,0.2-2.4,1.1-3.8,2.6c-0.1,0.1-1,1.4-2.8,4c-0.2,0.5-0.6,1.2-1.2,2.2c0,0,0,0,0,0
		c-0.1,0-0.3,0.1-0.8,0.2c-0.1,0-0.2-0.1-0.3-0.1c-0.1,0.1-0.3,0.2-0.6,0.4l-0.4-0.7c0-0.1-0.2-0.2-0.4-0.3H294c0,0-0.1,0-0.2,0.1
		c-0.1,0.1-0.1,0.1-0.2,0.1c0,0,0,0,0,0c0,0-0.1-0.2-0.4-0.5l-0.1-2.4l0.4-4.9c0-0.3-0.1-0.6-0.2-1.1h0c0,0-0.1,0-0.1-0.1
		c-0.2,0.1-0.6,0.2-1.1,0.4c-0.2,0.2-0.5,0.5-1,0.9c-1.2,0.8-2.3,2-3.2,3.5c-0.9,0.9-1.5,2-2.1,3.2c-0.1,0.1-0.2,0.2-0.2,0.3
		c0,0.1,0,0.1,0.1,0.2c0.1,0.1,0.1,0.1,0.1,0.2c0,0,0,0.1-0.1,0.1c-0.1,0-0.8,0-1.8,0c-0.5-0.7-0.9-1-1.5-1c0,0,0,0,0,0
		c0-0.2-0.1-0.4-0.2-0.8c0-0.1,0-0.3-0.1-0.6c0,0,0-0.1,0-0.1c0-0.2,0.1-0.3,0.2-0.4l-0.3-0.2c0-0.6,0.3-2,0.7-4.1
		c0.1-0.4,0.3-1.3,0.6-2.5c0.4-0.7,0.5-1.1,0.6-1.1v0c0-0.1,0-0.1,0-0.1c0.7-0.3,1-0.5,1-0.6c0.3,0,0.7,0.3,1.1,1
		c0.3,0.5,0.6,0.9,0.8,1.2c0,0,0,0,0,0c0.1,0,0.2-0.1,0.5-0.3c1.1-1,2-1.7,2.6-2.2c1.1-0.8,2-1.3,2.8-1.5c0.2,0,0.4-0.1,0.5-0.3
		c0.5-0.2,0.8-0.3,1-0.3c0.5,0,1.1,0.6,1.7,1.7c0.3,0.4,0.6,1.1,1,2l0.4,2.3c0.1-0.1,0.4-0.4,1-0.8c0.3-0.2,0.5-0.4,0.8-0.8
		c0.9-1,1.9-1.9,3.1-2.6c1.4-0.9,2.6-1.3,3.6-1.3c0.7,0,1.4,0.4,2.1,1.3c0.7,0.9,1.1,1.7,1.2,2.6c0.1,0.6,0.3,1.5,0.6,2.6
		L310.1,46.9z"/>
	<path fill="#3DADA8" d="M334.4,44.8c0,0,0,0.2-0.1,0.4c-0.1,0.2-0.2,0.4-0.2,0.6c0,0.5-0.3,1.2-0.9,1.9c-0.6,0.7-1.2,1.2-1.8,1.5
		c-0.5,0.2-0.8,0.3-0.9,0.5l-3.3,1.6l-3.1,1l-0.1-0.1l-5.3,1.3c-0.1-0.1-0.2-0.1-0.3-0.1c-0.1,0-0.2,0-0.3,0.1l-1.5-0.6l-0.4,3.1V57
		l-0.5,4.6l0.1,3.2l-0.2,2.7c0,0-0.1,0.1-0.3,0.3c-0.1,0.2-0.3,0.2-0.4,0.2c-0.1,0-0.2-0.1-0.3-0.3c0,0,0,0.1-0.1,0.1l-0.2,0.2
		c0,0,0,0,0,0c-0.2,0-0.3-0.1-0.5-0.3c-0.8-0.4-1.3-1-1.6-2.1c-0.2-1.5-0.3-2.3-0.3-2.4V60l0.5-6.1c0.1-0.8,0.6-4.1,1.7-9.8
		c0.3-0.8,0.7-1.2,1.2-1.2l0.6,0.1c0.4,0.2,0.7,0.6,0.9,1c0.3,0.6,0.5,1,0.5,1.1c0,0,0,0.2,0,0.7L317,49c0,0.2,0,0.4,0.1,0.7
		c1.2-0.5,2.7-1.1,4.4-1.8c1.8-0.3,3.7-0.9,5.7-2c0.1,0,0.2-0.1,0.4-0.1c0.4-0.3,0.7-0.5,1-0.5c0.4-0.3,0.9-0.8,1.7-1.6
		c-0.2-0.5-0.6-0.9-1.2-1.2c-1-0.6-1.5-0.9-1.6-0.9l-0.3,0.1l-0.6-0.3l-0.2,0c-0.1,0-0.2,0-0.2,0l-1.8-0.4l-3.7,0.1
		c-0.1,0-0.3,0-0.5,0.1c-0.4,0.1-0.7,0.1-0.7,0.1c-1.8,0.2-3.2,0.6-4.3,1.2c-0.3,0-0.8,0.3-1.6,0.7c-1,0.5-1.5,1-1.5,1.5
		c0,0.2,0.1,0.4,0.3,0.7c-0.1,0.1-0.1,0.1-0.3,0.1c-0.1,0.1-0.1,0.2-0.1,0.3c0,0,0,0.1,0,0.1c0,0-0.1,0-0.2,0c-0.1,0-0.1,0-0.2,0
		l-0.2,0.5c-0.1,0-0.2-0.1-0.4-0.2c0,0-0.1,0.1-0.2,0.2h-0.4c-0.1-0.1-0.2-0.2-0.3-0.4L310,46c-0.2-0.3-0.5-0.6-0.7-0.7
		c0-0.3-0.1-0.6-0.1-0.8l-0.1-0.3v-1.4l0.3-0.4c0,0,0-0.1,0-0.1c0-0.4,0.2-0.8,0.7-1.2c0.4-0.3,0.8-0.6,1.2-0.9
		c0.1-0.2,0.2-0.3,0.3-0.5c0.2,0.1,0.3,0.1,0.4,0.1l5.1-2.4l3.2-0.9c0.4,0.1,0.8,0.2,1.2,0.2c0,0,0.1,0,0.3-0.1
		c0.2-0.1,0.3-0.1,0.3-0.1h1.6c0,0,0.1-0.1,0.2-0.1c0.6,0.1,1.1,0.2,1.5,0.3c0.5,0,0.9,0,1.2,0.1c0.6,0.1,1.1,0.2,1.5,0.5
		c0,0,0.1,0,0.2,0s0.2,0,0.2,0c1.2,0,2.5,0.8,3.8,2.4c0.3,0.4,0.7,0.9,1.2,1.6C334.1,42.9,334.4,44.1,334.4,44.8z"/>
	<path fill="#3DADA8" d="M351.5,43.2c-0.1,0.6-0.4,1.7-0.7,3.3c-0.2,0.7-0.6,1.6-1.3,2.8c-0.7,1-1.3,1.7-1.6,2.1
		c-0.7,0.8-1.5,1.2-2.2,1.4c-0.3,0.1-0.7,0.3-1.3,0.5c-0.9,0.2-1.5,0.3-1.7,0.3c-2.3,0-4.3-1.8-6-5.3c-0.2-0.9-0.3-1.7-0.3-2.3
		c0-0.4,0.1-1,0.3-1.8c0.6-0.5,1-0.7,1.2-0.7h0c1.3,0.6,1.9,1.5,1.9,2.8c0,0.5,0.3,1.2,1,2c0.7,0.3,1.1,0.5,1.1,0.5h0.5
		c0.1,0,0.6-0.2,1.3-0.4c1-0.7,1.7-1.2,2.1-1.5c0.8-0.7,1.2-1.4,1.3-2.1c0.1-0.4,0.5-1.4,1-3c0.3-1.1,0.7-1.8,1-2.2c0,0,0.1,0,0.2,0
		c0.1,0,0.2,0,0.3,0h0.5c0.1,0.1,0.2,0.3,0.4,0.4c0.2,0.4,0.5,0.9,0.9,1.5c0,0.1,0,0.3,0,0.4c0,0.2,0,0.3,0,0.5c0,0.1,0,0.2,0,0.3
		C351.3,42.9,351.4,43,351.5,43.2z"/>
	<path fill="#3DADA8" d="M367.2,49.6c0,0.5-0.1,1-0.3,1.5c-0.2,0.3-0.9,0.7-2.1,1.2c-1.3,0.5-2.4,0.8-3.1,0.8
		c-0.1,0-0.4-0.1-1.2-0.2c-0.2,0-0.3,0-0.5,0c-0.2,0-0.5,0-0.7,0.1l-1.5-0.3h-1.3c-0.2,0-0.6-0.1-1.3-0.4c-0.6-0.2-0.9-0.3-1.1-0.4
		c-0.1-0.2-0.2-0.5-0.4-0.7c0-0.1,0-0.2,0.1-0.2l-0.2-0.2c0.1-0.2,0.1-0.4,0.1-0.6c0-0.3-0.1-0.5-0.2-0.7c0.7-0.3,1.2-0.4,1.4-0.4
		h1.1l1.6-0.2h1l2.5-0.3c0.1-0.1,0.2-0.2,0.2-0.2c0-0.1-0.2-0.2-0.4-0.3c-0.3-0.1-0.9-0.4-1.8-0.7c-3-1.3-4.7-2.7-5.1-4.3
		c-0.1-0.3-0.2-0.5-0.3-0.6v-1.6c0-0.1,0.1-0.3,0.3-0.7c0.1-1.1,2.1-1.6,6.1-1.6h0c0,0,0.9,0.1,2.6,0.3c1.2,0.4,2,0.8,2.4,1
		c0.8,0.5,1.4,1.1,1.8,1.9c0,0.1-0.1,0.2-0.2,0.4c-0.2,0.2-0.2,0.4-0.2,0.5l0.1,0.2l-0.8,0.5h-0.2c0,0,0.1,0,0.1,0
		c0-0.1-0.6-0.2-1.9-0.6c-1.3-0.2-2.1-0.3-2.3-0.3l-2.1,0.3c0,0,0.1,0.1,0.1,0.2c0.1,0.1,0.3,0.2,0.5,0.4
		C364.7,45,367.2,47.2,367.2,49.6z"/>
	<path fill="#3DADA8" d="M403.4,49.8c-0.3,0.3-0.6,0.8-1.1,1.4l-0.5-0.1c0,0.1-0.1,0.2-0.2,0.4c-0.1-0.1-0.3-0.2-0.6-0.4
		c0,0,0,0-0.1,0c-0.3,0-0.9-0.3-1.7-1c-0.2-0.4-0.6-1.1-1.4-2.1l-4,3c0,0,0,0.1,0.1,0.1c0.1,0.1,0.1,0.1,0.1,0.1
		c-0.1,0.2-0.5,0.4-1.3,0.8c-2.2,0.7-3.3,1-3.3,1c-1.6,0-2.8-0.6-3.7-1.8c-0.4-1.2-0.7-2-0.7-2.6c0-0.4,0.4-1.4,1.2-3.3
		c0.7-0.8,1.2-1.2,1.5-1.2c0.1-0.1,0.9-0.6,2.2-1.6c0.6-0.3,1.7-0.7,3.1-1.3c1.4-0.3,2.2-0.5,2.2-0.6h0c0.1,0,0.4,0,0.8,0.1
		c0.3,0,0.6,0,0.8,0c0.1,0,0.2,0,0.2,0c0.6,0.3,0.9,0.6,0.9,0.9c0,0,0,0.1,0,0.1c0.1,0.1,0.4,0.5,0.8,1.3c0.1,0,0.2,0,0.3,0
		c0.4,0,0.9,0.2,1.3,0.6c0.7,1.1,1.3,2,1.8,2.9C402.7,47.9,403.2,48.9,403.4,49.8z M396,45.2h-0.8c-0.3,0-0.9,0.2-1.9,0.6l-1.7,0.7
		c-0.6,0.4-1.3,0.9-2.1,1.6l-0.1,0.2l0.9,0.1c2.1-0.5,3.7-1.4,4.9-2.6C395.3,45.7,395.6,45.5,396,45.2z"/>
	<path fill="#3DADA8" d="M422,58.6c-0.3,2.1-0.9,3.9-1.9,5.4c-0.1,0.2-0.5,0.6-1.2,1.3c-0.2,0.1-0.6,0.4-1.1,0.8
		c-0.6,0.3-1.1,0.5-1.6,0.7c-0.3,0.2-0.8,0.4-1.4,0.8c-0.3,0.1-0.9,0.3-1.6,0.6l-4.9,0.8l-2.4,0.1c-0.1,0-0.2-0.1-0.5-0.1
		c-0.5-0.1-1.2-0.2-2.1-0.5c-0.8-0.2-1.3-0.3-1.5-0.5c-0.2-0.1-0.7-0.5-1.7-1.2c-0.1-0.3-0.4-0.5-0.8-0.8c-0.6-1.4-1-2.2-1-2.3v-2.2
		l1-1.6c0.3-0.2,0.8-0.6,1.5-1c0.1,0.1,0.2,0.2,0.2,0.4c0,0.1-0.1,0.2-0.2,0.4c0,0,0.1,0,0.2,0c0.1,0,0.1-0.1,0.1-0.3
		c0.2-0.1,0.4-0.2,0.8-0.2l0,0.5l-0.3,0.2c0,0.1,0.1,0.3,0.2,0.6c0.3-0.1,0.4-0.1,0.5-0.1c-0.1,0.2-0.3,0.6-0.6,1v0.3
		c0,0,0.1,0.1,0.1,0.2c0,0.1,0,0.1,0,0.2c0,0.3,0,0.6,0.1,1.1c0,0.1,0.1,0.2,0.3,0.5c0.6,0.5,1.1,0.8,1.2,0.9
		c0.4,0.2,1.1,0.3,2.1,0.3l1.4,0.1c0,0,0.2,0,0.5-0.1c0.3-0.1,0.5-0.1,0.5-0.1c0,0,0.1,0,0.2,0c0.1,0,0.2,0,0.2,0
		c0.3,0,0.9-0.1,1.8-0.2c0.5-0.2,1-0.5,1.6-0.7c1-0.3,1.8-0.7,2.6-1.2c0.2-0.1,0.6-0.4,1-0.8c1.6-1,2.4-2.9,2.4-5.7l-1-5.9l-0.1-0.1
		h-0.3l-4.2,1.3c-0.2-0.1-0.6-0.1-1.1-0.1c-0.1,0-0.2,0-0.3,0c-1,0-2.2-0.4-3.5-1.3c-1.6-1-2.4-2-2.4-3l0.2-0.6
		c0-0.1-0.1-0.3-0.1-0.4c0-0.7,0.4-1.6,1.1-2.5c0.7-0.9,1.2-1.3,1.7-1.4c0.9-0.5,1.9-0.8,3-1c0.1,0,1-0.2,2.8-0.4l2-0.1
		c0.6,0.2,1.2,0.3,1.9,0.5c0.7,0.2,1.4,0.5,1.9,0.9v0.4c0.5,0.2,0.8,0.6,0.9,1.3c0.1,0.1,0.2,0.3,0.4,0.6c-0.1,0-0.2,0-0.3,0.1
		c0,0.4,0,0.6,0.1,0.6c0,0,0,0,0,0c-0.1,0-0.2-0.1-0.3-0.1l-0.1,0.1c0.2,0.4,0.4,0.9,0.7,1.5c0,0,0,0.1,0,0.1c0,0.1,0,0.1,0,0.1
		c0.1,1,0.4,2.8,0.7,5.6l0.4,3.2L422,58.6z M401.5,59c0,0,0,0.1-0.1,0.1c0,0,0,0,0,0c0,0-0.1,0-0.1,0C401.4,59,401.5,59,401.5,59z
		 M416.9,44.9l-1.5-0.1l-3,0.2c0,0,0,0,0,0c0,0-0.8,0.3-2.4,0.9l-0.5,0.5c0,0.1,0,0.1,0.1,0.2c1.1,0.3,1.9,0.4,2.3,0.4
		c0.8,0,1.7-0.2,2.8-0.6C415.9,45.9,416.7,45.4,416.9,44.9z"/>
	<path fill="#3DADA8" d="M444.8,42c-0.1,0-0.2,0.1-0.4,0.2c0,0.1,0,0.2,0,0.2l0.3,0.3c-0.5,0.1-0.9,0.3-1.4,0.5l-2.8-0.6
		c-0.5,0-1.2,0.1-2,0.3c-1,0.3-1.9,0.6-2.7,0.8c-1.6,0.6-3,1.2-4.3,1.8c-1.7,0.8-2.8,2-3.2,3.6c0,0.1,0.1,0.5,0.2,1.2v0.5
		c-0.1,0.2-0.2,0.3-0.2,0.5c0,0.1,0,0.1,0,0.2c0,0.1,0.1,0.2,0.2,0.3l-1.5,1h-0.3c-0.2-0.1-0.5-0.3-0.8-0.6l-0.4,0.1
		c-0.1-0.2-0.3-0.5-0.5-0.8c-0.1-0.3-0.2-0.5-0.3-0.7l-0.2-1v-1.3c0,0,0-0.1,0-0.2c0-0.1,0-0.2,0-0.2v-1.4c0-0.4,0.2-1.1,0.5-2.1
		c0.4-1.3,0.8-1.9,1.2-1.9h0.5l0.5,0.5h0.2c0.3,0,1.2-0.5,2.8-1.5c1.1-0.5,2.8-1.2,5-2.2c0.1,0,0.6-0.2,1.5-0.6
		c0.2,0,0.7-0.1,1.4-0.3l1.1-0.2h1.5c1.1,0,2.3,0.7,3.7,2.1c0.1,0.1,0.1,0.2,0.1,0.4c0.3,0.3,0.4,0.5,0.4,0.8V42z"/>
	<path fill="#3DADA8" d="M451.2,47.6L451.2,47.6c0,0,0,0,0,0.2c0,0.2-0.1,0.5-0.1,0.8c0,0.4,0,0.8,0,1.4v1.6l-0.5,1.1l-0.3-0.1
		c-0.1,0.1-0.2,0.1-0.3,0.2c-0.1,0-0.2-0.1-0.3-0.2c-0.1,0-0.2,0.1-0.3,0.2c-0.1-0.1-0.5-0.2-1.3-0.4c-0.4-0.6-0.7-1.6-1-3.1
		c-0.1-0.3-0.1-0.6-0.1-1c0-0.1,0-0.3,0-0.4l0.1-2.7l0.4-1.8c0.3-0.3,0.5-0.5,0.5-0.8l0.8-0.2c0.1,0,0.3,0.1,0.5,0.2
		c0.3,0.4,0.8,0.9,1.4,1.5c0.3,0.6,0.5,1.1,0.5,1.6L451.2,47.6z M452,36.2c-0.1,0.1-0.1,0.2-0.2,0.3c0.1,0.3,0.2,0.5,0.2,0.7
		c-0.1,0.2-0.4,0.3-0.8,0.6c0-0.1-0.1-0.1-0.3-0.1c-0.2,0-0.3,0-0.3,0.1c-0.4-0.2-0.9-0.4-1.5-0.5c-0.4-0.9-0.6-1.4-0.6-1.6
		c0,0,0,0,0,0l0.2-1.7c0.1,0,0.3-0.2,0.5-0.4h1c0.3,0.2,0.7,0.5,1,1.1c0.3,0.1,0.5,0.3,0.6,0.6C451.8,35.8,452,36.1,452,36.2z"/>
	<path fill="#3DADA8" d="M470.5,48.2c0,0.2,0,0.3,0,0.5c0,0.2,0,0.4,0,0.7c-0.2,0.3-0.5,0.6-1,0.9c-0.7,0.4-1.2,0.6-1.2,0.7
		c0,0.2-0.1,0.3-0.4,0.5c-0.6,0.3-1.6,0.6-3,0.9c-0.6,0.3-1.1,0.5-1.5,0.5c-0.2,0-0.3,0-0.4,0c-0.2,0.2-0.6,0.3-1,0.3
		c-0.2,0-0.6,0.1-1,0.1l-1.8-0.2c0,0-0.1,0-0.2,0c-0.1,0-0.2,0-0.2,0l-1.1-0.3c-0.2,0-0.3,0-0.3,0c-0.2,0-0.6-0.1-1.1-0.3
		c-0.5-0.2-0.9-0.4-1-0.4c-1.1-1.2-1.6-2.3-1.6-3.3c0-0.5,0.2-1.2,0.5-2.1c0.3-0.9,0.6-1.4,0.8-1.6c1.6-1.7,4.2-3.3,7.8-4.9
		c0.2-0.1,0.6-0.3,1.2-0.6c0.1,0,0.6-0.2,1.6-0.5c0.8-0.3,1.5-0.4,2-0.4c0,0,0.1,0,0.3,0c0.2,0,0.4,0,0.4,0c0.1,0,0.3,0,0.4-0.1
		l0.7,2c-0.2,0.3-0.4,0.7-0.7,1l0,0.2v0c-0.1,0.1-1.5,0.7-4.3,2c-0.1,0.1-0.3,0.3-0.6,0.6c-0.8,0.3-1.7,0.6-2.8,1
		c-0.9,0.4-1.6,1-2,1.9c0,0,0,0.1,0,0.2c0.6,0.4,1.5,0.6,2.6,0.6l7-0.8l1.9,0.5L470.5,48.2z"/>
	<path fill="#3DADA8" d="M490.9,45.7c0,0.8-0.2,1.4-0.7,2c0,0.1-0.1,0.3-0.2,0.6c-0.4,0.5-0.9,1.1-1.6,2c-1.1,0.7-2.2,1.4-3.1,2
		c-2.3,0.8-4.1,1.2-5.3,1.2h-1c-0.1,0-0.2,0-0.4-0.1c0,0,0,0,0,0c-0.3,0-1.1-0.2-2.4-0.6c-0.6-0.3-1.4-0.9-2.4-1.8
		c-0.1-0.3-0.4-0.7-0.7-1.3c-0.3-1.2-0.5-2.1-0.5-2.8l0.1-1.4v-2.2c0-0.1,0.1-0.4,0.3-1c0.2-0.6,0.3-1,0.4-1.3
		c0.2-0.5,1-1.2,2.3-2.1c0.2-0.1,0.6-0.2,1.1-0.3c0.1-0.1,0.3-0.2,0.5-0.3c0,0,0.1,0.1,0.2,0.1l0.9-0.3c0.6-0.2,1.1-0.3,1.5-0.3h2.9
		c0.3,0,0.7,0.1,1.1,0.2c0,0,0,0,0.1,0c0.7,0,2.1,0.7,4.2,2v0.3c0.3,0.3,0.8,0.7,1.4,1c0.2,0.2,0.6,1.1,1.3,2.5
		C490.8,44.4,490.9,45,490.9,45.7z M487.4,44.7v-0.4c-0.8-1.3-1.6-2-2.2-2c0,0-0.1,0-0.1,0c0,0-0.1,0-0.1,0h-0.2
		c-0.2-0.3-0.6-0.5-1.4-0.5c-0.1,0-0.2,0-0.3,0l-1.7,0.1l-3.7,0.7l-0.2,0.3v0.5c0,0.1,0,0.3,0.1,0.5c0,0.1-0.1,0.2-0.3,0.3
		c0.1,0.2,0.1,0.3,0.2,0.4c-0.2,0.2-0.3,0.3-0.5,0.3c0,0-0.2,0.3-0.4,0.8c-0.3,0.5-0.4,0.8-0.4,1c0,0,0,0.1,0.1,0.3
		c0.3,0.4,0.8,0.7,1.5,1c0.7,0.3,1.3,0.4,1.9,0.4c1.2-0.2,1.9-0.3,2.1-0.3l2.5-1c1.2-0.5,2-0.9,2.4-1.3
		C487.2,45.4,487.4,45,487.4,44.7z"/>
	<path fill="#3DADA8" d="M499,29.6l-2.7,24c-0.3,0-0.7,0.1-1.1,0.2c-0.1,0-0.2-0.1-0.3-0.2l-0.2,0c-0.1,0-0.3,0-0.4,0
		c0,0-0.3-0.3-0.8-0.6c-0.1,0-0.2,0.1-0.4,0.3c-0.1-0.2-0.2-0.4-0.3-0.7c-0.2-1.4-0.3-2.2-0.3-2.5l1.3-10.9c0.4-3,0.8-6.8,1.2-11.4
		c0.1-0.3,0.2-0.9,0.5-1.8c0.2-0.7,0.4-1.2,0.8-1.5l0.7,0.1c0.3,0.3,0.6,0.5,0.8,0.5c0.1,0.1,0.3,0.5,0.7,1c0.3,1,0.5,1.6,0.5,1.8
		V29.6z"/>
	<path fill="#3DADA8" d="M517.4,49.6c-0.1,0.2-0.3,0.5-0.5,0.9c-0.1,0-0.2,0-0.3-0.1c-0.1,0-0.3,0.1-0.5,0.3
		c0.2,0.1,0.5,0.2,0.9,0.4c-0.1,0-0.4,0.3-0.8,0.6c-0.4,0.2-1.1,0.3-1.9,0.5c-0.3,0.2-0.4,0.4-0.5,0.7l-3.9,0.5
		c-2.8-0.2-5-0.8-6.6-1.9c-1.2-1.2-1.9-2.6-2.2-4.2c-0.1-0.2-0.2-0.4-0.2-0.5c0-1,0.4-2.2,1.3-3.6c0.9-1.5,2-2.5,3.1-3
		c0.1,0,0.2,0,0.5,0c0.5-0.4,1.3-0.8,2.6-1.1c1.1-0.3,2-0.4,2.8-0.4c0.7,0,1.5,0.2,2.3,0.7c0,0,0,0.2,0,0.4c0.2,0,0.4,0.1,0.7,0.2
		c0,0.1,0.1,0.2,0.2,0.3c0,0.4,0.1,0.9,0.4,1.5v0.7c0,0.1-0.1,0.2-0.2,0.3c0.1,0.1,0.1,0.2,0.1,0.3c0,0.2-0.1,0.5-0.3,0.8
		c0,0.1,0,0.3-0.1,0.6c-0.2,0.3-0.5,0.8-0.9,1.4l-3.3,2.4c0.3,0.2,1.2,0.3,2.7,0.3l3.8,0.1C516.7,48.9,517,49.2,517.4,49.6z
		 M510.2,42.8L510.2,42.8c0,0,0-0.1-0.1-0.2c-0.8,0.3-1.3,0.5-1.6,0.7c-0.7,0.4-1.3,0.8-1.5,1.3c0.1,0,0.1,0,0.2,0.1
		C508.6,44.1,509.6,43.5,510.2,42.8z"/>
	<path fill="#3DADA8" d="M557.8,44.8c0,0,0,0.2-0.1,0.4c-0.1,0.2-0.2,0.4-0.2,0.6c0,0.5-0.3,1.2-0.9,1.9c-0.6,0.7-1.2,1.2-1.8,1.5
		c-0.5,0.2-0.8,0.3-0.9,0.5l-3.3,1.6l-3.1,1l-0.1-0.1l-5.3,1.3c-0.1-0.1-0.2-0.1-0.3-0.1c-0.1,0-0.2,0-0.3,0.1l-1.5-0.6l-0.4,3.1V57
		l-0.5,4.6l0.1,3.2l-0.2,2.7c0,0-0.1,0.1-0.3,0.3c-0.1,0.2-0.3,0.2-0.4,0.2c-0.1,0-0.2-0.1-0.3-0.3c0,0,0,0.1-0.1,0.1l-0.2,0.2
		c0,0,0,0,0,0c-0.2,0-0.3-0.1-0.5-0.3c-0.8-0.4-1.3-1-1.6-2.1c-0.2-1.5-0.3-2.3-0.3-2.4V60l0.5-6.1c0.1-0.8,0.6-4.1,1.7-9.8
		c0.3-0.8,0.7-1.2,1.2-1.2l0.6,0.1c0.4,0.2,0.7,0.6,0.9,1c0.3,0.6,0.5,1,0.5,1.1c0,0,0,0.2,0,0.7l-0.3,3.1c0,0.2,0,0.4,0.1,0.7
		c1.2-0.5,2.7-1.1,4.4-1.8c1.8-0.3,3.7-0.9,5.7-2c0.1,0,0.2-0.1,0.4-0.1c0.4-0.3,0.7-0.5,1-0.5c0.4-0.3,0.9-0.8,1.7-1.6
		c-0.2-0.5-0.6-0.9-1.2-1.2c-1-0.6-1.5-0.9-1.6-0.9l-0.3,0.1l-0.6-0.3l-0.2,0c-0.1,0-0.2,0-0.2,0l-1.8-0.4l-3.7,0.1
		c-0.1,0-0.3,0-0.5,0.1c-0.4,0.1-0.7,0.1-0.7,0.1c-1.8,0.2-3.2,0.6-4.3,1.2c-0.3,0-0.8,0.3-1.6,0.7c-1,0.5-1.5,1-1.5,1.5
		c0,0.2,0.1,0.4,0.3,0.7c-0.1,0.1-0.1,0.1-0.3,0.1c-0.1,0.1-0.1,0.2-0.1,0.3c0,0,0,0.1,0,0.1c0,0-0.1,0-0.2,0c-0.1,0-0.1,0-0.2,0
		l-0.2,0.5c-0.1,0-0.2-0.1-0.4-0.2c0,0-0.1,0.1-0.2,0.2h-0.4c-0.1-0.1-0.2-0.2-0.3-0.4l-0.2,0.2c-0.2-0.3-0.5-0.6-0.7-0.7
		c0-0.3-0.1-0.6-0.1-0.8l-0.1-0.3v-1.4l0.3-0.4c0,0,0-0.1,0-0.1c0-0.4,0.2-0.8,0.7-1.2c0.4-0.3,0.8-0.6,1.2-0.9
		c0.1-0.2,0.2-0.3,0.3-0.5c0.2,0.1,0.3,0.1,0.4,0.1l5.1-2.4l3.2-0.9c0.4,0.1,0.8,0.2,1.2,0.2c0,0,0.1,0,0.3-0.1
		c0.2-0.1,0.3-0.1,0.3-0.1h1.6c0,0,0.1-0.1,0.2-0.1c0.6,0.1,1.1,0.2,1.5,0.3c0.5,0,0.9,0,1.2,0.1c0.6,0.1,1.1,0.2,1.5,0.5
		c0,0,0.1,0,0.2,0s0.2,0,0.2,0c1.2,0,2.5,0.8,3.8,2.4c0.3,0.4,0.7,0.9,1.2,1.6C557.5,42.9,557.8,44.1,557.8,44.8z"/>
	<path fill="#3DADA8" d="M574.9,43.2c-0.1,0.6-0.4,1.7-0.7,3.3c-0.2,0.7-0.6,1.6-1.3,2.8c-0.7,1-1.3,1.7-1.6,2.1
		c-0.7,0.8-1.5,1.2-2.2,1.4c-0.3,0.1-0.7,0.3-1.3,0.5c-0.9,0.2-1.5,0.3-1.7,0.3c-2.3,0-4.3-1.8-6-5.3c-0.2-0.9-0.3-1.7-0.3-2.3
		c0-0.4,0.1-1,0.3-1.8c0.6-0.5,1-0.7,1.2-0.7h0c1.3,0.6,1.9,1.5,1.9,2.8c0,0.5,0.3,1.2,1,2c0.7,0.3,1.1,0.5,1.1,0.5h0.5
		c0.1,0,0.6-0.2,1.3-0.4c1-0.7,1.7-1.2,2.1-1.5c0.8-0.7,1.2-1.4,1.3-2.1c0.1-0.4,0.5-1.4,1-3c0.3-1.1,0.7-1.8,1-2.2c0,0,0.1,0,0.2,0
		c0.1,0,0.2,0,0.3,0h0.5c0.1,0.1,0.2,0.3,0.4,0.4c0.2,0.4,0.5,0.9,0.9,1.5c0,0.1,0,0.3,0,0.4c0,0.2,0,0.3,0,0.5c0,0.1,0,0.2,0,0.3
		C574.8,42.9,574.8,43,574.9,43.2z"/>
	<path fill="#3DADA8" d="M598.8,43.6c0,0.2-0.3,1-1,2.4c-0.3,0.2-0.5,0.5-0.6,0.8c-1.2,1.1-2.7,2.1-4.4,3c-0.3,0.2-1.8,0.8-4.4,2
		c-0.4,0.1-0.9,0.2-1.7,0.4c-0.8,0.2-1.2,0.3-1.2,0.3s-0.1,0-0.3,0c-0.2,0-0.3,0-0.3,0c-0.3-0.3-0.6-0.5-0.9-0.5c-0.1,0-0.1,0-0.2,0
		c-0.1-0.1-0.2-0.3-0.4-0.6c-0.1,0.3-0.3,0.6-0.5,0.9c-0.2,0.1-0.3,0.1-0.5,0.1c-0.1,0-0.1,0-0.2,0l-0.3,0.3h-0.2
		c-0.1,0-0.3-0.1-0.9-0.4c-0.3,0.1-0.4,0.1-0.5,0.1c-0.5-0.4-0.8-0.8-0.8-1.1c-0.2-0.3-0.4-0.8-0.5-1.3c-0.2-0.3-0.3-0.6-0.3-0.9
		c0-0.2-0.1-0.5-0.1-0.9c-0.1-0.4-0.1-0.7-0.2-0.7v0.1v-1.6c-0.1-0.5-0.1-0.9-0.1-1.1c0-0.1,0-0.1,0-0.1c0-0.1,0-0.3,0-0.4
		c0-0.2,0-0.4,0.1-0.6c-0.1-0.2-0.4-0.4-1-0.6c-0.4-0.4-0.6-0.9-0.6-1.5c0-0.4,0.2-0.8,0.5-1.3c0.3-0.5,0.6-0.8,0.9-1l0.1-7.7
		c0-0.5,0.1-1.6,0.2-3.2c0.1-0.9,0.3-1.7,0.7-2.4c0.1-0.1,0.2-0.2,0.4-0.3c0.4-0.2,0.6-0.3,0.8-0.3c0,0,0.1,0,0.3,0.1
		c0.2,0.1,0.3,0.1,0.3,0.1c0.1,0.3,0.4,0.7,0.8,1.2c0.1,0.4,0.3,0.9,0.5,1.5c0,0.1,0,0.1,0,0.2c0,0.2,0,0.4,0,0.7
		c0,0.3,0.1,0.7,0.1,1.1l0.3,7.4c0,0.1,0.1,0.1,0.2,0.2c0.1,0,0.4-0.1,1.1-0.1l3.2-0.3l3.1,0.1c0.1,0,0.5,0,1.2,0.1
		c0.8,0.2,1.6,0.3,2.2,0.5c0.1,0.1,0.3,0.2,0.6,0.3c0.8,0.2,1.7,0.7,2.6,1.6c0.8,0.8,1.3,1.5,1.6,2.3
		C598.5,43.1,598.7,43.6,598.8,43.6C598.8,43.6,598.8,43.6,598.8,43.6z M593.7,43.6v-0.2c-0.2-0.3-0.6-0.6-1-0.9
		c-1.1-0.4-2.4-0.7-3.8-0.8c-0.2-0.1-0.4-0.1-0.4-0.1h0l-3.1,0.1c-0.5,0-1.5,0.3-2.9,0.8V43c0,0,0,0.1,0.1,0.2
		c0.1,0.1,0.1,0.2,0.1,0.2v1.6l0.6,4.1c0,0,0.1-0.1,0.2-0.1c0-0.1,0.1-0.2,0.2-0.3c0.8-0.5,2.1-1.1,4-1.7c1.8-0.7,2.9-1.2,3.3-1.5
		C591.3,45.5,592.2,44.8,593.7,43.6z"/>
	<path fill="#3DADA8" d="M606.7,29.6l-2.7,24c-0.3,0-0.7,0.1-1.1,0.2c-0.1,0-0.2-0.1-0.3-0.2l-0.2,0c-0.1,0-0.3,0-0.4,0
		c0,0-0.3-0.3-0.8-0.6c-0.1,0-0.2,0.1-0.4,0.3c-0.1-0.2-0.2-0.4-0.3-0.7c-0.2-1.4-0.3-2.2-0.3-2.5l1.3-10.9c0.4-3,0.8-6.8,1.2-11.4
		c0.1-0.3,0.2-0.9,0.5-1.8c0.2-0.7,0.4-1.2,0.8-1.5l0.7,0.1c0.3,0.3,0.6,0.5,0.8,0.5c0.1,0.1,0.3,0.5,0.7,1c0.3,1,0.5,1.6,0.5,1.8
		V29.6z"/>
	<path fill="#3DADA8" d="M613.5,47.6L613.5,47.6c0,0,0,0,0,0.2c0,0.2-0.1,0.5-0.1,0.8c0,0.4,0,0.8,0,1.4v1.6l-0.5,1.1l-0.3-0.1
		c-0.1,0.1-0.2,0.1-0.3,0.2c-0.1,0-0.2-0.1-0.3-0.2c-0.1,0-0.2,0.1-0.3,0.2c-0.1-0.1-0.5-0.2-1.3-0.4c-0.4-0.6-0.7-1.6-1-3.1
		c-0.1-0.3-0.1-0.6-0.1-1c0-0.1,0-0.3,0-0.4l0.1-2.7l0.4-1.8c0.3-0.3,0.5-0.5,0.5-0.8l0.8-0.2c0.1,0,0.3,0.1,0.5,0.2
		c0.3,0.4,0.8,0.9,1.4,1.5c0.3,0.6,0.5,1.1,0.5,1.6L613.5,47.6z M614.3,36.2c-0.1,0.1-0.1,0.2-0.2,0.3c0.1,0.3,0.2,0.5,0.2,0.7
		c-0.1,0.2-0.4,0.3-0.8,0.6c0-0.1-0.1-0.1-0.3-0.1c-0.2,0-0.3,0-0.3,0.1c-0.4-0.2-0.9-0.4-1.5-0.5c-0.4-0.9-0.6-1.4-0.6-1.6
		c0,0,0,0,0,0l0.2-1.7c0.1,0,0.3-0.2,0.5-0.4h1c0.3,0.2,0.7,0.5,1,1.1c0.3,0.1,0.5,0.3,0.6,0.6C614.2,35.8,614.3,36.1,614.3,36.2z"
		/>
	<path fill="#3DADA8" d="M632.9,48.2c0,0.2,0,0.3,0,0.5c0,0.2,0,0.4,0,0.7c-0.2,0.3-0.5,0.6-1,0.9c-0.7,0.4-1.2,0.6-1.2,0.7
		c0,0.2-0.1,0.3-0.4,0.5c-0.6,0.3-1.6,0.6-3,0.9c-0.6,0.3-1.1,0.5-1.5,0.5c-0.2,0-0.3,0-0.4,0c-0.2,0.2-0.5,0.3-1,0.3
		c-0.2,0-0.6,0.1-1,0.1l-1.8-0.2c0,0-0.1,0-0.2,0s-0.2,0-0.2,0l-1.1-0.3c-0.2,0-0.3,0-0.3,0c-0.2,0-0.6-0.1-1.1-0.3
		c-0.5-0.2-0.9-0.4-1-0.4c-1.1-1.2-1.6-2.3-1.6-3.3c0-0.5,0.2-1.2,0.5-2.1c0.3-0.9,0.6-1.4,0.8-1.6c1.6-1.7,4.2-3.3,7.8-4.9
		c0.2-0.1,0.6-0.3,1.2-0.6c0.1,0,0.6-0.2,1.6-0.5c0.8-0.3,1.5-0.4,2-0.4c0,0,0.1,0,0.3,0c0.2,0,0.4,0,0.4,0c0.1,0,0.3,0,0.4-0.1
		l0.7,2c-0.2,0.3-0.4,0.7-0.7,1l0,0.2v0c-0.1,0.1-1.5,0.7-4.3,2c-0.1,0.1-0.3,0.3-0.6,0.6c-0.8,0.3-1.7,0.6-2.8,1
		c-0.9,0.4-1.6,1-2,1.9c0,0,0,0.1,0,0.2c0.6,0.4,1.5,0.6,2.6,0.6l7-0.8l1.9,0.5L632.9,48.2z"/>
	<path fill="#3DADA8" d="M688.1,27.4c-0.1,0.2-0.1,0.5-0.2,1c0,0.5-0.1,0.8-0.1,0.9c0.1,0.2,0.2,0.3,0.2,0.5c0,0-0.1,0-0.2,0
		c-0.1,0-0.1,0-0.2,0c-0.1,0.3-0.3,0.7-0.7,1.2c0.1,0.2,0.1,0.2,0.1,0.2c-0.1,0.1-0.2,0.2-0.4,0.3l-2.1-0.2l-3,0.2c0,0,0,0,0,0
		c-0.1,0-0.1-0.1-0.2-0.2c0,0,0,0,0,0c-0.1,0-0.2,0.1-0.4,0.2c-0.1,0-0.2,0-0.5,0s-0.4,0-0.5,0c-0.4,0-0.7,0-0.9,0.1
		c0-0.1-0.1-0.2-0.2-0.3c0,0.1-0.2,0.1-0.4,0.1l-1.6,0.5c-0.1,0-0.3,0-0.6,0l-0.4,0c-0.1,0-0.2-0.1-0.3-0.2l-0.1,0.2
		c0,0-0.2,0-0.6,0.1c-0.3,0.1-0.5,0.1-0.5,0.1c0,0-0.2,0-0.6-0.1c-0.4-0.1-0.6-0.1-0.6-0.1l-1.9,0.2c-0.1,0.2-0.2,0.3-0.2,0.3
		c-0.1-0.1-0.2-0.1-0.3-0.3c-0.2,0.1-0.3,0.1-0.4,0.1c-0.1,0-0.2,0-0.3-0.1c-0.2,0.1-0.2,0.2-0.2,0.3h-0.9c0,0.1-0.1,0.1-0.1,0.2
		l-2.2,0.5c-0.4,1-0.8,3-1.4,6.1c0,0.2,0,0.3,0,0.5c0,0.1,0,0.2,0,0.3c-0.8,4.8-1.2,8.4-1.3,10.8c-0.1,0.1-0.2,0.1-0.4,0.1
		c-0.1,0.3-0.1,0.5-0.1,0.7c-0.4,0.2-0.6,0.4-0.8,0.6h0.1c-0.1-0.1-0.6-0.2-1.5-0.3c-0.2-0.4-0.2-0.6-0.3-0.6c0,0-0.1,0-0.3,0
		c-0.2-0.3-0.4-0.7-0.7-1.3l0.1-4l1.4-8.7c0.2-0.9,0.5-2,0.7-3V34c-0.1-0.1-0.1-0.2-0.2-0.3c-0.5,0.1-0.7,0.2-0.7,0.2h0
		c0,0-0.1,0-0.2-0.1c-0.1-0.1-0.1-0.1-0.1-0.1c0,0-0.3,0.1-0.7,0.2c-0.4,0.1-0.7,0.2-0.7,0.2c0,0-0.1,0-0.3,0c-0.2,0-0.3,0-0.3,0
		l-2,0.4c-0.2-0.1-0.4-0.1-0.4-0.1l-2.7,0.6l-2.7,0.3l-1.5,0c-0.4-0.3-0.7-0.5-1.1-0.6c-0.1-0.1-0.1-0.2-0.1-0.3
		c-0.1-0.1-0.2-0.2-0.3-0.2c0,0,0-0.1,0-0.1c0-0.2-0.1-0.4-0.3-0.7v-0.4l0.7-2.3c0.2-0.1,0.6-0.3,1-0.6c1.4-0.3,4.2-0.7,8.3-1.3
		l24.1-3h5.1c0,0.1,0.2,0.3,0.5,0.7c0.3,0.4,0.4,0.6,0.4,0.7c0,0.1,0,0.1,0,0.1C687.8,27.3,687.9,27.3,688.1,27.4z"/>
	<path fill="#3DADA8" d="M690.9,42c-0.1,0-0.2,0.1-0.4,0.2c0,0.1,0,0.2,0,0.2l0.3,0.3c-0.5,0.1-0.9,0.3-1.4,0.5l-2.8-0.6
		c-0.5,0-1.2,0.1-2,0.3c-1,0.3-1.9,0.6-2.7,0.8c-1.6,0.6-3,1.2-4.3,1.8c-1.7,0.8-2.8,2-3.2,3.6c0,0.1,0,0.5,0.2,1.2v0.5
		c-0.1,0.2-0.2,0.3-0.2,0.5c0,0.1,0,0.1,0,0.2c0,0.1,0.1,0.2,0.2,0.3l-1.5,1h-0.3c-0.2-0.1-0.5-0.3-0.8-0.6l-0.4,0.1
		c-0.1-0.2-0.3-0.5-0.5-0.8c-0.1-0.3-0.2-0.5-0.3-0.7l-0.2-1v-1.3c0,0,0-0.1,0-0.2c0-0.1,0-0.2,0-0.2v-1.4c0-0.4,0.2-1.1,0.5-2.1
		c0.4-1.3,0.8-1.9,1.2-1.9h0.5l0.5,0.5h0.2c0.3,0,1.2-0.5,2.8-1.5c1.1-0.5,2.8-1.2,5-2.2c0.1,0,0.6-0.2,1.5-0.6
		c0.2,0,0.7-0.1,1.4-0.3l1.1-0.2h1.5c1.1,0,2.3,0.7,3.7,2.1c0.1,0.1,0.1,0.2,0.1,0.4c0.3,0.3,0.4,0.5,0.4,0.8V42z"/>
	<path fill="#3DADA8" d="M710.4,49.8c-0.3,0.3-0.6,0.8-1.1,1.4l-0.5-0.1c0,0.1-0.1,0.2-0.2,0.4c-0.1-0.1-0.3-0.2-0.6-0.4
		c0,0,0,0-0.1,0c-0.3,0-0.9-0.3-1.7-1c-0.2-0.4-0.6-1.1-1.4-2.1l-4,3c0,0,0,0.1,0.1,0.1c0,0.1,0.1,0.1,0.1,0.1
		c-0.1,0.2-0.5,0.4-1.3,0.8c-2.2,0.7-3.3,1-3.3,1c-1.6,0-2.8-0.6-3.7-1.8c-0.4-1.2-0.7-2-0.7-2.6c0-0.4,0.4-1.4,1.2-3.3
		c0.7-0.8,1.2-1.2,1.5-1.2c0.1-0.1,0.9-0.6,2.2-1.6c0.6-0.3,1.7-0.7,3.1-1.3c1.4-0.3,2.2-0.5,2.2-0.6h0c0.1,0,0.4,0,0.8,0.1
		c0.3,0,0.6,0,0.8,0c0.1,0,0.2,0,0.2,0c0.6,0.3,0.9,0.6,0.9,0.9c0,0,0,0.1,0,0.1c0.1,0.1,0.4,0.5,0.8,1.3c0.1,0,0.2,0,0.3,0
		c0.4,0,0.9,0.2,1.3,0.6c0.7,1.1,1.3,2,1.8,2.9C709.7,47.9,710.2,48.9,710.4,49.8z M703,45.2h-0.8c-0.3,0-0.9,0.2-1.9,0.6l-1.7,0.7
		c-0.6,0.4-1.3,0.9-2.1,1.6l-0.1,0.2l0.9,0.1c2.1-0.5,3.7-1.4,4.9-2.6C702.4,45.7,702.6,45.5,703,45.2z"/>
	<path fill="#3DADA8" d="M729.1,48.2c0,0.2,0,0.3,0,0.5c0,0.2,0,0.4,0,0.7c-0.2,0.3-0.5,0.6-1,0.9c-0.7,0.4-1.2,0.6-1.2,0.7
		c0,0.2-0.1,0.3-0.4,0.5c-0.6,0.3-1.6,0.6-3,0.9c-0.6,0.3-1.1,0.5-1.5,0.5c-0.2,0-0.3,0-0.4,0c-0.2,0.2-0.5,0.3-1,0.3
		c-0.2,0-0.6,0.1-1,0.1l-1.8-0.2c0,0-0.1,0-0.2,0c-0.1,0-0.2,0-0.2,0l-1.1-0.3c-0.2,0-0.3,0-0.3,0c-0.2,0-0.6-0.1-1.1-0.3
		c-0.5-0.2-0.9-0.4-1-0.4c-1.1-1.2-1.6-2.3-1.6-3.3c0-0.5,0.2-1.2,0.5-2.1c0.3-0.9,0.6-1.4,0.8-1.6c1.6-1.7,4.2-3.3,7.8-4.9
		c0.2-0.1,0.6-0.3,1.2-0.6c0.1,0,0.6-0.2,1.6-0.5c0.8-0.3,1.5-0.4,2-0.4c0,0,0.1,0,0.3,0c0.2,0,0.4,0,0.4,0c0.1,0,0.3,0,0.4-0.1
		l0.7,2c-0.2,0.3-0.4,0.7-0.7,1l0,0.2v0c-0.1,0.1-1.5,0.7-4.3,2c-0.1,0.1-0.3,0.3-0.6,0.6c-0.8,0.3-1.7,0.6-2.8,1
		c-0.9,0.4-1.6,1-2,1.9c0,0,0,0.1,0,0.2c0.6,0.4,1.5,0.6,2.6,0.6l7-0.8l1.9,0.5L729.1,48.2z"/>
	<path fill="#3DADA8" d="M745.3,45.5c0,1.2-0.6,3.8-1.7,7.6c-0.2,0.6-1,2.9-2.5,7c0,0.1,0.1,0.1,0.2,0.1H741l-1.4,3.4l-1.6,5
		c-0.1,0.1-0.4,0.3-0.8,0.8c-0.1,0-0.2,0-0.5,0.1l-0.4,0.1c0,0-0.2,0-0.4-0.1c-0.3-0.3-0.8-0.9-1.5-1.6c-0.2-0.8-0.4-1.6-0.4-2.3
		l0.4-2.2l1.5-4.3l2.8-6.8c0-0.1-0.1-0.2-0.1-0.3c-1.1,0.3-1.9,0.5-2.3,0.5c-1.7,0-3-1.1-4-3.2c-0.8-1.7-1.2-3.5-1.2-5.4
		c0-0.5,0.1-1,0.3-1.6c0.2-0.2,0.5-0.5,0.9-0.9h0.2c0.5,0,1,0.4,1.5,1.2c0.2,0.3,0.4,0.7,0.5,1.3c0.5,2.4,0.9,3.6,1.3,3.6
		c0.8,0,2-0.6,3.4-1.8c1.2-1,2.2-2,3-3c0.2,0,0.4-0.1,0.6-0.3c0.2,0.1,0.5,0.1,0.8,0.1c0.2,0.2,0.4,0.5,0.8,0.9
		c0.1,0,0.2,0.1,0.3,0.1C745.1,44,745.3,44.7,745.3,45.5z"/>
	<path fill="#3DADA8" d="M787.4,27.6c-0.1,0.3-0.3,0.9-0.4,1.6c-0.2,0.3-0.4,0.8-0.8,1.5c-0.5,0.6-0.8,1.3-1,1.9
		c-0.1,0.1-0.4,0.6-1.1,1.6c-0.7,1.4-1.3,2.5-2,3.3l-2.6,5.3l-2.3,3.8c-0.1,0.1-0.1,0.3-0.1,0.5c-0.8,1.4-1.8,3.1-3,5.2
		c-0.1,0.3-0.3,0.4-0.4,0.5l0.1,0.3c-0.2,0.2-0.3,0.2-0.5,0.2c-0.2,0.3-0.3,0.5-0.4,0.7c-0.1,0-0.2,0-0.6,0c-0.3,0-0.5,0.1-0.5,0.1
		l-0.1-0.1l-1.3-0.4c-1.2-1.5-2.2-3.3-3-5.6c-0.3-0.9-0.9-2.7-1.7-5.3c0-0.1-0.1-0.3-0.1-0.7c-0.1-0.1-0.1-0.2-0.2-0.3
		c0-0.1-0.2-1-0.7-2.5c-0.4-1.4-1-4-1.7-7.6l0.6-2.7c0.3-0.1,0.5-0.3,0.8-0.5h0.3c0.2,0,0.6,0.4,1.3,1.2c0.6,0.9,1,2,1.4,3.3
		l1.1,3.9l3.5,10c0.6-0.6,1.3-1.7,2.2-3.1c0.9-1.5,1.8-3,2.7-4.5c0.2-0.4,0.8-1.2,1.6-2.6c0.1-0.2,0.1-0.3,0.1-0.4
		c0.1-0.2,0.3-0.4,0.6-0.8c1-1.6,2.5-4.4,4.6-8.6c0.3-0.4,0.7-1,1.4-1.9c0.1,0,0.2-0.1,0.4-0.3c0,0,0.1,0,0.1,0c0.1,0,0.3,0,0.4-0.1
		c0,0.1,0,0.3,0.1,0.5c0.2,0.1,0.5,0.2,0.8,0.2L787,26c0.1,0,0.2,0.1,0.4,0.2c0,0.1,0,0.3,0,0.5C787.4,27,787.4,27.3,787.4,27.6z"/>
	<path fill="#3DADA8" d="M794.8,47.6L794.8,47.6c0,0,0,0,0,0.2c0,0.2-0.1,0.5-0.1,0.8c0,0.4,0,0.8,0,1.4v1.6l-0.5,1.1l-0.3-0.1
		c-0.1,0.1-0.2,0.1-0.3,0.2c-0.1,0-0.2-0.1-0.3-0.2c-0.1,0-0.2,0.1-0.3,0.2c-0.1-0.1-0.5-0.2-1.3-0.4c-0.4-0.6-0.7-1.6-1-3.1
		c0-0.3-0.1-0.6-0.1-1c0-0.1,0-0.3,0-0.4l0.1-2.7l0.4-1.8c0.3-0.3,0.5-0.5,0.5-0.8l0.8-0.2c0.1,0,0.3,0.1,0.5,0.2
		c0.3,0.4,0.8,0.9,1.4,1.5c0.3,0.6,0.5,1.1,0.5,1.6L794.8,47.6z M795.7,36.2c-0.1,0.1-0.1,0.2-0.2,0.3c0.1,0.3,0.2,0.5,0.2,0.7
		c-0.1,0.2-0.4,0.3-0.8,0.6c0-0.1-0.1-0.1-0.3-0.1c-0.2,0-0.3,0-0.3,0.1c-0.4-0.2-0.9-0.4-1.5-0.5c-0.4-0.9-0.6-1.4-0.6-1.6
		c0,0,0,0,0,0l0.2-1.7c0.1,0,0.3-0.2,0.5-0.4h1c0.3,0.2,0.7,0.5,1,1.1c0.3,0.1,0.5,0.3,0.6,0.6C795.5,35.8,795.6,36.1,795.7,36.2z"
		/>
	<path fill="#3DADA8" d="M817.7,42c-0.1,0-0.2,0.1-0.4,0.2c0,0.1,0,0.2,0,0.2l0.3,0.3c-0.5,0.1-0.9,0.3-1.4,0.5l-2.8-0.6
		c-0.5,0-1.2,0.1-2,0.3c-1,0.3-1.9,0.6-2.7,0.8c-1.6,0.6-3,1.2-4.3,1.8c-1.7,0.8-2.8,2-3.2,3.6c0,0.1,0,0.5,0.2,1.2v0.5
		c-0.1,0.2-0.2,0.3-0.2,0.5c0,0.1,0,0.1,0,0.2c0,0.1,0.1,0.2,0.2,0.3l-1.5,1h-0.3c-0.2-0.1-0.5-0.3-0.8-0.6l-0.4,0.1
		c-0.1-0.2-0.3-0.5-0.5-0.8c-0.1-0.3-0.2-0.5-0.3-0.7l-0.2-1v-1.3c0,0,0-0.1,0-0.2c0-0.1,0-0.2,0-0.2v-1.4c0-0.4,0.2-1.1,0.5-2.1
		c0.4-1.3,0.8-1.9,1.2-1.9h0.5l0.5,0.5h0.2c0.3,0,1.2-0.5,2.8-1.5c1.1-0.5,2.8-1.2,5-2.2c0.1,0,0.6-0.2,1.5-0.6
		c0.2,0,0.7-0.1,1.4-0.3l1.1-0.2h1.5c1.1,0,2.3,0.7,3.7,2.1c0.1,0.1,0.1,0.2,0.1,0.4c0.3,0.3,0.4,0.5,0.4,0.8V42z"/>
	<path fill="#3DADA8" d="M835.7,49.6c-0.1,0.2-0.3,0.5-0.5,0.9c-0.1,0-0.2,0-0.3-0.1c-0.1,0-0.3,0.1-0.5,0.3
		c0.2,0.1,0.5,0.2,0.9,0.4c-0.1,0-0.4,0.3-0.8,0.6c-0.4,0.2-1.1,0.3-1.9,0.5c-0.3,0.2-0.4,0.4-0.5,0.7l-3.9,0.5
		c-2.8-0.2-5-0.8-6.6-1.9c-1.2-1.2-1.9-2.6-2.2-4.2c-0.1-0.2-0.2-0.4-0.2-0.5c0-1,0.4-2.2,1.3-3.6c0.9-1.5,2-2.5,3.1-3
		c0.1,0,0.2,0,0.5,0c0.5-0.4,1.3-0.8,2.6-1.1c1.1-0.3,2-0.4,2.8-0.4c0.7,0,1.5,0.2,2.3,0.7c0,0,0,0.2,0,0.4c0.2,0,0.4,0.1,0.7,0.2
		c0,0.1,0.1,0.2,0.2,0.3c0,0.4,0.1,0.9,0.4,1.5v0.7c0,0.1-0.1,0.2-0.2,0.3c0.1,0.1,0.1,0.2,0.1,0.3c0,0.2-0.1,0.5-0.3,0.8
		c0,0.1,0,0.3-0.1,0.6c-0.2,0.3-0.5,0.8-0.9,1.4l-3.3,2.4c0.3,0.2,1.2,0.3,2.7,0.3l3.8,0.1C835,48.9,835.3,49.2,835.7,49.6z
		 M828.5,42.8L828.5,42.8c0,0,0-0.1-0.1-0.2c-0.8,0.3-1.3,0.5-1.6,0.7c-0.7,0.4-1.3,0.8-1.5,1.3c0.1,0,0.1,0,0.2,0.1
		C827,44.1,827.9,43.5,828.5,42.8z"/>
</g>
</svg>
