<?xml version="1.0" encoding="utf-8"?>
<!-- Generator: Adobe Illustrator 27.4.1, SVG Export Plug-In . SVG Version: 6.00 Build 0)  -->
<svg version="1.1" id="Calque_1" xmlns="http://www.w3.org/2000/svg" xmlns:xlink="http://www.w3.org/1999/xlink" x="0px" y="0px"
	 viewBox="0 0 1000 1000" enable-background="new 0 0 1000 1000" xml:space="preserve">
<path fill="none" stroke="#000000" stroke-width="5" stroke-miterlimit="10" d="M169.2,718.2"/>
<g opacity="0.5">
	<path fill="none" stroke="#000000" stroke-width="5" stroke-miterlimit="10" d="M154.7,635.1"/>
	<g>
		<path d="M134.8,646.3l6.2-9.7l4.9,3.1l-6.2,9.7L134.8,646.3z"/>
		<path d="M117.2,638.4l3.7-10.9l5.5,1.9l-3.7,10.9L117.2,638.4z"/>
		<path d="M98,624.5h5.8V636H98V624.5z"/>
		<path d="M75.5,629.3l5.5-1.9l3.7,10.9l-5.5,1.9L75.5,629.3z"/>
		<path d="M55.9,639.6l4.9-3.1l6.2,9.7l-4.9,3.1L55.9,639.6z"/>
		<path d="M148.6,672.5l1.5-1.9l-1.6-1.8c-0.2-0.2-5.3-6.1-13.7-12c-11.2-7.9-22.9-12.1-34-12.1c-11,0-22.8,4.2-33.9,12.1
			c-8.4,5.9-13.5,11.8-13.7,12l-1.6,1.9l1.6,1.9c0.2,0.2,5.3,6.1,13.7,12c11.2,7.9,22.9,12.1,33.9,12.1c5.5,0,11.2-1,16.9-3
			c0.4,0.7,0.9,1.3,1.4,1.9l14.3,14.3l12.2-12.2l-12-12C143,679.3,148.4,672.8,148.6,672.5L148.6,672.5z M111.1,675.1
			c-5.6,5.6-14.8,5.6-20.4,0c-2.7-2.7-4.2-6.3-4.2-10.2s1.5-7.5,4.2-10.2c2.8-2.8,6.5-4.2,10.2-4.2s7.4,1.4,10.2,4.2
			c2.7,2.7,4.2,6.3,4.2,10.2S113.8,672.4,111.1,675.1z M70.4,680c-5.1-3.6-8.9-7.2-11-9.3c2.1-2.1,5.9-5.7,11-9.3
			c3.6-2.5,8.2-5.3,13.5-7.4c-2.1,3.2-3.2,7-3.2,10.9c0,5.4,2.1,10.5,5.9,14.3c3.9,3.9,9.1,5.9,14.3,5.9c4.3,0,8.5-1.3,12.1-4
			l4.6,4.6c-0.3,0.7-0.6,1.4-0.7,2.2c-5.4,2-10.8,3.1-16,3.1C88.5,690.9,77.5,684.9,70.4,680L70.4,680z M133.5,701.6l-10.2-10.2
			c-1.1-1.1-1.1-3,0-4.1s3-1.1,4.1,0l10.2,10.2L133.5,701.6z M129.2,681.6c-2.4-1.2-5.2-1.2-7.6,0L117,677c2.6-3.5,4-7.7,4-12.1
			c0-3.9-1.1-7.7-3.2-10.9c5.3,2.1,9.9,4.9,13.5,7.4c5.1,3.6,9,7.2,11,9.3C140.1,673.2,135.6,677.6,129.2,681.6z"/>
	</g>
	<g>
		<g>
			<g>
				<path stroke="#000B13" stroke-width="2" stroke-miterlimit="10" d="M111.1,679.3l4.1-4.1l8.2,8.1l-4.1,4.1L111.1,679.3z"/>
			</g>
		</g>
		<g id="Vision_1_">
			<g>
				<g>
					<path fill="#028283" stroke="#000B13" stroke-width="3" stroke-miterlimit="10" d="M133.6,709.8l-14.3-14.2
						c-2.8-2.7-3.8-8.4,0-12.2c3.1-3.1,8-3.4,11.4-0.7c12.4,12.3,15.7,15.5,15.1,14.9L133.6,709.8z"/>
				</g>
			</g>
		</g>
		<g>
			<g>
				<g>
					<g>
						<path fill="#000B13" stroke="#000B13" stroke-width="2" stroke-miterlimit="10" d="M86.6,679.3c-7.9-7.9-7.9-20.6,0-28.5
							c7.6-7.6,21-7.6,28.6,0c7.9,7.9,7.9,20.6,0,28.5S94.5,687.2,86.6,679.3L86.6,679.3z"/>
					</g>
				</g>
			</g>
		</g>
		<path fill="#000B13" stroke="#000B13" stroke-width="2" stroke-miterlimit="10" d="M100.9,645.1v40.1c5.2,0,10.4-2,14.3-5.9
			c7.9-7.9,7.9-20.6,0-28.5C111.4,647,106.1,645.1,100.9,645.1L100.9,645.1z"/>
	</g>
	<ellipse fill="#FFFCFF" stroke="#FFFCFF" stroke-width="5" stroke-miterlimit="10" cx="101.1" cy="665.1" rx="11.8" ry="11.6"/>
	<ellipse fill="none" stroke="#FC6541" stroke-width="4" stroke-miterlimit="10" cx="101.1" cy="665.1" rx="5.9" ry="5.8"/>
</g>
<g opacity="0.5">
	<g>
		<path fill="#FC6541" d="M117.1,306.9l20.6,19.9l4,3.9l1.5,1.4c0.5,0.5,1.2,0.4,1.7,0l4.1-4.2l3.7-3.9c1.6-1.7,1.6-4.4-0.1-6.1
			l-3.6-3.5l-20-19.2c-1.7-1.6-4.4-1.6-6.1,0.1l-7.8,8.1c-0.5,0.5-0.4,1.2,0,1.7L117.1,306.9z"/>
	</g>
	<g>
		<path opacity="0.65" fill-rule="evenodd" clip-rule="evenodd" fill="#FFBC85" enable-background="new    " d="M88.4,308.2
			l-22.2,21.3c0.7,5.9,1.8,11.4,5.4,14.5l30.1,24.4l3.6,2.8c5.5,4.2,10.7-1.7,6.5-6c-0.1-0.1-0.1-0.1-0.2-0.2c1.4,1.2,3,1.5,4.4,1.3
			c3-0.5,5.1-3.7,2.3-6.7c5.5,4.4,10.1-2.6,5.9-6.4c4.8,1.5,10-4.7,5-9.9l-0.1-0.1l-12.4-18.5L100,314L88.4,308.2z"/>
	</g>
	<g>
		<path fill-rule="evenodd" clip-rule="evenodd" fill="#FFE5C1" d="M101.3,368.9c4.6-4.9-2.1-10.6-5.9-7.3l-4,3.8l-0.1,0.1
			c-3.4,3.4,2.7,11,7.8,5.7L101.3,368.9z"/>
	</g>
	<g>
		<path fill-rule="evenodd" clip-rule="evenodd" fill="#FFE5C1" d="M88.5,354.8l-4.2,4.4l0,0c-2.1,2.2-0.6,5.7,1.9,7
			c1.6,0.8,3.5,0.9,5.2-0.7l4.5-0.1l-0.4-3.9l0.6-0.5c4.5-4.3-2-11.7-7.1-6.8L88.5,354.8z"/>
	</g>
	<g>
		<path fill-rule="evenodd" clip-rule="evenodd" fill="#FFE5C1" d="M81,348.7l-4,4.2l-0.6,0.6c-3.9,4.1,3.1,10.7,7.1,6.4l0.7-0.7
			c0.1-0.1,4.3-0.5,4.8-0.6l-0.1-4.4l1.4-1.4c4.7-4.9-2.6-11.3-7.1-6.6L81,348.7z"/>
	</g>
	<g>
		<path fill-rule="evenodd" clip-rule="evenodd" fill="#FFE5C1" d="M71.7,344l-1.3,1.5c-4.1,4.5,2,11.6,6.6,7.5l3.8-0.6l0.2-3.6
			c3.7-4.2-2.8-11.8-7.9-6.2L71.7,344z"/>
	</g>
	<g>
		<path fill="#028283" d="M77.4,295.6L59,313.3l-5.2,5c-1.7,1.6-1.8,4.4-0.1,6.1l7.8,8.1c0.5,0.5,1.2,0.5,1.7,0l3.1-3l22.2-21.3
			l2.8-2.7c0.5-0.5,0.5-1.2,0-1.7l-7.8-8.1C81.8,294,79.1,294,77.4,295.6L77.4,295.6z"/>
	</g>
	<g>
		<path opacity="0.8" fill-rule="evenodd" clip-rule="evenodd" fill="#F5A96C" enable-background="new    " d="M112.3,326.3
			l-5.6,1.3l2.2,2.2l16.9,16.8l0.1,0.1c2,2.2,2.4,4.5,1.7,6.3c3.3-1.3,5.5-5.8,1.7-9.8l-0.1-0.1l-5.1-5L112.3,326.3z"/>
	</g>
	<g opacity="0.8">
		<path fill-rule="evenodd" clip-rule="evenodd" fill="#F5A96C" d="M88.4,308.2l-3.6,3.4l11.1,5.5l4.1-3.2L88.4,308.2z"/>
	</g>
	<g>
		<path fill-rule="evenodd" clip-rule="evenodd" fill="#FFE5C1" d="M100.1,313.9l-4.1,3.2l-3.8,3c-9.7,7.5-1.7,14.9,4.1,12.4
			l6.5-3.9l4-0.9l5.6-1.3l11.8,11.8l5.1,5c3.2-1.2,7.7-4.6,12.6-12.5L117.2,307l-4.4,3.5c-0.7,0.6-0.5,0.5-1.4,0.4
			c-3.3-0.1-7.6,0.2-10,2.1L100.1,313.9z"/>
	</g>
	<g>
		<path fill-rule="evenodd" clip-rule="evenodd" fill="#FED1A3" d="M100,325.9l-6.5,3.9c-1.8,0.8-3.7,0.6-5.4-0.2
			c1.4,2.7,5,4.1,8,2.8l6.5-3.9l4-0.9l5.5-1.3c-2.6-2.2-3-2.5-8.2-1.3L100,325.9z"/>
	</g>
	<g>
		<path fill-rule="evenodd" clip-rule="evenodd" fill="#FED1A3" d="M137.7,326.8c-4.3,7-8.4,10.5-11.5,12c-0.3,0.2-0.7,0.3-1,0.4
			l3.9,3.9c3.2-1.2,7.7-4.6,12.6-12.5L137.7,326.8z"/>
	</g>
	<g>
		<path fill-rule="evenodd" clip-rule="evenodd" fill="#FED1A3" d="M69,348.9c0,3.8,4.5,7.2,8,4.1l2.5-2.6l1.5-1.6
			c1.5-1.7,1.3-4.1,0.2-5.8c0,1-0.3,2-1.1,2.9l-2.6,2.8l-1.3,1.4C73.5,352.4,70.5,351.2,69,348.9L69,348.9z"/>
	</g>
	<g>
		<path fill-rule="evenodd" clip-rule="evenodd" fill="#FED1A3" d="M75.5,357.5c0.9,3.1,5.2,5.5,8.1,2.5l0.7-0.7l0,0l4.2-4.4
			c0.2-0.2,0.3-0.3,0.4-0.5l1.4-1.4c2.5-2.6,1.6-5.7-0.6-7.3c0.4,1.4,0.1,3.1-1.3,4.5l-1.4,1.4c-0.2,0.1-0.3,0.3-0.4,0.5l0,0
			l-4.2,4.4l0,0l-0.7,0.7C79.8,359.2,77.2,358.9,75.5,357.5L75.5,357.5z"/>
	</g>
	<g>
		<path fill-rule="evenodd" clip-rule="evenodd" fill="#FED1A3" d="M91.5,365.5l3.1-2.9l0.9-0.9l0.6-0.5c2.4-2.3,1.7-5.5-0.3-7.2
			c0.4,1.5,0.1,3.2-1.3,4.6l-0.6,0.5l-1.6,1.5l-2.4,2.3l-0.1,0.1c-1.7,1.6-3.7,1.5-5.2,0.7c-0.4-0.2-0.7-0.5-1.1-0.8
			c0.4,1.4,1.4,2.6,2.7,3.3c1.6,0.8,3.5,0.9,5.2-0.7H91.5z"/>
	</g>
	<g>
		<path fill-rule="evenodd" clip-rule="evenodd" fill="#FED1A3" d="M101.3,368.9c2.3-2.5,1.8-5.1,0.2-6.7c0,1.1-0.5,2.3-1.6,3.4
			l-2.2,2.3c-2.7,2.9-5.7,2-7.4,0.1c0,3.5,4.7,7.5,8.7,3.3L101.3,368.9z"/>
	</g>
	<g>
		<path d="M111.9,366.7c-0.4,0-0.8-0.1-1-0.4l-3.1-2.9c-0.6-0.6-0.7-1.6-0.1-2.2s1.6-0.7,2.2-0.1l3.1,2.9c0.6,0.6,0.7,1.6,0.1,2.2
			C112.8,366.6,112.3,366.7,111.9,366.7z"/>
	</g>
	<path d="M153.6,316.7L130.1,294c-1.1-1.1-2.6-1.6-4.2-1.6s-3,0.7-4.1,1.8l-7.8,8.1c-1,1.1-1,2.8,0.1,3.9l0.6,0.6l-3.2,2.6
		c-0.1,0-0.2,0-0.3,0c-5-0.2-8.7,0.7-11,2.5l-0.4,0.3l-8.8-4.3l1.2-1.1c0.5-0.5,0.8-1.2,0.8-1.9c0-0.7-0.3-1.4-0.8-2l-7.8-8.1
		c-1.1-1.1-2.5-1.8-4.1-1.8s-3,0.5-4.2,1.6l-23.6,22.7c-2.3,2.2-2.4,5.9-0.2,8.2l7.8,8.1c0.5,0.6,1.2,0.8,2,0.8
		c0.7,0,1.4-0.3,1.9-0.8l0.9-0.9c0.7,4.2,1.8,8.4,4.4,11.3l-0.3,0.4c-2.8,3-1.9,7.1,0.3,9.4c1.2,1.3,2.7,1.9,4.2,2
		c-0.2,1.9,0.7,3.9,2.1,5.2c1.3,1.2,2.9,1.9,4.6,1.9c0.4,0,0.8,0,1.3-0.1c0.2,1.4,1,2.7,1.9,3.7c1.2,1.2,2.8,2,4.6,2
		c0.2,0,0.4,0,0.5,0c0,0.3,0.1,0.7,0.2,1c0.6,2.4,2.6,4.5,4.9,5.1c0.4,0.1,0.9,0.2,1.5,0.2c1.4,0,3.1-0.5,4.9-2.3l1.7-1.8l2.5,1.9
		c1.6,1.3,3.3,1.8,4.7,1.8c1.8,0,3.4-0.8,4.4-2c1-1.1,1.5-2.7,1.3-4.4c1.9,0.1,3.7-0.6,4.9-1.9c0.9-0.9,1.4-2.2,1.4-3.5
		c2,0.2,3.7-0.6,4.8-1.9c1.2-1.5,1.8-3.7,1.1-5.8c1.8-0.4,3.5-1.6,4.6-3.3c1.2-2,1.7-4.9-0.2-7.8c2.8-1.5,6.4-4.6,10.4-10.6l0.1,0.1
		c0.5,0.5,1.2,0.8,1.9,0.8s1.4-0.3,2-0.8l7.8-8.1C156,322.7,156,319,153.6,316.7L153.6,316.7z M71.5,346.5l2.7-2.9
		c1.1-1.2,2.3-1.7,3.5-1.4c1.2,0.3,2.3,1.4,2.7,2.7c0.2,0.6,0.4,1.9-0.6,2.9l0,0l-3.8,4c-1.6,1.4-3.2,0.8-4.2-0.2
		C70.5,350.4,69.9,348.2,71.5,346.5L71.5,346.5z M78,358.7c-0.2-0.2-2.2-2.2-0.5-4.1l0,0l6.8-7.2c0.8-0.9,1.7-1.2,2.4-1.2
		c0.3,0,0.5,0,0.7,0.1c1.2,0.3,2.3,1.3,2.6,2.4c0.3,1.1,0,2.2-1,3.1l-1.4,1.5c-0.1,0.1-0.1,0.2-0.2,0.2l-5.1,5.3
		C80.9,360.6,78.9,359.6,78,358.7L78,358.7z M85.9,364.2c-0.9-0.9-1.7-2.7-0.5-3.9l0,0l4.2-4.4c0,0,0,0,0.1-0.1l0,0l0.3-0.3
		c1-1,2.2-1.4,3.3-1.2c1.2,0.3,2.3,1.3,2.7,2.6c0.2,0.8,0.2,2-0.9,3.1l-0.5,0.5l0,0l-0.1,0.1l-3.9,3.7l0,0l-0.1,0.1
		C88.2,366.4,86.3,364.6,85.9,364.2L85.9,364.2z M98,370.2c-1.1,1.1-2.2,1.6-3.3,1.3c-1.2-0.3-2.4-1.5-2.7-2.8
		c-0.1-0.6-0.2-1.4,0.4-2l0.1-0.1l4-3.8c1.2-1,2.9-0.5,3.9,0.5c0.5,0.5,1.9,2.3-0.2,4.6L98,370.2z M129.2,349.9
		c-0.8,1.3-2.4,2.3-4.1,1.9l-5.9-5.5c-0.6-0.6-1.6-0.5-2.2,0.1s-0.5,1.6,0.1,2.2l6.2,5.7l0,0l0,0c1.5,1.4,1.4,3.2,0.5,4.2
		c-1,1.2-2.6,1.2-4.3-0.2l-6.1-5.7c-0.6-0.6-1.6-0.5-2.2,0.1s-0.5,1.6,0.1,2.2l6.1,5.7c1.1,1.2,1.2,2.3,0.3,3.2
		c-1,1.1-3.1,1.4-4.9-0.1c-0.6-0.5-1.6-0.5-2.1,0.1c-0.6,0.6-0.5,1.6,0.1,2.1c1.7,1.6,1.4,3.2,0.6,4.1c-0.9,1.1-2.8,1.4-4.9-0.2
		l-2.5-1.9c1.3-2.6,0.5-5.2-1.2-6.9c-1-1-2.3-1.7-3.7-1.9c0.2-1,0.2-2,0-3.1c-0.6-2.4-2.6-4.3-4.9-4.8c-0.3-0.1-0.6-0.1-0.9-0.1
		c0.3-1.1,0.3-2.2,0-3.4c-0.7-2.2-2.6-4-4.8-4.5c-1.7-0.4-3.4-0.1-4.9,0.9c0-0.1,0-0.1-0.1-0.2c-0.7-2.4-2.7-4.3-5-4.8
		s-4.6,0.3-6.4,2.3l-0.2,0.3c-2.2-2.6-3.1-6.6-3.8-11.7l6.5-6.3c0.6-0.6,0.6-1.6,0-2.2s-1.6-0.6-2.2,0l-7,6.7
		c-0.1,0-0.1,0.1-0.2,0.1l-2.8,2.7l-7.5-7.9c-1-1.1-1-2.8,0.1-3.9l23.6-22.7c0.5-0.5,1.2-0.8,2-0.8c0.7,0,1.4,0.3,1.9,0.8l7.5,7.9
		l-12.7,12.3c-0.6,0.6-0.6,1.6,0,2.2s1.6,0.6,2.2,0l9.5-9.1l8.4,4.2l-6,4.6c-7.1,5.5-5,10.5-4.2,11.9c1.4,2.4,4,3.8,6.7,3.8
		c1,0,2.1-0.2,3.1-0.6c0.1,0,0.1-0.1,0.2-0.1l6.3-3.8l8.5-1.9l16.3,16.2C130.6,346.8,129.7,349,129.2,349.9L129.2,349.9z
		 M151.6,322.8l-7.5,7.9l-1.2-1.1l-0.1-0.1l-10.6-10.2c-0.6-0.6-1.6-0.6-2.2,0c-0.6,0.6-0.6,1.6,0,2.2l9.8,9.4
		c-4.3,6.6-8,9.3-10.2,10.4l-16.1-16l0,0c0,0,0,0-0.1-0.1l0,0c0,0,0,0-0.1-0.1c0,0,0,0-0.1,0c0,0,0,0-0.1,0c0,0,0,0-0.1,0
		c0,0,0,0-0.1,0c0,0,0,0-0.1,0h-0.1c0,0,0,0-0.1,0h-0.1l0,0h-0.1l0,0h-0.1l0,0h-0.1c0,0,0,0-0.1,0c0,0,0,0-0.1,0h-0.1l0,0l-9.6,2.2
		c-0.2,0-0.3,0.1-0.5,0.2l-6.4,3.8c-2.1,0.9-4.7,0-5.9-1.9c-1.3-2.3-0.1-5.2,3.4-7.9l7.9-6.1l0,0l1.1-0.8c1.7-1.3,4.9-2,9-1.8
		c0.1,0,0.2,0,0.3,0c0.9,0.1,1.3-0.1,2-0.7l3.5-2.8l7.9,7.6c0.6,0.6,1.6,0.6,2.2,0s0.6-1.6,0-2.2l-10.5-10.1l7.5-7.9
		c0.5-0.5,1.2-0.8,1.9-0.8c0,0,0,0,0.1,0c0.7,0,1.4,0.3,1.9,0.8l23.6,22.7C152.6,320,152.6,321.7,151.6,322.8L151.6,322.8z"/>
</g>
<g>
	<path fill="#028283" d="M127.8,488.4v4.5c0,1.6-1.1,2.9-2.6,3.2l-8.2,1.6c-0.6,2-1.4,4-2.4,5.8l4.6,6.9c0.9,1.3,0.7,3-0.4,4.1
		l-3.1,3.1c-1.1,1.1-2.8,1.3-4.1,0.4l-6.9-4.6c-1.8,1-3.7,1.8-5.8,2.4l-1.6,8.2c-0.3,1.5-1.6,2.6-3.2,2.6h-4.5
		c-1.6,0-2.9-1.1-3.2-2.6l-1.6-8.2c-2-0.6-4-1.4-5.8-2.4l-6.9,4.6c-1.3,0.9-3,0.7-4.1-0.4l-3.1-3.1c-1.1-1.1-1.3-2.8-0.4-4.1
		l4.6-6.9c-1-1.8-1.8-3.7-2.4-5.8l-8.2-1.6c-1.5-0.3-2.6-1.6-2.6-3.2v-4.5c0-1.6,1.1-2.9,2.6-3.2l8.2-1.6c0.6-2,1.4-4,2.4-5.8
		l-4.6-6.9c-0.9-1.3-0.7-3,0.4-4.1l3.1-3.1c1.1-1.1,2.8-1.3,4.1-0.4l6.9,4.6c1.8-1,3.7-1.8,5.8-2.4l1.6-8.2c0.3-1.5,1.6-2.6,3.2-2.6
		h4.5c1.6,0,2.9,1.1,3.2,2.6l1.6,8.2c2,0.6,4,1.4,5.8,2.4l6.9-4.6c1.3-0.9,3-0.7,4.1,0.4l3.1,3.1c1.1,1.1,1.3,2.8,0.4,4.1l-4.6,6.9
		c1,1.8,1.8,3.7,2.4,5.8l8.2,1.6C126.7,485.5,127.8,486.8,127.8,488.4z"/>
	<path fill="#FFFCFF" d="M107.7,490.6c0,8.7-7.1,15.8-15.8,15.8s-15.8-7.1-15.8-15.8s7.1-15.8,15.8-15.8S107.7,481.9,107.7,490.6z"
		/>
	<path fill="#FFFCFF" d="M99.7,490.6c0,4.3-3.5,7.9-7.9,7.9s-7.9-3.5-7.9-7.9c0-4.3,3.5-7.9,7.9-7.9S99.7,486.3,99.7,490.6z"/>
	<path fill="#FFFCFF" d="M94.9,490.6c0,3.5-2.3,6.5-5.5,7.5c-3.2-1-5.5-4-5.5-7.5s2.3-6.5,5.5-7.5C92.7,484.1,94.9,487.1,94.9,490.6
		z"/>
	<path fill="#FC6541" d="M150.5,524.1v2.9c0,1-0.7,1.9-1.7,2.1l-5.4,1.1c-0.4,1.3-0.9,2.6-1.6,3.8l3,4.5c0.6,0.9,0.5,2-0.3,2.7
		l-2.1,2.1c-0.7,0.7-1.9,0.8-2.7,0.3l-4.5-3c-1.2,0.7-2.4,1.2-3.8,1.6l-1.1,5.4c-0.2,1-1.1,1.7-2.1,1.7h-2.9c-1,0-1.9-0.7-2.1-1.7
		l-1.1-5.4c-1.3-0.4-2.6-0.9-3.8-1.6l-4.5,3c-0.9,0.6-2,0.5-2.7-0.3l-2.1-2.1c-0.7-0.7-0.8-1.9-0.3-2.7l3-4.5
		c-0.7-1.2-1.2-2.4-1.6-3.8l-5.4-1.1c-1-0.2-1.7-1.1-1.7-2.1v-2.9c0-1,0.7-1.9,1.7-2.1l5.4-1.1c0.4-1.3,0.9-2.6,1.6-3.8l-3-4.5
		c-0.6-0.9-0.5-2,0.3-2.7l2.1-2.1c0.7-0.7,1.9-0.8,2.7-0.3l4.5,3c1.2-0.7,2.4-1.2,3.8-1.6l1.1-5.4c0.2-1,1.1-1.7,2.1-1.7h2.9
		c1,0,1.9,0.7,2.1,1.7l1.1,5.4c1.3,0.4,2.6,0.9,3.8,1.6l4.5-3c0.9-0.6,2-0.5,2.7,0.3l2.1,2.1c0.7,0.7,0.8,1.9,0.3,2.7l-3,4.5
		c0.7,1.2,1.2,2.4,1.6,3.8l5.4,1.1C149.7,522.2,150.5,523.1,150.5,524.1z"/>
	<path fill="#FFFCFF" d="M138.6,525.6c0,6.5-5.3,11.8-11.8,11.8s-11.8-5.3-11.8-11.8s5.3-11.8,11.8-11.8
		C133.4,513.7,138.6,519,138.6,525.6z"/>
	<path fill="#FFFCFF" d="M133.9,525.6c0,3.9-3.2,7.1-7.1,7.1s-7.1-3.2-7.1-7.1s3.2-7.1,7.1-7.1S133.9,521.6,133.9,525.6z"/>
	<path fill="#FFFCFF" d="M129.2,525.6c0,3.1-2,5.7-4.7,6.7c-2.8-1-4.7-3.6-4.7-6.7c0-3.1,2-5.7,4.7-6.7
		C127.2,519.9,129.2,522.5,129.2,525.6z"/>
	<path d="M78.4,486c-0.5,1.5-0.8,3-0.8,4.6c0,7.9,6.4,14.3,14.3,14.3c3,0,5.9-0.9,8.3-2.7c0.7-0.5,1.7-0.3,2.2,0.3
		c0.5,0.7,0.3,1.7-0.3,2.2c-3,2.1-6.5,3.3-10.2,3.3c-9.6,0-17.3-7.8-17.3-17.3c0-1.9,0.3-3.8,0.9-5.6c0.3-0.8,1.2-1.2,2-1
		C78.2,484.3,78.7,485.2,78.4,486z M105.2,499.2c0.2,0.1,0.5,0.2,0.7,0.2c0.6,0,1.1-0.3,1.4-0.8c1.2-2.4,1.9-5.2,1.9-7.9
		c0-9.6-7.8-17.3-17.3-17.3c-4.5,0-8.8,1.7-12.1,4.9c-0.6,0.6-0.6,1.6,0,2.2s1.6,0.6,2.2,0c2.7-2.6,6.2-4,9.9-4
		c7.9,0,14.3,6.4,14.3,14.3c0,2.3-0.5,4.5-1.6,6.5C104.2,497.9,104.5,498.8,105.2,499.2z M104.5,513.6c-0.4-0.8-1.3-1.1-2.1-0.7
		c-1.3,0.6-2.6,1.1-3.9,1.5c-0.6,0.2-1,0.6-1.1,1.2l-1.6,8.2c-0.2,0.8-0.9,1.4-1.7,1.4h-4.5c-0.8,0-1.5-0.6-1.7-1.4l-1.6-8.2
		c-0.1-0.6-0.5-1-1.1-1.2c-1.9-0.5-3.7-1.3-5.4-2.2c-0.5-0.3-1.1-0.3-1.6,0.1l-6.9,4.6c-0.7,0.5-1.6,0.4-2.2-0.2l-3.1-3.1
		c-0.6-0.6-0.7-1.5-0.2-2.2l4.6-6.9c0.3-0.5,0.3-1.1,0.1-1.6c-1-1.7-1.7-3.5-2.2-5.4c-0.2-0.6-0.6-1-1.2-1.1l-8.2-1.6
		c-0.8-0.2-1.4-0.9-1.4-1.7v-4.5c0-0.8,0.6-1.5,1.4-1.7l8.2-1.6c0.6-0.1,1-0.5,1.2-1.1c0.5-1.9,1.3-3.7,2.2-5.4
		c0.3-0.5,0.3-1.1-0.1-1.6l-4.6-6.9c-0.5-0.7-0.4-1.6,0.2-2.2l3.1-3.1c0.6-0.6,1.5-0.7,2.2-0.2l6.9,4.6c0.5,0.3,1.1,0.3,1.6,0.1
		c1.7-1,3.5-1.7,5.4-2.2c0.6-0.2,1-0.6,1.1-1.2l1.6-8.2c0.2-0.8,0.9-1.4,1.7-1.4h4.5c0.8,0,1.5,0.6,1.7,1.4l1.6,8.2
		c0.1,0.6,0.5,1,1.1,1.2c1.9,0.5,3.7,1.3,5.4,2.2c0.5,0.3,1.1,0.3,1.6-0.1l6.9-4.6c0.7-0.5,1.6-0.4,2.2,0.2l3.1,3.1
		c0.6,0.6,0.7,1.5,0.2,2.2l-4.6,6.9c-0.3,0.5-0.3,1.1-0.1,1.6c1,1.7,1.7,3.5,2.2,5.4c0.2,0.6,0.6,1,1.2,1.1l8.2,1.6
		c0.8,0.2,1.4,0.9,1.4,1.7v4.5c0,0.8-0.6,1.5-1.4,1.7l-8.2,1.6c-0.6,0.1-1,0.5-1.2,1.1c-0.4,1.4-0.9,2.7-1.5,4
		c-0.4,0.8,0,1.7,0.7,2.1c0.8,0.4,1.7,0,2.1-0.7c0.6-1.2,1-2.4,1.4-3.6l7.2-1.4c2.2-0.4,3.9-2.4,3.9-4.7v-4.5c0-2.3-1.6-4.3-3.9-4.7
		l-7.2-1.4c-0.5-1.5-1.1-3-1.8-4.3l4.1-6.2c1.3-1.9,1-4.5-0.6-6.1l-3.1-3.1c-1.6-1.6-4.2-1.9-6.1-0.6l-6.2,4.1
		c-1.4-0.7-2.8-1.3-4.3-1.8l-1.4-7.2c-0.4-2.2-2.4-3.9-4.7-3.9h-4.5c-2.3,0-4.3,1.6-4.7,3.9l-1.4,7.2c-1.5,0.5-3,1.1-4.3,1.8
		l-6.1-4.1c-1.9-1.3-4.5-1-6.1,0.6l-3.1,3.1c-1.6,1.6-1.9,4.2-0.6,6.1l4.1,6.2c-0.7,1.4-1.3,2.8-1.8,4.3l-7.2,1.4
		c-2.2,0.4-3.9,2.4-3.9,4.7v4.5c0,2.3,1.6,4.3,3.9,4.7l7.2,1.4c0.5,1.5,1.1,3,1.8,4.3l-4.1,6.2c-1.3,1.9-1,4.5,0.6,6.1l3.1,3.1
		c1.6,1.6,4.2,1.9,6.1,0.6l6.2-4.1c1.4,0.7,2.8,1.3,4.3,1.8l1.4,7.2c0.4,2.2,2.4,3.9,4.7,3.9h4.5c2.3,0,4.3-1.6,4.7-3.9l1.4-7.2
		c1.2-0.4,2.4-0.8,3.5-1.4C104.5,515.3,104.8,514.4,104.5,513.6z M126.8,520c3.1,0,5.6,2.5,5.6,5.6c0,0.9,0.7,1.5,1.5,1.5
		c0.9,0,1.5-0.7,1.5-1.5c0-4.8-3.9-8.6-8.6-8.6s-8.6,3.9-8.6,8.6c0,4.8,3.9,8.6,8.6,8.6c1.9,0,3.8-0.6,5.3-1.8
		c0.7-0.5,0.8-1.5,0.3-2.2s-1.5-0.8-2.2-0.3c-1,0.8-2.2,1.2-3.4,1.2c-3.1,0-5.6-2.5-5.6-5.6C121.3,522.5,123.8,520,126.8,520z
		 M91.9,500c-5.2,0-9.4-4.2-9.4-9.4c0-5.2,4.2-9.4,9.4-9.4s9.4,4.2,9.4,9.4S97,500,91.9,500z M91.9,496.9c3.5,0,6.3-2.8,6.3-6.3
		s-2.8-6.3-6.3-6.3s-6.3,2.8-6.3,6.3S88.4,496.9,91.9,496.9z M149,520.5l-4.5-0.9c-0.3-0.8-0.6-1.6-1-2.4l2.5-3.8
		c1-1.5,0.8-3.4-0.5-4.7l-2.1-2.1c-1.2-1.2-3.2-1.4-4.7-0.5l-3.8,2.5c-0.8-0.4-1.6-0.7-2.4-1l-0.9-4.5c-0.3-1.7-1.9-3-3.6-3h-2.9
		c-1.8,0-3.3,1.2-3.6,3l-0.9,4.5c-0.8,0.3-1.6,0.6-2.4,1l-3.8-2.5c-1.5-1-3.4-0.8-4.7,0.5l-2.1,2.1c-1.2,1.2-1.4,3.2-0.5,4.7
		l2.5,3.8c-0.5,1-0.9,2.1-1.3,3.3c-0.2,0.8,0.2,1.7,1.1,1.9c0.8,0.2,1.7-0.2,1.9-1.1c0.3-1.2,0.8-2.4,1.4-3.4
		c0.3-0.5,0.3-1.1-0.1-1.6l-3-4.5c-0.2-0.2-0.1-0.6,0.1-0.8l2.1-2.1c0.2-0.2,0.5-0.2,0.8-0.1l4.5,3c0.5,0.3,1.1,0.3,1.6,0.1
		c1.1-0.6,2.2-1.1,3.4-1.4c0.6-0.2,1-0.6,1.1-1.2l1.1-5.4c0.1-0.3,0.3-0.5,0.6-0.5h2.9c0.3,0,0.5,0.2,0.6,0.5l1.1,5.4
		c0.1,0.6,0.5,1,1.1,1.2c1.2,0.3,2.4,0.8,3.4,1.4c0.5,0.3,1.1,0.3,1.6-0.1l4.5-3c0.2-0.2,0.6-0.1,0.8,0.1l2.1,2.1
		c0.2,0.2,0.2,0.5,0.1,0.8l-3,4.5c-0.3,0.5-0.3,1.1-0.1,1.6c0.6,1.1,1.1,2.2,1.4,3.4c0.2,0.6,0.6,1,1.2,1.1l5.4,1.1
		c0.3,0.1,0.5,0.3,0.5,0.6v2.9c0,0.3-0.2,0.5-0.5,0.6l-5.4,1.1c-0.6,0.1-1,0.5-1.2,1.1c-0.3,1.2-0.8,2.4-1.4,3.4
		c-0.3,0.5-0.3,1.1,0.1,1.6l3,4.5c0.2,0.2,0.1,0.6-0.1,0.8l-2.1,2.1c-0.2,0.2-0.5,0.2-0.8,0.1l-4.5-3c-0.5-0.3-1.1-0.3-1.6-0.1
		c-1.1,0.6-2.2,1.1-3.4,1.4c-0.6,0.2-1,0.6-1.1,1.2l-1.1,5.4c-0.1,0.3-0.3,0.5-0.6,0.5h-2.9c-0.3,0-0.5-0.2-0.6-0.5l-1.1-5.4
		c-0.1-0.6-0.5-1-1.1-1.2c-1.2-0.3-2.4-0.8-3.4-1.4c-0.5-0.3-1.1-0.3-1.6,0.1l-4.5,3c-0.2,0.2-0.6,0.1-0.8-0.1l-2.1-2.1
		c-0.2-0.2-0.2-0.5-0.1-0.8l3-4.5c0.3-0.5,0.3-1.1,0.1-1.6c-0.6-1.1-1.1-2.2-1.4-3.4c-0.2-0.6-0.6-1-1.2-1.1l-5.4-1.1
		c-0.3-0.1-0.5-0.3-0.5-0.6v-2.9c0-0.3,0.2-0.5,0.5-0.6l0.3-0.1c0.8-0.2,1.4-1,1.2-1.8c-0.2-0.8-1-1.4-1.8-1.2l-0.3,0.1
		c-1.7,0.3-3,1.9-3,3.6v2.9c0,1.8,1.2,3.3,3,3.6l4.5,0.9c0.3,0.8,0.6,1.6,1,2.4l-2.5,3.8c-1,1.5-0.8,3.4,0.5,4.7l2.1,2.1
		c1.2,1.2,3.2,1.4,4.7,0.5l3.8-2.5c0.8,0.4,1.6,0.7,2.4,1l0.9,4.5c0.3,1.7,1.9,3,3.6,3h2.9c1.8,0,3.3-1.2,3.6-3l0.9-4.5
		c0.8-0.3,1.6-0.6,2.4-1l3.8,2.5c1.5,1,3.4,0.8,4.7-0.5l2.1-2.1c1.2-1.2,1.4-3.2,0.5-4.7l-2.5-3.8c0.4-0.8,0.7-1.6,1-2.4l4.5-0.9
		c1.7-0.3,3-1.9,3-3.6v-2.9C152,522.4,150.8,520.8,149,520.5z"/>
</g>
<g>
	<g id="texte_picto_categorie">
		<path fill="#FC6541" d="M425.4,125.2h-14.9v9.6h16.6v7.5h-25.8v-40.4h24.9v7.5h-15.8v8.4h14.9L425.4,125.2L425.4,125.2z"/>
		<path fill="#FC6541" d="M440.1,113l2.9,4.9c0.9,1.5,1.6,2.9,2.4,4.4h0.2c0.8-1.6,1.5-3.1,2.2-4.5l2.6-4.8h9.9l-9.7,14l9.8,15.4
			H450l-2.9-5.3c-0.8-1.5-1.6-2.9-2.3-4.5h-0.2c-0.7,1.6-1.5,3-2.2,4.5l-2.8,5.3h-10l9.9-15l-9.7-14.4
			C429.8,113,440.1,113,440.1,113z"/>
		<path fill="#FC6541" d="M464.2,122.8c0-3.9-0.1-7.1-0.2-9.9h7.9l0.4,4.1h0.1c2.2-3.1,5.5-4.8,9.8-4.8c6.4,0,12.2,5.6,12.2,15
			c0,10.7-6.8,15.7-13.4,15.7c-3.5,0-6.3-1.4-7.6-3.3h-0.1v14.6h-9.1L464.2,122.8L464.2,122.8z M473.4,129.8c0,0.7,0.1,1.3,0.2,1.9
			c0.6,2.4,2.7,4.3,5.3,4.3c3.9,0,6.3-3.3,6.3-8.3c0-4.7-2.1-8.2-6.2-8.2c-2.6,0-4.9,2-5.5,4.6c-0.1,0.5-0.2,1.1-0.2,1.6v4.1H473.4z
			"/>
		<path fill="#FC6541" d="M507.2,130.6c0.3,3.8,4,5.6,8.3,5.6c3.1,0,5.6-0.4,8.1-1.2l1.2,6.2c-3,1.2-6.7,1.9-10.6,1.9
			c-9.9,0-15.7-5.8-15.7-14.9c0-7.5,4.7-15.7,14.8-15.7c9.5,0,13.1,7.4,13.1,14.7c0,1.6-0.2,2.9-0.3,3.6h-18.9L507.2,130.6
			L507.2,130.6z M517.9,124.3c0-2.2-1-6-5.1-6c-3.9,0-5.4,3.5-5.7,6H517.9z M522.9,100.2l-7.3,9.1h-6.2l5.2-9.1H522.9z"/>
		<path fill="#FC6541" d="M531.8,122.6c0-4.3-0.1-7.2-0.2-9.7h7.8l0.3,5.4h0.2c1.5-4.3,5.1-6.1,7.9-6.1c0.8,0,1.3,0,2,0.2v8.6
			c-0.7-0.1-1.4-0.3-2.5-0.3c-3.4,0-5.6,1.8-6.3,4.6c-0.1,0.6-0.2,1.3-0.2,2v14.9h-9.1L531.8,122.6L531.8,122.6z"/>
		<path fill="#FC6541" d="M564,104.8c0,2.5-1.9,4.6-4.9,4.6c-2.9,0-4.8-2-4.8-4.6s1.9-4.6,4.8-4.6C562.1,100.2,564,102.2,564,104.8z
			 M554.6,142.3V113h9.1v29.4L554.6,142.3L554.6,142.3z"/>
		<path fill="#FC6541" d="M578.1,130.6c0.3,3.8,4,5.6,8.3,5.6c3.1,0,5.6-0.4,8.1-1.2l1.2,6.2c-3,1.2-6.7,1.9-10.6,1.9
			c-9.9,0-15.7-5.8-15.7-14.9c0-7.5,4.7-15.7,14.8-15.7c9.5,0,13.1,7.4,13.1,14.7c0,1.6-0.2,2.9-0.3,3.6h-18.9L578.1,130.6
			L578.1,130.6z M588.8,124.3c0-2.2-1-6-5.1-6c-3.9,0-5.4,3.5-5.7,6H588.8z"/>
		<path fill="#FC6541" d="M602.7,122.3c0-3.7-0.1-6.7-0.2-9.4h7.9l0.4,4.1h0.2c1.2-1.9,4.2-4.7,9.1-4.7c6,0,10.5,4,10.5,12.6v17.4
			h-9.1V126c0-3.8-1.4-6.4-4.6-6.4c-2.5,0-4,1.8-4.6,3.4c-0.2,0.6-0.3,1.4-0.3,2.3v16.9h-9.1v-19.9
			C602.9,122.3,602.7,122.3,602.7,122.3z"/>
		<path fill="#FC6541" d="M659.9,141.6c-1.6,0.8-4.7,1.4-8.2,1.4c-9.5,0-15.5-5.8-15.5-15c0-8.6,5.9-15.6,16.8-15.6
			c2.4,0,5.1,0.4,7,1.2l-1.4,6.8c-1.1-0.5-2.7-0.9-5.1-0.9c-4.8,0-7.9,3.4-7.9,8.2c0,5.4,3.6,8.3,8,8.3c2.2,0,3.9-0.4,5.3-1
			L659.9,141.6z"/>
		<path fill="#FC6541" d="M672,130.6c0.3,3.8,4,5.6,8.3,5.6c3.1,0,5.6-0.4,8.1-1.2l1.2,6.2c-3,1.2-6.7,1.9-10.6,1.9
			c-9.9,0-15.7-5.8-15.7-14.9c0-7.5,4.7-15.7,14.8-15.7c9.5,0,13.1,7.4,13.1,14.7c0,1.6-0.2,2.9-0.3,3.6H672V130.6z M682.7,124.3
			c0-2.2-1-6-5.1-6c-3.9,0-5.4,3.5-5.7,6H682.7z"/>
	</g>
</g>
<g>
	<g id="texte_posture">
		<path fill="#FC6541" d="M415.5,905.6h9.1v25.6c0,11.5-5.5,15.5-14.4,15.5c-2.1,0-4.9-0.3-6.7-1l1-7.4c1.2,0.4,2.9,0.7,4.7,0.7
			c3.8,0,6.3-1.7,6.3-8V905.6z"/>
		<path fill="#FC6541" d="M438.9,934.3c0.3,3.8,4,5.6,8.3,5.6c3.1,0,5.6-0.4,8.1-1.2l1.2,6.2c-3,1.2-6.7,1.9-10.6,1.9
			c-9.9,0-15.7-5.8-15.7-14.9c0-7.5,4.7-15.7,14.8-15.7c9.5,0,13.1,7.4,13.1,14.7c0,1.6-0.2,2.9-0.3,3.6h-18.9V934.3z M449.7,928
			c0-2.2-1-6-5.1-6c-3.9,0-5.4,3.5-5.7,6H449.7z"/>
		<path fill="#FC6541" d="M475.7,926.5c0-3.9-0.1-7.1-0.2-9.9h7.9l0.4,4.1h0.1c2.2-3.1,5.5-4.8,9.8-4.8c6.4,0,12.2,5.6,12.2,15
			c0,10.7-6.8,15.7-13.4,15.7c-3.5,0-6.3-1.4-7.6-3.3h-0.1v14.6h-9.1L475.7,926.5L475.7,926.5z M484.8,933.5c0,0.7,0.1,1.3,0.2,1.9
			c0.6,2.4,2.7,4.3,5.3,4.3c3.9,0,6.3-3.3,6.3-8.3c0-4.7-2.1-8.2-6.2-8.2c-2.6,0-4.9,2-5.5,4.6c-0.1,0.5-0.2,1.1-0.2,1.6v4.1
			L484.8,933.5L484.8,933.5z"/>
		<path fill="#FC6541" d="M511.6,926.4c0-4.3-0.1-7.2-0.2-9.7h7.8l0.3,5.4h0.2c1.5-4.3,5.1-6.1,7.9-6.1c0.8,0,1.3,0,2,0.2v8.6
			c-0.7-0.1-1.4-0.3-2.5-0.3c-3.4,0-5.6,1.8-6.3,4.6c-0.1,0.6-0.2,1.3-0.2,2V946h-9.1L511.6,926.4L511.6,926.4z"/>
		<path fill="#FC6541" d="M551.1,946l-0.5-2.9h-0.2c-1.9,2.3-4.9,3.6-8.4,3.6c-6,0-9.5-4.3-9.5-9c0-7.7,6.8-11.3,17.2-11.3V926
			c0-1.6-0.8-3.8-5.4-3.8c-3,0-6.1,1-8.1,2.2l-1.7-5.8c2-1.2,6-2.6,11.4-2.6c9.8,0,12.9,5.8,12.9,12.7v10.2c0,2.8,0.1,5.5,0.5,7.1
			L551.1,946L551.1,946z M550,932.2c-4.8,0-8.5,1.1-8.5,4.6c0,2.4,1.5,3.5,3.6,3.5c2.2,0,4.1-1.5,4.7-3.4c0.1-0.5,0.2-1,0.2-1.6
			V932.2z"/>
		<path fill="#FC6541" d="M576.3,908.3v8.4h6.6v6.7h-6.6V934c0,3.5,0.9,5.2,3.6,5.2c1.2,0,2.1-0.1,2.7-0.3l0.1,6.9
			c-1.2,0.4-3.4,0.8-5.9,0.8c-3,0-5.4-1-6.9-2.5c-1.7-1.7-2.5-4.5-2.5-8.7v-12h-3.9v-6.7h3.9v-6.3L576.3,908.3z"/>
		<path fill="#FC6541" d="M597.5,908.5c0,2.5-1.9,4.6-4.9,4.6c-2.9,0-4.8-2-4.8-4.6s1.9-4.6,4.8-4.6
			C595.6,903.9,597.5,905.9,597.5,908.5z M588.1,946v-29.4h9.1V946H588.1z"/>
		<path fill="#FC6541" d="M623.8,942.4L623.8,942.4c-1.9,2.8-4.9,4.3-8.8,4.3c-6.4,0-12.2-5.6-12.2-14.9c0-10.5,6.7-15.8,13-15.8
			c3.8,0,6.5,1.4,8.2,4.1h0.1l0.2-3.5h8.8c-0.1,2.9-0.2,5.8-0.2,8.8v32.4h-9.1V942.4z M623.8,929c0-0.5,0-1-0.2-1.5
			c-0.5-2.4-2.5-4.4-5.3-4.4c-4.2,0-6.3,3.5-6.3,8.3c0,4.9,2.4,8.1,6.2,8.1c2.6,0,4.7-1.8,5.3-4.2c0.2-0.6,0.3-1.4,0.3-2V929z"/>
		<path fill="#FC6541" d="M667.9,936.6c0,3.8,0.1,7,0.2,9.4h-7.9l-0.4-4.1h-0.2c-1.1,1.8-3.9,4.8-9.2,4.8c-6,0-10.3-3.7-10.3-12.8
			v-17.3h9.1v15.8c0,4.3,1.4,6.9,4.6,6.9c2.5,0,4-1.7,4.5-3.2c0.2-0.5,0.3-1.2,0.3-1.9v-17.5h9.1v19.9L667.9,936.6L667.9,936.6z"/>
		<path fill="#FC6541" d="M682.2,934.3c0.3,3.8,4,5.6,8.3,5.6c3.1,0,5.6-0.4,8.1-1.2l1.2,6.2c-3,1.2-6.7,1.9-10.6,1.9
			c-9.9,0-15.7-5.8-15.7-14.9c0-7.5,4.7-15.7,14.8-15.7c9.5,0,13.1,7.4,13.1,14.7c0,1.6-0.2,2.9-0.3,3.6h-18.9L682.2,934.3
			L682.2,934.3z M693,928c0-2.2-1-6-5.1-6c-3.9,0-5.4,3.5-5.7,6H693z"/>
	</g>
</g>
<g id="fond_categorie">
	<path fill="#028283" d="M841.2,623l-19.9,71.4c-5.6,11.7-49.1,33.3-59.3,41.4l-51.2,57.7c-10.2,8.1-66.3,10.3-78.9,13.2l-63.7,28.2
		c-12.7,2.9-69.4-20.8-82.1-23.7l-64.3-0.9c-12.7-2.9-55.4-50.4-65.5-58.6l-55.7-27.1c-10.2-8.1-26.4-66.2-32-77.9l-40-51.9
		c-5.6-11.7,5-76.8,5-89.8l-13.5-58.4c0-13,34.3-59.9,39.9-71.7l16.6-65.6c5.6-11.7,54.8-37.6,65-45.7l45.5-53.4
		c10.2-8.1,71.8-11.6,84.5-14.5l58.1-26.8c12.7-2.9,65.5,19.6,78.2,22.5l68.2,2.1c12.7,2.9,52.8,47.8,62.9,55.9l58.3,29.8
		c10.2,8.1,28.2,68.6,33.8,80.4l38.2,49.4c5.6,11.7-4.4,66.5-4.4,79.5l13,68.7C877.9,570.2,846.9,611.3,841.2,623z"/>
</g>
<g>
	<g id="texte_titre_badge">
		<path fill="#FFFFFF" d="M348.2,627.7h-10.4v-7.3h29.6v7.3h-10.5v31.1h-8.7V627.7z"/>
		<path fill="#FFFFFF" d="M380.7,620.4v38.4H372v-38.4H380.7z"/>
		<path fill="#FFFFFF" d="M395.7,627.7h-10.4v-7.3h29.6v7.3h-10.5v31.1h-8.7V627.7z"/>
		<path fill="#FFFFFF" d="M419.5,620.9c2.8-0.5,6.9-0.8,11.5-0.8c5.7,0,9.7,0.9,12.4,3c2.3,1.8,3.6,4.5,3.6,8.1
			c0,4.9-3.5,8.3-6.8,9.4v0.2c2.7,1.1,4.2,3.6,5.1,7.2c1.2,4.3,2.3,9.4,3.1,10.8h-8.9c-0.6-1.1-1.5-4.2-2.6-9s-2.7-6.1-6.3-6.1H428
			v15.1h-8.6L419.5,620.9L419.5,620.9z M428.1,637.4h3.4c4.3,0,6.9-2.2,6.9-5.5c0-3.5-2.4-5.3-6.4-5.3c-2.1,0-3.3,0.1-3.9,0.3V637.4
			z"/>
		<path fill="#FFFFFF" d="M476.1,642.6H462v9.1h15.8v7.1h-24.5v-38.4H477v7.1h-15v8h14.1V642.6z"/>
		<path fill="#FFFFFF" d="M495.2,620.9c3.2-0.5,7.4-0.8,11.7-0.8c7.3,0,12.1,1.3,15.7,4.1c4,3,6.5,7.7,6.5,14.5
			c0,7.4-2.7,12.5-6.4,15.6c-4,3.4-10.2,5-17.7,5c-4.5,0-7.7-0.3-9.9-0.6L495.2,620.9L495.2,620.9z M503.9,652.3
			c0.8,0.1,2,0.2,3,0.2c7.9,0.1,13-4.3,13-13.5c0-8-4.7-12.2-12.1-12.2c-1.9,0-3.2,0.2-3.9,0.3L503.9,652.3L503.9,652.3z"/>
		<path fill="#FFFFFF" d="M543.5,620.4v22.1c0,6.6,2.6,10,7,10c4.6,0,7.1-3.2,7.1-10v-22.1h8.7V642c0,11.9-6,17.5-16,17.5
			c-9.7,0-15.4-5.4-15.4-17.6v-21.5H543.5z"/>
		<path fill="#FFFFFF" d="M585.3,620.9c2.3-0.4,6.9-0.8,11.2-0.8c5.3,0,8.6,0.5,11.4,2.2c2.7,1.4,4.6,4,4.6,7.6c0,3.4-2,6.6-6.3,8.2
			v0.1c4.4,1.2,7.6,4.5,7.6,9.4c0,3.5-1.6,6.3-4,8.2c-2.8,2.3-7.5,3.5-15.1,3.5c-4.3,0-7.4-0.3-9.4-0.6V620.9z M593.9,635.6h2.8
			c4.6,0,7-1.9,7-4.8c0-2.9-2.2-4.5-6.1-4.5c-1.9,0-3,0.1-3.7,0.3V635.6z M593.9,652.6c0.8,0.1,1.9,0.2,3.3,0.2
			c3.9,0,7.4-1.5,7.4-5.6c0-3.8-3.4-5.4-7.8-5.4h-3L593.9,652.6L593.9,652.6z"/>
		<path fill="#FFFFFF" d="M628.6,648.9l-2.7,9.9h-9l11.7-38.4H640l12,38.4h-9.4l-3-9.9H628.6z M638.4,642.5l-2.4-8.2
			c-0.7-2.3-1.3-5.2-1.9-7.4H634c-0.6,2.3-1.1,5.2-1.8,7.4l-2.3,8.2H638.4z"/>
		<path fill="#FFFFFF" d="M657.1,620.9c3.2-0.5,7.4-0.8,11.7-0.8c7.3,0,12.1,1.3,15.7,4.1c4,3,6.5,7.7,6.5,14.5
			c0,7.4-2.7,12.5-6.4,15.6c-4,3.4-10.2,5-17.7,5c-4.5,0-7.7-0.3-9.9-0.6v-37.8H657.1z M665.8,652.3c0.8,0.1,2,0.2,3,0.2
			c7.9,0.1,13-4.3,13-13.5c0-8-4.7-12.2-12.1-12.2c-1.9,0-3.2,0.2-3.9,0.3V652.3z"/>
		<path fill="#FFFFFF" d="M728.9,657c-2.7,0.9-7.8,2.2-12.8,2.2c-7,0-12.1-1.8-15.6-5.2c-3.5-3.3-5.5-8.3-5.4-14
			c0-12.8,9.4-20.1,21.9-20.1c5,0,8.8,0.9,10.7,1.8l-1.8,7c-2.1-0.9-4.7-1.6-8.9-1.6c-7.2,0-12.8,4.1-12.8,12.4
			c0,7.9,5,12.6,12.1,12.6c2,0,3.6-0.2,4.2-0.5v-8.1h-5.9v-6.7h14.3V657z"/>
		<path fill="#FFFFFF" d="M758.5,642.6h-14.1v9.1h15.8v7.1h-24.5v-38.4h23.7v7.1h-15v8h14.1V642.6z"/>
	</g>
</g>
<path fill="none" stroke="#DADADA" stroke-width="3" stroke-miterlimit="10" d="M843.5,588.9L800.6,678c-5.6,11.7-13.9,22-24,30.1
	l-77.3,61.7c-10.2,8.1-22,13.8-34.7,16.7l-96.4,22c-12.7,2.9-25.9,2.9-38.5,0l-96.4-22c-12.7-2.9-24.6-8.6-34.7-16.7l-77.3-61.7
	c-10.2-8.1-18.4-18.4-24-30.1l-42.9-89.1c-5.6-11.7-8.6-24.6-8.6-37.6v-98.9c0-13,2.9-25.9,8.6-37.6l42.9-89.1
	c5.6-11.7,13.9-22,24-30.1l77.3-61.7c10.2-8.1,22-13.8,34.7-16.7l96.4-22c12.7-2.9,25.9-2.9,38.5,0l96.4,22
	c12.7,2.9,24.6,8.6,34.7,16.7l77.3,61.7c10.2,8.1,18.4,18.4,24,30.1l42.9,89.1c5.6,11.7,8.6,24.6,8.6,37.6v98.9
	C852.1,564.4,849.1,577.2,843.5,588.9z"/>
<g id="logo">
	
		<g id="g883_00000022539221150303535710000012577670282461929904_" transform="matrix(0.94456457,0,0,0.94456457,10.968378,31.18083)">
		<g id="g2828_00000171696707967573187200000003861866410656769187_">
			<g id="g32_00000012470246598759000750000011345678251396794009_">
				<g>
					<g id="g2830_00000147216620090965507800000015131937843293734299_">
						<g id="g2836_00000138573249127852964640000007795465304216835220_" transform="translate(427.0015,362.0531)">
							<path id="path2838_00000179611919407770736170000005572243517571327650_" fill="#0099FF" d="M-275.4-356.2
								c2.4,15.7-3,34.2-17.5,42.5c-16.1,7.8-29.8,1.5-18,24.9c-0.1,0.1-0.2,0.2-0.3,0.2c-23.9-19.2,6.1-29.7,18.2-43
								c-0.1-0.1-0.2-0.2-0.2-0.3c-7.7,4.4-14.9,9.8-22.9,13.7c-0.6,0.3-1.1,0.3-1.1-0.6c0.2-8.1,3.4-17,11.4-20.5
								C-295.4-344.2-281.5-345.2-275.4-356.2"/>
						</g>
						<g id="g2840_00000151519121191915560580000013807043178792810383_" transform="translate(143.617,309.6074)">
							<path id="path2842_00000058565123737901383970000011303555799292898996_" fill="#97D123" d="M-80.4-287.6
								c17.8,18.2,60.2,34.7,25.4,61.1c23.2-43.5-23.4-17.7-42.1-51.6c-8.3-13.5-11.2-30-9.1-45.5c10.7,19.6,37.2,15.5,51.8,30.2
								c6.4,6.3,7.7,15,8.5,23.5c1.7,6.2-31-17.1-34.1-18C-80.2-287.9-80.3-287.7-80.4-287.6"/>
						</g>
						<g id="g2844_00000035489690301249952040000003686994366910632093_" transform="translate(65.4546,150.0839)">
							<path id="path2846_00000026142188087656289550000005365780029706677692_" fill="#336633" d="M-26.7-79.1
								C9.9-78.5,40-72.8,69.8-58.2c2.4,1,1.7,1.8-0.8,2.4c-4,1-8.1,2-12.1,3.1c-2.3,0.6-3.7,0.2-5.3-0.6
								c-6.8-3.6-13.3-7.4-20.7-10.7c-18.4-8.5-44.4-13.1-67.5-13.2c-1.9,0.2-3.7-0.2-5.4-0.8C-37.2-79.6-31.8-78.8-26.7-79.1"/>
						</g>
						<g id="g2848_00000170958630105484673390000005179589353395938983_" transform="translate(235.3552,55.1964)">
							<path id="path2850_00000051369547442575571340000007629012325295842726_" fill="#F9A72B" fill-opacity="0.9804" d="
								M-143.5,44.9c-19.1-1.5-44.4-6.8-53.2-20.2c22.3,1,38.8,8.6,53.9,19.5C-143.1,44.4-143.3,44.7-143.5,44.9"/>
						</g>
						<g id="g2852_00000003070772560924131070000015064573491751975856_" transform="translate(310.5638,57.8876)">
							<path id="path2854_00000103239456135586455770000018070281958382022323_" fill="#339933" d="M-195.3,41.4
								c-5.7,0.3-10.6,0.7-15.6,0.8c-1,0-2.5-0.7-3.2-1.3c-6.2-4.8-13.3-9.2-21.9-13c-10.9-4.8-23.4-7.9-37.8-8.7
								c-1.8,0.2-3-0.6-4.4-1.4C-249.8,15.6-215.2,26.7-195.3,41.4"/>
						</g>
						<g id="g2856_00000094593353856558934710000008448669540992617364_" transform="translate(458.8952,130.3764)">
							<path id="path2858_00000085235496936482419190000006022033728257513601_" fill="#FF9933" fill-opacity="0.9804" d="
								M-297.3-53.4c-4.4,6-9.8,9.8-17.1,13.6c-1.5,0.8-2.5,0.9-4,0c-2.9-1.8-6.1-3.4-9.2-5.1C-333.4-47.3-300.4-54.5-297.3-53.4"/>
						</g>
						<g id="g2860_00000048488434270573758610000001544392588597544632_" transform="translate(282.366,134.4695)">
							<path id="path2862_00000072972256618881377470000011231874001594268837_" fill="#336633" d="M-175.9-58.7
								c18.1-5.1,36.9-6.5,56.5-6.3c2.9,0.2,6-0.2,8.6,1.3c-0.9,0.2-1.8,0.7-2.8,0.7c-16,0.4-33.1,2-47.6,6.8
								C-166.5-54.4-170.3-57.5-175.9-58.7"/>
						</g>
						<g id="g2864_00000125584444432075455300000012340257352462951334_" transform="translate(319.906,119.4833)">
							<path id="path2866_00000087411332584606865660000005665633993601472692_" fill="#339933" d="M-201.7-39.1
								c14.3-4.1,28.8-6.7,44.9-7.2c1.4-0.1,4,0.3,4.1,0.6c0.3,1.3-1.9,1.5-3.8,1.6c-12.9,0.7-24.4,3.3-34.9,7.2
								C-195.4-35.6-197.5-37.8-201.7-39.1"/>
						</g>
						<g id="g2868_00000096740042981786078030000006680820221215785391_" transform="translate(274.1679,344.1267)">
							<path id="path2870_00000092448873560858500550000005256059467813953430_" fill="#666666" d="M-170.2-332.7
								c7.7,0,7.2,11-0.1,11C-177.8-321.7-178.1-333-170.2-332.7"/>
						</g>
					</g>
				</g>
			</g>
		</g>
	</g>
</g>
<g id="filet_2_theme">
	<path fill="none" stroke="#000000" stroke-width="5" stroke-miterlimit="10" d="M737.3,124.1c41.7,0,82,0,92.5,0
		c6.1,0,38.5,0.6,64.6,26.8c16.5,16.5,26.8,39.4,26.8,64.6v521.1c0,96.6-40.9,137.5-91.4,137.5H262.6c-50.5,0-91.4-40.9-91.4-91.4
		V573.9c0-0.6-0.5-1-1-1.1c-1.6-0.1-4.9-0.2-7.3-0.1c-7.7,0.1-111.2-0.1-117.6-0.1c-5.4-0.1-13.6-4.4-13.5-13.6
		c0.3-13.3-0.2-102.3-0.2-122c0-8.4,4.5-13.5,14.4-13.5c13.9,0,80.8-0.1,112.9-0.1c3.7,0,12.3,0,12.3-0.3c0-0.8,0-8.6,0-8.7
		c0-8.5,0-73.5,0-198.9c0-13.1,5.1-43,26.8-64.6c16.5-16.5,39.4-26.8,64.6-26.8c20.1,0,70.7,0,90.8,0c2,0,3.9,0,5.9,0"/>
	<circle fill="#FFFFFF" stroke="#1D1D1B" stroke-width="4" stroke-miterlimit="10" cx="885" cy="823.7" r="103.5"/>
</g>
<g id="picto_theme" transform="translate(-0.57932694)">
	<g id="picto_categorie">
		<g id="g68">
			<path id="path60" fill="none" stroke="#000000" stroke-width="2.5412" stroke-linecap="round" stroke-miterlimit="12.7059" d="
				M847.5,807.9c0-25.7,23.5-36.9,38.5-36.9s37.7,13.6,37.7,36.5s-37.9,68.8-37.9,68.8S847.5,826.1,847.5,807.9z"/>
			
				<polygon id="polygon62" fill="none" stroke="#000000" stroke-width="2.5412" stroke-linecap="round" stroke-linejoin="round" stroke-miterlimit="12.7059" points="
				870.3,830.5 873.2,813.8 861,801.9 877.9,799.5 885.4,784.2 892.9,799.5 909.7,801.9 897.5,813.8 900.4,830.5 885.4,822.6 			"/>
			
				<ellipse id="ellipse64" fill="none" stroke="#000000" stroke-width="2.5412" stroke-linecap="round" stroke-linejoin="round" stroke-miterlimit="12.7059" cx="889.2" cy="807.6" rx="2" ry="3.3"/>
			
				<ellipse id="ellipse66" fill="none" stroke="#000000" stroke-width="2.5412" stroke-linecap="round" stroke-linejoin="round" stroke-miterlimit="12.7059" cx="881.3" cy="807.6" rx="2" ry="3.3"/>
		</g>
	</g>
</g>
<g id="picto_titre_badge">
	<g id="g6791" transform="translate(427.0015,362.0531)">
		<path id="path6789" fill="#FFFFFF" d="M246.2,0.2c0.3,1.9,0.5,3,0.7,4.1c1,7,0.7,14,0.1,21c-0.6,8.5-2.2,16.6-4.7,24.7
			c-3.8,12.2-9.6,23.4-18.3,32.9c-4.9,5.3-10.4,9.9-16.7,13.5c-6.9,4-14.4,5.9-22.1,7.8c-6.3,1.6-12.8,3.2-18.7,5.9
			c-9.2,4.2-10.8,11.1-8.5,19.3c1.9,7,5.2,13.5,7.9,20.4c0.4,1,0.9,1.9,1.3,2.9c-0.2,0.2-0.4,0.3-0.6,0.6c-1.3-1-2.6-1.9-3.8-3.1
			c-6.5-6.3-12.4-12.9-15-21.9c-2.7-9.3,0-17.4,5.6-24.7c6.9-9,16-15.8,24.9-22.7c8.5-6.5,16.6-13.3,24.8-20.1
			c1.5-1.3,2.7-3.1,4-4.7c-0.2-0.2-0.3-0.4-0.6-0.6c-1.9,1.1-3.9,2.2-5.8,3.5c-11.6,7.3-23.1,14.7-34.7,21.9
			c-3.3,2.1-7,3.8-10.6,5.6c-1.3,0.6-2.5,0.8-2.4-1.3c0.4-8.6,1.6-17.1,5.1-25.1c4.2-9.4,10.8-17.1,20.1-21.4
			c9.4-4.3,19.2-7.6,28.9-11.2c9.5-3.4,19-6.8,27-13.2c4.2-3.3,7.8-7.2,10.3-11.9C244.9,1.8,245.4,1.3,246.2,0.2"/>
	</g>
	<g id="g6795" transform="translate(143.617,309.6074)">
		<path id="path6793" fill="#FFFFFF" d="M332.7,89c3.3,3.3,6.3,6.9,9.9,9.8c13.8,11,27.8,21.9,41.6,32.9c10,7.9,19.7,16.3,26.9,27.1
			c9.8,14.7,9.7,31,0,45.8c-5.3,8.1-12.2,14.9-19.2,21.5c-0.6,0.6-1.5,1-2.8,1.1c0.5-1.1,0.8-2.3,1.4-3.3c4.7-8.8,9-17.9,11.5-27.6
			c1.4-5.4,2-10.9,0.7-16.5c-2-8.9-8.7-13.5-16.5-16.1c-9.1-3.1-18.4-5.6-27.8-7.6c-27.7-5.9-48.1-21.9-62.9-45.5
			c-8.4-13.3-13.8-28-17.4-43.3c-3.9-16.5-4.8-33.1-4.2-49.9c0.1-3,0.8-6,1.3-9.8c1,1.3,1.6,1.7,1.9,2.4c8.9,15.5,22.9,24.8,39,31
			c13.8,5.3,27.8,9.5,41.6,14.6c12.2,4.5,23.7,10.4,32.8,20.2c8,8.6,13.4,18.7,15.7,30.1c1.5,7.6,2.4,15.3,3.3,23
			c0.4,3.5-0.3,3.8-3.5,2.3c-17-7.9-32.7-18-48.3-28.3c-7.2-4.7-14.4-9.1-21.6-13.6c-0.8-0.5-1.6-0.8-2.4-1.2
			C333.3,88.4,333,88.8,332.7,89"/>
	</g>
	<g id="g6799" transform="translate(65.4546,150.0839)">
		<path id="path6797" fill="#FFFFFF" d="M356.6,359.4c64.5,0.8,123.3,10.2,174.9,29.7c14.1,5.3,26.5,11.7,39.7,17.6
			c5.3,2.4,3.8,4.1-1.8,5.5c-9,2.3-18.1,4.5-27,6.9c-5.1,1.4-8.2,0.6-11.8-1.5c-15.1-8.2-29.7-16.7-46.1-24.2
			c-32.9-14.9-71.7-24.5-115.7-28.3c-11.3-1-22.9-1-34.4-1.5c-1.8-0.1-3.8,0.2-5.5-0.1c-2.4-0.3-4.4-1.1-6.6-1.7
			c2-0.6,3.9-1.6,6-1.7c6.6-0.4,13.3-0.6,20-0.8C351.1,359.3,353.8,359.4,356.6,359.4"/>
	</g>
	<g id="g6803" transform="translate(235.3552,55.1964)">
		<path id="path6801" fill="#FFFFFF" d="M304.7,520.2c-10.8-1.3-21.8-2-32.2-3.8c-37.5-6.4-65.1-19-83.5-37
			c-1.5-1.5-1.8-3.3-2.6-4.9c3.1,0.1,6.3,0.1,9.3,0.3c38.2,4.2,67.4,15.6,91.7,30.8c6.7,4.2,12.6,8.7,19,13
			C305.8,519.1,305.2,519.7,304.7,520.2"/>
	</g>
	<g id="g6807" transform="translate(310.5638,57.8876)">
		<path id="path6805" fill="#FFFFFF" d="M281.8,515.6c-12.6,0.8-23.5,1.6-34.7,1.9c-2.3,0.1-5.5-1.6-7.1-2.9
			c-13.8-10.9-29.5-20.9-48.6-29.5c-24.3-10.9-52-17.8-84.2-19.7c-1.5-0.1-3.3,0.1-4.4-0.3c-2-0.8-3.6-1.9-5.4-2.8
			c2-0.5,4-1.5,6-1.5c20,0.3,39.4,2.4,58.2,5.8c48.5,8.8,85.6,25.4,117,46C279.4,513.1,280,513.9,281.8,515.6"/>
	</g>
	<g id="g6811" transform="translate(458.8952,130.3764)">
		<path id="path6809" fill="#FFFFFF" d="M236.5,392.8c-2.2,2.8-3.8,5.4-6.2,7.8c-8.5,8.7-18.9,16.4-32,23.1c-3.4,1.7-5.6,1.9-9-0.1
			c-6.5-4-13.5-7.8-20.4-11.5c-2.5-1.4-3.1-2.4,0.1-3.8c19.3-7.9,40.4-13.4,63.9-15.8C233.6,392.3,234.2,392.5,236.5,392.8"/>
	</g>
	<g id="g6815" transform="translate(282.366,134.4695)">
		<path id="path6813" fill="#FFFFFF" d="M290.4,385.8c2.9-1,4.3-1.6,5.8-1.9c38.4-9.1,78.5-13.1,120-12.4c4.6,0.1,9.2,0.3,13.6,0.8
			c2,0.2,3.6,1.4,5.4,2.2c-2,0.6-4,1.6-6.2,1.7c-9.8,0.6-19.6,0.8-29.4,1.4c-27.2,1.6-52.7,6.4-76.5,14c-5.5,1.7-9.7,2-15.1-0.1
			C303,389.4,297.2,388,290.4,385.8"/>
	</g>
	<g id="g6819" transform="translate(319.906,119.4833)">
		<path id="path6817" fill="#FFFFFF" d="M278.9,411.2c2.4-0.7,3.7-1,4.9-1.4c29.6-8.5,61.1-13.8,94.9-14.9c3.1-0.1,8.9,0.8,9.1,1.5
			c0.8,2.9-4.3,3.3-8.5,3.5c-28.8,1.7-54.3,7.4-77.7,16.2c-3.8,1.5-7.2,1.5-10.8-0.1C287.6,414.7,284.3,413.4,278.9,411.2"/>
	</g>
	<g id="g6823" transform="translate(274.1679,344.1267)">
		<path id="path6821" fill="#FFFFFF" d="M292.9,30.5c7.2,0,12.6,5.1,12.6,12c0.1,7-5.8,12.9-12.9,12.9c-7.2,0-12.9-5.8-12.9-12.9
			C279.9,35.4,285.1,30.5,292.9,30.5"/>
	</g>
</g>
<g id="tracy" opacity="0.25" enable-background="new    ">
	<path fill="#3DADA8" d="M261.1,47.9c-0.2,0.1-0.5,0.3-1,0.7c0,0.1,0,0.2,0,0.2c0,0.1,0,0.1,0,0.2c-0.1,0-0.2,0-0.4-0.1
		c-0.1,0-0.1,0.1-0.2,0.3c-0.4,0.1-0.9,0.3-1.4,0.6l-1.5,0.4c-0.1,0-0.2,0-0.2-0.1c-0.1,0.1-0.2,0.2-0.2,0.2
		c0.1,0.1,0.2,0.3,0.5,0.4c-0.1,0-0.2,0-0.3,0c-0.2,0-0.6,0-1-0.1c0.2,0,0.2-0.1,0.2-0.2h-0.3c-0.1,0.1-0.2,0.2-0.2,0.3
		c-0.1-0.1-0.3-0.2-0.5-0.2V51l-0.4,0.2c0.4,0,0.7,0,0.8,0.1c-0.1,0-0.2,0-0.2,0.1h-2.4c-0.1,0-0.1,0-0.1,0.1l-2.1,0.4
		c0.3,0,0.8,0.1,1.4,0.3c0-0.1,0.1-0.2,0.2-0.4h0.3l-0.1,0.1l0.3,0.1l0.2-0.2c0,0.1,0.1,0.1,0.2,0.3h0.8c-0.2,0-0.6,0.1-1,0.3
		c-0.1,0-0.2-0.1-0.3-0.2l-0.1,0.2c-0.1,0-0.2-0.1-0.4-0.1c-0.1,0-0.2,0.1-0.3,0.2c0.2,0.1,0.5,0.1,0.8,0.1c-0.1,0-0.3,0-0.6,0
		c-0.3,0-0.5,0.1-0.6,0.1c0,0,0,0,0,0c0,0,0-0.1,0.1-0.2h-0.5l0.1,0.1c0,0.2-0.1,0.2-0.3,0.2h-3.1c-0.2-0.1-0.2-0.2-0.3-0.2h-0.2
		l0.1,0.2c-0.1,0-0.2,0-0.3,0c-0.6,0-1.3,0.1-2.1,0.2c-0.1-0.1-0.2-0.2-0.2-0.2c0,0,0,0,0,0c-0.2-0.1-0.3-0.1-0.5-0.1
		c0,0-0.1,0-0.3,0c-0.2,0-0.2,0-0.3,0c-0.4,0-0.7-0.1-0.8-0.3h-0.2c0,0-0.1,0-0.3,0.1l-2.1-0.7c0-0.1,0.1-0.1,0.1-0.1
		c0.1,0,0.1,0,0.2,0.1h0.2c0.1,0,0.2,0,0.3-0.1c-0.2-0.1-0.4-0.2-0.5-0.2c-0.1,0-0.1,0-0.2,0.1c-0.1-0.1-0.4-0.2-1-0.4
		c0,0-0.1,0.1-0.1,0.2h-0.3c0-0.1-0.1-0.2-0.3-0.2c-0.2-0.1-0.4-0.2-0.4-0.2c0-0.1-0.1-0.2-0.1-0.2c0.1,0,0.1-0.1,0.1-0.1
		c-0.1-0.1-0.2-0.1-0.3-0.1c0.1,0,0.1,0,0.2-0.1l-0.2-0.1l-0.2,0.2c-0.1-0.1-0.1-0.1-0.2-0.1c-0.1-0.1-0.1-0.3-0.2-0.6l-0.9-0.4
		c0,0,0-0.1,0.1-0.2c-0.1,0-0.2-0.2-0.4-0.5c-0.1,0-0.4-0.4-0.7-1c-0.1-0.9-0.2-1.7-0.3-2.3l-0.2-1.5c0-3.9,2.3-8,7-12.3
		c0.4-0.1,0.8-0.3,1.1-0.6c0.4-0.4,0.7-0.5,0.9-0.5c0,0,0.1,0,0.1,0c0.1-0.2,0.3-0.4,0.6-0.8c0.6-0.3,1.4-0.8,2.5-1.4
		c0.2,0,0.4,0.1,0.4,0.1l1.3-0.9l4.2-1.2h1.3c0.1,0.2,0.2,0.4,0.3,0.7c0.1,0.1,0.3,0.3,0.5,0.5c-0.2,0.1-0.3,0.3-0.3,0.5
		c0,0.7,0,1,0,1.1c0,0,0,0,0-0.1c0.1,0.1,0.3,0.3,0.5,0.6c0,0-0.2,0.1-0.4,0.2v0c0,0,0,0.1,0.1,0.3l-0.5,0.4c0.1,0,0.3,0.1,0.6,0.2
		c-0.4,0.2-0.7,0.3-0.9,0.3c-0.1,0-0.1,0-0.2,0c0,0.1-0.1,0.1-0.2,0.2c-0.3,0-0.7,0.1-1.2,0.2c-0.1,0.1-0.7,0.4-1.7,0.8
		c-0.2,0.1-0.7,0.3-1.4,0.6c-0.5,0.4-1.6,0.9-3.2,1.8c-0.9,0.8-1.8,1.5-2.5,2c-0.6,0.6-1.5,1.7-2.8,3.2c-0.1,0.1-0.2,0.1-0.3,0.2
		c-0.2,0.1-0.3,0.3-0.3,0.5c0,0.1,0,0.2,0.1,0.3c-0.2,0.2-0.5,0.5-0.9,1v0c0,0,0,0.1,0.1,0.3l-0.5,1.7v1.1c0,0.1,0.1,0.3,0.4,0.5
		c0.3,0.2,0.5,0.4,0.6,0.4c0.1,0.1,0.3,0.2,0.5,0.4c0.1,0,0.9,0.3,2.4,0.7c0.6,0.1,1.2,0.1,1.9,0.2l2.7,0.1l3-0.2l4-0.5
		c0.1,0,0.3,0,0.4,0.1l1.2-0.4c0.1,0.1,0.1,0.1,0.2,0.1l1.8-0.5h0.6l0.2,0.2h1.1c0.1,0.1,0.1,0.2,0.1,0.3c0,0,0.1,0.1,0.3,0.1
		c0,0.1-0.1,0.1-0.1,0.2c0.1,0.1,0.2,0.2,0.2,0.2c-0.1,0.1-0.3,0.2-0.5,0.4c0,0,0,0.1,0,0.1c0,0,0,0,0.1,0h0.5v0
		c0,0-0.1,0.2-0.2,0.6C260.9,47.8,261,47.8,261.1,47.9z M254,50.6h-0.3v0c0,0-0.1,0.1-0.1,0.3C253.7,50.9,253.8,50.8,254,50.6z"/>
	<path fill="#3DADA8" d="M280.6,49.8c-0.3,0.3-0.6,0.8-1.1,1.4l-0.5-0.1c0,0.1-0.1,0.2-0.2,0.4c-0.1-0.1-0.3-0.2-0.6-0.4
		c0,0,0,0-0.1,0c-0.3,0-0.9-0.3-1.7-1c-0.2-0.4-0.6-1.1-1.4-2.1l-4,3c0,0,0,0.1,0.1,0.1c0.1,0.1,0.1,0.1,0.1,0.1
		c-0.1,0.2-0.5,0.4-1.3,0.8c-2.2,0.7-3.3,1-3.3,1c-1.6,0-2.8-0.6-3.7-1.8c-0.4-1.2-0.7-2-0.7-2.6c0-0.4,0.4-1.4,1.2-3.3
		c0.7-0.8,1.2-1.2,1.5-1.2c0.1-0.1,0.9-0.6,2.2-1.6c0.6-0.3,1.7-0.7,3.1-1.3c1.4-0.3,2.2-0.5,2.2-0.6h0c0.1,0,0.4,0,0.8,0.1
		c0.3,0,0.6,0,0.8,0c0.1,0,0.2,0,0.2,0c0.6,0.3,0.9,0.6,0.9,0.9c0,0,0,0.1,0,0.1c0.1,0.1,0.4,0.5,0.8,1.3c0.1,0,0.2,0,0.3,0
		c0.4,0,0.9,0.2,1.3,0.6c0.7,1.1,1.3,2,1.8,2.9C279.8,47.9,280.3,48.9,280.6,49.8z M273.1,45.2h-0.8c-0.3,0-0.9,0.2-1.9,0.6
		l-1.7,0.7c-0.6,0.4-1.3,0.9-2.1,1.6l-0.1,0.2l0.9,0.1c2.1-0.5,3.7-1.4,4.9-2.6C272.5,45.7,272.7,45.5,273.1,45.2z"/>
	<path fill="#3DADA8" d="M310.1,46.9c0,0.2-0.1,1.3-0.3,3c-0.3,0.9-0.4,1.4-0.4,1.4v0c-0.1,0.1-0.2,0.2-0.3,0.2c0,0,0,0-0.1,0
		l-0.3,0.5c-0.4,0-0.9-0.2-1.6-0.4c-0.1-0.2-0.4-0.5-0.8-0.8c-0.2-0.4-0.2-0.8-0.2-1.4v-4.1l-0.7-2c0,0,0,0,0,0c0,0-0.1,0-0.1-0.1
		c-0.2,0.1-0.5,0.2-0.9,0.3c-1.2,0.2-2.4,1.1-3.8,2.6c-0.1,0.1-1,1.4-2.8,4c-0.2,0.5-0.6,1.2-1.2,2.2c0,0,0,0,0,0
		c-0.1,0-0.3,0.1-0.8,0.2c-0.1,0-0.2-0.1-0.3-0.1c-0.1,0.1-0.3,0.2-0.6,0.4l-0.4-0.7c0-0.1-0.2-0.2-0.4-0.3H294c0,0-0.1,0-0.2,0.1
		c-0.1,0.1-0.1,0.1-0.2,0.1c0,0,0,0,0,0c0,0-0.1-0.2-0.4-0.5l-0.1-2.4l0.4-4.9c0-0.3-0.1-0.6-0.2-1.1h0c0,0-0.1,0-0.1-0.1
		c-0.2,0.1-0.6,0.2-1.1,0.4c-0.2,0.2-0.5,0.5-1,0.9c-1.2,0.8-2.3,2-3.2,3.5c-0.9,0.9-1.5,2-2.1,3.2c-0.1,0.1-0.2,0.2-0.2,0.3
		c0,0.1,0,0.1,0.1,0.2c0.1,0.1,0.1,0.1,0.1,0.2c0,0,0,0.1-0.1,0.1c-0.1,0-0.8,0-1.8,0c-0.5-0.7-0.9-1-1.5-1c0,0,0,0,0,0
		c0-0.2-0.1-0.4-0.2-0.8c0-0.1,0-0.3-0.1-0.6c0,0,0-0.1,0-0.1c0-0.2,0.1-0.3,0.2-0.4l-0.3-0.2c0-0.6,0.3-2,0.7-4.1
		c0.1-0.4,0.3-1.3,0.6-2.5c0.4-0.7,0.5-1.1,0.6-1.1v0c0-0.1,0-0.1,0-0.1c0.7-0.3,1-0.5,1-0.6c0.3,0,0.7,0.3,1.1,1
		c0.3,0.5,0.6,0.9,0.8,1.2c0,0,0,0,0,0c0.1,0,0.2-0.1,0.5-0.3c1.1-1,2-1.7,2.6-2.2c1.1-0.8,2-1.3,2.8-1.5c0.2,0,0.4-0.1,0.5-0.3
		c0.5-0.2,0.8-0.3,1-0.3c0.5,0,1.1,0.6,1.7,1.7c0.3,0.4,0.6,1.1,1,2l0.4,2.3c0.1-0.1,0.4-0.4,1-0.8c0.3-0.2,0.5-0.4,0.8-0.8
		c0.9-1,1.9-1.9,3.1-2.6c1.4-0.9,2.6-1.3,3.6-1.3c0.7,0,1.4,0.4,2.1,1.3c0.7,0.9,1.1,1.7,1.2,2.6c0.1,0.6,0.3,1.5,0.6,2.6
		L310.1,46.9z"/>
	<path fill="#3DADA8" d="M334.4,44.8c0,0,0,0.2-0.1,0.4c-0.1,0.2-0.2,0.4-0.2,0.6c0,0.5-0.3,1.2-0.9,1.9c-0.6,0.7-1.2,1.2-1.8,1.5
		c-0.5,0.2-0.8,0.3-0.9,0.5l-3.3,1.6l-3.1,1l-0.1-0.1l-5.3,1.3c-0.1-0.1-0.2-0.1-0.3-0.1c-0.1,0-0.2,0-0.3,0.1l-1.5-0.6l-0.4,3.1V57
		l-0.5,4.6l0.1,3.2l-0.2,2.7c0,0-0.1,0.1-0.3,0.3c-0.1,0.2-0.3,0.2-0.4,0.2c-0.1,0-0.2-0.1-0.3-0.3c0,0,0,0.1-0.1,0.1l-0.2,0.2
		c0,0,0,0,0,0c-0.2,0-0.3-0.1-0.5-0.3c-0.8-0.4-1.3-1-1.6-2.1c-0.2-1.5-0.3-2.3-0.3-2.4V60l0.5-6.1c0.1-0.8,0.6-4.1,1.7-9.8
		c0.3-0.8,0.7-1.2,1.2-1.2l0.6,0.1c0.4,0.2,0.7,0.6,0.9,1c0.3,0.6,0.5,1,0.5,1.1c0,0,0,0.2,0,0.7L317,49c0,0.2,0,0.4,0.1,0.7
		c1.2-0.5,2.7-1.1,4.4-1.8c1.8-0.3,3.7-0.9,5.7-2c0.1,0,0.2-0.1,0.4-0.1c0.4-0.3,0.7-0.5,1-0.5c0.4-0.3,0.9-0.8,1.7-1.6
		c-0.2-0.5-0.6-0.9-1.2-1.2c-1-0.6-1.5-0.9-1.6-0.9l-0.3,0.1l-0.6-0.3l-0.2,0c-0.1,0-0.2,0-0.2,0l-1.8-0.4l-3.7,0.1
		c-0.1,0-0.3,0-0.5,0.1c-0.4,0.1-0.7,0.1-0.7,0.1c-1.8,0.2-3.2,0.6-4.3,1.2c-0.3,0-0.8,0.3-1.6,0.7c-1,0.5-1.5,1-1.5,1.5
		c0,0.2,0.1,0.4,0.3,0.7c-0.1,0.1-0.1,0.1-0.3,0.1c-0.1,0.1-0.1,0.2-0.1,0.3c0,0,0,0.1,0,0.1c0,0-0.1,0-0.2,0c-0.1,0-0.1,0-0.2,0
		l-0.2,0.5c-0.1,0-0.2-0.1-0.4-0.2c0,0-0.1,0.1-0.2,0.2h-0.4c-0.1-0.1-0.2-0.2-0.3-0.4L310,46c-0.2-0.3-0.5-0.6-0.7-0.7
		c0-0.3-0.1-0.6-0.1-0.8l-0.1-0.3v-1.4l0.3-0.4c0,0,0-0.1,0-0.1c0-0.4,0.2-0.8,0.7-1.2c0.4-0.3,0.8-0.6,1.2-0.9
		c0.1-0.2,0.2-0.3,0.3-0.5c0.2,0.1,0.3,0.1,0.4,0.1l5.1-2.4l3.2-0.9c0.4,0.1,0.8,0.2,1.2,0.2c0,0,0.1,0,0.3-0.1
		c0.2-0.1,0.3-0.1,0.3-0.1h1.6c0,0,0.1-0.1,0.2-0.1c0.6,0.1,1.1,0.2,1.5,0.3c0.5,0,0.9,0,1.2,0.1c0.6,0.1,1.1,0.2,1.5,0.5
		c0,0,0.1,0,0.2,0s0.2,0,0.2,0c1.2,0,2.5,0.8,3.8,2.4c0.3,0.4,0.7,0.9,1.2,1.6C334.1,42.9,334.4,44.1,334.4,44.8z"/>
	<path fill="#3DADA8" d="M351.5,43.2c-0.1,0.6-0.4,1.7-0.7,3.3c-0.2,0.7-0.6,1.6-1.3,2.8c-0.7,1-1.3,1.7-1.6,2.1
		c-0.7,0.8-1.5,1.2-2.2,1.4c-0.3,0.1-0.7,0.3-1.3,0.5c-0.9,0.2-1.5,0.3-1.7,0.3c-2.3,0-4.3-1.8-6-5.3c-0.2-0.9-0.3-1.7-0.3-2.3
		c0-0.4,0.1-1,0.3-1.8c0.6-0.5,1-0.7,1.2-0.7h0c1.3,0.6,1.9,1.5,1.9,2.8c0,0.5,0.3,1.2,1,2c0.7,0.3,1.1,0.5,1.1,0.5h0.5
		c0.1,0,0.6-0.2,1.3-0.4c1-0.7,1.7-1.2,2.1-1.5c0.8-0.7,1.2-1.4,1.3-2.1c0.1-0.4,0.5-1.4,1-3c0.3-1.1,0.7-1.8,1-2.2c0,0,0.1,0,0.2,0
		c0.1,0,0.2,0,0.3,0h0.5c0.1,0.1,0.2,0.3,0.4,0.4c0.2,0.4,0.5,0.9,0.9,1.5c0,0.1,0,0.3,0,0.4c0,0.2,0,0.3,0,0.5c0,0.1,0,0.2,0,0.3
		C351.3,42.9,351.4,43,351.5,43.2z"/>
	<path fill="#3DADA8" d="M367.2,49.6c0,0.5-0.1,1-0.3,1.5c-0.2,0.3-0.9,0.7-2.1,1.2c-1.3,0.5-2.4,0.8-3.1,0.8
		c-0.1,0-0.4-0.1-1.2-0.2c-0.2,0-0.3,0-0.5,0c-0.2,0-0.5,0-0.7,0.1l-1.5-0.3h-1.3c-0.2,0-0.6-0.1-1.3-0.4c-0.6-0.2-0.9-0.3-1.1-0.4
		c-0.1-0.2-0.2-0.5-0.4-0.7c0-0.1,0-0.2,0.1-0.2l-0.2-0.2c0.1-0.2,0.1-0.4,0.1-0.6c0-0.3-0.1-0.5-0.2-0.7c0.7-0.3,1.2-0.4,1.4-0.4
		h1.1l1.6-0.2h1l2.5-0.3c0.1-0.1,0.2-0.2,0.2-0.2c0-0.1-0.2-0.2-0.4-0.3c-0.3-0.1-0.9-0.4-1.8-0.7c-3-1.3-4.7-2.7-5.1-4.3
		c-0.1-0.3-0.2-0.5-0.3-0.6v-1.6c0-0.1,0.1-0.3,0.3-0.7c0.1-1.1,2.1-1.6,6.1-1.6h0c0,0,0.9,0.1,2.6,0.3c1.2,0.4,2,0.8,2.4,1
		c0.8,0.5,1.4,1.1,1.8,1.9c0,0.1-0.1,0.2-0.2,0.4c-0.2,0.2-0.2,0.4-0.2,0.5l0.1,0.2l-0.8,0.5h-0.2c0,0,0.1,0,0.1,0
		c0-0.1-0.6-0.2-1.9-0.6c-1.3-0.2-2.1-0.3-2.3-0.3l-2.1,0.3c0,0,0.1,0.1,0.1,0.2c0.1,0.1,0.3,0.2,0.5,0.4
		C364.7,45,367.2,47.2,367.2,49.6z"/>
	<path fill="#3DADA8" d="M403.4,49.8c-0.3,0.3-0.6,0.8-1.1,1.4l-0.5-0.1c0,0.1-0.1,0.2-0.2,0.4c-0.1-0.1-0.3-0.2-0.6-0.4
		c0,0,0,0-0.1,0c-0.3,0-0.9-0.3-1.7-1c-0.2-0.4-0.6-1.1-1.4-2.1l-4,3c0,0,0,0.1,0.1,0.1c0.1,0.1,0.1,0.1,0.1,0.1
		c-0.1,0.2-0.5,0.4-1.3,0.8c-2.2,0.7-3.3,1-3.3,1c-1.6,0-2.8-0.6-3.7-1.8c-0.4-1.2-0.7-2-0.7-2.6c0-0.4,0.4-1.4,1.2-3.3
		c0.7-0.8,1.2-1.2,1.5-1.2c0.1-0.1,0.9-0.6,2.2-1.6c0.6-0.3,1.7-0.7,3.1-1.3c1.4-0.3,2.2-0.5,2.2-0.6h0c0.1,0,0.4,0,0.8,0.1
		c0.3,0,0.6,0,0.8,0c0.1,0,0.2,0,0.2,0c0.6,0.3,0.9,0.6,0.9,0.9c0,0,0,0.1,0,0.1c0.1,0.1,0.4,0.5,0.8,1.3c0.1,0,0.2,0,0.3,0
		c0.4,0,0.9,0.2,1.3,0.6c0.7,1.1,1.3,2,1.8,2.9C402.7,47.9,403.2,48.9,403.4,49.8z M396,45.2h-0.8c-0.3,0-0.9,0.2-1.9,0.6l-1.7,0.7
		c-0.6,0.4-1.3,0.9-2.1,1.6l-0.1,0.2l0.9,0.1c2.1-0.5,3.7-1.4,4.9-2.6C395.3,45.7,395.6,45.5,396,45.2z"/>
	<path fill="#3DADA8" d="M422,58.6c-0.3,2.1-0.9,3.9-1.9,5.4c-0.1,0.2-0.5,0.6-1.2,1.3c-0.2,0.1-0.6,0.4-1.1,0.8
		c-0.6,0.3-1.1,0.5-1.6,0.7c-0.3,0.2-0.8,0.4-1.4,0.8c-0.3,0.1-0.9,0.3-1.6,0.6l-4.9,0.8l-2.4,0.1c-0.1,0-0.2-0.1-0.5-0.1
		c-0.5-0.1-1.2-0.2-2.1-0.5c-0.8-0.2-1.3-0.3-1.5-0.5c-0.2-0.1-0.7-0.5-1.7-1.2c-0.1-0.3-0.4-0.5-0.8-0.8c-0.6-1.4-1-2.2-1-2.3v-2.2
		l1-1.6c0.3-0.2,0.8-0.6,1.5-1c0.1,0.1,0.2,0.2,0.2,0.4c0,0.1-0.1,0.2-0.2,0.4c0,0,0.1,0,0.2,0c0.1,0,0.1-0.1,0.1-0.3
		c0.2-0.1,0.4-0.2,0.8-0.2l0,0.5l-0.3,0.2c0,0.1,0.1,0.3,0.2,0.6c0.3-0.1,0.4-0.1,0.5-0.1c-0.1,0.2-0.3,0.6-0.6,1v0.3
		c0,0,0.1,0.1,0.1,0.2c0,0.1,0,0.1,0,0.2c0,0.3,0,0.6,0.1,1.1c0,0.1,0.1,0.2,0.3,0.5c0.6,0.5,1.1,0.8,1.2,0.9
		c0.4,0.2,1.1,0.3,2.1,0.3l1.4,0.1c0,0,0.2,0,0.5-0.1c0.3-0.1,0.5-0.1,0.5-0.1c0,0,0.1,0,0.2,0c0.1,0,0.2,0,0.2,0
		c0.3,0,0.9-0.1,1.8-0.2c0.5-0.2,1-0.5,1.6-0.7c1-0.3,1.8-0.7,2.6-1.2c0.2-0.1,0.6-0.4,1-0.8c1.6-1,2.4-2.9,2.4-5.7l-1-5.9l-0.1-0.1
		h-0.3l-4.2,1.3c-0.2-0.1-0.6-0.1-1.1-0.1c-0.1,0-0.2,0-0.3,0c-1,0-2.2-0.4-3.5-1.3c-1.6-1-2.4-2-2.4-3l0.2-0.6
		c0-0.1-0.1-0.3-0.1-0.4c0-0.7,0.4-1.6,1.1-2.5c0.7-0.9,1.2-1.3,1.7-1.4c0.9-0.5,1.9-0.8,3-1c0.1,0,1-0.2,2.8-0.4l2-0.1
		c0.6,0.2,1.2,0.3,1.9,0.5c0.7,0.2,1.4,0.5,1.9,0.9v0.4c0.5,0.2,0.8,0.6,0.9,1.3c0.1,0.1,0.2,0.3,0.4,0.6c-0.1,0-0.2,0-0.3,0.1
		c0,0.4,0,0.6,0.1,0.6c0,0,0,0,0,0c-0.1,0-0.2-0.1-0.3-0.1l-0.1,0.1c0.2,0.4,0.4,0.9,0.7,1.5c0,0,0,0.1,0,0.1c0,0.1,0,0.1,0,0.1
		c0.1,1,0.4,2.8,0.7,5.6l0.4,3.2L422,58.6z M401.5,59c0,0,0,0.1-0.1,0.1c0,0,0,0,0,0c0,0-0.1,0-0.1,0C401.4,59,401.5,59,401.5,59z
		 M416.9,44.9l-1.5-0.1l-3,0.2c0,0,0,0,0,0c0,0-0.8,0.3-2.4,0.9l-0.5,0.5c0,0.1,0,0.1,0.1,0.2c1.1,0.3,1.9,0.4,2.3,0.4
		c0.8,0,1.7-0.2,2.8-0.6C415.9,45.9,416.7,45.4,416.9,44.9z"/>
	<path fill="#3DADA8" d="M444.8,42c-0.1,0-0.2,0.1-0.4,0.2c0,0.1,0,0.2,0,0.2l0.3,0.3c-0.5,0.1-0.9,0.3-1.4,0.5l-2.8-0.6
		c-0.5,0-1.2,0.1-2,0.3c-1,0.3-1.9,0.6-2.7,0.8c-1.6,0.6-3,1.2-4.3,1.8c-1.7,0.8-2.8,2-3.2,3.6c0,0.1,0.1,0.5,0.2,1.2v0.5
		c-0.1,0.2-0.2,0.3-0.2,0.5c0,0.1,0,0.1,0,0.2c0,0.1,0.1,0.2,0.2,0.3l-1.5,1h-0.3c-0.2-0.1-0.5-0.3-0.8-0.6l-0.4,0.1
		c-0.1-0.2-0.3-0.5-0.5-0.8c-0.1-0.3-0.2-0.5-0.3-0.7l-0.2-1v-1.3c0,0,0-0.1,0-0.2c0-0.1,0-0.2,0-0.2v-1.4c0-0.4,0.2-1.1,0.5-2.1
		c0.4-1.3,0.8-1.9,1.2-1.9h0.5l0.5,0.5h0.2c0.3,0,1.2-0.5,2.8-1.5c1.1-0.5,2.8-1.2,5-2.2c0.1,0,0.6-0.2,1.5-0.6
		c0.2,0,0.7-0.1,1.4-0.3l1.1-0.2h1.5c1.1,0,2.3,0.7,3.7,2.1c0.1,0.1,0.1,0.2,0.1,0.4c0.3,0.3,0.4,0.5,0.4,0.8V42z"/>
	<path fill="#3DADA8" d="M451.2,47.6L451.2,47.6c0,0,0,0,0,0.2c0,0.2-0.1,0.5-0.1,0.8c0,0.4,0,0.8,0,1.4v1.6l-0.5,1.1l-0.3-0.1
		c-0.1,0.1-0.2,0.1-0.3,0.2c-0.1,0-0.2-0.1-0.3-0.2c-0.1,0-0.2,0.1-0.3,0.2c-0.1-0.1-0.5-0.2-1.3-0.4c-0.4-0.6-0.7-1.6-1-3.1
		c-0.1-0.3-0.1-0.6-0.1-1c0-0.1,0-0.3,0-0.4l0.1-2.7l0.4-1.8c0.3-0.3,0.5-0.5,0.5-0.8l0.8-0.2c0.1,0,0.3,0.1,0.5,0.2
		c0.3,0.4,0.8,0.9,1.4,1.5c0.3,0.6,0.5,1.1,0.5,1.6L451.2,47.6z M452,36.2c-0.1,0.1-0.1,0.2-0.2,0.3c0.1,0.3,0.2,0.5,0.2,0.7
		c-0.1,0.2-0.4,0.3-0.8,0.6c0-0.1-0.1-0.1-0.3-0.1c-0.2,0-0.3,0-0.3,0.1c-0.4-0.2-0.9-0.4-1.5-0.5c-0.4-0.9-0.6-1.4-0.6-1.6
		c0,0,0,0,0,0l0.2-1.7c0.1,0,0.3-0.2,0.5-0.4h1c0.3,0.2,0.7,0.5,1,1.1c0.3,0.1,0.5,0.3,0.6,0.6C451.8,35.8,452,36.1,452,36.2z"/>
	<path fill="#3DADA8" d="M470.5,48.2c0,0.2,0,0.3,0,0.5c0,0.2,0,0.4,0,0.7c-0.2,0.3-0.5,0.6-1,0.9c-0.7,0.4-1.2,0.6-1.2,0.7
		c0,0.2-0.1,0.3-0.4,0.5c-0.6,0.3-1.6,0.6-3,0.9c-0.6,0.3-1.1,0.5-1.5,0.5c-0.2,0-0.3,0-0.4,0c-0.2,0.2-0.6,0.3-1,0.3
		c-0.2,0-0.6,0.1-1,0.1l-1.8-0.2c0,0-0.1,0-0.2,0c-0.1,0-0.2,0-0.2,0l-1.1-0.3c-0.2,0-0.3,0-0.3,0c-0.2,0-0.6-0.1-1.1-0.3
		c-0.5-0.2-0.9-0.4-1-0.4c-1.1-1.2-1.6-2.3-1.6-3.3c0-0.5,0.2-1.2,0.5-2.1c0.3-0.9,0.6-1.4,0.8-1.6c1.6-1.7,4.2-3.3,7.8-4.9
		c0.2-0.1,0.6-0.3,1.2-0.6c0.1,0,0.6-0.2,1.6-0.5c0.8-0.3,1.5-0.4,2-0.4c0,0,0.1,0,0.3,0c0.2,0,0.4,0,0.4,0c0.1,0,0.3,0,0.4-0.1
		l0.7,2c-0.2,0.3-0.4,0.7-0.7,1l0,0.2v0c-0.1,0.1-1.5,0.7-4.3,2c-0.1,0.1-0.3,0.3-0.6,0.6c-0.8,0.3-1.7,0.6-2.8,1
		c-0.9,0.4-1.6,1-2,1.9c0,0,0,0.1,0,0.2c0.6,0.4,1.5,0.6,2.6,0.6l7-0.8l1.9,0.5L470.5,48.2z"/>
	<path fill="#3DADA8" d="M490.9,45.7c0,0.8-0.2,1.4-0.7,2c0,0.1-0.1,0.3-0.2,0.6c-0.4,0.5-0.9,1.1-1.6,2c-1.1,0.7-2.2,1.4-3.1,2
		c-2.3,0.8-4.1,1.2-5.3,1.2h-1c-0.1,0-0.2,0-0.4-0.1c0,0,0,0,0,0c-0.3,0-1.1-0.2-2.4-0.6c-0.6-0.3-1.4-0.9-2.4-1.8
		c-0.1-0.3-0.4-0.7-0.7-1.3c-0.3-1.2-0.5-2.1-0.5-2.8l0.1-1.4v-2.2c0-0.1,0.1-0.4,0.3-1c0.2-0.6,0.3-1,0.4-1.3
		c0.2-0.5,1-1.2,2.3-2.1c0.2-0.1,0.6-0.2,1.1-0.3c0.1-0.1,0.3-0.2,0.5-0.3c0,0,0.1,0.1,0.2,0.1l0.9-0.3c0.6-0.2,1.1-0.3,1.5-0.3h2.9
		c0.3,0,0.7,0.1,1.1,0.2c0,0,0,0,0.1,0c0.7,0,2.1,0.7,4.2,2v0.3c0.3,0.3,0.8,0.7,1.4,1c0.2,0.2,0.6,1.1,1.3,2.5
		C490.8,44.4,490.9,45,490.9,45.7z M487.4,44.7v-0.4c-0.8-1.3-1.6-2-2.2-2c0,0-0.1,0-0.1,0c0,0-0.1,0-0.1,0h-0.2
		c-0.2-0.3-0.6-0.5-1.4-0.5c-0.1,0-0.2,0-0.3,0l-1.7,0.1l-3.7,0.7l-0.2,0.3v0.5c0,0.1,0,0.3,0.1,0.5c0,0.1-0.1,0.2-0.3,0.3
		c0.1,0.2,0.1,0.3,0.2,0.4c-0.2,0.2-0.3,0.3-0.5,0.3c0,0-0.2,0.3-0.4,0.8c-0.3,0.5-0.4,0.8-0.4,1c0,0,0,0.1,0.1,0.3
		c0.3,0.4,0.8,0.7,1.5,1c0.7,0.3,1.3,0.4,1.9,0.4c1.2-0.2,1.9-0.3,2.1-0.3l2.5-1c1.2-0.5,2-0.9,2.4-1.3
		C487.2,45.4,487.4,45,487.4,44.7z"/>
	<path fill="#3DADA8" d="M499,29.6l-2.7,24c-0.3,0-0.7,0.1-1.1,0.2c-0.1,0-0.2-0.1-0.3-0.2l-0.2,0c-0.1,0-0.3,0-0.4,0
		c0,0-0.3-0.3-0.8-0.6c-0.1,0-0.2,0.1-0.4,0.3c-0.1-0.2-0.2-0.4-0.3-0.7c-0.2-1.4-0.3-2.2-0.3-2.5l1.3-10.9c0.4-3,0.8-6.8,1.2-11.4
		c0.1-0.3,0.2-0.9,0.5-1.8c0.2-0.7,0.4-1.2,0.8-1.5l0.7,0.1c0.3,0.3,0.6,0.5,0.8,0.5c0.1,0.1,0.3,0.5,0.7,1c0.3,1,0.5,1.6,0.5,1.8
		V29.6z"/>
	<path fill="#3DADA8" d="M517.4,49.6c-0.1,0.2-0.3,0.5-0.5,0.9c-0.1,0-0.2,0-0.3-0.1c-0.1,0-0.3,0.1-0.5,0.3
		c0.2,0.1,0.5,0.2,0.9,0.4c-0.1,0-0.4,0.3-0.8,0.6c-0.4,0.2-1.1,0.3-1.9,0.5c-0.3,0.2-0.4,0.4-0.5,0.7l-3.9,0.5
		c-2.8-0.2-5-0.8-6.6-1.9c-1.2-1.2-1.9-2.6-2.2-4.2c-0.1-0.2-0.2-0.4-0.2-0.5c0-1,0.4-2.2,1.3-3.6c0.9-1.5,2-2.5,3.1-3
		c0.1,0,0.2,0,0.5,0c0.5-0.4,1.3-0.8,2.6-1.1c1.1-0.3,2-0.4,2.8-0.4c0.7,0,1.5,0.2,2.3,0.7c0,0,0,0.2,0,0.4c0.2,0,0.4,0.1,0.7,0.2
		c0,0.1,0.1,0.2,0.2,0.3c0,0.4,0.1,0.9,0.4,1.5v0.7c0,0.1-0.1,0.2-0.2,0.3c0.1,0.1,0.1,0.2,0.1,0.3c0,0.2-0.1,0.5-0.3,0.8
		c0,0.1,0,0.3-0.1,0.6c-0.2,0.3-0.5,0.8-0.9,1.4l-3.3,2.4c0.3,0.2,1.2,0.3,2.7,0.3l3.8,0.1C516.7,48.9,517,49.2,517.4,49.6z
		 M510.2,42.8L510.2,42.8c0,0,0-0.1-0.1-0.2c-0.8,0.3-1.3,0.5-1.6,0.7c-0.7,0.4-1.3,0.8-1.5,1.3c0.1,0,0.1,0,0.2,0.1
		C508.6,44.1,509.6,43.5,510.2,42.8z"/>
	<path fill="#3DADA8" d="M557.8,44.8c0,0,0,0.2-0.1,0.4c-0.1,0.2-0.2,0.4-0.2,0.6c0,0.5-0.3,1.2-0.9,1.9c-0.6,0.7-1.2,1.2-1.8,1.5
		c-0.5,0.2-0.8,0.3-0.9,0.5l-3.3,1.6l-3.1,1l-0.1-0.1l-5.3,1.3c-0.1-0.1-0.2-0.1-0.3-0.1c-0.1,0-0.2,0-0.3,0.1l-1.5-0.6l-0.4,3.1V57
		l-0.5,4.6l0.1,3.2l-0.2,2.7c0,0-0.1,0.1-0.3,0.3c-0.1,0.2-0.3,0.2-0.4,0.2c-0.1,0-0.2-0.1-0.3-0.3c0,0,0,0.1-0.1,0.1l-0.2,0.2
		c0,0,0,0,0,0c-0.2,0-0.3-0.1-0.5-0.3c-0.8-0.4-1.3-1-1.6-2.1c-0.2-1.5-0.3-2.3-0.3-2.4V60l0.5-6.1c0.1-0.8,0.6-4.1,1.7-9.8
		c0.3-0.8,0.7-1.2,1.2-1.2l0.6,0.1c0.4,0.2,0.7,0.6,0.9,1c0.3,0.6,0.5,1,0.5,1.1c0,0,0,0.2,0,0.7l-0.3,3.1c0,0.2,0,0.4,0.1,0.7
		c1.2-0.5,2.7-1.1,4.4-1.8c1.8-0.3,3.7-0.9,5.7-2c0.1,0,0.2-0.1,0.4-0.1c0.4-0.3,0.7-0.5,1-0.5c0.4-0.3,0.9-0.8,1.7-1.6
		c-0.2-0.5-0.6-0.9-1.2-1.2c-1-0.6-1.5-0.9-1.6-0.9l-0.3,0.1l-0.6-0.3l-0.2,0c-0.1,0-0.2,0-0.2,0l-1.8-0.4l-3.7,0.1
		c-0.1,0-0.3,0-0.5,0.1c-0.4,0.1-0.7,0.1-0.7,0.1c-1.8,0.2-3.2,0.6-4.3,1.2c-0.3,0-0.8,0.3-1.6,0.7c-1,0.5-1.5,1-1.5,1.5
		c0,0.2,0.1,0.4,0.3,0.7c-0.1,0.1-0.1,0.1-0.3,0.1c-0.1,0.1-0.1,0.2-0.1,0.3c0,0,0,0.1,0,0.1c0,0-0.1,0-0.2,0c-0.1,0-0.1,0-0.2,0
		l-0.2,0.5c-0.1,0-0.2-0.1-0.4-0.2c0,0-0.1,0.1-0.2,0.2h-0.4c-0.1-0.1-0.2-0.2-0.3-0.4l-0.2,0.2c-0.2-0.3-0.5-0.6-0.7-0.7
		c0-0.3-0.1-0.6-0.1-0.8l-0.1-0.3v-1.4l0.3-0.4c0,0,0-0.1,0-0.1c0-0.4,0.2-0.8,0.7-1.2c0.4-0.3,0.8-0.6,1.2-0.9
		c0.1-0.2,0.2-0.3,0.3-0.5c0.2,0.1,0.3,0.1,0.4,0.1l5.1-2.4l3.2-0.9c0.4,0.1,0.8,0.2,1.2,0.2c0,0,0.1,0,0.3-0.1
		c0.2-0.1,0.3-0.1,0.3-0.1h1.6c0,0,0.1-0.1,0.2-0.1c0.6,0.1,1.1,0.2,1.5,0.3c0.5,0,0.9,0,1.2,0.1c0.6,0.1,1.1,0.2,1.5,0.5
		c0,0,0.1,0,0.2,0s0.2,0,0.2,0c1.2,0,2.5,0.8,3.8,2.4c0.3,0.4,0.7,0.9,1.2,1.6C557.5,42.9,557.8,44.1,557.8,44.8z"/>
	<path fill="#3DADA8" d="M574.9,43.2c-0.1,0.6-0.4,1.7-0.7,3.3c-0.2,0.7-0.6,1.6-1.3,2.8c-0.7,1-1.3,1.7-1.6,2.1
		c-0.7,0.8-1.5,1.2-2.2,1.4c-0.3,0.1-0.7,0.3-1.3,0.5c-0.9,0.2-1.5,0.3-1.7,0.3c-2.3,0-4.3-1.8-6-5.3c-0.2-0.9-0.3-1.7-0.3-2.3
		c0-0.4,0.1-1,0.3-1.8c0.6-0.5,1-0.7,1.2-0.7h0c1.3,0.6,1.9,1.5,1.9,2.8c0,0.5,0.3,1.2,1,2c0.7,0.3,1.1,0.5,1.1,0.5h0.5
		c0.1,0,0.6-0.2,1.3-0.4c1-0.7,1.7-1.2,2.1-1.5c0.8-0.7,1.2-1.4,1.3-2.1c0.1-0.4,0.5-1.4,1-3c0.3-1.1,0.7-1.8,1-2.2c0,0,0.1,0,0.2,0
		c0.1,0,0.2,0,0.3,0h0.5c0.1,0.1,0.2,0.3,0.4,0.4c0.2,0.4,0.5,0.9,0.9,1.5c0,0.1,0,0.3,0,0.4c0,0.2,0,0.3,0,0.5c0,0.1,0,0.2,0,0.3
		C574.8,42.9,574.8,43,574.9,43.2z"/>
	<path fill="#3DADA8" d="M598.8,43.6c0,0.2-0.3,1-1,2.4c-0.3,0.2-0.5,0.5-0.6,0.8c-1.2,1.1-2.7,2.1-4.4,3c-0.3,0.2-1.8,0.8-4.4,2
		c-0.4,0.1-0.9,0.2-1.7,0.4c-0.8,0.2-1.2,0.3-1.2,0.3s-0.1,0-0.3,0c-0.2,0-0.3,0-0.3,0c-0.3-0.3-0.6-0.5-0.9-0.5c-0.1,0-0.1,0-0.2,0
		c-0.1-0.1-0.2-0.3-0.4-0.6c-0.1,0.3-0.3,0.6-0.5,0.9c-0.2,0.1-0.3,0.1-0.5,0.1c-0.1,0-0.1,0-0.2,0l-0.3,0.3h-0.2
		c-0.1,0-0.3-0.1-0.9-0.4c-0.3,0.1-0.4,0.1-0.5,0.1c-0.5-0.4-0.8-0.8-0.8-1.1c-0.2-0.3-0.4-0.8-0.5-1.3c-0.2-0.3-0.3-0.6-0.3-0.9
		c0-0.2-0.1-0.5-0.1-0.9c-0.1-0.4-0.1-0.7-0.2-0.7v0.1v-1.6c-0.1-0.5-0.1-0.9-0.1-1.1c0-0.1,0-0.1,0-0.1c0-0.1,0-0.3,0-0.4
		c0-0.2,0-0.4,0.1-0.6c-0.1-0.2-0.4-0.4-1-0.6c-0.4-0.4-0.6-0.9-0.6-1.5c0-0.4,0.2-0.8,0.5-1.3c0.3-0.5,0.6-0.8,0.9-1l0.1-7.7
		c0-0.5,0.1-1.6,0.2-3.2c0.1-0.9,0.3-1.7,0.7-2.4c0.1-0.1,0.2-0.2,0.4-0.3c0.4-0.2,0.6-0.3,0.8-0.3c0,0,0.1,0,0.3,0.1
		c0.2,0.1,0.3,0.1,0.3,0.1c0.1,0.3,0.4,0.7,0.8,1.2c0.1,0.4,0.3,0.9,0.5,1.5c0,0.1,0,0.1,0,0.2c0,0.2,0,0.4,0,0.7
		c0,0.3,0.1,0.7,0.1,1.1l0.3,7.4c0,0.1,0.1,0.1,0.2,0.2c0.1,0,0.4-0.1,1.1-0.1l3.2-0.3l3.1,0.1c0.1,0,0.5,0,1.2,0.1
		c0.8,0.2,1.6,0.3,2.2,0.5c0.1,0.1,0.3,0.2,0.6,0.3c0.8,0.2,1.7,0.7,2.6,1.6c0.8,0.8,1.3,1.5,1.6,2.3
		C598.5,43.1,598.7,43.6,598.8,43.6C598.8,43.6,598.8,43.6,598.8,43.6z M593.7,43.6v-0.2c-0.2-0.3-0.6-0.6-1-0.9
		c-1.1-0.4-2.4-0.7-3.8-0.8c-0.2-0.1-0.4-0.1-0.4-0.1h0l-3.1,0.1c-0.5,0-1.5,0.3-2.9,0.8V43c0,0,0,0.1,0.1,0.2
		c0.1,0.1,0.1,0.2,0.1,0.2v1.6l0.6,4.1c0,0,0.1-0.1,0.2-0.1c0-0.1,0.1-0.2,0.2-0.3c0.8-0.5,2.1-1.1,4-1.7c1.8-0.7,2.9-1.2,3.3-1.5
		C591.3,45.5,592.2,44.8,593.7,43.6z"/>
	<path fill="#3DADA8" d="M606.7,29.6l-2.7,24c-0.3,0-0.7,0.1-1.1,0.2c-0.1,0-0.2-0.1-0.3-0.2l-0.2,0c-0.1,0-0.3,0-0.4,0
		c0,0-0.3-0.3-0.8-0.6c-0.1,0-0.2,0.1-0.4,0.3c-0.1-0.2-0.2-0.4-0.3-0.7c-0.2-1.4-0.3-2.2-0.3-2.5l1.3-10.9c0.4-3,0.8-6.8,1.2-11.4
		c0.1-0.3,0.2-0.9,0.5-1.8c0.2-0.7,0.4-1.2,0.8-1.5l0.7,0.1c0.3,0.3,0.6,0.5,0.8,0.5c0.1,0.1,0.3,0.5,0.7,1c0.3,1,0.5,1.6,0.5,1.8
		V29.6z"/>
	<path fill="#3DADA8" d="M613.5,47.6L613.5,47.6c0,0,0,0,0,0.2c0,0.2-0.1,0.5-0.1,0.8c0,0.4,0,0.8,0,1.4v1.6l-0.5,1.1l-0.3-0.1
		c-0.1,0.1-0.2,0.1-0.3,0.2c-0.1,0-0.2-0.1-0.3-0.2c-0.1,0-0.2,0.1-0.3,0.2c-0.1-0.1-0.5-0.2-1.3-0.4c-0.4-0.6-0.7-1.6-1-3.1
		c-0.1-0.3-0.1-0.6-0.1-1c0-0.1,0-0.3,0-0.4l0.1-2.7l0.4-1.8c0.3-0.3,0.5-0.5,0.5-0.8l0.8-0.2c0.1,0,0.3,0.1,0.5,0.2
		c0.3,0.4,0.8,0.9,1.4,1.5c0.3,0.6,0.5,1.1,0.5,1.6L613.5,47.6z M614.3,36.2c-0.1,0.1-0.1,0.2-0.2,0.3c0.1,0.3,0.2,0.5,0.2,0.7
		c-0.1,0.2-0.4,0.3-0.8,0.6c0-0.1-0.1-0.1-0.3-0.1c-0.2,0-0.3,0-0.3,0.1c-0.4-0.2-0.9-0.4-1.5-0.5c-0.4-0.9-0.6-1.4-0.6-1.6
		c0,0,0,0,0,0l0.2-1.7c0.1,0,0.3-0.2,0.5-0.4h1c0.3,0.2,0.7,0.5,1,1.1c0.3,0.1,0.5,0.3,0.6,0.6C614.2,35.8,614.3,36.1,614.3,36.2z"
		/>
	<path fill="#3DADA8" d="M632.9,48.2c0,0.2,0,0.3,0,0.5c0,0.2,0,0.4,0,0.7c-0.2,0.3-0.5,0.6-1,0.9c-0.7,0.4-1.2,0.6-1.2,0.7
		c0,0.2-0.1,0.3-0.4,0.5c-0.6,0.3-1.6,0.6-3,0.9c-0.6,0.3-1.1,0.5-1.5,0.5c-0.2,0-0.3,0-0.4,0c-0.2,0.2-0.5,0.3-1,0.3
		c-0.2,0-0.6,0.1-1,0.1l-1.8-0.2c0,0-0.1,0-0.2,0s-0.2,0-0.2,0l-1.1-0.3c-0.2,0-0.3,0-0.3,0c-0.2,0-0.6-0.1-1.1-0.3
		c-0.5-0.2-0.9-0.4-1-0.4c-1.1-1.2-1.6-2.3-1.6-3.3c0-0.5,0.2-1.2,0.5-2.1c0.3-0.9,0.6-1.4,0.8-1.6c1.6-1.7,4.2-3.3,7.8-4.9
		c0.2-0.1,0.6-0.3,1.2-0.6c0.1,0,0.6-0.2,1.6-0.5c0.8-0.3,1.5-0.4,2-0.4c0,0,0.1,0,0.3,0c0.2,0,0.4,0,0.4,0c0.1,0,0.3,0,0.4-0.1
		l0.7,2c-0.2,0.3-0.4,0.7-0.7,1l0,0.2v0c-0.1,0.1-1.5,0.7-4.3,2c-0.1,0.1-0.3,0.3-0.6,0.6c-0.8,0.3-1.7,0.6-2.8,1
		c-0.9,0.4-1.6,1-2,1.9c0,0,0,0.1,0,0.2c0.6,0.4,1.5,0.6,2.6,0.6l7-0.8l1.9,0.5L632.9,48.2z"/>
	<path fill="#3DADA8" d="M688.1,27.4c-0.1,0.2-0.1,0.5-0.2,1c0,0.5-0.1,0.8-0.1,0.9c0.1,0.2,0.2,0.3,0.2,0.5c0,0-0.1,0-0.2,0
		c-0.1,0-0.1,0-0.2,0c-0.1,0.3-0.3,0.7-0.7,1.2c0.1,0.2,0.1,0.2,0.1,0.2c-0.1,0.1-0.2,0.2-0.4,0.3l-2.1-0.2l-3,0.2c0,0,0,0,0,0
		c-0.1,0-0.1-0.1-0.2-0.2c0,0,0,0,0,0c-0.1,0-0.2,0.1-0.4,0.2c-0.1,0-0.2,0-0.5,0s-0.4,0-0.5,0c-0.4,0-0.7,0-0.9,0.1
		c0-0.1-0.1-0.2-0.2-0.3c0,0.1-0.2,0.1-0.4,0.1l-1.6,0.5c-0.1,0-0.3,0-0.6,0l-0.4,0c-0.1,0-0.2-0.1-0.3-0.2l-0.1,0.2
		c0,0-0.2,0-0.6,0.1c-0.3,0.1-0.5,0.1-0.5,0.1c0,0-0.2,0-0.6-0.1c-0.4-0.1-0.6-0.1-0.6-0.1l-1.9,0.2c-0.1,0.2-0.2,0.3-0.2,0.3
		c-0.1-0.1-0.2-0.1-0.3-0.3c-0.2,0.1-0.3,0.1-0.4,0.1c-0.1,0-0.2,0-0.3-0.1c-0.2,0.1-0.2,0.2-0.2,0.3h-0.9c0,0.1-0.1,0.1-0.1,0.2
		l-2.2,0.5c-0.4,1-0.8,3-1.4,6.1c0,0.2,0,0.3,0,0.5c0,0.1,0,0.2,0,0.3c-0.8,4.8-1.2,8.4-1.3,10.8c-0.1,0.1-0.2,0.1-0.4,0.1
		c-0.1,0.3-0.1,0.5-0.1,0.7c-0.4,0.2-0.6,0.4-0.8,0.6h0.1c-0.1-0.1-0.6-0.2-1.5-0.3c-0.2-0.4-0.2-0.6-0.3-0.6c0,0-0.1,0-0.3,0
		c-0.2-0.3-0.4-0.7-0.7-1.3l0.1-4l1.4-8.7c0.2-0.9,0.5-2,0.7-3V34c-0.1-0.1-0.1-0.2-0.2-0.3c-0.5,0.1-0.7,0.2-0.7,0.2h0
		c0,0-0.1,0-0.2-0.1c-0.1-0.1-0.1-0.1-0.1-0.1c0,0-0.3,0.1-0.7,0.2c-0.4,0.1-0.7,0.2-0.7,0.2c0,0-0.1,0-0.3,0c-0.2,0-0.3,0-0.3,0
		l-2,0.4c-0.2-0.1-0.4-0.1-0.4-0.1l-2.7,0.6l-2.7,0.3l-1.5,0c-0.4-0.3-0.7-0.5-1.1-0.6c-0.1-0.1-0.1-0.2-0.1-0.3
		c-0.1-0.1-0.2-0.2-0.3-0.2c0,0,0-0.1,0-0.1c0-0.2-0.1-0.4-0.3-0.7v-0.4l0.7-2.3c0.2-0.1,0.6-0.3,1-0.6c1.4-0.3,4.2-0.7,8.3-1.3
		l24.1-3h5.1c0,0.1,0.2,0.3,0.5,0.7c0.3,0.4,0.4,0.6,0.4,0.7c0,0.1,0,0.1,0,0.1C687.8,27.3,687.9,27.3,688.1,27.4z"/>
	<path fill="#3DADA8" d="M690.9,42c-0.1,0-0.2,0.1-0.4,0.2c0,0.1,0,0.2,0,0.2l0.3,0.3c-0.5,0.1-0.9,0.3-1.4,0.5l-2.8-0.6
		c-0.5,0-1.2,0.1-2,0.3c-1,0.3-1.9,0.6-2.7,0.8c-1.6,0.6-3,1.2-4.3,1.8c-1.7,0.8-2.8,2-3.2,3.6c0,0.1,0,0.5,0.2,1.2v0.5
		c-0.1,0.2-0.2,0.3-0.2,0.5c0,0.1,0,0.1,0,0.2c0,0.1,0.1,0.2,0.2,0.3l-1.5,1h-0.3c-0.2-0.1-0.5-0.3-0.8-0.6l-0.4,0.1
		c-0.1-0.2-0.3-0.5-0.5-0.8c-0.1-0.3-0.2-0.5-0.3-0.7l-0.2-1v-1.3c0,0,0-0.1,0-0.2c0-0.1,0-0.2,0-0.2v-1.4c0-0.4,0.2-1.1,0.5-2.1
		c0.4-1.3,0.8-1.9,1.2-1.9h0.5l0.5,0.5h0.2c0.3,0,1.2-0.5,2.8-1.5c1.1-0.5,2.8-1.2,5-2.2c0.1,0,0.6-0.2,1.5-0.6
		c0.2,0,0.7-0.1,1.4-0.3l1.1-0.2h1.5c1.1,0,2.3,0.7,3.7,2.1c0.1,0.1,0.1,0.2,0.1,0.4c0.3,0.3,0.4,0.5,0.4,0.8V42z"/>
	<path fill="#3DADA8" d="M710.4,49.8c-0.3,0.3-0.6,0.8-1.1,1.4l-0.5-0.1c0,0.1-0.1,0.2-0.2,0.4c-0.1-0.1-0.3-0.2-0.6-0.4
		c0,0,0,0-0.1,0c-0.3,0-0.9-0.3-1.7-1c-0.2-0.4-0.6-1.1-1.4-2.1l-4,3c0,0,0,0.1,0.1,0.1c0,0.1,0.1,0.1,0.1,0.1
		c-0.1,0.2-0.5,0.4-1.3,0.8c-2.2,0.7-3.3,1-3.3,1c-1.6,0-2.8-0.6-3.7-1.8c-0.4-1.2-0.7-2-0.7-2.6c0-0.4,0.4-1.4,1.2-3.3
		c0.7-0.8,1.2-1.2,1.5-1.2c0.1-0.1,0.9-0.6,2.2-1.6c0.6-0.3,1.7-0.7,3.1-1.3c1.4-0.3,2.2-0.5,2.2-0.6h0c0.1,0,0.4,0,0.8,0.1
		c0.3,0,0.6,0,0.8,0c0.1,0,0.2,0,0.2,0c0.6,0.3,0.9,0.6,0.9,0.9c0,0,0,0.1,0,0.1c0.1,0.1,0.4,0.5,0.8,1.3c0.1,0,0.2,0,0.3,0
		c0.4,0,0.9,0.2,1.3,0.6c0.7,1.1,1.3,2,1.8,2.9C709.7,47.9,710.2,48.9,710.4,49.8z M703,45.2h-0.8c-0.3,0-0.9,0.2-1.9,0.6l-1.7,0.7
		c-0.6,0.4-1.3,0.9-2.1,1.6l-0.1,0.2l0.9,0.1c2.1-0.5,3.7-1.4,4.9-2.6C702.4,45.7,702.6,45.5,703,45.2z"/>
	<path fill="#3DADA8" d="M729.1,48.2c0,0.2,0,0.3,0,0.5c0,0.2,0,0.4,0,0.7c-0.2,0.3-0.5,0.6-1,0.9c-0.7,0.4-1.2,0.6-1.2,0.7
		c0,0.2-0.1,0.3-0.4,0.5c-0.6,0.3-1.6,0.6-3,0.9c-0.6,0.3-1.1,0.5-1.5,0.5c-0.2,0-0.3,0-0.4,0c-0.2,0.2-0.5,0.3-1,0.3
		c-0.2,0-0.6,0.1-1,0.1l-1.8-0.2c0,0-0.1,0-0.2,0c-0.1,0-0.2,0-0.2,0l-1.1-0.3c-0.2,0-0.3,0-0.3,0c-0.2,0-0.6-0.1-1.1-0.3
		c-0.5-0.2-0.9-0.4-1-0.4c-1.1-1.2-1.6-2.3-1.6-3.3c0-0.5,0.2-1.2,0.5-2.1c0.3-0.9,0.6-1.4,0.8-1.6c1.6-1.7,4.2-3.3,7.8-4.9
		c0.2-0.1,0.6-0.3,1.2-0.6c0.1,0,0.6-0.2,1.6-0.5c0.8-0.3,1.5-0.4,2-0.4c0,0,0.1,0,0.3,0c0.2,0,0.4,0,0.4,0c0.1,0,0.3,0,0.4-0.1
		l0.7,2c-0.2,0.3-0.4,0.7-0.7,1l0,0.2v0c-0.1,0.1-1.5,0.7-4.3,2c-0.1,0.1-0.3,0.3-0.6,0.6c-0.8,0.3-1.7,0.6-2.8,1
		c-0.9,0.4-1.6,1-2,1.9c0,0,0,0.1,0,0.2c0.6,0.4,1.5,0.6,2.6,0.6l7-0.8l1.9,0.5L729.1,48.2z"/>
	<path fill="#3DADA8" d="M745.3,45.5c0,1.2-0.6,3.8-1.7,7.6c-0.2,0.6-1,2.9-2.5,7c0,0.1,0.1,0.1,0.2,0.1H741l-1.4,3.4l-1.6,5
		c-0.1,0.1-0.4,0.3-0.8,0.8c-0.1,0-0.2,0-0.5,0.1l-0.4,0.1c0,0-0.2,0-0.4-0.1c-0.3-0.3-0.8-0.9-1.5-1.6c-0.2-0.8-0.4-1.6-0.4-2.3
		l0.4-2.2l1.5-4.3l2.8-6.8c0-0.1-0.1-0.2-0.1-0.3c-1.1,0.3-1.9,0.5-2.3,0.5c-1.7,0-3-1.1-4-3.2c-0.8-1.7-1.2-3.5-1.2-5.4
		c0-0.5,0.1-1,0.3-1.6c0.2-0.2,0.5-0.5,0.9-0.9h0.2c0.5,0,1,0.4,1.5,1.2c0.2,0.3,0.4,0.7,0.5,1.3c0.5,2.4,0.9,3.6,1.3,3.6
		c0.8,0,2-0.6,3.4-1.8c1.2-1,2.2-2,3-3c0.2,0,0.4-0.1,0.6-0.3c0.2,0.1,0.5,0.1,0.8,0.1c0.2,0.2,0.4,0.5,0.8,0.9
		c0.1,0,0.2,0.1,0.3,0.1C745.1,44,745.3,44.7,745.3,45.5z"/>
	<path fill="#3DADA8" d="M787.4,27.6c-0.1,0.3-0.3,0.9-0.4,1.6c-0.2,0.3-0.4,0.8-0.8,1.5c-0.5,0.6-0.8,1.3-1,1.9
		c-0.1,0.1-0.4,0.6-1.1,1.6c-0.7,1.4-1.3,2.5-2,3.3l-2.6,5.3l-2.3,3.8c-0.1,0.1-0.1,0.3-0.1,0.5c-0.8,1.4-1.8,3.1-3,5.2
		c-0.1,0.3-0.3,0.4-0.4,0.5l0.1,0.3c-0.2,0.2-0.3,0.2-0.5,0.2c-0.2,0.3-0.3,0.5-0.4,0.7c-0.1,0-0.2,0-0.6,0c-0.3,0-0.5,0.1-0.5,0.1
		l-0.1-0.1l-1.3-0.4c-1.2-1.5-2.2-3.3-3-5.6c-0.3-0.9-0.9-2.7-1.7-5.3c0-0.1-0.1-0.3-0.1-0.7c-0.1-0.1-0.1-0.2-0.2-0.3
		c0-0.1-0.2-1-0.7-2.5c-0.4-1.4-1-4-1.7-7.6l0.6-2.7c0.3-0.1,0.5-0.3,0.8-0.5h0.3c0.2,0,0.6,0.4,1.3,1.2c0.6,0.9,1,2,1.4,3.3
		l1.1,3.9l3.5,10c0.6-0.6,1.3-1.7,2.2-3.1c0.9-1.5,1.8-3,2.7-4.5c0.2-0.4,0.8-1.2,1.6-2.6c0.1-0.2,0.1-0.3,0.1-0.4
		c0.1-0.2,0.3-0.4,0.6-0.8c1-1.6,2.5-4.4,4.6-8.6c0.3-0.4,0.7-1,1.4-1.9c0.1,0,0.2-0.1,0.4-0.3c0,0,0.1,0,0.1,0c0.1,0,0.3,0,0.4-0.1
		c0,0.1,0,0.3,0.1,0.5c0.2,0.1,0.5,0.2,0.8,0.2L787,26c0.1,0,0.2,0.1,0.4,0.2c0,0.1,0,0.3,0,0.5C787.4,27,787.4,27.3,787.4,27.6z"/>
	<path fill="#3DADA8" d="M794.8,47.6L794.8,47.6c0,0,0,0,0,0.2c0,0.2-0.1,0.5-0.1,0.8c0,0.4,0,0.8,0,1.4v1.6l-0.5,1.1l-0.3-0.1
		c-0.1,0.1-0.2,0.1-0.3,0.2c-0.1,0-0.2-0.1-0.3-0.2c-0.1,0-0.2,0.1-0.3,0.2c-0.1-0.1-0.5-0.2-1.3-0.4c-0.4-0.6-0.7-1.6-1-3.1
		c0-0.3-0.1-0.6-0.1-1c0-0.1,0-0.3,0-0.4l0.1-2.7l0.4-1.8c0.3-0.3,0.5-0.5,0.5-0.8l0.8-0.2c0.1,0,0.3,0.1,0.5,0.2
		c0.3,0.4,0.8,0.9,1.4,1.5c0.3,0.6,0.5,1.1,0.5,1.6L794.8,47.6z M795.7,36.2c-0.1,0.1-0.1,0.2-0.2,0.3c0.1,0.3,0.2,0.5,0.2,0.7
		c-0.1,0.2-0.4,0.3-0.8,0.6c0-0.1-0.1-0.1-0.3-0.1c-0.2,0-0.3,0-0.3,0.1c-0.4-0.2-0.9-0.4-1.5-0.5c-0.4-0.9-0.6-1.4-0.6-1.6
		c0,0,0,0,0,0l0.2-1.7c0.1,0,0.3-0.2,0.5-0.4h1c0.3,0.2,0.7,0.5,1,1.1c0.3,0.1,0.5,0.3,0.6,0.6C795.5,35.8,795.6,36.1,795.7,36.2z"
		/>
	<path fill="#3DADA8" d="M817.7,42c-0.1,0-0.2,0.1-0.4,0.2c0,0.1,0,0.2,0,0.2l0.3,0.3c-0.5,0.1-0.9,0.3-1.4,0.5l-2.8-0.6
		c-0.5,0-1.2,0.1-2,0.3c-1,0.3-1.9,0.6-2.7,0.8c-1.6,0.6-3,1.2-4.3,1.8c-1.7,0.8-2.8,2-3.2,3.6c0,0.1,0,0.5,0.2,1.2v0.5
		c-0.1,0.2-0.2,0.3-0.2,0.5c0,0.1,0,0.1,0,0.2c0,0.1,0.1,0.2,0.2,0.3l-1.5,1h-0.3c-0.2-0.1-0.5-0.3-0.8-0.6l-0.4,0.1
		c-0.1-0.2-0.3-0.5-0.5-0.8c-0.1-0.3-0.2-0.5-0.3-0.7l-0.2-1v-1.3c0,0,0-0.1,0-0.2c0-0.1,0-0.2,0-0.2v-1.4c0-0.4,0.2-1.1,0.5-2.1
		c0.4-1.3,0.8-1.9,1.2-1.9h0.5l0.5,0.5h0.2c0.3,0,1.2-0.5,2.8-1.5c1.1-0.5,2.8-1.2,5-2.2c0.1,0,0.6-0.2,1.5-0.6
		c0.2,0,0.7-0.1,1.4-0.3l1.1-0.2h1.5c1.1,0,2.3,0.7,3.7,2.1c0.1,0.1,0.1,0.2,0.1,0.4c0.3,0.3,0.4,0.5,0.4,0.8V42z"/>
	<path fill="#3DADA8" d="M835.7,49.6c-0.1,0.2-0.3,0.5-0.5,0.9c-0.1,0-0.2,0-0.3-0.1c-0.1,0-0.3,0.1-0.5,0.3
		c0.2,0.1,0.5,0.2,0.9,0.4c-0.1,0-0.4,0.3-0.8,0.6c-0.4,0.2-1.1,0.3-1.9,0.5c-0.3,0.2-0.4,0.4-0.5,0.7l-3.9,0.5
		c-2.8-0.2-5-0.8-6.6-1.9c-1.2-1.2-1.9-2.6-2.2-4.2c-0.1-0.2-0.2-0.4-0.2-0.5c0-1,0.4-2.2,1.3-3.6c0.9-1.5,2-2.5,3.1-3
		c0.1,0,0.2,0,0.5,0c0.5-0.4,1.3-0.8,2.6-1.1c1.1-0.3,2-0.4,2.8-0.4c0.7,0,1.5,0.2,2.3,0.7c0,0,0,0.2,0,0.4c0.2,0,0.4,0.1,0.7,0.2
		c0,0.1,0.1,0.2,0.2,0.3c0,0.4,0.1,0.9,0.4,1.5v0.7c0,0.1-0.1,0.2-0.2,0.3c0.1,0.1,0.1,0.2,0.1,0.3c0,0.2-0.1,0.5-0.3,0.8
		c0,0.1,0,0.3-0.1,0.6c-0.2,0.3-0.5,0.8-0.9,1.4l-3.3,2.4c0.3,0.2,1.2,0.3,2.7,0.3l3.8,0.1C835,48.9,835.3,49.2,835.7,49.6z
		 M828.5,42.8L828.5,42.8c0,0,0-0.1-0.1-0.2c-0.8,0.3-1.3,0.5-1.6,0.7c-0.7,0.4-1.3,0.8-1.5,1.3c0.1,0,0.1,0,0.2,0.1
		C827,44.1,827.9,43.5,828.5,42.8z"/>
</g>
</svg>
